<?xml version="1.0" encoding="utf-8"?>
<!-- Generator: Adobe Illustrator 23.0.1, SVG Export Plug-In . SVG Version: 6.00 Build 0)  -->
<svg version="1.1" id="Layer_1" xmlns="http://www.w3.org/2000/svg" xmlns:xlink="http://www.w3.org/1999/xlink" x="0px" y="0px"
	 viewBox="0 0 62.4 54" style="enable-background:new 0 0 62.4 54;" xml:space="preserve">
<style type="text/css">
	.st0{fill:#FFFFFF;}
	.st1{font-family:'ArialRoundedMTBold';}
	.st2{font-size:2.8403px;}
	.st3{fill:#C9B55E;}
	.st4{fill:#040202;}
	.st5{fill:#DDDDDC;}
	.st6{fill:#EDEDF2;}
	.st7{fill:#7C6B2B;stroke:#D8C262;stroke-miterlimit:10;}
	.st8{fill:#0E61AD;}
	.st9{fill:#779ED3;}
	.st10{fill:#3F8AC9;}
	.st11{fill:#0168A8;}
	.st12{fill:#0E3F66;}
	.st13{fill:#02558D;}
</style>
<g>
	<g>
		<path d="M43.5,0.1H18.9c-2,0-3.9,1.1-4.9,2.8L1.7,24.2c-1,1.8-1,3.9,0,5.7L14,51.1c1,1.8,2.9,2.8,4.9,2.8h24.5
			c2,0,3.9-1.1,4.9-2.8l12.3-21.3c1-1.8,1-3.9,0-5.7L48.4,2.9C47.4,1.2,45.5,0.1,43.5,0.1z"/>
		<g>
			<g>
				<polygon class="st0" points="47.4,40.2 52.7,34.9 51.6,34.9 49.5,37 49,36.5 50.5,34.9 49.5,34.9 48.4,35.9 47.9,35.4 
					48.4,34.9 47.4,34.9 				"/>
				<polygon class="st0" points="52.7,40.3 52.7,39.3 50.8,37.5 50.4,37.9 				"/>
				<polygon class="st0" points="52.7,38.4 52.7,37.5 51.8,36.5 51.3,37 				"/>
				<polygon class="st0" points="52.7,36.5 52.7,35.6 52.2,36.1 				"/>
			</g>
		</g>
		<g>
			<text transform="matrix(1 0 0 1 25.8167 29.9108)" class="st0 st1 st2">Trimpot</text>
		</g>
		<g id="JST_18_">
			<g>
				<path class="st3" d="M39.3,31.1L39.3,31.1c1,0,1.7,0.8,1.7,1.7v1.4c0,1-0.8,1.7-1.7,1.7h0c-1,0-1.7-0.8-1.7-1.7v-1.4
					C37.5,31.9,38.3,31.1,39.3,31.1z"/>
				<circle class="st4" cx="39.3" cy="33.6" r="1"/>
			</g>
			<g>
				<path class="st3" d="M33.9,31.1L33.9,31.1c1,0,1.7,0.8,1.7,1.7v1.4c0,1-0.8,1.7-1.7,1.7l0,0c-1,0-1.7-0.8-1.7-1.7v-1.4
					C32.1,31.9,32.9,31.1,33.9,31.1z"/>
				<circle class="st4" cx="33.9" cy="33.6" r="1"/>
			</g>
			<g>
				<path class="st3" d="M28.5,31.1L28.5,31.1c1,0,1.7,0.8,1.7,1.7v1.4c0,1-0.8,1.7-1.7,1.7h0c-1,0-1.7-0.8-1.7-1.7v-1.4
					C26.7,31.9,27.5,31.1,28.5,31.1z"/>
				<circle class="st4" cx="28.5" cy="33.6" r="1"/>
			</g>
			<g>
				<path class="st3" d="M21.3,34.3v1.6c0,0.1,0.1,0.1,0.1,0.1h3.2c0.1,0,0.1-0.1,0.1-0.1v-4.6c0-0.1-0.1-0.1-0.1-0.1h-0.9v-0.7
					h-1.4v0.7h-0.9c-0.1,0-0.1,0.1-0.1,0.1v1.6h-0.7v1.4H21.3z"/>
				<circle class="st4" cx="23.1" cy="33.6" r="1"/>
			</g>
			<g>
				
					<rect x="38.5" y="35.7" transform="matrix(-1 -1.224647e-16 1.224647e-16 -1 78.5284 73.3089)" class="st0" width="1.6" height="1.9"/>
				<path class="st5" d="M39.3,33L39.3,33c0.4,0,0.8,0.4,0.8,0.8v1.9h-1.6v-1.9C38.5,33.3,38.8,33,39.3,33z"/>
			</g>
			<g>
				
					<rect x="33.1" y="35.7" transform="matrix(-1 -1.224647e-16 1.224647e-16 -1 67.7221 73.3089)" class="st0" width="1.6" height="1.9"/>
				<path class="st5" d="M33.9,33L33.9,33c0.4,0,0.8,0.4,0.8,0.8v1.9h-1.6v-1.9C33.1,33.3,33.4,33,33.9,33z"/>
			</g>
			<g>
				
					<rect x="27.7" y="35.7" transform="matrix(-1 -1.224647e-16 1.224647e-16 -1 56.9159 73.3089)" class="st0" width="1.6" height="1.9"/>
				<path class="st5" d="M28.5,33L28.5,33c0.4,0,0.8,0.4,0.8,0.8v1.9h-1.6v-1.9C27.7,33.3,28,33,28.5,33z"/>
			</g>
			<g>
				
					<rect x="22.3" y="35.7" transform="matrix(-1 -1.224647e-16 1.224647e-16 -1 46.1096 73.3089)" class="st0" width="1.6" height="1.9"/>
				<path class="st5" d="M23.1,33L23.1,33c0.4,0,0.8,0.4,0.8,0.8v1.9h-1.6v-1.9C22.3,33.3,22.6,33,23.1,33z"/>
			</g>
			<g>
				
					<rect x="41.7" y="31.7" transform="matrix(-1 -1.224647e-16 1.224647e-16 -1 86.1321 68.3412)" class="st0" width="2.7" height="5"/>
				
					<rect x="41.7" y="29.7" transform="matrix(-1 -1.224647e-16 1.224647e-16 -1 86.1321 61.3943)" class="st5" width="2.7" height="2"/>
			</g>
			<g>
				
					<rect x="18" y="31.7" transform="matrix(-1 -1.224647e-16 1.224647e-16 -1 38.6679 68.3412)" class="st0" width="2.7" height="5"/>
				
					<rect x="18" y="29.7" transform="matrix(-1 -1.224647e-16 1.224647e-16 -1 38.6679 61.3943)" class="st5" width="2.7" height="2"/>
			</g>
			
				<rect x="18" y="37" transform="matrix(-1 -1.224647e-16 1.224647e-16 -1 62.4 87.7172)" class="st5" width="26.4" height="13.8"/>
			<g>
				
					<rect x="33.4" y="36.9" transform="matrix(-1 -1.224647e-16 1.224647e-16 -1 67.8409 87.7568)" class="st0" width="1.1" height="13.9"/>
				
					<rect x="27.9" y="36.9" transform="matrix(-1 -1.224647e-16 1.224647e-16 -1 56.9258 87.7568)" class="st0" width="1.1" height="13.9"/>
				
					<rect x="30.6" y="36.9" transform="matrix(-1 -1.224647e-16 1.224647e-16 -1 62.319 81.7303)" class="st0" width="1.1" height="7.9"/>
				
					<rect x="36" y="36.9" transform="matrix(-1 -1.224647e-16 1.224647e-16 -1 73.1252 81.7303)" class="st0" width="1.1" height="7.9"/>
				
					<rect x="25.2" y="36.9" transform="matrix(-1 -1.224647e-16 1.224647e-16 -1 51.5127 81.7303)" class="st0" width="1.1" height="7.9"/>
			</g>
			
				<rect x="18" y="36.9" transform="matrix(-1 -1.224647e-16 1.224647e-16 -1 62.319 78.5537)" class="st6" width="26.3" height="4.7"/>
			<polygon class="st0" points="24.3,53.9 24.3,42.8 30.5,42.8 38.1,42.8 38.1,53.9 44.4,53.9 44.4,36.9 43,36.9 43,48.7 40.4,48.7 
				40.4,37.6 30.5,37.6 22,37.6 22,48.7 19.4,48.7 19.4,36.9 18,36.9 18,53.9 			"/>
			
				<rect x="30.5" y="37" transform="matrix(-1 -1.224647e-16 1.224647e-16 -1 62.3388 74.5557)" class="st0" width="1.4" height="0.7"/>
			
				<rect x="35.9" y="37" transform="matrix(-1 -1.224647e-16 1.224647e-16 -1 73.1252 74.5557)" class="st0" width="1.4" height="0.7"/>
			
				<rect x="25.1" y="37" transform="matrix(-1 -1.224647e-16 1.224647e-16 -1 51.5127 74.5557)" class="st0" width="1.4" height="0.7"/>
			<rect x="27.9" y="30.5" class="st3" width="1.1" height="0.9"/>
			<rect x="38.7" y="30.5" class="st3" width="1.1" height="0.9"/>
		</g>
		<circle class="st7" cx="24.7" cy="14.9" r="1.4"/>
		<circle class="st7" cx="31.4" cy="21.7" r="1.4"/>
		<circle class="st7" cx="38.1" cy="14.9" r="1.4"/>
	</g>
	<g>
		<path class="st8" d="M44.9,28.3V1.4H18v26.9h1.1c0.9,0,1.7-0.7,1.7-1.7v0h21.9v0c0,0.9,0.7,1.7,1.7,1.7H44.9z"/>
		<polygon class="st9" points="31.4,2.7 31.7,4.1 32.1,2.7 32.4,4.2 32.8,2.8 33,4.2 33.5,2.9 33.6,4.4 34.2,3.1 34.2,4.5 34.9,3.3 
			34.8,4.7 35.6,3.5 35.4,4.9 36.2,3.8 35.9,5.2 36.9,4.1 36.5,5.5 37.5,4.5 37,5.8 38.1,4.9 37.5,6.2 38.6,5.3 38,6.6 39.2,5.8 
			38.4,7 39.7,6.3 38.8,7.5 40.1,6.8 39.2,7.9 40.6,7.4 39.6,8.4 41,7.9 39.9,9 41.3,8.6 40.2,9.5 41.7,9.2 40.5,10.1 41.9,9.8 
			40.7,10.7 42.2,10.5 40.9,11.2 42.4,11.2 41.1,11.8 42.5,11.9 41.2,12.5 42.6,12.6 41.3,13.1 42.7,13.3 41.3,13.7 42.7,14 
			41.3,14.3 42.7,14.7 41.3,14.9 42.6,15.4 41.2,15.6 42.5,16.1 41.1,16.2 42.4,16.8 40.9,16.8 42.2,17.5 40.7,17.4 41.9,18.2 
			40.5,17.9 41.7,18.8 40.2,18.5 41.3,19.4 39.9,19 41,20.1 39.6,19.6 40.6,20.6 39.2,20.1 40.1,21.2 38.8,20.5 39.7,21.7 38.4,21 
			39.2,22.2 38,21.4 38.6,22.7 37.5,21.8 38.1,23.1 37,22.2 37.5,23.5 36.5,22.5 36.9,23.9 35.9,22.8 36.2,24.2 35.4,23.1 
			35.6,24.5 34.8,23.3 34.9,24.7 34.2,23.5 34.2,24.9 33.6,23.7 33.5,25.1 33,23.8 32.8,25.2 32.4,23.8 32.1,25.3 31.7,23.9 
			31.4,25.3 31.1,23.9 30.7,25.3 30.5,23.8 30,25.2 29.9,23.8 29.3,25.1 29.3,23.7 28.6,24.9 28.7,23.5 27.9,24.7 28.1,23.3 
			27.3,24.5 27.5,23.1 26.6,24.2 26.9,22.8 26,23.9 26.4,22.5 25.4,23.5 25.9,22.2 24.8,23.1 25.4,21.8 24.2,22.7 24.9,21.4 
			23.7,22.2 24.4,21 23.2,21.7 24,20.5 22.7,21.2 23.6,20.1 22.3,20.6 23.3,19.6 21.9,20.1 22.9,19 21.5,19.4 22.6,18.5 21.2,18.8 
			22.4,17.9 20.9,18.2 22.1,17.4 20.7,17.5 21.9,16.8 20.5,16.8 21.8,16.2 20.3,16.1 21.7,15.6 20.2,15.4 21.6,14.9 20.2,14.7 
			21.5,14.3 20.1,14 21.5,13.7 20.2,13.3 21.6,13.1 20.2,12.6 21.7,12.5 20.3,11.9 21.8,11.8 20.5,11.2 21.9,11.2 20.7,10.5 
			22.1,10.7 20.9,9.8 22.4,10.1 21.2,9.2 22.6,9.5 21.5,8.6 22.9,9 21.9,7.9 23.3,8.4 22.3,7.4 23.6,7.9 22.7,6.8 24,7.5 23.2,6.3 
			24.4,7 23.7,5.8 24.9,6.6 24.2,5.3 25.4,6.2 24.8,4.9 25.9,5.8 25.4,4.5 26.4,5.5 26,4.1 26.9,5.2 26.6,3.8 27.5,4.9 27.3,3.5 
			28.1,4.7 27.9,3.3 28.7,4.5 28.6,3.1 29.3,4.4 29.3,2.9 29.9,4.2 30,2.8 30.5,4.2 30.7,2.7 31.1,4.1 		"/>
		<circle class="st10" cx="31.4" cy="13.9" r="10"/>
		<circle class="st11" cx="31.4" cy="13.9" r="8.2"/>
		<g>
			<rect x="29.8" y="11.5" class="st12" width="3.2" height="10.4"/>
			<polygon class="st13" points="27.5,11.5 29.8,11.5 29.8,6.1 			"/>
			<polygon class="st13" points="35.6,11.5 33,6.1 33,11.5 			"/>
			<rect x="29.8" y="6.1" class="st12" width="3.2" height="5.4"/>
		</g>
	</g>
</g>
</svg>
