<?xml version="1.0" encoding="utf-8"?>
<!-- Generator: Adobe Illustrator 24.0.1, SVG Export Plug-In . SVG Version: 6.00 Build 0)  -->
<svg version="1.1" id="Layer_1" xmlns:svg="http://www.w3.org/2000/svg"
	 xmlns="http://www.w3.org/2000/svg" xmlns:xlink="http://www.w3.org/1999/xlink" x="0px" y="0px" viewBox="0 0 17 33"
	 style="enable-background:new 0 0 17 33;" xml:space="preserve">
<style type="text/css">
	.st0{fill:none;}
	.st1{fill:none;stroke:#8C8C8C;stroke-width:2.16;stroke-linecap:round;}
	.st2{fill:#8C8C8C;}
	.st3{fill:#1A1A1A;}
	.st4{fill:#141414;}
	.st5{fill:#242424;}
	.st6{fill:#1F1F1F;}
	.st7{fill:#E6E6E6;}
	.st8{font-family:'ArialMT';}
	.st9{font-size:3px;}
</style>
<g id="breadboard">
	<rect id="connector0pin" x="0.2" y="22.5" class="st0" width="2.2" height="1"/>
	<rect id="connector1pin" x="7.4" y="22.5" class="st0" width="2.2" height="1"/>
	<rect id="connector2pin" x="14.6" y="22.5" class="st0" width="2.2" height="1"/>
	<line id="connector0leg" class="st1" x1="1.3" y1="24.5" x2="1.3" y2="31.7"/>
	<line id="connector1leg" class="st1" x1="8.5" y1="24.5" x2="8.5" y2="31.7"/>
	<line id="connector2leg" class="st1" x1="15.7" y1="24.5" x2="15.7" y2="31.7"/>
	<rect id="rect9506" x="7.4" y="15.2" class="st2" width="2.2" height="9.4"/>
	<path id="path9510" class="st2" d="M3.5,15.2v3.3c0,0.4-0.8,1.1-1.2,1.4c-1,0.9-2.1,1.8-2.1,3v1.6h2.2c0,0,0-1,0-1.2
		c0-0.5,0.9-1.4,1.4-1.8c1-0.9,1.9-1.7,1.9-2.7v-3.6L3.5,15.2L3.5,15.2z"/>
	<path id="path9514" class="st2" d="M13.5,15.2v3.3c0,0.4,0.8,1.1,1.2,1.4c1,0.9,2.1,1.8,2.1,3v1.6h-2.2c0,0,0-1,0-1.2
		c0-0.5-0.9-1.4-1.4-1.8c-1-0.9-1.9-1.7-1.9-2.7v-3.6L13.5,15.2L13.5,15.2z"/>
	<rect id="rect9553" x="1.9" y="5.1" class="st3" width="13.3" height="10.1"/>
	<path id="path9555" class="st4" d="M14.1,5.1v2.5v8.2v1.8c0.6-0.7,1-1.6,1-2.5l0,0V5.1H14.1z"/>
	<path id="path9557" class="st5" d="M2.9,5.1h-1v10.1l0,0c0,0.9,0.4,1.7,1,2.5v-1.8V7.6V5.1z"/>
	<path id="path9559" class="st6" d="M1.9,5.1L1.9,5.1c0,0.9,0.4,1.7,1,2.5h11.3c0.6-0.7,1-1.6,1-2.5l0,0H1.9z"/>
	<path id="path9561" class="st4" d="M8.5,0.5c-3.7,0-6.6,2.1-6.6,4.7h13.3C15.1,2.5,12.2,0.5,8.5,0.5z"/>
	<rect id="rect9563" x="2.9" y="7.6" width="11.3" height="10.1"/>
	<text id="label0" transform="matrix(1 0 0 1 5.0536 12.452)" class="st7 st8 st9">MCP</text>
	<text id="label0_1_" transform="matrix(1 0 0 1 5.1117 15.452)" class="st7 st8 st9">9700</text>
</g>
</svg>
