<?xml version="1.0" encoding="utf-8"?>
<!-- Generator: Adobe Illustrator 24.3.0, SVG Export Plug-In . SVG Version: 6.00 Build 0)  -->
<svg version="1.1" id="PCB" xmlns="http://www.w3.org/2000/svg" xmlns:xlink="http://www.w3.org/1999/xlink" x="0px" y="0px"
	 viewBox="0 0 67.2 118.7" style="enable-background:new 0 0 67.2 118.7;" xml:space="preserve">
<style type="text/css">
	.st0{fill:none;}
	.st1{fill:#274A88;}
	.st2{fill:#FFFFFF;}
	.st3{font-family:'Consolas';}
	.st4{font-size:5px;}
	.st5{fill:none;stroke:#FFFFFF;stroke-width:0.15;stroke-miterlimit:10;}
	.st6{fill:#7C6B2B;}
	.st7{fill:#CAB65E;}
	.st8{opacity:0.5;}
	.st9{fill:#282828;}
	.st10{fill:#EDEDF2;}
	.st11{fill:#FF6969;}
	.st12{fill:#FF0000;}
</style>
<g>
	<path class="st0" d="M58.8,90.6c0,1.8,1.4,3.2,3.2,3.2s3.2-1.4,3.2-3.2c0-1.8-1.4-3.2-3.2-3.2S58.8,88.8,58.8,90.6z"/>
	<path class="st0" d="M2.1,90.6c0,1.8,1.4,3.2,3.2,3.2s3.2-1.4,3.2-3.2c0-1.8-1.4-3.2-3.2-3.2S2.1,88.8,2.1,90.6z"/>
	<path class="st1" d="M28,5.3l-19.9,0c-1.6,0-2.8,1.3-2.8,2.8l0,17.9c0,0,0,0,0,0c4.1,0,7.3,3.3,7.3,7.4c0,4.1-3.3,7.4-7.3,7.4
		c0,0,0,0,0,0l0,44.6c-2.9,0-5.3,2.4-5.3,5.3c0,2.9,2.4,5.3,5.3,5.3l0,20c0,1.6,1.3,2.8,2.8,2.8h18.2c0,0,0,0,0,0
		c0-4.1,3.3-7.3,7.4-7.3s7.4,3.3,7.4,7.3c0,0,0,0,0,0h18.2c1.6,0,2.8-1.3,2.8-2.8v-20c2.9,0,5.3-2.4,5.3-5.3c0-2.9-2.4-5.3-5.3-5.3
		l0-44.6c0,0,0,0-0.1,0c-4.1,0-7.4-3.3-7.4-7.4c0-4.1,3.3-7.4,7.4-7.4c0,0,0,0,0.1,0v-18c0-1.6-1.3-2.8-2.8-2.8l-20.6,0
		c0-2.9-2.4-5.3-5.3-5.3C30.3,0,28,2.4,28,5.3z M64.7,89c1.5,2.9-1.4,5.9-4.4,4.4c-0.5-0.3-0.9-0.7-1.2-1.2
		c-1.5-2.9,1.4-5.9,4.4-4.4C64.1,88.1,64.5,88.5,64.7,89z M8.1,89c1.5,2.9-1.4,5.9-4.4,4.4c-0.5-0.3-0.9-0.7-1.2-1.2
		c-1.5-2.9,1.4-5.9,4.4-4.4C7.4,88.1,7.8,88.5,8.1,89z M36.4,5.3c0,1.8-1.4,3.2-3.2,3.2c-1.8,0-3.2-1.4-3.2-3.2s1.4-3.2,3.2-3.2
		C35,2.1,36.4,3.5,36.4,5.3z"/>
</g>
<path class="st2" d="M34.2,34.3l0.2-1.6c0.6-0.2,1.2-0.4,1.8-0.7l1.3,1c0.1,0.1,0.2,0.1,0.3,0l1.6-1.6c0.1-0.1,0.1-0.2,0-0.3l-1-1.3
	c0.3-0.5,0.6-1.1,0.7-1.8l1.6-0.2c0.1,0,0.2-0.1,0.2-0.2v-2.3c0-0.1-0.1-0.2-0.2-0.2L39,25c-0.2-0.6-0.4-1.2-0.7-1.8l1-1.3
	c0.1-0.1,0.1-0.2,0-0.3L37.7,20c-0.1-0.1-0.2-0.1-0.3,0l-1.3,1.1c-0.5-0.3-1-0.5-1.6-0.7c-0.1,0-0.1,0-0.2,0l-0.2-1.7
	c0-0.1-0.1-0.2-0.2-0.2h-2.3c-0.1,0-0.2,0.1-0.2,0.2l-0.2,1.7c-0.6,0.2-1.2,0.4-1.7,0.7L28.3,20c-0.1-0.1-0.2-0.1-0.3,0l-1.6,1.6
	c-0.1,0.1-0.1,0.2,0,0.3l1.1,1.3c-0.1,0.1-0.1,0.2-0.2,0.3c-0.1,0.1,0,0.2,0.1,0.3l3,1.4c0.1,0,0.2,0,0.3-0.1
	c0.5-0.8,1.3-1.3,2.2-1.3c1.4,0,2.6,1.2,2.6,2.6s-1.2,2.6-2.6,2.6c-1,0-1.8-0.5-2.2-1.3c-0.1-0.1-0.2-0.1-0.3-0.1l-3,1.4
	c-0.1,0.1-0.2,0.2-0.1,0.3c0,0.1,0.1,0.2,0.2,0.3L26.4,31c-0.1,0.1-0.1,0.2,0,0.3l1.6,1.6c0.1,0.1,0.2,0.1,0.3,0l1.3-1.1
	c0.5,0.3,1.1,0.6,1.7,0.7l0.2,1.6c0,0.1,0.1,0.2,0.2,0.2H34C34.1,34.5,34.2,34.4,34.2,34.3z"/>
<path class="st2" d="M36.3,97.6c0-0.6-0.3-1.1-0.8-1.4l0.8-1.7c0.1,0,0.1,0,0.2,0c0.6,0,1.1-0.3,1.4-0.8l3.6,0.9
	c0,0.9,0.8,1.7,1.7,1.7c0.9,0,1.7-0.8,1.7-1.7c0-0.9-0.8-1.7-1.7-1.7c-0.7,0-1.3,0.4-1.6,1l-3.5-0.8c0-0.1,0-0.1,0-0.2
	c0-0.4-0.1-0.7-0.3-1l1.2-1.2c0.3,0.2,0.6,0.4,1,0.4c0.9,0,1.7-0.8,1.7-1.7c0-0.9-0.8-1.7-1.7-1.7c-0.9,0-1.7,0.8-1.7,1.7
	c0,0.3,0.1,0.5,0.2,0.8l-1.3,1.3c-0.3-0.2-0.5-0.3-0.8-0.3c-0.1,0-0.2,0-0.4,0.1l-1-2.1c0.5-0.3,0.9-0.8,0.9-1.4
	c0-0.9-0.8-1.7-1.7-1.7s-1.7,0.8-1.7,1.7c0,0.9,0.8,1.7,1.7,1.7c0.1,0,0.1,0,0.2,0l1,2.1c-0.3,0.2-0.5,0.5-0.6,0.8h-4.8
	c-0.4-1.2-1.5-2-2.7-2c-1.6,0-2.9,1.3-2.9,2.9c0,1.6,1.3,2.9,2.9,2.9c1.4,0,2.6-1,2.8-2.4l4.8,0c0.1,0.2,0.3,0.4,0.6,0.6L34.8,96
	c-0.1,0-0.1,0-0.2,0c-0.9,0-1.7,0.8-1.7,1.7c0,0.9,0.8,1.7,1.7,1.7C35.5,99.3,36.3,98.5,36.3,97.6z M43.1,93.6c0.6,0,1,0.4,1,1
	c0,0.6-0.4,1-1,1c-0.6,0-1-0.4-1-1C42.1,94,42.6,93.6,43.1,93.6z M33.3,87.8c0-0.6,0.4-1,1-1s1,0.4,1,1c0,0.6-0.4,1-1,1
	S33.3,88.3,33.3,87.8z M40,88.4c0.6,0,1,0.4,1,1c0,0.6-0.4,1-1,1c-0.6,0-1-0.4-1-1C39,88.9,39.5,88.4,40,88.4z M27.4,94.7
	c-0.8,0-1.5-0.7-1.5-1.5c0-0.8,0.7-1.5,1.5-1.5c0.8,0,1.5,0.7,1.5,1.5C28.9,94.1,28.2,94.7,27.4,94.7z M35.5,92.9c0-0.6,0.4-1,1-1
	c0.6,0,1,0.4,1,1c0,0.6-0.4,1-1,1C35.9,93.9,35.5,93.4,35.5,92.9z M33.6,97.6c0-0.6,0.4-1,1-1c0.6,0,1,0.4,1,1c0,0.6-0.4,1-1,1
	C34,98.6,33.6,98.2,33.6,97.6z"/>
<text transform="matrix(6.123234e-17 1 -1 6.123234e-17 8.448 44.7923)" class="st2 st3 st4">Red  LED  Button</text>
<circle class="st5" cx="15.6" cy="114.8" r="2.5"/>
<g>
	<circle class="st6" cx="15.6" cy="114.8" r="1.6"/>
	<circle class="st7" cx="15.6" cy="114.8" r="1.3"/>
</g>
<circle class="st5" cx="15.6" cy="9.4" r="2.5"/>
<g>
	<circle class="st6" cx="15.6" cy="9.4" r="1.6"/>
	<circle class="st7" cx="15.6" cy="9.4" r="1.3"/>
</g>
<circle class="st5" cx="22.6" cy="9.4" r="2.5"/>
<g>
	<circle class="st6" cx="22.6" cy="9.4" r="1.6"/>
	<circle class="st7" cx="22.6" cy="9.4" r="1.3"/>
</g>
<circle class="st5" cx="44.6" cy="9.4" r="2.5"/>
<g>
	<circle class="st6" cx="44.6" cy="9.4" r="1.6"/>
	<circle class="st7" cx="44.6" cy="9.4" r="1.3"/>
</g>
<circle class="st5" cx="51.6" cy="9.4" r="2.5"/>
<g>
	<circle class="st6" cx="51.6" cy="9.4" r="1.6"/>
	<circle class="st7" cx="51.6" cy="9.4" r="1.3"/>
</g>
<circle class="st5" cx="23" cy="114.8" r="2.5"/>
<g>
	<circle class="st6" cx="23" cy="114.8" r="1.6"/>
	<circle class="st7" cx="23" cy="114.8" r="1.3"/>
</g>
<circle class="st5" cx="44.8" cy="114.8" r="2.5"/>
<g>
	<circle class="st6" cx="44.8" cy="114.8" r="1.6"/>
	<circle class="st7" cx="44.8" cy="114.8" r="1.3"/>
</g>
<circle class="st5" cx="52.1" cy="114.8" r="2.5"/>
<g>
	<circle class="st6" cx="52.1" cy="114.8" r="1.6"/>
	<circle class="st7" cx="52.1" cy="114.8" r="1.3"/>
</g>
<g class="st8">
	<path class="st0" d="M2.1,90.6c0,1.8,1.4,3.2,3.2,3.2v-6.4C3.5,87.4,2.1,88.8,2.1,90.6z"/>
	<path class="st0" d="M2.1,90.6c0,1.8,1.4,3.2,3.2,3.2s3.2-1.4,3.2-3.2c0-1.8-1.4-3.2-3.2-3.2S2.1,88.8,2.1,90.6z"/>
</g>
<path class="st9" d="M46.9,77H19c-1.2-1.2-1.8-1.8-3-3V46c1.2-1.2,1.8-1.8,3-3h28c1.2,1.2,1.8,1.8,3,3v28
	C48.7,75.1,48.1,75.8,46.9,77z"/>
<path class="st10" d="M45.9,74H20c-0.4-0.4-0.6-0.6-1-1V47c0.4-0.4,0.6-0.6,1-1h25.9c0.4,0.4,0.6,0.6,1,1V73
	C46.5,73.3,46.3,73.6,45.9,74z"/>
<circle class="st11" cx="32.9" cy="60" r="10.2"/>
<circle class="st12" cx="32.9" cy="60" r="9.5"/>
</svg>
