<?xml version="1.0" encoding="utf-8"?>
<!-- Generator: Adobe Illustrator 23.0.1, SVG Export Plug-In . SVG Version: 6.00 Build 0)  -->
<svg version="1.1" id="Layer_1" xmlns="http://www.w3.org/2000/svg" xmlns:xlink="http://www.w3.org/1999/xlink" x="0px" y="0px"
	 viewBox="0 0 62.4 54" style="enable-background:new 0 0 62.4 54;" xml:space="preserve">
<style type="text/css">
	.st0{fill:#C9B55E;}
	.st1{fill:#040202;}
	.st2{fill:none;stroke:#7C6B2B;stroke-width:0.5;stroke-miterlimit:10;}
	.st3{fill:#FFFFFF;}
	.st4{fill:#EDEDF2;}
	.st5{fill:#DDDDDC;}
	.st6{fill:#C6C5C5;}
	.st7{font-family:'ArialRoundedMTBold';}
	.st8{font-size:5.8542px;}
	.st9{fill:#7C6B2B;stroke:#D8C262;stroke-miterlimit:10;}
	.st10{fill:#3D3C3A;}
	.st11{fill:#0F0E0A;}
</style>
<g>
	<path d="M43.5,0.1H18.9c-2,0-3.9,1.1-4.9,2.8L1.7,24.2c-1,1.8-1,3.9,0,5.7L14,51.1c1,1.8,2.9,2.8,4.9,2.8h24.5c2,0,3.9-1.1,4.9-2.8
		l12.3-21.3c1-1.8,1-3.9,0-5.7L48.4,2.9C47.4,1.2,45.5,0.1,43.5,0.1z"/>
	<g>
		<g>
			<g>
				<path class="st0" d="M28.5,8.4L28.5,8.4c-1,0-1.7-0.8-1.7-1.7V5.3c0-1,0.8-1.7,1.7-1.7h0c1,0,1.7,0.8,1.7,1.7v1.4
					C30.2,7.6,29.4,8.4,28.5,8.4z"/>
				<circle class="st1" cx="28.5" cy="6" r="1"/>
			</g>
			<path class="st2" d="M28.5,8.4L28.5,8.4c-1,0-1.7-0.8-1.7-1.7V5.3c0-1,0.8-1.7,1.7-1.7h0c1,0,1.7,0.8,1.7,1.7v1.4
				C30.2,7.6,29.4,8.4,28.5,8.4z"/>
			<rect x="28.2" y="8" class="st0" width="0.7" height="0.9"/>
		</g>
		<g>
			<rect x="27.4" y="5" class="st3" width="2" height="2"/>
			<polygon class="st4" points="27.4,5 28.5,6 27.4,7 			"/>
			<polygon class="st5" points="29.5,7 28.5,6 27.4,7 			"/>
			<polygon class="st6" points="29.5,5 28.5,6 29.5,7 			"/>
		</g>
	</g>
	<g>
		<g>
			<g>
				<path class="st0" d="M23.2,8.4L23.2,8.4c1,0,1.7-0.8,1.7-1.7V5.3c0-1-0.8-1.7-1.7-1.7h0c-1,0-1.7,0.8-1.7,1.7v1.4
					C21.5,7.6,22.3,8.4,23.2,8.4z"/>
				<circle class="st1" cx="23.2" cy="6" r="1"/>
			</g>
			<path class="st2" d="M23.2,8.4L23.2,8.4c1,0,1.7-0.8,1.7-1.7V5.3c0-1-0.8-1.7-1.7-1.7h0c-1,0-1.7,0.8-1.7,1.7v1.4
				C21.5,7.6,22.3,8.4,23.2,8.4z"/>
			
				<rect x="24.1" y="7.6" transform="matrix(-0.7071 0.7071 -0.7071 -0.7071 47.3717 -3.7744)" class="st0" width="0.7" height="0.7"/>
		</g>
		<g>
			<rect x="22.2" y="5" class="st3" width="2" height="2"/>
			<polygon class="st4" points="22.2,5 23.2,6 22.2,7 			"/>
			<polygon class="st5" points="24.2,7 23.2,6 22.2,7 			"/>
			<polygon class="st6" points="24.2,5 23.2,6 24.2,7 			"/>
		</g>
	</g>
	<g>
		<g>
			<g>
				<path class="st0" d="M33.9,8.4L33.9,8.4c-1,0-1.7-0.8-1.7-1.7V5.3c0-1,0.8-1.7,1.7-1.7h0c1,0,1.7,0.8,1.7,1.7v1.4
					C35.6,7.6,34.9,8.4,33.9,8.4z"/>
				<circle class="st1" cx="33.9" cy="6" r="1"/>
			</g>
			<path class="st2" d="M33.9,8.4L33.9,8.4c-1,0-1.7-0.8-1.7-1.7V5.3c0-1,0.8-1.7,1.7-1.7h0c1,0,1.7,0.8,1.7,1.7v1.4
				C35.6,7.6,34.9,8.4,33.9,8.4z"/>
			<rect x="33.6" y="7.9" class="st0" width="0.7" height="1"/>
		</g>
		<g>
			<rect x="32.9" y="5" class="st3" width="2" height="2"/>
			<polygon class="st4" points="32.9,5 33.9,6 32.9,7 			"/>
			<polygon class="st5" points="34.9,7 33.9,6 32.9,7 			"/>
			<polygon class="st6" points="34.9,5 33.9,6 34.9,7 			"/>
		</g>
	</g>
	<g>
		<g>
			<g>
				<g>
					<path class="st0" d="M41.1,5.3V3.7c0-0.1-0.1-0.1-0.1-0.1h-3.2c-0.1,0-0.1,0.1-0.1,0.1v4.6c0,0.1,0.1,0.1,0.1,0.1h0.9l0,0h1.4
						l0,0h0.9c0.1,0,0.1-0.1,0.1-0.1V6.7l0,0V5.3L41.1,5.3z"/>
					<path class="st2" d="M41.1,5.3V3.7c0-0.1-0.1-0.1-0.1-0.1h-3.2c-0.1,0-0.1,0.1-0.1,0.1v4.6c0,0.1,0.1,0.1,0.1,0.1h0.9l0,0h1.4
						l0,0h0.9c0.1,0,0.1-0.1,0.1-0.1V6.7l0,0V5.3L41.1,5.3z"/>
					<circle class="st1" cx="39.4" cy="6" r="1"/>
				</g>
			</g>
			<rect x="38.7" y="8.1" class="st0" width="1.4" height="0.8"/>
			
				<rect x="40.4" y="5.7" transform="matrix(6.123234e-17 -1 1 6.123234e-17 35.0284 47.1357)" class="st0" width="1.4" height="0.8"/>
		</g>
		<g>
			<rect x="38.4" y="5" class="st3" width="2" height="2"/>
			<polygon class="st4" points="38.4,5 39.4,6 38.4,7 			"/>
			<polygon class="st5" points="40.4,7 39.4,6 38.4,7 			"/>
			<polygon class="st6" points="40.4,5 39.4,6 40.4,7 			"/>
		</g>
	</g>
	<g>
		<g>
			<polygon class="st3" points="28.5,17.3 33.9,12 32.8,12 30.7,14.1 30.1,13.6 31.7,12 30.7,12 29.6,13 29.1,12.5 29.6,12 28.5,12 
							"/>
			<polygon class="st3" points="33.9,17.3 33.9,16.4 32,14.6 31.6,15 			"/>
			<polygon class="st3" points="33.9,15.5 33.9,14.6 32.9,13.6 32.5,14.1 			"/>
			<polygon class="st3" points="33.9,13.6 33.9,12.7 33.4,13.2 			"/>
		</g>
	</g>
	<g>
		<text transform="matrix(1 0 0 1 23.4212 49.3682)" class="st3 st7 st8">Piezo</text>
	</g>
	<circle class="st9" cx="17.6" cy="27" r="2"/>
	<circle class="st9" cx="44.6" cy="27" r="2"/>
	<circle class="st10" cx="31.2" cy="27.1" r="16"/>
	<circle class="st11" cx="31.2" cy="27.1" r="4.4"/>
</g>
</svg>
