<?xml version="1.0" encoding="utf-8"?>
<!-- Generator: Adobe Illustrator 23.0.1, SVG Export Plug-In . SVG Version: 6.00 Build 0)  -->
<svg version="1.1" id="Layer_1" xmlns="http://www.w3.org/2000/svg" xmlns:xlink="http://www.w3.org/1999/xlink" x="0px" y="0px"
	 viewBox="0 0 62.4 54" style="enable-background:new 0 0 62.4 54;" xml:space="preserve">
<style type="text/css">
	.st0{fill:#C9B55E;}
	.st1{fill:#040202;}
	.st2{fill:#FFFFFF;}
	.st3{fill:#DDDDDC;}
	.st4{fill:#EDEDF2;}
	.st5{fill:#C6C5C5;}
	.st6{fill:#7C6B2B;}
	.st7{fill:#474748;}
	.st8{fill:none;stroke:#FFFFFF;stroke-width:0.25;stroke-miterlimit:10;}
	.st9{fill:#3D3C3A;}
	.st10{fill:#0F0E0A;}
	.st11{font-family:'ArialRoundedMTBold';}
	.st12{font-size:6.0054px;}
	.st13{font-size:5.7px;}
</style>
<g>
	<path d="M18.9,53.9h24.5c2,0,3.9-1.1,4.9-2.8l12.3-21.3c1-1.8,1-3.9,0-5.7L48.4,2.9c-1-1.8-2.9-2.8-4.9-2.8H18.9
		c-2,0-3.9,1.1-4.9,2.8L1.7,24.1c-1,1.8-1,3.9,0,5.7L14,51.1C15,52.8,16.9,53.9,18.9,53.9z"/>
	<g id="JST_12_">
		<g>
			<path class="st0" d="M39.3,31.2L39.3,31.2c1,0,1.7,0.8,1.7,1.7v1.4c0,1-0.8,1.7-1.7,1.7h0c-1,0-1.7-0.8-1.7-1.7V33
				C37.5,32,38.3,31.2,39.3,31.2z"/>
			<circle class="st1" cx="39.3" cy="33.7" r="1"/>
		</g>
		<g>
			<path class="st0" d="M33.9,31.2L33.9,31.2c1,0,1.7,0.8,1.7,1.7v1.4c0,1-0.8,1.7-1.7,1.7l0,0c-1,0-1.7-0.8-1.7-1.7V33
				C32.1,32,32.9,31.2,33.9,31.2z"/>
			<circle class="st1" cx="33.9" cy="33.7" r="1"/>
		</g>
		<g>
			<path class="st0" d="M28.5,31.2L28.5,31.2c1,0,1.7,0.8,1.7,1.7v1.4c0,1-0.8,1.7-1.7,1.7h0c-1,0-1.7-0.8-1.7-1.7V33
				C26.7,32,27.5,31.2,28.5,31.2z"/>
			<circle class="st1" cx="28.5" cy="33.7" r="1"/>
		</g>
		<g>
			<path class="st0" d="M21.3,34.4V36c0,0.1,0.1,0.1,0.1,0.1h3.2c0.1,0,0.1-0.1,0.1-0.1v-4.6c0-0.1-0.1-0.1-0.1-0.1h-0.9v-0.7h-1.4
				v0.7h-0.9c-0.1,0-0.1,0.1-0.1,0.1V33h-0.7v1.4H21.3z"/>
			<circle class="st1" cx="23.1" cy="33.7" r="1"/>
		</g>
		<g>
			
				<rect x="38.5" y="35.8" transform="matrix(-1 -1.224647e-16 1.224647e-16 -1 78.5284 73.5312)" class="st2" width="1.6" height="1.9"/>
			<path class="st3" d="M39.3,33.1L39.3,33.1c0.4,0,0.8,0.4,0.8,0.8v1.9h-1.6v-1.9C38.5,33.4,38.8,33.1,39.3,33.1z"/>
		</g>
		<g>
			
				<rect x="33.1" y="35.8" transform="matrix(-1 -1.224647e-16 1.224647e-16 -1 67.7221 73.5312)" class="st2" width="1.6" height="1.9"/>
			<path class="st3" d="M33.9,33.1L33.9,33.1c0.4,0,0.8,0.4,0.8,0.8v1.9h-1.6v-1.9C33.1,33.4,33.4,33.1,33.9,33.1z"/>
		</g>
		<g>
			
				<rect x="27.7" y="35.8" transform="matrix(-1 -1.224647e-16 1.224647e-16 -1 56.9159 73.5312)" class="st2" width="1.6" height="1.9"/>
			<path class="st3" d="M28.5,33.1L28.5,33.1c0.4,0,0.8,0.4,0.8,0.8v1.9h-1.6v-1.9C27.7,33.4,28,33.1,28.5,33.1z"/>
		</g>
		<g>
			
				<rect x="22.3" y="35.8" transform="matrix(-1 -1.224647e-16 1.224647e-16 -1 46.1096 73.5312)" class="st2" width="1.6" height="1.9"/>
			<path class="st3" d="M23.1,33.1L23.1,33.1c0.4,0,0.8,0.4,0.8,0.8v1.9h-1.6v-1.9C22.3,33.4,22.6,33.1,23.1,33.1z"/>
		</g>
		<g>
			
				<rect x="41.7" y="31.8" transform="matrix(-1 -1.224647e-16 1.224647e-16 -1 86.1321 68.5635)" class="st2" width="2.7" height="5"/>
			
				<rect x="41.7" y="29.8" transform="matrix(-1 -1.224647e-16 1.224647e-16 -1 86.1321 61.6166)" class="st3" width="2.7" height="2"/>
		</g>
		<g>
			
				<rect x="18" y="31.8" transform="matrix(-1 -1.224647e-16 1.224647e-16 -1 38.6679 68.5635)" class="st2" width="2.7" height="5"/>
			
				<rect x="18" y="29.8" transform="matrix(-1 -1.224647e-16 1.224647e-16 -1 38.6679 61.6166)" class="st3" width="2.7" height="2"/>
		</g>
		
			<rect x="18" y="37.1" transform="matrix(-1 -1.224647e-16 1.224647e-16 -1 62.4 87.9395)" class="st3" width="26.4" height="13.8"/>
		<g>
			
				<rect x="33.4" y="37" transform="matrix(-1 -1.224647e-16 1.224647e-16 -1 67.8409 87.9791)" class="st2" width="1.1" height="13.9"/>
			
				<rect x="27.9" y="37" transform="matrix(-1 -1.224647e-16 1.224647e-16 -1 56.9258 87.9791)" class="st2" width="1.1" height="13.9"/>
			
				<rect x="30.6" y="37" transform="matrix(-1 -1.224647e-16 1.224647e-16 -1 62.319 81.9526)" class="st2" width="1.1" height="7.9"/>
			
				<rect x="36" y="37" transform="matrix(-1 -1.224647e-16 1.224647e-16 -1 73.1252 81.9526)" class="st2" width="1.1" height="7.9"/>
			
				<rect x="25.2" y="37" transform="matrix(-1 -1.224647e-16 1.224647e-16 -1 51.5127 81.9526)" class="st2" width="1.1" height="7.9"/>
		</g>
		<rect x="18" y="37" transform="matrix(-1 -1.224647e-16 1.224647e-16 -1 62.319 78.776)" class="st4" width="26.3" height="4.7"/>
		<polygon class="st2" points="24.3,54 24.3,42.9 30.5,42.9 38.1,42.9 38.1,54 44.4,54 44.4,37 43,37 43,48.8 40.4,48.8 40.4,37.7 
			30.5,37.7 22,37.7 22,48.8 19.4,48.8 19.4,37 18,37 18,54 		"/>
		
			<rect x="30.5" y="37.1" transform="matrix(-1 -1.224647e-16 1.224647e-16 -1 62.3388 74.7781)" class="st2" width="1.4" height="0.7"/>
		
			<rect x="35.9" y="37.1" transform="matrix(-1 -1.224647e-16 1.224647e-16 -1 73.1252 74.7781)" class="st2" width="1.4" height="0.7"/>
		
			<rect x="25.1" y="37.1" transform="matrix(-1 -1.224647e-16 1.224647e-16 -1 51.5127 74.7781)" class="st2" width="1.4" height="0.7"/>
		<rect x="27.9" y="30.6" class="st0" width="1.1" height="0.9"/>
		<rect x="38.7" y="30.6" class="st0" width="1.1" height="0.9"/>
	</g>
	<g>
		<g>
			
				<rect x="28" y="25.6" transform="matrix(-1 -1.224647e-16 1.224647e-16 -1 57.7744 53.9291)" class="st5" width="1.9" height="2.7"/>
			<g>
				<path class="st6" d="M29.8,25.6v2.7H28v-2.7H29.8 M30.3,25.1h-0.5H28h-0.5v0.5v2.7v0.5H28h1.9h0.5v-0.5v-2.7V25.1L30.3,25.1z"/>
			</g>
			
				<rect x="27.4" y="26.7" transform="matrix(-1.836970e-16 1 -1 -1.836970e-16 54.6309 -0.8105)" class="st0" width="0.7" height="0.5"/>
			<rect x="28.5" y="28.3" class="st0" width="0.7" height="0.5"/>
			<rect x="28.9" y="25.2" class="st0" width="0.7" height="0.5"/>
		</g>
		<g>
			
				<rect x="32.8" y="25.6" transform="matrix(-1 -1.224647e-16 1.224647e-16 -1 67.4228 53.9291)" class="st5" width="1.9" height="2.7"/>
			<g>
				<path class="st6" d="M34.6,25.6v2.7h-1.9v-2.7H34.6 M35.1,25.1h-0.5h-1.9h-0.5v0.5v2.7v0.5h0.5h1.9h0.5v-0.5v-2.7V25.1
					L35.1,25.1z"/>
			</g>
			
				<rect x="32.2" y="26.7" transform="matrix(-1.836970e-16 1 -1 -1.836970e-16 59.4551 -5.6347)" class="st0" width="0.7" height="0.5"/>
			<rect x="33.4" y="28.3" class="st0" width="0.7" height="0.5"/>
			<rect x="33.7" y="25.2" class="st0" width="0.7" height="0.5"/>
		</g>
		<g>
			
				<rect x="32.8" y="25.9" transform="matrix(-1 -1.224647e-16 1.224647e-16 -1 66.3738 53.9094)" class="st2" width="0.7" height="2.1"/>
			
				<rect x="29.3" y="25.9" transform="matrix(-1 -1.224647e-16 1.224647e-16 -1 59.2785 53.9094)" class="st2" width="0.7" height="2.1"/>
			
				<rect x="30" y="25.9" transform="matrix(-1 -1.224647e-16 1.224647e-16 -1 62.8262 53.9094)" class="st7" width="2.8" height="2.1"/>
		</g>
		<line class="st8" x1="32" y1="28.3" x2="30.5" y2="28.3"/>
		<line class="st8" x1="32" y1="25.5" x2="30.5" y2="25.5"/>
	</g>
	<polyline class="st8" points="28.1,22.3 24.3,22.3 24.3,14.7 38.5,14.7 38.5,22.3 31.3,22.3 31.3,21.7 	"/>
	<g>
		<g>
			<path class="st9" d="M31.9,15.1h6c0.2,0,0.4,0.2,0.4,0.4v6c0,0.2-0.2,0.4-0.4,0.4h-6c-0.2,0-0.4-0.2-0.4-0.4v-6
				C31.5,15.3,31.6,15.1,31.9,15.1z"/>
			
				<rect x="33.5" y="17.2" transform="matrix(-1 -1.224647e-16 1.224647e-16 -1 69.7418 37.0095)" class="st10" width="2.7" height="2.7"/>
		</g>
	</g>
	<g>
		<g>
			<path class="st9" d="M24.9,15.1h6c0.2,0,0.4,0.2,0.4,0.4v6c0,0.2-0.2,0.4-0.4,0.4h-6c-0.2,0-0.4-0.2-0.4-0.4v-6
				C24.5,15.3,24.7,15.1,24.9,15.1z"/>
			
				<rect x="26.5" y="17.2" transform="matrix(-1 -1.224647e-16 1.224647e-16 -1 55.7779 37.0095)" class="st10" width="2.7" height="2.7"/>
		</g>
	</g>
	<text transform="matrix(-1 0 0 -1 37.4531 4.8252)" class="st2 st11 st12">LED</text>
	<text transform="matrix(-1 0 0 -1 40.9258 11.9121)" class="st2 st11 st13">+</text>
	<g>
		<g>
			<polygon class="st2" points="50,16.2 44.7,21.5 45.7,21.5 47.9,19.4 48.4,19.9 46.8,21.5 47.9,21.5 48.9,20.5 49.5,21 49,21.5 
				50,21.5 			"/>
			<polygon class="st2" points="44.7,16.2 44.7,17.1 46.5,18.9 47,18.5 			"/>
			<polygon class="st2" points="44.7,18 44.7,18.9 45.6,19.9 46.1,19.4 			"/>
			<polygon class="st2" points="44.7,19.9 44.7,20.8 45.1,20.3 			"/>
		</g>
	</g>
</g>
</svg>
