<?xml version="1.0" encoding="utf-8"?>
<!-- Generator: Adobe Illustrator 23.0.1, SVG Export Plug-In . SVG Version: 6.00 Build 0)  -->
<svg version="1.1" xmlns="http://www.w3.org/2000/svg" xmlns:xlink="http://www.w3.org/1999/xlink" x="0px" y="0px"
	 viewBox="0 0 68 159" style="enable-background:new 0 0 68 159;" xml:space="preserve">
<style type="text/css">
	.st0{fill:#302F2F;stroke:#1E1E1E;stroke-width:3;stroke-miterlimit:10;}
	.st1{fill:#C1954C;}
	.st2{fill:#FDC26B;}
	.st3{fill:#FFD49C;}
	.st4{fill:#C1C1C1;}
	.st5{fill:#0F9CD8;}
	.st6{fill:#07D1F1;}
	.st7{fill:#FFFFFF;}
	.st8{fill:none;stroke:#FEC36C;stroke-miterlimit:10;}
	.st9{fill:#8C8C8C;}
</style>
<g id="Layer_2">
</g>
<g id="Layer_1" xmlns:svg="http://www.w3.org/2000/svg">
	<path d="M0,0v143h68V0H0z M34,119.3L34,119.3c-4,0.1-7.3-3.2-7.3-7.3s3.3-7.3,7.3-7.3s7.3,3.3,7.3,7.3
		C41.4,116.1,38,119.4,34,119.3z"/>
	<g>
		<path class="st0" d="M14.6,127.2h10l2.2,2.2v10l-2.2,2.2h-10l-2.2-2.2v-10L14.6,127.2z"/>
		<rect x="17.9" y="134.1" class="st1" width="3.4" height="23.1"/>
		<rect x="18.2" y="134.1" class="st2" width="2.8" height="23.1"/>
		<polygon class="st2" points="20.6,158.4 21.3,157.2 17.9,157.2 18.6,158.4 		"/>
		<polygon class="st3" points="20.6,158.4 21,157.2 18.2,157.2 18.6,158.4 		"/>
		<path class="st0" d="M29,127.2h10l2.2,2.2v10l-2.2,2.2H29l-2.2-2.2v-10L29,127.2z"/>
		<rect x="32.3" y="134.1" class="st1" width="3.4" height="23.1"/>
		<rect x="32.6" y="134.1" class="st2" width="2.8" height="23.1"/>
		<polygon class="st2" points="35,158.4 35.7,157.2 32.3,157.2 33,158.4 		"/>
		<polygon class="st3" points="35,158.4 35.4,157.2 32.6,157.2 33,158.4 		"/>
		<path class="st0" d="M43.4,127.2h10l2.2,2.2v10l-2.2,2.2h-10l-2.2-2.2v-10L43.4,127.2z"/>
		<rect x="46.7" y="134.1" class="st1" width="3.4" height="23.1"/>
		<rect x="47" y="134.1" class="st2" width="2.8" height="23.1"/>
		<polygon class="st2" points="49.4,158.4 50.1,157.2 46.7,157.2 47.4,158.4 		"/>
		<polygon class="st3" points="49.4,158.4 49.8,157.2 47,157.2 47.4,158.4 		"/>
	</g>
	<path class="st4" d="M34,99.6c-6.9,0-12.4,5.6-12.4,12.4s5.6,12.4,12.4,12.4s12.4-5.6,12.4-12.4l0,0C46.4,105.2,40.9,99.6,34,99.6z
		 M34,101.6c0.6,0,1,0.4,1,1s-0.4,1-1,1s-1-0.4-1-1C33,102,33.4,101.6,34,101.6C34,101.5,34,101.5,34,101.6L34,101.6z M26.6,104.7
		c0.4-0.4,1-0.4,1.4,0c0,0,0,0,0,0c0.4,0.4,0.4,1.1,0,1.5s-1.1,0.4-1.5,0C26.4,105.8,26.7,105.1,26.6,104.7L26.6,104.7z M24.6,113.1
		c-0.6,0-1-0.4-1-1s0.4-1,1-1s1,0.4,1,1C25.6,112.6,25.1,113.1,24.6,113.1L24.6,113.1z M28.1,119.5c-0.4,0.4-1,0.3-1.4-0.1
		s-0.3-1,0.1-1.4c0.4-0.4,1-0.4,1.4,0C28.5,118.4,28.4,119,28.1,119.5L28.1,119.5z M34,122.5c-0.6,0-1-0.4-1-1s0.4-1,1-1s1,0.4,1,1
		C35,122.1,34.5,122.5,34,122.5L34,122.5z M34,119.4c-4.1,0-7.3-3.3-7.3-7.3s3.3-7.3,7.3-7.3s7.3,3.3,7.3,7.3l0,0
		C41.4,116.1,38,119.4,34,119.4L34,119.4z M41.4,119.5c-0.4,0.4-1,0.3-1.4-0.1c-0.4-0.4-0.3-1,0.1-1.4c0.4-0.4,1-0.4,1.4,0
		C41.8,118.4,41.8,119,41.4,119.5L41.4,119.5z M41.4,106.1c-0.4,0.4-1.1,0.4-1.5,0c-0.4-0.4-0.3-1,0.1-1.4c0.4-0.4,1-0.3,1.4,0.1
		C41.8,105.1,41.8,105.7,41.4,106.1z M43.4,113.1c-0.6,0-1-0.4-1-1s0.4-1,1-1s1,0.4,1,1C44.4,112.6,44,113.1,43.4,113.1L43.4,113.1z
		"/>
	<path id="rect5602_1_" class="st5" d="M2.6,0h62.8C66.8,0,68,1.2,68,2.6v82.9c0,1.4-1.2,2.6-2.6,2.6H2.6c-1.4,0-2.6-1.2-2.6-2.6
		V2.6C0,1.2,1.2,0,2.6,0z"/>
	<path id="rect5602-4_1_" class="st6" d="M2.6,0C1.2,0,0,1.2,0,2.6v24h11.4v7H0v7h11.4v7H0v21h11.4v7H0v10c0,1.4,1.2,2.6,2.6,2.6
		h62.8c1.4,0,2.6-1.2,2.6-2.6V2.6C68,1.2,66.8,0,65.4,0H50.7v6.8h-7.1V0h-6.2v6.8h-7.1V0h-6.2v6.8h-7.1V0L2.6,0L2.6,0z M17.1,13h7.1
		v7h-7.1V13z M30.4,13h7.1v7h-7.1V13z M43.7,13h7.1v7h-7.1V13z M17.1,26.6h7.1v7h-7.1V26.6z M30.4,26.6h7.1v7h-7.1V26.6z M43.7,26.6
		h7.1v7h-7.1V26.6z M56.4,26.6H68v7H56.4V26.6z M17.1,40.5h7.1v7h-7.1V40.5z M30.4,40.5h7.1v7h-7.1V40.5z M43.7,40.5h7.1v7h-7.1
		V40.5z M56.4,40.5H68v7H56.4V40.5z M17.1,54.1h7.1v7h-7.1V54.1z M30.4,54.1h7.1v7h-7.1V54.1z M43.7,54.1h7.1v7h-7.1V54.1z
		 M17.1,68.5h7.1v7h-7.1V68.5z M30.4,68.5h7.1v7h-7.1V68.5z M43.7,68.5h7.1v7h-7.1V68.5z M56.4,68.5H68v7H56.4V68.5z"/>
	<g>
		<circle class="st7" cx="13.3" cy="95.2" r="3.2"/>
		<circle class="st8" cx="13.3" cy="95.2" r="3.4"/>
	</g>
	<g>
		<circle class="st7" cx="27.1" cy="95.2" r="3.2"/>
		<circle class="st8" cx="27.1" cy="95.2" r="3.4"/>
	</g>
	<g>
		<circle class="st7" cx="40.9" cy="95.2" r="3.2"/>
		<circle class="st8" cx="40.9" cy="95.2" r="3.4"/>
	</g>
	<g>
		<circle class="st7" cx="54.7" cy="95.2" r="3.2"/>
		<circle class="st8" cx="54.7" cy="95.2" r="3.4"/>
	</g>
	<g transform="matrix(1, 0, 0, 1, 0, -0.0559723)">
		<g>
			<g>
				<g>
					<g id="g6062_1_">
						<polygon id="rect5993_1_" class="st9" points="11.3,88.1 15.4,88.1 15.4,88.1 15.4,94.5 15.4,94.5 11.3,94.5 11.3,94.5 						
							"/>
						<polygon id="rect5993-8_1_" class="st4" points="11.3,94.4 15.4,94.4 15.4,94.4 15.4,96.2 15.4,96.2 11.3,96.2 11.3,96.2 
													"/>
					</g>
				</g>
			</g>
		</g>
	</g>
	<g transform="matrix(1, 0, 0, 1, 0.13539, -0.363272)">
		<g>
			<g>
				<g>
					<g id="g6058_1_">
						<polygon id="rect5993-7_1_" class="st9" points="24.9,88.4 29,88.4 29,88.4 29,94.8 29,94.8 24.9,94.8 24.9,94.8 						"/>
						<polygon id="rect5993-8-1_1_" class="st4" points="24.9,94.7 29,94.7 29,94.7 29,96.5 29,96.5 24.9,96.5 24.9,96.5 						"/>
					</g>
				</g>
			</g>
		</g>
	</g>
	<g transform="matrix(1, 0, 0, 1, 0.067688, -0.0518955)">
		<g>
			<g>
				<g>
					<g id="g6054_1_">
						<polygon id="rect5993-2_1_" class="st9" points="38.8,88.1 42.9,88.1 42.9,88.1 42.9,94.5 42.9,94.5 38.8,94.5 38.8,94.5 
													"/>
						<polygon id="rect5993-8-9_1_" class="st4" points="38.8,94.4 42.9,94.4 42.9,94.4 42.9,96.2 42.9,96.2 38.8,96.2 38.8,96.2 
													"/>
					</g>
				</g>
			</g>
		</g>
	</g>
	<g transform="matrix(1, 0, 0, 1, 3.05176e-06, -0.259488)">
		<g>
			<g>
				<g>
					<g id="g6050_1_">
						<polygon id="rect5993-3_1_" class="st9" points="52.6,88.3 56.7,88.3 56.7,88.3 56.7,94.7 56.7,94.7 52.6,94.7 52.6,94.7 
													"/>
						<polygon id="rect5993-8-8_1_" class="st4" points="52.6,94.6 56.7,94.6 56.7,94.6 56.7,96.4 56.7,96.4 52.6,96.4 52.6,96.4 
													"/>
					</g>
				</g>
			</g>
		</g>
	</g>
</g>
</svg>
