<?xml version="1.0" encoding="utf-8"?>
<!-- Generator: Adobe Illustrator 23.0.1, SVG Export Plug-In . SVG Version: 6.00 Build 0)  -->
<svg version="1.1" id="Layer_1" xmlns="http://www.w3.org/2000/svg" xmlns:xlink="http://www.w3.org/1999/xlink" x="0px" y="0px"
	 viewBox="0 0 62.4 54" style="enable-background:new 0 0 62.4 54;" xml:space="preserve">
<style type="text/css">
	.st0{fill:#C9B55E;}
	.st1{fill:#040202;}
	.st2{fill:none;stroke:#7C6B2B;stroke-width:0.5;stroke-miterlimit:10;}
	.st3{fill:#FFFFFF;}
	.st4{fill:#EDEDF2;}
	.st5{fill:#DDDDDC;}
	.st6{fill:#C6C5C5;}
	.st7{font-family:'ArialRoundedMTBold';}
	.st8{font-size:5.8542px;}
	.st9{fill:#D8C262;}
	.st10{fill:#7C6B2B;}
	.st11{fill:#663231;}
	.st12{fill:none;stroke:#FFFFFF;stroke-width:0.25;stroke-miterlimit:10;}
	.st13{fill:none;stroke:#D8C262;stroke-width:0.5;stroke-miterlimit:10;}
	.st14{fill:#E0CB71;}
	.st15{fill:#C3C1BD;}
	.st16{clip-path:url(#SVGID_2_);fill:#FFFFFF;}
</style>
<g>
	<g>
		<path d="M43.5,0.1H18.9c-2,0-3.9,1.1-4.9,2.8L1.7,24.2c-1,1.8-1,3.9,0,5.7L14,51.1c1,1.8,2.9,2.8,4.9,2.8h24.5
			c2,0,3.9-1.1,4.9-2.8l12.3-21.3c1-1.8,1-3.9,0-5.7L48.4,2.9C47.4,1.2,45.5,0.1,43.5,0.1z"/>
		<g>
			<g>
				<g>
					<path class="st0" d="M28.5,8.4L28.5,8.4c-1,0-1.7-0.8-1.7-1.7V5.3c0-1,0.8-1.7,1.7-1.7h0c1,0,1.7,0.8,1.7,1.7v1.4
						C30.2,7.6,29.4,8.4,28.5,8.4z"/>
					<circle class="st1" cx="28.5" cy="6" r="1"/>
				</g>
				<path class="st2" d="M28.5,8.4L28.5,8.4c-1,0-1.7-0.8-1.7-1.7V5.3c0-1,0.8-1.7,1.7-1.7h0c1,0,1.7,0.8,1.7,1.7v1.4
					C30.2,7.6,29.4,8.4,28.5,8.4z"/>
				<rect x="28.2" y="8" class="st0" width="0.7" height="0.9"/>
			</g>
			<g>
				<rect x="27.4" y="5" class="st3" width="2" height="2"/>
				<polygon class="st4" points="27.4,5 28.5,6 27.4,7 				"/>
				<polygon class="st5" points="29.5,7 28.5,6 27.4,7 				"/>
				<polygon class="st6" points="29.5,5 28.5,6 29.5,7 				"/>
			</g>
		</g>
		<g>
			<g>
				<g>
					<path class="st0" d="M23.2,8.4L23.2,8.4c1,0,1.7-0.8,1.7-1.7V5.3c0-1-0.8-1.7-1.7-1.7h0c-1,0-1.7,0.8-1.7,1.7v1.4
						C21.5,7.6,22.3,8.4,23.2,8.4z"/>
					<circle class="st1" cx="23.2" cy="6" r="1"/>
				</g>
				<path class="st2" d="M23.2,8.4L23.2,8.4c1,0,1.7-0.8,1.7-1.7V5.3c0-1-0.8-1.7-1.7-1.7h0c-1,0-1.7,0.8-1.7,1.7v1.4
					C21.5,7.6,22.3,8.4,23.2,8.4z"/>
				
					<rect x="24.1" y="7.6" transform="matrix(-0.7071 0.7071 -0.7071 -0.7071 47.3717 -3.7744)" class="st0" width="0.7" height="0.7"/>
			</g>
			<g>
				<rect x="22.2" y="5" class="st3" width="2" height="2"/>
				<polygon class="st4" points="22.2,5 23.2,6 22.2,7 				"/>
				<polygon class="st5" points="24.2,7 23.2,6 22.2,7 				"/>
				<polygon class="st6" points="24.2,5 23.2,6 24.2,7 				"/>
			</g>
		</g>
		<g>
			<g>
				<g>
					<path class="st0" d="M33.9,8.4L33.9,8.4c-1,0-1.7-0.8-1.7-1.7V5.3c0-1,0.8-1.7,1.7-1.7h0c1,0,1.7,0.8,1.7,1.7v1.4
						C35.6,7.6,34.9,8.4,33.9,8.4z"/>
					<circle class="st1" cx="33.9" cy="6" r="1"/>
				</g>
				<path class="st2" d="M33.9,8.4L33.9,8.4c-1,0-1.7-0.8-1.7-1.7V5.3c0-1,0.8-1.7,1.7-1.7h0c1,0,1.7,0.8,1.7,1.7v1.4
					C35.6,7.6,34.9,8.4,33.9,8.4z"/>
				<rect x="33.6" y="7.9" class="st0" width="0.7" height="1"/>
			</g>
			<g>
				<rect x="32.9" y="5" class="st3" width="2" height="2"/>
				<polygon class="st4" points="32.9,5 33.9,6 32.9,7 				"/>
				<polygon class="st5" points="34.9,7 33.9,6 32.9,7 				"/>
				<polygon class="st6" points="34.9,5 33.9,6 34.9,7 				"/>
			</g>
		</g>
		<g>
			<g>
				<g>
					<g>
						<path class="st0" d="M41.1,5.3V3.7c0-0.1-0.1-0.1-0.1-0.1h-3.2c-0.1,0-0.1,0.1-0.1,0.1v4.6c0,0.1,0.1,0.1,0.1,0.1h0.9l0,0h1.4
							l0,0h0.9c0.1,0,0.1-0.1,0.1-0.1V6.7l0,0V5.3L41.1,5.3z"/>
						<path class="st2" d="M41.1,5.3V3.7c0-0.1-0.1-0.1-0.1-0.1h-3.2c-0.1,0-0.1,0.1-0.1,0.1v4.6c0,0.1,0.1,0.1,0.1,0.1h0.9l0,0h1.4
							l0,0h0.9c0.1,0,0.1-0.1,0.1-0.1V6.7l0,0V5.3L41.1,5.3z"/>
						<circle class="st1" cx="39.4" cy="6" r="1"/>
					</g>
				</g>
				<rect x="38.7" y="8.1" class="st0" width="1.4" height="0.8"/>
				
					<rect x="40.4" y="5.7" transform="matrix(6.123234e-17 -1 1 6.123234e-17 35.0284 47.1357)" class="st0" width="1.4" height="0.8"/>
			</g>
			<g>
				<rect x="38.4" y="5" class="st3" width="2" height="2"/>
				<polygon class="st4" points="38.4,5 39.4,6 38.4,7 				"/>
				<polygon class="st5" points="40.4,7 39.4,6 38.4,7 				"/>
				<polygon class="st6" points="40.4,5 39.4,6 40.4,7 				"/>
			</g>
		</g>
		<g>
			<g>
				<polygon class="st3" points="28.5,17.2 33.9,11.9 32.8,11.9 30.7,14 30.1,13.5 31.7,11.9 30.7,11.9 29.6,13 29.1,12.4 
					29.6,11.9 28.5,11.9 				"/>
				<polygon class="st3" points="33.9,17.3 33.9,16.3 32,14.5 31.6,14.9 				"/>
				<polygon class="st3" points="33.9,15.4 33.9,14.5 32.9,13.5 32.5,14 				"/>
				<polygon class="st3" points="33.9,13.5 33.9,12.6 33.4,13.1 				"/>
			</g>
		</g>
		<g>
			<text transform="matrix(1 0 0 1 18.0513 49.765)" class="st3 st7 st8">RGB LED</text>
		</g>
		<g>
			<g>
				<rect x="28" y="36.9" class="st6" width="1.9" height="2.7"/>
				<g>
					<g>
						<path class="st9" d="M29.8,36.9v2.7H28v-2.7H29.8 M30.3,36.4h-0.5H28h-0.5v0.5v2.7v0.5H28h1.9h0.5v-0.5v-2.7V36.4L30.3,36.4z"
							/>
					</g>
				</g>
			</g>
			<g>
				<rect x="32.8" y="36.9" class="st6" width="1.9" height="2.7"/>
				<g>
					<path class="st10" d="M34.6,36.9v2.7h-1.9v-2.7H34.6 M35.1,36.4h-0.5h-1.9h-0.5v0.5v2.7v0.5h0.5h1.9h0.5v-0.5v-2.7V36.4
						L35.1,36.4z"/>
				</g>
				
					<rect x="34.5" y="38.1" transform="matrix(6.123234e-17 -1 1 6.123234e-17 -3.4396 73.1604)" class="st0" width="0.7" height="0.5"/>
				
					<rect x="33.3" y="36.4" transform="matrix(-1 -1.224647e-16 1.224647e-16 -1 67.3878 73.3466)" class="st0" width="0.7" height="0.5"/>
				
					<rect x="33" y="39.6" transform="matrix(-1 -1.224647e-16 1.224647e-16 -1 66.6654 79.6357)" class="st0" width="0.7" height="0.5"/>
			</g>
			<g>
				<rect x="29" y="37.2" class="st3" width="0.7" height="2.1"/>
				<rect x="32.6" y="37.2" class="st3" width="0.7" height="2.1"/>
				<rect x="29.8" y="37.2" class="st11" width="2.8" height="2.1"/>
			</g>
			<line class="st12" x1="30.5" y1="36.9" x2="32" y2="36.9"/>
			<line class="st12" x1="30.5" y1="39.7" x2="32" y2="39.7"/>
		</g>
		<g>
			
				<rect x="23.3" y="29.7" transform="matrix(-1.836970e-16 1 -1 -1.836970e-16 56.5561 7.227)" class="st6" width="2.8" height="4.4"/>
			
				<rect x="23.3" y="29.7" transform="matrix(-1.836970e-16 1 -1 -1.836970e-16 56.5561 7.227)" class="st13" width="2.8" height="4.4"/>
		</g>
		<g>
			<g>
				
					<rect x="23.4" y="25.6" transform="matrix(-1.836970e-16 1 -1 -1.836970e-16 52.2136 2.8845)" class="st6" width="2.5" height="3.9"/>
				<polyline class="st2" points="26.9,27.9 26.9,28.9 24.5,28.9 22.4,28.9 22.4,26.1 26.9,26.1 26.9,26.9 				"/>
			</g>
			<line class="st13" x1="26.9" y1="26.9" x2="26.9" y2="27.9"/>
		</g>
		<g>
			<g>
				
					<rect x="36.4" y="29.9" transform="matrix(6.123234e-17 -1 1 6.123234e-17 5.8066 69.5371)" class="st6" width="2.5" height="3.9"/>
				<polyline class="st2" points="35.4,31.5 35.4,30.5 37.8,30.5 39.9,30.5 39.9,33.3 35.4,33.3 35.4,32.5 				"/>
			</g>
			<line class="st13" x1="35.4" y1="32.5" x2="35.4" y2="31.5"/>
		</g>
		<g>
			<g>
				
					<rect x="36.4" y="25.5" transform="matrix(6.123234e-17 -1 1 6.123234e-17 10.1754 65.1683)" class="st6" width="2.5" height="3.9"/>
				<polyline class="st2" points="35.4,27.2 35.4,26.1 37.8,26.1 39.9,26.1 39.9,28.9 35.4,28.9 35.4,28.1 				"/>
			</g>
			<line class="st2" x1="35.4" y1="28.1" x2="35.4" y2="27.2"/>
		</g>
		<g>
			<g>
				
					<rect x="36.4" y="21.3" transform="matrix(6.123234e-17 -1 1 6.123234e-17 14.4353 60.9084)" class="st6" width="2.5" height="3.9"/>
				<polyline class="st2" points="35.4,22.9 35.4,21.9 37.8,21.9 39.9,21.9 39.9,24.7 35.4,24.7 35.4,23.9 				"/>
			</g>
			<line class="st2" x1="35.4" y1="23.9" x2="35.4" y2="22.9"/>
		</g>
		<g>
			<g>
				
					<rect x="23.4" y="21.3" transform="matrix(-1.836970e-16 1 -1 -1.836970e-16 47.9566 -1.3725)" class="st6" width="2.5" height="3.9"/>
				<polyline class="st2" points="26.9,23.6 26.9,24.7 24.5,24.7 22.4,24.7 22.4,21.9 26.9,21.9 26.9,22.7 				"/>
			</g>
			<line class="st2" x1="26.9" y1="22.7" x2="26.9" y2="23.6"/>
			<polygon class="st14" points="25.8,21.6 25.3,22.1 26.4,22.1 26.8,21.6 			"/>
		</g>
	</g>
	<line class="st12" x1="31.1" y1="20.8" x2="38" y2="20.8"/>
	<line class="st12" x1="24.3" y1="34.3" x2="38" y2="34.3"/>
	<g>
		<path class="st4" d="M37.1,34.1h-12c-0.4,0-0.7-0.3-0.7-0.7v-12c0-0.4,0.3-0.7,0.7-0.7h12c0.4,0,0.7,0.3,0.7,0.7v12
			C37.8,33.8,37.5,34.1,37.1,34.1z"/>
		<path class="st3" d="M37,33.9H25.2c-0.3,0-0.6-0.3-0.6-0.6V21.5c0-0.3,0.3-0.6,0.6-0.6H37c0.3,0,0.6,0.3,0.6,0.6v11.8
			C37.6,33.6,37.4,33.9,37,33.9z"/>
		<circle class="st15" cx="31.1" cy="27.4" r="5.4"/>
		<circle class="st5" cx="31.1" cy="27.4" r="4.7"/>
		<g>
			<defs>
				<circle id="SVGID_1_" cx="31.1" cy="27.4" r="4.7"/>
			</defs>
			<clipPath id="SVGID_2_">
				<use xlink:href="#SVGID_1_"  style="overflow:visible;"/>
			</clipPath>
			<polygon class="st16" points="36.7,28 36.7,27.1 33.7,27.1 33.7,25.4 34.4,25.4 34.4,22.7 33.5,22.7 33.5,24.4 31.1,24.4 
				28.7,24.4 28.7,22.7 27.8,22.7 27.8,25.4 28.5,25.4 28.5,27.1 25.5,27.1 25.5,28 28.5,28 28.5,30.7 27.2,31.9 27.9,32.6 29.5,31 
				29.5,25.4 31.1,25.4 32.7,25.4 32.7,31 34.3,32.6 35,31.9 33.7,30.7 33.7,28 			"/>
		</g>
		<g>
			<rect x="30" y="25.9" class="st9" width="2.1" height="3.1"/>
		</g>
	</g>
</g>
</svg>
