<?xml version="1.0" encoding="utf-8"?>
<!-- Generator: Adobe Illustrator 23.0.2, SVG Export Plug-In . SVG Version: 6.00 Build 0)  -->
<svg version="1.1" xmlns="http://www.w3.org/2000/svg" xmlns:xlink="http://www.w3.org/1999/xlink" x="0px" y="0px"
	 viewBox="0 0 78.8 104.9" style="enable-background:new 0 0 78.8 104.9;" xml:space="preserve">
<style type="text/css">
	.st0{fill:#134A85;}
	.st1{fill:#BD9249;}
	.st2{fill:#E5E5EC;}
	.st3{fill:#FFFFFF;}
	.st4{fill:none;stroke:#FEC36C;stroke-width:2;stroke-miterlimit:10;}
	.st5{fill:none;stroke:#FFFFFF;stroke-width:0.2577;stroke-miterlimit:10;}
	.st6{fill:#FEC36C;}
	.st7{fill:#29292B;}
	.st8{fill:#404141;}
</style>
<g id="Layer_1">
	
		<image style="display:none;overflow:visible;" width="400" height="400" xlink:href="DC9A699E.jpg"  transform="matrix(0.2842 0 0 0.2842 -15.727 -3.3567)">
	</image>
	<g>
		<path class="st0" d="M0,0v104.9h78.8V0H0z M15.2,25.5c-5,0-9.1-4.1-9.1-9.1c0-5,4.1-9.1,9.1-9.1s9.1,4.1,9.1,9.1
			C24.3,21.4,20.3,25.5,15.2,25.5z M65.6,25.5c-5,0-9.1-4.1-9.1-9.1c0-5,4.1-9.1,9.1-9.1s9.1,4.1,9.1,9.1
			C74.7,21.4,70.6,25.5,65.6,25.5z"/>
	</g>
</g>
<g id="pad">
	<g>
		
			<rect x="48.4" y="41.7" transform="matrix(6.123234e-17 -1 1 6.123234e-17 5.5218 93.594)" class="st1" width="2.3" height="4.7"/>
		<rect x="47.6" y="43.2" class="st2" width="3.9" height="1.8"/>
	</g>
	<g>
		<rect x="48.4" y="39" transform="matrix(6.123234e-17 -1 1 6.123234e-17 8.2431 90.8727)" class="st1" width="2.3" height="4.7"/>
		<rect x="47.6" y="40.4" class="st2" width="3.9" height="1.8"/>
	</g>
	<g>
		
			<rect x="48.4" y="36.2" transform="matrix(6.123234e-17 -1 1 6.123234e-17 10.9644 88.1514)" class="st1" width="2.3" height="4.7"/>
		<rect x="47.6" y="37.7" class="st2" width="3.9" height="1.8"/>
	</g>
	<g>
		
			<rect x="29.6" y="41.7" transform="matrix(6.123234e-17 -1 1 6.123234e-17 -13.3048 74.7675)" class="st1" width="2.3" height="4.7"/>
		<rect x="28.8" y="43.2" class="st2" width="3.9" height="1.8"/>
	</g>
	<g>
		
			<rect x="29.6" y="39" transform="matrix(6.123234e-17 -1 1 6.123234e-17 -10.5834 72.0462)" class="st1" width="2.3" height="4.7"/>
		<rect x="28.8" y="40.4" class="st2" width="3.9" height="1.8"/>
	</g>
	<g>
		
			<rect x="29.6" y="36.2" transform="matrix(6.123234e-17 -1 1 6.123234e-17 -7.8621 69.3249)" class="st1" width="2.3" height="4.7"/>
		<rect x="28.8" y="37.7" class="st2" width="3.9" height="1.8"/>
	</g>
	<g>
		<rect x="49" y="69.5" class="st3" width="5.9" height="4.5"/>
		<rect x="49.6" y="70.2" class="st2" width="4.7" height="3.2"/>
	</g>
	<g>
		<rect x="49" y="78.7" class="st3" width="5.9" height="4.5"/>
		<rect x="49.6" y="79.3" class="st2" width="4.7" height="3.2"/>
	</g>
	<g>
		<rect x="60.3" y="74.2" class="st3" width="5.9" height="4.5"/>
		<rect x="60.9" y="74.8" class="st2" width="4.7" height="3.2"/>
	</g>
	<g>
		<rect x="8.4" y="57.6" class="st3" width="6.1" height="3"/>
		<rect x="9" y="58" class="st2" width="4.8" height="2.2"/>
	</g>
	<g>
		<rect x="8.4" y="61.8" class="st3" width="6.1" height="3"/>
		<rect x="9" y="62.2" class="st2" width="4.8" height="2.2"/>
	</g>
	<circle class="st3" cx="11.4" cy="97.2" r="4.3"/>
	<circle class="st3" cx="25.8" cy="97.2" r="4.3"/>
	<circle class="st3" cx="40.2" cy="97.2" r="4.3"/>
	<circle class="st3" cx="54.6" cy="97.2" r="4.3"/>
	<circle class="st3" cx="69" cy="97.2" r="4.3"/>
	<circle class="st4" cx="11.4" cy="97.2" r="4.5"/>
	<circle class="st4" cx="25.8" cy="97.2" r="4.5"/>
	<circle class="st4" cx="40.2" cy="97.2" r="4.5"/>
	<circle class="st4" cx="54.6" cy="97.2" r="4.5"/>
	<circle class="st4" cx="69" cy="97.2" r="4.5"/>
	<g>
		<g>
			<polyline class="st5" points="70,76.2 70,71 75.7,71 75.7,76.2 			"/>
			<polyline class="st5" points="75.7,77.5 75.7,82.7 70,82.7 70,77.5 			"/>
		</g>
		<g id="_x3C_Group_x3E__Capacitor_15_">
			
				<rect x="71.8" y="71.3" transform="matrix(-1.836970e-16 1 -1 -1.836970e-16 146.2632 0.6092)" class="st3" width="2.1" height="4.2"/>
			
				<rect x="71.8" y="78.2" transform="matrix(-1.836970e-16 1 -1 -1.836970e-16 153.107 7.4531)" class="st3" width="2.1" height="4.2"/>
			
				<rect x="70.4" y="74.8" transform="matrix(-1.836970e-16 1 -1 -1.836970e-16 149.6851 4.0312)" class="st6" width="4.8" height="4.2"/>
		</g>
	</g>
	<g>
		<g>
			<path class="st3" d="M26.7,52.3h0.8v5.5h-0.8V52.3z M27.1,57.1h1.5c0.4,0,0.7-0.1,0.9-0.2c0.2-0.1,0.3-0.4,0.3-0.6v0
				c0-0.2,0-0.3-0.1-0.5c-0.1-0.1-0.2-0.2-0.3-0.3c-0.1-0.1-0.3-0.1-0.5-0.1h-1.7v-0.7h1.7c0.3,0,0.5-0.1,0.6-0.2s0.2-0.3,0.2-0.6
				c0-0.3-0.1-0.5-0.2-0.6S29,53,28.7,53h-1.6v-0.7h1.7c0.4,0,0.7,0.1,0.9,0.2c0.2,0.1,0.4,0.3,0.5,0.5c0.1,0.2,0.2,0.5,0.2,0.8
				c0,0.2,0,0.4-0.1,0.5c-0.1,0.2-0.2,0.3-0.3,0.4c-0.2,0.1-0.3,0.2-0.6,0.2c0.2,0,0.4,0.1,0.6,0.2s0.3,0.3,0.4,0.5
				c0.1,0.2,0.1,0.4,0.1,0.6v0c0,0.3-0.1,0.6-0.2,0.8c-0.1,0.2-0.3,0.4-0.6,0.5s-0.5,0.2-0.9,0.2h-1.8V57.1z"/>
			<path class="st3" d="M31.7,52.3h0.8v5.5h-0.8V52.3z M32.2,54.8h3.1v0.7h-3.1V54.8z M34.8,52.3h0.8v5.5h-0.8V52.3z"/>
			<path class="st3" d="M38.2,57.8h-0.8v-4.7l-0.8,0.5v-0.8l0.8-0.5h0.8V57.8z"/>
			<path class="st3" d="M42.3,53l-1.4,4.8h-0.8l1.4-4.8h-1.4v0.8h-0.8v-1.5h3V53z"/>
			<path class="st3" d="M44.2,57.7c-0.2-0.1-0.4-0.3-0.5-0.5c-0.1-0.2-0.2-0.5-0.3-0.7v0h0.8v0c0,0.2,0.1,0.4,0.2,0.5
				c0.1,0.1,0.3,0.2,0.5,0.2c0.2,0,0.4-0.1,0.6-0.2c0.1-0.2,0.2-0.4,0.2-0.7v-0.5c0-0.3-0.1-0.5-0.2-0.7c-0.1-0.2-0.3-0.2-0.6-0.2
				c-0.1,0-0.3,0-0.4,0.1c-0.1,0.1-0.2,0.2-0.3,0.3h-0.7v-2.9h2.8v0.7h-2v1.2c0.1-0.1,0.2-0.1,0.3-0.2c0.1,0,0.2-0.1,0.4-0.1
				c0.3,0,0.6,0.1,0.8,0.2s0.4,0.3,0.5,0.6c0.1,0.3,0.2,0.6,0.2,0.9v0.5c0,0.4-0.1,0.7-0.2,0.9c-0.1,0.3-0.3,0.4-0.5,0.6
				c-0.2,0.1-0.5,0.2-0.8,0.2C44.6,57.9,44.4,57.9,44.2,57.7z"/>
			<path class="st3" d="M48,57.5c-0.3-0.3-0.4-0.7-0.4-1.2v-2.5c0-0.5,0.1-0.9,0.4-1.2c0.3-0.3,0.7-0.4,1.2-0.4
				c0.5,0,0.9,0.1,1.2,0.4c0.3,0.3,0.4,0.7,0.4,1.2v2.5c0,0.5-0.1,0.9-0.4,1.2c-0.3,0.3-0.7,0.4-1.2,0.4
				C48.7,57.9,48.3,57.8,48,57.5z M49.8,57c0.1-0.1,0.2-0.3,0.2-0.6v-2.5c0-0.3-0.1-0.5-0.2-0.6c-0.1-0.1-0.3-0.2-0.6-0.2
				c-0.3,0-0.5,0.1-0.6,0.2c-0.1,0.1-0.2,0.3-0.2,0.6v2.5c0,0.3,0.1,0.5,0.2,0.6s0.3,0.2,0.6,0.2S49.7,57.1,49.8,57z"/>
		</g>
	</g>
</g>
<g id="element">
	<g>
		<g>
			<polyline class="st5" points="41.1,23.7 46.2,23.7 46.2,29.3 41.1,29.3 			"/>
			<polyline class="st5" points="39.7,29.3 34.6,29.3 34.6,23.7 39.7,23.7 			"/>
		</g>
		<g id="_x3C_Group_x3E__Capacitor_8_">
			
				<rect x="42.8" y="24.4" transform="matrix(-1 -1.224647e-16 1.224647e-16 -1 87.5715 52.9864)" class="st3" width="2.1" height="4.2"/>
			
				<rect x="35.9" y="24.4" transform="matrix(-1 -1.224647e-16 1.224647e-16 -1 73.8838 52.9864)" class="st3" width="2.1" height="4.2"/>
			
				<rect x="38" y="24.4" transform="matrix(-1 -1.224647e-16 1.224647e-16 -1 80.7277 52.9864)" class="st7" width="4.8" height="4.2"/>
		</g>
	</g>
	<g>
		<g>
			<polyline class="st5" points="6.1,76.2 6.1,71 11.7,71 11.7,76.2 			"/>
			<polyline class="st5" points="11.7,77.5 11.7,82.7 6.1,82.7 6.1,77.5 			"/>
		</g>
		<g id="_x3C_Group_x3E__Capacitor_10_">
			
				<rect x="7.9" y="71.3" transform="matrix(-1.836970e-16 1 -1 -1.836970e-16 82.3503 64.5221)" class="st3" width="2.1" height="4.2"/>
			
				<rect x="7.9" y="78.2" transform="matrix(-1.836970e-16 1 -1 -1.836970e-16 89.1942 71.3659)" class="st3" width="2.1" height="4.2"/>
			
				<rect x="6.5" y="74.8" transform="matrix(-1.836970e-16 1 -1 -1.836970e-16 85.7723 67.944)" class="st7" width="4.8" height="4.2"/>
		</g>
	</g>
	<g>
		<g>
			<polyline class="st5" points="14.2,76.2 14.2,71 19.9,71 19.9,76.2 			"/>
			<polyline class="st5" points="19.9,77.5 19.9,82.7 14.2,82.7 14.2,77.5 			"/>
		</g>
		<g id="_x3C_Group_x3E__Capacitor_11_">
			
				<rect x="16" y="71.3" transform="matrix(-1.836970e-16 1 -1 -1.836970e-16 90.4963 56.3761)" class="st3" width="2.1" height="4.2"/>
			
				<rect x="16" y="78.2" transform="matrix(-1.836970e-16 1 -1 -1.836970e-16 97.3402 63.2199)" class="st3" width="2.1" height="4.2"/>
			
				<rect x="14.7" y="74.8" transform="matrix(-1.836970e-16 1 -1 -1.836970e-16 93.9182 59.798)" class="st7" width="4.8" height="4.2"/>
		</g>
	</g>
	<g>
		<g>
			<polyline class="st5" points="22.4,76.2 22.4,71 28,71 28,76.2 			"/>
			<polyline class="st5" points="28,77.5 28,82.7 22.4,82.7 22.4,77.5 			"/>
		</g>
		<g id="_x3C_Group_x3E__Capacitor_12_">
			
				<rect x="24.2" y="71.3" transform="matrix(-1.836970e-16 1 -1 -1.836970e-16 98.6423 48.2301)" class="st3" width="2.1" height="4.2"/>
			
				<rect x="24.2" y="78.2" transform="matrix(-1.836970e-16 1 -1 -1.836970e-16 105.4861 55.074)" class="st3" width="2.1" height="4.2"/>
			
				<rect x="22.8" y="74.8" transform="matrix(-1.836970e-16 1 -1 -1.836970e-16 102.0642 51.652)" class="st7" width="4.8" height="4.2"/>
		</g>
	</g>
	<g>
		<g>
			<polyline class="st5" points="30.5,76.2 30.5,71 36.2,71 36.2,76.2 			"/>
			<polyline class="st5" points="36.2,77.5 36.2,82.7 30.5,82.7 30.5,77.5 			"/>
		</g>
		<g id="_x3C_Group_x3E__Capacitor_13_">
			
				<rect x="32.3" y="71.3" transform="matrix(-1.836970e-16 1 -1 -1.836970e-16 106.7883 40.0842)" class="st3" width="2.1" height="4.2"/>
			
				<rect x="32.3" y="78.2" transform="matrix(-1.836970e-16 1 -1 -1.836970e-16 113.6321 46.928)" class="st3" width="2.1" height="4.2"/>
			
				<rect x="31" y="74.8" transform="matrix(-1.836970e-16 1 -1 -1.836970e-16 110.2102 43.5061)" class="st6" width="4.8" height="4.2"/>
		</g>
	</g>
	<g>
		<g>
			<polyline class="st5" points="38.7,76.2 38.7,71 44.3,71 44.3,76.2 			"/>
			<polyline class="st5" points="44.3,77.5 44.3,82.7 38.7,82.7 38.7,77.5 			"/>
		</g>
		<g id="_x3C_Group_x3E__Capacitor_14_">
			
				<rect x="40.5" y="71.3" transform="matrix(-1.836970e-16 1 -1 -1.836970e-16 114.9342 31.9382)" class="st3" width="2.1" height="4.2"/>
			
				<rect x="40.5" y="78.2" transform="matrix(-1.836970e-16 1 -1 -1.836970e-16 121.7781 38.782)" class="st3" width="2.1" height="4.2"/>
			
				<rect x="39.1" y="74.8" transform="matrix(-1.836970e-16 1 -1 -1.836970e-16 118.3561 35.3601)" class="st6" width="4.8" height="4.2"/>
		</g>
	</g>
	<g>
		<g>
			<polyline class="st5" points="41.1,15.9 46.2,15.9 46.2,21.6 41.1,21.6 			"/>
			<polyline class="st5" points="39.7,21.6 34.6,21.6 34.6,15.9 39.7,15.9 			"/>
		</g>
		<g id="_x3C_Group_x3E__Capacitor_9_">
			
				<rect x="42.8" y="16.7" transform="matrix(-1 -1.224647e-16 1.224647e-16 -1 87.5715 37.5416)" class="st3" width="2.1" height="4.2"/>
			
				<rect x="35.9" y="16.7" transform="matrix(-1 -1.224647e-16 1.224647e-16 -1 73.8838 37.5416)" class="st3" width="2.1" height="4.2"/>
			
				<rect x="38" y="16.7" transform="matrix(-1 -1.224647e-16 1.224647e-16 -1 80.7277 37.5416)" class="st6" width="4.8" height="4.2"/>
		</g>
	</g>
	<g>
		<rect x="51.1" y="70.5" class="st3" width="2.5" height="2.5"/>
		<rect x="51.1" y="79.7" class="st3" width="2.5" height="2.5"/>
		<rect x="61.3" y="75.2" class="st3" width="2.5" height="2.5"/>
		<g>
			<rect x="53.5" y="69.3" class="st7" width="7.9" height="14.2"/>
			<rect x="53.8" y="69.6" class="st8" width="7.4" height="13.7"/>
		</g>
	</g>
	<g>
		<g>
			<g>
				
					<rect x="44.4" y="43.3" transform="matrix(-1 -1.224647e-16 1.224647e-16 -1 94.4193 88.0723)" class="st3" width="5.6" height="1.5"/>
				
					<rect x="44.4" y="40.6" transform="matrix(-1 -1.224647e-16 1.224647e-16 -1 94.4193 82.6296)" class="st3" width="5.6" height="1.5"/>
				
					<rect x="44.4" y="37.9" transform="matrix(-1 -1.224647e-16 1.224647e-16 -1 94.4193 77.187)" class="st3" width="5.6" height="1.5"/>
			</g>
			<g>
				
					<rect x="30.7" y="43.3" transform="matrix(-1 -1.224647e-16 1.224647e-16 -1 67.0776 88.0723)" class="st3" width="5.6" height="1.5"/>
				
					<rect x="30.7" y="40.6" transform="matrix(-1 -1.224647e-16 1.224647e-16 -1 67.0776 82.6296)" class="st3" width="5.6" height="1.5"/>
				
					<rect x="30.7" y="37.9" transform="matrix(-1 -1.224647e-16 1.224647e-16 -1 67.0776 77.187)" class="st3" width="5.6" height="1.5"/>
			</g>
		</g>
		<g>
			
				<rect x="33.5" y="37.1" transform="matrix(-1 -1.224647e-16 1.224647e-16 -1 80.7484 82.5427)" class="st7" width="13.7" height="8.4"/>
			
				<rect x="34" y="37.4" transform="matrix(-1 -1.224647e-16 1.224647e-16 -1 80.7484 82.5427)" class="st8" width="12.7" height="7.8"/>
		</g>
	</g>
</g>
</svg>
