<?xml version="1.0" encoding="utf-8"?>
<!-- Generator: Adobe Illustrator 25.0.0, SVG Export Plug-In . SVG Version: 6.00 Build 0)  -->
<svg version="1.1" id="Layer_2" xmlns="http://www.w3.org/2000/svg" xmlns:xlink="http://www.w3.org/1999/xlink" x="0px" y="0px"
	 viewBox="0 0 68 48" style="enable-background:new 0 0 68 48;" xml:space="preserve">
<style type="text/css">
	.st0{fill:#FFFFF5;}
	.st1{fill:#F7F7F7;}
	.st2{fill:#09488B;}
	.st3{fill:#C0944C;}
	.st4{fill:#FDC26B;}
	.st5{fill:#FFD39B;}
</style>
<path class="st0" d="M65.5,0h-63C1.1,0,0,1.1,0,2.5V42h0.2v-0.2c0-1.4,1.1-2.5,2.5-2.5h62.5c1.4,0,2.5,1.1,2.5,2.5V42H68V2.5
	C68,1.1,66.9,0,65.5,0z"/>
<path class="st1" d="M60.5,35h-53C6.1,35,5,33.9,5,32.5v-25C5,6.1,6.1,5,7.5,5h53C61.9,5,63,6.1,63,7.5v25C63,33.9,61.9,35,60.5,35z
	"/>
<polygon class="st2" points="15.9,9.5 27.6,9.5 27.6,13.2 24.5,13.2 24.5,28.4 19,28.4 19,13.2 15.9,13.2 "/>
<polygon class="st2" points="42.6,9.5 51.5,9.5 51.5,12.9 47.8,12.9 47.8,16.6 51.1,16.6 51.1,20.2 47.8,20.2 47.8,28 42.6,28 "/>
<path class="st2" d="M34.6,12.5c-4.8,0-5.7,3.7-5.7,3.7v8.6c0.9,2.6,2.7,3.6,5.7,3.6c4.6,0,5.7-3.6,5.7-3.6v-8.6
	C39.9,14.4,38.2,12.5,34.6,12.5z M35.3,25c0,0-0.7,1.3-1.4,0V16c0,0,0.7-1.6,1.4,0V25z"/>
<g>
	<g>
		<rect x="8.2" y="39.3" class="st3" width="1.4" height="8"/>
		<rect x="8.3" y="39.3" class="st4" width="1.1" height="8"/>
		<polygon class="st4" points="9.3,47.9 9.5,47.4 8.1,47.4 8.4,47.9 		"/>
		<polygon class="st5" points="9.3,47.9 9.4,47.4 8.3,47.4 8.4,47.9 		"/>
	</g>
	<g>
		<rect x="15.3" y="39.4" class="st3" width="1.4" height="8"/>
		<rect x="15.4" y="39.4" class="st4" width="1.1" height="8"/>
		<polygon class="st4" points="16.4,47.9 16.7,47.4 15.3,47.4 15.6,47.9 		"/>
		<polygon class="st5" points="16.4,47.9 16.6,47.4 15.4,47.4 15.6,47.9 		"/>
	</g>
	<g>
		<rect x="22.5" y="39.4" class="st3" width="1.4" height="8"/>
		<rect x="22.6" y="39.4" class="st4" width="1.1" height="8"/>
		<polygon class="st4" points="23.6,47.9 23.9,47.4 22.5,47.4 22.8,47.9 		"/>
		<polygon class="st5" points="23.6,47.9 23.8,47.4 22.6,47.4 22.8,47.9 		"/>
	</g>
	<g>
		<rect x="29.7" y="39.3" class="st3" width="1.4" height="8"/>
		<rect x="29.8" y="39.3" class="st4" width="1.1" height="8"/>
		<polygon class="st4" points="30.8,47.9 31.1,47.4 29.7,47.4 29.9,47.9 		"/>
		<polygon class="st5" points="30.8,47.9 30.9,47.4 29.8,47.4 29.9,47.9 		"/>
	</g>
	<g>
		<rect x="36.9" y="39.3" class="st3" width="1.4" height="8"/>
		<rect x="37" y="39.3" class="st4" width="1.1" height="8"/>
		<polygon class="st4" points="38,47.9 38.3,47.4 36.9,47.4 37.1,47.9 		"/>
		<polygon class="st5" points="38,47.9 38.1,47.4 37,47.4 37.1,47.9 		"/>
	</g>
	<g>
		<rect x="44.1" y="39.4" class="st3" width="1.4" height="8"/>
		<rect x="44.2" y="39.4" class="st4" width="1.1" height="8"/>
		<polygon class="st4" points="45.2,48 45.5,47.5 44.1,47.5 44.3,48 		"/>
		<polygon class="st5" points="45.2,48 45.3,47.5 44.2,47.5 44.3,48 		"/>
	</g>
	<g>
		<rect x="51.3" y="39.3" class="st3" width="1.4" height="8"/>
		<rect x="51.4" y="39.3" class="st4" width="1.1" height="8"/>
		<polygon class="st4" points="52.4,47.9 52.7,47.4 51.3,47.4 51.5,47.9 		"/>
		<polygon class="st5" points="52.4,47.9 52.5,47.4 51.4,47.4 51.5,47.9 		"/>
	</g>
	<g>
		<rect x="58.5" y="39.4" class="st3" width="1.4" height="8"/>
		<rect x="58.6" y="39.4" class="st4" width="1.1" height="8"/>
		<polygon class="st4" points="59.6,48 59.9,47.5 58.5,47.5 58.7,48 		"/>
		<polygon class="st5" points="59.6,48 59.7,47.5 58.6,47.5 58.7,48 		"/>
	</g>
</g>
</svg>
