<?xml version="1.0" encoding="utf-8"?>
<!-- Generator: Adobe Illustrator 24.3.0, SVG Export Plug-In . SVG Version: 6.00 Build 0)  -->
<svg version="1.1" id="Layer_1" xmlns="http://www.w3.org/2000/svg" xmlns:xlink="http://www.w3.org/1999/xlink" x="0px" y="0px"
	 viewBox="0 0 65.8 56.7" style="enable-background:new 0 0 65.8 56.7;" xml:space="preserve">
<style type="text/css">
	.st0{fill:#274A88;}
	.st1{fill:#3E3D3B;}
	.st2{fill:#242221;}
	.st3{fill:#FFFFFF;}
	.st4{font-family:'ArialMT';}
	.st5{font-size:10px;}
	.st6{font-size:3px;}
	.st7{fill:#C6C5C5;}
	.st8{fill:#474748;}
	.st9{fill:none;stroke:#FFFFFF;stroke-width:0.25;stroke-miterlimit:10;}
	.st10{fill:#3D3C3A;}
	.st11{fill:#EDEDF2;}
	.st12{fill:none;stroke:#000000;stroke-width:0.1721;stroke-miterlimit:19.5312;}
	.st13{fill:#DDDDDC;}
	.st14{fill:#C9B55E;}
</style>
<path id="rect2992_1_" class="st0" d="M0.1,28.5c0,2.5,2,4.5,4.5,4.5v21.6c0,1.3,1,2.3,2.2,2.3h21.6c0-2.5,2-4.5,4.5-4.5
	s4.5,2,4.5,4.5H59c1.3,0,2.3-1,2.3-2.3V33c2.5,0,4.5-2,4.5-4.5s-2-4.5-4.5-4.5V2.4c0-1.3-1-2.3-2.3-2.3H37.4c0,2.5-2,4.5-4.5,4.5
	s-4.5-2-4.5-4.5H6.8c-1.3,0-2.3,1-2.3,2.3v21.7C2.1,24.1,0.1,26.1,0.1,28.5z M2,28.5c0-1.4,1.2-2.6,2.6-2.6s2.6,1.2,2.6,2.6
	S6,31.1,4.6,31.1S2,30,2,28.5z M58.7,28.5c0-1.4,1.1-2.6,2.6-2.6s2.6,1.2,2.6,2.6s-1.2,2.6-2.6,2.6S58.7,30,58.7,28.5z"/>
<g>
	<g>
		<g>
			<circle class="st1" cx="32.9" cy="18.8" r="15.4"/>
		</g>
	</g>
	<g>
		<g>
			<circle class="st2" cx="32.9" cy="18.8" r="4.3"/>
		</g>
	</g>
</g>
<text transform="matrix(1 0 0 1 7.9296 22.7697)" class="st3 st4 st5">+</text>
<text transform="matrix(6.123234e-17 -1 1 6.123234e-17 54.23 29.1665)" class="st3 st4 st6">Q1</text>
<text transform="matrix(6.123234e-17 -1 1 6.123234e-17 54.23 13.3521)" class="st3 st4 st6">BUZ1</text>
<text transform="matrix(-1 0 0 -1 54.8311 43.6714)" class="st3 st4 st6">R1</text>
<g>
	<g>
		<rect x="49.1" y="40" class="st7" width="1.9" height="2.7"/>
	</g>
	<g>
		<rect x="54" y="40" class="st7" width="1.9" height="2.7"/>
	</g>
	<g>
		<rect x="54.1" y="40.4" class="st3" width="0.7" height="2.1"/>
		<rect x="50.5" y="40.4" class="st3" width="0.7" height="2.1"/>
		<rect x="51.3" y="40.4" class="st8" width="2.8" height="2.1"/>
	</g>
	<line class="st9" x1="53.3" y1="42.7" x2="51.8" y2="42.7"/>
	<line class="st9" x1="53.3" y1="39.9" x2="51.8" y2="39.9"/>
</g>
<g>
	<g>
		<rect x="53.7" y="31.2" class="st7" width="2.8" height="2"/>
	</g>
	<g>
		<rect x="53.7" y="36.2" class="st7" width="2.8" height="2"/>
	</g>
	<g>
		<rect x="48.6" y="33.6" class="st7" width="2.8" height="2"/>
	</g>
	<rect x="50.8" y="30.6" class="st10" width="3.8" height="8.2"/>
	<rect x="54.6" y="31.7" class="st3" width="0.9" height="0.9"/>
	<rect x="54.6" y="36.8" class="st3" width="0.9" height="0.9"/>
	<rect x="49.9" y="34.2" class="st3" width="0.9" height="0.9"/>
	<polyline class="st9" points="56.3,38.9 50.5,38.9 50.5,38.5 	"/>
	<polyline class="st9" points="54.4,30.4 50.5,30.4 50.5,30.7 	"/>
</g>
<path class="st3" d="M36.8,2.3c-0.1,0.1-0.1,0.2-0.2,0.3c7.4,1.7,12.9,8.3,12.9,16.2c0,9.2-7.4,16.6-16.6,16.6s-16.6-7.5-16.6-16.6
	c0-7.9,5.6-14.5,12.9-16.2C29.1,2.5,29,2.4,29,2.3C21.4,4,15.9,10.7,15.9,18.8c0,9.4,7.6,17,17,17S50,28.2,50,18.8
	C49.9,10.8,44.3,4.1,36.8,2.3z"/>
<g id="XMLID_7_">
	<g id="g3109_2_" transform="matrix(0 1.2499976 -1.2499976 0 1338.60444 1003.15358)">
		<g id="g33658-1_2_" transform="translate(-1.6000031,0)">
			<path id="path16826-7_2_" class="st11" d="M-758.7,1033.3v3.6h-1.2v-2.4h-7.2v3.9h-1.2v-1.3h-1.8v-3.8L-758.7,1033.3
				L-758.7,1033.3z"/>
			<path id="path16828-7_2_" class="st11" d="M-758.7,1052.3v3.6h-11.4v-3.8h1.8v-1.3h1.2v3.9h7.2v-2.4L-758.7,1052.3L-758.7,1052.3
				z"/>
			<path id="path16832-7_2_" class="st3" d="M-758.7,1052.3h-1.2v-15.4h1.2V1052.3z"/>
			<path id="path16834-3_2_" class="st3" d="M-768.3,1040.6v-2.2h1.2v12.4h-1.2v-2.2V1040.6L-768.3,1040.6z"/>
			<path id="path16836-3_2_" class="st11" d="M-770.2,1040.7h1.9v7.8h-1.9V1040.7z"/>
			<path id="path22220-2_2_" class="st12" d="M-758.7,1036.9"/>
			<path id="path22220-2_1_" class="st12" d="M-758.7,1052.3"/>
			<path id="path22246-8_2_" class="st12" d="M-767.1,1054.6"/>
			<path id="path22246-8_1_" class="st12" d="M-759.9,1054.6"/>
			<path id="path22248-0_2_" class="st12" d="M-759.9,1054.6"/>
			<path id="path22248-0_1_" class="st12" d="M-759.9,1052.3"/>
			<path id="path22250-1_2_" class="st12" d="M-759.9,1052.3"/>
			<path id="path22250-1_1_" class="st12" d="M-758.7,1052.3"/>
			<path id="path22252-2_2_" class="st12" d="M-758.7,1055.9"/>
			<path id="path22252-2_1_" class="st12" d="M-758.7,1052.3"/>
			<path id="path22276-4_2_" class="st12" d="M-770.1,1052.1"/>
			<path id="path22276-4_1_" class="st12" d="M-770.1,1055.9"/>
			<path id="path29510-1_2_" class="st12" d="M-770.1,1055.9"/>
			<path id="path29510-1_1_" class="st12" d="M-758.7,1055.9"/>
			
				<rect x="-776.2" y="1040.1" transform="matrix(-1 -1.224647e-16 1.224647e-16 -1 -1527.0802 2089.1306)" class="st13" width="25.2" height="9"/>
		</g>
		<path id="connector3pin_2_" class="st14" d="M-765.7,1038.4v-1.1h1.1v1.1H-765.7z"/>
		<path id="connector2pin_2_" class="st14" d="M-764.5,1041.8v1.1h-1.1v-1.1H-764.5z"/>
		<path id="connector1pin_2_" class="st14" d="M-765.7,1046.3h1.1v1.1h-1.1V1046.3z"/>
		<path id="connector0pin_2_" class="st14" d="M-765.7,1050.8h1.1v1.1h-1.1V1050.8z"/>
	</g>
</g>
</svg>
