<?xml version="1.0" encoding="UTF-8"?>
<svg xmlns="http://www.w3.org/2000/svg" xmlns:xlink="http://www.w3.org/1999/xlink" width="48pt" height="65pt" viewBox="0 0 48 65" version="1.1">
<defs>
<filter id="alpha" filterUnits="objectBoundingBox" x="0%" y="0%" width="100%" height="100%">
  <feColorMatrix type="matrix" in="SourceGraphic" values="0 0 0 0 1 0 0 0 0 1 0 0 0 0 1 0 0 0 1 0"/>
</filter>
<mask id="mask0">
  <g filter="url(#alpha)">
<rect x="0" y="0" width="48" height="65" style="fill:rgb(0%,0%,0%);fill-opacity:0.301961;stroke:none;"/>
  </g>
</mask>
<clipPath id="clip1">
  <rect width="48" height="65"/>
</clipPath>
<g id="surface6" clip-path="url(#clip1)">
<path style=" stroke:none;fill-rule:nonzero;fill:rgb(0%,0%,0%);fill-opacity:1;" d="M 46.628906 32.488281 C 46.542969 31.007812 46.308594 29.507812 45.910156 28.023438 C 45.542969 26.683594 45.050781 25.429688 44.460938 24.230469 L 43.410156 24.585938 L 41.839844 22.511719 C 41.394531 21.835938 40.894531 21.191406 40.371094 20.585938 L 38.71875 18.414062 L 39.617188 17.746094 C 34.273438 12.867188 26.625 10.710938 19.097656 12.726562 C 11.582031 14.746094 6.0625 20.433594 3.921875 27.320312 L 5.03125 27.449219 L 4.703125 30.152344 C 4.566406 30.9375 4.464844 31.738281 4.414062 32.550781 L 4.105469 35.132812 L 3.015625 35.34375 C 3.121094 36.675781 3.332031 38.011719 3.695312 39.347656 C 4.105469 40.835938 4.664062 42.242188 5.339844 43.566406 L 6.484375 42.652344 C 7.820312 45.34375 9.714844 47.632812 11.976562 49.449219 L 10.824219 50.355469 C 16.109375 54.71875 23.367188 56.558594 30.507812 54.648438 C 37.640625 52.730469 42.980469 47.515625 45.328125 41.109375 L 43.878906 40.890625 C 44.917969 38.191406 45.394531 35.269531 45.175781 32.269531 Z M 28.511719 47.3125 C 20.929688 49.351562 13.117188 44.890625 11.070312 37.363281 C 9.023438 29.832031 13.507812 22.078125 21.089844 20.050781 C 28.679688 18.015625 36.480469 22.46875 38.53125 29.996094 C 40.585938 37.53125 36.089844 45.28125 28.511719 47.3125 Z M 28.511719 47.3125 "/>
</g>
<mask id="mask1">
  <g filter="url(#alpha)">
<rect x="0" y="0" width="48" height="65" style="fill:rgb(0%,0%,0%);fill-opacity:0.4;stroke:none;"/>
  </g>
</mask>
<clipPath id="clip2">
  <rect width="48" height="65"/>
</clipPath>
<g id="surface9" clip-path="url(#clip2)">
<path style=" stroke:none;fill-rule:nonzero;fill:rgb(100%,100%,100%);fill-opacity:1;" d="M 9.523438 22.679688 C 9.523438 23.578125 8.792969 24.304688 7.886719 24.304688 C 6.984375 24.304688 6.253906 23.578125 6.253906 22.679688 C 6.253906 21.785156 6.984375 21.054688 7.886719 21.054688 C 8.792969 21.054688 9.523438 21.785156 9.523438 22.679688 Z M 9.523438 22.679688 "/>
</g>
<mask id="mask2">
  <g filter="url(#alpha)">
<rect x="0" y="0" width="48" height="65" style="fill:rgb(0%,0%,0%);fill-opacity:0.4;stroke:none;"/>
  </g>
</mask>
<clipPath id="clip3">
  <rect width="48" height="65"/>
</clipPath>
<g id="surface12" clip-path="url(#clip3)">
<path style=" stroke:none;fill-rule:nonzero;fill:rgb(100%,100%,100%);fill-opacity:1;" d="M 35.417969 15.738281 C 35.417969 16.636719 34.683594 17.363281 33.78125 17.363281 C 32.875 17.363281 32.144531 16.636719 32.144531 15.738281 C 32.144531 14.839844 32.875 14.113281 33.78125 14.113281 C 34.683594 14.113281 35.417969 14.839844 35.417969 15.738281 Z M 35.417969 15.738281 "/>
</g>
<mask id="mask3">
  <g filter="url(#alpha)">
<rect x="0" y="0" width="48" height="65" style="fill:rgb(0%,0%,0%);fill-opacity:0.4;stroke:none;"/>
  </g>
</mask>
<clipPath id="clip4">
  <rect width="48" height="65"/>
</clipPath>
<g id="surface15" clip-path="url(#clip4)">
<path style=" stroke:none;fill-rule:nonzero;fill:rgb(100%,100%,100%);fill-opacity:1;" d="M 19.703125 47.90625 L 19.015625 47.742188 L 19.179688 47.050781 L 19.863281 47.210938 L 20.027344 46.535156 L 21.40625 46.859375 L 20.09375 52.351562 L 18.707031 52.023438 Z M 19.703125 47.90625 "/>
<path style=" stroke:none;fill-rule:nonzero;fill:rgb(100%,100%,100%);fill-opacity:1;" d="M 31.007812 51.71875 L 28.25 52.410156 L 28.074219 51.71875 L 27.394531 51.890625 L 26.347656 47.777344 L 27.03125 47.605469 L 26.855469 46.929688 L 29.621094 46.238281 L 29.789062 46.921875 L 30.488281 46.75 L 31.53125 50.855469 L 30.832031 51.027344 Z M 30.148438 51.195312 L 29.097656 47.09375 L 27.722656 47.441406 L 28.765625 51.546875 Z M 30.148438 51.195312 "/>
<path style=" stroke:none;fill-rule:nonzero;fill:rgb(100%,100%,100%);fill-opacity:1;" d="M 38.609375 44.179688 L 39.109375 43.6875 L 39.613281 44.1875 L 39.117188 44.683594 L 40.117188 45.6875 L 39.101562 46.691406 L 38.097656 45.695312 L 36.585938 47.183594 L 35.582031 46.179688 L 36.078125 45.691406 L 35.082031 44.679688 L 35.585938 44.179688 L 36.59375 45.179688 L 36.082031 45.6875 L 36.582031 46.1875 L 37.59375 45.191406 L 35.085938 42.691406 L 36.101562 41.6875 Z M 38.609375 44.179688 "/>
</g>
</defs>
<g id="surface1">
<path style=" stroke:none;fill-rule:nonzero;fill:rgb(54.901961%,54.901961%,54.901961%);fill-opacity:1;" d="M 1.6875 53.863281 L 15.027344 53.863281 L 15.027344 57.761719 L 1.6875 57.761719 Z M 1.6875 53.863281 "/>
<path style=" stroke:none;fill-rule:nonzero;fill:rgb(54.901961%,54.901961%,54.901961%);fill-opacity:1;" d="M 1.6875 54.386719 L 7.578125 54.386719 L 7.578125 64.351562 L 1.6875 64.351562 Z M 1.6875 54.386719 "/>
<path style=" stroke:none;fill-rule:nonzero;fill:rgb(54.901961%,54.901961%,54.901961%);fill-opacity:1;" d="M 33.4375 53.804688 L 46.851562 53.804688 L 46.851562 57.707031 L 33.4375 57.707031 Z M 33.4375 53.804688 "/>
<path style=" stroke:none;fill-rule:nonzero;fill:rgb(54.901961%,54.901961%,54.901961%);fill-opacity:1;" d="M 40.960938 54.328125 L 46.851562 54.328125 L 46.851562 64.351562 L 40.960938 64.351562 Z M 40.960938 54.328125 "/>
<path style=" stroke:none;fill-rule:nonzero;fill:rgb(54.901961%,54.901961%,54.901961%);fill-opacity:1;" d="M 18.183594 6.785156 L 30.359375 6.785156 L 30.359375 10.683594 L 18.183594 10.683594 Z M 18.183594 6.785156 "/>
<path style=" stroke:none;fill-rule:nonzero;fill:rgb(54.901961%,54.901961%,54.901961%);fill-opacity:1;" d="M 21.324219 0 L 27.214844 0 L 27.214844 11.699219 L 21.324219 11.699219 Z M 21.324219 0 "/>
<path style=" stroke:none;fill-rule:nonzero;fill:rgb(41.960784%,41.960784%,41.960784%);fill-opacity:1;" d="M 24.265625 7.761719 C 10.863281 7.761719 0 18.550781 0 31.867188 L 0 55.96875 L 48.542969 55.96875 L 48.542969 31.863281 C 48.542969 18.550781 37.675781 7.761719 24.265625 7.761719 Z M 10.667969 41.03125 L 10.667969 22.703125 L 37.871094 22.703125 L 37.871094 41.03125 Z M 10.667969 41.03125 "/>
<path style=" stroke:none;fill-rule:nonzero;fill:rgb(80.784314%,80.784314%,80.784314%);fill-opacity:1;" d="M 20.082031 16.449219 C 11.519531 18.746094 6.457031 27.503906 8.765625 36 C 11.082031 44.503906 19.890625 49.535156 28.457031 47.242188 C 37.023438 44.941406 42.085938 36.191406 39.777344 27.683594 C 37.457031 19.183594 28.648438 14.148438 20.082031 16.449219 Z M 18.640625 36.082031 L 19.339844 30.445312 L 27.824219 28.167969 L 31.285156 32.691406 Z M 18.640625 36.082031 "/>
<path style=" stroke:none;fill-rule:nonzero;fill:rgb(0%,0%,0%);fill-opacity:1;" d="M 22.402344 35.074219 L 27.519531 33.699219 L 29.742188 41.855469 L 24.621094 43.230469 Z M 22.402344 35.074219 "/>
<path style=" stroke:none;fill-rule:nonzero;fill:rgb(0%,0%,0%);fill-opacity:1;" d="M 27.824219 28.164062 L 31.285156 32.691406 L 25.019531 24.492188 L 23.917969 20.457031 L 18.804688 21.832031 L 19.898438 25.867188 L 18.640625 36.082031 L 19.339844 30.445312 Z M 27.824219 28.164062 "/>
<path style=" stroke:none;fill-rule:nonzero;fill:rgb(30.196078%,30.196078%,30.196078%);fill-opacity:1;" d="M 12.804688 32.195312 L 14.183594 37.273438 L 18.640625 36.082031 L 19.339844 30.445312 Z M 12.804688 32.195312 "/>
<path style=" stroke:none;fill-rule:nonzero;fill:rgb(30.196078%,30.196078%,30.196078%);fill-opacity:1;" d="M 27.824219 28.164062 L 31.285156 32.691406 L 35.742188 31.496094 L 34.355469 26.414062 Z M 27.824219 28.164062 "/>
<use xlink:href="#surface6" mask="url(#mask0)"/>
<path style=" stroke:none;fill-rule:nonzero;fill:rgb(0%,0%,0%);fill-opacity:1;" d="M 18.945312 12.261719 C 8.046875 15.179688 1.601562 26.316406 4.546875 37.132812 C 7.488281 47.949219 18.703125 54.359375 29.597656 51.429688 C 40.488281 48.507812 46.9375 37.375 43.988281 26.554688 C 41.050781 15.742188 29.839844 9.339844 18.945312 12.261719 Z M 28.460938 47.242188 C 19.894531 49.535156 11.078125 44.511719 8.765625 36.003906 C 6.449219 27.492188 11.519531 18.738281 20.082031 16.441406 C 28.648438 14.148438 37.464844 19.179688 39.78125 27.6875 C 42.089844 36.191406 37.023438 44.949219 28.460938 47.242188 Z M 28.460938 47.242188 "/>
<path style=" stroke:none;fill-rule:nonzero;fill:rgb(10.196078%,10.196078%,10.196078%);fill-opacity:1;" d="M 46.097656 30.652344 C 46.011719 29.171875 45.785156 27.667969 45.375 26.179688 C 45.015625 24.851562 44.527344 23.589844 43.933594 22.390625 L 42.882812 22.738281 L 38.1875 16.574219 L 39.082031 15.90625 C 33.746094 11.023438 26.097656 8.871094 18.570312 10.890625 C 11.046875 12.90625 5.53125 18.589844 3.390625 25.480469 L 4.5 25.609375 L 3.574219 33.289062 L 2.484375 33.511719 C 2.585938 34.84375 2.800781 36.179688 3.160156 37.503906 C 3.570312 38.996094 4.125 40.402344 4.808594 41.726562 L 7.902344 39.25 L 13.402344 46.035156 L 10.292969 48.527344 C 15.570312 52.878906 22.828125 54.71875 29.96875 52.804688 C 37.105469 50.898438 42.445312 45.679688 44.796875 39.273438 L 40.859375 38.683594 L 42.15625 30.070312 Z M 27.976562 45.480469 C 20.394531 47.511719 12.585938 43.054688 10.539062 35.527344 C 8.496094 27.996094 12.976562 20.242188 20.5625 18.214844 C 28.148438 16.179688 35.949219 20.632812 38 28.167969 C 40.046875 35.695312 35.558594 43.445312 27.976562 45.480469 Z M 27.976562 45.480469 "/>
<use xlink:href="#surface9" mask="url(#mask1)"/>
<use xlink:href="#surface12" mask="url(#mask2)"/>
<use xlink:href="#surface15" mask="url(#mask3)"/>
</g>
</svg>
