<?xml version="1.0" encoding="utf-8"?>
<!-- Generator: Adobe Illustrator 24.2.1, SVG Export Plug-In . SVG Version: 6.00 Build 0)  -->
<svg version="1.1" id="Layer_1" xmlns="http://www.w3.org/2000/svg" xmlns:xlink="http://www.w3.org/1999/xlink" x="0px" y="0px"
	 viewBox="0 0 102 380.2" style="enable-background:new 0 0 102 380.2;" xml:space="preserve">
<style type="text/css">
	.st0{fill:#02265A;}
	.st1{fill:#C6C5C5;}
	.st2{fill:#7C6B2B;}
	.st3{fill:#FFFFFF;}
	.st4{fill:#282828;}
	.st5{fill:#474748;}
	.st6{fill:#7D6C2B;}
	.st7{fill:#3D3C3A;}
	.st8{fill:#663231;}
	.st9{fill:#AE451D;}
	.st10{fill:#221310;}
	.st11{fill:#39392D;}
	.st12{fill:#BEA93C;}
	.st13{fill:#CFB942;}
	.st14{fill:#F3C028;}
	.st15{font-family:'ArialMT';}
	.st16{font-size:5.661px;}
	.st17{font-family:'Arial-BoldMT';}
	.st18{font-size:3px;}
	.st19{font-size:6.6045px;}
	.st20{fill:#C9B55E;}
	.st21{fill:#FFFFFF;stroke:#231F20;stroke-width:2;stroke-linecap:round;stroke-miterlimit:10;}
	.st22{fill:#FFFFFF;stroke:#FF0000;stroke-width:2;stroke-linecap:round;stroke-miterlimit:10;}
	.st23{fill:#FFFFFF;stroke:#13870F;stroke-width:2;stroke-linecap:round;stroke-miterlimit:10;}
	.st24{fill:#DFE1E3;}
	.st25{fill:#EDEDED;}
	.st26{fill:#FFFFFF;stroke:#C7C8C9;stroke-miterlimit:10;}
	.st27{fill:none;stroke:#C7C8C9;stroke-miterlimit:10;}
	.st28{font-size:6px;}
	.st29{font-family:'SevenSegmentRegular';}
	.st30{font-size:16px;}
	.st31{fill:#1A2284;}
	.st32{fill:#B2B2B2;}
	.st33{fill:none;stroke:#DFE1E3;stroke-miterlimit:10;}
</style>
<g>
	<path class="st0" d="M48,119.1h42.5V0H48V119.1z M84.6,115.2c0,0.7-0.5,1.2-1.2,1.2s-1.2-0.5-1.2-1.2s0.5-1.2,1.2-1.2
		S84.6,114.5,84.6,115.2z M70.4,115.2c0,0.7-0.5,1.2-1.2,1.2s-1.2-0.5-1.2-1.2s0.5-1.2,1.2-1.2S70.4,114.5,70.4,115.2z M56.4,115.2
		c0,0.7-0.5,1.2-1.2,1.2s-1.2-0.5-1.2-1.2s0.5-1.2,1.2-1.2S56.4,114.5,56.4,115.2z M80.7,3.8c0,0.7-0.5,1.2-1.2,1.2
		s-1.2-0.5-1.2-1.2s0.5-1.2,1.2-1.2S80.7,3.1,80.7,3.8z M73.5,3.8c0,0.7-0.5,1.2-1.2,1.2s-1.2-0.5-1.2-1.2s0.5-1.2,1.2-1.2
		S73.5,3.1,73.5,3.8z M66.3,3.8c0,0.7-0.5,1.2-1.2,1.2s-1.2-0.5-1.2-1.2s0.5-1.2,1.2-1.2S66.3,3.1,66.3,3.8z M58.9,3.8
		c0,0.7-0.5,1.2-1.2,1.2s-1.2-0.5-1.2-1.2s0.5-1.2,1.2-1.2S58.9,3.1,58.9,3.8z"/>
	<g>
		<g>
			<g>
				<g>
					<rect x="62.8" y="58.3" class="st1" width="3" height="4"/>
				</g>
				<g>
					<path class="st2" d="M65.9,62.6h-3.3v-4.4h3.3V62.6z M63,62.2h2.7v-3.7H63V62.2z"/>
				</g>
			</g>
			<g>
				<rect x="63.8" y="58.9" class="st3" width="0.9" height="2.3"/>
			</g>
			<g>
				<g>
					<rect x="65.8" y="58.3" class="st1" width="3" height="4"/>
				</g>
				<g>
					<path class="st2" d="M68.9,62.6h-3.3v-4.4h3.3V62.6z M65.9,62.2h2.7v-3.7h-2.7V62.2z"/>
				</g>
			</g>
			<g>
				<rect x="66.8" y="58.9" class="st3" width="0.9" height="2.3"/>
			</g>
			<g>
				<g>
					<rect x="59.7" y="58.3" class="st1" width="3" height="4"/>
				</g>
				<g>
					<path class="st2" d="M63,62.6h-3.3v-4.4H63V62.6z M59.9,62.2h2.7v-3.7h-2.7V62.2z"/>
				</g>
			</g>
			<g>
				<rect x="60.8" y="58.9" class="st3" width="0.9" height="2.3"/>
			</g>
			<g>
				<g>
					<rect x="56.7" y="58.3" class="st1" width="3" height="4"/>
				</g>
				<g>
					<path class="st2" d="M59.9,62.6h-3.3v-4.4h3.3V62.6z M56.9,62.2h2.7v-3.7h-2.7V62.2z"/>
				</g>
			</g>
			<g>
				<rect x="57.8" y="58.9" class="st3" width="0.9" height="2.3"/>
			</g>
			<g>
				<g>
					<rect x="59.8" y="43.8" class="st1" width="3" height="4"/>
				</g>
				<g>
					<path class="st2" d="M63,48.1h-3.3v-4.4H63V48.1z M59.9,47.7h2.7V44h-2.7V47.7z"/>
				</g>
			</g>
			<g>
				<rect x="60.8" y="45.1" class="st3" width="0.9" height="2.3"/>
			</g>
			<g>
				<g>
					<rect x="56.8" y="43.8" class="st1" width="3" height="4"/>
				</g>
				<g>
					<path class="st2" d="M59.9,48.1h-3.3v-4.4h3.3V48.1z M56.9,47.7h2.7V44h-2.7V47.7z"/>
				</g>
			</g>
			<g>
				<rect x="57.9" y="45.1" class="st3" width="0.9" height="2.3"/>
			</g>
			<g>
				<g>
					<rect x="62.8" y="43.8" class="st1" width="3" height="4"/>
				</g>
				<g>
					<path class="st2" d="M65.9,48.1h-3.3v-4.4h3.3V48.1z M63,47.7h2.7V44H63V47.7z"/>
				</g>
			</g>
			<g>
				<rect x="63.8" y="45.1" class="st3" width="0.9" height="2.3"/>
			</g>
			<g>
				<g>
					<rect x="65.7" y="43.8" class="st1" width="3" height="4"/>
				</g>
				<g>
					<path class="st2" d="M68.9,48.1h-3.3v-4.4h3.3V48.1z M65.9,47.7h2.7V44h-2.7V47.7z"/>
				</g>
			</g>
			<g>
				<rect x="66.8" y="45.1" class="st3" width="0.9" height="2.3"/>
			</g>
			<g>
				<rect x="56.5" y="47.4" class="st4" width="12.5" height="11.4"/>
			</g>
			<g>
				<rect x="56.6" y="47.5" class="st5" width="12.3" height="11"/>
			</g>
		</g>
	</g>
	<g>
		<g>
			<g>
				<rect x="61.1" y="26.5" class="st3" width="0.9" height="3.1"/>
			</g>
			<g>
				<rect x="64.7" y="26.5" class="st3" width="0.9" height="3.1"/>
			</g>
			<g>
				<rect x="68.2" y="26.5" class="st3" width="0.9" height="3.1"/>
			</g>
			<g>
				<rect x="71.8" y="26.5" class="st3" width="0.9" height="3.1"/>
			</g>
			<g>
				<rect x="75.3" y="26.5" class="st3" width="0.9" height="3.1"/>
			</g>
			<g>
				<rect x="68.2" y="13.2" class="st3" width="0.9" height="3.1"/>
			</g>
			<g>
				<rect x="71.8" y="13.2" class="st3" width="0.9" height="3.1"/>
			</g>
			<g>
				<rect x="75.3" y="13.2" class="st3" width="0.9" height="3.1"/>
			</g>
			<g>
				<rect x="57.6" y="26.5" class="st3" width="0.9" height="3.1"/>
			</g>
			<g>
				<rect x="54" y="26.5" class="st3" width="0.9" height="3.1"/>
			</g>
			<g>
				<rect x="57.7" y="13.1" class="st3" width="0.9" height="3.7"/>
			</g>
			<g>
				<rect x="54.1" y="13.1" class="st3" width="0.9" height="3.7"/>
			</g>
			<g>
				<rect x="61.2" y="13.1" class="st3" width="0.9" height="3.7"/>
			</g>
			<g>
				<rect x="64.7" y="13.1" class="st3" width="0.9" height="3.7"/>
			</g>
			<g>
				<rect x="52.8" y="16.3" class="st4" width="24.6" height="10"/>
			</g>
			<g>
				<rect x="52.9" y="16.5" class="st5" width="24.4" height="9.7"/>
			</g>
		</g>
	</g>
	<g>
		<g>
			<rect x="50.4" y="67.8" class="st1" width="2.5" height="4.6"/>
			<g>
				<path class="st6" d="M52.9,67.8v4.6h-2.5v-4.6H52.9 M53.4,67.3h-0.5h-2.5H50v0.5v4.6v0.5h0.5h2.5h0.5v-0.5v-4.6V67.3L53.4,67.3z
					"/>
			</g>
		</g>
		<g>
			<rect x="64.7" y="67.8" class="st1" width="2.5" height="4.6"/>
			<g>
				<path class="st6" d="M67.2,67.8v4.6h-2.5v-4.6H67.2 M67.6,67.3h-0.5h-2.5h-0.5v0.5v4.6v0.5h0.5h2.5h0.5v-0.5v-4.6V67.3
					L67.6,67.3z"/>
			</g>
		</g>
		
			<rect x="55.6" y="63.9" transform="matrix(6.123234e-17 -1 1 6.123234e-17 -10.9918 129.1741)" class="st7" width="7" height="12.3"/>
	</g>
	<g>
		<g>
			
				<rect x="51.7" y="89.7" transform="matrix(6.123234e-17 -1 1 6.123234e-17 -39.0681 144.9357)" class="st1" width="2.5" height="4.6"/>
			<g>
				<path class="st6" d="M55.2,90.8v2.5h-4.6v-2.5H55.2 M55.7,90.3h-0.5h-4.6h-0.5v0.5v2.5v0.5h0.5h4.6h0.5v-0.5v-2.5V90.3
					L55.7,90.3z"/>
			</g>
		</g>
		<g>
			
				<rect x="51.7" y="75.4" transform="matrix(6.123234e-17 -1 1 6.123234e-17 -24.8272 130.6948)" class="st1" width="2.5" height="4.6"/>
			<g>
				<path class="st6" d="M55.2,76.5V79h-4.6v-2.5H55.2 M55.7,76h-0.5h-4.6h-0.5v0.5V79v0.5h0.5h4.6h0.5V79v-2.5V76L55.7,76z"/>
			</g>
		</g>
		
			<rect x="49.4" y="78.4" transform="matrix(-1 -1.224647e-16 1.224647e-16 -1 105.8676 169.1908)" class="st7" width="7" height="12.3"/>
	</g>
	<g>
		<g>
			
				<rect x="59.5" y="89.7" transform="matrix(6.123234e-17 -1 1 6.123234e-17 -31.2155 152.7883)" class="st1" width="2.5" height="4.6"/>
			<g>
				<path class="st6" d="M63.1,90.8v2.5h-4.6v-2.5H63.1 M63.6,90.3h-0.5h-4.6H58v0.5v2.5v0.5h0.5h4.6h0.5v-0.5v-2.5V90.3L63.6,90.3z
					"/>
			</g>
		</g>
		<g>
			
				<rect x="59.5" y="75.4" transform="matrix(6.123234e-17 -1 1 6.123234e-17 -16.9746 138.5474)" class="st1" width="2.5" height="4.6"/>
			<g>
				<path class="st6" d="M63.1,76.5V79h-4.6v-2.5H63.1 M63.6,76h-0.5h-4.6H58v0.5V79v0.5h0.5h4.6h0.5V79v-2.5V76L63.6,76z"/>
			</g>
		</g>
		
			<rect x="57.3" y="78.4" transform="matrix(-1 -1.224647e-16 1.224647e-16 -1 121.5729 169.1908)" class="st7" width="7" height="12.3"/>
	</g>
	<g>
		
			<rect x="51.9" y="55.8" transform="matrix(6.123234e-17 -1 1 6.123234e-17 -4.6143 109.163)" class="st3" width="0.7" height="2.1"/>
		
			<rect x="51.9" y="52.3" transform="matrix(6.123234e-17 -1 1 6.123234e-17 -1.0909 105.6396)" class="st3" width="0.7" height="2.1"/>
		
			<rect x="50.9" y="54.1" transform="matrix(6.123234e-17 -1 1 6.123234e-17 -2.8526 107.4013)" class="st5" width="2.8" height="2.1"/>
	</g>
	<g>
		
			<rect x="73" y="64.7" transform="matrix(6.123234e-17 -1 1 6.123234e-17 7.6054 139.1056)" class="st3" width="0.7" height="2.1"/>
		
			<rect x="73" y="61.2" transform="matrix(6.123234e-17 -1 1 6.123234e-17 11.1288 135.5823)" class="st3" width="0.7" height="2.1"/>
		
			<rect x="72" y="62.9" transform="matrix(6.123234e-17 -1 1 6.123234e-17 9.3671 137.3439)" class="st5" width="2.8" height="2.1"/>
	</g>
	<g>
		
			<rect x="81.6" y="48.5" transform="matrix(-1 -1.224647e-16 1.224647e-16 -1 164.033 99.156)" class="st3" width="0.7" height="2.1"/>
		
			<rect x="78.1" y="48.5" transform="matrix(-1 -1.224647e-16 1.224647e-16 -1 156.9863 99.156)" class="st3" width="0.7" height="2.1"/>
		
			<rect x="78.9" y="48.5" transform="matrix(-1 -1.224647e-16 1.224647e-16 -1 160.5097 99.156)" class="st5" width="2.8" height="2.1"/>
	</g>
	<g>
		
			<rect x="80.7" y="98.6" transform="matrix(-1 -1.224647e-16 1.224647e-16 -1 162.146 199.4023)" class="st3" width="0.7" height="2.1"/>
		
			<rect x="77.2" y="98.6" transform="matrix(-1 -1.224647e-16 1.224647e-16 -1 155.0993 199.4023)" class="st3" width="0.7" height="2.1"/>
		
			<rect x="77.9" y="98.6" transform="matrix(-1 -1.224647e-16 1.224647e-16 -1 158.6227 199.4023)" class="st5" width="2.8" height="2.1"/>
	</g>
	<g>
		
			<rect x="81.6" y="42.6" transform="matrix(-1 -1.224647e-16 1.224647e-16 -1 164.033 87.3405)" class="st3" width="0.7" height="2.1"/>
		
			<rect x="78.1" y="42.6" transform="matrix(-1 -1.224647e-16 1.224647e-16 -1 156.9863 87.3405)" class="st3" width="0.7" height="2.1"/>
		
			<rect x="78.9" y="42.6" transform="matrix(-1 -1.224647e-16 1.224647e-16 -1 160.5097 87.3405)" class="st5" width="2.8" height="2.1"/>
	</g>
	<g>
		
			<rect x="81.6" y="36.4" transform="matrix(-1 -1.224647e-16 1.224647e-16 -1 164.033 74.9571)" class="st3" width="0.7" height="2.1"/>
		
			<rect x="78.1" y="36.4" transform="matrix(-1 -1.224647e-16 1.224647e-16 -1 156.9863 74.9571)" class="st3" width="0.7" height="2.1"/>
		
			<rect x="78.9" y="36.4" transform="matrix(-1 -1.224647e-16 1.224647e-16 -1 160.5097 74.9571)" class="st5" width="2.8" height="2.1"/>
	</g>
	<g>
		
			<rect x="82" y="27.7" transform="matrix(6.123234e-17 -1 1 6.123234e-17 53.6486 111.1216)" class="st3" width="0.7" height="2.1"/>
		
			<rect x="82" y="24.2" transform="matrix(6.123234e-17 -1 1 6.123234e-17 57.1719 107.5982)" class="st3" width="0.7" height="2.1"/>
		
			<rect x="81" y="25.9" transform="matrix(6.123234e-17 -1 1 6.123234e-17 55.4103 109.3599)" class="st5" width="2.8" height="2.1"/>
	</g>
	<g>
		
			<rect x="82" y="16.4" transform="matrix(6.123234e-17 -1 1 6.123234e-17 64.9428 99.8274)" class="st3" width="0.7" height="2.1"/>
		<rect x="82" y="12.9" transform="matrix(6.123234e-17 -1 1 6.123234e-17 68.4661 96.304)" class="st3" width="0.7" height="2.1"/>
		
			<rect x="81" y="14.6" transform="matrix(6.123234e-17 -1 1 6.123234e-17 66.7044 98.0657)" class="st5" width="2.8" height="2.1"/>
	</g>
	<g>
		
			<rect x="73" y="53.7" transform="matrix(6.123234e-17 -1 1 6.123234e-17 18.5971 128.1139)" class="st3" width="0.7" height="2.1"/>
		
			<rect x="73" y="50.2" transform="matrix(6.123234e-17 -1 1 6.123234e-17 22.1205 124.5906)" class="st3" width="0.7" height="2.1"/>
		
			<rect x="72" y="51.9" transform="matrix(6.123234e-17 -1 1 6.123234e-17 20.3588 126.3522)" class="st8" width="2.8" height="2.1"/>
	</g>
	<g>
		<rect x="61.1" y="34.9" class="st3" width="0.9" height="2.5"/>
		<rect x="70.9" y="34.9" class="st3" width="0.9" height="2.5"/>
		<rect x="62" y="34.9" class="st9" width="9" height="2.5"/>
		<rect x="63.4" y="34.9" class="st10" width="1.6" height="2.5"/>
		<rect x="65.4" y="34.9" class="st3" width="0.6" height="2.5"/>
	</g>
	<g>
		
			<rect x="51.9" y="43.3" transform="matrix(6.123234e-17 -1 1 6.123234e-17 7.9039 96.6449)" class="st3" width="0.7" height="2.1"/>
		
			<rect x="51.9" y="39.8" transform="matrix(6.123234e-17 -1 1 6.123234e-17 11.4272 93.1215)" class="st3" width="0.7" height="2.1"/>
		
			<rect x="50.9" y="41.5" transform="matrix(6.123234e-17 -1 1 6.123234e-17 9.6655 94.8832)" class="st8" width="2.8" height="2.1"/>
	</g>
	<g>
		
			<rect x="79.8" y="81.9" transform="matrix(6.123234e-17 -1 1 6.123234e-17 -2.8815 168.7126)" class="st11" width="6.3" height="7.7"/>
		<path class="st12" d="M79,92h2.9c0,0,0,0,0,0c0-0.5,0.4-1,1-1c0.5,0,1,0.4,1,1c0,0,0,0,0,0h2.9v-3.1H79V92z"/>
		<path class="st13" d="M82.9,80.8c-0.5,0-1-0.4-1-1H79v2.9h7.7v-2.9h-2.9C83.9,80.3,83.5,80.8,82.9,80.8z"/>
	</g>
	<g>
		
			<rect x="67.5" y="81.9" transform="matrix(6.123234e-17 -1 1 6.123234e-17 -15.1497 156.4444)" class="st11" width="6.3" height="7.7"/>
		<path class="st12" d="M66.8,92h2.9c0,0,0,0,0,0c0-0.5,0.4-1,1-1c0.5,0,1,0.4,1,1c0,0,0,0,0,0h2.9v-3.1h-7.7V92z"/>
		<path class="st13" d="M70.6,80.8c-0.5,0-1-0.4-1-1h-2.9v2.9h7.7v-2.9h-2.9C71.6,80.3,71.2,80.8,70.6,80.8z"/>
	</g>
	<g>
		<rect x="78" y="56.2" transform="matrix(6.123234e-17 -1 1 6.123234e-17 22.0662 136.5806)" class="st3" width="2.7" height="2"/>
		
			<rect x="78.9" y="58.1" transform="matrix(6.123234e-17 -1 1 6.123234e-17 20.2592 138.3877)" class="st14" width="0.9" height="2"/>
		
			<rect x="78.9" y="54.4" transform="matrix(6.123234e-17 -1 1 6.123234e-17 23.8733 134.7736)" class="st14" width="0.9" height="2"/>
	</g>
	<g>
		
			<rect x="83.9" y="56.2" transform="matrix(6.123234e-17 -1 1 6.123234e-17 27.9801 142.4945)" class="st3" width="2.7" height="2"/>
		
			<rect x="84.8" y="58.1" transform="matrix(6.123234e-17 -1 1 6.123234e-17 26.173 144.3015)" class="st14" width="0.9" height="2"/>
		
			<rect x="84.8" y="54.4" transform="matrix(6.123234e-17 -1 1 6.123234e-17 29.7872 140.6874)" class="st14" width="0.9" height="2"/>
	</g>
	<text transform="matrix(-6.123235e-17 1 -1 -6.123234e-17 82.9156 62.2291)" class="st3 st15 st16">TXD</text>
	<text transform="matrix(-6.123235e-17 1 -1 -6.123234e-17 77.2935 62.2291)" class="st3 st15 st16">RXD</text>
	<text transform="matrix(1 0 0 1 54.6089 9.6627)" class="st3 st17 st18">GND</text>
	<text transform="matrix(1 0 0 1 61.7769 9.6627)" class="st3 st17 st18">RXD</text>
	<text transform="matrix(1 0 0 1 66.4293 109.0533)" class="st3 st15 st19">B-</text>
	<text transform="matrix(1 0 0 1 79.3863 109.0533)" class="st3 st15 st19">A+</text>
	<text transform="matrix(1 0 0 1 49.4449 109.0533)" class="st3 st15 st19">GND</text>
	<text transform="matrix(1 0 0 1 69.0894 9.6627)" class="st3 st17 st18">TXD</text>
	<text transform="matrix(1 0 0 1 76.2447 9.6627)" class="st3 st17 st18">VDD</text>
	<path class="st20" d="M55.7,3v1.7c0,1.1,0.9,2,2,2c1.1,0,2-0.9,2-2V3c0-1.1-0.9-2-2-2C56.6,0.9,55.7,1.8,55.7,3z M58.9,3.8
		c0,0.7-0.5,1.2-1.2,1.2c-0.7,0-1.2-0.5-1.2-1.2s0.5-1.2,1.2-1.2C58.4,2.6,58.9,3.1,58.9,3.8z"/>
	<path class="st20" d="M53.2,114.3v1.7c0,1.1,0.9,2,2,2c1.1,0,2-0.9,2-2v-1.7c0-1.1-0.9-2-2-2C54.1,112.3,53.2,113.2,53.2,114.3z
		 M56.4,115.2c0,0.7-0.5,1.2-1.2,1.2c-0.7,0-1.2-0.5-1.2-1.2s0.5-1.2,1.2-1.2C55.9,114,56.4,114.5,56.4,115.2z"/>
	<path class="st20" d="M67.2,114.3v1.7c0,1.1,0.9,2,2,2c1.1,0,2-0.9,2-2v-1.7c0-1.1-0.9-2-2-2C68.1,112.3,67.2,113.2,67.2,114.3z
		 M70.4,115.2c0,0.7-0.5,1.2-1.2,1.2s-1.2-0.5-1.2-1.2s0.5-1.2,1.2-1.2S70.4,114.5,70.4,115.2z"/>
	<path class="st20" d="M81.4,114.3v1.7c0,1.1,0.9,2,2,2c1.1,0,2-0.9,2-2v-1.7c0-1.1-0.9-2-2-2C82.3,112.3,81.4,113.2,81.4,114.3z
		 M84.6,115.2c0,0.7-0.5,1.2-1.2,1.2s-1.2-0.5-1.2-1.2s0.5-1.2,1.2-1.2S84.6,114.5,84.6,115.2z"/>
	<path class="st20" d="M63.1,3v1.7c0,1.1,0.9,2,2,2c1.1,0,2-0.9,2-2V3c0-1.1-0.9-2-2-2C64,0.9,63.1,1.8,63.1,3z M66.3,3.8
		c0,0.7-0.5,1.2-1.2,1.2s-1.2-0.5-1.2-1.2s0.5-1.2,1.2-1.2S66.3,3.1,66.3,3.8z"/>
	<path class="st20" d="M70.3,3v1.7c0,1.1,0.9,2,2,2c1.1,0,2-0.9,2-2V3c0-1.1-0.9-2-2-2C71.2,0.9,70.3,1.8,70.3,3z M73.5,3.8
		c0,0.7-0.5,1.2-1.2,1.2s-1.2-0.5-1.2-1.2s0.5-1.2,1.2-1.2S73.5,3.1,73.5,3.8z"/>
	<path class="st20" d="M77.5,3v1.7c0,1.1,0.9,2,2,2c1.1,0,2-0.9,2-2V3c0-1.1-0.9-2-2-2C78.4,0.9,77.5,1.8,77.5,3z M80.7,3.8
		c0,0.7-0.5,1.2-1.2,1.2c-0.7,0-1.2-0.5-1.2-1.2s0.5-1.2,1.2-1.2C80.1,2.6,80.7,3.1,80.7,3.8z"/>
</g>
<line class="st21" x1="55.2" y1="115.2" x2="55.2" y2="125"/>
<line class="st22" x1="83.5" y1="115.2" x2="83.5" y2="125"/>
<line class="st23" x1="69.2" y1="115.2" x2="69.2" y2="125"/>
<rect y="125" class="st24" width="102" height="255.1"/>
<rect y="174.4" class="st25" width="102" height="128.2"/>
<rect x="14.6" y="196.5" class="st26" width="72.7" height="60"/>
<line class="st27" x1="0" y1="174.4" x2="102" y2="174.4"/>
<line class="st27" x1="0" y1="302.6" x2="102" y2="302.6"/>
<text transform="matrix(1 0 0 1 41.4834 185.6559)" class="st17 st28">SDM220-MBus</text>
<text transform="matrix(1 0 0 1 70.7335 237.5086)" class="st15 st28">kWh</text>
<text transform="matrix(6.123234e-17 -1 1 6.123234e-17 22.3808 208.6334)" class="st15 st28">M</text>
<text transform="matrix(1 0 0 1 17.8089 228.1557)" class="st29 st30">000070.00</text>
<g>
	<path class="st31" d="M7.2,181.6v1.1H5.6c-0.7,0.4,0,0.9,0,0.9h1.6v1.8H5.5c-1.4,0-1.7-1.6-1.7-1.6v-3.3c0-1.4,1.5-1.9,1.5-1.9h1.9
		v1.9H5.7c0,0-0.7,0.6,0,1.1L7.2,181.6z"/>
	<path class="st31" d="M8.3,185.4v-5.3c0,0,0-1.6,2.2-1.6c0,0,2.1,0.1,2.1,1.5v5.3H11v-4.5c0,0-0.6-1.4-1.2,0v1.2h0.7v1.4H9.8v2H8.3
		z"/>
	<path class="st31" d="M16.5,184.2c0.6-1.4,0-2.2,0-2.2c-0.6-0.8-0.6-1.1-0.6-1.1c0-0.7,1.2-0.5,1.2-0.5v-1.8c0,0-3.1-0.5-3,1.8
		c0,0,0,1.1,0.7,2c0,0,0.6,1-1.1,1.1v1.8C13.7,185.4,16,185.3,16.5,184.2z"/>
	<polygon class="st31" points="17.8,178.6 17.8,180.5 19.3,180.5 19.3,185.4 20.9,185.4 20.9,180.5 22.4,180.5 22.4,178.6 	"/>
	<path class="st31" d="M23.2,185.4v-6.8h3c0,0,3.4,1.1,1.2,3.4l-0.3,0.3l1.3,3h-1.8l-1.1-2.3v-1.3c0,0,0.7-0.3,0.9-0.8
		c0,0,0.1-0.7-0.9-0.7H25v5.2H23.2z"/>
	<g>
		<path class="st31" d="M31.5,185.8c-1.6,0-2.9-1.6-2.9-3.6s1.3-3.6,2.9-3.6s2.9,1.6,2.9,3.6S33.1,185.8,31.5,185.8z M31.5,180.5
			c-0.5,0-1,0.7-1,1.7s0.5,1.7,1,1.7c0.5,0,1-0.7,1-1.7S32,180.5,31.5,180.5z"/>
	</g>
	<path class="st31" d="M34.9,185.4h1.9v-4.5c0,0-0.1-0.5,0.6-0.5s0.6,0.5,0.6,0.5c0,1.5,0,3,0,4.5h1.5v-4.5c0,0,0.2-2.3-2.2-2.3
		c0,0-2.4-0.2-2.4,2.2V185.4z"/>
</g>
<rect x="5.2" y="128.2" class="st27" width="91.7" height="42.5"/>
<path class="st27" d="M17.1,328.4"/>
<polygon class="st27" points="84.4,328.4 84.4,318 17.1,318 17.1,328.4 5.2,328.4 5.2,370.9 96.9,370.9 96.9,328.4 "/>
<g>
	<circle class="st32" cx="44.7" cy="147.5" r="3.7"/>
	<line class="st33" x1="42" y1="150.2" x2="47.4" y2="145"/>
</g>
<g>
	<circle class="st32" cx="31.7" cy="147.5" r="3.7"/>
	<line class="st33" x1="29.1" y1="150.2" x2="34.5" y2="145"/>
</g>
<g>
	<circle class="st32" cx="18.8" cy="147.5" r="3.7"/>
	<line class="st33" x1="16.1" y1="150.2" x2="21.5" y2="145"/>
</g>
<g>
	<circle class="st32" cx="83.4" cy="147.5" r="3.7"/>
	<line class="st33" x1="80.8" y1="150.2" x2="86.2" y2="145"/>
</g>
<g>
	<circle class="st32" cx="70.5" cy="147.5" r="3.7"/>
	<line class="st33" x1="67.8" y1="150.2" x2="73.2" y2="145"/>
</g>
<g>
	<circle class="st32" cx="57.6" cy="147.5" r="3.7"/>
	<line class="st33" x1="54.9" y1="150.2" x2="60.3" y2="145"/>
</g>
<text transform="matrix(1 0 0 1 51.4142 140.0777)" class="st32 st17 st28">GND</text>
<text transform="matrix(1 0 0 1 68.5392 140.0777)" class="st32 st17 st28">B</text>
<text transform="matrix(1 0 0 1 81.2892 140.0777)" class="st32 st17 st28">A</text>
</svg>
