<?xml version="1.0" encoding="utf-8"?>
<!-- Generator: Adobe Illustrator 23.0.1, SVG Export Plug-In . SVG Version: 6.00 Build 0)  -->
<svg version="1.1" id="Layer_1" xmlns="http://www.w3.org/2000/svg" xmlns:xlink="http://www.w3.org/1999/xlink" x="0px" y="0px"
	 viewBox="0 0 62.4 54" style="enable-background:new 0 0 62.4 54;" xml:space="preserve">
<style type="text/css">
	.st0{fill:#C9B55E;}
	.st1{fill:#040202;}
	.st2{fill:none;stroke:#7C6B2B;stroke-width:0.5;stroke-miterlimit:10;}
	.st3{fill:#FFFFFF;}
	.st4{fill:#EDEDF2;}
	.st5{fill:#DDDDDC;}
	.st6{fill:#C6C5C5;}
	.st7{fill:none;stroke:#FFFFFF;stroke-width:0.25;stroke-miterlimit:10;}
	.st8{fill:#C8C8C8;}
	.st9{fill:#474748;}
	.st10{font-family:'ArialRoundedMTBold';}
	.st11{font-size:3.9563px;}
	.st12{fill:#7C6B2B;}
	.st13{fill:#D8C262;}
	.st14{fill:#663231;}
	.st15{fill:#7D6C2B;stroke:#D8C262;stroke-width:0.15;stroke-miterlimit:10;}
</style>
<g>
	<path d="M43.5,0.1H18.9c-2,0-3.9,1.1-4.9,2.8L1.7,24.2c-1,1.8-1,3.9,0,5.7L14,51.1c1,1.8,2.9,2.8,4.9,2.8h24.5c2,0,3.9-1.1,4.9-2.8
		l12.3-21.3c1-1.8,1-3.9,0-5.7L48.4,2.9C47.4,1.2,45.5,0.1,43.5,0.1z"/>
	<g>
		<g>
			<path class="st0" d="M23,7.4L23,7.4c-1,0-1.7-0.8-1.7-1.7V4.3c0-1,0.8-1.7,1.7-1.7h0c1,0,1.7,0.8,1.7,1.7v1.4
				C24.7,6.7,23.9,7.4,23,7.4z"/>
			<circle class="st1" cx="23" cy="5" r="1"/>
		</g>
		<path class="st2" d="M23,7.4L23,7.4c-1,0-1.7-0.8-1.7-1.7V4.3c0-1,0.8-1.7,1.7-1.7h0c1,0,1.7,0.8,1.7,1.7v1.4
			C24.7,6.7,23.9,7.4,23,7.4z"/>
		<rect x="22.6" y="7" class="st0" width="0.7" height="0.7"/>
	</g>
	<g>
		<g>
			<path class="st0" d="M28.5,7.4L28.5,7.4c-1,0-1.7-0.8-1.7-1.7V4.3c0-1,0.8-1.7,1.7-1.7h0c1,0,1.7,0.8,1.7,1.7v1.4
				C30.2,6.7,29.4,7.4,28.5,7.4z"/>
			<circle class="st1" cx="28.5" cy="5" r="1"/>
		</g>
		<path class="st2" d="M28.5,7.4L28.5,7.4c-1,0-1.7-0.8-1.7-1.7V4.3c0-1,0.8-1.7,1.7-1.7h0c1,0,1.7,0.8,1.7,1.7v1.4
			C30.2,6.7,29.4,7.4,28.5,7.4z"/>
		
			<rect x="26.9" y="6.6" transform="matrix(0.7071 0.7071 -0.7071 0.7071 12.8941 -17.2039)" class="st0" width="0.7" height="0.7"/>
	</g>
	<g>
		<g>
			<path class="st0" d="M33.9,7.4L33.9,7.4c-1,0-1.7-0.8-1.7-1.7V4.3c0-1,0.8-1.7,1.7-1.7h0c1,0,1.7,0.8,1.7,1.7v1.4
				C35.6,6.7,34.9,7.4,33.9,7.4z"/>
			<circle class="st1" cx="33.9" cy="5" r="1"/>
		</g>
		<path class="st2" d="M33.9,7.4L33.9,7.4c-1,0-1.7-0.8-1.7-1.7V4.3c0-1,0.8-1.7,1.7-1.7h0c1,0,1.7,0.8,1.7,1.7v1.4
			C35.6,6.7,34.9,7.4,33.9,7.4z"/>
		<rect x="33.6" y="2" class="st0" width="0.7" height="1"/>
	</g>
	<g>
		<g>
			<g>
				<path class="st0" d="M41.1,4.3V2.7c0-0.1-0.1-0.1-0.1-0.1h-3.2c-0.1,0-0.1,0.1-0.1,0.1v4.6c0,0.1,0.1,0.1,0.1,0.1h0.9l0,0h1.4
					l0,0h0.9c0.1,0,0.1-0.1,0.1-0.1V5.7l0,0V4.3L41.1,4.3z"/>
				<path class="st2" d="M41.1,4.3V2.7c0-0.1-0.1-0.1-0.1-0.1h-3.2c-0.1,0-0.1,0.1-0.1,0.1v4.6c0,0.1,0.1,0.1,0.1,0.1h0.9l0,0h1.4
					l0,0h0.9c0.1,0,0.1-0.1,0.1-0.1V5.7l0,0V4.3L41.1,4.3z"/>
				<circle class="st1" cx="39.4" cy="5" r="1"/>
			</g>
		</g>
		<rect x="38.7" y="7.1" class="st0" width="1.4" height="0.8"/>
	</g>
	<g>
		<rect x="21.9" y="4" class="st3" width="2" height="2"/>
		<polygon class="st4" points="21.9,4 23,5 21.9,6 		"/>
		<polygon class="st5" points="24,6 23,5 21.9,6 		"/>
		<polygon class="st6" points="24,4 23,5 24,6 		"/>
	</g>
	<g>
		<rect x="27.4" y="4" class="st3" width="2" height="2"/>
		<polygon class="st4" points="27.4,4 28.5,5 27.4,6 		"/>
		<polygon class="st5" points="29.5,6 28.5,5 27.4,6 		"/>
		<polygon class="st6" points="29.5,4 28.5,5 29.5,6 		"/>
	</g>
	<g>
		<rect x="32.9" y="4" class="st3" width="2" height="2"/>
		<polygon class="st4" points="32.9,4 33.9,5 32.9,6 		"/>
		<polygon class="st5" points="34.9,6 33.9,5 32.9,6 		"/>
		<polygon class="st6" points="34.9,4 33.9,5 34.9,6 		"/>
	</g>
	<g>
		<rect x="38.4" y="4" class="st3" width="2" height="2"/>
		<polygon class="st4" points="38.4,4 39.4,5 38.4,6 		"/>
		<polygon class="st5" points="40.4,6 39.4,5 38.4,6 		"/>
		<polygon class="st6" points="40.4,4 39.4,5 40.4,6 		"/>
	</g>
	<g>
		<g>
			<polygon class="st3" points="28.5,17 33.8,11.7 32.7,11.7 30.6,13.8 30.1,13.2 31.6,11.7 30.6,11.7 29.5,12.7 29,12.2 29.5,11.7 
				28.5,11.7 			"/>
			<polygon class="st3" points="33.8,17 33.8,16.1 31.9,14.3 31.5,14.7 			"/>
			<polygon class="st3" points="33.8,15.2 33.8,14.2 32.9,13.3 32.4,13.8 			"/>
			<polygon class="st3" points="33.8,13.3 33.8,12.4 33.3,12.9 			"/>
		</g>
	</g>
	<g>
		<rect x="27.8" y="23.3" class="st7" width="6.9" height="6.9"/>
		<circle class="st7" cx="29" cy="24.2" r="0.4"/>
	</g>
	<g>
		<g>
			
				<rect x="27.4" y="24.2" transform="matrix(-1.836970e-16 1 -1 -1.836970e-16 52.381 -2.9384)" class="st8" width="0.5" height="1"/>
			
				<rect x="26.7" y="24.5" transform="matrix(-1.836970e-16 1 -1 -1.836970e-16 51.6829 -2.2404)" class="st0" width="0.5" height="0.4"/>
		</g>
		<g>
			
				<rect x="27.4" y="25.6" transform="matrix(-1.836970e-16 1 -1 -1.836970e-16 53.737 -1.5824)" class="st8" width="0.5" height="1"/>
			
				<rect x="26.7" y="25.9" transform="matrix(-1.836970e-16 1 -1 -1.836970e-16 53.039 -0.8843)" class="st0" width="0.5" height="0.4"/>
		</g>
		<g>
			
				<rect x="27.4" y="27" transform="matrix(-1.836970e-16 1 -1 -1.836970e-16 55.0931 -0.2263)" class="st8" width="0.5" height="1"/>
		</g>
		<g>
			
				<rect x="27.4" y="28.3" transform="matrix(-1.836970e-16 1 -1 -1.836970e-16 56.4491 1.1297)" class="st8" width="0.5" height="1"/>
			
				<rect x="26.7" y="28.6" transform="matrix(-1.836970e-16 1 -1 -1.836970e-16 55.7511 1.8278)" class="st0" width="0.5" height="0.4"/>
		</g>
		<g>
			
				<rect x="34.5" y="28.3" transform="matrix(6.123234e-17 -1 1 6.123234e-17 5.9344 63.5133)" class="st8" width="0.5" height="1"/>
			
				<rect x="35.2" y="28.6" transform="matrix(6.123234e-17 -1 1 6.123234e-17 6.6325 64.2113)" class="st0" width="0.5" height="0.4"/>
		</g>
		<g>
			<rect x="34.5" y="27" transform="matrix(6.123234e-17 -1 1 6.123234e-17 7.2905 62.1573)" class="st8" width="0.5" height="1"/>
		</g>
		<g>
			
				<rect x="34.5" y="25.6" transform="matrix(6.123234e-17 -1 1 6.123234e-17 8.6465 60.8012)" class="st8" width="0.5" height="1"/>
		</g>
		<g>
			
				<rect x="34.5" y="24.2" transform="matrix(6.123234e-17 -1 1 6.123234e-17 10.0026 59.4452)" class="st8" width="0.5" height="1"/>
		</g>
	</g>
	<g>
		<rect x="28" y="23.5" width="6.4" height="6.4"/>
		<rect x="28.1" y="23.6" class="st9" width="6.2" height="6.2"/>
		<circle class="st0" cx="28.7" cy="24.3" r="0.4"/>
	</g>
	<g>
		<text transform="matrix(1 0 0 1 18.6473 43.4871)"><tspan x="0" y="0" class="st3 st10 st11">Temperature</tspan><tspan x="2.5" y="4.7" class="st3 st10 st11">&amp;Humidity</tspan></text>
	</g>
	<g>
		<g>
			<rect x="16.9" y="23.3" class="st6" width="1.9" height="2.7"/>
			<g>
				<path class="st12" d="M18.8,23.3V26h-1.9v-2.7H18.8 M19.3,22.8h-0.5h-1.9h-0.5v0.5V26v0.5h0.5h1.9h0.5V26v-2.7V22.8L19.3,22.8z"
					/>
			</g>
			<rect x="17.5" y="26" class="st0" width="0.7" height="0.5"/>
		</g>
		<g>
			<rect x="21.7" y="23.3" class="st6" width="1.9" height="2.7"/>
			<g>
				<path class="st12" d="M23.6,23.3V26h-1.9v-2.7H23.6 M24.1,22.8h-0.5h-1.9h-0.5v0.5V26v0.5h0.5h1.9h0.5V26v-2.7V22.8L24.1,22.8z"
					/>
			</g>
			
				<rect x="23.5" y="24.4" transform="matrix(6.123234e-17 -1 1 6.123234e-17 -0.8282 48.5128)" class="st0" width="0.7" height="0.5"/>
			
				<rect x="22.3" y="22.8" transform="matrix(-1 -1.224647e-16 1.224647e-16 -1 45.3516 46.0877)" class="st0" width="0.7" height="0.5"/>
		</g>
		<g>
			<rect x="18" y="23.6" class="st3" width="0.7" height="2.1"/>
			<rect x="21.6" y="23.6" class="st3" width="0.7" height="2.1"/>
			<rect x="18.7" y="23.6" class="st9" width="2.8" height="2.1"/>
		</g>
		<line class="st7" x1="19.5" y1="23.3" x2="21" y2="23.3"/>
		<line class="st7" x1="19.5" y1="26.1" x2="21" y2="26.1"/>
	</g>
	<g>
		<g>
			
				<rect x="38.5" y="23" transform="matrix(-1.836970e-16 1 -1 -1.836970e-16 63.7336 -15.0562)" class="st6" width="1.9" height="2.7"/>
			<g>
				<g>
					<path class="st13" d="M40.7,23.4v1.9h-2.7v-1.9H40.7 M41.2,22.9h-0.5h-2.7h-0.5v0.5v1.9v0.5h0.5h2.7h0.5v-0.5v-1.9V22.9
						L41.2,22.9z"/>
				</g>
			</g>
		</g>
		<g>
			
				<rect x="38.5" y="27.8" transform="matrix(-1.836970e-16 1 -1 -1.836970e-16 68.5429 -10.2468)" class="st6" width="1.9" height="2.7"/>
			<g>
				<path class="st12" d="M40.7,28.2v1.9h-2.7v-1.9H40.7 M41.2,27.7h-0.5h-2.7h-0.5v0.5v1.9v0.5h0.5h2.7h0.5v-0.5v-1.9V27.7
					L41.2,27.7z"/>
			</g>
			<rect x="39" y="30.1" class="st0" width="0.7" height="0.5"/>
			
				<rect x="40.6" y="28.9" transform="matrix(6.123234e-17 -1 1 6.123234e-17 11.8191 70.1152)" class="st0" width="0.7" height="0.5"/>
			
				<rect x="37.5" y="28.6" transform="matrix(6.123234e-17 -1 1 6.123234e-17 9.0357 66.6095)" class="st0" width="0.7" height="0.5"/>
		</g>
		<g>
			
				<rect x="39" y="23.8" transform="matrix(-1.836970e-16 1 -1 -1.836970e-16 64.2333 -14.5367)" class="st3" width="0.7" height="2.1"/>
			
				<rect x="39" y="27.3" transform="matrix(-1.836970e-16 1 -1 -1.836970e-16 67.781 -10.989)" class="st3" width="0.7" height="2.1"/>
			
				<rect x="38" y="25.6" transform="matrix(-1.836970e-16 1 -1 -1.836970e-16 66.0072 -12.7629)" class="st14" width="2.8" height="2.1"/>
		</g>
		<line class="st7" x1="40.7" y1="26" x2="40.7" y2="27.5"/>
		<line class="st7" x1="37.9" y1="26" x2="37.9" y2="27.5"/>
	</g>
	<g>
		<g>
			<rect x="16.9" y="27.5" class="st6" width="1.9" height="2.7"/>
			<g>
				<path class="st12" d="M18.8,27.5v2.7h-1.9v-2.7H18.8 M19.3,27h-0.5h-1.9h-0.5v0.5v2.7v0.5h0.5h1.9h0.5v-0.5v-2.7V27L19.3,27z"/>
			</g>
			<rect x="17.5" y="30.1" class="st0" width="0.7" height="0.5"/>
			<rect x="17.5" y="27" class="st0" width="0.7" height="0.5"/>
		</g>
		<g>
			<rect x="21.7" y="27.5" class="st6" width="1.9" height="2.7"/>
			<g>
				<path class="st12" d="M23.6,27.5v2.7h-1.9v-2.7H23.6 M24.1,27h-0.5h-1.9h-0.5v0.5v2.7v0.5h0.5h1.9h0.5v-0.5v-2.7V27L24.1,27z"/>
			</g>
			
				<rect x="22.3" y="27" transform="matrix(-1 -1.224647e-16 1.224647e-16 -1 45.3516 54.4343)" class="st0" width="0.7" height="0.5"/>
			<polygon class="st0" points="21.3,27 21.3,27.3 21.7,27.7 21.7,27.5 22,27.5 21.5,27 			"/>
		</g>
		<g>
			<rect x="18" y="27.7" class="st3" width="0.7" height="2.1"/>
			<rect x="21.6" y="27.7" class="st3" width="0.7" height="2.1"/>
			<rect x="18.7" y="27.7" class="st9" width="2.8" height="2.1"/>
		</g>
		<line class="st7" x1="19.5" y1="27.5" x2="21" y2="27.5"/>
		<line class="st7" x1="19.5" y1="30.3" x2="21" y2="30.3"/>
	</g>
	<circle class="st15" cx="39.3" cy="22.1" r="0.5"/>
	<circle class="st15" cx="26" cy="26.4" r="0.5"/>
	<circle class="st15" cx="8" cy="26.8" r="0.5"/>
	<circle class="st15" cx="54.4" cy="26.8" r="0.5"/>
</g>
</svg>
