<?xml version="1.0" encoding="utf-8"?>
<!-- Generator: Adobe Illustrator 23.0.1, SVG Export Plug-In . SVG Version: 6.00 Build 0)  -->
<svg version="1.1" id="Layer_1" xmlns="http://www.w3.org/2000/svg" xmlns:xlink="http://www.w3.org/1999/xlink" x="0px" y="0px"
	 viewBox="0 0 39.7 122.2" style="enable-background:new 0 0 39.7 122.2;" xml:space="preserve">
<style type="text/css">
	.st0{fill:#1D2856;}
	.st1{fill:#FFFFFF;}
	.st2{fill:#BE9349;}
	.st3{fill:#E5E5EC;}
	.st4{fill:#4677BA;}
	.st5{fill:#2E5F9C;}
	.st6{fill:#BDBFCB;}
	.st7{fill:#58585B;}
	.st8{fill:#29292B;}
	.st9{fill:#ADADAD;}
	.st10{fill:#FDC26B;}
	.st11{fill:#35215B;}
	.st12{fill:#1F1239;}
	.st13{fill:#EDECEE;}
	.st14{opacity:0.3;}
	.st15{fill:#3F4040;}
	.st16{fill:#302F2F;}
	.st17{fill:#1D1D1D;}
	.st18{fill:#C0944C;}
	.st19{fill:#FFD39B;}
	.st20{enable-background:new    ;}
</style>
<path class="st0" d="M0,20.8v91.7h39.7V20.8H0z M20.2,94.5c-2.5,0-4.6-2-4.6-4.6s2-4.6,4.6-4.6s4.6,2,4.6,4.6S22.7,94.5,20.2,94.5z"
	/>
<g>
	<path class="st1" d="M12.9,29.3v-7.4h15v7.4H12.9z M13.2,22.2V29h14.4v-6.8H13.2z"/>
</g>
<g>
	<g>
		<path class="st1" d="M29.9,39v-3.5c0-1.9,1.6-3.5,3.5-3.5s3.5,1.6,3.5,3.5V39h-0.3v-3.5c0-1.7-1.4-3.1-3.1-3.1s-3.1,1.4-3.1,3.1
			V39H29.9z"/>
	</g>
	<g>
		<path class="st1" d="M29.9,44.3v-3.5h0.3v3.5c0,1.7,1.4,3.1,3.1,3.1s3.1-1.4,3.1-3.1v-3.5h0.3v3.5c0,1.9-1.6,3.5-3.5,3.5
			S29.9,46.3,29.9,44.3z"/>
	</g>
</g>
<g>
	<g>
		<path class="st1" d="M21.2,39v-3.5c0-1.9,1.6-3.5,3.5-3.5s3.5,1.6,3.5,3.5V39h-0.3v-3.5c0-1.7-1.4-3.1-3.1-3.1s-3.1,1.4-3.1,3.1
			V39H21.2z"/>
	</g>
	<g>
		<path class="st1" d="M21.2,44.3v-3.5h0.3v3.5c0,1.7,1.4,3.1,3.1,3.1s3.1-1.4,3.1-3.1v-3.5H28v3.5c0,1.9-1.6,3.5-3.5,3.5
			S21.2,46.3,21.2,44.3z"/>
	</g>
</g>
<g>
	<g>
		<polygon class="st1" points="12.9,39 12.9,32 19.8,32 19.8,39 19.5,39 19.5,32.3 13.2,32.3 13.2,39 		"/>
	</g>
	<g>
		<polygon class="st1" points="12.9,47.8 12.9,40.8 13.2,40.8 13.2,47.5 19.5,47.5 19.5,40.8 19.8,40.8 19.8,47.8 		"/>
	</g>
</g>
<g>
	<g>
		<polygon class="st1" points="10.5,81.3 10.5,81 16.4,81 16.4,74.7 10.5,74.7 10.5,74.3 16.7,74.3 16.7,81.3 		"/>
	</g>
	<g>
		<polygon class="st1" points="2.7,81.3 2.7,74.3 8.9,74.3 8.9,74.7 3.1,74.7 3.1,81 8.9,81 8.9,81.3 		"/>
	</g>
</g>
<g>
	<g>
		<polygon class="st1" points="32.3,81.3 32.3,81 38.1,81 38.1,74.7 32.3,74.7 32.3,74.3 38.4,74.3 38.4,81.3 		"/>
	</g>
	<g>
		<polygon class="st1" points="24.5,81.3 24.5,74.3 30.6,74.3 30.6,74.7 24.8,74.7 24.8,81 30.6,81 30.6,81.3 		"/>
	</g>
</g>
<g>
	<g>
		<polygon class="st1" points="4.5,39 4.5,32 11.5,32 11.5,39 11.2,39 11.2,32.3 4.9,32.3 4.9,39 		"/>
	</g>
	<g>
		<polygon class="st1" points="4.5,47.8 4.5,40.8 4.9,40.8 4.9,47.5 11.2,47.5 11.2,40.8 11.5,40.8 11.5,47.8 		"/>
	</g>
</g>
<g>
	<path class="st1" d="M30.3,24.4v2.1h-0.5v-2.1H30.3z M29,25.2h2.1v0.5H29V25.2z"/>
</g>
<g>
	<path class="st1" d="M9.2,25.2h1.7v0.5H9.2V25.2z"/>
</g>
<g>
	<path class="st1" d="M18.8,72.1V50.2h20.8v21.9H18.8z M19.1,50.5v21.3h20.2V50.5H19.1z"/>
</g>
<g>
	<g>
		<rect x="13.3" y="50.9" class="st2" width="3" height="3.7"/>
	</g>
	<g>
		<rect x="13.7" y="51.2" class="st3" width="2.2" height="3.1"/>
	</g>
</g>
<g>
	<g>
		<rect x="9.8" y="50.9" class="st2" width="3" height="3.7"/>
	</g>
	<g>
		<rect x="10.2" y="51.2" class="st3" width="2.2" height="3.1"/>
	</g>
</g>
<g>
	<g>
		<rect x="6.4" y="50.9" class="st2" width="3" height="3.7"/>
	</g>
	<g>
		<rect x="6.7" y="51.2" class="st3" width="2.2" height="3.1"/>
	</g>
</g>
<g>
	<g>
		<rect x="2.8" y="50.9" class="st2" width="3" height="3.7"/>
	</g>
	<g>
		<rect x="3.2" y="51.2" class="st3" width="2.2" height="3.1"/>
	</g>
</g>
<g>
	<g>
		<rect x="13.3" y="65.9" class="st2" width="3" height="3.7"/>
	</g>
	<g>
		<rect x="13.7" y="66.2" class="st3" width="2.2" height="3.1"/>
	</g>
</g>
<g>
	<g>
		<rect x="9.8" y="65.9" class="st2" width="3" height="3.7"/>
	</g>
	<g>
		<rect x="10.2" y="66.2" class="st3" width="2.2" height="3.1"/>
	</g>
</g>
<g>
	<g>
		<rect x="6.4" y="65.9" class="st2" width="3" height="3.7"/>
	</g>
	<g>
		<rect x="6.7" y="66.2" class="st3" width="2.2" height="3.1"/>
	</g>
</g>
<g>
	<g>
		<rect x="2.8" y="65.9" class="st2" width="3" height="3.7"/>
	</g>
	<g>
		<rect x="3.2" y="66.2" class="st3" width="2.2" height="3.1"/>
	</g>
</g>
<g>
	<path class="st4" d="M19.3,68.1V54c0-1.6,1.3-2.8,2.8-2.8h14.2c1.6,0,2.8,1.3,2.8,2.8v14.2c0,1.6-1.3,2.8-2.8,2.8H22.1
		C20.6,71,19.3,69.7,19.3,68.1z"/>
</g>
<g>
	<circle class="st5" cx="29.2" cy="61" r="5.4"/>
</g>
<g>
	<g>
		<path class="st6" d="M33.6,59.7c-0.4-1.5-1.6-2.6-3.1-3.1v3.1H33.6z"/>
	</g>
	<g>
		<path class="st6" d="M24.8,62.4c0.4,1.5,1.6,2.6,3.1,3.1v-3.1H24.8z"/>
	</g>
	<g>
		<path class="st6" d="M27.9,56.7c-1.5,0.4-2.6,1.6-3.1,3.1h3.1V56.7z"/>
	</g>
	<g>
		<path class="st6" d="M30.5,65.4c1.5-0.4,2.6-1.6,3.1-3.1h-3.1C30.5,62.3,30.5,65.4,30.5,65.4z"/>
	</g>
	<g>
		<path class="st7" d="M30.5,65.4v-3.1h3.1c0.1-0.4,0.2-0.9,0.2-1.3c0-0.5-0.1-0.9-0.2-1.3h-3.1v-3.1c-0.4-0.1-0.9-0.2-1.3-0.2
			c-0.5,0-0.9,0.1-1.3,0.2v3.1h-3.1c-0.1,0.4-0.2,0.9-0.2,1.3c0,0.5,0.1,0.9,0.2,1.3h3.1v3.1c0.4,0.1,0.9,0.2,1.3,0.2
			C29.7,65.6,30.1,65.6,30.5,65.4z"/>
	</g>
</g>
<g id="_x3C_Group_x3E__Capacitor_74_">
	<g>
		<rect x="13.9" y="34.6" class="st1" width="4.9" height="2.4"/>
	</g>
	<g>
		<rect x="13.9" y="42.7" class="st1" width="4.9" height="2.4"/>
	</g>
	<g>
		<rect x="13.9" y="37" class="st8" width="4.9" height="5.6"/>
	</g>
</g>
<g id="_x3C_Group_x3E__Capacitor_3_">
	<g>
		<rect x="5.6" y="34.6" class="st1" width="4.9" height="2.4"/>
	</g>
	<g>
		<rect x="5.6" y="42.6" class="st1" width="4.9" height="2.4"/>
	</g>
	<g>
		<rect x="5.6" y="37.1" class="st8" width="4.9" height="5.6"/>
	</g>
</g>
<g id="_x3C_Group_x3E__Capacitor_4_">
	<g>
		<rect x="34.3" y="75.4" class="st1" width="2.4" height="4.9"/>
	</g>
	<g>
		<rect x="26.3" y="75.4" class="st1" width="2.4" height="4.9"/>
	</g>
	<g>
		<rect x="28.7" y="75.4" class="st8" width="5.6" height="4.9"/>
	</g>
</g>
<g id="_x3C_Group_x3E__Capacitor_5_">
	<g>
		<rect x="12.4" y="75.4" class="st1" width="2.4" height="4.9"/>
	</g>
	<g>
		<rect x="4.3" y="75.4" class="st1" width="2.4" height="4.9"/>
	</g>
	<g>
		<rect x="6.8" y="75.4" class="st8" width="5.6" height="4.9"/>
	</g>
</g>
<g>
	<g>
		<g>
			<path class="st1" d="M2.8,88.7v-3c0-1.7,1.4-3,3-3c1.7,0,3,1.4,3,3v3H8.5v-3c0-1.5-1.2-2.7-2.7-2.7S3,84.1,3,85.6v3L2.8,88.7
				L2.8,88.7z"/>
		</g>
		<g>
			<polygon class="st1" points="2.8,96.3 2.8,90.3 3,90.3 3,96.1 8.5,96.1 8.5,90.3 8.8,90.3 8.8,96.3 			"/>
		</g>
	</g>
	<g id="_x3C_Group_x3E__Capacitor_6_">
		<g>
			<rect x="3.6" y="92.1" class="st1" width="4.3" height="2.1"/>
		</g>
		<g>
			<rect x="3.6" y="85.1" class="st1" width="4.3" height="2.1"/>
		</g>
		<g>
			<rect x="3.6" y="87.2" class="st9" width="4.3" height="4.9"/>
		</g>
	</g>
</g>
<g>
	<g>
		<g>
			<path class="st1" d="M32.6,88.7v-3c0-1.7,1.4-3,3-3c1.7,0,3,1.4,3,3v3h-0.3v-3c0-1.5-1.2-2.7-2.7-2.7s-2.7,1.2-2.7,2.7v3H32.6z"
				/>
		</g>
		<g>
			<polygon class="st1" points="32.6,96.3 32.6,90.3 32.9,90.3 32.9,96.1 38.4,96.1 38.4,90.3 38.7,90.3 38.7,96.3 			"/>
		</g>
	</g>
	<g id="_x3C_Group_x3E__Capacitor_7_">
		<g>
			<rect x="33.5" y="92.1" class="st1" width="4.3" height="2.1"/>
		</g>
		<g>
			<rect x="33.5" y="85.1" class="st1" width="4.3" height="2.1"/>
		</g>
		<g>
			<rect x="33.5" y="87.2" class="st9" width="4.3" height="4.9"/>
		</g>
	</g>
</g>
<g id="_x3C_Group_x3E__Capacitor_1_">
	<g>
		<rect x="22.4" y="34.6" class="st1" width="4.9" height="2.4"/>
	</g>
	<g>
		<rect x="22.4" y="42.6" class="st1" width="4.9" height="2.4"/>
	</g>
	<g>
		<rect x="22.4" y="37" class="st10" width="4.9" height="5.6"/>
	</g>
</g>
<g id="_x3C_Group_x3E__Capacitor_2_">
	<g>
		<rect x="31.2" y="34.7" class="st1" width="4.9" height="2.4"/>
	</g>
	<g>
		<rect x="31.2" y="42.7" class="st1" width="4.9" height="2.4"/>
	</g>
	<g>
		<rect x="31.2" y="37.1" class="st10" width="4.9" height="5.6"/>
	</g>
</g>
<g>
	<g>
		<rect x="13.5" y="14.1" class="st11" width="13.9" height="2.5"/>
	</g>
	<g>
		<path class="st12" d="M14.2,1.8v12.3h12.6V1.8C26.8,0.8,26,0,25,0h-9C15,0,14.2,0.8,14.2,1.8z"/>
	</g>
	<g>
		<rect x="23.4" y="16.6" class="st13" width="1.2" height="8.5"/>
	</g>
	<g>
		<rect x="16.3" y="16.6" class="st13" width="1.2" height="8.5"/>
	</g>
</g>
<g class="st14">
	<circle class="st1" cx="20.2" cy="89.9" r="6.6"/>
</g>
<g>
	<g>
		<g>
			<g>
				<rect x="13.8" y="52.4" class="st1" width="1.9" height="4.5"/>
			</g>
			<g>
				<rect x="10.3" y="52.4" class="st1" width="1.9" height="4.5"/>
			</g>
			<g>
				<rect x="6.9" y="52.4" class="st1" width="1.9" height="4.5"/>
			</g>
			<g>
				<rect x="3.4" y="52.4" class="st1" width="1.9" height="4.5"/>
			</g>
		</g>
		<g>
			<g>
				<rect x="13.8" y="63.3" class="st1" width="1.9" height="4.5"/>
			</g>
			<g>
				<rect x="10.3" y="63.3" class="st1" width="1.9" height="4.5"/>
			</g>
			<g>
				<rect x="6.9" y="63.3" class="st1" width="1.9" height="4.5"/>
			</g>
			<g>
				<rect x="3.4" y="63.3" class="st1" width="1.9" height="4.5"/>
			</g>
		</g>
	</g>
	<g>
		<g>
			<rect x="2.4" y="54.6" class="st8" width="14.8" height="10.9"/>
		</g>
		<g>
			<rect x="2.8" y="55" class="st15" width="14.1" height="10.1"/>
		</g>
	</g>
</g>
<g>
	<rect x="22.1" y="100.4" class="st1" width="2.4" height="0.3"/>
</g>
<g>
	<rect x="22.7" y="99.3" class="st1" width="1.2" height="0.3"/>
</g>
<g>
	<path class="st1" d="M5,111.7v-8.2h29.6v8.2H5z M5.4,103.8v7.6h28.8v-7.6H5.4z"/>
</g>
<g>
	<rect x="23.1" y="101.7" class="st1" width="0.3" height="2"/>
</g>
<g>
	<rect x="21.5" y="101.5" class="st1" width="3.6" height="0.3"/>
</g>
<g>
	<g>
		<path class="st16" d="M13.8,104.3h5c0.4,0.4,0.6,0.6,1,1v5c-0.4,0.4-0.6,0.6-1,1h-5c-0.4-0.4-0.6-0.6-1-1v-5
			C13.2,104.9,13.5,104.7,13.8,104.3z"/>
		<path class="st17" d="M12.4,110.5v-5.3l1.3-1.3H19l1.3,1.3v5.3l-1.3,1.3h-5.3L12.4,110.5z M13.3,105.6v4.5l0.8,0.8h4.5l0.8-0.8
			v-4.5l-0.8-0.8h-4.5L13.3,105.6z"/>
	</g>
</g>
<g>
	<g>
		<path class="st16" d="M6.8,104.3h5c0.4,0.4,0.6,0.6,1,1v5c-0.4,0.4-0.6,0.6-1,1h-5c-0.4-0.4-0.6-0.6-1-1v-5
			C6.2,104.9,6.4,104.7,6.8,104.3z"/>
		<path class="st17" d="M5.4,110.5v-5.3l1.3-1.3H12l1.3,1.3v5.3l-1.3,1.3H6.7L5.4,110.5z M6.3,105.6v4.5l0.8,0.8h4.5l0.8-0.8v-4.5
			l-0.8-0.8H7.1L6.3,105.6z"/>
	</g>
</g>
<g>
	<g>
		<rect x="8.4" y="107" class="st18" width="1.7" height="14.5"/>
	</g>
	<g>
		<rect x="8.5" y="107" class="st10" width="1.4" height="14.5"/>
	</g>
	<g>
		<polygon class="st10" points="9.7,122.2 10.1,121.5 8.4,121.5 8.7,122.2 		"/>
	</g>
	<g>
		<polygon class="st19" points="9.7,122.2 9.9,121.5 8.6,121.5 8.7,122.2 		"/>
	</g>
</g>
<g>
	<g>
		<rect x="15.4" y="107" class="st18" width="1.7" height="14.5"/>
	</g>
	<g>
		<rect x="15.5" y="107" class="st10" width="1.4" height="14.5"/>
	</g>
	<g>
		<polygon class="st10" points="16.7,122.2 17.1,121.5 15.4,121.5 15.7,122.2 		"/>
	</g>
	<g>
		<polygon class="st19" points="16.7,122.2 16.9,121.5 15.6,121.5 15.7,122.2 		"/>
	</g>
</g>
<g>
	<g>
		<path class="st16" d="M20.8,104.3h5c0.4,0.4,0.6,0.6,1,1v5c-0.4,0.4-0.6,0.6-1,1h-5c-0.4-0.4-0.6-0.6-1-1v-5
			C20.2,104.9,20.4,104.7,20.8,104.3z"/>
		<path class="st17" d="M19.4,110.5v-5.3l1.3-1.3H26l1.3,1.3v5.3l-1.3,1.3h-5.3L19.4,110.5z M20.3,105.6v4.5l0.8,0.8h4.5l0.8-0.8
			v-4.5l-0.8-0.8h-4.5L20.3,105.6z"/>
	</g>
</g>
<g>
	<g>
		<rect x="22.5" y="106.9" class="st18" width="1.7" height="14.5"/>
	</g>
	<g>
		<rect x="22.6" y="106.9" class="st10" width="1.4" height="14.5"/>
	</g>
	<g>
		<polygon class="st10" points="23.8,122.2 24.2,121.5 22.5,121.5 22.8,122.2 		"/>
	</g>
	<g>
		<polygon class="st19" points="23.8,122.2 24,121.5 22.6,121.5 22.8,122.2 		"/>
	</g>
</g>
<g>
	<g>
		<path class="st16" d="M27.8,104.3h5c0.4,0.4,0.6,0.6,1,1v5c-0.4,0.4-0.6,0.6-1,1h-5c-0.4-0.4-0.6-0.6-1-1v-5
			C27.2,104.9,27.4,104.7,27.8,104.3z"/>
		<path class="st17" d="M26.3,110.5v-5.3l1.3-1.3h5.3l1.3,1.3v5.3l-1.3,1.3h-5.3L26.3,110.5z M27.3,105.6v4.5l0.8,0.8h4.5l0.8-0.8
			v-4.5l-0.8-0.8h-4.5L27.3,105.6z"/>
	</g>
</g>
<g>
	<g>
		<rect x="29.5" y="106.9" class="st18" width="1.7" height="14.5"/>
	</g>
	<g>
		<rect x="29.6" y="106.9" class="st10" width="1.4" height="14.5"/>
	</g>
	<g>
		<polygon class="st10" points="30.8,122.2 31.1,121.5 29.5,121.5 29.8,122.2 		"/>
	</g>
	<g>
		<polygon class="st19" points="30.8,122.2 31,121.5 29.6,121.5 29.8,122.2 		"/>
	</g>
</g>
<g>
	<g class="st20">
		<path class="st1" d="M28.8,95.9l3.4-1.1v0.5l-2.7,0.8l2.7,0.8v0.5l-3.4-1.1C28.8,96.3,28.8,95.9,28.8,95.9z"/>
		<path class="st1" d="M28.7,99c0-0.2,0.1-0.4,0.2-0.6s0.3-0.3,0.4-0.4c0.2-0.1,0.4-0.1,0.7-0.1h0.9c0.3,0,0.5,0,0.7,0.1
			s0.3,0.2,0.4,0.4c0.1,0.2,0.2,0.4,0.2,0.6s0,0.4-0.1,0.5c-0.1,0.2-0.2,0.3-0.4,0.4s-0.3,0.2-0.5,0.2v-0.5c0.1,0,0.2-0.1,0.3-0.1
			c0.1-0.1,0.1-0.2,0.2-0.2c0-0.1,0.1-0.2,0.1-0.3c0-0.2-0.1-0.4-0.2-0.5s-0.3-0.2-0.6-0.2h-1c-0.2,0-0.4,0.1-0.6,0.2
			c-0.1,0.1-0.2,0.3-0.2,0.5c0,0.1,0,0.3,0.1,0.4s0.2,0.2,0.4,0.3v0.5c-0.2,0-0.4-0.1-0.5-0.2s-0.3-0.2-0.3-0.4S28.7,99.2,28.7,99z"
			/>
		<path class="st1" d="M28.7,102c0-0.2,0.1-0.4,0.2-0.6s0.3-0.3,0.4-0.4c0.2-0.1,0.4-0.1,0.7-0.1h0.9c0.3,0,0.5,0,0.7,0.1
			s0.3,0.2,0.4,0.4s0.2,0.4,0.2,0.6s0,0.4-0.1,0.5c-0.1,0.2-0.2,0.3-0.4,0.4s-0.3,0.2-0.5,0.2v-0.5c0.1,0,0.2-0.1,0.3-0.1
			c0.1-0.1,0.1-0.2,0.2-0.2s0.1-0.2,0.1-0.3c0-0.2-0.1-0.4-0.2-0.5s-0.3-0.2-0.6-0.2h-1c-0.2,0-0.4,0.1-0.6,0.2
			c-0.1,0.1-0.2,0.3-0.2,0.5c0,0.1,0,0.3,0.1,0.4s0.2,0.2,0.4,0.3v0.5c-0.2,0-0.4-0.1-0.5-0.2s-0.3-0.2-0.3-0.4S28.7,102.1,28.7,102
			z"/>
	</g>
</g>
<g>
	<g class="st20">
		<path class="st1" d="M14.8,97.5h3.4V98h-3.4C14.8,98,14.8,97.5,14.8,97.5z M14.8,97.8h0.5v0.8c0,0.2,0.1,0.4,0.2,0.6
			c0.1,0.1,0.3,0.2,0.5,0.2h1c0.2,0,0.4-0.1,0.5-0.2s0.2-0.3,0.2-0.6v-0.8h0.5v0.8c0,0.4-0.1,0.7-0.3,1c-0.2,0.2-0.5,0.3-0.9,0.3h-1
			c-0.4,0-0.7-0.1-0.9-0.3c-0.2-0.2-0.3-0.5-0.3-1C14.8,98.6,14.8,97.8,14.8,97.8z"/>
		<path class="st1" d="M14.8,101.7c0-0.2,0.1-0.4,0.2-0.6c0.1-0.2,0.2-0.3,0.4-0.4s0.4-0.1,0.7-0.1h1c0.2,0,0.5,0,0.7,0.1
			s0.3,0.2,0.4,0.4c0.1,0.2,0.2,0.4,0.2,0.6s-0.1,0.4-0.2,0.6s-0.2,0.3-0.4,0.4s-0.4,0.1-0.7,0.1h-1c-0.2,0-0.5,0-0.7-0.1
			s-0.3-0.2-0.4-0.4C14.8,102.2,14.8,102,14.8,101.7z M15.2,101.7c0,0.2,0.1,0.4,0.2,0.5s0.3,0.2,0.6,0.2h1c0.2,0,0.4-0.1,0.6-0.2
			s0.2-0.3,0.2-0.5s-0.1-0.4-0.2-0.5S17.2,101,17,101h-1c-0.2,0-0.4,0.1-0.6,0.2S15.2,101.5,15.2,101.7z"/>
	</g>
</g>
<g>
	<g class="st20">
		<path class="st1" d="M7.7,97.3l3.4,1.2v0.4l-3.4,1.2v-0.5l2.7-0.9l-2.7-0.9C7.7,97.8,7.7,97.3,7.7,97.3z M8.4,97.9h0.5v1.8H8.4
			V97.9z"/>
		<path class="st1" d="M7.7,101.8c0-0.2,0.1-0.4,0.2-0.6s0.2-0.3,0.4-0.4s0.4-0.1,0.7-0.1h1c0.2,0,0.5,0,0.7,0.1s0.3,0.2,0.4,0.4
			c0.1,0.2,0.2,0.4,0.2,0.6s-0.1,0.4-0.2,0.6c-0.1,0.2-0.2,0.3-0.4,0.4s-0.4,0.1-0.7,0.1H9c-0.2,0-0.5,0-0.7-0.1s-0.3-0.2-0.4-0.4
			C7.7,102.3,7.7,102.1,7.7,101.8z M8.1,101.8c0,0.2,0.1,0.4,0.2,0.5s0.3,0.2,0.6,0.2h1c0.2,0,0.4-0.1,0.6-0.2s0.2-0.3,0.2-0.5
			s-0.1-0.4-0.2-0.5s-0.3-0.2-0.6-0.2h-1c-0.2,0-0.4,0.1-0.6,0.2S8.1,101.6,8.1,101.8z"/>
	</g>
</g>
</svg>
