<?xml version="1.0" encoding="utf-8"?>
<!-- Generator: Adobe Illustrator 23.0.1, SVG Export Plug-In . SVG Version: 6.00 Build 0)  -->
<svg version="1.1" id="Layer_1" xmlns="http://www.w3.org/2000/svg" xmlns:xlink="http://www.w3.org/1999/xlink" x="0px" y="0px"
	 viewBox="0 0 127.6 65.7" style="enable-background:new 0 0 127.6 65.7;" xml:space="preserve">
<style type="text/css">
	.st0{fill:#1D2856;}
	.st1{enable-background:new    ;}
	.st2{fill:#FFFFFF;}
	.st3{fill:#BE9349;}
	.st4{fill:#E5E5EC;}
	.st5{fill:#C0944C;}
	.st6{fill:#FDC26B;}
	.st7{fill:#FFD39B;}
	.st8{fill:#3F4040;}
	.st9{opacity:0.8;}
	.st10{clip-path:url(#SVGID_2_);}
	.st11{fill:none;stroke:#231F20;stroke-width:0.5;stroke-miterlimit:10;}
	.st12{clip-path:url(#SVGID_4_);}
</style>
<g>
	<path class="st0" d="M0,0v57.2h127.6V0H0z M4,56c-1.6,0-3-1.3-3-3c0-1.6,1.3-3,3-3s3,1.3,3,3S5.6,56,4,56z M4,7C2.3,7,1,5.7,1,4
		c0-1.6,1.3-3,3-3s3,1.3,3,3S5.6,7,4,7z M123.2,56c-1.6,0-3-1.3-3-3c0-1.6,1.3-3,3-3c1.6,0,3,1.3,3,3S124.9,56,123.2,56z M123.2,7
		c-1.6,0-3-1.3-3-3c0-1.6,1.3-3,3-3c1.6,0,3,1.3,3,3S124.9,7,123.2,7z"/>
</g>
<g>
	<g class="st1">
		<path class="st2" d="M51.8,21.7V17h0.7v4.7H51.8z M52.3,19.7v-0.6h2.6v0.6H52.3z M54.5,21.7V17h0.7v4.7H54.5z"/>
		<path class="st2" d="M57.8,21.7c-0.3,0-0.6-0.1-0.9-0.2c-0.2-0.1-0.4-0.3-0.6-0.6s-0.2-0.6-0.2-0.9v-1.3c0-0.4,0.1-0.7,0.2-0.9
			c0.1-0.3,0.3-0.5,0.6-0.6c0.2-0.1,0.5-0.2,0.9-0.2c0.3,0,0.5,0.1,0.7,0.2s0.4,0.3,0.6,0.5c0.2,0.2,0.3,0.5,0.3,0.7h-0.7
			c0-0.2-0.1-0.3-0.2-0.4c-0.1-0.1-0.2-0.2-0.3-0.3c-0.1-0.1-0.3-0.1-0.4-0.1c-0.3,0-0.5,0.1-0.7,0.3c-0.2,0.2-0.3,0.5-0.3,0.8V20
			c0,0.3,0.1,0.6,0.3,0.8c0.2,0.2,0.4,0.3,0.7,0.3c0.2,0,0.4-0.1,0.6-0.2s0.3-0.3,0.4-0.5h0.7c-0.1,0.3-0.2,0.5-0.3,0.7
			s-0.3,0.4-0.6,0.5C58.4,21.7,58.1,21.7,57.8,21.7z"/>
		<path class="st2" d="M60.3,19.7h2.2v0.6h-2.2V19.7z"/>
		<path class="st2" d="M65,21.7c-0.3,0-0.6,0-0.9-0.1c-0.3-0.1-0.5-0.2-0.8-0.4l0.4-0.5c0.2,0.2,0.4,0.3,0.6,0.3
			c0.2,0.1,0.4,0.1,0.7,0.1c0.3,0,0.6-0.1,0.8-0.2c0.2-0.1,0.3-0.3,0.3-0.5v0c0-0.2,0-0.3-0.1-0.4c-0.1-0.1-0.2-0.2-0.4-0.2
			s-0.3-0.1-0.5-0.1c-0.2,0-0.4-0.1-0.5-0.1c-0.2,0-0.3-0.1-0.5-0.2c-0.2-0.1-0.3-0.2-0.4-0.4c-0.1-0.2-0.1-0.4-0.1-0.7v0
			c0-0.4,0.1-0.8,0.4-1c0.3-0.2,0.7-0.4,1.2-0.4c0.3,0,0.5,0,0.7,0.1c0.2,0.1,0.5,0.2,0.7,0.4L66.2,18c-0.4-0.3-0.7-0.4-1.1-0.4
			c-0.3,0-0.6,0.1-0.7,0.2c-0.2,0.1-0.3,0.3-0.3,0.5v0c0,0.2,0.1,0.3,0.2,0.4c0.1,0.1,0.2,0.2,0.4,0.2c0.2,0,0.3,0.1,0.5,0.1
			c0.2,0,0.3,0.1,0.5,0.1c0.2,0,0.3,0.1,0.5,0.2s0.3,0.2,0.3,0.4c0.1,0.2,0.1,0.4,0.1,0.6v0c0,0.4-0.2,0.8-0.5,1
			C65.9,21.6,65.5,21.7,65,21.7z"/>
		<path class="st2" d="M67.6,21.7V17h0.7v4.7H67.6z M67.9,19.7v-0.6h1.7c0.2,0,0.3-0.1,0.4-0.2c0.1-0.1,0.1-0.3,0.1-0.5
			c0-0.2,0-0.4-0.1-0.5c-0.1-0.1-0.2-0.2-0.4-0.2h-1.7V17h1.7c0.2,0,0.5,0.1,0.6,0.2s0.3,0.3,0.4,0.5c0.1,0.2,0.2,0.4,0.2,0.7
			c0,0.3-0.1,0.5-0.2,0.7c-0.1,0.2-0.2,0.4-0.4,0.5c-0.2,0.1-0.4,0.2-0.6,0.2H67.9z M70.2,21.7l-1.1-2.1l0.7-0.1l1.2,2.3H70.2z"/>
		<path class="st2" d="M73.4,21.7c-0.3,0-0.6-0.1-0.9-0.2c-0.2-0.1-0.4-0.3-0.6-0.6c-0.1-0.3-0.2-0.6-0.2-0.9v-1.3
			c0-0.3,0.1-0.6,0.2-0.9c0.1-0.3,0.3-0.5,0.6-0.6c0.2-0.1,0.5-0.2,0.9-0.2s0.6,0.1,0.9,0.2c0.2,0.1,0.4,0.3,0.6,0.6
			C75,18,75,18.3,75,18.7V20c0,0.3-0.1,0.6-0.2,0.9c-0.1,0.3-0.3,0.5-0.6,0.6C74,21.6,73.7,21.7,73.4,21.7z M73.4,21.1
			c0.3,0,0.5-0.1,0.7-0.3s0.3-0.4,0.3-0.8v-1.4c0-0.3-0.1-0.6-0.3-0.8c-0.2-0.2-0.4-0.3-0.7-0.3s-0.5,0.1-0.7,0.3
			c-0.2,0.2-0.3,0.4-0.3,0.8V20c0,0.3,0.1,0.6,0.3,0.8S73.1,21.1,73.4,21.1z"/>
		<path class="st2" d="M75.9,20.9v-0.6l1.6-3.4h0.7l-1.5,3.3h2.3v0.6H75.9z M78,21.7v-2.8h0.6v2.8H78z"/>
	</g>
</g>
<g>
	<g class="st1">
		<path class="st2" d="M116.4,55.2v-6.1h0.9v6.1H116.4z M116.7,52.7v-0.8h2.3c0.2,0,0.4-0.1,0.5-0.3c0.1-0.2,0.2-0.4,0.2-0.7
			s-0.1-0.5-0.2-0.7c-0.1-0.2-0.3-0.3-0.5-0.3h-2.3v-0.8h2.2c0.3,0,0.6,0.1,0.8,0.2s0.4,0.4,0.6,0.6s0.2,0.6,0.2,0.9
			s-0.1,0.7-0.2,0.9s-0.3,0.5-0.6,0.6s-0.5,0.2-0.8,0.2H116.7z M119.8,55.2l-1.4-2.8l0.9-0.2l1.6,3H119.8z"/>
	</g>
</g>
<g>
	<g class="st1">
		<path class="st2" d="M9,49.9v-0.8h4.3v0.8H9z M10.7,55.2v-5.6h0.9v5.6H10.7z"/>
	</g>
</g>
<g>
	<g class="st1">
		<path class="st2" d="M54.5,47.2l-3.4,1.1v-0.5l2.7-0.8l-2.7-0.8v-0.5l3.4,1.1V47.2z"/>
		<path class="st2" d="M54.6,44.2c0,0.3-0.1,0.6-0.3,0.8c-0.2,0.2-0.4,0.3-0.8,0.3h-0.4c-0.3,0-0.6-0.1-0.8-0.3
			c-0.2-0.2-0.3-0.4-0.3-0.8c0-0.2,0-0.4,0.1-0.5c0.1-0.2,0.2-0.3,0.3-0.4l0.3,0.3c-0.2,0.1-0.2,0.3-0.2,0.5c0,0.2,0.1,0.3,0.2,0.4
			c0.1,0.1,0.2,0.2,0.4,0.2h0.4c0.2,0,0.4-0.1,0.5-0.2c0.1-0.1,0.2-0.2,0.2-0.4c0-0.2-0.1-0.4-0.3-0.5l0.3-0.3
			c0.1,0.1,0.2,0.2,0.3,0.4C54.6,43.9,54.6,44.1,54.6,44.2z"/>
		<path class="st2" d="M54.6,41.9c0,0.3-0.1,0.6-0.3,0.8c-0.2,0.2-0.4,0.3-0.8,0.3h-0.4c-0.3,0-0.6-0.1-0.8-0.3
			c-0.2-0.2-0.3-0.4-0.3-0.8c0-0.2,0-0.4,0.1-0.5s0.2-0.3,0.3-0.4l0.3,0.3c-0.2,0.1-0.2,0.3-0.2,0.5c0,0.2,0.1,0.3,0.2,0.4
			c0.1,0.1,0.2,0.2,0.4,0.2h0.4c0.2,0,0.4-0.1,0.5-0.2c0.1-0.1,0.2-0.2,0.2-0.4c0-0.2-0.1-0.4-0.3-0.5l0.3-0.3
			c0.1,0.1,0.2,0.2,0.3,0.4C54.6,41.6,54.6,41.7,54.6,41.9z"/>
	</g>
</g>
<g>
	<path class="st3" d="M52.8,55.3L52.8,55.3c-1.3,0-2.3-1-2.3-2.3v-1.3c0-1.3,1-2.3,2.3-2.3l0,0c1.3,0,2.3,1,2.3,2.3V53
		C55.1,54.3,54.1,55.3,52.8,55.3z"/>
	<path class="st4" d="M52.8,54.6L52.8,54.6c-1,0-1.7-0.8-1.7-1.7v-1c0-1,0.8-1.7,1.7-1.7l0,0c1,0,1.7,0.8,1.7,1.7v1
		C54.6,53.8,53.8,54.6,52.8,54.6z"/>
	<g>
		<rect x="52.2" y="51.7" class="st5" width="1.3" height="1.3"/>
		<polygon class="st6" points="52.8,52.4 53.5,53 53.5,51.7 		"/>
		<polygon class="st7" points="52.2,53 52.8,52.4 53.5,53 		"/>
		<polygon class="st6" points="52.2,51.7 52.8,52.4 52.2,53 		"/>
	</g>
</g>
<g>
	<rect x="52.2" y="57.1" class="st5" width="1.4" height="8"/>
	<rect x="52.3" y="57.1" class="st6" width="1.1" height="8"/>
	<polygon class="st6" points="53.3,65.7 53.5,65.2 52.1,65.2 52.4,65.7 	"/>
	<polygon class="st7" points="53.3,65.7 53.4,65.2 52.3,65.2 52.4,65.7 	"/>
</g>
<g>
	<g class="st1">
		<path class="st2" d="M58.7,48.4h-0.5V46h0.5V48.4z M61.6,47.5h-3.1V47h3.1V47.5z"/>
		<path class="st2" d="M59.8,44.4c-0.1,0.1-0.2,0.2-0.2,0.4c0,0.2,0,0.3,0.1,0.4s0.2,0.1,0.3,0.1l-0.5,0c-0.1-0.1-0.3-0.2-0.3-0.3
			c-0.1-0.1-0.1-0.2-0.1-0.4c0-0.2,0.1-0.4,0.2-0.5L59.8,44.4z M61.6,45.7h-2.4v-0.5h2.4V45.7z"/>
		<path class="st2" d="M58.7,43.7h-0.5v-0.5h0.5V43.7z M61.6,43.7h-2.4v-0.5h2.4V43.7z"/>
		<path class="st2" d="M61.7,41.7c0,0.3-0.1,0.5-0.3,0.6c-0.2,0.1-0.4,0.2-0.7,0.2h-0.5c-0.3,0-0.6-0.1-0.7-0.2
			c-0.2-0.1-0.3-0.3-0.3-0.6c0-0.1,0-0.3,0.1-0.4c0.1-0.1,0.2-0.2,0.3-0.3l0.5,0c-0.1,0-0.2,0-0.3,0.1c-0.1,0-0.1,0.1-0.2,0.2
			c0,0.1-0.1,0.2-0.1,0.3c0,0.2,0,0.3,0.1,0.4s0.2,0.1,0.4,0.1h0.5c0.2,0,0.3,0,0.4-0.1c0.1-0.1,0.1-0.2,0.1-0.4
			c0-0.1,0-0.2-0.1-0.3c0-0.1-0.1-0.1-0.2-0.2c-0.1,0-0.2-0.1-0.3-0.1l0.5,0c0.1,0,0.2,0.1,0.3,0.2C61.6,41.4,61.7,41.6,61.7,41.7z
			 M62.6,41.7c0,0.2,0,0.3-0.1,0.5c-0.1,0.1-0.2,0.3-0.3,0.3l-0.3-0.3c0.2-0.1,0.3-0.3,0.3-0.5c0-0.2,0-0.3-0.2-0.4
			c-0.1-0.1-0.2-0.1-0.4-0.1h-2.4v-0.5h2.3c0.3,0,0.6,0.1,0.8,0.3S62.6,41.4,62.6,41.7z"/>
	</g>
</g>
<g>
	<path class="st3" d="M60,55.3L60,55.3c-1.3,0-2.3-1-2.3-2.3v-1.3c0-1.3,1-2.3,2.3-2.3l0,0c1.3,0,2.3,1,2.3,2.3V53
		C62.3,54.3,61.2,55.3,60,55.3z"/>
	<path class="st4" d="M60,54.6L60,54.6c-1,0-1.7-0.8-1.7-1.7v-1c0-1,0.8-1.7,1.7-1.7l0,0c1,0,1.7,0.8,1.7,1.7v1
		C61.7,53.8,60.9,54.6,60,54.6z"/>
	<g>
		<rect x="59.3" y="51.8" class="st5" width="1.3" height="1.3"/>
		<polygon class="st6" points="60,52.4 60.7,53 60.7,51.7 		"/>
		<polygon class="st7" points="59.3,53 60,52.4 60.7,53 		"/>
		<polygon class="st6" points="59.3,51.7 60,52.4 59.3,53 		"/>
	</g>
</g>
<g>
	<rect x="59.3" y="57.2" class="st5" width="1.4" height="8"/>
	<rect x="59.4" y="57.2" class="st6" width="1.1" height="8"/>
	<polygon class="st6" points="60.4,65.7 60.7,65.2 59.3,65.2 59.6,65.7 	"/>
	<polygon class="st7" points="60.4,65.7 60.6,65.2 59.4,65.2 59.6,65.7 	"/>
</g>
<g>
	<g class="st1">
		<path class="st2" d="M65.8,47.7h-0.5v-1.9h0.5V47.7z M68.7,48h-3.4v-0.5h3.4V48z M67.3,47.7h-0.5v-1.7h0.5V47.7z M68.7,47.7h-0.5
			v-1.9h0.5V47.7z"/>
		<path class="st2" d="M68.8,44.2c0,0.3-0.1,0.6-0.3,0.8c-0.2,0.2-0.4,0.3-0.8,0.3h-0.4c-0.3,0-0.6-0.1-0.8-0.3
			c-0.2-0.2-0.3-0.4-0.3-0.8c0-0.2,0-0.4,0.1-0.5s0.2-0.3,0.3-0.4l0.3,0.3c-0.2,0.1-0.2,0.3-0.2,0.5c0,0.2,0.1,0.3,0.2,0.4
			c0.1,0.1,0.2,0.2,0.4,0.2h0.4c0.2,0,0.4-0.1,0.5-0.2c0.1-0.1,0.2-0.2,0.2-0.4c0-0.2-0.1-0.4-0.3-0.5l0.3-0.3
			c0.1,0.1,0.2,0.2,0.3,0.4C68.7,43.8,68.8,44,68.8,44.2z"/>
		<path class="st2" d="M68.7,42.9h-3.4v-0.5h3.4V42.9z M68.7,41.4h-1.5c-0.2,0-0.3,0-0.4,0.1s-0.1,0.2-0.1,0.4c0,0.2,0,0.3,0.1,0.4
			c0.1,0.1,0.2,0.1,0.3,0.1l-0.5,0c-0.1-0.1-0.3-0.2-0.3-0.3c-0.1-0.1-0.1-0.3-0.1-0.4c0-0.3,0.1-0.5,0.3-0.6
			c0.2-0.1,0.4-0.2,0.7-0.2h1.5V41.4z"/>
		<path class="st2" d="M68.8,39.3c0,0.3-0.1,0.6-0.3,0.7c-0.2,0.2-0.4,0.3-0.8,0.3h-0.4c-0.3,0-0.6-0.1-0.8-0.3s-0.3-0.4-0.3-0.7
			s0.1-0.6,0.3-0.7s0.4-0.3,0.8-0.3h0.4c0.3,0,0.6,0.1,0.8,0.3C68.7,38.7,68.8,39,68.8,39.3z M68.3,39.3c0-0.2-0.1-0.3-0.2-0.4
			c-0.1-0.1-0.2-0.1-0.4-0.1h-0.4c-0.2,0-0.3,0-0.4,0.1c-0.1,0.1-0.2,0.2-0.2,0.4s0.1,0.3,0.2,0.4c0.1,0.1,0.2,0.1,0.4,0.1h0.4
			c0.2,0,0.3,0,0.4-0.1S68.3,39.4,68.3,39.3z"/>
	</g>
</g>
<g>
	<path class="st3" d="M67.1,55.3L67.1,55.3c-1.3,0-2.3-1-2.3-2.3v-1.3c0-1.3,1-2.3,2.3-2.3l0,0c1.3,0,2.3,1,2.3,2.3V53
		C69.4,54.3,68.4,55.3,67.1,55.3z"/>
	<path class="st4" d="M67.1,54.6L67.1,54.6c-1,0-1.7-0.8-1.7-1.7v-1c0-1,0.8-1.7,1.7-1.7l0,0c1,0,1.7,0.8,1.7,1.7v1
		C68.9,53.8,68.1,54.6,67.1,54.6z"/>
	<g>
		<rect x="66.4" y="51.8" class="st5" width="1.3" height="1.3"/>
		<polygon class="st6" points="67.1,52.4 67.8,53 67.8,51.7 		"/>
		<polygon class="st7" points="66.4,53 67.1,52.4 67.8,53 		"/>
		<polygon class="st6" points="66.4,51.7 67.1,52.4 66.4,53 		"/>
	</g>
</g>
<g>
	<rect x="66.4" y="57.2" class="st5" width="1.4" height="8"/>
	<rect x="66.5" y="57.2" class="st6" width="1.1" height="8"/>
	<polygon class="st6" points="67.5,65.7 67.8,65.2 66.4,65.2 66.7,65.7 	"/>
	<polygon class="st7" points="67.5,65.7 67.7,65.2 66.5,65.2 66.7,65.7 	"/>
</g>
<g>
	<g class="st1">
		<path class="st2" d="M74,46.8v-1.2h0.6c0.3,0,0.5,0,0.7,0.1c0.2,0.1,0.3,0.2,0.4,0.4s0.2,0.4,0.2,0.6c0,0.2,0,0.5-0.1,0.6
			c-0.1,0.2-0.2,0.3-0.4,0.4C75.1,48,74.9,48,74.7,48h-1c-0.3,0-0.5,0-0.7-0.1c-0.2-0.1-0.3-0.2-0.4-0.4c-0.1-0.2-0.2-0.4-0.2-0.6
			c0-0.2,0-0.4,0.1-0.5c0.1-0.2,0.2-0.3,0.4-0.4c0.2-0.1,0.3-0.2,0.5-0.2v0.5c-0.2,0-0.3,0.1-0.4,0.3c-0.1,0.1-0.1,0.3-0.1,0.4
			c0,0.2,0.1,0.4,0.2,0.5c0.1,0.1,0.3,0.2,0.6,0.2h1c0.2,0,0.4-0.1,0.5-0.2c0.1-0.1,0.2-0.3,0.2-0.5c0-0.2-0.1-0.4-0.2-0.5
			s-0.3-0.2-0.6-0.2h-0.1l0,0.7H74z"/>
		<path class="st2" d="M75.8,43.5h-1.5c-0.2,0-0.3,0-0.4,0.1c-0.1,0.1-0.1,0.2-0.1,0.4c0,0.2,0,0.3,0.1,0.4c0.1,0.1,0.2,0.1,0.3,0.1
			l-0.5,0c-0.1-0.1-0.3-0.2-0.3-0.3c-0.1-0.1-0.1-0.3-0.1-0.4c0-0.3,0.1-0.5,0.3-0.6c0.2-0.1,0.4-0.2,0.7-0.2h1.5V43.5z M75.8,44.9
			h-2.4v-0.5h2.4V44.9z"/>
		<path class="st2" d="M75.8,40.9h-3.4v-0.5h3.4V40.9z M75.8,41.5c0,0.3-0.1,0.5-0.3,0.6c-0.2,0.1-0.4,0.2-0.7,0.2h-0.5
			c-0.3,0-0.6-0.1-0.7-0.2c-0.2-0.1-0.3-0.3-0.3-0.6c0-0.1,0-0.3,0.1-0.4c0.1-0.1,0.2-0.2,0.3-0.3l0.5,0c-0.1,0-0.2,0-0.3,0.1
			c-0.1,0-0.1,0.1-0.2,0.2c0,0.1-0.1,0.2-0.1,0.3c0,0.2,0,0.3,0.1,0.4s0.2,0.1,0.4,0.1h0.5c0.2,0,0.3,0,0.4-0.1
			c0.1-0.1,0.1-0.2,0.1-0.4c0-0.1,0-0.2-0.1-0.3c0-0.1-0.1-0.1-0.2-0.2c-0.1,0-0.2-0.1-0.3-0.1l0.5,0c0.1,0,0.2,0.1,0.3,0.2
			C75.8,41.2,75.8,41.3,75.8,41.5z"/>
	</g>
</g>
<g>
	<path class="st3" d="M74.3,55.3L74.3,55.3c-1.3,0-2.3-1-2.3-2.3v-1.3c0-1.3,1-2.3,2.3-2.3l0,0c1.3,0,2.3,1,2.3,2.3V53
		C76.5,54.3,75.5,55.3,74.3,55.3z"/>
	<path class="st4" d="M74.3,54.6L74.3,54.6c-1,0-1.7-0.8-1.7-1.7v-1c0-1,0.8-1.7,1.7-1.7l0,0c1,0,1.7,0.8,1.7,1.7v1
		C76,53.8,75.2,54.6,74.3,54.6z"/>
	<g>
		<rect x="73.6" y="51.7" class="st5" width="1.3" height="1.3"/>
		<polygon class="st6" points="74.3,52.4 74.9,53 74.9,51.7 		"/>
		<polygon class="st7" points="73.6,53 74.3,52.4 74.9,53 		"/>
		<polygon class="st6" points="73.6,51.7 74.3,52.4 73.6,53 		"/>
	</g>
</g>
<g>
	<rect x="73.6" y="57.1" class="st5" width="1.4" height="8"/>
	<rect x="73.7" y="57.1" class="st6" width="1.1" height="8"/>
	<polygon class="st6" points="74.7,65.7 75,65.2 73.6,65.2 73.8,65.7 	"/>
	<polygon class="st7" points="74.7,65.7 74.8,65.2 73.7,65.2 73.8,65.7 	"/>
</g>
<g>
	<circle class="st4" cx="24" cy="27.6" r="24"/>
	<circle class="st8" cx="24" cy="27.6" r="19.7"/>
	<g class="st9">
		<g>
			<defs>
				<circle id="SVGID_1_" cx="24" cy="27.6" r="19.7"/>
			</defs>
			<clipPath id="SVGID_2_">
				<use xlink:href="#SVGID_1_"  style="overflow:visible;"/>
			</clipPath>
			<g class="st10">
				<g>
					<line class="st11" x1="4.3" y1="7.9" x2="4.3" y2="47.4"/>
					<line class="st11" x1="14.2" y1="7.9" x2="14.2" y2="47.4"/>
					<line class="st11" x1="24" y1="7.9" x2="24" y2="47.4"/>
					<line class="st11" x1="33.9" y1="7.9" x2="33.9" y2="47.4"/>
					<line class="st11" x1="43.8" y1="7.9" x2="43.8" y2="47.4"/>
				</g>
				<g>
					<line class="st11" x1="-2.9" y1="34.9" x2="31.3" y2="54.6"/>
					<line class="st11" x1="2" y1="26.3" x2="36.2" y2="46.1"/>
					<line class="st11" x1="7" y1="17.8" x2="41.1" y2="37.5"/>
					<line class="st11" x1="11.9" y1="9.2" x2="46.1" y2="29"/>
					<line class="st11" x1="16.8" y1="0.7" x2="51" y2="20.4"/>
				</g>
				<g>
					<line class="st11" x1="51" y1="34.9" x2="16.8" y2="54.6"/>
					<line class="st11" x1="46.1" y1="26.3" x2="11.9" y2="46.1"/>
					<line class="st11" x1="41.1" y1="17.8" x2="7" y2="37.5"/>
					<line class="st11" x1="36.2" y1="9.2" x2="2" y2="29"/>
					<line class="st11" x1="31.3" y1="0.7" x2="-2.9" y2="20.4"/>
				</g>
			</g>
		</g>
	</g>
</g>
<g>
	<circle class="st4" cx="103.5" cy="28.6" r="24"/>
	<circle class="st8" cx="103.5" cy="28.6" r="19.7"/>
	<g class="st9">
		<g>
			<defs>
				<circle id="SVGID_3_" cx="103.5" cy="28.6" r="19.7"/>
			</defs>
			<clipPath id="SVGID_4_">
				<use xlink:href="#SVGID_3_"  style="overflow:visible;"/>
			</clipPath>
			<g class="st12">
				<g>
					<line class="st11" x1="83.8" y1="8.9" x2="83.8" y2="48.4"/>
					<line class="st11" x1="93.6" y1="8.9" x2="93.6" y2="48.4"/>
					<line class="st11" x1="103.5" y1="8.9" x2="103.5" y2="48.4"/>
					<line class="st11" x1="113.4" y1="8.9" x2="113.4" y2="48.4"/>
					<line class="st11" x1="123.2" y1="8.9" x2="123.2" y2="48.4"/>
				</g>
				<g>
					<line class="st11" x1="76.5" y1="35.8" x2="110.7" y2="55.6"/>
					<line class="st11" x1="81.5" y1="27.3" x2="115.6" y2="47"/>
					<line class="st11" x1="86.4" y1="18.8" x2="120.6" y2="38.5"/>
					<line class="st11" x1="91.3" y1="10.2" x2="125.5" y2="29.9"/>
					<line class="st11" x1="96.3" y1="1.7" x2="130.4" y2="21.4"/>
				</g>
				<g>
					<line class="st11" x1="130.4" y1="35.8" x2="96.3" y2="55.6"/>
					<line class="st11" x1="125.5" y1="27.3" x2="91.3" y2="47"/>
					<line class="st11" x1="120.6" y1="18.8" x2="86.4" y2="38.5"/>
					<line class="st11" x1="115.6" y1="10.2" x2="81.5" y2="29.9"/>
					<line class="st11" x1="110.7" y1="1.7" x2="76.5" y2="21.4"/>
				</g>
			</g>
		</g>
	</g>
</g>
</svg>
