<?xml version="1.0" encoding="utf-8"?>
<!-- Generator: Adobe Illustrator 23.0.1, SVG Export Plug-In . SVG Version: 6.00 Build 0)  -->
<svg version="1.1" id="Layer_1" xmlns="http://www.w3.org/2000/svg" xmlns:xlink="http://www.w3.org/1999/xlink" x="0px" y="0px"
	 viewBox="0 0 53.9 123.5" style="enable-background:new 0 0 53.9 123.5;" xml:space="preserve">
<style type="text/css">
	.st0{fill:#FFFFFF;}
	.st1{fill:#C9B55E;}
	.st2{fill:#040202;}
	.st3{fill:#DDDDDC;}
	.st4{fill:#EDEDF2;}
	.st5{fill:#7C6B2B;}
	.st6{fill:#D8C262;}
	.st7{fill:#C6C5C5;}
	.st8{fill:#474748;}
	.st9{fill:#FCCF54;}
	.st10{fill:#5CAF66;}
	.st11{fill:#76C27C;}
	.st12{clip-path:url(#SVGID_2_);}
	.st13{fill:#BBBBBB;}
	.st14{clip-path:url(#SVGID_4_);}
	.st15{clip-path:url(#SVGID_6_);}
	.st16{clip-path:url(#SVGID_8_);}
	.st17{fill:#282828;}
	.st18{fill:#FFE4A1;}
	.st19{fill:#062302;}
	.st20{fill:#C6C6C6;}
</style>
<path d="M2.7,13.1C1,14,0,15.8,0,17.7v28.1L0.3,46L0,46.2v31.2l0.3,0.2L0,77.7v28.1c0,1.9,1,3.7,2.7,4.7L24.3,123c1.7,1,3.7,1,5.4,0
	l21.6-12.4c1.7-1,2.7-2.7,2.7-4.7V77.7l-0.3-0.2l0.3-0.2V46.2L53.7,46l0.3-0.2V17.7c0-1.9-1-3.7-2.7-4.7L29.7,0.5
	c-1.7-1-3.7-1-5.4,0L2.7,13.1z"/>
<g>
	<path class="st0" d="M22,54.3V57h-0.9c-0.2,0-0.4,0-0.5,0c-0.2,0-0.3-0.1-0.4-0.2c-0.1-0.1-0.2-0.3-0.3-0.5
		c-0.1-0.2-0.1-0.4-0.1-0.6c0-0.2,0-0.4,0.1-0.5c0-0.2,0.1-0.3,0.2-0.4c0.1-0.1,0.2-0.2,0.2-0.2c0.1-0.1,0.2-0.1,0.3-0.1
		c0.1,0,0.3,0,0.4,0H22z M21.6,54.6h-0.6c-0.2,0-0.3,0-0.4,0c-0.1,0-0.2,0.1-0.2,0.1c-0.1,0.1-0.1,0.2-0.2,0.3
		c0,0.1-0.1,0.3-0.1,0.5c0,0.3,0,0.5,0.1,0.6c0.1,0.1,0.2,0.2,0.3,0.3c0.1,0,0.2,0.1,0.5,0.1h0.6V54.6z"/>
	<path class="st0" d="M19.4,56.6V57H19v-0.4H19.4z M19.4,54.3v1.9H19v-1.9H19.4z"/>
	<path class="st0" d="M18.5,54.3v1.9h-0.3V56c-0.1,0.1-0.1,0.2-0.2,0.3c-0.1,0-0.1,0.1-0.2,0.1c-0.1,0-0.2,0-0.3-0.1l0.1-0.3
		c0.1,0,0.2,0.1,0.2,0.1c0.1,0,0.1,0,0.2-0.1c0.1,0,0.1-0.1,0.1-0.2c0-0.1,0.1-0.2,0.1-0.4v-1H18.5z"/>
	<path class="st0" d="M16,54.9l-0.3,0c0.1-0.2,0.2-0.3,0.3-0.5c0.1-0.1,0.3-0.2,0.5-0.2c0.3,0,0.5,0.1,0.7,0.3
		c0.2,0.2,0.2,0.4,0.2,0.7c0,0.3-0.1,0.6-0.2,0.7c-0.2,0.2-0.4,0.3-0.6,0.3c-0.3,0-0.5-0.1-0.6-0.3s-0.2-0.4-0.2-0.7c0,0,0,0,0-0.1
		h1.4c0-0.2-0.1-0.4-0.2-0.5c-0.1-0.1-0.2-0.2-0.4-0.2c-0.1,0-0.2,0-0.3,0.1C16.1,54.7,16.1,54.8,16,54.9z M17.1,55.5H16
		c0,0.2,0.1,0.3,0.1,0.4c0.1,0.1,0.2,0.2,0.4,0.2c0.1,0,0.3,0,0.4-0.1C17,55.8,17.1,55.6,17.1,55.5z"/>
	<path class="st0" d="M14,55l-0.3,0c0-0.2,0.1-0.4,0.3-0.5c0.1-0.1,0.3-0.2,0.5-0.2c0.3,0,0.5,0.1,0.6,0.3c0.2,0.2,0.2,0.4,0.2,0.7
		c0,0.2,0,0.4-0.1,0.5c-0.1,0.2-0.2,0.3-0.3,0.3c-0.1,0.1-0.3,0.1-0.5,0.1c-0.2,0-0.4-0.1-0.5-0.2c-0.1-0.1-0.2-0.3-0.3-0.4l0.3,0
		c0,0.1,0.1,0.2,0.2,0.3c0.1,0.1,0.2,0.1,0.3,0.1c0.2,0,0.3-0.1,0.4-0.2c0.1-0.1,0.2-0.3,0.2-0.6c0-0.3,0-0.4-0.1-0.6
		c-0.1-0.1-0.2-0.2-0.4-0.2c-0.1,0-0.2,0-0.3,0.1C14.1,54.8,14,54.9,14,55z"/>
	<path class="st0" d="M12.7,54.6l0-0.3c0.1,0,0.2,0,0.2,0c0.1,0,0.2,0,0.3,0.1c0.1,0,0.1,0.1,0.1,0.1c0,0.1,0,0.2,0,0.4V56h0.2v0.3
		h-0.2v0.5L13,56.9v-0.7h-0.3V56H13v-1.1c0-0.1,0-0.2,0-0.2s0,0-0.1-0.1c0,0-0.1,0-0.1,0C12.8,54.6,12.8,54.6,12.7,54.6z"/>
	<path class="st0" d="M12.4,56.6V57h-0.3v-0.4H12.4z M12.4,54.3v1.9h-0.3v-1.9H12.4z"/>
	<path class="st0" d="M11.7,55.3c0,0.4-0.1,0.6-0.3,0.8c-0.2,0.1-0.4,0.2-0.6,0.2c-0.3,0-0.5-0.1-0.6-0.3c-0.2-0.2-0.2-0.4-0.2-0.7
		c0-0.2,0-0.4,0.1-0.6c0.1-0.1,0.2-0.2,0.3-0.3c0.1-0.1,0.3-0.1,0.5-0.1c0.3,0,0.5,0.1,0.6,0.3C11.6,54.7,11.7,55,11.7,55.3z
		 M11.4,55.3c0-0.2-0.1-0.4-0.2-0.5c-0.1-0.1-0.2-0.2-0.4-0.2c-0.2,0-0.3,0.1-0.4,0.2c-0.1,0.1-0.2,0.3-0.2,0.6
		c0,0.2,0.1,0.4,0.2,0.5c0.1,0.1,0.2,0.2,0.4,0.2c0.2,0,0.3-0.1,0.4-0.2C11.3,55.7,11.4,55.5,11.4,55.3z"/>
	<path class="st0" d="M9.5,54.3v1.9H9.2V56c-0.1,0.2-0.3,0.3-0.6,0.3c-0.1,0-0.2,0-0.3-0.1c-0.1,0-0.2-0.1-0.2-0.2
		C8.1,56,8,55.9,8,55.8c0-0.1,0-0.2,0-0.3v-1.2h0.3v1.2c0,0.1,0,0.2,0,0.3c0,0.1,0.1,0.1,0.1,0.2C8.5,56,8.6,56,8.7,56
		c0.1,0,0.3,0,0.4-0.1c0.1-0.1,0.2-0.3,0.2-0.5v-1H9.5z"/>
</g>
<g>
	<g>
		<g>
			<polygon class="st0" points="49.8,104.1 44.5,98.8 44.5,99.9 46.6,102 46.1,102.5 44.5,100.9 44.5,102 45.6,103.1 45.1,103.6 
				44.5,103.1 44.5,104.1 			"/>
		</g>
		<g>
			<polygon class="st0" points="49.9,98.8 49,98.8 47.1,100.7 47.6,101.1 			"/>
		</g>
		<g>
			<polygon class="st0" points="48,98.8 47.1,98.8 46.2,99.7 46.6,100.2 			"/>
		</g>
		<g>
			<polygon class="st0" points="46.2,98.8 45.3,98.8 45.7,99.3 			"/>
		</g>
	</g>
</g>
<g>
	<path class="st0" d="M33.9,64.7h18.4v19H33.9V64.7z M52.2,64.8H34v18.7h18.1V64.8z"/>
</g>
<g>
	<path class="st0" d="M33.9,25.7h18.4v19H33.9V25.7z M52.2,25.9H34v18.7h18.1V25.9z"/>
</g>
<g>
	<path class="st0" d="M24.6,52.5h10.1v5.7H24.6V52.5z M34.5,52.7h-9.8v5.4h9.8V52.7z"/>
</g>
<g>
	<path class="st0" d="M6,63.6h21.5v19.6l0,0l-1.9,1.9H7.9l0,0L6,83.2V63.6z M27.3,63.8H6.2v19.4L8,85h17.5l1.8-1.8V63.8z"/>
</g>
<g>
	<path class="st0" d="M12.1,87.3h-1.4v1.4h-0.6v-1.4H8.7v-0.6h1.4v-1.4h0.6v1.4h1.4V87.3z"/>
</g>
<g>
	<path class="st0" d="M51.1,86v2.7h-1c-0.2,0-0.3,0-0.4,0c-0.1,0-0.2-0.1-0.3-0.1c-0.1-0.1-0.2-0.2-0.2-0.3C49,88.2,49,88.1,49,88
		c0-0.2,0.1-0.4,0.2-0.6c0.1-0.2,0.4-0.2,0.8-0.2h0.7V86H51.1z M50.7,87.5H50c-0.2,0-0.4,0-0.5,0.1c-0.1,0.1-0.1,0.2-0.1,0.4
		c0,0.1,0,0.2,0.1,0.3c0.1,0.1,0.1,0.1,0.2,0.2c0.1,0,0.2,0,0.3,0h0.7V87.5z"/>
	<path class="st0" d="M48.1,86l0.7,2.7h-0.4L48,87c0-0.2-0.1-0.4-0.1-0.6c-0.1,0.3-0.1,0.5-0.1,0.5l-0.5,1.8h-0.4l-0.4-1.4
		c-0.1-0.3-0.2-0.7-0.2-1c0,0.2-0.1,0.4-0.1,0.6l-0.4,1.7h-0.4L46,86h0.3l0.6,2.1c0,0.2,0.1,0.3,0.1,0.3c0-0.1,0.1-0.2,0.1-0.3
		l0.6-2.1H48.1z"/>
	<path class="st0" d="M45,86v2.7h-1.2c-0.2,0-0.4,0-0.6-0.1c-0.1,0-0.2-0.1-0.3-0.3c-0.1-0.1-0.1-0.3-0.1-0.4c0-0.2,0.1-0.4,0.2-0.5
		c0.1-0.1,0.3-0.2,0.6-0.3c-0.1,0-0.2-0.1-0.2-0.1c-0.1-0.1-0.2-0.2-0.3-0.4L42.6,86H43l0.4,0.6c0.1,0.2,0.2,0.3,0.3,0.4
		s0.1,0.1,0.2,0.2c0.1,0,0.1,0.1,0.2,0.1c0,0,0.1,0,0.2,0h0.4V86H45z M44.6,87.6h-0.8c-0.2,0-0.3,0-0.4,0.1c-0.1,0-0.2,0.1-0.2,0.2
		c0,0.1-0.1,0.2-0.1,0.2c0,0.1,0,0.2,0.1,0.3c0.1,0.1,0.2,0.1,0.4,0.1h0.9V87.6z"/>
	<path class="st0" d="M41.1,86v2.7h-0.4V86H41.1z"/>
	<path class="st0" d="M40.1,86v2.7h-0.4l-1.4-2.1v2.1H38V86h0.4l1.4,2.1V86H40.1z"/>
</g>
<g>
	<path class="st0" d="M51.2,48c0,0.5-0.1,0.8-0.4,1.1c-0.2,0.3-0.6,0.4-0.9,0.4c-0.3,0-0.5-0.1-0.7-0.2c-0.2-0.1-0.4-0.3-0.5-0.5
		c-0.1-0.2-0.2-0.5-0.2-0.7c0-0.3,0.1-0.5,0.2-0.7c0.1-0.2,0.3-0.4,0.5-0.5c0.2-0.1,0.4-0.2,0.7-0.2c0.3,0,0.5,0.1,0.7,0.2
		c0.2,0.1,0.4,0.3,0.5,0.5C51.1,47.5,51.2,47.8,51.2,48z M50.8,48c0-0.3-0.1-0.6-0.3-0.8c-0.2-0.2-0.4-0.3-0.7-0.3
		c-0.3,0-0.5,0.1-0.7,0.3C49.1,47.4,49,47.7,49,48c0,0.2,0,0.4,0.1,0.6c0.1,0.2,0.2,0.3,0.3,0.4c0.1,0.1,0.3,0.1,0.5,0.1
		c0.3,0,0.5-0.1,0.7-0.3C50.7,48.7,50.8,48.4,50.8,48z"/>
	<path class="st0" d="M46.3,49.4H46v-1.6c0-0.3,0-0.5,0.1-0.7c0.1-0.2,0.2-0.3,0.3-0.4c0.2-0.1,0.4-0.2,0.6-0.2c0.3,0,0.5,0,0.6,0.1
		c0.2,0.1,0.3,0.2,0.3,0.4c0.1,0.2,0.1,0.4,0.1,0.7v1.6h-0.4v-1.6c0-0.2,0-0.4-0.1-0.5c0-0.1-0.1-0.2-0.2-0.3
		C47.4,47,47.2,47,47.1,47c-0.3,0-0.5,0.1-0.6,0.2c-0.1,0.1-0.2,0.4-0.2,0.7V49.4z"/>
	<path class="st0" d="M44.7,46.7v2.4h0.9v0.3h-2.2v-0.3h0.9v-2.4H44.7z"/>
	<path class="st0" d="M43.1,46.7v2.7h-1c-0.2,0-0.3,0-0.4,0c-0.1,0-0.2-0.1-0.3-0.1c-0.1-0.1-0.2-0.2-0.2-0.3S41,48.7,41,48.6
		c0-0.2,0.1-0.4,0.2-0.6s0.4-0.2,0.8-0.2h0.7v-1.1H43.1z M42.7,48.1H42c-0.2,0-0.4,0-0.5,0.1c-0.1,0.1-0.1,0.2-0.1,0.4
		c0,0.1,0,0.2,0.1,0.3c0.1,0.1,0.1,0.1,0.2,0.2c0.1,0,0.2,0,0.3,0h0.7V48.1z"/>
	<path class="st0" d="M38.7,49.4h-0.4v-1.6c0-0.3,0-0.5,0.1-0.7c0.1-0.2,0.2-0.3,0.3-0.4c0.2-0.1,0.4-0.2,0.6-0.2
		c0.3,0,0.5,0,0.6,0.1c0.2,0.1,0.3,0.2,0.3,0.4c0.1,0.2,0.1,0.4,0.1,0.7v1.6h-0.4v-1.6c0-0.2,0-0.4-0.1-0.5c0-0.1-0.1-0.2-0.2-0.3
		C39.8,47,39.6,47,39.5,47c-0.3,0-0.5,0.1-0.6,0.2c-0.1,0.1-0.2,0.4-0.2,0.7V49.4z"/>
	<path class="st0" d="M37.1,46.7v2.4H38v0.3h-2.2v-0.3h0.9v-2.4H37.1z"/>
</g>
<g>
	<path class="st0" d="M40,13.9v4h-0.5v-1.7h-2.1v1.7h-0.5v-4h0.5v1.9h2.1v-1.9H40z"/>
	<path class="st0" d="M36.2,15.1v0.5h-1.5v-0.5H36.2z"/>
	<path class="st0" d="M34.1,13.9v4h-1.5c-0.3,0-0.6,0-0.7-0.1c-0.2-0.1-0.3-0.2-0.4-0.4s-0.2-0.3-0.2-0.5c0-0.2,0-0.3,0.1-0.5
		c0.1-0.2,0.2-0.3,0.4-0.4c-0.2-0.1-0.4-0.2-0.6-0.4C31.1,15.5,31,15.3,31,15c0-0.2,0-0.4,0.1-0.5c0.1-0.2,0.2-0.3,0.3-0.4
		c0.1-0.1,0.3-0.2,0.4-0.2c0.2,0,0.4-0.1,0.6-0.1H34.1z M33.5,16.2h-0.9c-0.2,0-0.4,0-0.5,0c-0.1,0-0.2,0.1-0.3,0.2
		c-0.1,0.1-0.1,0.2-0.1,0.4c0,0.1,0,0.3,0.1,0.4c0.1,0.1,0.2,0.2,0.3,0.2c0.1,0,0.3,0.1,0.6,0.1h0.8V16.2z M33.5,14.3h-1
		c-0.2,0-0.3,0-0.4,0c-0.1,0-0.2,0.1-0.3,0.1c-0.1,0.1-0.1,0.1-0.2,0.2c-0.1,0.1-0.1,0.2-0.1,0.3c0,0.1,0,0.3,0.1,0.4
		c0.1,0.1,0.2,0.2,0.3,0.2c0.1,0,0.3,0.1,0.6,0.1h0.9V14.3z"/>
	<path class="st0" d="M30.3,13.9v4h-1.8c-0.4,0-0.6,0-0.8-0.1c-0.2-0.1-0.3-0.2-0.4-0.4s-0.2-0.4-0.2-0.6c0-0.3,0.1-0.5,0.3-0.7
		c0.2-0.2,0.5-0.3,0.9-0.4c-0.1-0.1-0.2-0.1-0.3-0.2c-0.2-0.1-0.3-0.3-0.4-0.5l-0.7-1.1h0.7l0.5,0.8c0.2,0.2,0.3,0.4,0.4,0.6
		c0.1,0.1,0.2,0.2,0.3,0.3c0.1,0.1,0.2,0.1,0.2,0.1c0.1,0,0.2,0,0.3,0h0.6v-1.8H30.3z M29.8,16.1h-1.1c-0.2,0-0.4,0-0.6,0.1
		c-0.1,0.1-0.2,0.1-0.3,0.2c-0.1,0.1-0.1,0.2-0.1,0.4c0,0.2,0.1,0.3,0.2,0.5c0.1,0.1,0.4,0.2,0.7,0.2h1.3V16.1z"/>
	<path class="st0" d="M26.2,13.9v4h-0.5v-4H26.2z"/>
	<path class="st0" d="M24.7,13.9v4h-1.4c-0.3,0-0.6,0-0.7-0.1c-0.2-0.1-0.4-0.1-0.6-0.3c-0.2-0.2-0.4-0.4-0.5-0.7
		c-0.1-0.3-0.2-0.6-0.2-1c0-0.3,0-0.6,0.1-0.8c0.1-0.2,0.2-0.4,0.3-0.6c0.1-0.2,0.2-0.3,0.4-0.4c0.1-0.1,0.3-0.2,0.5-0.2
		c0.2,0,0.4-0.1,0.6-0.1H24.7z M24.2,14.3h-0.9c-0.3,0-0.5,0-0.6,0.1c-0.2,0-0.3,0.1-0.4,0.2c-0.1,0.1-0.2,0.3-0.3,0.5
		c-0.1,0.2-0.1,0.5-0.1,0.8c0,0.4,0.1,0.7,0.2,1c0.1,0.2,0.3,0.4,0.5,0.5c0.1,0.1,0.4,0.1,0.7,0.1h0.8V14.3z"/>
	<path class="st0" d="M18.7,15.4v0.5l-1.7,0v-1.5c0.3-0.2,0.5-0.4,0.8-0.5c0.3-0.1,0.6-0.2,0.9-0.2c0.4,0,0.8,0.1,1.1,0.3
		c0.3,0.2,0.6,0.4,0.7,0.7c0.2,0.3,0.2,0.7,0.2,1.1c0,0.4-0.1,0.8-0.2,1.1s-0.4,0.6-0.7,0.8c-0.3,0.2-0.7,0.2-1.1,0.2
		c-0.3,0-0.6,0-0.8-0.1c-0.2-0.1-0.4-0.2-0.6-0.4c-0.1-0.2-0.2-0.4-0.3-0.7l0.5-0.1c0.1,0.2,0.1,0.4,0.2,0.5
		c0.1,0.1,0.2,0.2,0.4,0.3c0.2,0.1,0.4,0.1,0.6,0.1c0.2,0,0.5,0,0.6-0.1c0.2-0.1,0.3-0.2,0.4-0.3c0.1-0.1,0.2-0.3,0.3-0.4
		c0.1-0.2,0.2-0.5,0.2-0.8c0-0.4-0.1-0.7-0.2-0.9c-0.1-0.2-0.3-0.4-0.5-0.5c-0.2-0.1-0.5-0.2-0.8-0.2c-0.2,0-0.5,0-0.7,0.1
		c-0.2,0.1-0.4,0.2-0.5,0.3v0.7H18.7z"/>
	<path class="st0" d="M16.3,13.9v4h-2.9v-0.5h2.4v-1.2h-2.2v-0.5h2.2v-1.4h-2.5v-0.5H16.3z"/>
</g>
<g>
	<path class="st0" d="M31.8,9.1v2.9h-1c-0.2,0-0.4,0-0.5,0c-0.2,0-0.3-0.1-0.4-0.2c-0.2-0.1-0.3-0.3-0.3-0.5
		c-0.1-0.2-0.1-0.4-0.1-0.7c0-0.2,0-0.4,0.1-0.6c0.1-0.2,0.1-0.3,0.2-0.4c0.1-0.1,0.2-0.2,0.3-0.3c0.1-0.1,0.2-0.1,0.3-0.1
		s0.3,0,0.5,0H31.8z M31.4,9.5h-0.6c-0.2,0-0.3,0-0.5,0.1c-0.1,0-0.2,0.1-0.3,0.2c-0.1,0.1-0.2,0.2-0.2,0.4
		c-0.1,0.2-0.1,0.3-0.1,0.6c0,0.3,0.1,0.5,0.2,0.7c0.1,0.2,0.2,0.3,0.4,0.3c0.1,0,0.3,0.1,0.5,0.1h0.6V9.5z"/>
	<path class="st0" d="M28.9,9.1v2.1h-0.3v-0.3c-0.1,0.1-0.2,0.2-0.2,0.3c-0.1,0-0.1,0.1-0.2,0.1c-0.1,0-0.2,0-0.4-0.1l0.1-0.3
		c0.1,0.1,0.2,0.1,0.3,0.1c0.1,0,0.1,0,0.2-0.1c0.1,0,0.1-0.1,0.1-0.2c0-0.1,0.1-0.3,0.1-0.4V9.1H28.9z"/>
	<path class="st0" d="M27.5,11.6v0.4h-0.4v-0.4H27.5z M27.5,9.1v2.1h-0.4V9.1H27.5z"/>
	<path class="st0" d="M26,9.1l0.8,2.1h-0.4L26,10c0-0.1-0.1-0.3-0.1-0.4c0,0.1-0.1,0.2-0.1,0.4l-0.5,1.3h-0.4l0.8-2.1H26z"/>
	<path class="st0" d="M23.1,9.8l-0.4,0c0.1-0.2,0.2-0.4,0.3-0.5c0.2-0.1,0.4-0.2,0.6-0.2c0.3,0,0.6,0.1,0.7,0.3
		c0.2,0.2,0.3,0.5,0.3,0.8c0,0.4-0.1,0.6-0.3,0.8c-0.2,0.2-0.4,0.3-0.7,0.3c-0.3,0-0.5-0.1-0.7-0.3c-0.2-0.2-0.3-0.5-0.3-0.8
		c0,0,0-0.1,0-0.1h1.6c0-0.2-0.1-0.4-0.2-0.5c-0.1-0.1-0.3-0.2-0.4-0.2c-0.1,0-0.2,0-0.3,0.1C23.3,9.6,23.2,9.7,23.1,9.8z
		 M24.3,10.4h-1.2c0,0.2,0.1,0.3,0.1,0.4c0.1,0.1,0.3,0.2,0.4,0.2c0.2,0,0.3-0.1,0.4-0.2C24.2,10.7,24.3,10.6,24.3,10.4z"/>
	<path class="st0" d="M22.3,9.1v2.1H22v-0.3c-0.1,0.1-0.2,0.2-0.2,0.3c-0.1,0-0.1,0.1-0.2,0.1c-0.1,0-0.2,0-0.4-0.1l0.1-0.3
		c0.1,0.1,0.2,0.1,0.3,0.1c0.1,0,0.1,0,0.2-0.1c0.1,0,0.1-0.1,0.1-0.2c0-0.1,0.1-0.3,0.1-0.4V9.1H22.3z"/>
</g>
<g>
	<path class="st0" d="M50.7,61.4c0.1,0.1,0.2,0.1,0.3,0.2s0.1,0.2,0.1,0.3c0,0.2-0.1,0.4-0.2,0.5c-0.1,0.1-0.3,0.2-0.6,0.2
		c-0.2,0-0.4-0.1-0.6-0.2c-0.1-0.1-0.2-0.3-0.2-0.5c0-0.1,0-0.2,0.1-0.3s0.2-0.2,0.3-0.2c-0.2-0.1-0.3-0.1-0.4-0.3
		c-0.1-0.1-0.1-0.3-0.1-0.4c0-0.2,0.1-0.4,0.2-0.6s0.4-0.2,0.6-0.2s0.5,0.1,0.6,0.2c0.2,0.2,0.2,0.4,0.2,0.6c0,0.2,0,0.3-0.1,0.4
		C51,61.3,50.9,61.4,50.7,61.4z M50.9,60.7c0-0.1,0-0.2-0.1-0.3c0-0.1-0.1-0.2-0.2-0.2c-0.1,0-0.2-0.1-0.3-0.1
		c-0.2,0-0.3,0.1-0.4,0.2c-0.1,0.1-0.2,0.2-0.2,0.4c0,0.2,0.1,0.3,0.2,0.4c0.1,0.1,0.2,0.2,0.4,0.2c0.2,0,0.3-0.1,0.4-0.2
		C50.8,61,50.9,60.9,50.9,60.7z M50.8,62c0-0.1,0-0.2-0.1-0.3c-0.1-0.1-0.2-0.1-0.3-0.1c-0.1,0-0.2,0-0.3,0.1
		c-0.1,0.1-0.1,0.2-0.1,0.3c0,0.1,0,0.2,0.1,0.3c0.1,0.1,0.2,0.1,0.3,0.1c0.1,0,0.2,0,0.3-0.1C50.7,62.2,50.8,62.1,50.8,62z"/>
	<path class="st0" d="M49.1,60.7v0.3h-1v-0.3H49.1z"/>
	<path class="st0" d="M46.6,59.9h0.3V62c0.1-0.1,0.2-0.2,0.3-0.2c0.1-0.1,0.2-0.1,0.4-0.2V62c-0.2,0.1-0.3,0.2-0.5,0.3
		c-0.1,0.1-0.2,0.2-0.3,0.4h-0.2V59.9z"/>
	<path class="st0" d="M45.7,60.6l-0.4,0c0-0.2-0.1-0.3-0.2-0.4c-0.1-0.1-0.2-0.1-0.3-0.1c-0.2,0-0.3,0.1-0.4,0.2
		c-0.1,0.1-0.2,0.3-0.2,0.5c0,0.2,0.1,0.3,0.2,0.5c0.1,0.1,0.2,0.2,0.4,0.2c0.1,0,0.2,0,0.3-0.1c0.1,0,0.2-0.1,0.2-0.2l0.3,0
		l-0.3,1.4h-1.4v-0.3h1.1l0.1-0.7c-0.2,0.1-0.3,0.2-0.5,0.2c-0.2,0-0.4-0.1-0.6-0.2c-0.2-0.2-0.2-0.4-0.2-0.6c0-0.2,0.1-0.5,0.2-0.6
		c0.2-0.2,0.4-0.3,0.7-0.3c0.2,0,0.4,0.1,0.6,0.2C45.6,60.2,45.7,60.4,45.7,60.6z"/>
	<path class="st0" d="M42.7,59.9l1.1,2.7h-0.4l-0.7-2c-0.1-0.2-0.1-0.3-0.1-0.4c0,0.1-0.1,0.3-0.1,0.4l-0.7,2h-0.4l1.1-2.7H42.7z"/>
	<path class="st0" d="M40.9,59.9v2.7H40c-0.2,0-0.4,0-0.5,0c-0.2,0-0.3-0.1-0.4-0.2c-0.1-0.1-0.3-0.3-0.3-0.5
		c-0.1-0.2-0.1-0.4-0.1-0.6c0-0.2,0-0.4,0.1-0.5c0-0.2,0.1-0.3,0.2-0.4c0.1-0.1,0.2-0.2,0.2-0.2c0.1-0.1,0.2-0.1,0.3-0.1
		c0.1,0,0.3,0,0.4,0H40.9z M40.6,60.2H40c-0.2,0-0.3,0-0.4,0.1c-0.1,0-0.2,0.1-0.2,0.1c-0.1,0.1-0.2,0.2-0.2,0.3
		c0,0.1-0.1,0.3-0.1,0.5c0,0.3,0,0.5,0.1,0.7c0.1,0.2,0.2,0.3,0.3,0.3c0.1,0,0.3,0.1,0.5,0.1h0.6V60.2z"/>
	<path class="st0" d="M36.3,60.9l-0.4-0.1c0.1-0.3,0.2-0.5,0.4-0.7c0.2-0.2,0.4-0.2,0.7-0.2c0.3,0,0.5,0.1,0.7,0.2
		c0.2,0.1,0.3,0.3,0.4,0.5c0.1,0.2,0.1,0.5,0.1,0.7c0,0.3-0.1,0.5-0.2,0.7c-0.1,0.2-0.3,0.4-0.5,0.5c-0.2,0.1-0.4,0.2-0.7,0.2
		c-0.3,0-0.5-0.1-0.7-0.2s-0.3-0.3-0.4-0.6l0.4-0.1c0.1,0.2,0.2,0.3,0.3,0.4c0.1,0.1,0.3,0.1,0.5,0.1c0.2,0,0.4,0,0.5-0.2
		c0.1-0.1,0.2-0.2,0.3-0.4c0.1-0.2,0.1-0.3,0.1-0.5c0-0.2,0-0.4-0.1-0.6c-0.1-0.2-0.2-0.3-0.3-0.4c-0.1-0.1-0.3-0.1-0.5-0.1
		c-0.2,0-0.4,0.1-0.5,0.2C36.4,60.5,36.3,60.6,36.3,60.9z"/>
</g>
<g>
	<path class="st0" d="M33.8,80.7h-1.4v1.4h-0.6v-1.4h-1.4v-0.6h1.4v-1.4h0.6v1.4h1.4V80.7z"/>
</g>
<g>
	<path class="st0" d="M33.1,71.3h-0.6v-2h0.6V71.3z"/>
</g>
<g id="JST_1_">
	<g>
		<g>
			<path class="st1" d="M35,95.2L35,95.2c1,0,1.7,0.8,1.7,1.7v1.4c0,1-0.8,1.7-1.7,1.7h0c-1,0-1.7-0.8-1.7-1.7v-1.4
				C33.3,96,34.1,95.2,35,95.2z"/>
		</g>
		<g>
			<circle class="st2" cx="35" cy="97.7" r="1"/>
		</g>
	</g>
	<g>
		<g>
			<path class="st1" d="M29.6,95.2L29.6,95.2c1,0,1.7,0.8,1.7,1.7v1.4c0,1-0.8,1.7-1.7,1.7h0c-1,0-1.7-0.8-1.7-1.7v-1.4
				C27.9,96,28.7,95.2,29.6,95.2z"/>
		</g>
		<g>
			<circle class="st2" cx="29.6" cy="97.7" r="1"/>
		</g>
	</g>
	<g>
		<g>
			<path class="st1" d="M24.2,95.2L24.2,95.2c1,0,1.7,0.8,1.7,1.7v1.4c0,1-0.8,1.7-1.7,1.7h0c-1,0-1.7-0.8-1.7-1.7v-1.4
				C22.5,96,23.3,95.2,24.2,95.2z"/>
		</g>
		<g>
			<circle class="st2" cx="24.2" cy="97.7" r="1"/>
		</g>
	</g>
	<g>
		<g>
			<path class="st1" d="M17.1,98.4v1.6c0,0.1,0.1,0.1,0.1,0.1h3.2c0.1,0,0.1-0.1,0.1-0.1v-4.6c0-0.1-0.1-0.1-0.1-0.1h-0.9v-0.7h-1.4
				v0.7h-0.9c-0.1,0-0.1,0.1-0.1,0.1v1.6h-0.7v1.4H17.1z"/>
		</g>
		<g>
			<circle class="st2" cx="18.8" cy="97.7" r="1"/>
		</g>
	</g>
	<g>
		<g>
			
				<rect x="34.2" y="99.8" transform="matrix(-1 -1.224647e-16 1.224647e-16 -1 70.0284 201.4924)" class="st0" width="1.6" height="1.9"/>
		</g>
		<g>
			<path class="st3" d="M35,97.1L35,97.1c0.4,0,0.8,0.4,0.8,0.8v1.9h-1.6v-1.9C34.2,97.4,34.6,97.1,35,97.1z"/>
		</g>
	</g>
	<g>
		<g>
			
				<rect x="28.8" y="99.8" transform="matrix(-1 -1.224647e-16 1.224647e-16 -1 59.2222 201.4924)" class="st0" width="1.6" height="1.9"/>
		</g>
		<g>
			<path class="st3" d="M29.6,97.1L29.6,97.1c0.4,0,0.8,0.4,0.8,0.8v1.9h-1.6v-1.9C28.8,97.4,29.2,97.1,29.6,97.1z"/>
		</g>
	</g>
	<g>
		<g>
			
				<rect x="23.4" y="99.8" transform="matrix(-1 -1.224647e-16 1.224647e-16 -1 48.4159 201.4924)" class="st0" width="1.6" height="1.9"/>
		</g>
		<g>
			<path class="st3" d="M24.2,97.1L24.2,97.1c0.4,0,0.8,0.4,0.8,0.8v1.9h-1.6v-1.9C23.4,97.4,23.8,97.1,24.2,97.1z"/>
		</g>
	</g>
	<g>
		<g>
			
				<rect x="18" y="99.8" transform="matrix(-1 -1.224647e-16 1.224647e-16 -1 37.6097 201.4924)" class="st0" width="1.6" height="1.9"/>
		</g>
		<g>
			<path class="st3" d="M18.8,97.1L18.8,97.1c0.4,0,0.8,0.4,0.8,0.8v1.9H18v-1.9C18,97.4,18.4,97.1,18.8,97.1z"/>
		</g>
	</g>
	<g>
		<g>
			<path class="st0" d="M37.4,95.7h2.8v5.1h-2.8V95.7z M40.1,95.9h-2.5v4.8h2.5V95.9z"/>
		</g>
	</g>
	<g>
		<g>
			<path class="st0" d="M13.7,95.7h2.8v5.1h-2.8V95.7z M16.4,95.9h-2.5v4.8h2.5V95.9z"/>
		</g>
	</g>
	<g>
		
			<rect x="13.7" y="101" transform="matrix(-1 -1.224647e-16 1.224647e-16 -1 53.9001 215.9007)" class="st3" width="26.4" height="13.8"/>
	</g>
	<g>
		<g>
			
				<rect x="29.1" y="101" transform="matrix(-1 -1.224647e-16 1.224647e-16 -1 59.3409 215.9403)" class="st0" width="1.1" height="13.9"/>
		</g>
		<g>
			
				<rect x="23.6" y="101" transform="matrix(-1 -1.224647e-16 1.224647e-16 -1 48.4258 215.9403)" class="st0" width="1.1" height="13.9"/>
		</g>
		<g>
			
				<rect x="26.3" y="101" transform="matrix(-1 -1.224647e-16 1.224647e-16 -1 53.819 209.9137)" class="st0" width="1.1" height="7.9"/>
		</g>
		<g>
			
				<rect x="31.7" y="101" transform="matrix(-1 -1.224647e-16 1.224647e-16 -1 64.6253 209.9137)" class="st0" width="1.1" height="7.9"/>
		</g>
		<g>
			
				<rect x="20.9" y="101" transform="matrix(-1 -1.224647e-16 1.224647e-16 -1 43.0128 209.9137)" class="st0" width="1.1" height="7.9"/>
		</g>
	</g>
	<g>
		
			<rect x="13.7" y="101" transform="matrix(-1 -1.224647e-16 1.224647e-16 -1 53.819 206.7372)" class="st4" width="26.3" height="4.7"/>
	</g>
	<g>
		<polygon class="st0" points="20.1,117.9 20.1,106.9 26.2,106.9 33.8,106.9 33.8,117.9 40.2,117.9 40.2,101 38.8,101 38.8,112.8 
			36.1,112.8 36.1,101.7 26.2,101.7 17.8,101.7 17.8,112.8 15.1,112.8 15.1,101 13.8,101 13.8,117.9 		"/>
	</g>
	<g>
		
			<rect x="26.2" y="101" transform="matrix(-1 -1.224647e-16 1.224647e-16 -1 53.8388 202.7392)" class="st0" width="1.4" height="0.7"/>
	</g>
	<g>
		
			<rect x="31.6" y="101" transform="matrix(-1 -1.224647e-16 1.224647e-16 -1 64.6253 202.7392)" class="st0" width="1.4" height="0.7"/>
	</g>
	<g>
		
			<rect x="20.8" y="101" transform="matrix(-1 -1.224647e-16 1.224647e-16 -1 43.0128 202.7392)" class="st0" width="1.4" height="0.7"/>
	</g>
</g>
<g>
	<circle class="st5" cx="43.1" cy="69.7" r="2.5"/>
	<path class="st6" d="M43.1,66.5c1.7,0,3.1,1.4,3.1,3.1c0,1.7-1.4,3.1-3.1,3.1c-1.7,0-3.1-1.4-3.1-3.1C40,68,41.4,66.5,43.1,66.5z
		 M43.1,71.6c1.1,0,1.9-0.9,1.9-1.9s-0.9-1.9-1.9-1.9s-1.9,0.9-1.9,1.9S42,71.6,43.1,71.6z"/>
</g>
<g>
	<g>
		<rect x="39.9" y="75.8" class="st6" width="6.2" height="6.2"/>
	</g>
	<g>
		<circle class="st5" cx="43.1" cy="78.9" r="1.7"/>
	</g>
	<g>
		<rect x="39.2" y="76.2" class="st6" width="0.7" height="5.3"/>
	</g>
</g>
<g>
	<g>
		<g>
			<rect x="36.4" y="55.4" class="st7" width="1.9" height="2.7"/>
		</g>
		<g>
			<path class="st5" d="M36.4,58.1v-2.7h1.9v2.7H36.4 M36.1,58.4h0.3h1.9h0.3v-0.3v-2.7v-0.3h-0.3h-1.9h-0.3v0.3v2.7V58.4L36.1,58.4
				z"/>
		</g>
		<g>
			<rect x="36.9" y="58.1" class="st1" width="0.7" height="0.5"/>
		</g>
	</g>
	<g>
		<g>
			<rect x="41.2" y="55.4" class="st7" width="1.9" height="2.7"/>
		</g>
		<g>
			<path class="st5" d="M41.2,58.1v-2.7H43v2.7H41.2 M40.9,58.4h0.3H43h0.3v-0.3v-2.7v-0.3H43h-1.9h-0.3v0.3v2.7V58.4L40.9,58.4z"/>
		</g>
		<g>
			
				<rect x="42.9" y="56.5" transform="matrix(6.123234e-17 -1 1 6.123234e-17 -13.5012 100.0377)" class="st1" width="0.7" height="0.5"/>
		</g>
		<g>
			
				<rect x="41.7" y="54.9" transform="matrix(-1 -1.224647e-16 1.224647e-16 -1 84.2035 110.2856)" class="st1" width="0.7" height="0.5"/>
		</g>
	</g>
	<g>
		<g>
			<rect x="37.4" y="55.7" class="st0" width="0.7" height="2.1"/>
		</g>
		<g>
			<rect x="41" y="55.7" class="st0" width="0.7" height="2.1"/>
		</g>
		<g>
			<rect x="38.2" y="55.7" class="st8" width="2.8" height="2.1"/>
		</g>
	</g>
	<g>
		<rect x="38.9" y="55.3" class="st0" width="1.5" height="0.2"/>
	</g>
	<g>
		<rect x="38.9" y="58.1" class="st0" width="1.5" height="0.2"/>
	</g>
</g>
<g>
	<g>
		<g>
			<rect x="36.4" y="51.3" class="st7" width="1.9" height="2.7"/>
		</g>
		<g>
			<path class="st5" d="M36.4,54v-2.7h1.9V54H36.4 M36.1,54.3h0.3h1.9h0.3V54v-2.7V51h-0.3h-1.9h-0.3v0.3V54V54.3L36.1,54.3z"/>
		</g>
		<g>
			<rect x="36.9" y="54" class="st1" width="0.7" height="0.5"/>
		</g>
	</g>
	<g>
		<g>
			<rect x="41.2" y="51.3" class="st7" width="1.9" height="2.7"/>
		</g>
		<g>
			<path class="st5" d="M41.2,54v-2.7H43V54H41.2 M40.9,54.3h0.3H43h0.3V54v-2.7V51H43h-1.9h-0.3v0.3V54V54.3L40.9,54.3z"/>
		</g>
		<g>
			
				<rect x="42.9" y="52.4" transform="matrix(6.123234e-17 -1 1 6.123234e-17 -9.4044 95.9408)" class="st1" width="0.7" height="0.5"/>
		</g>
		<g>
			
				<rect x="41.7" y="50.8" transform="matrix(-1 -1.224647e-16 1.224647e-16 -1 84.2035 102.0919)" class="st1" width="0.7" height="0.5"/>
		</g>
	</g>
	<g>
		<g>
			<rect x="37.4" y="51.6" class="st0" width="0.7" height="2.1"/>
		</g>
		<g>
			<rect x="41" y="51.6" class="st0" width="0.7" height="2.1"/>
		</g>
		<g>
			<rect x="38.2" y="51.6" class="st8" width="2.8" height="2.1"/>
		</g>
	</g>
	<g>
		<rect x="38.9" y="51.2" class="st0" width="1.5" height="0.2"/>
	</g>
	<g>
		<rect x="38.9" y="54" class="st0" width="1.5" height="0.2"/>
	</g>
</g>
<g>
	<g>
		<g>
			
				<rect x="25.8" y="38.3" transform="matrix(-1.836970e-16 1 -1 -1.836970e-16 66.3646 12.8178)" class="st7" width="1.9" height="2.7"/>
		</g>
		<g>
			<path class="st5" d="M25.4,40.5v-1.9h2.7v1.9H25.4 M25.1,40.8h0.3h2.7h0.3v-0.3v-1.9v-0.3h-0.3h-2.7h-0.3v0.3v1.9V40.8L25.1,40.8
				z"/>
		</g>
		<g>
			
				<rect x="24.8" y="39.4" transform="matrix(-1.836970e-16 1 -1 -1.836970e-16 64.7923 14.39)" class="st1" width="0.7" height="0.5"/>
		</g>
	</g>
	<g>
		<g>
			
				<rect x="25.8" y="43.1" transform="matrix(-1.836970e-16 1 -1 -1.836970e-16 71.1739 17.6271)" class="st7" width="1.9" height="2.7"/>
		</g>
		<g>
			<path class="st5" d="M25.4,45.3v-1.9h2.7v1.9H25.4 M25.1,45.6h0.3h2.7h0.3v-0.3v-1.9v-0.3h-0.3h-2.7h-0.3v0.3v1.9V45.6L25.1,45.6
				z"/>
		</g>
		<g>
			<rect x="26.4" y="45.3" class="st1" width="0.7" height="0.5"/>
		</g>
		<g>
			
				<rect x="28" y="44.2" transform="matrix(6.123234e-17 -1 1 6.123234e-17 -16.0549 72.7462)" class="st1" width="0.7" height="0.5"/>
		</g>
	</g>
	<g>
		<g>
			
				<rect x="26.4" y="39" transform="matrix(-1.836970e-16 1 -1 -1.836970e-16 66.8644 13.3372)" class="st0" width="0.7" height="2.1"/>
		</g>
		<g>
			
				<rect x="26.4" y="42.6" transform="matrix(-1.836970e-16 1 -1 -1.836970e-16 70.412 16.8849)" class="st0" width="0.7" height="2.1"/>
		</g>
		<g>
			
				<rect x="25.4" y="40.8" transform="matrix(-1.836970e-16 1 -1 -1.836970e-16 68.6382 15.1111)" class="st9" width="2.8" height="2.1"/>
		</g>
	</g>
	<g>
		<rect x="28" y="41.2" class="st0" width="0.2" height="1.5"/>
	</g>
	<g>
		<rect x="25.2" y="41.2" class="st0" width="0.2" height="1.5"/>
	</g>
</g>
<g>
	<g>
		<g>
			
				<rect x="25.8" y="25" transform="matrix(-1.836970e-16 1 -1 -1.836970e-16 53.0646 -0.4822)" class="st7" width="1.9" height="2.7"/>
		</g>
		<g>
			<path class="st5" d="M25.4,27.2v-1.9h2.7v1.9H25.4 M25.1,27.5h0.3h2.7h0.3v-0.3v-1.9v-0.3h-0.3h-2.7h-0.3v0.3v1.9V27.5L25.1,27.5
				z"/>
		</g>
		<g>
			
				<rect x="24.8" y="26.1" transform="matrix(-1.836970e-16 1 -1 -1.836970e-16 51.4923 1.09)" class="st1" width="0.7" height="0.5"/>
		</g>
	</g>
	<g>
		<g>
			
				<rect x="25.8" y="29.8" transform="matrix(-1.836970e-16 1 -1 -1.836970e-16 57.8739 4.3271)" class="st7" width="1.9" height="2.7"/>
		</g>
		<g>
			<path class="st5" d="M25.4,32v-1.9h2.7V32H25.4 M25.1,32.3h0.3h2.7h0.3V32v-1.9v-0.3h-0.3h-2.7h-0.3v0.3V32V32.3L25.1,32.3z"/>
		</g>
		<g>
			<rect x="26.4" y="32" class="st1" width="0.7" height="0.5"/>
		</g>
		<g>
			
				<rect x="28" y="30.9" transform="matrix(6.123234e-17 -1 1 6.123234e-17 -2.7549 59.4462)" class="st1" width="0.7" height="0.5"/>
		</g>
	</g>
	<g>
		<g>
			
				<rect x="26.4" y="25.7" transform="matrix(-1.836970e-16 1 -1 -1.836970e-16 53.5644 3.723510e-02)" class="st0" width="0.7" height="2.1"/>
		</g>
		<g>
			
				<rect x="26.4" y="29.3" transform="matrix(-1.836970e-16 1 -1 -1.836970e-16 57.112 3.5849)" class="st0" width="0.7" height="2.1"/>
		</g>
		<g>
			
				<rect x="25.4" y="27.5" transform="matrix(-1.836970e-16 1 -1 -1.836970e-16 55.3382 1.8111)" class="st9" width="2.8" height="2.1"/>
		</g>
	</g>
	<g>
		<rect x="28" y="27.9" class="st0" width="0.2" height="1.5"/>
	</g>
	<g>
		<rect x="25.2" y="27.9" class="st0" width="0.2" height="1.5"/>
	</g>
</g>
<g>
	<g>
		<g>
			
				<rect x="5.6" y="92.3" transform="matrix(-1.836970e-16 1 -1 -1.836970e-16 100.2093 87.0874)" class="st7" width="1.9" height="2.7"/>
		</g>
		<g>
			<path class="st5" d="M5.2,94.6v-1.9h2.7v1.9H5.2 M4.9,94.9h0.3h2.7h0.3v-0.3v-1.9v-0.3H7.9H5.2H4.9v0.3v1.9V94.9L4.9,94.9z"/>
		</g>
		<g>
			
				<rect x="4.6" y="93.4" transform="matrix(-1.836970e-16 1 -1 -1.836970e-16 98.637 88.6597)" class="st1" width="0.7" height="0.5"/>
		</g>
	</g>
	<g>
		<g>
			
				<rect x="5.6" y="97.1" transform="matrix(-1.836970e-16 1 -1 -1.836970e-16 105.0186 91.8968)" class="st7" width="1.9" height="2.7"/>
		</g>
		<g>
			<path class="st5" d="M5.2,99.4v-1.9h2.7v1.9H5.2 M4.9,99.7h0.3h2.7h0.3v-0.3v-1.9v-0.3H7.9H5.2H4.9v0.3v1.9V99.7L4.9,99.7z"/>
		</g>
		<g>
			<rect x="6.1" y="99.4" class="st1" width="0.7" height="0.5"/>
		</g>
		<g>
			
				<rect x="7.8" y="98.2" transform="matrix(6.123234e-17 -1 1 6.123234e-17 -90.3245 106.5909)" class="st1" width="0.7" height="0.5"/>
		</g>
	</g>
	<g>
		<g>
			
				<rect x="6.2" y="93.1" transform="matrix(-1.836970e-16 1 -1 -1.836970e-16 100.7091 87.6069)" class="st0" width="0.7" height="2.1"/>
		</g>
		<g>
			
				<rect x="6.2" y="96.6" transform="matrix(-1.836970e-16 1 -1 -1.836970e-16 104.2567 91.1546)" class="st0" width="0.7" height="2.1"/>
		</g>
		<g>
			
				<rect x="5.1" y="94.9" transform="matrix(-1.836970e-16 1 -1 -1.836970e-16 102.4829 89.3807)" class="st9" width="2.8" height="2.1"/>
		</g>
	</g>
	<g>
		<rect x="7.8" y="95.3" class="st0" width="0.2" height="1.5"/>
	</g>
	<g>
		<rect x="5" y="95.3" class="st0" width="0.2" height="1.5"/>
	</g>
</g>
<g>
	<rect x="49.8" y="64.7" class="st0" width="0.2" height="18.8"/>
</g>
<g>
	<g>
		
			<rect x="31.9" y="65.4" transform="matrix(-1.836970e-16 1 -1 -1.836970e-16 116.8544 31.438)" class="st10" width="21.5" height="17.5"/>
	</g>
	<g>
		
			<rect x="31.9" y="69.5" transform="matrix(-1.836970e-16 1 -1 -1.836970e-16 116.8544 31.438)" class="st11" width="21.5" height="9.3"/>
	</g>
	<g>
		<defs>
			<circle id="SVGID_1_" cx="43.1" cy="69.7" r="2.9"/>
		</defs>
		<clipPath id="SVGID_2_">
			<use xlink:href="#SVGID_1_"  style="overflow:visible;"/>
		</clipPath>
		<g class="st12">
			<g>
				<circle class="st4" cx="43.1" cy="69.7" r="2.9"/>
			</g>
			<g>
				
					<rect x="42.1" y="66.2" transform="matrix(0.7071 0.7071 -0.7071 0.7071 61.8965 -10.0668)" class="st13" width="1.9" height="7"/>
			</g>
		</g>
	</g>
	<g>
		<defs>
			<circle id="SVGID_3_" cx="43.1" cy="78.9" r="2.9"/>
		</defs>
		<clipPath id="SVGID_4_">
			<use xlink:href="#SVGID_3_"  style="overflow:visible;"/>
		</clipPath>
		<g class="st14">
			<g>
				<circle class="st4" cx="43.1" cy="78.9" r="2.9"/>
			</g>
			<g>
				
					<rect x="42.1" y="75.4" transform="matrix(0.7071 0.7071 -0.7071 0.7071 68.4047 -7.3711)" class="st13" width="1.9" height="7"/>
			</g>
		</g>
	</g>
</g>
<g>
	<circle class="st5" cx="43.1" cy="31.7" r="2.5"/>
	<path class="st6" d="M43.1,28.5c1.7,0,3.1,1.4,3.1,3.1c0,1.7-1.4,3.1-3.1,3.1c-1.7,0-3.1-1.4-3.1-3.1C40,30,41.4,28.5,43.1,28.5z
		 M43.1,33.6c1.1,0,1.9-0.9,1.9-1.9c0-1.1-0.9-1.9-1.9-1.9s-1.9,0.9-1.9,1.9C41.2,32.7,42,33.6,43.1,33.6z"/>
</g>
<g>
	<rect x="49.8" y="26.7" class="st0" width="0.2" height="18.8"/>
</g>
<g>
	<g>
		
			<rect x="31.9" y="26.4" transform="matrix(-1.836970e-16 1 -1 -1.836970e-16 77.9044 -7.512)" class="st10" width="21.5" height="17.5"/>
	</g>
	<g>
		
			<rect x="31.9" y="30.6" transform="matrix(-1.836970e-16 1 -1 -1.836970e-16 77.9044 -7.512)" class="st11" width="21.5" height="9.3"/>
	</g>
	<g>
		<defs>
			<circle id="SVGID_5_" cx="43.1" cy="30.7" r="2.9"/>
		</defs>
		<clipPath id="SVGID_6_">
			<use xlink:href="#SVGID_5_"  style="overflow:visible;"/>
		</clipPath>
		<g class="st15">
			<g>
				<circle class="st4" cx="43.1" cy="30.7" r="2.9"/>
			</g>
			<g>
				
					<rect x="42.1" y="27.2" transform="matrix(0.7071 0.7071 -0.7071 0.7071 34.3547 -21.475)" class="st13" width="1.9" height="7"/>
			</g>
		</g>
	</g>
	<g>
		<defs>
			<circle id="SVGID_7_" cx="43.1" cy="39.9" r="2.9"/>
		</defs>
		<clipPath id="SVGID_8_">
			<use xlink:href="#SVGID_7_"  style="overflow:visible;"/>
		</clipPath>
		<g class="st16">
			<g>
				<circle class="st4" cx="43.1" cy="39.9" r="2.9"/>
			</g>
			<g>
				
					<rect x="42.1" y="36.4" transform="matrix(0.7071 0.7071 -0.7071 0.7071 40.8629 -18.7792)" class="st13" width="1.9" height="7"/>
			</g>
		</g>
	</g>
</g>
<g>
	<g>
		<g>
			<g>
				<rect x="10.5" y="28.9" class="st7" width="3.2" height="3.4"/>
			</g>
			<g>
				<path class="st5" d="M10.4,28.7h3.5v3.7h-3.5V28.7z M13.5,29h-2.9v3.1h2.9V29z"/>
			</g>
		</g>
		<g>
			<rect x="11.6" y="29.9" class="st0" width="1" height="1.9"/>
		</g>
		<g>
			<g>
				<rect x="7.3" y="28.9" class="st7" width="3.2" height="3.4"/>
			</g>
			<g>
				<path class="st5" d="M7.2,28.7h3.5v3.7H7.2V28.7z M10.4,29H7.5v3.1h2.9V29z"/>
			</g>
		</g>
		<g>
			<rect x="8.4" y="29.9" class="st0" width="1" height="1.9"/>
		</g>
		<g>
			<g>
				<rect x="13.7" y="28.9" class="st7" width="3.2" height="3.4"/>
			</g>
			<g>
				<path class="st5" d="M13.5,28.7H17v3.7h-3.5V28.7z M16.7,29h-2.9v3.1h2.9V29z"/>
			</g>
		</g>
		<g>
			<rect x="14.8" y="29.9" class="st0" width="1" height="1.9"/>
		</g>
		<g>
			<g>
				<rect x="16.9" y="28.9" class="st7" width="3.2" height="3.4"/>
			</g>
			<g>
				<path class="st5" d="M16.7,28.7h3.5v3.7h-3.5V28.7z M19.9,29H17v3.1h2.9V29z"/>
			</g>
		</g>
		<g>
			<rect x="18" y="29.9" class="st0" width="1" height="1.9"/>
		</g>
		<g>
			<g>
				
					<rect x="13.7" y="41" transform="matrix(-1 -1.224647e-16 1.224647e-16 -1 30.5477 85.4953)" class="st7" width="3.2" height="3.4"/>
			</g>
			<g>
				<path class="st5" d="M13.5,40.9H17v3.7h-3.5V40.9z M16.7,41.2h-2.9v3.1h2.9V41.2z"/>
			</g>
		</g>
		<g>
			
				<rect x="14.8" y="41.6" transform="matrix(-1 -1.224647e-16 1.224647e-16 -1 30.5477 85.0026)" class="st0" width="1" height="1.9"/>
		</g>
		<g>
			<g>
				
					<rect x="16.9" y="41" transform="matrix(-1 -1.224647e-16 1.224647e-16 -1 36.8969 85.4953)" class="st7" width="3.2" height="3.4"/>
			</g>
			<g>
				<path class="st5" d="M16.7,40.9h3.5v3.7h-3.5V40.9z M19.9,41.2H17v3.1h2.9V41.2z"/>
			</g>
		</g>
		<g>
			
				<rect x="18" y="41.6" transform="matrix(-1 -1.224647e-16 1.224647e-16 -1 36.8969 85.0026)" class="st0" width="1" height="1.9"/>
		</g>
		<g>
			<g>
				
					<rect x="10.5" y="41" transform="matrix(-1 -1.224647e-16 1.224647e-16 -1 24.1984 85.4953)" class="st7" width="3.2" height="3.4"/>
			</g>
			<g>
				<path class="st5" d="M10.4,40.9h3.5v3.7h-3.5V40.9z M13.5,41.2h-2.9v3.1h2.9V41.2z"/>
			</g>
		</g>
		<g>
			
				<rect x="11.6" y="41.6" transform="matrix(-1 -1.224647e-16 1.224647e-16 -1 24.1984 85.0026)" class="st0" width="1" height="1.9"/>
		</g>
		<g>
			<g>
				
					<rect x="7.3" y="41" transform="matrix(-1 -1.224647e-16 1.224647e-16 -1 17.8491 85.4953)" class="st7" width="3.2" height="3.4"/>
			</g>
			<g>
				<path class="st5" d="M7.2,40.9h3.5v3.7H7.2V40.9z M10.4,41.2H7.5v3.1h2.9V41.2z"/>
			</g>
		</g>
		<g>
			
				<rect x="8.4" y="41.6" transform="matrix(-1 -1.224647e-16 1.224647e-16 -1 17.8491 85.0026)" class="st0" width="1" height="1.9"/>
		</g>
		<g>
			<rect x="7" y="31.9" class="st17" width="13.3" height="9.6"/>
		</g>
		<g>
			<rect x="7.2" y="32.1" class="st8" width="13" height="9.3"/>
		</g>
	</g>
</g>
<g>
	<g>
		
			<rect x="27.4" y="51.1" transform="matrix(6.123234e-17 -1 1 6.123234e-17 -25.7978 85.0199)" class="st18" width="4.5" height="8.5"/>
	</g>
	<g>
		
			<rect x="25.6" y="56.1" transform="matrix(6.123234e-17 -1 1 6.123234e-17 -30.429 83.0012)" class="st9" width="1.3" height="1.3"/>
	</g>
	<g>
		
			<rect x="27.8" y="56.1" transform="matrix(6.123234e-17 -1 1 6.123234e-17 -28.2222 85.2079)" class="st9" width="1.3" height="1.3"/>
	</g>
	<g>
		
			<rect x="30" y="56.1" transform="matrix(6.123234e-17 -1 1 6.123234e-17 -26.0155 87.4147)" class="st9" width="1.3" height="1.3"/>
	</g>
	<g>
		
			<rect x="32.3" y="56.1" transform="matrix(6.123234e-17 -1 1 6.123234e-17 -23.8087 89.6215)" class="st9" width="1.3" height="1.3"/>
	</g>
	<g>
		
			<rect x="25.6" y="53.5" transform="matrix(6.123234e-17 -1 1 6.123234e-17 -27.8462 80.4184)" class="st9" width="1.3" height="1.3"/>
	</g>
	<g>
		
			<rect x="27.8" y="53.5" transform="matrix(6.123234e-17 -1 1 6.123234e-17 -25.6394 82.6251)" class="st9" width="1.3" height="1.3"/>
	</g>
	<g>
		
			<rect x="30" y="53.5" transform="matrix(6.123234e-17 -1 1 6.123234e-17 -23.4326 84.8319)" class="st9" width="1.3" height="1.3"/>
	</g>
	<g>
		
			<rect x="32.3" y="53.5" transform="matrix(6.123234e-17 -1 1 6.123234e-17 -21.2259 87.0387)" class="st9" width="1.3" height="1.3"/>
	</g>
</g>
<g>
	
		<rect x="4.1" y="71.5" transform="matrix(6.123234e-17 -1 1 6.123234e-17 -57.9355 91.1657)" class="st7" width="25" height="6.1"/>
	<path class="st19" d="M13.3,61.8H20v25.6h-6.7V61.8z M19.4,62.4h-5.5v24.4h5.5V62.4z"/>
</g>
<g>
	<g>
		<path class="st20" d="M16.7,64c5.7,0,10.3,4.6,10.3,10.3c0,5.7-4.6,10.3-10.3,10.3S6.4,80.1,6.4,74.4C6.4,68.7,11,64,16.7,64z
			 M16.7,84.4c5.5,0,10-4.5,10-10s-4.5-10-10-10s-10,4.5-10,10S11.2,84.4,16.7,84.4z"/>
	</g>
	<g>
		<g>
			<path class="st4" d="M6.6,74.4c0,5.6,4.6,10.2,10.2,10.2c5.6,0,10.2-4.6,10.2-10.2c0-1.6-0.4-3.1-1-4.5H7.6
				C6.9,71.3,6.6,72.8,6.6,74.4z"/>
		</g>
		<g>
			<path class="st17" d="M16.7,64.2c-4,0-7.5,2.3-9.1,5.7h18.3C24.2,66.5,20.8,64.2,16.7,64.2z"/>
		</g>
	</g>
</g>
</svg>
