<?xml version="1.0" encoding="utf-8"?>
<!-- Generator: Adobe Illustrator 19.0.0, SVG Export Plug-In . SVG Version: 6.00 Build 0)  -->
<svg version="1.1" id="Layer_1" xmlns="http://www.w3.org/2000/svg" xmlns:xlink="http://www.w3.org/1999/xlink" x="0px" y="0px"
	 viewBox="0 0 170.1 56.7" style="enable-background:new 0 0 170.1 56.7;" xml:space="preserve">
<style type="text/css">
	.st0{fill:#C9B55E;}
	.st1{fill:#7C6B2B;}
	.st2{fill:none;}
	.st3{fill:#274A88;}
	.st4{fill:#BCBEC0;}
	.st5{fill:none;stroke:#FFFFFF;stroke-width:0.25;stroke-miterlimit:10;}
	.st6{fill:#FFFFFF;}
	.st7{fill:#FCCF54;}
	.st8{font-family:'Consolas';}
	.st9{font-size:3.5025px;}
	.st10{fill:#DDDDDC;}
	.st11{fill:#F2F2F2;}
	.st12{opacity:0.7;fill:#EDEEF2;}
	.st13{fill:#474748;}
	.st14{opacity:0.3;}
	.st15{fill:#858585;}
	.st16{opacity:0.1;fill:#858585;}
	.st17{opacity:0.3;fill:#858585;}
</style>
<g id="XMLID_85_">
	<path id="XMLID_104_" class="st0" d="M107.1,0H22.3c-2.8,0-5.5,0.5-8.1,1.4L1.9,5.5C0.8,5.9,0,7.1,0,8.3v2.9c0,1.3,0.8,2.4,1.9,2.8
		l12.3,4.2c2.6,0.9,5.4,1.4,8.1,1.4h84.8V0z"/>
	<circle id="XMLID_103_" class="st1" cx="97.9" cy="6.6" r="0.6"/>
	<circle id="XMLID_102_" class="st1" cx="97.9" cy="13.1" r="0.6"/>
	<circle id="XMLID_101_" class="st1" cx="85.1" cy="4.1" r="0.6"/>
	<circle id="XMLID_100_" class="st1" cx="85.1" cy="9.9" r="0.6"/>
	<circle id="XMLID_99_" class="st1" cx="72.2" cy="6.6" r="0.6"/>
	<circle id="XMLID_98_" class="st1" cx="72.2" cy="13.1" r="0.6"/>
	<circle id="XMLID_97_" class="st1" cx="85.1" cy="15.7" r="0.6"/>
	<circle id="XMLID_96_" class="st1" cx="59.4" cy="4.1" r="0.6"/>
	<circle id="XMLID_95_" class="st1" cx="59.4" cy="9.9" r="0.6"/>
	<circle id="XMLID_94_" class="st1" cx="46.5" cy="6.6" r="0.6"/>
	<circle id="XMLID_93_" class="st1" cx="46.5" cy="13.1" r="0.6"/>
	<circle id="XMLID_92_" class="st1" cx="59.4" cy="15.7" r="0.6"/>
	<circle id="XMLID_91_" class="st1" cx="33.7" cy="4.1" r="0.6"/>
	<circle id="XMLID_90_" class="st1" cx="33.7" cy="9.9" r="0.6"/>
	<circle id="XMLID_89_" class="st1" cx="7.8" cy="9.9" r="0.6"/>
	<circle id="XMLID_88_" class="st1" cx="20.8" cy="6.6" r="0.6"/>
	<circle id="XMLID_87_" class="st1" cx="20.8" cy="13.1" r="0.6"/>
	<circle id="XMLID_86_" class="st1" cx="33.7" cy="15.7" r="0.6"/>
</g>
<g id="XMLID_65_">
	<path id="XMLID_84_" class="st0" d="M107.1,37.3H22.3c-2.8,0-5.5,0.5-8.1,1.4L1.9,42.8C0.8,43.2,0,44.3,0,45.6v2.9
		c0,1.3,0.8,2.4,1.9,2.8l12.3,4.2c2.6,0.9,5.4,1.4,8.1,1.4h84.8V37.3z"/>
	<circle id="XMLID_83_" class="st1" cx="97.9" cy="43.9" r="0.6"/>
	<circle id="XMLID_82_" class="st1" cx="97.9" cy="50.4" r="0.6"/>
	<circle id="XMLID_81_" class="st1" cx="85.1" cy="41.4" r="0.6"/>
	<circle id="XMLID_80_" class="st1" cx="85.1" cy="47.2" r="0.6"/>
	<circle id="XMLID_79_" class="st1" cx="72.2" cy="43.9" r="0.6"/>
	<circle id="XMLID_78_" class="st1" cx="72.2" cy="50.4" r="0.6"/>
	<circle id="XMLID_77_" class="st1" cx="85.1" cy="53" r="0.6"/>
	<circle id="XMLID_76_" class="st1" cx="59.4" cy="41.4" r="0.6"/>
	<circle id="XMLID_75_" class="st1" cx="59.4" cy="47.2" r="0.6"/>
	<circle id="XMLID_74_" class="st1" cx="46.5" cy="43.9" r="0.6"/>
	<circle id="XMLID_73_" class="st1" cx="46.5" cy="50.4" r="0.6"/>
	<circle id="XMLID_72_" class="st1" cx="59.4" cy="53" r="0.6"/>
	<circle id="XMLID_71_" class="st1" cx="33.7" cy="41.4" r="0.6"/>
	<circle id="XMLID_70_" class="st1" cx="33.7" cy="47.2" r="0.6"/>
	<circle id="XMLID_69_" class="st1" cx="7.8" cy="47.2" r="0.6"/>
	<circle id="XMLID_68_" class="st1" cx="20.8" cy="43.9" r="0.6"/>
	<circle id="XMLID_67_" class="st1" cx="20.8" cy="50.4" r="0.6"/>
	<circle id="XMLID_66_" class="st1" cx="33.7" cy="53" r="0.6"/>
</g>
<g id="XMLID_55_">
	<circle id="XMLID_64_" class="st2" cx="142.3" cy="0" r="3.4"/>
	<path id="XMLID_63_" class="st2" d="M142.3,53.3c-1.9,0-3.4,1.5-3.4,3.4c0,0,0,0,0,0c0,1.9,1.5,3.4,3.4,3.4s3.4-1.5,3.4-3.4
		c0,0,0,0,0,0C145.7,54.8,144.2,53.3,142.3,53.3z"/>
	<path id="XMLID_62_" class="st3" d="M167.3,0h-19c0,3.3-2.7,6-6,6s-6-2.7-6-6h-29.3v19.8c4.7,0,8.6,3.8,8.6,8.6s-3.8,8.6-8.6,8.6
		v19.8h29.3c0-3.3,2.7-6,6-6s6,2.7,6,6h19c1.6,0,2.8-1.3,2.8-2.8V2.8C170.1,1.3,168.8,0,167.3,0z"/>
	<path id="XMLID_59_" class="st3" d="M142.3,6c3.3,0,6-2.7,6-6s-2.7-6-6-6s-6,2.7-6,6S139,6,142.3,6z M142.3-3.4
		c1.9,0,3.4,1.5,3.4,3.4s-1.5,3.4-3.4,3.4s-3.4-1.5-3.4-3.4S140.5-3.4,142.3-3.4z"/>
	<path id="XMLID_56_" class="st3" d="M142.3,50.7c-3.3,0-6,2.7-6,6c0,0,0,0,0,0c0,3.3,2.7,6,6,6s6-2.7,6-6c0,0,0,0,0,0
		C148.3,53.4,145.6,50.7,142.3,50.7z M142.3,60.1c-1.9,0-3.4-1.5-3.4-3.4c0,0,0,0,0,0c0-1.9,1.5-3.4,3.4-3.4s3.4,1.5,3.4,3.4
		c0,0,0,0,0,0C145.7,58.6,144.2,60.1,142.3,60.1z"/>
</g>
<rect id="XMLID_109_" x="160.1" y="17" class="st4" width="9" height="25.5"/>
<g id="XMLID_110_">
	<rect id="XMLID_142_" x="119.3" y="14.1" class="st5" width="9.7" height="5.6"/>
	<g id="XMLID_137_">
		<rect id="XMLID_141_" x="120.2" y="15.2" class="st6" width="1.4" height="3.5"/>
		<rect id="XMLID_139_" x="126.7" y="15.2" class="st6" width="1.4" height="3.5"/>
		<rect id="XMLID_138_" x="121.6" y="15.2" class="st7" width="5.2" height="3.5"/>
	</g>
</g>
<g id="XMLID_146_">
	<rect id="XMLID_219_" x="119.3" y="38.6" class="st5" width="9.7" height="5.6"/>
	<g id="XMLID_187_">
		<rect id="XMLID_212_" x="120.2" y="39.6" class="st6" width="1.4" height="3.5"/>
		<rect id="XMLID_211_" x="126.7" y="39.6" class="st6" width="1.4" height="3.5"/>
		<rect id="XMLID_199_" x="121.6" y="39.6" class="st7" width="5.2" height="3.5"/>
	</g>
</g>
<text id="XMLID_143_" transform="matrix(1 0 0 1 135.9184 21.3588)" class="st6 st8 st9">SIG</text>
<text id="XMLID_227_" transform="matrix(1 0 0 1 135.919 32.3444)" class="st6 st8 st9">UCC</text>
<text id="XMLID_231_" transform="matrix(1 0 0 1 135.9193 38.2269)" class="st6 st8 st9">GND</text>
<text id="XMLID_223_" transform="matrix(0 1 -1 0 116.1536 14.9843)" class="st6 st8 st9">R1</text>
<text id="XMLID_247_" transform="matrix(0 1 -1 0 118.1536 27.1735)" class="st6 st8 st9">Q2</text>
<text id="XMLID_239_" transform="matrix(0 1 -1 0 116.1536 39.4873)" class="st6 st8 st9">R2</text>
<g id="XMLID_140_">
	<g id="XMLID_319_">
		<rect id="XMLID_381_" x="145.5" y="36.4" class="st10" width="6" height="1.7"/>
		<path id="XMLID_379_" class="st11" d="M142.6,37.2L142.6,37.2c0,0.5,0.4,0.8,0.8,0.8h2v-1.7h-2C143,36.4,142.6,36.7,142.6,37.2z"
			/>
	</g>
	<g id="XMLID_193_">
		<rect id="XMLID_308_" x="145.5" y="30.7" class="st10" width="6" height="1.7"/>
		<path id="XMLID_200_" class="st11" d="M142.6,31.5L142.6,31.5c0,0.5,0.4,0.8,0.8,0.8h2v-1.7h-2C143,30.7,142.6,31.1,142.6,31.5z"
			/>
	</g>
	<g id="XMLID_149_">
		<rect id="XMLID_188_" x="145.5" y="25" class="st10" width="6" height="1.7"/>
		<path id="XMLID_182_" class="st11" d="M142.6,25.8L142.6,25.8c0,0.5,0.4,0.8,0.8,0.8h2V25h-2C143,25,142.6,25.4,142.6,25.8z"/>
	</g>
	<g id="XMLID_144_">
		<rect id="XMLID_147_" x="145.5" y="19.3" class="st10" width="6" height="1.7"/>
		<path id="XMLID_145_" class="st11" d="M142.6,20.1L142.6,20.1c0,0.5,0.4,0.8,0.8,0.8h2v-1.7h-2C143,19.3,142.6,19.7,142.6,20.1z"
			/>
	</g>
</g>
<g id="XMLID_738_">
	<rect id="XMLID_741_" x="159.5" y="36.8" class="st10" width="6" height="1.7"/>
	<path id="XMLID_739_" class="st11" d="M168.3,37.6L168.3,37.6c0,0.5-0.4,0.8-0.8,0.8h-2v-1.7h2C168,36.8,168.3,37.1,168.3,37.6z"/>
</g>
<g id="XMLID_1_">
	<g id="XMLID_733_">
		<rect id="XMLID_736_" x="159.5" y="31.1" class="st10" width="6" height="1.7"/>
		<path id="XMLID_735_" class="st11" d="M168.3,31.9L168.3,31.9c0,0.5-0.4,0.8-0.8,0.8h-2v-1.7h2C168,31.1,168.3,31.5,168.3,31.9z"
			/>
	</g>
	<g id="XMLID_729_">
		<rect id="XMLID_732_" x="159.5" y="25.4" class="st10" width="6" height="1.7"/>
		<path id="XMLID_730_" class="st11" d="M168.3,26.2L168.3,26.2c0,0.5-0.4,0.8-0.8,0.8h-2v-1.7h2C168,25.4,168.3,25.8,168.3,26.2z"
			/>
	</g>
</g>
<g id="XMLID_724_">
	<rect id="XMLID_727_" x="159.5" y="19.7" class="st10" width="6" height="1.7"/>
	<path id="XMLID_726_" class="st11" d="M168.3,20.6L168.3,20.6c0,0.5-0.4,0.8-0.8,0.8h-2v-1.7h2C168,19.7,168.3,20.1,168.3,20.6z"/>
</g>
<g id="XMLID_759_">
	<rect id="XMLID_814_" x="122.7" y="30.5" class="st12" width="3.1" height="3.1"/>
	<rect id="XMLID_813_" x="123.1" y="30.9" class="st12" width="2.7" height="2.3"/>
	<rect id="XMLID_812_" x="130.1" y="28" class="st12" width="2.7" height="2.3"/>
	<rect id="XMLID_811_" x="123.1" y="25" class="st12" width="2.7" height="2.3"/>
	<rect id="XMLID_810_" x="122.7" y="24.5" class="st12" width="3.1" height="3.1"/>
	<rect id="XMLID_766_" x="130.1" y="27.6" class="st12" width="3.1" height="3.1"/>
	<rect id="XMLID_765_" x="130.1" y="28.6" class="st6" width="1.8" height="0.9"/>
	<rect id="XMLID_763_" x="124.1" y="31.6" class="st6" width="1.8" height="0.9"/>
	<rect id="XMLID_762_" x="124.1" y="25.6" class="st6" width="1.8" height="0.9"/>
	<rect id="XMLID_760_" x="125.8" y="24.1" class="st13" width="4.3" height="10.1"/>
</g>
<g id="XMLID_112_">
	<g id="XMLID_107_">
		<g id="XMLID_124_">
			<rect id="XMLID_136_" x="148.3" y="10.3" class="st6" width="16.8" height="36.7"/>
			<g id="XMLID_134_" class="st14">
				<rect id="XMLID_130_" x="158.9" y="21.6" class="st15" width="6.2" height="13.2"/>
				<rect id="XMLID_135_" x="159.6" y="22.4" class="st6" width="5.5" height="11.8"/>
			</g>
			<rect id="XMLID_133_" x="161.5" y="21.6" class="st16" width="3.6" height="13"/>
			<g id="XMLID_125_">
				<path id="XMLID_132_" class="st17" d="M170,13.2c-0.1,0-0.2,0-0.3,0c-1.9,0-3-1.3-3.2-2.9h-15.6v6.1H170V13.2z"/>
				<polygon id="XMLID_127_" class="st6" points="170,13.2 167.6,13.2 167.6,10.2 151.9,10.2 151.9,15.2 170,15.2 				"/>
			</g>
		</g>
		<g id="XMLID_114_">
			<rect id="XMLID_128_" x="165.1" y="12.9" class="st6" width="4.9" height="7.2"/>
			<g id="XMLID_115_">
				<path id="XMLID_131_" class="st17" d="M170,13.9c-0.1,0-0.2,0-0.3,0.1c-2.9,1.5-3-1.7-3.2-3.5h-15.6v7.5H170V13.9z"/>
				<polygon id="XMLID_123_" class="st6" points="170,14.2 167.6,14.2 167.6,10.2 151.9,10.2 151.9,16.9 170,16.9 				"/>
				<rect id="XMLID_116_" x="165.1" y="17.9" class="st17" width="0.3" height="2.1"/>
			</g>
		</g>
		<g id="XMLID_27_">
			<rect id="XMLID_121_" x="165.1" y="37.6" class="st6" width="4.9" height="6.8"/>
			<g id="XMLID_105_">
				<path id="XMLID_129_" class="st17" d="M170,38.9h-19.1v7.8h15.6c0.2-1.9,0.8-5.2,3.2-3.6c0.1,0.1,0.2,0.1,0.3,0.1V38.9z"/>
				<polygon id="XMLID_119_" class="st6" points="170,39.5 151.9,39.5 151.9,47.2 167.6,47.2 167.6,43.3 170,43.3 				"/>
				<rect id="XMLID_106_" x="165.1" y="37.6" class="st17" width="0.3" height="1.4"/>
			</g>
		</g>
	</g>
	<rect id="XMLID_108_" x="145" y="10.3" class="st6" width="4.9" height="3.1"/>
	<rect id="XMLID_111_" x="144.9" y="43.9" class="st6" width="4.9" height="3.1"/>
</g>
</svg>
