<?xml version="1.0" encoding="utf-8"?>
<!-- Generator: Adobe Illustrator 24.3.0, SVG Export Plug-In . SVG Version: 6.00 Build 0)  -->
<svg version="1.1" id="Layer_1" xmlns="http://www.w3.org/2000/svg" xmlns:xlink="http://www.w3.org/1999/xlink" x="0px" y="0px"
	 viewBox="0 0 68.7 170.1" style="enable-background:new 0 0 68.7 170.1;" xml:space="preserve">
<style type="text/css">
	.st0{fill:#C9B55E;}
	.st1{fill:#7C6B2B;}
	.st2{fill:none;}
	.st3{fill:#274A88;}
	.st4{fill:#BCBEC0;}
	.st5{fill:none;stroke:#FFFFFF;stroke-width:0.25;stroke-miterlimit:10;}
	.st6{fill:#FFFFFF;}
	.st7{fill:#FCCF54;}
	.st8{font-family:'ArialMT';}
	.st9{font-size:3.5025px;}
	.st10{fill:#DDDDDC;}
	.st11{fill:#F2F2F2;}
	.st12{opacity:0.7;fill:#EDEEF2;enable-background:new    ;}
	.st13{fill:#474748;}
	.st14{opacity:0.3;}
	.st15{fill:#858585;}
	.st16{opacity:0.1;fill:#858585;enable-background:new    ;}
	.st17{opacity:0.3;fill:#858585;enable-background:new    ;}
</style>
<g>
	<g id="XMLID_85_">
		<path id="XMLID_104_" class="st0" d="M62.7,107.1V22.3c0-2.8-0.5-5.5-1.4-8.1L57.2,1.9C56.8,0.8,55.6,0,54.4,0h-2.9
			c-1.3,0-2.4,0.8-2.8,1.9l-4.2,12.3c-0.9,2.6-1.4,5.4-1.4,8.1v84.8C43.1,107.1,62.7,107.1,62.7,107.1z"/>
		<circle id="XMLID_103_" class="st1" cx="56.1" cy="97.9" r="0.6"/>
		<circle id="XMLID_102_" class="st1" cx="49.6" cy="97.9" r="0.6"/>
		<circle id="XMLID_101_" class="st1" cx="58.6" cy="85.1" r="0.6"/>
		<circle id="XMLID_100_" class="st1" cx="52.8" cy="85.1" r="0.6"/>
		<circle id="XMLID_99_" class="st1" cx="56.1" cy="72.2" r="0.6"/>
		<circle id="XMLID_98_" class="st1" cx="49.6" cy="72.2" r="0.6"/>
		<circle id="XMLID_97_" class="st1" cx="47" cy="85.1" r="0.6"/>
		<circle id="XMLID_96_" class="st1" cx="58.6" cy="59.4" r="0.6"/>
		<circle id="XMLID_95_" class="st1" cx="52.8" cy="59.4" r="0.6"/>
		<circle id="XMLID_94_" class="st1" cx="56.1" cy="46.5" r="0.6"/>
		<circle id="XMLID_93_" class="st1" cx="49.6" cy="46.5" r="0.6"/>
		<circle id="XMLID_92_" class="st1" cx="47" cy="59.4" r="0.6"/>
		<circle id="XMLID_91_" class="st1" cx="58.6" cy="33.7" r="0.6"/>
		<circle id="XMLID_90_" class="st1" cx="52.8" cy="33.7" r="0.6"/>
		<circle id="XMLID_89_" class="st1" cx="52.8" cy="7.8" r="0.6"/>
		<circle id="XMLID_88_" class="st1" cx="56.1" cy="20.8" r="0.6"/>
		<circle id="XMLID_87_" class="st1" cx="49.6" cy="20.8" r="0.6"/>
		<circle id="XMLID_86_" class="st1" cx="47" cy="33.7" r="0.6"/>
	</g>
	<g id="XMLID_65_">
		<path id="XMLID_84_" class="st0" d="M25.4,107.1V22.3c0-2.8-0.5-5.5-1.4-8.1L19.9,1.9C19.5,0.8,18.4,0,17.1,0h-2.9
			c-1.3,0-2.4,0.8-2.8,1.9L7.2,14.2c-0.9,2.6-1.4,5.4-1.4,8.1v84.8C5.8,107.1,25.4,107.1,25.4,107.1z"/>
		<circle id="XMLID_83_" class="st1" cx="18.8" cy="97.9" r="0.6"/>
		<circle id="XMLID_82_" class="st1" cx="12.3" cy="97.9" r="0.6"/>
		<circle id="XMLID_81_" class="st1" cx="21.3" cy="85.1" r="0.6"/>
		<circle id="XMLID_80_" class="st1" cx="15.5" cy="85.1" r="0.6"/>
		<circle id="XMLID_79_" class="st1" cx="18.8" cy="72.2" r="0.6"/>
		<circle id="XMLID_78_" class="st1" cx="12.3" cy="72.2" r="0.6"/>
		<circle id="XMLID_77_" class="st1" cx="9.7" cy="85.1" r="0.6"/>
		<circle id="XMLID_76_" class="st1" cx="21.3" cy="59.4" r="0.6"/>
		<circle id="XMLID_75_" class="st1" cx="15.5" cy="59.4" r="0.6"/>
		<circle id="XMLID_74_" class="st1" cx="18.8" cy="46.5" r="0.6"/>
		<circle id="XMLID_73_" class="st1" cx="12.3" cy="46.5" r="0.6"/>
		<circle id="XMLID_72_" class="st1" cx="9.7" cy="59.4" r="0.6"/>
		<circle id="XMLID_71_" class="st1" cx="21.3" cy="33.7" r="0.6"/>
		<circle id="XMLID_70_" class="st1" cx="15.5" cy="33.7" r="0.6"/>
		<circle id="XMLID_69_" class="st1" cx="15.5" cy="7.8" r="0.6"/>
		<circle id="XMLID_68_" class="st1" cx="18.8" cy="20.8" r="0.6"/>
		<circle id="XMLID_67_" class="st1" cx="12.3" cy="20.8" r="0.6"/>
		<circle id="XMLID_66_" class="st1" cx="9.7" cy="33.7" r="0.6"/>
	</g>
	<g id="XMLID_55_">
		<circle id="XMLID_64_" class="st2" cx="62.7" cy="142.3" r="3.4"/>
		<path id="XMLID_63_" class="st2" d="M9.4,142.3c0-1.9-1.5-3.4-3.4-3.4l0,0c-1.9,0-3.4,1.5-3.4,3.4s1.5,3.4,3.4,3.4l0,0
			C7.9,145.7,9.4,144.2,9.4,142.3z"/>
		<path id="XMLID_62_" class="st3" d="M62.7,167.3v-19c-3.3,0-6-2.7-6-6s2.7-6,6-6V107H42.9c0,4.7-3.8,8.6-8.6,8.6s-8.6-3.8-8.6-8.6
			H5.9v29.3c3.3,0,6,2.7,6,6s-2.7,6-6,6v19c0,1.6,1.3,2.8,2.8,2.8h51.2C61.4,170.1,62.7,168.8,62.7,167.3z"/>
		<path id="XMLID_59_" class="st3" d="M56.7,142.3c0,3.3,2.7,6,6,6c3.3,0,6-2.7,6-6s-2.7-6-6-6C59.4,136.3,56.7,139,56.7,142.3z
			 M66.1,142.3c0,1.9-1.5,3.4-3.4,3.4s-3.4-1.5-3.4-3.4s1.5-3.4,3.4-3.4S66.1,140.5,66.1,142.3z"/>
		<path id="XMLID_56_" class="st3" d="M12,142.3c0-3.3-2.7-6-6-6l0,0c-3.3,0-6,2.7-6,6s2.7,6,6,6l0,0C9.3,148.3,12,145.6,12,142.3z
			 M2.6,142.3c0-1.9,1.5-3.4,3.4-3.4l0,0c1.9,0,3.4,1.5,3.4,3.4s-1.5,3.4-3.4,3.4l0,0C4.1,145.7,2.6,144.2,2.6,142.3z"/>
	</g>
	<rect id="XMLID_109_" x="20.2" y="160.1" class="st4" width="25.5" height="9"/>
	<g id="XMLID_110_">
		<rect id="XMLID_142_" x="43" y="119.3" class="st5" width="5.6" height="9.7"/>
		<g id="XMLID_137_">
			<rect id="XMLID_141_" x="44" y="120.2" class="st6" width="3.5" height="1.4"/>
			<rect id="XMLID_139_" x="44" y="126.7" class="st6" width="3.5" height="1.4"/>
			<rect id="XMLID_138_" x="44" y="121.6" class="st7" width="3.5" height="5.2"/>
		</g>
	</g>
	<g id="XMLID_146_">
		<rect id="XMLID_219_" x="18.5" y="119.3" class="st5" width="5.6" height="9.7"/>
		<g id="XMLID_187_">
			<rect id="XMLID_212_" x="19.6" y="120.2" class="st6" width="3.5" height="1.4"/>
			<rect id="XMLID_211_" x="19.6" y="126.7" class="st6" width="3.5" height="1.4"/>
			<rect id="XMLID_199_" x="19.6" y="121.6" class="st7" width="3.5" height="5.2"/>
		</g>
	</g>
	<text id="XMLID_143_" transform="matrix(6.123234e-17 1 -1 6.123234e-17 41.341 133.9184)" class="st6 st8 st9">SIG</text>
	<text id="XMLID_227_" transform="matrix(6.123234e-17 1 -1 6.123234e-17 30.3547 133.919)" class="st6 st8 st9">VCC</text>
	<text id="XMLID_231_" transform="matrix(6.123234e-17 1 -1 6.123234e-17 24.4738 133.9193)" class="st6 st8 st9">GND</text>
	<text id="XMLID_223_" transform="matrix(-1 0 0 -1 47.716 116.1546)" class="st6 st8 st9">R1</text>
	<text id="XMLID_247_" transform="matrix(-1 0 0 -1 35.5266 118.1546)" class="st6 st8 st9">Q2</text>
	<text id="XMLID_239_" transform="matrix(-1 0 0 -1 23.2131 116.1546)" class="st6 st8 st9">R2</text>
	<g id="XMLID_140_">
		<g id="XMLID_319_">
			<rect id="XMLID_381_" x="24.6" y="145.5" class="st10" width="1.7" height="6"/>
			<path id="XMLID_379_" class="st11" d="M25.5,142.6L25.5,142.6c-0.5,0-0.8,0.4-0.8,0.8v2h1.7v-2C26.3,143,26,142.6,25.5,142.6z"/>
		</g>
		<g id="XMLID_193_">
			<rect id="XMLID_308_" x="30.3" y="145.5" class="st10" width="1.7" height="6"/>
			<path id="XMLID_200_" class="st11" d="M31.2,142.6L31.2,142.6c-0.5,0-0.8,0.4-0.8,0.8v2h1.7v-2C32,143,31.6,142.6,31.2,142.6z"/>
		</g>
		<g id="XMLID_149_">
			<rect id="XMLID_188_" x="36" y="145.5" class="st10" width="1.7" height="6"/>
			<path id="XMLID_182_" class="st11" d="M36.9,142.6L36.9,142.6c-0.5,0-0.8,0.4-0.8,0.8v2h1.6v-2C37.7,143,37.3,142.6,36.9,142.6z"
				/>
		</g>
		<g id="XMLID_144_">
			<rect id="XMLID_147_" x="41.7" y="145.5" class="st10" width="1.7" height="6"/>
			<path id="XMLID_145_" class="st11" d="M42.6,142.6L42.6,142.6c-0.5,0-0.8,0.4-0.8,0.8v2h1.7v-2C43.4,143,43,142.6,42.6,142.6z"/>
		</g>
	</g>
	<g id="XMLID_738_">
		<rect id="XMLID_741_" x="24.2" y="159.5" class="st10" width="1.7" height="6"/>
		<path id="XMLID_739_" class="st11" d="M25.1,168.3L25.1,168.3c-0.5,0-0.8-0.4-0.8-0.8v-2H26v2C25.9,168,25.6,168.3,25.1,168.3z"/>
	</g>
	<g id="XMLID_1_">
		<g id="XMLID_733_">
			<rect id="XMLID_736_" x="29.9" y="159.5" class="st10" width="1.7" height="6"/>
			<path id="XMLID_735_" class="st11" d="M30.8,168.3L30.8,168.3c-0.5,0-0.8-0.4-0.8-0.8v-2h1.7v2C31.6,168,31.2,168.3,30.8,168.3z"
				/>
		</g>
		<g id="XMLID_729_">
			<rect id="XMLID_732_" x="35.6" y="159.5" class="st10" width="1.7" height="6"/>
			<path id="XMLID_730_" class="st11" d="M36.5,168.3L36.5,168.3c-0.5,0-0.8-0.4-0.8-0.8v-2h1.7v2C37.3,168,36.9,168.3,36.5,168.3z"
				/>
		</g>
	</g>
	<g id="XMLID_724_">
		<rect id="XMLID_727_" x="41.3" y="159.5" class="st10" width="1.7" height="6"/>
		<path id="XMLID_726_" class="st11" d="M42.1,168.3L42.1,168.3c-0.5,0-0.8-0.4-0.8-0.8v-2H43v2C43,168,42.6,168.3,42.1,168.3z"/>
	</g>
	<g id="XMLID_759_">
		<rect id="XMLID_814_" x="29.1" y="122.7" class="st12" width="3.1" height="3.1"/>
		<rect id="XMLID_813_" x="29.5" y="123.1" class="st12" width="2.3" height="2.7"/>
		<rect id="XMLID_812_" x="32.4" y="130.1" class="st12" width="2.3" height="2.7"/>
		<rect id="XMLID_811_" x="35.4" y="123.1" class="st12" width="2.3" height="2.7"/>
		<rect id="XMLID_810_" x="35.1" y="122.7" class="st12" width="3.1" height="3.1"/>
		<rect id="XMLID_766_" x="32" y="130.1" class="st12" width="3.1" height="3.1"/>
		<rect id="XMLID_765_" x="33.2" y="130.1" class="st6" width="0.9" height="1.8"/>
		<rect id="XMLID_763_" x="30.2" y="124.1" class="st6" width="0.9" height="1.8"/>
		<rect id="XMLID_762_" x="36.2" y="124.1" class="st6" width="0.9" height="1.8"/>
		<rect id="XMLID_760_" x="28.5" y="125.8" class="st13" width="10.1" height="4.3"/>
	</g>
	<g id="XMLID_112_">
		<g id="XMLID_107_">
			<g id="XMLID_124_">
				<rect id="XMLID_136_" x="16.1" y="148.3" class="st6" width="36.7" height="16.8"/>
				<g id="XMLID_134_" class="st14">
					<rect id="XMLID_130_" x="28.3" y="158.9" class="st15" width="13.2" height="6.2"/>
					<rect id="XMLID_135_" x="28.9" y="159.6" class="st6" width="11.8" height="5.5"/>
				</g>
				<rect id="XMLID_133_" x="28.5" y="161.5" class="st16" width="13" height="3.6"/>
				<g id="XMLID_125_">
					<path id="XMLID_132_" class="st17" d="M49.9,170c0-0.1,0-0.2,0-0.3c0-1.9,1.3-3,2.9-3.2v-15.6h-6.1V170H49.9z"/>
					<polygon id="XMLID_127_" class="st6" points="49.9,170 49.9,167.6 52.9,167.6 52.9,151.9 47.9,151.9 47.9,170 					"/>
				</g>
			</g>
			<g id="XMLID_114_">
				<rect id="XMLID_128_" x="43" y="165.1" class="st6" width="7.2" height="4.9"/>
				<g id="XMLID_115_">
					<path id="XMLID_131_" class="st17" d="M49.2,170c0-0.1,0-0.2-0.1-0.3c-1.5-2.9,1.7-3,3.5-3.2v-15.6h-7.5V170H49.2z"/>
					<polygon id="XMLID_123_" class="st6" points="48.9,170 48.9,167.6 52.9,167.6 52.9,151.9 46.2,151.9 46.2,170 					"/>
					<rect id="XMLID_116_" x="43.1" y="165.1" class="st17" width="2.1" height="0.3"/>
				</g>
			</g>
			<g id="XMLID_27_">
				<rect id="XMLID_121_" x="18.7" y="165.1" class="st6" width="6.8" height="4.9"/>
				<g id="XMLID_105_">
					<path id="XMLID_129_" class="st17" d="M24.2,170v-19.1h-7.8v15.6c1.9,0.2,5.2,0.8,3.6,3.2c-0.1,0.1-0.1,0.2-0.1,0.3H24.2z"/>
					<polygon id="XMLID_119_" class="st6" points="23.6,170 23.6,151.9 15.9,151.9 15.9,167.6 19.8,167.6 19.8,170 					"/>
					<rect id="XMLID_106_" x="24.1" y="165.1" class="st17" width="1.4" height="0.3"/>
				</g>
			</g>
		</g>
		<rect id="XMLID_108_" x="49.7" y="145" class="st6" width="3.1" height="4.9"/>
		<rect id="XMLID_111_" x="16.1" y="144.9" class="st6" width="3.1" height="4.9"/>
	</g>
</g>
</svg>
