<?xml version="1.0" encoding="utf-8"?>
<!-- Generator: Adobe Illustrator 23.0.1, SVG Export Plug-In . SVG Version: 6.00 Build 0)  -->
<svg version="1.1" id="Layer_1" xmlns="http://www.w3.org/2000/svg" xmlns:xlink="http://www.w3.org/1999/xlink" x="0px" y="0px"
	 viewBox="0 0 56.7 90.7" style="enable-background:new 0 0 56.7 90.7;" xml:space="preserve">
<style type="text/css">
	.st0{fill:#1D2856;}
	.st1{enable-background:new    ;}
	.st2{fill:#FFFFFF;}
	.st3{fill:#BE9349;}
	.st4{fill:#E46035;}
	.st5{fill:#CECECD;}
	.st6{opacity:0.8;}
	.st7{clip-path:url(#SVGID_2_);}
	.st8{fill:none;stroke:#231F20;stroke-width:0.5;stroke-miterlimit:10;}
</style>
<path class="st0" d="M0,0v90.7h56.7V0H0z M6,87.7c-2.3,0-4.3-1.9-4.3-4.3c0-2.3,1.9-4.3,4.3-4.3c2.3,0,4.3,1.9,4.3,4.3
	S8.4,87.7,6,87.7z M6,10.6c-2.3,0-4.3-1.9-4.3-4.3C1.8,4,3.7,2.1,6,2.1s4.3,1.9,4.3,4.3C10.3,8.7,8.4,10.6,6,10.6z M19.2,86.4
	c0.1,0.9-0.7,1.7-1.7,1.7s-1.7-0.8-1.7-1.7v-1c0-1,0.8-1.7,1.7-1.7c1,0,1.7,0.8,1.7,1.7V86.4z M26.5,86.4c0,0.9-0.8,1.7-1.7,1.7
	c-1,0-1.7-0.8-1.7-1.7v-1c0-1,0.8-1.7,1.7-1.7c1,0,1.7,0.8,1.7,1.7V86.4z M33.7,86.4c0.1,0.9-0.7,1.7-1.7,1.7s-1.7-0.8-1.7-1.7v-1
	c0-1,0.8-1.7,1.7-1.7c1,0,1.7,0.8,1.7,1.7V86.4z M40.8,86.4c0,0.9-0.8,1.7-1.7,1.7c-1,0-1.7-0.8-1.7-1.7v-1c0-1,0.8-1.7,1.7-1.7
	c1,0,1.7,0.8,1.7,1.7V86.4z M50.2,87.7c-2.3,0-4.3-1.9-4.3-4.3c0-2.3,1.9-4.3,4.3-4.3c2.3,0,4.3,1.9,4.3,4.3S52.6,87.7,50.2,87.7z
	 M50.2,10.6c-2.3,0-4.3-1.9-4.3-4.3C45.9,4,47.8,2,50.2,2c2.3,0,4.3,1.9,4.3,4.3C54.5,8.7,52.6,10.6,50.2,10.6z"/>
<g>
	<g>
		<g class="st1">
			<path class="st2" d="M19.3,80.7l-3.4,1.1v-0.5l2.7-0.8l-2.7-0.8v-0.5l3.4,1.1V80.7z"/>
			<path class="st2" d="M19.4,77.6c0,0.2-0.1,0.4-0.2,0.6s-0.3,0.3-0.4,0.4c-0.2,0.1-0.4,0.1-0.7,0.1h-0.9c-0.3,0-0.5,0-0.7-0.1
				s-0.3-0.2-0.4-0.4c-0.1-0.2-0.2-0.4-0.2-0.6s0-0.4,0.1-0.5c0.1-0.2,0.2-0.3,0.4-0.4s0.3-0.2,0.5-0.2V77c-0.1,0-0.2,0.1-0.3,0.1
				c-0.1,0.1-0.1,0.2-0.2,0.2c0,0.1-0.1,0.2-0.1,0.3c0,0.2,0.1,0.4,0.2,0.5s0.3,0.2,0.6,0.2H18c0.2,0,0.4-0.1,0.6-0.2
				c0.1-0.1,0.2-0.3,0.2-0.5c0-0.1,0-0.3-0.1-0.4s-0.2-0.2-0.4-0.3v-0.5c0.2,0,0.4,0.1,0.5,0.2s0.3,0.2,0.3,0.4S19.4,77.4,19.4,77.6
				z"/>
			<path class="st2" d="M19.4,74.6c0,0.2-0.1,0.4-0.2,0.6s-0.3,0.3-0.4,0.4c-0.2,0.1-0.4,0.1-0.7,0.1h-0.9c-0.3,0-0.5,0-0.7-0.1
				s-0.3-0.2-0.4-0.4c-0.1-0.2-0.2-0.4-0.2-0.6s0-0.4,0.1-0.5c0.1-0.2,0.2-0.3,0.4-0.4s0.3-0.2,0.5-0.2V74c-0.1,0-0.2,0.1-0.3,0.1
				c-0.1,0.1-0.1,0.2-0.2,0.2s-0.1,0.2-0.1,0.3c0,0.2,0.1,0.4,0.2,0.5s0.3,0.2,0.6,0.2H18c0.2,0,0.4-0.1,0.6-0.2
				c0.1-0.1,0.2-0.3,0.2-0.5c0-0.1,0-0.3-0.1-0.4s-0.2-0.2-0.4-0.3v-0.5c0.2,0,0.4,0.1,0.5,0.2s0.3,0.2,0.3,0.4
				C19.3,74.2,19.4,74.4,19.4,74.6z"/>
		</g>
	</g>
	<g>
		<path class="st3" d="M17.5,82.9c-1.3,0-2.3,1-2.3,2.3v1.3c0,1.3,1,2.3,2.3,2.3s2.3-1,2.3-2.3v-1.3C19.8,83.9,18.8,82.9,17.5,82.9z
			 M19.2,86.4c0.1,0.9-0.7,1.7-1.7,1.7s-1.7-0.8-1.7-1.7v-1c0-1,0.8-1.7,1.7-1.7c1,0,1.7,0.8,1.7,1.7V86.4z"/>
	</g>
	<g>
		<g class="st1">
			<path class="st2" d="M24.6,80.3v-1.2h0.6c0.3,0,0.5,0,0.7,0.1s0.3,0.2,0.4,0.4s0.2,0.4,0.2,0.6s0,0.5-0.1,0.6
				c-0.1,0.2-0.2,0.3-0.4,0.4c-0.2,0.1-0.4,0.1-0.6,0.1h-1c-0.3,0-0.5,0-0.7-0.1s-0.3-0.2-0.4-0.4c-0.1-0.2-0.2-0.4-0.2-0.6
				s0-0.4,0.1-0.5c0.1-0.2,0.2-0.3,0.4-0.4c0.2-0.1,0.3-0.2,0.5-0.2v0.5c-0.2,0-0.3,0.1-0.4,0.3c-0.1,0.1-0.1,0.3-0.1,0.4
				c0,0.2,0.1,0.4,0.2,0.5c0,0.2,0.2,0.2,0.5,0.2h1c0.2,0,0.4-0.1,0.5-0.2s0.2-0.3,0.2-0.5s-0.1-0.4-0.2-0.5s-0.3-0.2-0.6-0.2h-0.1
				v0.7C25.1,80.3,24.6,80.3,24.6,80.3z"/>
			<path class="st2" d="M26.4,78.4H23V78l2.6-1.7l0.1,0.1H23v-0.5h3.4v0.4L23.9,78l-0.1-0.1h2.6V78.4z"/>
			<path class="st2" d="M26.4,74.7h-0.5V74c0-0.2-0.1-0.4-0.2-0.6c-0.1-0.1-0.3-0.2-0.5-0.2h-1c-0.2,0-0.4,0.1-0.5,0.2
				s-0.2,0.3-0.2,0.6v0.8H23V74c0-0.4,0.1-0.7,0.3-1c0.2-0.2,0.5-0.3,0.9-0.3h1c0.4,0,0.7,0.1,0.9,0.3s0.3,0.5,0.3,1
				C26.4,74,26.4,74.7,26.4,74.7z M26.4,75H23v-0.5h3.4V75z"/>
		</g>
	</g>
	<g>
		<path class="st3" d="M24.8,82.9c-1.3,0-2.3,1-2.3,2.3v1.3c0,1.3,1,2.3,2.3,2.3c1.2,0,2.3-1,2.3-2.3v-1.3
			C27,83.9,26,82.9,24.8,82.9z M26.5,86.4c0,0.9-0.8,1.7-1.7,1.7c-1,0-1.7-0.8-1.7-1.7v-1c0-1,0.8-1.7,1.7-1.7c1,0,1.7,0.8,1.7,1.7
			V86.4z"/>
	</g>
	<g>
		<g class="st1">
			<path class="st2" d="M33.6,81.1h-0.5v-0.8c0-0.2-0.1-0.4-0.2-0.6c-0.1-0.1-0.3-0.2-0.5-0.2h-1c-0.2,0-0.4,0.1-0.5,0.2
				s-0.2,0.3-0.2,0.6v0.8h-0.5v-0.8c0-0.4,0.1-0.7,0.3-1c0.2-0.2,0.5-0.3,0.9-0.3h1c0.4,0,0.7,0.1,0.9,0.3c0.2,0.2,0.3,0.5,0.3,1
				V81.1z M33.6,81.5h-3.4V81h3.4V81.5z"/>
			<path class="st2" d="M33.7,77.2c0,0.2-0.1,0.4-0.2,0.6c-0.1,0.2-0.2,0.3-0.4,0.4s-0.4,0.1-0.7,0.1h-1c-0.2,0-0.5,0-0.7-0.1
				s-0.3-0.2-0.4-0.4c-0.1-0.2-0.2-0.4-0.2-0.6s0.1-0.4,0.2-0.6s0.2-0.3,0.4-0.4s0.4-0.1,0.7-0.1h1c0.2,0,0.5,0,0.7,0.1
				s0.3,0.2,0.4,0.4S33.7,77,33.7,77.2z M33.2,77.2c0-0.2-0.1-0.4-0.2-0.5s-0.3-0.2-0.6-0.2h-1c-0.2,0-0.4,0.1-0.6,0.2
				s-0.2,0.3-0.2,0.5s0.1,0.4,0.2,0.5s0.3,0.2,0.6,0.2h1c0.2,0,0.4-0.1,0.6-0.2S33.2,77.4,33.2,77.2z"/>
		</g>
	</g>
	<g>
		<path class="st3" d="M32,82.9c-1.3,0-2.3,1-2.3,2.3v1.3c0,1.3,1,2.3,2.3,2.3s2.3-1,2.3-2.3v-1.3C34.2,83.9,33.2,82.9,32,82.9z
			 M33.7,86.4c0.1,0.9-0.7,1.7-1.7,1.7s-1.7-0.8-1.7-1.7v-1c0-1,0.8-1.7,1.7-1.7c1,0,1.7,0.8,1.7,1.7V86.4z"/>
	</g>
	<g>
		<g class="st1">
			<path class="st2" d="M40.7,81.8l-3.4-1.2v-0.4l3.4-1.2v0.5L38,80.4l2.7,0.9V81.8z M40,81.2h-0.5v-1.8H40V81.2z"/>
			<path class="st2" d="M40.7,77.3c0,0.2-0.1,0.4-0.2,0.6c-0.1,0.2-0.2,0.3-0.4,0.4s-0.4,0.1-0.7,0.1h-1c-0.2,0-0.5,0-0.7-0.1
				s-0.3-0.2-0.4-0.4c-0.1-0.2-0.2-0.4-0.2-0.6s0.1-0.4,0.2-0.6c0.1-0.2,0.2-0.3,0.4-0.4s0.4-0.1,0.7-0.1h1c0.2,0,0.5,0,0.7,0.1
				s0.3,0.2,0.4,0.4C40.7,76.8,40.7,77,40.7,77.3z M40.3,77.3c0-0.2-0.1-0.4-0.2-0.5c-0.1-0.1-0.3-0.2-0.6-0.2h-1
				c-0.2,0-0.4,0.1-0.6,0.2c-0.1,0.1-0.2,0.3-0.2,0.5s0.1,0.4,0.2,0.5c0.1,0.1,0.3,0.2,0.6,0.2h1c0.2,0,0.4-0.1,0.6-0.2
				C40.2,77.6,40.3,77.5,40.3,77.3z"/>
		</g>
	</g>
	<g>
		<path class="st3" d="M39.2,82.9c-1.3,0-2.3,1-2.3,2.3v1.3c0,1.3,1,2.3,2.3,2.3c1.2,0,2.2-1,2.3-2.3v-1.3
			C41.5,83.9,40.5,82.9,39.2,82.9z M40.8,86.4c0,0.9-0.8,1.7-1.7,1.7c-1,0-1.7-0.8-1.7-1.7v-1c0-1,0.8-1.7,1.7-1.7
			c1,0,1.7,0.8,1.7,1.7V86.4z"/>
	</g>
</g>
<g>
	<g>
		<circle class="st4" cx="28.3" cy="36.9" r="24.1"/>
		<circle class="st5" cx="28.3" cy="36.9" r="18.6"/>
	</g>
	<g class="st6">
		<g>
			<g>
				<defs>
					<circle id="SVGID_1_" cx="28.3" cy="36.9" r="18.6"/>
				</defs>
				<clipPath id="SVGID_2_">
					<use xlink:href="#SVGID_1_"  style="overflow:visible;"/>
				</clipPath>
				<g class="st7">
					<g>
						<line class="st8" x1="9.8" y1="18.3" x2="9.8" y2="55.4"/>
						<line class="st8" x1="19.1" y1="18.3" x2="19.1" y2="55.4"/>
						<line class="st8" x1="28.3" y1="18.3" x2="28.3" y2="55.4"/>
						<line class="st8" x1="37.6" y1="18.3" x2="37.6" y2="55.4"/>
						<line class="st8" x1="46.9" y1="18.3" x2="46.9" y2="55.4"/>
					</g>
					<g>
						<line class="st8" x1="3" y1="43.6" x2="35.1" y2="62.2"/>
						<line class="st8" x1="7.6" y1="35.6" x2="39.8" y2="54.2"/>
						<line class="st8" x1="12.3" y1="27.6" x2="44.4" y2="46.1"/>
						<line class="st8" x1="16.9" y1="19.5" x2="49.1" y2="38.1"/>
						<line class="st8" x1="21.5" y1="11.5" x2="53.7" y2="30.1"/>
					</g>
					<g>
						<line class="st8" x1="53.7" y1="43.6" x2="21.5" y2="62.2"/>
						<line class="st8" x1="49.1" y1="35.6" x2="16.9" y2="54.2"/>
						<line class="st8" x1="44.4" y1="27.6" x2="12.3" y2="46.1"/>
						<line class="st8" x1="39.8" y1="19.5" x2="7.6" y2="38.1"/>
						<line class="st8" x1="35.1" y1="11.5" x2="3" y2="30.1"/>
					</g>
				</g>
			</g>
		</g>
	</g>
</g>
</svg>
