<?xml version="1.0" encoding="utf-8"?>
<!-- Generator: Adobe Illustrator 24.0.1, SVG Export Plug-In . SVG Version: 6.00 Build 0)  -->
<svg version="1.1" id="Layer_3" xmlns="http://www.w3.org/2000/svg" xmlns:xlink="http://www.w3.org/1999/xlink" x="0px" y="0px"
	 viewBox="0 0 286.3 161.6" style="enable-background:new 0 0 286.3 161.6;" xml:space="preserve">
<style type="text/css">
	.st0{fill:#3E3E3E;}
	.st1{fill:#EDECF1;}
	.st2{fill:#FFFFFF;}
	.st3{opacity:0.5;}
	.st4{fill:#910F10;}
	.st5{fill:#FF0000;}
	.st6{fill:#232323;}
	.st7{fill:#D0CBC1;}
	.st8{fill:#484849;}
	.st9{fill:#B7B7B8;}
	.st10{fill:#B4E3F7;}
	.st11{fill:#124B92;}
	.st12{fill:#45576C;}
	.st13{fill:#346833;}
	.st14{font-family:'Arial-BoldMT';}
	.st15{font-size:5px;}
	.st16{fill:#CAB65E;}
	.st17{fill:#DDDDDC;}
	.st18{fill:#D3D3D3;}
	.st19{fill:#F58E90;}
	.st20{fill:#E16D6D;}
	.st21{fill:#242221;}
	.st22{fill:#BDC3CB;}
	.st23{fill:#B0B0B0;}
	.st24{fill:#010101;}
	.st25{fill:#7C6C2C;}
	.st26{fill:none;stroke:#FFFFFF;stroke-width:0.5;stroke-miterlimit:10;}
	.st27{font-size:4px;}
	.st28{fill:#184377;}
	.st29{fill:#1E51A4;}
	.st30{fill:#BC6931;}
	.st31{fill:#D77A32;}
	.st32{fill:#8D181B;}
	.st33{fill:#CD2027;}
	.st34{fill:none;stroke:#FFFFFF;stroke-width:0.4597;stroke-miterlimit:10;}
	.st35{fill:#CECECE;}
	.st36{fill:#999999;}
	.st37{fill:#171717;stroke:#333333;stroke-width:0.8559;stroke-miterlimit:10;}
	.st38{fill:#CAB65E;stroke:#7C6C2C;stroke-width:0.428;stroke-miterlimit:10;}
	.st39{fill:#8E191C;stroke:#CD2028;stroke-width:0.8559;stroke-miterlimit:10;}
	.st40{fill:#BA8C2D;stroke:#FDD404;stroke-width:0.8559;stroke-miterlimit:10;}
	.st41{fill:#181818;stroke:#333333;stroke-width:0.9556;stroke-miterlimit:10;}
	.st42{fill:#C9B55E;stroke:#7C6C2C;stroke-width:0.4778;stroke-miterlimit:10;}
	.st43{fill:none;stroke:#919191;stroke-width:1.9157;stroke-linecap:round;stroke-miterlimit:10;}
	.st44{fill:#CB9034;}
	.st45{fill:#EFB66A;}
	.st46{fill:#CFC9C0;}
	.st47{fill:#494849;}
	.st48{fill:#B7B7B7;}
	.st49{fill:#595A5A;}
	.st50{fill:#353535;}
	.st51{font-family:'SegoeUI-Semibold';}
	.st52{font-size:11.798px;}
	.st53{font-size:4.7068px;}
	.st54{fill:#272626;}
	.st55{fill:none;stroke:#161616;stroke-miterlimit:10;}
	.st56{fill:#DFDEE2;}
	.st57{fill:#EDEEF3;}
	.st58{fill:#555F81;}
	.st59{font-size:8px;}
	.st60{fill:none;stroke:#FFFFFF;stroke-width:0.5701;stroke-miterlimit:10;}
	.st61{fill:none;stroke:#FFFFFF;stroke-width:0.6393;stroke-miterlimit:10;}
	.st62{fill:#C6C5C5;}
	.st63{fill:#474748;}
	.st64{fill:none;stroke:#FFFFFF;stroke-width:0.4979;stroke-miterlimit:10;}
	.st65{fill:#5CAF66;}
	.st66{fill:#76C27C;}
	.st67{clip-path:url(#SVGID_2_);}
	.st68{fill:#EDEDF2;}
	.st69{fill:#BBBBBB;}
	.st70{clip-path:url(#SVGID_4_);}
	.st71{clip-path:url(#SVGID_6_);}
	.st72{clip-path:url(#SVGID_8_);}
	.st73{fill:none;stroke:#FFFFFF;stroke-width:0.471;stroke-miterlimit:10;}
	.st74{fill:#4459A4;}
	.st75{fill:#5B6EB4;}
	.st76{fill:#3A3A3A;}
	.st77{fill:#1E1E1E;}
	.st78{fill:none;stroke:#FFFFFF;stroke-width:0.4715;stroke-miterlimit:10;}
	.st79{font-size:10px;}
	.st80{font-size:14px;}
	.st81{font-family:'ArialNarrow-Bold';}
	.st82{font-size:6px;}
	.st83{fill:#E2E235;enable-background:new    ;}
	.st84{fill:#D99E44;enable-background:new    ;}
	.st85{fill:#D99E44;}
</style>
<g id="Layer_3_1_">
	<rect class="st0" width="286.3" height="161.6"/>
	<rect x="15.6" width="255.1" height="161.6"/>
</g>
<g>
	<g>
		<g>
			<g>
				<circle class="st1" cx="244.9" cy="101.6" r="5"/>
			</g>
		</g>
	</g>
	<g>
		<g>
			<circle class="st2" cx="244.9" cy="101.6" r="3.9"/>
		</g>
	</g>
</g>
<g>
	<g>
		<g>
			<g>
				<circle class="st1" cx="244.9" cy="125.2" r="5"/>
			</g>
		</g>
	</g>
	<g>
		<g>
			<circle class="st2" cx="244.9" cy="125.2" r="3.9"/>
		</g>
	</g>
</g>
<g>
	<g class="st3">
		<g>
			<g>
				<circle class="st4" cx="21" cy="127.5" r="5"/>
			</g>
		</g>
	</g>
	<g>
		<g>
			<circle class="st5" cx="21" cy="127.5" r="3.9"/>
		</g>
	</g>
</g>
<g>
	<g>
		<g>
			<polygon class="st2" points="247.2,35.6 221.8,35.6 221.8,7.5 222.3,7.5 222.3,35.2 246.8,35.2 246.8,7.5 247.2,7.5 			"/>
		</g>
	</g>
	<g>
		<g>
			<rect x="220.9" y="0.6" class="st6" width="27.3" height="4.3"/>
		</g>
	</g>
	<g>
		<g>
			<rect x="222.8" y="4.9" class="st6" width="23.4" height="29.9"/>
		</g>
	</g>
	<g>
		<g>
			<rect x="241.2" y="4.9" class="st0" width="1.9" height="29.9"/>
		</g>
	</g>
	<g>
		<g>
			<rect x="238.9" y="4.9" class="st0" width="1" height="29.9"/>
		</g>
	</g>
</g>
<g>
	<g>
		<g>
			<path class="st2" d="M34.9,141H27v-15.2h7.9V141z M27.4,140.7h7.1v-14.6h-7.1V140.7z"/>
		</g>
	</g>
	<g>
		<g>
			<g>
				<circle class="st7" cx="30.9" cy="123.3" r="2"/>
			</g>
		</g>
		<g>
			<g>
				<circle class="st8" cx="30.9" cy="123.3" r="1"/>
			</g>
		</g>
		<g>
			<g>
				<circle class="st7" cx="30.9" cy="143" r="2"/>
			</g>
		</g>
		<g>
			<g>
				<circle class="st8" cx="30.9" cy="143" r="1"/>
			</g>
		</g>
		<g>
			<g>
				<path class="st9" d="M31.3,143.5h-0.8c-0.2,0-0.3-0.1-0.3-0.2V123c0-0.2,0.1-0.2,0.3-0.2h0.8c0.2,0,0.3,0.1,0.3,0.2v20.2
					C31.7,143.3,31.5,143.5,31.3,143.5z"/>
			</g>
		</g>
		<g>
			<g>
				<g>
					<path class="st10" d="M32.4,139.8h-2.9c-0.6,0-1.1-0.4-1.1-1.1v-11.2c0-0.6,0.5-1.1,1.1-1.1h2.9c0.6,0,1.1,0.4,1.1,1.1v11.2
						C33.5,139.4,33,139.8,32.4,139.8z"/>
				</g>
			</g>
			<g>
				<g>
					<rect x="28.4" y="128.9" class="st11" width="5" height="0.8"/>
				</g>
			</g>
			<g>
				<g>
					<rect x="28.4" y="131.3" class="st12" width="5" height="0.8"/>
				</g>
			</g>
			<g>
				<g>
					<rect x="28.4" y="133.6" class="st13" width="5" height="0.8"/>
				</g>
			</g>
		</g>
	</g>
</g>
<g>
	<g>
		<g>
			<path class="st2" d="M120.5,134.8h-7.9v-15.2h7.9V134.8z M113,134.5h7.1v-14.6H113V134.5z"/>
		</g>
	</g>
	<g>
		<g>
			<g>
				<circle class="st7" cx="116.5" cy="117.1" r="2"/>
			</g>
		</g>
		<g>
			<g>
				<circle class="st8" cx="116.5" cy="117.1" r="1"/>
			</g>
		</g>
		<g>
			<g>
				<circle class="st7" cx="116.5" cy="136.8" r="2"/>
			</g>
		</g>
		<g>
			<g>
				<circle class="st8" cx="116.5" cy="136.8" r="1"/>
			</g>
		</g>
		<g>
			<g>
				<path class="st9" d="M116.9,137.2h-0.8c-0.2,0-0.3-0.1-0.3-0.2v-20.2c0-0.2,0.1-0.2,0.3-0.2h0.8c0.2,0,0.3,0.1,0.3,0.2V137
					C117.3,137.1,117.1,137.2,116.9,137.2z"/>
			</g>
		</g>
		<g>
			<g>
				<g>
					<path class="st10" d="M117.9,133.6H115c-0.6,0-1.1-0.4-1.1-1.1v-11.2c0-0.6,0.5-1.1,1.1-1.1h2.9c0.6,0,1.1,0.4,1.1,1.1v11.2
						C119,133.1,118.6,133.6,117.9,133.6z"/>
				</g>
			</g>
			<g>
				<g>
					<rect x="114" y="122.7" class="st11" width="5" height="0.8"/>
				</g>
			</g>
			<g>
				<g>
					<rect x="114" y="125" class="st12" width="5" height="0.8"/>
				</g>
			</g>
			<g>
				<g>
					<rect x="114" y="127.4" class="st13" width="5" height="0.8"/>
				</g>
			</g>
		</g>
	</g>
</g>
<g>
	<g>
		<g>
			<path class="st2" d="M178,145.6h-7.9v-15.2h7.9V145.6z M170.5,145.3h7.1v-14.6h-7.1V145.3z"/>
		</g>
	</g>
	<g>
		<g>
			<g>
				<circle class="st7" cx="174" cy="127.9" r="2"/>
			</g>
		</g>
		<g>
			<g>
				<circle class="st8" cx="174" cy="127.9" r="1"/>
			</g>
		</g>
		<g>
			<g>
				<circle class="st7" cx="174" cy="147.6" r="2"/>
			</g>
		</g>
		<g>
			<g>
				<circle class="st8" cx="174" cy="147.6" r="1"/>
			</g>
		</g>
		<g>
			<g>
				<path class="st9" d="M174.4,148h-0.8c-0.2,0-0.3-0.1-0.3-0.2v-20.2c0-0.2,0.1-0.2,0.3-0.2h0.8c0.2,0,0.3,0.1,0.3,0.2v20.2
					C174.8,147.9,174.6,148,174.4,148z"/>
			</g>
		</g>
		<g>
			<g>
				<g>
					<path class="st10" d="M175.5,144.4h-2.9c-0.6,0-1.1-0.4-1.1-1.1v-11.2c0-0.6,0.5-1.1,1.1-1.1h2.9c0.6,0,1.1,0.4,1.1,1.1v11.2
						C176.6,143.9,176.1,144.4,175.5,144.4z"/>
				</g>
			</g>
			<g>
				<g>
					<rect x="171.5" y="133.5" class="st11" width="5" height="0.8"/>
				</g>
			</g>
			<g>
				<g>
					<rect x="171.5" y="135.8" class="st12" width="5" height="0.8"/>
				</g>
			</g>
			<g>
				<g>
					<rect x="171.5" y="138.2" class="st13" width="5" height="0.8"/>
				</g>
			</g>
		</g>
	</g>
</g>
<g>
	<g>
		<g>
			<path class="st2" d="M196.8,145.6h-7.9v-15.2h7.9V145.6z M189.3,145.3h7.1v-14.6h-7.1V145.3z"/>
		</g>
	</g>
	<g>
		<g>
			<g>
				<circle class="st7" cx="192.8" cy="127.9" r="2"/>
			</g>
		</g>
		<g>
			<g>
				<circle class="st8" cx="192.8" cy="127.9" r="1"/>
			</g>
		</g>
		<g>
			<g>
				<circle class="st7" cx="192.8" cy="147.6" r="2"/>
			</g>
		</g>
		<g>
			<g>
				<circle class="st8" cx="192.8" cy="147.6" r="1"/>
			</g>
		</g>
		<g>
			<g>
				<path class="st9" d="M193.2,148h-0.8c-0.2,0-0.3-0.1-0.3-0.2v-20.2c0-0.2,0.1-0.2,0.3-0.2h0.8c0.2,0,0.3,0.1,0.3,0.2v20.2
					C193.6,147.9,193.4,148,193.2,148z"/>
			</g>
		</g>
		<g>
			<g>
				<g>
					<path class="st10" d="M194.2,144.4h-2.9c-0.6,0-1.1-0.4-1.1-1.1v-11.2c0-0.6,0.5-1.1,1.1-1.1h2.9c0.6,0,1.1,0.4,1.1,1.1v11.2
						C195.3,143.9,194.8,144.4,194.2,144.4z"/>
				</g>
			</g>
			<g>
				<g>
					<rect x="190.2" y="133.5" class="st11" width="5" height="0.8"/>
				</g>
			</g>
			<g>
				<g>
					<rect x="190.2" y="135.8" class="st12" width="5" height="0.8"/>
				</g>
			</g>
			<g>
				<g>
					<rect x="190.2" y="138.2" class="st13" width="5" height="0.8"/>
				</g>
			</g>
		</g>
	</g>
</g>
<g>
	<g>
		<g>
			<path class="st2" d="M238.4,151.6h-7.9v-15.2h7.9V151.6z M230.9,151.3h7.1v-14.6h-7.1V151.3z"/>
		</g>
	</g>
	<g>
		<g>
			<g>
				<circle class="st7" cx="234.4" cy="133.9" r="2"/>
			</g>
		</g>
		<g>
			<g>
				<circle class="st8" cx="234.4" cy="133.9" r="1"/>
			</g>
		</g>
		<g>
			<g>
				<circle class="st7" cx="234.4" cy="153.6" r="2"/>
			</g>
		</g>
		<g>
			<g>
				<circle class="st8" cx="234.4" cy="153.6" r="1"/>
			</g>
		</g>
		<g>
			<g>
				<path class="st9" d="M234.8,154.1H234c-0.2,0-0.3-0.1-0.3-0.2v-20.2c0-0.1,0.1-0.2,0.3-0.2h0.8c0.2,0,0.3,0.1,0.3,0.2v20.2
					C235.2,153.9,235,154.1,234.8,154.1z"/>
			</g>
		</g>
		<g>
			<g>
				<g>
					<path class="st10" d="M235.9,150.4H233c-0.6,0-1.1-0.4-1.1-1.1v-11.2c0-0.6,0.5-1.1,1.1-1.1h2.9c0.6,0,1.1,0.4,1.1,1.1v11.2
						C236.9,149.9,236.5,150.4,235.9,150.4z"/>
				</g>
			</g>
			<g>
				<g>
					<rect x="231.9" y="139.5" class="st11" width="5" height="0.8"/>
				</g>
			</g>
			<g>
				<g>
					<rect x="231.9" y="141.8" class="st12" width="5" height="0.8"/>
				</g>
			</g>
			<g>
				<g>
					<rect x="231.9" y="144.2" class="st13" width="5" height="0.8"/>
				</g>
			</g>
		</g>
	</g>
</g>
<g>
	<g>
		<g>
			<path class="st2" d="M238.4,119.4h-7.9v-15.2h7.9V119.4z M230.9,119.2h7.1v-14.6h-7.1V119.2z"/>
		</g>
	</g>
	<g>
		<g>
			<g>
				<circle class="st7" cx="234.4" cy="101.7" r="2"/>
			</g>
		</g>
		<g>
			<g>
				<circle class="st8" cx="234.4" cy="101.7" r="1"/>
			</g>
		</g>
		<g>
			<g>
				<circle class="st7" cx="234.4" cy="121.4" r="2"/>
			</g>
		</g>
		<g>
			<g>
				<circle class="st8" cx="234.4" cy="121.4" r="1"/>
			</g>
		</g>
		<g>
			<g>
				<path class="st9" d="M234.8,121.9H234c-0.2,0-0.3-0.1-0.3-0.2v-20.2c0-0.2,0.1-0.2,0.3-0.2h0.8c0.2,0,0.3,0.1,0.3,0.2v20.2
					C235.2,121.8,235,121.9,234.8,121.9z"/>
			</g>
		</g>
		<g>
			<g>
				<g>
					<path class="st10" d="M235.9,118.2H233c-0.6,0-1.1-0.4-1.1-1.1V106c0-0.6,0.5-1.1,1.1-1.1h2.9c0.6,0,1.1,0.4,1.1,1.1v11.2
						C236.9,117.8,236.5,118.2,235.9,118.2z"/>
				</g>
			</g>
			<g>
				<g>
					<rect x="231.9" y="107.4" class="st11" width="5" height="0.8"/>
				</g>
			</g>
			<g>
				<g>
					<rect x="231.9" y="109.7" class="st12" width="5" height="0.8"/>
				</g>
			</g>
			<g>
				<g>
					<rect x="231.9" y="112" class="st13" width="5" height="0.8"/>
				</g>
			</g>
		</g>
	</g>
</g>
<text transform="matrix(1 0 0 1 17.4308 137.8548)" class="st2 st14 st15">ON</text>
<g>
	<g>
		<g>
			<g>
				<path class="st2" d="M111.1,161.4H94.8v-18.1h16.4L111.1,161.4L111.1,161.4z M95.2,161h15.6v-17.3H95.2V161z"/>
			</g>
		</g>
		<g>
			<g>
				<g>
					<rect x="91.4" y="146.2" class="st16" width="4.2" height="3.4"/>
				</g>
			</g>
			<g>
				<g>
					<path class="st16" d="M95.5,149.6h-4.2v-3.5h4.2C95.5,146.1,95.5,149.6,95.5,149.6z M91.4,149.5h4.1v-3.3h-4.1V149.5z"/>
				</g>
			</g>
		</g>
		<g>
			<g>
				<g>
					<rect x="110.5" y="146.2" class="st17" width="4.2" height="3.4"/>
				</g>
			</g>
			<g>
				<g>
					<rect x="110.5" y="146.2" class="st16" width="4.2" height="3.4"/>
				</g>
			</g>
		</g>
		<g>
			<g>
				<g>
					<rect x="91.4" y="153.7" class="st16" width="4.2" height="3.4"/>
				</g>
			</g>
			<g>
				<g>
					<path class="st16" d="M95.5,157.1h-4.2v-3.5h4.2C95.5,153.6,95.5,157.1,95.5,157.1z M91.4,157h4.1v-3.3h-4.1V157z"/>
				</g>
			</g>
		</g>
		<g>
			<g>
				<g>
					<rect x="110.5" y="153.7" class="st17" width="4.2" height="3.4"/>
				</g>
			</g>
			<g>
				<g>
					<rect x="110.5" y="153.7" class="st16" width="4.2" height="3.4"/>
				</g>
			</g>
		</g>
		<g>
			<g>
				<g>
					<rect x="91.8" y="146.5" class="st9" width="3.6" height="2.8"/>
				</g>
			</g>
		</g>
		<g>
			<g>
				<g>
					<rect x="110.5" y="146.5" class="st9" width="3.6" height="2.8"/>
				</g>
			</g>
		</g>
		<g>
			<g>
				<g>
					<rect x="91.8" y="154" class="st9" width="3.6" height="2.8"/>
				</g>
			</g>
		</g>
		<g>
			<g>
				<g>
					<rect x="110.5" y="154" class="st9" width="3.6" height="2.8"/>
				</g>
			</g>
		</g>
	</g>
	<g>
		<g>
			<g>
				<rect x="95.4" y="144.6" class="st8" width="15.1" height="15.1"/>
			</g>
		</g>
		<g>
			<g>
				<rect x="96.1" y="145.2" class="st17" width="13.7" height="13.7"/>
			</g>
		</g>
		<g>
			<g>
				<path class="st17" d="M98.9,148h-3.4v-2.2c0-0.7,0.5-1.3,1.3-1.3h2.2V148z"/>
			</g>
		</g>
		<g>
			<g>
				<path class="st17" d="M110.5,148H107v-3.4h2.2c0.7,0,1.3,0.5,1.3,1.3L110.5,148L110.5,148z"/>
			</g>
		</g>
		<g>
			<g>
				<path class="st17" d="M98.9,159.6h-2.2c-0.7,0-1.3-0.5-1.3-1.3v-2.2h3.4V159.6z"/>
			</g>
		</g>
		<g>
			<g>
				<path class="st17" d="M109.2,159.6H107v-3.4h3.4v2.2C110.5,159,110,159.6,109.2,159.6z"/>
			</g>
		</g>
		<g>
			<g>
				<circle class="st8" cx="97.2" cy="146.3" r="1.2"/>
			</g>
		</g>
		<g>
			<g>
				<circle class="st8" cx="108.8" cy="146.3" r="1.2"/>
			</g>
		</g>
		<g>
			<g>
				<circle class="st8" cx="97.2" cy="157.8" r="1.2"/>
			</g>
		</g>
		<g>
			<g>
				<circle class="st18" cx="103" cy="152.1" r="4.3"/>
			</g>
		</g>
		<g>
			<g>
				<circle class="st8" cx="108.8" cy="157.8" r="1.2"/>
			</g>
		</g>
		<g>
			<g>
				<circle class="st19" cx="103" cy="152.1" r="4.1"/>
			</g>
		</g>
		<g>
			<g>
				<circle class="st20" cx="103" cy="152.1" r="3.8"/>
			</g>
		</g>
	</g>
</g>
<g>
	<g>
		<g>
			<g>
				<circle class="st21" cx="24" cy="31" r="6.8"/>
			</g>
		</g>
		<g>
			<g>
				<g>
					<path class="st22" d="M24,37.8c1.6,0,2.9-0.5,4.1-1.4L24,30.9V37.8z"/>
				</g>
			</g>
		</g>
		<g>
			<g>
				<circle class="st7" cx="24" cy="31" r="5.5"/>
			</g>
		</g>
		<g>
			<g>
				<polygon class="st23" points="19.3,34 19.1,33.6 23.8,30.8 23.8,25.6 24.2,25.6 24.2,31.1 				"/>
			</g>
		</g>
		<g>
			<g>
				
					<rect x="26.1" y="29.7" transform="matrix(0.5096 -0.8604 0.8604 0.5096 -14.9841 38.4819)" class="st23" width="0.4" height="5.5"/>
			</g>
		</g>
		<g>
			<g>
				
					<rect x="25.1" y="36.3" transform="matrix(0.9756 -0.2197 0.2197 0.9756 -7.5048 6.4745)" class="st24" width="0.4" height="1.4"/>
			</g>
		</g>
		<g>
			<g>
				
					<rect x="26.3" y="35.9" transform="matrix(0.8665 -0.4991 0.4991 0.8665 -14.6997 18.1032)" class="st24" width="0.4" height="1.4"/>
			</g>
		</g>
	</g>
	<g>
		<g>
			<path class="st2" d="M24,39c-4.4,0-8-3.6-8-8s3.6-8,8-8c4.4,0,8,3.6,8,8S28.4,39,24,39z M24,23.5c-4.2,0-7.6,3.4-7.6,7.6
				c0,4.2,3.4,7.6,7.6,7.6c4.2,0,7.6-3.4,7.6-7.6S28.2,23.5,24,23.5z"/>
		</g>
	</g>
</g>
<g>
	<g>
		<g>
			<g>
				<circle class="st21" cx="230.8" cy="89.9" r="6.8"/>
			</g>
		</g>
		<g>
			<g>
				<g>
					<path class="st22" d="M230.8,96.6c1.6,0,2.9-0.5,4.1-1.4l-4.1-5.5V96.6z"/>
				</g>
			</g>
		</g>
		<g>
			<g>
				<circle class="st7" cx="230.8" cy="89.9" r="5.5"/>
			</g>
		</g>
		<g>
			<g>
				<polygon class="st23" points="226.2,92.8 226,92.4 230.6,89.7 230.6,84.4 231,84.4 231,90 				"/>
			</g>
		</g>
		<g>
			<g>
				
					<rect x="232.9" y="88.5" transform="matrix(0.5096 -0.8604 0.8604 0.5096 35.7948 245.3169)" class="st23" width="0.4" height="5.5"/>
			</g>
		</g>
		<g>
			<g>
				
					<rect x="232" y="95.2" transform="matrix(0.9756 -0.2197 0.2197 0.9756 -15.3852 53.3536)" class="st24" width="0.4" height="1.4"/>
			</g>
		</g>
		<g>
			<g>
				
					<rect x="233.1" y="94.7" transform="matrix(0.8665 -0.4991 0.4991 0.8665 -16.4774 129.1972)" class="st24" width="0.4" height="1.4"/>
			</g>
		</g>
	</g>
	<g>
		<g>
			<path class="st2" d="M230.8,97.9c-4.4,0-8-3.6-8-8s3.6-8,8-8c4.4,0,8,3.6,8,8S235.2,97.9,230.8,97.9z M230.8,82.3
				c-4.2,0-7.6,3.4-7.6,7.6c0,4.2,3.4,7.6,7.6,7.6c4.2,0,7.6-3.4,7.6-7.6S235,82.3,230.8,82.3z"/>
		</g>
	</g>
</g>
<g>
	<g>
		<g>
			<g>
				<circle class="st21" cx="125.4" cy="145.7" r="6.8"/>
			</g>
		</g>
		<g>
			<g>
				<g>
					<path class="st22" d="M125.4,152.5c1.6,0,2.9-0.5,4.1-1.4l-4.1-5.5V152.5z"/>
				</g>
			</g>
		</g>
		<g>
			<g>
				<circle class="st7" cx="125.4" cy="145.7" r="5.5"/>
			</g>
		</g>
		<g>
			<g>
				<polygon class="st23" points="120.8,148.7 120.6,148.3 125.2,145.5 125.2,140.3 125.6,140.3 125.6,145.8 				"/>
			</g>
		</g>
		<g>
			<g>
				
					<rect x="127.5" y="144.4" transform="matrix(0.5096 -0.8604 0.8604 0.5096 -63.9255 182.0143)" class="st23" width="0.4" height="5.5"/>
			</g>
		</g>
		<g>
			<g>
				
					<rect x="126.6" y="151" transform="matrix(0.9756 -0.2197 0.2197 0.9756 -30.2253 31.5634)" class="st24" width="0.4" height="1.4"/>
			</g>
		</g>
		<g>
			<g>
				
					<rect x="127.7" y="150.6" transform="matrix(0.8665 -0.4991 0.4991 0.8665 -58.4094 84.0449)" class="st24" width="0.4" height="1.4"/>
			</g>
		</g>
	</g>
	<g>
		<g>
			<path class="st2" d="M125.4,153.7c-4.4,0-8-3.6-8-8s3.6-8,8-8c4.4,0,8,3.6,8,8S129.8,153.7,125.4,153.7z M125.4,138.2
				c-4.2,0-7.6,3.4-7.6,7.6c0,4.2,3.4,7.6,7.6,7.6c4.2,0,7.6-3.4,7.6-7.6S129.6,138.2,125.4,138.2z"/>
		</g>
	</g>
</g>
<g>
	<g>
		<g>
			<g>
				<g>
					<polygon class="st1" points="40.1,120.3 60.8,120.3 60.8,132.9 53.9,132.9 53.9,129.9 46.8,129.9 46.8,132.9 40.1,132.9 					
						"/>
				</g>
			</g>
			<g>
				<g>
					<path class="st2" d="M60.1,132.3h-5.6v-1.8v-1.2h-1.2h-5.8h-1.2v1.2v1.8h-5.5V121h19.3L60.1,132.3 M61.4,133.5v-13.8H39.5v13.8
						h8v-3h5.8v3H61.4L61.4,133.5z"/>
				</g>
			</g>
		</g>
		<g>
			<g>
				<g>
					<circle class="st25" cx="56.4" cy="125.1" r="0.7"/>
				</g>
				<g>
					<path class="st16" d="M55.4,125.1c0-0.5,0.4-0.9,0.9-0.9s0.9,0.4,0.9,0.9s-0.4,0.9-0.9,0.9S55.4,125.6,55.4,125.1z M56.9,125.1
						c0-0.3-0.2-0.5-0.5-0.5s-0.5,0.2-0.5,0.5s0.2,0.5,0.5,0.5S56.9,125.4,56.9,125.1z"/>
				</g>
			</g>
			<g>
				<g>
					<circle class="st25" cx="50.5" cy="125.1" r="0.7"/>
				</g>
				<g>
					<path class="st16" d="M49.6,125.1c0-0.5,0.4-0.9,0.9-0.9s0.9,0.4,0.9,0.9S51,126,50.5,126S49.6,125.6,49.6,125.1z M51.1,125.1
						c0-0.3-0.2-0.5-0.5-0.5s-0.5,0.2-0.5,0.5s0.2,0.5,0.5,0.5S51.1,125.4,51.1,125.1z"/>
				</g>
			</g>
			<g>
				<g>
					<circle class="st25" cx="44.5" cy="125.1" r="0.7"/>
				</g>
				<g>
					<path class="st16" d="M43.5,125.1c0-0.5,0.4-0.9,0.9-0.9s0.9,0.4,0.9,0.9s-0.4,0.9-0.9,0.9C44,126,43.5,125.6,43.5,125.1z
						 M45,125.1c0-0.3-0.2-0.5-0.5-0.5s-0.5,0.2-0.5,0.5s0.2,0.5,0.5,0.5S45,125.4,45,125.1z"/>
				</g>
			</g>
		</g>
	</g>
	<g>
		<path class="st26" d="M39.1,119h22.6c0.3,0,0.5,0.2,0.5,0.5v14.2c0,0.3-0.2,0.5-0.5,0.5H39.1c-0.3,0-0.5-0.2-0.5-0.5v-14.2
			C38.6,119.3,38.8,119,39.1,119z"/>
		<path class="st26" d="M45.1,134.2h10.9c0.4,0,0.7,0.3,0.7,0.7v3.6c0,0.4-0.3,0.7-0.7,0.7H45.1c-0.4,0-0.7-0.3-0.7-0.7v-3.6
			C44.4,134.5,44.7,134.2,45.1,134.2z"/>
		<text transform="matrix(1 0 0 1 45.9449 138.1588)" class="st2 st14 st27">DIR4</text>
	</g>
</g>
<g>
	<g>
		<g>
			<g>
				<g>
					<polygon class="st1" points="66,120.3 86.7,120.3 86.7,132.9 79.8,132.9 79.8,129.9 72.7,129.9 72.7,132.9 66,132.9 					"/>
				</g>
			</g>
			<g>
				<g>
					<path class="st2" d="M86,132.3h-5.6v-1.8v-1.2h-1.2h-5.8h-1.2v1.2v1.8h-5.5V121H86L86,132.3 M87.3,133.5v-13.8H65.4v13.8h8v-3
						h5.8v3H87.3L87.3,133.5z"/>
				</g>
			</g>
		</g>
		<g>
			<g>
				<g>
					<circle class="st25" cx="82.3" cy="125.1" r="0.7"/>
				</g>
				<g>
					<path class="st16" d="M81.3,125.1c0-0.5,0.4-0.9,0.9-0.9s0.9,0.4,0.9,0.9s-0.4,0.9-0.9,0.9S81.3,125.6,81.3,125.1z M82.8,125.1
						c0-0.3-0.2-0.5-0.5-0.5s-0.5,0.2-0.5,0.5s0.2,0.5,0.5,0.5S82.8,125.4,82.8,125.1z"/>
				</g>
			</g>
			<g>
				<g>
					<circle class="st25" cx="76.4" cy="125.1" r="0.7"/>
				</g>
				<g>
					<path class="st16" d="M75.5,125.1c0-0.5,0.4-0.9,0.9-0.9s0.9,0.4,0.9,0.9s-0.4,0.9-0.9,0.9S75.5,125.6,75.5,125.1z M77,125.1
						c0-0.3-0.2-0.5-0.5-0.5s-0.5,0.2-0.5,0.5s0.2,0.5,0.5,0.5S77,125.4,77,125.1z"/>
				</g>
			</g>
			<g>
				<g>
					<circle class="st25" cx="70.4" cy="125.1" r="0.7"/>
				</g>
				<g>
					<path class="st16" d="M69.4,125.1c0-0.5,0.4-0.9,0.9-0.9s0.9,0.4,0.9,0.9s-0.4,0.9-0.9,0.9C69.9,126,69.4,125.6,69.4,125.1z
						 M70.9,125.1c0-0.3-0.2-0.5-0.5-0.5c-0.3,0-0.5,0.2-0.5,0.5s0.2,0.5,0.5,0.5C70.7,125.6,70.9,125.4,70.9,125.1z"/>
				</g>
			</g>
		</g>
	</g>
	<g>
		<path class="st26" d="M65.1,119h22.6c0.3,0,0.5,0.2,0.5,0.5v14.2c0,0.3-0.2,0.5-0.5,0.5H65.1c-0.3,0-0.5-0.2-0.5-0.5v-14.2
			C64.6,119.3,64.8,119,65.1,119z"/>
		<path class="st26" d="M71.1,134.2h10.9c0.4,0,0.7,0.3,0.7,0.7v3.6c0,0.4-0.3,0.7-0.7,0.7H71.1c-0.4,0-0.7-0.3-0.7-0.7v-3.6
			C70.3,134.5,70.7,134.2,71.1,134.2z"/>
		<text transform="matrix(1 0 0 1 71.9341 138.1588)" class="st2 st14 st27">DIR3</text>
	</g>
</g>
<g>
	<g>
		<g>
			<g>
				<g>
					<polygon class="st28" points="40.1,142 60.8,142 60.8,154.6 53.9,154.6 53.9,151.6 46.8,151.6 46.8,154.6 40.1,154.6 					"/>
				</g>
			</g>
			<g>
				<g>
					<path class="st29" d="M60.1,154h-5.6v-1.8V151h-1.2h-5.8h-1.2v1.2v1.8h-5.5v-11.3h19.3L60.1,154 M61.4,155.2v-13.8H39.5v13.8h8
						v-3h5.8v3H61.4L61.4,155.2z"/>
				</g>
			</g>
		</g>
		<g>
			<g>
				<g>
					<circle class="st25" cx="56.4" cy="146.8" r="0.7"/>
				</g>
				<g>
					<path class="st16" d="M55.4,146.8c0-0.5,0.4-0.9,0.9-0.9s0.9,0.4,0.9,0.9s-0.4,0.9-0.9,0.9S55.4,147.3,55.4,146.8z M56.9,146.8
						c0-0.3-0.2-0.5-0.5-0.5s-0.5,0.2-0.5,0.5s0.2,0.5,0.5,0.5S56.9,147.1,56.9,146.8z"/>
				</g>
			</g>
			<g>
				<g>
					<circle class="st25" cx="50.5" cy="146.8" r="0.7"/>
				</g>
				<g>
					<path class="st16" d="M49.6,146.8c0-0.5,0.4-0.9,0.9-0.9s0.9,0.4,0.9,0.9s-0.4,0.9-0.9,0.9S49.6,147.3,49.6,146.8z M51.1,146.8
						c0-0.3-0.2-0.5-0.5-0.5s-0.5,0.2-0.5,0.5s0.2,0.5,0.5,0.5S51.1,147.1,51.1,146.8z"/>
				</g>
			</g>
			<g>
				<g>
					<circle class="st25" cx="44.5" cy="146.8" r="0.7"/>
				</g>
				<g>
					<path class="st16" d="M43.5,146.8c0-0.5,0.4-0.9,0.9-0.9s0.9,0.4,0.9,0.9s-0.4,0.9-0.9,0.9C44,147.7,43.5,147.3,43.5,146.8z
						 M45,146.8c0-0.3-0.2-0.5-0.5-0.5s-0.5,0.2-0.5,0.5s0.2,0.5,0.5,0.5S45,147.1,45,146.8z"/>
				</g>
			</g>
		</g>
	</g>
	<g>
		<path class="st26" d="M39.1,140.7h22.6c0.3,0,0.5,0.2,0.5,0.5v14.2c0,0.3-0.2,0.5-0.5,0.5H39.1c-0.3,0-0.5-0.2-0.5-0.5v-14.2
			C38.6,141,38.8,140.7,39.1,140.7z"/>
		<path class="st26" d="M44,155.9h13c0.3,0,0.5,0.2,0.5,0.5v4c0,0.3-0.2,0.5-0.5,0.5H44c-0.3,0-0.5-0.2-0.5-0.5v-4
			C43.5,156.2,43.7,155.9,44,155.9z"/>
		<text transform="matrix(1 0 0 1 44.5016 159.8619)" class="st2 st14 st27">PWM4</text>
	</g>
</g>
<g>
	<g>
		<g>
			<g>
				<g>
					<polygon class="st28" points="66,142 86.7,142 86.7,154.6 79.8,154.6 79.8,151.6 72.7,151.6 72.7,154.6 66,154.6 					"/>
				</g>
			</g>
			<g>
				<g>
					<path class="st29" d="M86,154h-5.6v-1.8V151h-1.2h-5.8h-1.2v1.2v1.8h-5.5v-11.3H86L86,154 M87.3,155.2v-13.8H65.4v13.8h8v-3
						h5.8v3H87.3L87.3,155.2z"/>
				</g>
			</g>
		</g>
		<g>
			<g>
				<g>
					<circle class="st25" cx="82.3" cy="146.8" r="0.7"/>
				</g>
				<g>
					<path class="st16" d="M81.3,146.8c0-0.5,0.4-0.9,0.9-0.9s0.9,0.4,0.9,0.9s-0.4,0.9-0.9,0.9S81.3,147.3,81.3,146.8z M82.8,146.8
						c0-0.3-0.2-0.5-0.5-0.5s-0.5,0.2-0.5,0.5s0.2,0.5,0.5,0.5S82.8,147.1,82.8,146.8z"/>
				</g>
			</g>
			<g>
				<g>
					<circle class="st25" cx="76.4" cy="146.8" r="0.7"/>
				</g>
				<g>
					<path class="st16" d="M75.5,146.8c0-0.5,0.4-0.9,0.9-0.9s0.9,0.4,0.9,0.9s-0.4,0.9-0.9,0.9S75.5,147.3,75.5,146.8z M77,146.8
						c0-0.3-0.2-0.5-0.5-0.5s-0.5,0.2-0.5,0.5s0.2,0.5,0.5,0.5S77,147.1,77,146.8z"/>
				</g>
			</g>
			<g>
				<g>
					<circle class="st25" cx="70.4" cy="146.8" r="0.7"/>
				</g>
				<g>
					<path class="st16" d="M69.4,146.8c0-0.5,0.4-0.9,0.9-0.9s0.9,0.4,0.9,0.9s-0.4,0.9-0.9,0.9C69.9,147.7,69.4,147.3,69.4,146.8z
						 M70.9,146.8c0-0.3-0.2-0.5-0.5-0.5c-0.3,0-0.5,0.2-0.5,0.5s0.2,0.5,0.5,0.5C70.7,147.3,70.9,147.1,70.9,146.8z"/>
				</g>
			</g>
		</g>
	</g>
	<g>
		<path class="st26" d="M65.1,140.7h22.6c0.3,0,0.5,0.2,0.5,0.5v14.2c0,0.3-0.2,0.5-0.5,0.5H65.1c-0.3,0-0.5-0.2-0.5-0.5v-14.2
			C64.6,141,64.8,140.7,65.1,140.7z"/>
		<path class="st26" d="M70,155.9h13c0.3,0,0.5,0.2,0.5,0.5v4c0,0.3-0.2,0.5-0.5,0.5H70c-0.3,0-0.5-0.2-0.5-0.5v-4
			C69.5,156.2,69.7,155.9,70,155.9z"/>
		<text transform="matrix(1 0 0 1 70.4907 159.8619)" class="st2 st14 st27">PWM3</text>
	</g>
</g>
<g>
	<g>
		<g>
			<g>
				<g>
					<polygon class="st30" points="146.3,120.3 167,120.3 167,132.9 160.1,132.9 160.1,129.9 153,129.9 153,132.9 146.3,132.9 					
						"/>
				</g>
			</g>
			<g>
				<g>
					<path class="st31" d="M166.3,132.3h-5.6v-1.8v-1.2h-1.2h-5.8h-1.2v1.2v1.8H147V121h19.3V132.3 M167.6,133.5v-13.8h-21.9v13.8h8
						v-3h5.8v3H167.6L167.6,133.5z"/>
				</g>
			</g>
		</g>
		<g>
			<g>
				<g>
					<circle class="st25" cx="162.6" cy="125.1" r="0.7"/>
				</g>
				<g>
					<path class="st16" d="M161.6,125.1c0-0.5,0.4-0.9,0.9-0.9s0.9,0.4,0.9,0.9s-0.4,0.9-0.9,0.9S161.6,125.6,161.6,125.1z
						 M163.1,125.1c0-0.3-0.2-0.5-0.5-0.5s-0.5,0.2-0.5,0.5s0.2,0.5,0.5,0.5S163.1,125.4,163.1,125.1z"/>
				</g>
			</g>
			<g>
				<g>
					<circle class="st25" cx="156.7" cy="125.1" r="0.7"/>
				</g>
				<g>
					<path class="st16" d="M155.8,125.1c0-0.5,0.4-0.9,0.9-0.9s0.9,0.4,0.9,0.9s-0.4,0.9-0.9,0.9S155.8,125.6,155.8,125.1z
						 M157.3,125.1c0-0.3-0.2-0.5-0.5-0.5s-0.5,0.2-0.5,0.5s0.2,0.5,0.5,0.5S157.3,125.4,157.3,125.1z"/>
				</g>
			</g>
			<g>
				<g>
					<circle class="st25" cx="150.7" cy="125.1" r="0.7"/>
				</g>
				<g>
					<path class="st16" d="M149.7,125.1c0-0.5,0.4-0.9,0.9-0.9s0.9,0.4,0.9,0.9s-0.4,0.9-0.9,0.9C150.2,126,149.7,125.6,149.7,125.1
						z M151.2,125.1c0-0.3-0.2-0.5-0.5-0.5c-0.3,0-0.5,0.2-0.5,0.5s0.2,0.5,0.5,0.5C151,125.6,151.2,125.4,151.2,125.1z"/>
				</g>
			</g>
		</g>
	</g>
	<g>
		<path class="st26" d="M145.3,119h22.6c0.3,0,0.5,0.2,0.5,0.5v14.2c0,0.3-0.2,0.5-0.5,0.5h-22.6c-0.3,0-0.5-0.2-0.5-0.5v-14.2
			C144.8,119.3,145,119,145.3,119z"/>
		<path class="st26" d="M151.3,134.2h10.9c0.4,0,0.7,0.3,0.7,0.7v3.6c0,0.4-0.3,0.7-0.7,0.7h-10.9c-0.4,0-0.7-0.3-0.7-0.7v-3.6
			C150.6,134.5,150.9,134.2,151.3,134.2z"/>
		<text transform="matrix(1 0 0 1 152.4986 138.1588)" class="st2 st14 st27">RXD</text>
	</g>
</g>
<g>
	<g>
		<g>
			<g>
				<g>
					<polygon class="st28" points="146.3,142 167,142 167,154.6 160.1,154.6 160.1,151.6 153,151.6 153,154.6 146.3,154.6 					"/>
				</g>
			</g>
			<g>
				<g>
					<path class="st29" d="M166.3,154h-5.6v-1.8V151h-1.2h-5.8h-1.2v1.2v1.8H147v-11.3h19.3V154 M167.6,155.2v-13.8h-21.9v13.8h8v-3
						h5.8v3H167.6L167.6,155.2z"/>
				</g>
			</g>
		</g>
		<g>
			<g>
				<g>
					<circle class="st25" cx="162.6" cy="146.8" r="0.7"/>
				</g>
				<g>
					<path class="st16" d="M161.6,146.8c0-0.5,0.4-0.9,0.9-0.9s0.9,0.4,0.9,0.9s-0.4,0.9-0.9,0.9S161.6,147.3,161.6,146.8z
						 M163.1,146.8c0-0.3-0.2-0.5-0.5-0.5s-0.5,0.2-0.5,0.5s0.2,0.5,0.5,0.5S163.1,147.1,163.1,146.8z"/>
				</g>
			</g>
			<g>
				<g>
					<circle class="st25" cx="156.7" cy="146.8" r="0.7"/>
				</g>
				<g>
					<path class="st16" d="M155.8,146.8c0-0.5,0.4-0.9,0.9-0.9s0.9,0.4,0.9,0.9s-0.4,0.9-0.9,0.9S155.8,147.3,155.8,146.8z
						 M157.3,146.8c0-0.3-0.2-0.5-0.5-0.5s-0.5,0.2-0.5,0.5s0.2,0.5,0.5,0.5S157.3,147.1,157.3,146.8z"/>
				</g>
			</g>
			<g>
				<g>
					<circle class="st25" cx="150.7" cy="146.8" r="0.7"/>
				</g>
				<g>
					<path class="st16" d="M149.7,146.8c0-0.5,0.4-0.9,0.9-0.9s0.9,0.4,0.9,0.9s-0.4,0.9-0.9,0.9
						C150.2,147.7,149.7,147.3,149.7,146.8z M151.2,146.8c0-0.3-0.2-0.5-0.5-0.5c-0.3,0-0.5,0.2-0.5,0.5s0.2,0.5,0.5,0.5
						C151,147.3,151.2,147.1,151.2,146.8z"/>
				</g>
			</g>
		</g>
	</g>
	<g>
		<path class="st26" d="M145.3,140.7h22.6c0.3,0,0.5,0.2,0.5,0.5v14.2c0,0.3-0.2,0.5-0.5,0.5h-22.6c-0.3,0-0.5-0.2-0.5-0.5v-14.2
			C144.8,141,145,140.7,145.3,140.7z"/>
		<path class="st26" d="M151.3,155.9h10.9c0.4,0,0.7,0.3,0.7,0.7v3.6c0,0.4-0.3,0.7-0.7,0.7h-10.9c-0.4,0-0.7-0.3-0.7-0.7v-3.6
			C150.6,156.2,150.9,155.9,151.3,155.9z"/>
		<text transform="matrix(1 0 0 1 152.7212 159.8619)" class="st2 st14 st27">TXD</text>
	</g>
</g>
<g>
	<g>
		<g>
			<g>
				<g>
					<polygon class="st1" points="26.7,91.1 26.7,117.4 14.1,117.4 14.1,108.6 17.1,108.6 17.1,99.6 14.1,99.6 14.1,91.1 					"/>
				</g>
			</g>
			<g>
				<g>
					<path class="st2" d="M14.7,116.5v-7.1h1.8h1.2v-1.5v-7.4V99h-1.2h-1.8v-7H26v24.5H14.7 M13.5,118.1h13.8V90.4H13.5v10.2h3v7.4
						h-3V118.1L13.5,118.1z"/>
				</g>
			</g>
		</g>
		<g>
			<g>
				<g>
					<circle class="st25" cx="21.9" cy="101.6" r="0.7"/>
				</g>
				<g>
					<path class="st16" d="M21.9,100.7c0.5,0,0.9,0.4,0.9,0.9s-0.4,0.9-0.9,0.9s-0.9-0.4-0.9-0.9S21.4,100.7,21.9,100.7z
						 M21.9,102.2c0.3,0,0.5-0.2,0.5-0.5c0-0.3-0.2-0.5-0.5-0.5s-0.5,0.2-0.5,0.5C21.4,102,21.6,102.2,21.9,102.2z"/>
				</g>
			</g>
			<g>
				<g>
					<circle class="st25" cx="21.9" cy="95.9" r="0.7"/>
				</g>
				<g>
					<path class="st16" d="M21.9,95c0.5,0,0.9,0.4,0.9,0.9s-0.4,0.9-0.9,0.9S21,96.4,21,95.9S21.4,95,21.9,95z M21.9,96.5
						c0.3,0,0.5-0.2,0.5-0.5c0-0.3-0.2-0.5-0.5-0.5s-0.5,0.2-0.5,0.5C21.4,96.3,21.6,96.5,21.9,96.5z"/>
				</g>
			</g>
			<g>
				<g>
					<circle class="st25" cx="21.9" cy="107.2" r="0.7"/>
				</g>
				<g>
					<path class="st16" d="M21.9,106.3c0.5,0,0.9,0.4,0.9,0.9s-0.4,0.9-0.9,0.9s-0.9-0.4-0.9-0.9S21.4,106.3,21.9,106.3z
						 M21.9,107.8c0.3,0,0.5-0.2,0.5-0.5c0-0.3-0.2-0.5-0.5-0.5s-0.5,0.2-0.5,0.5C21.4,107.6,21.6,107.8,21.9,107.8z"/>
				</g>
			</g>
			<g>
				<g>
					<circle class="st25" cx="21.9" cy="112.9" r="0.7"/>
				</g>
				<g>
					<path class="st16" d="M21.9,112c0.5,0,0.9,0.4,0.9,0.9s-0.4,0.9-0.9,0.9s-0.9-0.4-0.9-0.9C21,112.4,21.4,112,21.9,112z
						 M21.9,113.5c0.3,0,0.5-0.2,0.5-0.5c0-0.3-0.2-0.5-0.5-0.5s-0.5,0.2-0.5,0.5C21.4,113.3,21.6,113.5,21.9,113.5z"/>
				</g>
			</g>
		</g>
	</g>
	<path class="st26" d="M39.8,117.6H28.5c-0.2,0-0.4-0.2-0.4-0.4v-26c0-0.2,0.2-0.4,0.4-0.4h11.4c0.2,0,0.4,0.2,0.4,0.4v26
		C40.3,117.4,40.1,117.6,39.8,117.6z"/>
	<text transform="matrix(1 0 0 1 29.5862 96.7942)" class="st2 st14 st27">SCL</text>
	<text transform="matrix(1 0 0 1 29.5481 102.6897)" class="st2 st14 st27">SDA</text>
	<text transform="matrix(1 0 0 1 29.6221 108.5853)" class="st2 st14 st27">+3.3</text>
	<text transform="matrix(1 0 0 1 29.6223 114.4803)" class="st2 st14 st27">GND</text>
	<text transform="matrix(1 0 0 1 42.4933 114.4798)" class="st2 st14 st27">I</text>
	<text transform="matrix(0.583 0 0 0.583 43.6046 113.1478)" class="st2 st14 st27">2</text>
	<text transform="matrix(1 0 0 1 44.9015 114.4798)" class="st2 st14 st27">C BUS</text>
	<path class="st26" d="M60.2,117.7H40.6c-0.2,0-0.3-0.1-0.3-0.3v-8.5c0-0.2,0.1-0.3,0.3-0.3h19.6c0.2,0,0.3,0.1,0.3,0.3v8.5
		C60.5,117.5,60.4,117.7,60.2,117.7z"/>
</g>
<g>
	<g>
		<g>
			<g>
				<g>
					<polygon class="st32" points="60.6,20.7 40,20.7 40,8.1 46.8,8.1 46.8,11.1 53.9,11.1 53.9,8.1 60.6,8.1 					"/>
				</g>
			</g>
			<g>
				<g>
					<g>
						<path class="st33" d="M40.6,8.7h5.6v1.8v1.2h1.2h5.8h1.2v-1.2V8.7h5.5V20H40.6L40.6,8.7 M39.4,7.5v13.8h21.9V7.5h-8v3h-5.8v-3
							H39.4L39.4,7.5z"/>
					</g>
				</g>
			</g>
		</g>
		<g>
			<g>
				<g>
					<circle class="st25" cx="44.4" cy="15.9" r="0.7"/>
				</g>
				<g>
					<path class="st16" d="M45.3,15.9c0,0.5-0.4,0.9-0.9,0.9s-0.9-0.4-0.9-0.9c0-0.5,0.4-0.9,0.9-0.9S45.3,15.4,45.3,15.9z
						 M43.9,15.9c0,0.3,0.2,0.5,0.5,0.5s0.5-0.2,0.5-0.5c0-0.3-0.2-0.5-0.5-0.5S43.9,15.6,43.9,15.9z"/>
				</g>
			</g>
			<g>
				<g>
					<circle class="st25" cx="50.2" cy="15.9" r="0.7"/>
				</g>
				<g>
					<path class="st16" d="M51.2,15.9c0,0.5-0.4,0.9-0.9,0.9s-0.9-0.4-0.9-0.9c0-0.5,0.4-0.9,0.9-0.9S51.2,15.4,51.2,15.9z
						 M49.7,15.9c0,0.3,0.2,0.5,0.5,0.5s0.5-0.2,0.5-0.5c0-0.3-0.2-0.5-0.5-0.5S49.7,15.6,49.7,15.9z"/>
				</g>
			</g>
			<g>
				<g>
					<circle class="st25" cx="56.3" cy="15.9" r="0.7"/>
				</g>
				<g>
					<path class="st16" d="M57.2,15.9c0,0.5-0.4,0.9-0.9,0.9s-0.9-0.4-0.9-0.9c0-0.5,0.4-0.9,0.9-0.9S57.2,15.4,57.2,15.9z
						 M55.7,15.9c0,0.3,0.2,0.5,0.5,0.5s0.5-0.2,0.5-0.5c0-0.3-0.2-0.5-0.5-0.5S55.7,15.6,55.7,15.9z"/>
				</g>
			</g>
		</g>
	</g>
	<path class="st26" d="M61.7,22H39.1c-0.3,0-0.5-0.2-0.5-0.5V7.3c0-0.3,0.2-0.5,0.5-0.5h22.6c0.3,0,0.5,0.2,0.5,0.5v14.2
		C62.2,21.7,61.9,22,61.7,22z"/>
	<path class="st34" d="M52.8,6.8h-5c-0.3,0-0.5-0.2-0.5-0.5v-4c0-0.3,0.2-0.5,0.5-0.5h5c0.3,0,0.5,0.2,0.5,0.5v4
		C53.3,6.6,53,6.8,52.8,6.8z"/>
	<text transform="matrix(-1 0 0 -1 51.365 2.8518)" class="st2 st14 st27">0</text>
</g>
<g>
	<g>
		<g>
			<g>
				<g>
					<polygon class="st32" points="60.7,42.6 40.1,42.6 40.1,30 46.9,30 46.9,33 54,33 54,30 60.7,30 					"/>
				</g>
			</g>
			<g>
				<g>
					<g>
						<path class="st33" d="M40.7,30.6h5.6v1.8v1.2h1.2h5.8h1.2v-1.2v-1.8H60v11.3H40.7L40.7,30.6 M39.5,29.4v13.8h21.9V29.4h-8v3
							h-5.8v-3H39.5L39.5,29.4z"/>
					</g>
				</g>
			</g>
		</g>
		<g>
			<g>
				<g>
					<circle class="st25" cx="44.5" cy="37.8" r="0.7"/>
				</g>
				<g>
					<path class="st16" d="M45.4,37.8c0,0.5-0.4,0.9-0.9,0.9s-0.9-0.4-0.9-0.9s0.4-0.9,0.9-0.9S45.4,37.3,45.4,37.8z M44,37.8
						c0,0.3,0.2,0.5,0.5,0.5s0.5-0.2,0.5-0.5s-0.2-0.5-0.5-0.5S44,37.5,44,37.8z"/>
				</g>
			</g>
			<g>
				<g>
					<circle class="st25" cx="50.3" cy="37.8" r="0.7"/>
				</g>
				<g>
					<path class="st16" d="M51.3,37.8c0,0.5-0.4,0.9-0.9,0.9s-0.9-0.4-0.9-0.9s0.4-0.9,0.9-0.9S51.3,37.3,51.3,37.8z M49.8,37.8
						c0,0.3,0.2,0.5,0.5,0.5s0.5-0.2,0.5-0.5s-0.2-0.5-0.5-0.5S49.8,37.5,49.8,37.8z"/>
				</g>
			</g>
			<g>
				<g>
					<circle class="st25" cx="56.4" cy="37.8" r="0.7"/>
				</g>
				<g>
					<path class="st16" d="M57.3,37.8c0,0.5-0.4,0.9-0.9,0.9s-0.9-0.4-0.9-0.9s0.4-0.9,0.9-0.9S57.3,37.3,57.3,37.8z M55.8,37.8
						c0,0.3,0.2,0.5,0.5,0.5s0.5-0.2,0.5-0.5s-0.2-0.5-0.5-0.5S55.8,37.5,55.8,37.8z"/>
				</g>
			</g>
		</g>
	</g>
	<path class="st26" d="M61.7,43.9H39.1c-0.3,0-0.5-0.2-0.5-0.5V29.2c0-0.3,0.2-0.5,0.5-0.5h22.6c0.3,0,0.5,0.2,0.5,0.5v14.2
		C62.2,43.6,62,43.9,61.7,43.9z"/>
	<path class="st34" d="M52.8,28.7h-5c-0.3,0-0.5-0.2-0.5-0.5v-4c0-0.3,0.2-0.5,0.5-0.5h5c0.3,0,0.5,0.2,0.5,0.5v4
		C53.3,28.5,53.1,28.7,52.8,28.7z"/>
	<text transform="matrix(-1 0 0 -1 51.4158 24.7512)" class="st2 st14 st27">1</text>
</g>
<g>
	<g>
		<g>
			<g>
				<g>
					<polygon class="st32" points="86.6,42.6 66,42.6 66,30 72.8,30 72.8,33 79.9,33 79.9,30 86.6,30 					"/>
				</g>
			</g>
			<g>
				<g>
					<g>
						<path class="st33" d="M66.6,30.6h5.6v1.8v1.2h1.2h5.8h1.2v-1.2v-1.8h5.5v11.3H66.6L66.6,30.6 M65.4,29.4v13.8h21.9V29.4h-8v3
							h-5.8v-3H65.4L65.4,29.4z"/>
					</g>
				</g>
			</g>
		</g>
		<g>
			<g>
				<g>
					<circle class="st25" cx="70.4" cy="37.8" r="0.7"/>
				</g>
				<g>
					<path class="st16" d="M71.3,37.8c0,0.5-0.4,0.9-0.9,0.9s-0.9-0.4-0.9-0.9s0.4-0.9,0.9-0.9S71.3,37.3,71.3,37.8z M69.9,37.8
						c0,0.3,0.2,0.5,0.5,0.5s0.5-0.2,0.5-0.5s-0.2-0.5-0.5-0.5S69.9,37.5,69.9,37.8z"/>
				</g>
			</g>
			<g>
				<g>
					<circle class="st25" cx="76.2" cy="37.8" r="0.7"/>
				</g>
				<g>
					<path class="st16" d="M77.2,37.8c0,0.5-0.4,0.9-0.9,0.9s-0.9-0.4-0.9-0.9s0.4-0.9,0.9-0.9S77.2,37.3,77.2,37.8z M75.7,37.8
						c0,0.3,0.2,0.5,0.5,0.5s0.5-0.2,0.5-0.5s-0.2-0.5-0.5-0.5S75.7,37.5,75.7,37.8z"/>
				</g>
			</g>
			<g>
				<g>
					<circle class="st25" cx="82.3" cy="37.8" r="0.7"/>
				</g>
				<g>
					<path class="st16" d="M83.2,37.8c0,0.5-0.4,0.9-0.9,0.9s-0.9-0.4-0.9-0.9s0.4-0.9,0.9-0.9S83.2,37.3,83.2,37.8z M81.7,37.8
						c0,0.3,0.2,0.5,0.5,0.5s0.5-0.2,0.5-0.5s-0.2-0.5-0.5-0.5S81.7,37.5,81.7,37.8z"/>
				</g>
			</g>
		</g>
	</g>
	<path class="st26" d="M87.7,43.9H65.1c-0.3,0-0.5-0.2-0.5-0.5V29.2c0-0.3,0.2-0.5,0.5-0.5h22.6c0.3,0,0.5,0.2,0.5,0.5v14.2
		C88.2,43.6,88,43.9,87.7,43.9z"/>
	<path class="st34" d="M78.8,28.7h-5c-0.3,0-0.5-0.2-0.5-0.5v-4c0-0.3,0.2-0.5,0.5-0.5h5c0.3,0,0.5,0.2,0.5,0.5v4
		C79.3,28.5,79.1,28.7,78.8,28.7z"/>
	<text transform="matrix(-1 0 0 -1 77.4041 24.7512)" class="st2 st14 st27">3</text>
</g>
<g>
	<g>
		<g>
			<g>
				<g>
					<polygon class="st32" points="112.6,42.6 92,42.6 92,30 98.8,30 98.8,33 105.9,33 105.9,30 112.6,30 					"/>
				</g>
			</g>
			<g>
				<g>
					<g>
						<path class="st33" d="M92.6,30.6h5.6v1.8v1.2h1.2h5.8h1.2v-1.2v-1.8h5.5v11.3H92.6L92.6,30.6 M91.4,29.4v13.8h21.9V29.4h-8v3
							h-5.8v-3H91.4L91.4,29.4z"/>
					</g>
				</g>
			</g>
		</g>
		<g>
			<g>
				<g>
					<circle class="st25" cx="96.4" cy="37.8" r="0.7"/>
				</g>
				<g>
					<path class="st16" d="M97.3,37.8c0,0.5-0.4,0.9-0.9,0.9s-0.9-0.4-0.9-0.9s0.4-0.9,0.9-0.9S97.3,37.3,97.3,37.8z M95.9,37.8
						c0,0.3,0.2,0.5,0.5,0.5s0.5-0.2,0.5-0.5s-0.2-0.5-0.5-0.5S95.9,37.5,95.9,37.8z"/>
				</g>
			</g>
			<g>
				<g>
					<circle class="st25" cx="102.2" cy="37.8" r="0.7"/>
				</g>
				<g>
					<path class="st16" d="M103.2,37.8c0,0.5-0.4,0.9-0.9,0.9s-0.9-0.4-0.9-0.9s0.4-0.9,0.9-0.9S103.2,37.3,103.2,37.8z M101.7,37.8
						c0,0.3,0.2,0.5,0.5,0.5s0.5-0.2,0.5-0.5s-0.2-0.5-0.5-0.5S101.7,37.5,101.7,37.8z"/>
				</g>
			</g>
			<g>
				<g>
					<circle class="st25" cx="108.3" cy="37.8" r="0.7"/>
				</g>
				<g>
					<path class="st16" d="M109.2,37.8c0,0.5-0.4,0.9-0.9,0.9s-0.9-0.4-0.9-0.9s0.4-0.9,0.9-0.9S109.2,37.3,109.2,37.8z M107.7,37.8
						c0,0.3,0.2,0.5,0.5,0.5s0.5-0.2,0.5-0.5s-0.2-0.5-0.5-0.5S107.7,37.5,107.7,37.8z"/>
				</g>
			</g>
		</g>
	</g>
	<path class="st26" d="M113.7,43.9H91.1c-0.3,0-0.5-0.2-0.5-0.5V29.2c0-0.3,0.2-0.5,0.5-0.5h22.6c0.3,0,0.5,0.2,0.5,0.5v14.2
		C114.2,43.6,114,43.9,113.7,43.9z"/>
	<path class="st34" d="M104.8,28.7h-5c-0.3,0-0.5-0.2-0.5-0.5v-4c0-0.3,0.2-0.5,0.5-0.5h5c0.3,0,0.5,0.2,0.5,0.5v4
		C105.3,28.5,105.1,28.7,104.8,28.7z"/>
	<text transform="matrix(-1 0 0 -1 103.3933 24.7512)" class="st2 st14 st27">5</text>
</g>
<g>
	<g>
		<g>
			<g>
				<g>
					<polygon class="st32" points="138.6,42.6 118,42.6 118,30 124.8,30 124.8,33 131.9,33 131.9,30 138.6,30 					"/>
				</g>
			</g>
			<g>
				<g>
					<g>
						<path class="st33" d="M118.6,30.6h5.6v1.8v1.2h1.2h5.8h1.2v-1.2v-1.8h5.5v11.3h-19.3L118.6,30.6 M117.4,29.4v13.8h21.9V29.4
							h-8v3h-5.8v-3H117.4L117.4,29.4z"/>
					</g>
				</g>
			</g>
		</g>
		<g>
			<g>
				<g>
					<circle class="st25" cx="122.4" cy="37.8" r="0.7"/>
				</g>
				<g>
					<path class="st16" d="M123.3,37.8c0,0.5-0.4,0.9-0.9,0.9s-0.9-0.4-0.9-0.9s0.4-0.9,0.9-0.9S123.3,37.3,123.3,37.8z M121.9,37.8
						c0,0.3,0.2,0.5,0.5,0.5s0.5-0.2,0.5-0.5s-0.2-0.5-0.5-0.5S121.9,37.5,121.9,37.8z"/>
				</g>
			</g>
			<g>
				<g>
					<circle class="st25" cx="128.2" cy="37.8" r="0.7"/>
				</g>
				<g>
					<path class="st16" d="M129.2,37.8c0,0.5-0.4,0.9-0.9,0.9s-0.9-0.4-0.9-0.9s0.4-0.9,0.9-0.9S129.2,37.3,129.2,37.8z M127.7,37.8
						c0,0.3,0.2,0.5,0.5,0.5c0.3,0,0.5-0.2,0.5-0.5s-0.2-0.5-0.5-0.5C127.9,37.3,127.7,37.5,127.7,37.8z"/>
				</g>
			</g>
			<g>
				<g>
					<circle class="st25" cx="134.3" cy="37.8" r="0.7"/>
				</g>
				<g>
					<path class="st16" d="M135.2,37.8c0,0.5-0.4,0.9-0.9,0.9s-0.9-0.4-0.9-0.9s0.4-0.9,0.9-0.9S135.2,37.3,135.2,37.8z M133.7,37.8
						c0,0.3,0.2,0.5,0.5,0.5s0.5-0.2,0.5-0.5s-0.2-0.5-0.5-0.5S133.7,37.5,133.7,37.8z"/>
				</g>
			</g>
		</g>
	</g>
	<path class="st26" d="M139.7,43.9h-22.6c-0.3,0-0.5-0.2-0.5-0.5V29.2c0-0.3,0.2-0.5,0.5-0.5h22.6c0.3,0,0.5,0.2,0.5,0.5v14.2
		C140.2,43.6,139.9,43.9,139.7,43.9z"/>
	<path class="st34" d="M130.8,28.7h-5c-0.3,0-0.5-0.2-0.5-0.5v-4c0-0.3,0.2-0.5,0.5-0.5h5c0.3,0,0.5,0.2,0.5,0.5v4
		C131.3,28.5,131,28.7,130.8,28.7z"/>
	<text transform="matrix(-1 0 0 -1 129.3836 24.7512)" class="st2 st14 st27">7</text>
</g>
<g>
	<g>
		<g>
			<g>
				<g>
					<polygon class="st32" points="86.6,20.7 66,20.7 66,8.1 72.8,8.1 72.8,11.1 79.9,11.1 79.9,8.1 86.6,8.1 					"/>
				</g>
			</g>
			<g>
				<g>
					<g>
						<path class="st33" d="M66.6,8.7h5.6v1.8v1.2h1.2h5.8h1.2v-1.2V8.7h5.5V20H66.6L66.6,8.7 M65.4,7.5v13.8h21.9V7.5h-8v3h-5.8v-3
							H65.4L65.4,7.5z"/>
					</g>
				</g>
			</g>
		</g>
		<g>
			<g>
				<g>
					<circle class="st25" cx="70.4" cy="15.9" r="0.7"/>
				</g>
				<g>
					<path class="st16" d="M71.3,15.9c0,0.5-0.4,0.9-0.9,0.9s-0.9-0.4-0.9-0.9s0.4-0.9,0.9-0.9S71.3,15.4,71.3,15.9z M69.9,15.9
						c0,0.3,0.2,0.5,0.5,0.5s0.5-0.2,0.5-0.5s-0.2-0.5-0.5-0.5S69.9,15.6,69.9,15.9z"/>
				</g>
			</g>
			<g>
				<g>
					<circle class="st25" cx="76.2" cy="15.9" r="0.7"/>
				</g>
				<g>
					<path class="st16" d="M77.2,15.9c0,0.5-0.4,0.9-0.9,0.9s-0.9-0.4-0.9-0.9s0.4-0.9,0.9-0.9S77.2,15.4,77.2,15.9z M75.7,15.9
						c0,0.3,0.2,0.5,0.5,0.5s0.5-0.2,0.5-0.5s-0.2-0.5-0.5-0.5S75.7,15.6,75.7,15.9z"/>
				</g>
			</g>
			<g>
				<g>
					<circle class="st25" cx="82.3" cy="15.9" r="0.7"/>
				</g>
				<g>
					<path class="st16" d="M83.2,15.9c0,0.5-0.4,0.9-0.9,0.9s-0.9-0.4-0.9-0.9s0.4-0.9,0.9-0.9S83.2,15.4,83.2,15.9z M81.7,15.9
						c0,0.3,0.2,0.5,0.5,0.5s0.5-0.2,0.5-0.5s-0.2-0.5-0.5-0.5S81.7,15.6,81.7,15.9z"/>
				</g>
			</g>
		</g>
	</g>
	<path class="st26" d="M87.7,22H65.1c-0.3,0-0.5-0.2-0.5-0.5V7.3c0-0.3,0.2-0.5,0.5-0.5h22.6c0.3,0,0.5,0.2,0.5,0.5v14.2
		C88.2,21.7,87.9,22,87.7,22z"/>
	<path class="st34" d="M78.8,6.8h-5c-0.3,0-0.5-0.2-0.5-0.5v-4c0-0.3,0.2-0.5,0.5-0.5h5c0.3,0,0.5,0.2,0.5,0.5v4
		C79.3,6.6,79,6.8,78.8,6.8z"/>
	<text transform="matrix(-1 0 0 -1 77.3699 2.8518)" class="st2 st14 st27">2</text>
</g>
<g>
	<g>
		<g>
			<g>
				<g>
					<polygon class="st32" points="112.6,20.7 92,20.7 92,8.1 98.8,8.1 98.8,11.1 105.9,11.1 105.9,8.1 112.6,8.1 					"/>
				</g>
			</g>
			<g>
				<g>
					<g>
						<path class="st33" d="M92.6,8.7h5.6v1.8v1.2h1.2h5.8h1.2v-1.2V8.7h5.5V20H92.6L92.6,8.7 M91.4,7.5v13.8h21.9V7.5h-8v3h-5.8v-3
							H91.4L91.4,7.5z"/>
					</g>
				</g>
			</g>
		</g>
		<g>
			<g>
				<g>
					<circle class="st25" cx="96.4" cy="15.9" r="0.7"/>
				</g>
				<g>
					<path class="st16" d="M97.3,15.9c0,0.5-0.4,0.9-0.9,0.9s-0.9-0.4-0.9-0.9s0.4-0.9,0.9-0.9S97.3,15.4,97.3,15.9z M95.9,15.9
						c0,0.3,0.2,0.5,0.5,0.5s0.5-0.2,0.5-0.5s-0.2-0.5-0.5-0.5S95.9,15.6,95.9,15.9z"/>
				</g>
			</g>
			<g>
				<g>
					<circle class="st25" cx="102.2" cy="15.9" r="0.7"/>
				</g>
				<g>
					<path class="st16" d="M103.2,15.9c0,0.5-0.4,0.9-0.9,0.9s-0.9-0.4-0.9-0.9s0.4-0.9,0.9-0.9S103.2,15.4,103.2,15.9z M101.7,15.9
						c0,0.3,0.2,0.5,0.5,0.5s0.5-0.2,0.5-0.5s-0.2-0.5-0.5-0.5S101.7,15.6,101.7,15.9z"/>
				</g>
			</g>
			<g>
				<g>
					<circle class="st25" cx="108.3" cy="15.9" r="0.7"/>
				</g>
				<g>
					<path class="st16" d="M109.2,15.9c0,0.5-0.4,0.9-0.9,0.9s-0.9-0.4-0.9-0.9s0.4-0.9,0.9-0.9S109.2,15.4,109.2,15.9z M107.7,15.9
						c0,0.3,0.2,0.5,0.5,0.5s0.5-0.2,0.5-0.5s-0.2-0.5-0.5-0.5S107.7,15.6,107.7,15.9z"/>
				</g>
			</g>
		</g>
	</g>
	<path class="st26" d="M113.7,22H91.1c-0.3,0-0.5-0.2-0.5-0.5V7.3c0-0.3,0.2-0.5,0.5-0.5h22.6c0.3,0,0.5,0.2,0.5,0.5v14.2
		C114.2,21.7,113.9,22,113.7,22z"/>
	<path class="st34" d="M104.8,6.8h-5c-0.3,0-0.5-0.2-0.5-0.5v-4c0-0.3,0.2-0.5,0.5-0.5h5c0.3,0,0.5,0.2,0.5,0.5v4
		C105.3,6.6,105,6.8,104.8,6.8z"/>
	<text transform="matrix(-1 0 0 -1 103.3767 2.8518)" class="st2 st14 st27">4</text>
</g>
<g>
	<g>
		<g>
			<g>
				<g>
					<polygon class="st32" points="138.6,20.7 118,20.7 118,8.1 124.8,8.1 124.8,11.1 131.9,11.1 131.9,8.1 138.6,8.1 					"/>
				</g>
			</g>
			<g>
				<g>
					<g>
						<path class="st33" d="M118.6,8.7h5.6v1.8v1.2h1.2h5.8h1.2v-1.2V8.7h5.5V20h-19.3L118.6,8.7 M117.4,7.5v13.8h21.9V7.5h-8v3
							h-5.8v-3H117.4L117.4,7.5z"/>
					</g>
				</g>
			</g>
		</g>
		<g>
			<g>
				<g>
					<circle class="st25" cx="122.4" cy="15.9" r="0.7"/>
				</g>
				<g>
					<path class="st16" d="M123.3,15.9c0,0.5-0.4,0.9-0.9,0.9s-0.9-0.4-0.9-0.9s0.4-0.9,0.9-0.9S123.3,15.4,123.3,15.9z M121.9,15.9
						c0,0.3,0.2,0.5,0.5,0.5s0.5-0.2,0.5-0.5s-0.2-0.5-0.5-0.5S121.9,15.6,121.9,15.9z"/>
				</g>
			</g>
			<g>
				<g>
					<circle class="st25" cx="128.2" cy="15.9" r="0.7"/>
				</g>
				<g>
					<path class="st16" d="M129.2,15.9c0,0.5-0.4,0.9-0.9,0.9s-0.9-0.4-0.9-0.9s0.4-0.9,0.9-0.9S129.2,15.4,129.2,15.9z M127.7,15.9
						c0,0.3,0.2,0.5,0.5,0.5c0.3,0,0.5-0.2,0.5-0.5s-0.2-0.5-0.5-0.5C127.9,15.4,127.7,15.6,127.7,15.9z"/>
				</g>
			</g>
			<g>
				<g>
					<circle class="st25" cx="134.3" cy="15.9" r="0.7"/>
				</g>
				<g>
					<path class="st16" d="M135.2,15.9c0,0.5-0.4,0.9-0.9,0.9s-0.9-0.4-0.9-0.9s0.4-0.9,0.9-0.9S135.2,15.4,135.2,15.9z M133.7,15.9
						c0,0.3,0.2,0.5,0.5,0.5s0.5-0.2,0.5-0.5s-0.2-0.5-0.5-0.5S133.7,15.6,133.7,15.9z"/>
				</g>
			</g>
		</g>
	</g>
	<path class="st26" d="M139.7,22h-22.6c-0.3,0-0.5-0.2-0.5-0.5V7.3c0-0.3,0.2-0.5,0.5-0.5h22.6c0.3,0,0.5,0.2,0.5,0.5v14.2
		C140.2,21.7,139.9,22,139.7,22z"/>
	<path class="st34" d="M130.8,6.8h-5c-0.3,0-0.5-0.2-0.5-0.5v-4c0-0.3,0.2-0.5,0.5-0.5h5c0.3,0,0.5,0.2,0.5,0.5v4
		C131.3,6.6,131,6.8,130.8,6.8z"/>
	<text transform="matrix(-1 0 0 -1 129.3826 2.8518)" class="st2 st14 st27">6</text>
</g>
<g>
	<path class="st35" d="M19.6,4.9c-2.1,2.2-2.2,5.5-0.3,7.9l8.1-8.6C25,2.4,21.7,2.7,19.6,4.9z"/>
	<path class="st35" d="M28.3,13.2c2-2.2,2.2-5.5,0.3-7.8l-8.1,8.6C23,15.7,26.3,15.3,28.3,13.2z"/>
	<path class="st36" d="M28.1,4.7c-0.2-0.2-0.4-0.4-0.7-0.5l-8.1,8.6c0.2,0.2,0.4,0.4,0.6,0.6c0.2,0.2,0.4,0.4,0.7,0.5l8.1-8.6
		C28.5,5.1,28.3,4.9,28.1,4.7z"/>
	<path class="st36" d="M28.3,13.1c0.2-0.2,0.4-0.4,0.5-0.7l-8.6-8.1c-0.2,0.2-0.4,0.4-0.6,0.6c-0.2,0.2-0.4,0.4-0.5,0.7l8.6,8.1
		C27.9,13.5,28.1,13.3,28.3,13.1z"/>
</g>
<g>
	<path class="st35" d="M257.8,4.9c-2.1,2.2-2.2,5.5-0.3,7.9l8.1-8.6C263.2,2.4,259.8,2.7,257.8,4.9z"/>
	<path class="st35" d="M266.5,13.2c2-2.2,2.2-5.5,0.3-7.8l-8.1,8.6C261.2,15.7,264.5,15.3,266.5,13.2z"/>
	<path class="st36" d="M266.3,4.7c-0.2-0.2-0.4-0.4-0.7-0.5l-8.1,8.6c0.2,0.2,0.4,0.4,0.6,0.6c0.2,0.2,0.4,0.4,0.7,0.5l8.1-8.6
		C266.7,5.1,266.5,4.9,266.3,4.7z"/>
	<path class="st36" d="M266.5,13.1c0.2-0.2,0.4-0.4,0.5-0.7l-8.6-8.1c-0.2,0.2-0.4,0.4-0.6,0.6c-0.2,0.2-0.4,0.4-0.5,0.7l8.6,8.1
		C266.1,13.5,266.3,13.3,266.5,13.1z"/>
</g>
<g>
	<path class="st35" d="M257.8,149.1c-2.1,2.2-2.2,5.5-0.3,7.9l8.1-8.6C263.2,146.6,259.8,147,257.8,149.1z"/>
	<path class="st35" d="M266.5,157.4c2-2.2,2.2-5.5,0.3-7.8l-8.1,8.6C261.2,159.9,264.5,159.6,266.5,157.4z"/>
	<path class="st36" d="M266.3,148.9c-0.2-0.2-0.4-0.4-0.7-0.5l-8.1,8.6c0.2,0.2,0.4,0.4,0.6,0.6c0.2,0.2,0.4,0.4,0.7,0.5l8.1-8.6
		C266.7,149.3,266.5,149.1,266.3,148.9z"/>
	<path class="st36" d="M266.5,157.4c0.2-0.2,0.4-0.4,0.5-0.7l-8.6-8.1c-0.2,0.2-0.4,0.4-0.6,0.6c-0.2,0.2-0.4,0.4-0.5,0.7l8.6,8.1
		C266.1,157.8,266.3,157.6,266.5,157.4z"/>
</g>
<g>
	<path class="st35" d="M19.6,149.1c-2.1,2.2-2.2,5.5-0.3,7.9l8.1-8.6C25,146.7,21.7,147,19.6,149.1z"/>
	<path class="st35" d="M28.3,157.4c2-2.2,2.2-5.5,0.3-7.8l-8.1,8.6C23,159.9,26.3,159.6,28.3,157.4z"/>
	<path class="st36" d="M28.1,148.9c-0.2-0.2-0.4-0.4-0.7-0.5l-8.1,8.6c0.2,0.2,0.4,0.4,0.6,0.6c0.2,0.2,0.4,0.4,0.7,0.5l8.1-8.6
		C28.5,149.3,28.3,149.1,28.1,148.9z"/>
	<path class="st36" d="M28.3,157.4c0.2-0.2,0.4-0.4,0.5-0.7l-8.6-8.1c-0.2,0.2-0.4,0.4-0.6,0.6c-0.2,0.2-0.4,0.4-0.5,0.7l8.6,8.1
		C27.9,157.8,28.1,157.6,28.3,157.4z"/>
</g>
<g>
	<path class="st37" d="M151.6,18.5h-5l-0.6-0.6v-5l0.6-0.6h5l0.6,0.6v5L151.6,18.5z"/>
	<circle class="st38" cx="149.1" cy="15.3" r="0.7"/>
	<path class="st37" d="M157.8,18.5h-5l-0.6-0.6v-5l0.6-0.6h5l0.6,0.6v5L157.8,18.5z"/>
	<circle class="st38" cx="155.3" cy="15.3" r="0.7"/>
	<path class="st37" d="M164.1,18.5h-5l-0.6-0.6v-5l0.6-0.6h5l0.6,0.6v5L164.1,18.5z"/>
	<circle class="st38" cx="161.6" cy="15.3" r="0.7"/>
	<path class="st37" d="M170.3,18.5h-5l-0.6-0.6v-5l0.6-0.6h5l0.6,0.6v5L170.3,18.5z"/>
	<circle class="st38" cx="167.8" cy="15.3" r="0.7"/>
	<path class="st37" d="M176.6,18.5h-5l-0.6-0.6v-5l0.6-0.6h5l0.6,0.6v5L176.6,18.5z"/>
	<circle class="st38" cx="174.1" cy="15.3" r="0.7"/>
	<path class="st37" d="M182.9,18.5h-5l-0.6-0.6v-5l0.6-0.6h5l0.6,0.6v5L182.9,18.5z"/>
	<circle class="st38" cx="180.4" cy="15.3" r="0.7"/>
	<path class="st39" d="M151.6,25.6h-5L146,25v-5l0.6-0.6h5l0.6,0.6v5L151.6,25.6z"/>
	<circle class="st38" cx="149.1" cy="22.5" r="0.7"/>
	<path class="st39" d="M157.8,25.6h-5l-0.6-0.6v-5l0.6-0.6h5l0.6,0.6v5L157.8,25.6z"/>
	<circle class="st38" cx="155.3" cy="22.5" r="0.7"/>
	<path class="st39" d="M164.1,25.6h-5l-0.6-0.6v-5l0.6-0.6h5l0.6,0.6v5L164.1,25.6z"/>
	<circle class="st38" cx="161.6" cy="22.5" r="0.7"/>
	<path class="st39" d="M170.3,25.6h-5l-0.6-0.6v-5l0.6-0.6h5L171,20v5L170.3,25.6z"/>
	<circle class="st38" cx="167.8" cy="22.5" r="0.7"/>
	<path class="st39" d="M176.6,25.6h-5L171,25v-5l0.6-0.6h5l0.6,0.6v5L176.6,25.6z"/>
	<circle class="st38" cx="174.1" cy="22.5" r="0.7"/>
	<path class="st39" d="M182.9,25.6h-5l-0.6-0.6v-5l0.6-0.6h5l0.6,0.6v5L182.9,25.6z"/>
	<circle class="st38" cx="180.4" cy="22.5" r="0.7"/>
	<path class="st40" d="M151.6,32.8h-5l-0.6-0.6v-5l0.6-0.6h5l0.6,0.6v5L151.6,32.8z"/>
	<circle class="st38" cx="149.1" cy="29.7" r="0.7"/>
	<path class="st40" d="M157.8,32.8h-5l-0.6-0.6v-5l0.6-0.6h5l0.6,0.6v5L157.8,32.8z"/>
	<circle class="st38" cx="155.3" cy="29.7" r="0.7"/>
	<path class="st40" d="M164.1,32.8h-5l-0.6-0.6v-5l0.6-0.6h5l0.6,0.6v5L164.1,32.8z"/>
	<circle class="st38" cx="161.6" cy="29.7" r="0.7"/>
	<path class="st40" d="M170.3,32.8h-5l-0.6-0.6v-5l0.6-0.6h5l0.6,0.6v5L170.3,32.8z"/>
	<circle class="st38" cx="167.8" cy="29.7" r="0.7"/>
	<path class="st40" d="M176.6,32.8h-5l-0.6-0.6v-5l0.6-0.6h5l0.6,0.6v5L176.6,32.8z"/>
	<circle class="st38" cx="174.1" cy="29.7" r="0.7"/>
	<path class="st40" d="M182.9,32.8h-5l-0.6-0.6v-5l0.6-0.6h5l0.6,0.6v5L182.9,32.8z"/>
	<circle class="st38" cx="180.4" cy="29.7" r="0.7"/>
</g>
<g>
	<path class="st41" d="M101.4,124.8h-5.6l-0.7-0.7v-5.6l0.7-0.7h5.6l0.7,0.7v5.6L101.4,124.8z"/>
	<circle class="st42" cx="98.7" cy="121.3" r="0.8"/>
	<path class="st41" d="M101.4,131.8h-5.6l-0.7-0.7v-5.6l0.7-0.7h5.6l0.7,0.7v5.6L101.4,131.8z"/>
	<circle class="st42" cx="98.7" cy="128.3" r="0.8"/>
	<path class="st41" d="M101.4,138.8h-5.6l-0.7-0.7v-5.6l0.7-0.7h5.6l0.7,0.7v5.6L101.4,138.8z"/>
	<circle class="st42" cx="98.7" cy="135.3" r="0.8"/>
	<path class="st41" d="M108.4,124.8h-5.6l-0.7-0.7v-5.6l0.7-0.7h5.6l0.7,0.7v5.6L108.4,124.8z"/>
	<circle class="st42" cx="105.6" cy="121.3" r="0.8"/>
	<path class="st41" d="M108.4,131.8h-5.6l-0.7-0.7v-5.6l0.7-0.7h5.6l0.7,0.7v5.6L108.4,131.8z"/>
	<circle class="st42" cx="105.6" cy="128.3" r="0.8"/>
	<path class="st41" d="M108.4,138.8h-5.6l-0.7-0.7v-5.6l0.7-0.7h5.6l0.7,0.7v5.6L108.4,138.8z"/>
	<circle class="st42" cx="105.6" cy="135.3" r="0.8"/>
</g>
<g>
	<line class="st43" x1="139.2" y1="120.2" x2="139.2" y2="140.6"/>
	<g>
		<g>
			<ellipse class="st44" cx="139.2" cy="130.4" rx="3.3" ry="8.6"/>
		</g>
		<ellipse class="st45" cx="139.3" cy="126.3" rx="1.2" ry="0.6"/>
	</g>
</g>
<g>
	<circle class="st46" cx="185.1" cy="117.9" r="1.3"/>
	<circle class="st47" cx="185.1" cy="117.9" r="0.6"/>
	<circle class="st46" cx="185.1" cy="135" r="1.3"/>
	<circle class="st47" cx="185.1" cy="135" r="0.6"/>
	<path class="st48" d="M185.1,117.6L185.1,117.6c0.3,0,0.5,0.2,0.5,0.5v16.7c0,0.3-0.2,0.5-0.5,0.5h0c-0.3,0-0.5-0.2-0.5-0.5v-16.7
		C184.6,117.8,184.8,117.6,185.1,117.6z"/>
	<path class="st49" d="M178.5,126.4c0,4.4,3.6,8,8,8v-15.9C182.1,118.5,178.5,122,178.5,126.4z"/>
	<rect x="186.5" y="118.5" class="st50" width="1.3" height="15.9"/>
</g>
<g>
	<circle class="st46" cx="185.1" cy="139.5" r="1.3"/>
	<circle class="st47" cx="185.1" cy="139.5" r="0.6"/>
	<circle class="st46" cx="185.1" cy="156.6" r="1.3"/>
	<circle class="st47" cx="185.1" cy="156.6" r="0.6"/>
	<path class="st48" d="M185.1,139.2L185.1,139.2c0.3,0,0.5,0.2,0.5,0.5v16.7c0,0.3-0.2,0.5-0.5,0.5h0c-0.3,0-0.5-0.2-0.5-0.5v-16.7
		C184.6,139.4,184.8,139.2,185.1,139.2z"/>
	<path class="st49" d="M178.5,148c0,4.4,3.6,8,8,8v-15.9C182.1,140.1,178.5,143.7,178.5,148z"/>
	<rect x="186.5" y="140.1" class="st50" width="1.3" height="15.9"/>
</g>
<text transform="matrix(1.1867 0 0 1 146.5759 49.5544)" class="st2 st51 st52">iKB-1</text>
<text transform="matrix(1 0 0 1 147.5769 55.4001)" class="st2 st51 st53">Universal I/O board</text>
<g>
	<circle class="st46" cx="45.8" cy="51.4" r="2"/>
	<circle class="st47" cx="45.8" cy="51.4" r="1"/>
	<path class="st48" d="M46.2,51.4L46.2,51.4c0,0.3-0.2,0.5-0.5,0.5h-9.5c-0.3,0-0.5-0.2-0.5-0.5v0c0-0.3,0.2-0.5,0.5-0.5h9.5
		C45.9,50.9,46.2,51.1,46.2,51.4z"/>
	<circle class="st46" cx="45.8" cy="58.6" r="2"/>
	<circle class="st47" cx="45.8" cy="58.6" r="1"/>
	<path class="st48" d="M46.2,58.6L46.2,58.6c0,0.3-0.2,0.5-0.5,0.5h-9.5c-0.3,0-0.5-0.2-0.5-0.5v0c0-0.3,0.2-0.5,0.5-0.5h9.5
		C45.9,58.1,46.2,58.3,46.2,58.6z"/>
	<circle class="st46" cx="45.8" cy="65.8" r="2"/>
	<circle class="st47" cx="45.8" cy="65.8" r="1"/>
	<path class="st48" d="M46.2,65.8L46.2,65.8c0,0.3-0.2,0.5-0.5,0.5h-9.5c-0.3,0-0.5-0.2-0.5-0.5v0c0-0.3,0.2-0.5,0.5-0.5h9.5
		C45.9,65.3,46.2,65.5,46.2,65.8z"/>
	<circle class="st46" cx="45.8" cy="73" r="2"/>
	<circle class="st47" cx="45.8" cy="73" r="1"/>
	<path class="st48" d="M46.2,73L46.2,73c0,0.3-0.2,0.5-0.5,0.5h-9.5c-0.3,0-0.5-0.2-0.5-0.5v0c0-0.3,0.2-0.5,0.5-0.5h9.5
		C45.9,72.5,46.2,72.7,46.2,73z"/>
	<circle class="st46" cx="45.8" cy="80.2" r="2"/>
	<circle class="st47" cx="45.8" cy="80.2" r="1"/>
	<path class="st48" d="M46.2,80.2L46.2,80.2c0,0.3-0.2,0.5-0.5,0.5h-9.5c-0.3,0-0.5-0.2-0.5-0.5v0c0-0.3,0.2-0.5,0.5-0.5h9.5
		C45.9,79.7,46.2,79.9,46.2,80.2z"/>
	<rect x="13.1" y="45.5" class="st2" width="20.7" height="6"/>
	<rect x="13.1" y="82.6" class="st2" width="20.7" height="6"/>
	<rect x="22.7" y="45.5" class="st2" width="11.1" height="43.1"/>
	<rect x="33.8" y="45.5" class="st1" width="5" height="43.1"/>
	<rect x="33.8" y="45.5" class="st2" width="13.3" height="2.2"/>
	<rect x="33.8" y="86.4" class="st2" width="13.3" height="2.2"/>
	<rect x="13.1" y="55.9" class="st2" width="20.7" height="22.2"/>
</g>
<g>
	<rect x="51" y="64.9" class="st54" width="150.2" height="38.9"/>
	<path class="st55" d="M51,80c2.3,0,4.1,1.8,4.1,4.1c0,2.3-1.8,4.1-4.1,4.1"/>
	<rect x="55.3" y="63.1" class="st56" width="4" height="1.8"/>
	<rect x="55.3" y="61.3" class="st57" width="4" height="1.8"/>
	<rect x="62.6" y="63.1" class="st56" width="4" height="1.8"/>
	<rect x="62.6" y="61.3" class="st57" width="4" height="1.8"/>
	<rect x="69.8" y="63.1" class="st56" width="4" height="1.8"/>
	<rect x="69.8" y="61.3" class="st57" width="4" height="1.8"/>
	<rect x="77" y="63.1" class="st56" width="4" height="1.8"/>
	<rect x="77" y="61.3" class="st57" width="4" height="1.8"/>
	<rect x="84.3" y="63.1" class="st56" width="4" height="1.8"/>
	<rect x="84.3" y="61.3" class="st57" width="4" height="1.8"/>
	<rect x="91.5" y="63.1" class="st56" width="4" height="1.8"/>
	<rect x="91.5" y="61.3" class="st57" width="4" height="1.8"/>
	<rect x="98.7" y="63.1" class="st56" width="4" height="1.8"/>
	<rect x="98.7" y="61.3" class="st57" width="4" height="1.8"/>
	<rect x="106" y="63.1" class="st56" width="4" height="1.8"/>
	<rect x="106" y="61.3" class="st57" width="4" height="1.8"/>
	<rect x="113.2" y="63.1" class="st56" width="4" height="1.8"/>
	<rect x="113.2" y="61.3" class="st57" width="4" height="1.8"/>
	<rect x="120.4" y="63.1" class="st56" width="4" height="1.8"/>
	<rect x="120.4" y="61.3" class="st57" width="4" height="1.8"/>
	<rect x="127.7" y="63.1" class="st56" width="4" height="1.8"/>
	<rect x="127.7" y="61.3" class="st57" width="4" height="1.8"/>
	<rect x="134.9" y="63.1" class="st56" width="4" height="1.8"/>
	<rect x="134.9" y="61.3" class="st57" width="4" height="1.8"/>
	<rect x="142.2" y="63.1" class="st56" width="4" height="1.8"/>
	<rect x="142.2" y="61.3" class="st57" width="4" height="1.8"/>
	<rect x="149.4" y="63.1" class="st56" width="4" height="1.8"/>
	<rect x="149.4" y="61.3" class="st57" width="4" height="1.8"/>
	<rect x="156.6" y="63.1" class="st56" width="4" height="1.8"/>
	<rect x="156.6" y="61.3" class="st57" width="4" height="1.8"/>
	<rect x="163.9" y="63.1" class="st56" width="4" height="1.8"/>
	<rect x="163.9" y="61.3" class="st57" width="4" height="1.8"/>
	<rect x="171.1" y="63.1" class="st56" width="4" height="1.8"/>
	<rect x="171.1" y="61.3" class="st57" width="4" height="1.8"/>
	<rect x="178.3" y="63.1" class="st56" width="4" height="1.8"/>
	<rect x="178.3" y="61.3" class="st57" width="4" height="1.8"/>
	<rect x="185.6" y="63.1" class="st56" width="4" height="1.8"/>
	<rect x="185.6" y="61.3" class="st57" width="4" height="1.8"/>
	<rect x="192.8" y="63.1" class="st56" width="4" height="1.8"/>
	<rect x="192.8" y="61.3" class="st57" width="4" height="1.8"/>
	<rect x="192.8" y="103.8" class="st56" width="4" height="1.8"/>
	<rect x="192.8" y="105.6" class="st57" width="4" height="1.8"/>
	<rect x="185.6" y="103.8" class="st56" width="4" height="1.8"/>
	<rect x="185.6" y="105.6" class="st57" width="4" height="1.8"/>
	<rect x="178.3" y="103.8" class="st56" width="4" height="1.8"/>
	<rect x="178.3" y="105.6" class="st57" width="4" height="1.8"/>
	<rect x="171.1" y="103.8" class="st56" width="4" height="1.8"/>
	<rect x="171.1" y="105.6" class="st57" width="4" height="1.8"/>
	<rect x="163.9" y="103.8" class="st56" width="4" height="1.8"/>
	<rect x="163.9" y="105.6" class="st57" width="4" height="1.8"/>
	<rect x="156.6" y="103.8" class="st56" width="4" height="1.8"/>
	<rect x="156.6" y="105.6" class="st57" width="4" height="1.8"/>
	<rect x="149.4" y="103.8" class="st56" width="4" height="1.8"/>
	<rect x="149.4" y="105.6" class="st57" width="4" height="1.8"/>
	<rect x="142.2" y="103.8" class="st56" width="4" height="1.8"/>
	<rect x="142.2" y="105.6" class="st57" width="4" height="1.8"/>
	<rect x="134.9" y="103.8" class="st56" width="4" height="1.8"/>
	<rect x="134.9" y="105.6" class="st57" width="4" height="1.8"/>
	<rect x="127.7" y="103.8" class="st56" width="4" height="1.8"/>
	<rect x="127.7" y="105.6" class="st57" width="4" height="1.8"/>
	<rect x="120.4" y="103.8" class="st56" width="4" height="1.8"/>
	<rect x="120.4" y="105.6" class="st57" width="4" height="1.8"/>
	<rect x="113.2" y="103.8" class="st56" width="4" height="1.8"/>
	<rect x="113.2" y="105.6" class="st57" width="4" height="1.8"/>
	<rect x="106" y="103.8" class="st56" width="4" height="1.8"/>
	<rect x="106" y="105.6" class="st57" width="4" height="1.8"/>
	<rect x="98.7" y="103.8" class="st56" width="4" height="1.8"/>
	<rect x="98.7" y="105.6" class="st57" width="4" height="1.8"/>
	<rect x="91.5" y="103.8" class="st56" width="4" height="1.8"/>
	<rect x="91.5" y="105.6" class="st57" width="4" height="1.8"/>
	<rect x="84.3" y="103.8" class="st56" width="4" height="1.8"/>
	<rect x="84.3" y="105.6" class="st57" width="4" height="1.8"/>
	<rect x="77" y="103.8" class="st56" width="4" height="1.8"/>
	<rect x="77" y="105.6" class="st57" width="4" height="1.8"/>
	<rect x="69.8" y="103.8" class="st56" width="4" height="1.8"/>
	<rect x="69.8" y="105.6" class="st57" width="4" height="1.8"/>
	<rect x="62.6" y="103.8" class="st56" width="4" height="1.8"/>
	<rect x="62.6" y="105.6" class="st57" width="4" height="1.8"/>
	<rect x="55.3" y="103.8" class="st56" width="4" height="1.8"/>
	<rect x="55.3" y="105.6" class="st57" width="4" height="1.8"/>
</g>
<line class="st26" x1="142.6" y1="4.3" x2="142.6" y2="55.2"/>
<g>
	<g>
		<g>
			<g>
				<ellipse class="st58" cx="205.2" cy="14.9" rx="10.7" ry="10.7"/>
			</g>
		</g>
		<g>
			<g>
				<g>
					<path class="st22" d="M215.6,17.8c0.6-2.3,0.4-4.7-0.3-6.8l-10,3.9L215.6,17.8z"/>
				</g>
			</g>
		</g>
		<g>
			<g>
				<circle class="st7" cx="205.2" cy="14.9" r="8.6"/>
			</g>
		</g>
		<g>
			<g>
				<polygon class="st23" points="207.7,23.2 207.3,23.3 205.1,15.1 196.9,12.8 197,12.5 205.4,14.8 				"/>
			</g>
		</g>
		<g>
			<g>
				
					<rect x="204" y="11.8" transform="matrix(0.7204 -0.6935 0.6935 0.7204 49.9303 147.8513)" class="st23" width="8.6" height="0.4"/>
			</g>
		</g>
		<g>
			<g>
				
					<rect x="214.7" y="14.4" transform="matrix(4.798443e-02 -0.9988 0.9988 4.798443e-02 189.1892 229.3258)" class="st58" width="0.4" height="2.1"/>
			</g>
		</g>
		<g>
			<g>
				
					<rect x="213.7" y="13.2" transform="matrix(0.9682 -0.2502 0.2502 0.9682 3.488 54.1686)" class="st58" width="2.1" height="0.4"/>
			</g>
		</g>
	</g>
	<g>
		<g>
			<path class="st2" d="M217.3,18.3c-1.8,6.6-8.8,10.5-15.4,8.7c-6.6-1.8-10.5-8.8-8.7-15.4c1.8-6.6,8.8-10.5,15.4-8.7
				S219.2,11.6,217.3,18.3z M193.6,11.7c-1.8,6.4,2,13.1,8.5,14.9c6.4,1.8,13.2-2,14.9-8.5c1.8-6.4-2-13.1-8.5-14.9
				C202.1,1.5,195.4,5.2,193.6,11.7z"/>
		</g>
	</g>
</g>
<g>
	<g>
		<g>
			<g>
				<ellipse class="st58" cx="205.2" cy="41" rx="10.7" ry="10.7"/>
			</g>
		</g>
		<g>
			<g>
				<g>
					<path class="st22" d="M215.9,42.5c0.3-2.4-0.2-4.7-1.2-6.7l-9.4,5.3L215.9,42.5z"/>
				</g>
			</g>
		</g>
		<g>
			<g>
				<circle class="st7" cx="205.2" cy="41" r="8.6"/>
			</g>
		</g>
		<g>
			<g>
				<polygon class="st23" points="208.8,48.9 208.4,49 205.1,41.2 196.7,40.1 196.8,39.7 205.4,40.9 				"/>
			</g>
		</g>
		<g>
			<g>
				
					<rect x="203.6" y="37.5" transform="matrix(0.6212 -0.7837 0.7837 0.6212 49.2224 177.2231)" class="st23" width="8.6" height="0.4"/>
			</g>
		</g>
		<g>
			<g>
				
					<rect x="213.8" y="40" transform="matrix(0.9963 -8.604199e-02 8.604199e-02 0.9963 -2.6628 18.6371)" class="st58" width="2.1" height="0.4"/>
			</g>
		</g>
		<g>
			<g>
				<rect x="213.4" y="38" transform="matrix(0.926 -0.3774 0.3774 0.926 1.4515 83.7884)" class="st58" width="2.1" height="0.4"/>
			</g>
		</g>
	</g>
	<g>
		<g>
			<path class="st2" d="M217.7,42.7c-0.9,6.8-7.3,11.6-14.1,10.7c-6.8-0.9-11.6-7.3-10.7-14.1s7.3-11.6,14.1-10.7
				C213.8,29.6,218.6,35.8,217.7,42.7z M193.3,39.4c-0.9,6.6,3.8,12.8,10.4,13.7c6.6,0.9,12.8-3.8,13.7-10.4
				c0.9-6.6-3.8-12.8-10.4-13.7C200.3,28.1,194.2,32.7,193.3,39.4z"/>
		</g>
	</g>
</g>
<g>
	<g>
		<g>
			<g>
				<ellipse class="st58" cx="216.7" cy="147.1" rx="10.7" ry="10.7"/>
			</g>
		</g>
		<g>
			<g>
				<g>
					<path class="st22" d="M227.4,148.5c0.3-2.4-0.2-4.7-1.2-6.7l-9.4,5.3L227.4,148.5z"/>
				</g>
			</g>
		</g>
		<g>
			<g>
				<circle class="st7" cx="216.7" cy="147.1" r="8.6"/>
			</g>
		</g>
		<g>
			<g>
				<polygon class="st23" points="220.3,154.9 219.9,155.1 216.6,147.2 208.2,146.1 208.3,145.7 216.9,146.9 				"/>
			</g>
		</g>
		<g>
			<g>
				
					<rect x="215.1" y="143.5" transform="matrix(0.6212 -0.7837 0.7837 0.6212 -29.5145 226.4042)" class="st23" width="8.6" height="0.4"/>
			</g>
		</g>
		<g>
			<g>
				
					<rect x="225.3" y="146.1" transform="matrix(0.9963 -8.604199e-02 8.604199e-02 0.9963 -11.7434 20.02)" class="st58" width="2.1" height="0.4"/>
			</g>
		</g>
		<g>
			<g>
				
					<rect x="224.9" y="144" transform="matrix(0.926 -0.3774 0.3774 0.926 -37.7196 95.9731)" class="st58" width="2.1" height="0.4"/>
			</g>
		</g>
	</g>
	<g>
		<g>
			<path class="st2" d="M229.2,148.8c-0.9,6.8-7.3,11.6-14.1,10.7c-6.8-0.9-11.6-7.3-10.7-14.1c0.9-6.8,7.3-11.6,14.1-10.7
				C225.3,135.6,230.1,141.9,229.2,148.8z M204.8,145.4c-0.9,6.6,3.8,12.8,10.4,13.7c6.6,0.9,12.8-3.8,13.7-10.4
				c0.9-6.6-3.8-12.8-10.4-13.7C211.8,134.2,205.7,138.7,204.8,145.4z"/>
		</g>
	</g>
</g>
<g>
	<g>
		<g>
			<g>
				<ellipse class="st58" cx="246.1" cy="72.1" rx="11.7" ry="11.7"/>
			</g>
		</g>
		<g>
			<g>
				<g>
					<path class="st22" d="M251,61.3c-2.4-1.1-5-1.2-7.4-0.8l2.6,11.5L251,61.3z"/>
				</g>
			</g>
		</g>
		<g>
			<g>
				<circle class="st7" cx="246.1" cy="72.1" r="9.4"/>
			</g>
		</g>
		<g>
			<g>
				<polygon class="st23" points="255.5,70.8 255.5,71.2 246.3,72.3 242.5,80.7 242.1,80.5 246,71.9 				"/>
			</g>
		</g>
		<g>
			<g>
				
					<rect x="243.3" y="63.5" transform="matrix(0.8165 -0.5774 0.5774 0.8165 5.28 153.0996)" class="st23" width="0.4" height="9.4"/>
			</g>
		</g>
		<g>
			<g>
				
					<rect x="247.1" y="61.5" transform="matrix(0.1976 -0.9803 0.9803 0.1976 138.6679 292.8849)" class="st58" width="2.3" height="0.4"/>
			</g>
		</g>
		<g>
			<g>
				
					<rect x="245.8" y="60.3" transform="matrix(0.9948 -0.1018 0.1018 0.9948 -4.9839 25.3668)" class="st58" width="0.4" height="2.3"/>
			</g>
		</g>
	</g>
	<g>
		<g>
			<path class="st2" d="M251.7,59.6c6.8,3,9.9,11.2,6.9,18c-3,6.8-11.2,9.9-18,6.9c-6.8-3-9.9-11.2-6.9-18
				C236.8,59.6,244.8,56.5,251.7,59.6z M240.8,84.1c6.6,3,14.5,0,17.5-6.7c3-6.6,0-14.5-6.7-17.5s-14.5,0-17.5,6.7
				S234,81.1,240.8,84.1z"/>
		</g>
	</g>
</g>
<g>
	<path class="st26" d="M151.7,38.3h-5.2c-0.3,0-0.5-0.2-0.5-0.5v-4c0-0.3,0.2-0.5,0.5-0.5h5.2c0.3,0,0.5,0.2,0.5,0.5v4
		C152.2,38.1,152,38.3,151.7,38.3z"/>
	<text transform="matrix(3.569846e-17 -0.583 0.583 3.569846e-17 150.706 37.1213)" class="st2 st14 st59">6</text>
</g>
<g>
	<path class="st26" d="M158,38.3h-5.2c-0.3,0-0.5-0.2-0.5-0.5v-4c0-0.3,0.2-0.5,0.5-0.5h5.2c0.3,0,0.5,0.2,0.5,0.5v4
		C158.5,38.1,158.2,38.3,158,38.3z"/>
	<text transform="matrix(3.569846e-17 -0.583 0.583 3.569846e-17 156.963 37.1213)" class="st2 st14 st59">5</text>
</g>
<g>
	<path class="st26" d="M164.2,38.3H159c-0.3,0-0.5-0.2-0.5-0.5v-4c0-0.3,0.2-0.5,0.5-0.5h5.2c0.3,0,0.5,0.2,0.5,0.5v4
		C164.7,38.1,164.5,38.3,164.2,38.3z"/>
	<text transform="matrix(3.569846e-17 -0.583 0.583 3.569846e-17 163.2199 37.1213)" class="st2 st14 st59">4</text>
</g>
<g>
	<path class="st26" d="M170.5,38.3h-5.2c-0.3,0-0.5-0.2-0.5-0.5v-4c0-0.3,0.2-0.5,0.5-0.5h5.2c0.3,0,0.5,0.2,0.5,0.5v4
		C171,38.1,170.7,38.3,170.5,38.3z"/>
	<text transform="matrix(3.569846e-17 -0.583 0.583 3.569846e-17 169.4769 37.1213)" class="st2 st14 st59">3</text>
</g>
<g>
	<path class="st26" d="M176.7,38.3h-5.2c-0.3,0-0.5-0.2-0.5-0.5v-4c0-0.3,0.2-0.5,0.5-0.5h5.2c0.3,0,0.5,0.2,0.5,0.5v4
		C177.2,38.1,177,38.3,176.7,38.3z"/>
	<text transform="matrix(3.569846e-17 -0.583 0.583 3.569846e-17 175.7339 37.1213)" class="st2 st14 st59">2</text>
</g>
<g>
	<path class="st26" d="M183,38.3h-5.2c-0.3,0-0.5-0.2-0.5-0.5v-4c0-0.3,0.2-0.5,0.5-0.5h5.2c0.3,0,0.5,0.2,0.5,0.5v4
		C183.5,38.1,183.3,38.3,183,38.3z"/>
	<text transform="matrix(3.569846e-17 -0.583 0.583 3.569846e-17 181.9779 37.1213)" class="st2 st14 st59">1</text>
</g>
<path class="st60" d="M182.9,11.6h-5.1c-0.3,0-0.6-0.3-0.6-0.6V5.7c0-0.3,0.3-0.6,0.6-0.6h5.1c0.3,0,0.6,0.3,0.6,0.6V11
	C183.5,11.3,183.2,11.6,182.9,11.6z"/>
<text transform="matrix(3.569846e-17 -0.583 0.583 3.569846e-17 181.9776 11.1672)" class="st2 st14 st59">10</text>
<path class="st60" d="M176.6,11.6h-5.1c-0.3,0-0.6-0.3-0.6-0.6V5.7c0-0.3,0.3-0.6,0.6-0.6h5.1c0.3,0,0.6,0.3,0.6,0.6V11
	C177.2,11.3,177,11.6,176.6,11.6z"/>
<text transform="matrix(3.569846e-17 -0.583 0.583 3.569846e-17 175.7206 11.1672)" class="st2 st14 st59">11</text>
<path class="st60" d="M170.4,11.6h-5.1c-0.3,0-0.6-0.3-0.6-0.6V5.7c0-0.3,0.3-0.6,0.6-0.6h5.1c0.3,0,0.6,0.3,0.6,0.6V11
	C171,11.3,170.7,11.6,170.4,11.6z"/>
<text transform="matrix(3.569846e-17 -0.583 0.583 3.569846e-17 169.4765 11.1672)" class="st2 st14 st59">12</text>
<path class="st60" d="M164.1,11.6H159c-0.3,0-0.6-0.3-0.6-0.6V5.7c0-0.3,0.3-0.6,0.6-0.6h5.1c0.3,0,0.6,0.3,0.6,0.6V11
	C164.7,11.3,164.5,11.6,164.1,11.6z"/>
<text transform="matrix(3.569846e-17 -0.583 0.583 3.569846e-17 163.2196 11.1672)" class="st2 st14 st59">13</text>
<path class="st60" d="M157.9,11.6h-5.1c-0.3,0-0.6-0.3-0.6-0.6V5.7c0-0.3,0.3-0.6,0.6-0.6h5.1c0.3,0,0.6,0.3,0.6,0.6V11
	C158.5,11.3,158.2,11.6,157.9,11.6z"/>
<text transform="matrix(3.569846e-17 -0.583 0.583 3.569846e-17 156.9626 11.1672)" class="st2 st14 st59">14</text>
<path class="st60" d="M151.6,11.6h-5.1c-0.3,0-0.6-0.3-0.6-0.6V5.7c0-0.3,0.3-0.6,0.6-0.6h5.1c0.3,0,0.6,0.3,0.6,0.6V11
	C152.2,11.3,151.9,11.6,151.6,11.6z"/>
<text transform="matrix(3.569846e-17 -0.583 0.583 3.569846e-17 150.7057 11.1672)" class="st2 st14 st59">15</text>
<path class="st61" d="M190.2,32.8h-5.4c-0.4,0-0.6-0.3-0.6-0.6V12.8c0-0.4,0.3-0.6,0.6-0.6h5.4c0.4,0,0.6,0.3,0.6,0.6v19.3
	C190.8,32.5,190.5,32.8,190.2,32.8z"/>
<text transform="matrix(3.569846e-17 -0.583 0.583 3.569846e-17 189.1997 30.9807)" class="st2 st14 st59">S</text>
<text transform="matrix(3.569846e-17 -0.583 0.583 3.569846e-17 189.1997 23.8743)" class="st2 st14 st59">+</text>
<text transform="matrix(3.569846e-17 -0.583 0.583 3.569846e-17 189.1997 39.677)" class="st2 st14 st59">5V</text>
<text transform="matrix(3.569846e-17 -0.583 0.583 3.569846e-17 189.1997 17.2385)" class="st2 st14 st59">G</text>
<g>
	<g>
		<rect x="129.2" y="46.9" class="st62" width="3.8" height="5.4"/>
	</g>
	<g>
		<rect x="119.6" y="46.9" class="st62" width="3.8" height="5.4"/>
	</g>
	<g>
		<rect x="129.4" y="47.5" class="st2" width="1.4" height="4.2"/>
		<rect x="122.3" y="47.4" class="st2" width="1.4" height="4.2"/>
		<rect x="123.9" y="47.5" class="st63" width="5.6" height="4.2"/>
	</g>
	<line class="st64" x1="127.9" y1="52.2" x2="124.9" y2="52.2"/>
	<line class="st64" x1="127.9" y1="46.7" x2="124.9" y2="46.7"/>
</g>
<text transform="matrix(0.583 0 0 0.583 125.8323 50.5781)" class="st2 st14 st15">0</text>
<g>
	<rect x="253.4" y="92.1" class="st65" width="17.5" height="21.5"/>
	<rect x="257.5" y="92.1" class="st66" width="9.3" height="21.5"/>
	<g>
		<g>
			<defs>
				<circle id="SVGID_1_" cx="262.6" cy="98.4" r="2.9"/>
			</defs>
			<clipPath id="SVGID_2_">
				<use xlink:href="#SVGID_1_"  style="overflow:visible;"/>
			</clipPath>
			<g class="st67">
				<circle class="st68" cx="262.6" cy="98.4" r="2.9"/>
				
					<rect x="259.1" y="97.3" transform="matrix(0.7071 -0.7071 0.7071 0.7071 7.4035 214.4701)" class="st69" width="7" height="1.9"/>
			</g>
		</g>
	</g>
	<g>
		<g>
			<defs>
				<circle id="SVGID_3_" cx="262.6" cy="107.6" r="2.9"/>
			</defs>
			<clipPath id="SVGID_4_">
				<use xlink:href="#SVGID_3_"  style="overflow:visible;"/>
			</clipPath>
			<g class="st70">
				<circle class="st68" cx="262.6" cy="107.6" r="2.9"/>
				
					<rect x="259.1" y="106.5" transform="matrix(0.7071 -0.7071 0.7071 0.7071 0.8965 217.1629)" class="st69" width="7" height="1.9"/>
			</g>
		</g>
	</g>
</g>
<g>
	<rect x="253.4" y="113.6" class="st65" width="17.5" height="21.5"/>
	<rect x="257.5" y="113.6" class="st66" width="9.3" height="21.5"/>
	<g>
		<g>
			<defs>
				<circle id="SVGID_5_" cx="262.6" cy="119.9" r="2.9"/>
			</defs>
			<clipPath id="SVGID_6_">
				<use xlink:href="#SVGID_5_"  style="overflow:visible;"/>
			</clipPath>
			<g class="st71">
				<circle class="st68" cx="262.6" cy="119.9" r="2.9"/>
				
					<rect x="259.1" y="118.8" transform="matrix(0.7071 -0.7071 0.7071 0.7071 -7.7993 220.7673)" class="st69" width="7" height="1.9"/>
			</g>
		</g>
	</g>
	<g>
		<g>
			<defs>
				<circle id="SVGID_7_" cx="262.6" cy="129.1" r="2.9"/>
			</defs>
			<clipPath id="SVGID_8_">
				<use xlink:href="#SVGID_7_"  style="overflow:visible;"/>
			</clipPath>
			<g class="st72">
				<circle class="st68" cx="262.6" cy="129.1" r="2.9"/>
				
					<rect x="259.1" y="128" transform="matrix(0.7071 -0.7071 0.7071 0.7071 -14.3063 223.4601)" class="st69" width="7" height="1.9"/>
			</g>
		</g>
	</g>
</g>
<path class="st73" d="M267.9,56.9v5.8c0,0.2-0.2,0.4-0.5,0.4h-9c-0.3,0-0.5-0.2-0.5-0.4v-5.8"/>
<g>
	<g>
		<g>
			<path class="st1" d="M269.1,56.7h-12.5c-1,0-1.8-0.8-1.8-1.8V24.6c0-1,0.8-1.8,1.8-1.8h12.5c1,0,1.8,0.8,1.8,1.8v30.3
				C270.9,55.9,270.1,56.7,269.1,56.7z"/>
		</g>
	</g>
	<g>
		<g>
			<path class="st2" d="M269.1,56.7L269.1,56.7V22.8l0,0c1,0,1.8,0.8,1.8,1.8v30.3C270.9,55.9,270.1,56.7,269.1,56.7z"/>
		</g>
	</g>
	<g>
		<g>
			<path class="st2" d="M256.7,56.7L256.7,56.7c-1,0-1.8-0.8-1.8-1.8V24.6c0-1,0.8-1.8,1.8-1.8l0,0V56.7z"/>
		</g>
	</g>
	<g>
		<g>
			<path class="st24" d="M265.5,48h-5.2c-1.1,0-2-0.9-2-2V33.6c0-1.1,0.9-2,2-2h5.2c1.1,0,2,0.9,2,2v12.5
				C267.5,47.1,266.6,48,265.5,48z"/>
		</g>
	</g>
	<g>
		<g>
			<g>
				<path class="st6" d="M265.9,48.3h-6.1c-1.1,0-1.9-0.9-1.9-1.9v-5.1c0-1.1,0.9-1.9,1.9-1.9h6.1c1.1,0,1.9,0.9,1.9,1.9v5.1
					C267.9,47.5,267,48.3,265.9,48.3z"/>
			</g>
		</g>
		<g>
			<g>
				<g>
					<rect x="258.6" y="43.5" class="st0" width="8.6" height="0.7"/>
				</g>
			</g>
			<g>
				<g>
					<rect x="258.6" y="42" class="st0" width="8.6" height="0.7"/>
				</g>
			</g>
			<g>
				<g>
					<rect x="258.6" y="40.4" class="st0" width="8.6" height="0.7"/>
				</g>
			</g>
			<g>
				<g>
					<rect x="258.6" y="46.6" class="st0" width="8.6" height="0.7"/>
				</g>
			</g>
			<g>
				<g>
					<rect x="258.6" y="45.1" class="st0" width="8.6" height="0.7"/>
				</g>
			</g>
		</g>
	</g>
</g>
<text transform="matrix(0.583 0 0 0.583 259.3606 61.6548)" class="st2 st14 st59">ON</text>
<g>
	<circle class="st74" cx="212.9" cy="79.3" r="4.8"/>
	<circle class="st75" cx="212.9" cy="79.3" r="4.1"/>
	<circle class="st46" cx="220.2" cy="79.3" r="1.4"/>
	<circle class="st47" cx="220.2" cy="79.3" r="0.7"/>
	<path class="st48" d="M212.3,79.3L212.3,79.3c0-0.3,0.2-0.5,0.5-0.5h7.6c0.3,0,0.5,0.2,0.5,0.5v0c0,0.3-0.2,0.5-0.5,0.5h-7.6
		C212.5,79.8,212.3,79.6,212.3,79.3z"/>
</g>
<rect x="214.3" y="85.7" class="st76" width="7.1" height="28.3"/>
<rect x="224.7" y="46.3" class="st76" width="7.1" height="28.3"/>
<rect x="214" y="51.4" class="st76" width="7.1" height="21.9"/>
<polygon class="st76" points="209.2,112.9 204.3,111.9 204.3,87.7 209.2,86.7 "/>
<polygon class="st77" points="214.5,113.9 209.2,112.9 209.2,86.7 214.5,85.7 "/>
<path class="st26" d="M270.4,142.1h-30c-0.3,0-0.5-0.2-0.5-0.5v-6.1h31v6.1C270.9,141.9,270.7,142.1,270.4,142.1z"/>
<text transform="matrix(0.583 0 0 0.583 243.0783 140.6605)" class="st2 st14 st59">DC MOTOR</text>
<polyline class="st26" points="270.9,91.9 239.9,91.9 239.9,96.9 "/>
<line class="st26" x1="239.9" y1="135.5" x2="239.9" y2="130.9"/>
<line class="st26" x1="247.8" y1="113.6" x2="253.4" y2="113.6"/>
<rect x="242.3" y="108.1" transform="matrix(6.123234e-17 -1 1 6.123234e-17 133.7517 355.8775)" class="st78" width="5" height="6"/>
<rect x="242.3" y="113.1" transform="matrix(6.123234e-17 -1 1 6.123234e-17 128.7517 360.8775)" class="st78" width="5" height="6"/>
<text transform="matrix(3.569846e-17 -0.583 0.583 3.569846e-17 246.3353 112.2405)" class="st2 st14 st59">1</text>
<text transform="matrix(3.569846e-17 -0.583 0.583 3.569846e-17 246.3355 117.4963)" class="st2 st14 st59">2</text>
<text transform="matrix(0.583 0 0 0.583 221.9247 42.9463)" class="st2 st14 st79">6-9Vdc</text>
<g>
	<path class="st26" d="M116.5,155.9h15c0.3,0,0.5,0.2,0.5,0.5v4c0,0.3-0.2,0.5-0.5,0.5h-15c-0.3,0-0.5-0.2-0.5-0.5v-4
		C116,156.2,116.2,155.9,116.5,155.9z"/>
	<text transform="matrix(1 0 0 1 117.3231 159.8611)" class="st2 st14 st27">RESET</text>
</g>
<g>
	<rect x="70.6" y="72.3" class="st2" width="111" height="24.3"/>
	<text transform="matrix(0.583 0 0 0.583 118.6864 80.3961)" class="st14 st80">Device</text>
	<text transform="matrix(0.583 0 0 0.583 147.8455 80.2728)" class="st14 st59">V1.181210</text>
	<text transform="matrix(1 0 0 1 119.0861 87.8439)" class="st81 st82">I</text>
	<text transform="matrix(0.583 0 0 0.583 120.6041 85.8459)" class="st81 st82">2</text>
	<text transform="matrix(1 0 0 1 122.2867 87.8439)" class="st81 st82">C Address:0x48</text>
	<text transform="matrix(1 0 0 1 118.6865 93.7555)" class="st81 st27">developed by INEX (www.inex.co.th)</text>
	<path class="st83" d="M111.4,74.8c0,0,3.2,8.4,3.7,19.9c0,0-42-5.4-41.5-5.9c0,0,19.1,0.6,32,0.2c0,0,5.8,0.2,6.1-5.4
		C111.8,83.7,112,83.5,111.4,74.8z"/>
	<circle class="st84" cx="75.9" cy="75.8" r="1.3"/>
	<rect x="74.6" y="79.1" class="st85" width="2.6" height="7.9"/>
	<polygon class="st85" points="79.2,75.6 81.9,75.6 81.9,79.6 85.5,75.6 87.7,75.6 83.6,80.4 87.7,87 84.5,87 82,82.3 82,87 
		79.2,87 	"/>
	<path class="st85" d="M94.6,81.2c3.7-2.8,0-5.4,0-5.4H89v11.4h5.3C99,84.6,94.6,81.2,94.6,81.2z M91.8,77.1
		c1.7-0.2,1.7,1.4,1.7,1.4c0,1.8-1.7,1.9-1.7,1.9V77.1z M91.8,85.7v-3.8c1.9-0.2,2,1.6,2,1.6C93.8,85.6,91.8,85.7,91.8,85.7z"/>
	<rect x="98" y="82.4" class="st85" width="4" height="2"/>
	<polygon class="st85" points="105.9,87.3 108.3,87.3 108.3,75.8 104,77.6 104,79.1 105.9,78.4 	"/>
</g>
</svg>
