<?xml version="1.0" encoding="utf-8"?>
<!-- Generator: Adobe Illustrator 23.0.1, SVG Export Plug-In . SVG Version: 6.00 Build 0)  -->
<svg version="1.1" id="Layer_1" xmlns="http://www.w3.org/2000/svg" xmlns:xlink="http://www.w3.org/1999/xlink" x="0px" y="0px"
	 viewBox="0 0 46.8 83.3" style="enable-background:new 0 0 46.8 83.3;" xml:space="preserve">
<style type="text/css">
	.st0{fill:#231F20;}
	.st1{fill:#0A783D;}
	.st2{fill:#FFFFFF;}
	.st3{opacity:0.5;}
	.st4{fill:#EC1E24;}
	.st5{fill:#F05822;}
	.st6{fill:#CFC9C0;}
	.st7{fill:#484748;}
	.st8{fill:#B6B6B7;}
	.st9{fill:#BBE4EF;}
	.st10{fill:#7B5950;}
	.st11{fill:#346833;}
	.st12{fill:#203152;}
	.st13{fill:#ECEBF0;}
	.st14{fill:#7C6B2B;}
</style>
<path class="st0" d="M43.5,0H3.2C1.4,0,0,1.4,0,3.2v76.9c0,1.8,1.4,3.2,3.2,3.2h40.3c1.8,0,3.2-1.4,3.2-3.2V3.2
	C46.8,1.4,45.3,0,43.5,0z M10.8,26.8c-1.3,0-2.3-1-2.3-2.3c0-1.3,1-2.3,2.3-2.3c1.3,0,2.3,1,2.3,2.3C13.1,25.8,12,26.8,10.8,26.8z
	 M23.5,27.7c-1.8,0-3.2-1.5-3.2-3.2c0-1.8,1.5-3.2,3.2-3.2c1.8,0,3.2,1.5,3.2,3.2C26.8,26.3,25.3,27.7,23.5,27.7z M36.2,26.8
	c-1.3,0-2.3-1-2.3-2.3c0-1.3,1-2.3,2.3-2.3c1.3,0,2.3,1,2.3,2.3C38.4,25.8,37.4,26.8,36.2,26.8z"/>
<g>
	<path class="st1" d="M3.5,3.4v76.4h39.8V3.4H3.5z M10.8,26.8c-1.3,0-2.3-1-2.3-2.3c0-1.3,1-2.3,2.3-2.3c1.3,0,2.3,1,2.3,2.3
		C13.1,25.8,12,26.8,10.8,26.8z M23.5,27.7c-1.8,0-3.2-1.5-3.2-3.2c0-1.8,1.5-3.2,3.2-3.2c1.8,0,3.2,1.5,3.2,3.2
		C26.8,26.3,25.3,27.7,23.5,27.7z M36.2,26.8c-1.3,0-2.3-1-2.3-2.3c0-1.3,1-2.3,2.3-2.3c1.3,0,2.3,1,2.3,2.3
		C38.4,25.8,37.4,26.8,36.2,26.8z"/>
</g>
<g>
	<path class="st2" d="M9.3,8.1l2.2-2.8H9.4V4.9h2.7v0.4L9.9,8.1h2.2v0.4H9.3V8.1z"/>
	<path class="st2" d="M12.9,8.5h-0.6l1.3-1.8l-1.2-1.8H13l0.9,1.4l0.9-1.4h0.6l-1.2,1.8l1.3,1.8h-0.6l-1-1.5L12.9,8.5z"/>
	<path class="st2" d="M15.8,6.9H17v0.5h-1.2V6.9z"/>
	<path class="st2" d="M18,7.4c0,0.2,0.1,0.4,0.1,0.5c0.2,0.2,0.4,0.4,0.8,0.4c0.2,0,0.3,0,0.5-0.1c0.3-0.1,0.4-0.3,0.4-0.5
		c0-0.2-0.1-0.3-0.2-0.4C19.5,7.1,19.3,7,19.1,7l-0.5-0.1c-0.3-0.1-0.5-0.2-0.7-0.2c-0.2-0.2-0.3-0.4-0.3-0.7c0-0.3,0.1-0.6,0.3-0.8
		c0.2-0.2,0.5-0.3,0.9-0.3c0.4,0,0.7,0.1,0.9,0.3c0.3,0.2,0.4,0.5,0.4,0.9h-0.5c0-0.2-0.1-0.3-0.2-0.4c-0.1-0.2-0.4-0.3-0.7-0.3
		c-0.3,0-0.5,0.1-0.6,0.2c-0.1,0.1-0.2,0.3-0.2,0.4c0,0.2,0.1,0.3,0.2,0.4c0.1,0.1,0.3,0.1,0.6,0.2l0.5,0.1c0.2,0.1,0.4,0.1,0.5,0.2
		c0.2,0.2,0.3,0.4,0.3,0.7c0,0.4-0.1,0.7-0.4,0.9c-0.3,0.2-0.6,0.3-1,0.3c-0.4,0-0.8-0.1-1-0.3c-0.2-0.2-0.4-0.5-0.4-0.9H18z"/>
	<path class="st2" d="M21.1,5.9L21.6,8l0.5-2.1h0.5L23.2,8l0.5-2.1h0.4l-0.8,2.6h-0.5l-0.5-2l-0.5,2h-0.5l-0.8-2.6H21.1z"/>
	<path class="st2" d="M24.5,4.9H25v0.5h-0.4V4.9z M24.5,5.9H25v2.6h-0.4V5.9z"/>
	<path class="st2" d="M25.8,5.2h0.4v0.7h0.4v0.4h-0.4V8c0,0.1,0,0.2,0.1,0.2c0,0,0.1,0,0.2,0c0,0,0,0,0.1,0c0,0,0.1,0,0.1,0v0.4
		c-0.1,0-0.1,0-0.2,0c-0.1,0-0.1,0-0.2,0c-0.2,0-0.3-0.1-0.4-0.2S25.8,8.2,25.8,8V6.3h-0.4V5.9h0.4V5.2z"/>
	<path class="st2" d="M28.8,6c0.2,0.1,0.3,0.4,0.3,0.7h-0.4c0-0.2-0.1-0.3-0.2-0.4c-0.1-0.1-0.2-0.2-0.4-0.2c-0.3,0-0.5,0.1-0.6,0.4
		c-0.1,0.2-0.1,0.4-0.1,0.7c0,0.3,0.1,0.5,0.2,0.7c0.1,0.2,0.3,0.3,0.5,0.3c0.2,0,0.3-0.1,0.4-0.2c0.1-0.1,0.2-0.3,0.2-0.5h0.4
		c0,0.3-0.2,0.6-0.4,0.8c-0.2,0.2-0.4,0.2-0.8,0.2c-0.3,0-0.6-0.1-0.8-0.4C27,8,26.9,7.7,26.9,7.3c0-0.5,0.1-0.8,0.3-1.1
		c0.2-0.3,0.5-0.4,0.9-0.4C28.4,5.8,28.6,5.9,28.8,6z"/>
	<path class="st2" d="M29.6,4.9H30v1.3C30.1,6.1,30.2,6,30.3,6c0.1-0.1,0.3-0.1,0.5-0.1c0.4,0,0.6,0.1,0.8,0.4
		c0.1,0.1,0.1,0.3,0.1,0.6v1.7h-0.5V6.9c0-0.2,0-0.3-0.1-0.4c-0.1-0.1-0.2-0.2-0.5-0.2c-0.2,0-0.3,0.1-0.5,0.2
		C30.1,6.5,30,6.8,30,7.1v1.4h-0.4V4.9z"/>
	<path class="st2" d="M34.4,5.6c0.2,0.3,0.2,0.7,0.2,1.2c0,0.5-0.1,0.9-0.2,1.2c-0.2,0.4-0.5,0.7-1,0.7c-0.4,0-0.7-0.2-0.9-0.5
		c-0.2-0.3-0.3-0.7-0.3-1.2c0-0.4,0.1-0.7,0.2-1c0.2-0.5,0.5-0.8,1-0.8C33.8,5,34.2,5.2,34.4,5.6z M33.9,7.9
		c0.1-0.2,0.2-0.6,0.2-1.1c0-0.4,0-0.7-0.1-1c-0.1-0.3-0.3-0.4-0.6-0.4c-0.3,0-0.5,0.1-0.6,0.4c-0.1,0.2-0.2,0.6-0.2,1.1
		c0,0.4,0,0.6,0.1,0.9c0.1,0.3,0.3,0.5,0.6,0.5C33.6,8.2,33.8,8.1,33.9,7.9z"/>
	<path class="st2" d="M35.3,6V5.7c0.3,0,0.5-0.1,0.7-0.2c0.1-0.1,0.2-0.2,0.3-0.5h0.3v3.5h-0.5V6H35.3z"/>
</g>
<g>
	<g>
		<path class="st2" d="M36.7,12.2h1.4c0.5,0,0.9,0.2,1.1,0.5c0.2,0.3,0.4,0.7,0.4,1.2c0,0.4-0.1,0.7-0.2,1c-0.2,0.5-0.7,0.8-1.3,0.8
			h-1.4V12.2z M38.1,15.4c0.2,0,0.3,0,0.4-0.1c0.2-0.1,0.3-0.2,0.5-0.4c0.1-0.1,0.2-0.3,0.2-0.6c0-0.1,0-0.3,0-0.4
			c0-0.4-0.1-0.8-0.3-1c-0.2-0.2-0.5-0.4-0.8-0.4h-0.8v2.8H38.1z"/>
	</g>
	<g>
		<path class="st2" d="M41.3,17.3h-6.7v-6.2h6.7V17.3z M34.9,17.1h6.2v-5.8h-6.2V17.1z"/>
	</g>
	<g>
		
			<rect x="37.5" y="13.5" transform="matrix(6.123234e-17 -1 1 6.123234e-17 21.2537 54.7519)" class="st2" width="0.9" height="6.4"/>
	</g>
</g>
<g id="_x3C_Group_x3E__LED_light_1_">
	<g class="st3">
		<g>
			<circle class="st4" cx="23.5" cy="12.9" r="3.4"/>
		</g>
	</g>
	<g>
		<circle class="st4" cx="23.5" cy="12.9" r="2.7"/>
	</g>
</g>
<g>
	<path class="st5" d="M30.6,58.3H16.4c-2.5,0-4.6-2.1-4.6-4.6V39.4c0-2.5,2.1-4.6,4.6-4.6h14.2c2.5,0,4.6,2.1,4.6,4.6v14.2
		C35.2,56.2,33.2,58.3,30.6,58.3z"/>
</g>
<g id="_x3C_Group_x3E__Resistor_1_">
	<g>
		<path class="st2" d="M18.6,34.1H8.3v-4.4h10.3V34.1z M8.5,33.9h9.8V30H8.5V33.9z"/>
	</g>
	<g>
		<g>
			<circle class="st6" cx="19.4" cy="31.9" r="0.8"/>
		</g>
		<g>
			<circle class="st7" cx="19.4" cy="31.9" r="0.4"/>
		</g>
		<g>
			<circle class="st6" cx="7.3" cy="31.9" r="0.8"/>
		</g>
		<g>
			<circle class="st7" cx="7.3" cy="31.9" r="0.4"/>
		</g>
		<g>
			<path class="st8" d="M7,31.9L7,31.9c0-0.2,0.1-0.3,0.3-0.3h12.2c0.2,0,0.3,0.1,0.3,0.3l0,0c0,0.2-0.1,0.3-0.3,0.3H7.3
				C7.2,32.2,7,32.1,7,31.9z"/>
		</g>
		<g>
			<g>
				<path class="st9" d="M8.7,31.9L8.7,31.9c0-0.8,0.6-1.4,1.4-1.4h6.6c0.8,0,1.4,0.6,1.4,1.4v0c0,0.8-0.6,1.4-1.4,1.4h-6.6
					C9.4,33.3,8.7,32.7,8.7,31.9z"/>
			</g>
			<g>
				
					<rect x="14.2" y="31.7" transform="matrix(-1.836970e-16 1 -1 -1.836970e-16 47.4726 16.3661)" class="st10" width="2.8" height="0.5"/>
			</g>
			<g>
				
					<rect x="15" y="31.7" transform="matrix(-1.836970e-16 1 -1 -1.836970e-16 48.3318 15.5069)" class="st10" width="2.8" height="0.5"/>
			</g>
			<g>
				
					<rect x="12.1" y="31.7" transform="matrix(-1.836970e-16 1 -1 -1.836970e-16 45.3737 18.465)" class="st10" width="2.8" height="0.5"/>
			</g>
			<g>
				
					<rect x="9.6" y="31.7" transform="matrix(-1.836970e-16 1 -1 -1.836970e-16 42.9416 20.8971)" class="st11" width="2.8" height="0.5"/>
			</g>
			<g>
				
					<rect x="11" y="31.7" transform="matrix(-1.836970e-16 1 -1 -1.836970e-16 44.3408 19.4979)" class="st10" width="2.8" height="0.5"/>
			</g>
		</g>
	</g>
</g>
<g id="_x3C_Group_x3E__Resistor_2_">
	<g>
		<path class="st2" d="M37.6,34.1H27.3v-4.4h10.3V34.1z M27.6,33.9h9.8V30h-9.8V33.9z"/>
	</g>
	<g>
		<g>
			<circle class="st6" cx="38.4" cy="31.9" r="0.8"/>
		</g>
		<g>
			<circle class="st7" cx="38.4" cy="31.9" r="0.4"/>
		</g>
		<g>
			<circle class="st6" cx="26.3" cy="31.9" r="0.8"/>
		</g>
		<g>
			<circle class="st7" cx="26.3" cy="31.9" r="0.4"/>
		</g>
		<g>
			<path class="st8" d="M26.1,31.9L26.1,31.9c0-0.2,0.1-0.3,0.3-0.3h12.2c0.2,0,0.3,0.1,0.3,0.3l0,0c0,0.2-0.1,0.3-0.3,0.3H26.4
				C26.2,32.2,26.1,32.1,26.1,31.9z"/>
		</g>
		<g>
			<g>
				<path class="st9" d="M27.8,31.9L27.8,31.9c0-0.8,0.6-1.4,1.4-1.4h6.6c0.8,0,1.4,0.6,1.4,1.4v0c0,0.8-0.6,1.4-1.4,1.4h-6.6
					C28.4,33.3,27.8,32.7,27.8,31.9z"/>
			</g>
			<g>
				
					<rect x="33.2" y="31.7" transform="matrix(-1.836970e-16 1 -1 -1.836970e-16 66.5282 -2.6895)" class="st10" width="2.8" height="0.5"/>
			</g>
			<g>
				
					<rect x="34.1" y="31.7" transform="matrix(-1.836970e-16 1 -1 -1.836970e-16 67.3873 -3.5486)" class="st10" width="2.8" height="0.5"/>
			</g>
			<g>
				
					<rect x="31.1" y="31.7" transform="matrix(-1.836970e-16 1 -1 -1.836970e-16 64.4292 -0.5905)" class="st10" width="2.8" height="0.5"/>
			</g>
			<g>
				
					<rect x="28.7" y="31.7" transform="matrix(-1.836970e-16 1 -1 -1.836970e-16 61.9971 1.8416)" class="st11" width="2.8" height="0.5"/>
			</g>
			<g>
				
					<rect x="30.1" y="31.7" transform="matrix(-1.836970e-16 1 -1 -1.836970e-16 63.3964 0.4424)" class="st10" width="2.8" height="0.5"/>
			</g>
		</g>
	</g>
</g>
<g id="_x3C_Group_x3E__Resistor_3_">
	<g>
		<path class="st2" d="M38.5,74h-4.6V63.2h4.6V74z M34.1,73.8h4.1V63.4h-4.1V73.8z"/>
	</g>
	<g>
		<g>
			<circle class="st6" cx="36.2" cy="74.8" r="0.9"/>
		</g>
		<g>
			<circle class="st7" cx="36.2" cy="74.8" r="0.4"/>
		</g>
		<g>
			<circle class="st6" cx="36.2" cy="62.1" r="0.9"/>
		</g>
		<g>
			<circle class="st7" cx="36.2" cy="62.1" r="0.4"/>
		</g>
		<g>
			<path class="st8" d="M36.2,61.8L36.2,61.8c0.2,0,0.3,0.1,0.3,0.3V75c0,0.2-0.1,0.3-0.3,0.3h0c-0.2,0-0.3-0.1-0.3-0.3V62.1
				C35.8,62,36,61.8,36.2,61.8z"/>
		</g>
		<g>
			<g>
				<path class="st9" d="M36,64.6h0.3c0.7,0,1.3,0.6,1.3,1.3v5.3c0,0.7-0.6,1.3-1.3,1.3H36c-0.7,0-1.3-0.6-1.3-1.3v-5.3
					C34.7,65.2,35.3,64.6,36,64.6z"/>
			</g>
			<g>
				<rect x="34.7" y="69.5" class="st12" width="2.9" height="0.8"/>
			</g>
			<g>
				
					<rect x="34.7" y="70.8" transform="matrix(-1 -1.224647e-16 1.224647e-16 -1 72.3212 142.024)" class="st10" width="2.9" height="0.5"/>
			</g>
			<g>
				<rect x="34.7" y="68.3" class="st12" width="2.9" height="0.5"/>
			</g>
			<g>
				
					<rect x="34.7" y="65.8" transform="matrix(-1 -1.224647e-16 1.224647e-16 -1 72.3212 132.0613)" class="st10" width="2.9" height="0.5"/>
			</g>
			<g>
				
					<rect x="34.7" y="67.3" transform="matrix(-1 -1.224647e-16 1.224647e-16 -1 72.3212 135.0099)" class="st11" width="2.9" height="0.5"/>
			</g>
		</g>
	</g>
</g>
<g id="_x3C_Group_x3E__silk_screen-JST_connector_1_">
	<g>
		<path class="st2" d="M31.4,80H14.2V66.4h17.2V80z M14.4,79.8h16.7V66.6H14.4V79.8z"/>
	</g>
	<g>
		<path class="st2" d="M18,66.6h-3.8v-4.8H18V66.6z M14.4,66.4h3.4V62h-3.4V66.4z"/>
	</g>
	<g>
		<path class="st2" d="M31.4,66.6h-3.8v-4.8h3.8V66.6z M27.8,66.4h3.4V62h-3.4V66.4z"/>
	</g>
</g>
<g id="_x3C_Group_x3E_JST_connector_1_">
	<g>
		<rect x="15.1" y="67.3" class="st13" width="15.7" height="12.3"/>
	</g>
	<g>
		<rect x="15.1" y="66.5" class="st2" width="15.7" height="2.6"/>
	</g>
	<g>
		<rect x="15.1" y="62.8" class="st2" width="2" height="6.2"/>
	</g>
	<g>
		<rect x="28.8" y="62.8" class="st2" width="2" height="6.2"/>
	</g>
	<g>
		<rect x="15.1" y="69" class="st2" width="6" height="11.2"/>
	</g>
	<g>
		<rect x="16.8" y="71.3" class="st13" width="2.5" height="4.5"/>
	</g>
	<g>
		<rect x="24.9" y="69" class="st2" width="6" height="11.2"/>
	</g>
	<g>
		<rect x="26.6" y="71.3" class="st13" width="2.5" height="4.5"/>
	</g>
	<g>
		<rect x="18.4" y="65.3" class="st2" width="0.9" height="3.7"/>
	</g>
	<g>
		<rect x="22.5" y="65.3" class="st2" width="0.9" height="3.7"/>
	</g>
	<g>
		<rect x="26.5" y="65.3" class="st2" width="0.9" height="3.7"/>
	</g>
	<g>
		<rect x="22.5" y="69" class="st14" width="0.9" height="6.8"/>
	</g>
</g>
<g>
	<path class="st2" d="M18.6,63.1v-0.3h0.9v-0.9h0.3v0.9h0.9v0.3h-0.9V64h-0.3v-0.9H18.6z"/>
	<path class="st2" d="M22.5,63c0,0.2,0,0.3,0.1,0.4c0.1,0.2,0.4,0.3,0.7,0.3c0.1,0,0.3,0,0.4-0.1c0.2-0.1,0.3-0.2,0.3-0.4
		c0-0.2,0-0.3-0.1-0.3c-0.1-0.1-0.3-0.1-0.5-0.2L23,62.6c-0.3-0.1-0.4-0.1-0.5-0.2c-0.2-0.1-0.3-0.3-0.3-0.6c0-0.3,0.1-0.5,0.3-0.7
		c0.2-0.2,0.4-0.3,0.8-0.3c0.3,0,0.6,0.1,0.8,0.2c0.2,0.1,0.3,0.4,0.3,0.7H24c0-0.2-0.1-0.3-0.1-0.4c-0.1-0.2-0.3-0.2-0.6-0.2
		c-0.2,0-0.4,0-0.5,0.1c-0.1,0.1-0.1,0.2-0.1,0.3c0,0.1,0.1,0.2,0.2,0.3c0.1,0,0.2,0.1,0.5,0.2l0.4,0.1c0.2,0,0.3,0.1,0.4,0.2
		c0.2,0.1,0.3,0.3,0.3,0.6c0,0.3-0.1,0.6-0.3,0.7c-0.2,0.1-0.5,0.2-0.8,0.2c-0.4,0-0.6-0.1-0.8-0.3c-0.2-0.2-0.3-0.4-0.3-0.8H22.5z"
		/>
	<path class="st2" d="M26,62.7h1V63h-1V62.7z"/>
</g>
<g>
	<path class="st2" d="M10.3,65.4l2.8,2.2v-2.1h0.4v2.7H13L10.3,66v2.2H9.9v-2.8H10.3z"/>
	<path class="st2" d="M9.9,69v-0.6l1.8,1.3l1.8-1.2v0.6l-1.4,0.9l1.4,0.9v0.6l-1.8-1.2l-1.8,1.3V71l1.5-1L9.9,69z"/>
	<path class="st2" d="M11.5,71.9v1.2H11v-1.2H11.5z"/>
	<path class="st2" d="M12.8,75.7c-0.3,0.2-0.7,0.2-1.2,0.2c-0.5,0-0.9-0.1-1.2-0.2c-0.4-0.2-0.7-0.5-0.7-1c0-0.4,0.2-0.7,0.5-0.9
		c0.3-0.2,0.7-0.3,1.2-0.3c0.4,0,0.7,0.1,1,0.2c0.5,0.2,0.8,0.5,0.8,1C13.4,75.2,13.2,75.5,12.8,75.7z M10.5,75.3
		c0.2,0.1,0.6,0.2,1.1,0.2c0.4,0,0.7,0,1-0.1c0.3-0.1,0.4-0.3,0.4-0.6c0-0.3-0.1-0.5-0.4-0.6C12.4,74.1,12,74,11.5,74
		c-0.4,0-0.6,0-0.9,0.1c-0.3,0.1-0.5,0.3-0.5,0.6C10.2,75,10.3,75.1,10.5,75.3z"/>
	<path class="st2" d="M12.3,76.7h0.3c0,0.3,0.1,0.5,0.2,0.7c0.1,0.1,0.2,0.2,0.5,0.3V78H9.9v-0.5h2.5V76.7z"/>
</g>
<g>
	<path class="st2" d="M5.1,67.7c-0.4-0.4-0.5-0.8-0.5-1.3c0-0.5,0.2-0.9,0.5-1.3c0.4-0.4,0.8-0.5,1.3-0.5c0.5,0,0.9,0.2,1.3,0.5
		c0.3,0.4,0.5,0.8,0.5,1.3c0,0.5-0.2,0.9-0.5,1.3c-0.3,0.4-0.8,0.5-1.3,0.5C5.9,68.2,5.5,68,5.1,67.7z M7.5,65.3
		c-0.3-0.3-0.7-0.4-1.1-0.4c-0.4,0-0.8,0.1-1.1,0.4C5,65.6,4.9,66,4.9,66.4c0,0.4,0.2,0.8,0.5,1.1c0.3,0.3,0.7,0.4,1.1,0.4
		c0.4,0,0.8-0.1,1.1-0.4C7.8,67.2,8,66.8,8,66.4C8,66,7.8,65.6,7.5,65.3z M5.6,67c-0.1-0.2-0.2-0.3-0.2-0.6c0-0.3,0.1-0.5,0.3-0.7
		c0.2-0.2,0.4-0.3,0.8-0.3c0.3,0,0.5,0.1,0.7,0.3s0.3,0.4,0.3,0.7c0,0.2,0,0.3-0.1,0.5c-0.1,0.2-0.3,0.4-0.6,0.4V67
		c0.1,0,0.2-0.1,0.3-0.2c0.1-0.1,0.1-0.2,0.1-0.4c0-0.2-0.1-0.4-0.3-0.5c-0.1-0.1-0.3-0.1-0.4-0.1c-0.2,0-0.4,0.1-0.6,0.2
		c-0.2,0.1-0.2,0.3-0.2,0.5c0,0.1,0,0.2,0.1,0.3C5.8,66.9,5.9,67,6.1,67v0.3C5.9,67.3,5.7,67.2,5.6,67z"/>
	<path class="st2" d="M7.2,70v0.4H4.6V70H7.2z M8.2,70v0.4H7.7V70H8.2z"/>
	<path class="st2" d="M7.2,71.1v0.4H6.9c0.2,0.1,0.3,0.3,0.3,0.4c0.1,0.1,0.1,0.3,0.1,0.5c0,0.4-0.1,0.6-0.4,0.8
		c-0.1,0.1-0.3,0.1-0.6,0.1H4.6v-0.4h1.7c0.2,0,0.3,0,0.4-0.1c0.2-0.1,0.2-0.2,0.2-0.4c0-0.1,0-0.2,0-0.3c0-0.1-0.1-0.2-0.2-0.3
		c-0.1-0.1-0.2-0.1-0.3-0.1c-0.1,0-0.2,0-0.4,0H4.6v-0.4H7.2z"/>
	<path class="st2" d="M7.2,75.5c-0.1,0.2-0.2,0.3-0.3,0.4c-0.1,0.1-0.3,0.1-0.5,0.2c-0.1,0-0.3,0-0.6,0v-1.9c-0.3,0-0.5,0.1-0.6,0.2
		c-0.2,0.1-0.2,0.3-0.2,0.5c0,0.2,0.1,0.4,0.2,0.5c0.1,0.1,0.2,0.1,0.3,0.2v0.4c-0.1,0-0.2,0-0.3-0.1c-0.1-0.1-0.2-0.1-0.3-0.2
		c-0.1-0.1-0.2-0.3-0.3-0.5c0-0.1,0-0.2,0-0.4c0-0.3,0.1-0.6,0.4-0.8c0.2-0.2,0.6-0.3,1-0.3c0.4,0,0.8,0.1,1,0.3
		c0.3,0.2,0.4,0.5,0.4,0.9C7.3,75.2,7.3,75.3,7.2,75.5z M6.1,75.7c0.2,0,0.3-0.1,0.5-0.1c0.2-0.1,0.3-0.3,0.3-0.6
		c0-0.2-0.1-0.4-0.2-0.5c-0.1-0.1-0.3-0.2-0.6-0.2V75.7z"/>
	<path class="st2" d="M7.2,76.4V77l-0.9,0.6l0.9,0.6l0,0.5L6,77.9l-1.3,0.9v-0.6l1-0.7l-1-0.6v-0.6L6,77.3L7.2,76.4z"/>
</g>
<g>
	<path class="st2" d="M23.5,30.2c-3.1,0-5.7-2.6-5.7-5.7s2.6-5.7,5.7-5.7s5.7,2.6,5.7,5.7S26.6,30.2,23.5,30.2z M23.5,19
		c-3,0-5.5,2.4-5.5,5.5s2.4,5.5,5.5,5.5c3,0,5.5-2.4,5.5-5.5S26.5,19,23.5,19z"/>
</g>
</svg>
