<?xml version="1.0" encoding="utf-8"?>
<!-- Generator: Adobe Illustrator 24.3.0, SVG Export Plug-In . SVG Version: 6.00 Build 0)  -->
<svg version="1.1" id="Layer_1" xmlns="http://www.w3.org/2000/svg" xmlns:xlink="http://www.w3.org/1999/xlink" x="0px" y="0px"
	 viewBox="0 0 65.8 56.7" style="enable-background:new 0 0 65.8 56.7;" xml:space="preserve">
<style type="text/css">
	.st0{fill:#274A88;}
	.st1{fill:#FFFFFF;}
	.st2{font-family:'ArialMT';}
	.st3{font-size:3.75px;}
	.st4{fill:none;stroke:#FFFFFF;stroke-width:0.28;stroke-miterlimit:10;}
	.st5{fill:#474748;}
	.st6{fill:#B7B7B8;}
	.st7{fill:#484849;}
	.st8{fill:#DDDDDC;}
	.st9{fill:#D3D3D3;}
	.st10{fill:#EDEDF2;}
	.st11{fill:none;stroke:#000000;stroke-width:0.1721;stroke-miterlimit:19.5312;}
	.st12{fill:#C9B55E;}
</style>
<path id="rect2992" class="st0" d="M0.1,28.5c0,2.5,2,4.5,4.5,4.5v21.6c0,1.3,1,2.3,2.2,2.3h21.6c0-2.5,2-4.5,4.5-4.5s4.5,2,4.5,4.5
	H59c1.3,0,2.3-1,2.3-2.3V33c2.5,0,4.5-2,4.5-4.5s-2-4.5-4.5-4.5V2.4c0-1.3-1-2.3-2.3-2.3H37.4c0,2.5-2,4.5-4.5,4.5s-4.5-2-4.5-4.5
	H6.8c-1.3,0-2.3,1-2.3,2.3v21.7C2.1,24.1,0.1,26.1,0.1,28.5z M2,28.5c0-1.4,1.2-2.6,2.6-2.6s2.6,1.2,2.6,2.6S6,31.1,4.6,31.1
	S2,30,2,28.5z M58.7,28.5c0-1.4,1.1-2.6,2.6-2.6s2.6,1.2,2.6,2.6s-1.2,2.6-2.6,2.6S58.7,30,58.7,28.5z"/>
<text id="XMLID_97_" transform="matrix(6.123234e-17 -1 1 6.123234e-17 25.1742 37.607)" class="st1 st2 st3">GND</text>
<text id="XMLID_95_" transform="matrix(6.123234e-17 -1 1 6.123234e-17 30.5746 37.607)" class="st1 st2 st3">VCC</text>
<text id="XMLID_94_" transform="matrix(6.123234e-17 -1 1 6.123234e-17 35.975 37.607)" class="st1 st2 st3">NC</text>
<text id="XMLID_93_" transform="matrix(6.123234e-17 -1 1 6.123234e-17 41.3755 37.607)" class="st1 st2 st3">SIG</text>
<g id="XMLID_80_">
	<rect id="XMLID_85_" x="44.7" y="26.2" class="st4" width="8.4" height="4.5"/>
	<g id="XMLID_81_">
		<rect id="XMLID_84_" x="51" y="27" class="st1" width="1.2" height="2.9"/>
		<rect id="XMLID_83_" x="45.3" y="27" class="st1" width="1.2" height="2.9"/>
		<rect id="XMLID_82_" x="46.5" y="27" class="st5" width="4.5" height="2.9"/>
	</g>
</g>
<g id="XMLID_1_">
	<rect id="XMLID_6_" x="44.7" y="31.3" class="st4" width="8.4" height="4.5"/>
	<g id="XMLID_2_">
		<rect id="XMLID_5_" x="51" y="32" class="st1" width="1.2" height="2.9"/>
		<rect id="XMLID_4_" x="45.3" y="32" class="st1" width="1.2" height="2.9"/>
		<rect id="XMLID_3_" x="46.5" y="32" class="st5" width="4.5" height="2.9"/>
	</g>
</g>
<g>
	<g>
		<g>
			<g>
				<g>
					<rect x="20.3" y="11.4" class="st6" width="4.1" height="3.2"/>
				</g>
			</g>
		</g>
		<g>
			<g>
				<g>
					<rect x="41.4" y="11.4" class="st6" width="4.1" height="3.2"/>
				</g>
			</g>
		</g>
		<g>
			<g>
				<g>
					<rect x="20.3" y="20" class="st6" width="4.1" height="3.2"/>
				</g>
			</g>
		</g>
		<g>
			<g>
				<g>
					<rect x="41.4" y="20" class="st6" width="4.1" height="3.2"/>
				</g>
			</g>
		</g>
	</g>
	<g>
		<g>
			<g>
				<rect x="24.4" y="9.3" class="st7" width="17" height="17"/>
			</g>
		</g>
		<g>
			<g>
				<rect x="25.2" y="10" class="st8" width="15.5" height="15.5"/>
			</g>
		</g>
		<g>
			<g>
				<path class="st8" d="M28.4,13.1h-3.9v-2.4c0-0.8,0.6-1.4,1.4-1.4h2.4v3.8H28.4z"/>
			</g>
		</g>
		<g>
			<g>
				<path class="st8" d="M41.4,13.1h-4V9.3h2.4c0.8,0,1.4,0.6,1.4,1.4L41.4,13.1L41.4,13.1z"/>
			</g>
		</g>
		<g>
			<g>
				<path class="st8" d="M28.4,26.2H26c-0.8,0-1.4-0.6-1.4-1.4v-2.4h3.9v3.8H28.4z"/>
			</g>
		</g>
		<g>
			<g>
				<path class="st8" d="M40,26.2h-2.5v-3.9h3.9v2.4C41.4,25.5,40.8,26.2,40,26.2z"/>
			</g>
		</g>
		<g>
			<g>
				<circle class="st7" cx="26.4" cy="11.2" r="1.3"/>
			</g>
		</g>
		<g>
			<g>
				<circle class="st7" cx="39.5" cy="11.2" r="1.3"/>
			</g>
		</g>
		<g>
			<g>
				<circle class="st7" cx="26.4" cy="24.2" r="1.3"/>
			</g>
		</g>
		<g>
			<g>
				<circle class="st9" cx="33" cy="17.7" r="4.9"/>
			</g>
		</g>
		<g>
			<g>
				<circle class="st7" cx="39.5" cy="24.2" r="1.3"/>
			</g>
		</g>
		<g>
			<g>
				<circle class="st7" cx="33" cy="17.7" r="4.6"/>
			</g>
		</g>
		<g>
			<g>
				<circle class="st7" cx="33" cy="17.7" r="4.3"/>
			</g>
		</g>
	</g>
</g>
<g id="XMLID_7_">
	<g id="g3109_2_" transform="matrix(0 1.2499976 -1.2499976 0 1338.60444 1003.15358)">
		<g id="g33658-1_2_" transform="translate(-1.6000031,0)">
			<path id="path16826-7_2_" class="st10" d="M-758.7,1033.3v3.6h-1.2v-2.4h-7.2v3.9h-1.2v-1.3h-1.8v-3.8L-758.7,1033.3
				L-758.7,1033.3z"/>
			<path id="path16828-7_2_" class="st10" d="M-758.7,1052.3v3.6h-11.4v-3.8h1.8v-1.3h1.2v3.9h7.2v-2.4L-758.7,1052.3L-758.7,1052.3
				z"/>
			<path id="path16832-7_2_" class="st1" d="M-758.7,1052.3h-1.2v-15.4h1.2V1052.3z"/>
			<path id="path16834-3_2_" class="st1" d="M-768.3,1040.6v-2.2h1.2v12.4h-1.2v-2.2V1040.6L-768.3,1040.6z"/>
			<path id="path16836-3_2_" class="st10" d="M-770.2,1040.7h1.9v7.8h-1.9V1040.7z"/>
			<path id="path22220-2_2_" class="st11" d="M-758.7,1036.9"/>
			<path id="path22220-2_1_" class="st11" d="M-758.7,1052.3"/>
			<path id="path22246-8_2_" class="st11" d="M-767.1,1054.6"/>
			<path id="path22246-8_1_" class="st11" d="M-759.9,1054.6"/>
			<path id="path22248-0_2_" class="st11" d="M-759.9,1054.6"/>
			<path id="path22248-0_1_" class="st11" d="M-759.9,1052.3"/>
			<path id="path22250-1_2_" class="st11" d="M-759.9,1052.3"/>
			<path id="path22250-1_1_" class="st11" d="M-758.7,1052.3"/>
			<path id="path22252-2_2_" class="st11" d="M-758.7,1055.9"/>
			<path id="path22252-2_1_" class="st11" d="M-758.7,1052.3"/>
			<path id="path22276-4_2_" class="st11" d="M-770.1,1052.1"/>
			<path id="path22276-4_1_" class="st11" d="M-770.1,1055.9"/>
			<path id="path29510-1_2_" class="st11" d="M-770.1,1055.9"/>
			<path id="path29510-1_1_" class="st11" d="M-758.7,1055.9"/>
			
				<rect x="-776.2" y="1040.1" transform="matrix(-1 -1.224647e-16 1.224647e-16 -1 -1527.0802 2089.1306)" class="st8" width="25.2" height="9"/>
		</g>
		<path id="connector3pin_2_" class="st12" d="M-765.7,1038.4v-1.1h1.1v1.1H-765.7z"/>
		<path id="connector2pin_2_" class="st12" d="M-764.5,1041.8v1.1h-1.1v-1.1H-764.5z"/>
		<path id="connector1pin_2_" class="st12" d="M-765.7,1046.3h1.1v1.1h-1.1V1046.3z"/>
		<path id="connector0pin_2_" class="st12" d="M-765.7,1050.8h1.1v1.1h-1.1V1050.8z"/>
	</g>
</g>
</svg>
