<?xml version="1.0" encoding="utf-8"?>
<!-- Generator: Adobe Illustrator 23.0.1, SVG Export Plug-In . SVG Version: 6.00 Build 0)  -->
<svg version="1.1" id="Layer_1" xmlns="http://www.w3.org/2000/svg" xmlns:xlink="http://www.w3.org/1999/xlink" x="0px" y="0px"
	 viewBox="0 0 62.4 54" style="enable-background:new 0 0 62.4 54;" xml:space="preserve">
<style type="text/css">
	.st0{fill:#C9B55E;}
	.st1{fill:#040202;}
	.st2{fill:none;stroke:#7C6B2B;stroke-width:0.5;stroke-miterlimit:10;}
	.st3{fill:#FFFFFF;}
	.st4{fill:#EDEDF2;}
	.st5{fill:#DDDDDC;}
	.st6{fill:#C6C5C5;}
	.st7{font-family:'ArialRoundedMTBold';}
	.st8{font-size:4.1493px;}
	.st9{fill:#7C6B2B;stroke:#D8C262;stroke-width:0.15;stroke-miterlimit:10;}
	.st10{fill:#474748;}
	.st11{fill:none;stroke:#FFFFFF;stroke-width:0.25;stroke-miterlimit:10;}
	.st12{fill:#7C6B2B;}
	.st13{fill:#D8C262;}
	.st14{fill:#663231;}
	.st15{fill:#7D6C2B;}
	.st16{font-size:3.932px;}
</style>
<g>
	<path d="M43.5,0.1H18.9c-2,0-3.9,1.1-4.9,2.8L1.7,24.2c-1,1.8-1,3.9,0,5.7L14,51.1c1,1.8,2.9,2.8,4.9,2.8h24.5c2,0,3.9-1.1,4.9-2.8
		l12.3-21.3c1-1.8,1-3.9,0-5.7L48.4,2.9C47.4,1.2,45.5,0.1,43.5,0.1z"/>
	<g>
		<g>
			<g>
				<path class="st0" d="M28.5,8.4L28.5,8.4c-1,0-1.7-0.8-1.7-1.7V5.3c0-1,0.8-1.7,1.7-1.7h0c1,0,1.7,0.8,1.7,1.7v1.4
					C30.2,7.6,29.4,8.4,28.5,8.4z"/>
				<circle class="st1" cx="28.5" cy="6" r="1"/>
			</g>
			<path class="st2" d="M28.5,8.4L28.5,8.4c-1,0-1.7-0.8-1.7-1.7V5.3c0-1,0.8-1.7,1.7-1.7h0c1,0,1.7,0.8,1.7,1.7v1.4
				C30.2,7.6,29.4,8.4,28.5,8.4z"/>
			<rect x="28.2" y="8" class="st0" width="0.7" height="0.9"/>
		</g>
		<g>
			<rect x="27.4" y="5" class="st3" width="2" height="2"/>
			<polygon class="st4" points="27.4,5 28.5,6 27.4,7 			"/>
			<polygon class="st5" points="29.5,7 28.5,6 27.4,7 			"/>
			<polygon class="st6" points="29.5,5 28.5,6 29.5,7 			"/>
		</g>
	</g>
	<g>
		<g>
			<g>
				<path class="st0" d="M23.2,8.4L23.2,8.4c1,0,1.7-0.8,1.7-1.7V5.3c0-1-0.8-1.7-1.7-1.7h0c-1,0-1.7,0.8-1.7,1.7v1.4
					C21.5,7.6,22.3,8.4,23.2,8.4z"/>
				<circle class="st1" cx="23.2" cy="6" r="1"/>
			</g>
			<path class="st2" d="M23.2,8.4L23.2,8.4c1,0,1.7-0.8,1.7-1.7V5.3c0-1-0.8-1.7-1.7-1.7h0c-1,0-1.7,0.8-1.7,1.7v1.4
				C21.5,7.6,22.3,8.4,23.2,8.4z"/>
			
				<rect x="24.1" y="7.6" transform="matrix(-0.7071 0.7071 -0.7071 -0.7071 47.3717 -3.7744)" class="st0" width="0.7" height="0.7"/>
		</g>
		<g>
			<rect x="22.2" y="5" class="st3" width="2" height="2"/>
			<polygon class="st4" points="22.2,5 23.2,6 22.2,7 			"/>
			<polygon class="st5" points="24.2,7 23.2,6 22.2,7 			"/>
			<polygon class="st6" points="24.2,5 23.2,6 24.2,7 			"/>
		</g>
	</g>
	<g>
		<g>
			<g>
				<path class="st0" d="M33.9,8.4L33.9,8.4c-1,0-1.7-0.8-1.7-1.7V5.3c0-1,0.8-1.7,1.7-1.7h0c1,0,1.7,0.8,1.7,1.7v1.4
					C35.6,7.6,34.9,8.4,33.9,8.4z"/>
				<circle class="st1" cx="33.9" cy="6" r="1"/>
			</g>
			<path class="st2" d="M33.9,8.4L33.9,8.4c-1,0-1.7-0.8-1.7-1.7V5.3c0-1,0.8-1.7,1.7-1.7h0c1,0,1.7,0.8,1.7,1.7v1.4
				C35.6,7.6,34.9,8.4,33.9,8.4z"/>
			<rect x="33.6" y="7.9" class="st0" width="0.7" height="1"/>
		</g>
		<g>
			<rect x="32.9" y="5" class="st3" width="2" height="2"/>
			<polygon class="st4" points="32.9,5 33.9,6 32.9,7 			"/>
			<polygon class="st5" points="34.9,7 33.9,6 32.9,7 			"/>
			<polygon class="st6" points="34.9,5 33.9,6 34.9,7 			"/>
		</g>
	</g>
	<g>
		<g>
			<g>
				<g>
					<path class="st0" d="M41.1,5.3V3.7c0-0.1-0.1-0.1-0.1-0.1h-3.2c-0.1,0-0.1,0.1-0.1,0.1v4.6c0,0.1,0.1,0.1,0.1,0.1h0.9l0,0h1.4
						l0,0h0.9c0.1,0,0.1-0.1,0.1-0.1V6.7l0,0V5.3L41.1,5.3z"/>
					<path class="st2" d="M41.1,5.3V3.7c0-0.1-0.1-0.1-0.1-0.1h-3.2c-0.1,0-0.1,0.1-0.1,0.1v4.6c0,0.1,0.1,0.1,0.1,0.1h0.9l0,0h1.4
						l0,0h0.9c0.1,0,0.1-0.1,0.1-0.1V6.7l0,0V5.3L41.1,5.3z"/>
					<circle class="st1" cx="39.4" cy="6" r="1"/>
				</g>
			</g>
			<rect x="38.7" y="8.1" class="st0" width="1.4" height="0.8"/>
			
				<rect x="40.4" y="5.7" transform="matrix(6.123234e-17 -1 1 6.123234e-17 35.0284 47.1357)" class="st0" width="1.4" height="0.8"/>
		</g>
		<g>
			<rect x="38.4" y="5" class="st3" width="2" height="2"/>
			<polygon class="st4" points="38.4,5 39.4,6 38.4,7 			"/>
			<polygon class="st5" points="40.4,7 39.4,6 38.4,7 			"/>
			<polygon class="st6" points="40.4,5 39.4,6 40.4,7 			"/>
		</g>
	</g>
	<g>
		<g>
			<polygon class="st3" points="28.5,17.3 33.9,12 32.8,12 30.7,14.1 30.1,13.6 31.7,12 30.7,12 29.6,13 29.1,12.5 29.6,12 28.5,12 
							"/>
			<polygon class="st3" points="33.9,17.3 33.9,16.4 32,14.6 31.6,15 			"/>
			<polygon class="st3" points="33.9,15.5 33.9,14.6 32.9,13.6 32.5,14.1 			"/>
			<polygon class="st3" points="33.9,13.6 33.9,12.7 33.4,13.2 			"/>
		</g>
	</g>
	<g>
		<text transform="matrix(1 0 0 1 16.1244 46.1796)"><tspan x="0" y="0" class="st3 st7 st8">Accelerometer</tspan><tspan x="2.4" y="5" class="st3 st7 st8">&amp;Gyroscope</tspan></text>
	</g>
	<circle class="st9" cx="16.5" cy="8.2" r="0.5"/>
	<circle class="st9" cx="25.9" cy="11.7" r="0.5"/>
	<circle class="st9" cx="37.6" cy="19" r="0.5"/>
	<circle class="st9" cx="33.9" cy="42" r="0.5"/>
	<circle class="st9" cx="29.9" cy="42" r="0.5"/>
	<circle class="st9" cx="18.1" cy="16.3" r="0.5"/>
	<circle class="st9" cx="5.8" cy="27" r="0.5"/>
	<circle class="st9" cx="25.9" cy="31.5" r="0.5"/>
	<circle class="st9" cx="31.7" cy="32.3" r="0.5"/>
	<circle class="st9" cx="33.4" cy="32.3" r="0.5"/>
	<circle class="st9" cx="37.4" cy="35.1" r="0.5"/>
	<g>
		<g>
			<rect x="9.8" y="22.9" class="st6" width="2.4" height="2.5"/>
			<rect x="9.8" y="22.9" class="st2" width="2.4" height="2.5"/>
		</g>
		<g>
			<rect x="7.5" y="28.1" class="st6" width="2.4" height="2.5"/>
			<rect x="7.5" y="28.1" class="st2" width="2.4" height="2.5"/>
		</g>
		<g>
			<rect x="12.2" y="28.1" class="st6" width="2.4" height="2.5"/>
			<rect x="12.2" y="28.1" class="st2" width="2.4" height="2.5"/>
		</g>
		<rect x="10.6" y="23.7" class="st3" width="0.7" height="1.4"/>
		<rect x="8.3" y="28.4" class="st3" width="0.7" height="1.4"/>
		<rect x="13" y="28.4" class="st3" width="0.7" height="1.4"/>
		<rect x="7" y="25.1" class="st10" width="8" height="3.4"/>
		<polyline class="st11" points="6.8,30.7 6.8,24.8 9.4,24.8 		"/>
		<polyline class="st11" points="12.7,24.8 15.3,24.8 15.3,28.7 		"/>
	</g>
	<g>
		<g>
			<rect x="19.4" y="22.9" class="st6" width="2.4" height="2.5"/>
			<rect x="19.4" y="22.9" class="st2" width="2.4" height="2.5"/>
		</g>
		<g>
			<rect x="17.1" y="28.1" class="st6" width="2.4" height="2.5"/>
			<rect x="17.1" y="28.1" class="st2" width="2.4" height="2.5"/>
		</g>
		<g>
			<rect x="21.8" y="28.1" class="st6" width="2.4" height="2.5"/>
			<rect x="21.8" y="28.1" class="st2" width="2.4" height="2.5"/>
		</g>
		<rect x="20.3" y="23.7" class="st3" width="0.7" height="1.4"/>
		<rect x="17.9" y="28.4" class="st3" width="0.7" height="1.4"/>
		<rect x="22.6" y="28.4" class="st3" width="0.7" height="1.4"/>
		<rect x="16.7" y="25.1" class="st10" width="8" height="3.4"/>
		<polyline class="st11" points="16.4,30.7 16.4,24.8 19,24.8 		"/>
		<polyline class="st11" points="22.3,24.8 24.9,24.8 24.9,28.7 		"/>
	</g>
	<g>
		<g>
			
				<rect x="12.6" y="17.6" transform="matrix(-1 -1.224647e-16 1.224647e-16 -1 27.0219 37.8459)" class="st6" width="1.9" height="2.7"/>
			<g>
				<path class="st12" d="M14.4,17.6v2.7h-1.9v-2.7H14.4 M14.9,17.1h-0.5h-1.9h-0.5v0.5v2.7v0.5h0.5h1.9h0.5v-0.5v-2.7V17.1
					L14.9,17.1z"/>
			</g>
			
				<rect x="13.1" y="17.1" transform="matrix(-1 -1.224647e-16 1.224647e-16 -1 27.0219 34.7014)" class="st0" width="0.7" height="0.5"/>
		</g>
		<g>
			
				<rect x="7.8" y="17.6" transform="matrix(-1 -1.224647e-16 1.224647e-16 -1 17.4032 37.8459)" class="st6" width="1.9" height="2.7"/>
			<g>
				<path class="st12" d="M9.6,17.6v2.7H7.8v-2.7H9.6 M10.1,17.1H9.6H7.8H7.3v0.5v2.7v0.5h0.5h1.9h0.5v-0.5v-2.7V17.1L10.1,17.1z"/>
			</g>
			
				<rect x="7.2" y="18.6" transform="matrix(-1.836970e-16 1 -1 -1.836970e-16 26.4037 11.3335)" class="st0" width="0.7" height="0.5"/>
			<rect x="8.3" y="20.3" class="st0" width="0.7" height="0.5"/>
		</g>
		<g>
			
				<rect x="12.6" y="17.8" transform="matrix(-1 -1.224647e-16 1.224647e-16 -1 26.0026 37.8263)" class="st3" width="0.7" height="2.1"/>
			
				<rect x="9.1" y="17.8" transform="matrix(-1 -1.224647e-16 1.224647e-16 -1 18.9073 37.8263)" class="st3" width="0.7" height="2.1"/>
			
				<rect x="9.8" y="17.8" transform="matrix(-1 -1.224647e-16 1.224647e-16 -1 22.455 37.8263)" class="st10" width="2.8" height="2.1"/>
		</g>
		<line class="st11" x1="11.9" y1="20.3" x2="10.4" y2="20.3"/>
		<line class="st11" x1="11.9" y1="17.5" x2="10.4" y2="17.5"/>
	</g>
	<g>
		<g>
			
				<rect x="22.1" y="17.6" transform="matrix(-1 -1.224647e-16 1.224647e-16 -1 46.0813 37.8459)" class="st6" width="1.9" height="2.7"/>
			<g>
				<path class="st12" d="M24,17.6v2.7h-1.9v-2.7H24 M24.5,17.1H24h-1.9h-0.5v0.5v2.7v0.5h0.5H24h0.5v-0.5v-2.7V17.1L24.5,17.1z"/>
			</g>
			
				<rect x="22.7" y="17.1" transform="matrix(-1 -1.224647e-16 1.224647e-16 -1 46.0813 34.7014)" class="st0" width="0.7" height="0.5"/>
		</g>
		<g>
			
				<rect x="17.3" y="17.6" transform="matrix(-1 -1.224647e-16 1.224647e-16 -1 36.4625 37.8459)" class="st6" width="1.9" height="2.7"/>
			<g>
				<path class="st12" d="M19.2,17.6v2.7h-1.9v-2.7H19.2 M19.7,17.1h-0.5h-1.9h-0.5v0.5v2.7v0.5h0.5h1.9h0.5v-0.5v-2.7V17.1
					L19.7,17.1z"/>
			</g>
			
				<rect x="16.7" y="18.6" transform="matrix(-1.836970e-16 1 -1 -1.836970e-16 35.9334 1.8038)" class="st0" width="0.7" height="0.5"/>
			<rect x="17.9" y="20.3" class="st0" width="0.7" height="0.5"/>
		</g>
		<g>
			
				<rect x="22.2" y="17.8" transform="matrix(-1 -1.224647e-16 1.224647e-16 -1 45.062 37.8263)" class="st3" width="0.7" height="2.1"/>
			
				<rect x="18.6" y="17.8" transform="matrix(-1 -1.224647e-16 1.224647e-16 -1 37.9667 37.8263)" class="st3" width="0.7" height="2.1"/>
			
				<rect x="19.4" y="17.8" transform="matrix(-1 -1.224647e-16 1.224647e-16 -1 41.5144 37.8263)" class="st10" width="2.8" height="2.1"/>
		</g>
		<line class="st11" x1="21.4" y1="20.3" x2="19.9" y2="20.3"/>
		<line class="st11" x1="21.4" y1="17.5" x2="19.9" y2="17.5"/>
	</g>
	<g>
		<g>
			
				<rect x="12.6" y="33.7" transform="matrix(-1 -1.224647e-16 1.224647e-16 -1 27.0219 70.0613)" class="st6" width="1.9" height="2.7"/>
			<g>
				<path class="st12" d="M14.4,33.7v2.7h-1.9v-2.7H14.4 M14.9,33.2h-0.5h-1.9h-0.5v0.5v2.7v0.5h0.5h1.9h0.5v-0.5v-2.7V33.2
					L14.9,33.2z"/>
			</g>
			
				<rect x="13.1" y="33.2" transform="matrix(-1 -1.224647e-16 1.224647e-16 -1 27.0219 66.9168)" class="st0" width="0.7" height="0.5"/>
		</g>
		<g>
			
				<rect x="7.8" y="33.7" transform="matrix(-1 -1.224647e-16 1.224647e-16 -1 17.4032 70.0613)" class="st6" width="1.9" height="2.7"/>
			<g>
				<path class="st12" d="M9.6,33.7v2.7H7.8v-2.7H9.6 M10.1,33.2H9.6H7.8H7.3v0.5v2.7v0.5h0.5h1.9h0.5v-0.5v-2.7V33.2L10.1,33.2z"/>
			</g>
			
				<rect x="7.2" y="34.7" transform="matrix(-1.836970e-16 1 -1 -1.836970e-16 42.5114 27.4412)" class="st0" width="0.7" height="0.5"/>
			<rect x="8.3" y="36.4" class="st0" width="0.7" height="0.5"/>
		</g>
		<g>
			
				<rect x="12.6" y="34" transform="matrix(-1 -1.224647e-16 1.224647e-16 -1 26.0026 70.0416)" class="st3" width="0.7" height="2.1"/>
			
				<rect x="9.1" y="34" transform="matrix(-1 -1.224647e-16 1.224647e-16 -1 18.9073 70.0416)" class="st3" width="0.7" height="2.1"/>
			
				<rect x="9.8" y="34" transform="matrix(-1 -1.224647e-16 1.224647e-16 -1 22.455 70.0416)" class="st10" width="2.8" height="2.1"/>
		</g>
		<line class="st11" x1="11.9" y1="36.4" x2="10.4" y2="36.4"/>
		<line class="st11" x1="11.9" y1="33.6" x2="10.4" y2="33.6"/>
	</g>
	<g>
		<g>
			
				<rect x="22.1" y="33.7" transform="matrix(-1 -1.224647e-16 1.224647e-16 -1 46.0813 70.0613)" class="st6" width="1.9" height="2.7"/>
			<g>
				<path class="st12" d="M24,33.7v2.7h-1.9v-2.7H24 M24.5,33.2H24h-1.9h-0.5v0.5v2.7v0.5h0.5H24h0.5v-0.5v-2.7V33.2L24.5,33.2z"/>
			</g>
			
				<rect x="22.7" y="33.2" transform="matrix(-1 -1.224647e-16 1.224647e-16 -1 46.0813 66.9168)" class="st0" width="0.7" height="0.5"/>
		</g>
		<g>
			
				<rect x="17.3" y="33.7" transform="matrix(-1 -1.224647e-16 1.224647e-16 -1 36.4625 70.0613)" class="st6" width="1.9" height="2.7"/>
			<g>
				<path class="st12" d="M19.2,33.7v2.7h-1.9v-2.7H19.2 M19.7,33.2h-0.5h-1.9h-0.5v0.5v2.7v0.5h0.5h1.9h0.5v-0.5v-2.7V33.2
					L19.7,33.2z"/>
			</g>
			
				<rect x="16.7" y="34.7" transform="matrix(-1.836970e-16 1 -1 -1.836970e-16 52.0411 17.9115)" class="st0" width="0.7" height="0.5"/>
			<rect x="17.9" y="36.4" class="st0" width="0.7" height="0.5"/>
		</g>
		<g>
			
				<rect x="22.2" y="34" transform="matrix(-1 -1.224647e-16 1.224647e-16 -1 45.062 70.0416)" class="st3" width="0.7" height="2.1"/>
			
				<rect x="18.6" y="34" transform="matrix(-1 -1.224647e-16 1.224647e-16 -1 37.9667 70.0416)" class="st3" width="0.7" height="2.1"/>
			
				<rect x="19.4" y="34" transform="matrix(-1 -1.224647e-16 1.224647e-16 -1 41.5144 70.0416)" class="st10" width="2.8" height="2.1"/>
		</g>
		<line class="st11" x1="21.4" y1="36.4" x2="19.9" y2="36.4"/>
		<line class="st11" x1="21.4" y1="33.6" x2="19.9" y2="33.6"/>
	</g>
	<g>
		<g>
			<rect x="38.7" y="17.6" class="st6" width="1.9" height="2.7"/>
			<g>
				<g>
					<path class="st13" d="M40.6,17.6v2.7h-1.9v-2.7H40.6 M41.1,17.1h-0.5h-1.9h-0.5v0.5v2.7v0.5h0.5h1.9h0.5v-0.5v-2.7V17.1
						L41.1,17.1z"/>
				</g>
			</g>
		</g>
		<g>
			<rect x="43.5" y="17.6" class="st6" width="1.9" height="2.7"/>
			<g>
				<path class="st12" d="M45.4,17.6v2.7h-1.9v-2.7H45.4 M45.9,17.1h-0.5h-1.9H43v0.5v2.7v0.5h0.5h1.9h0.5v-0.5v-2.7V17.1L45.9,17.1
					z"/>
			</g>
			
				<rect x="45.2" y="18.8" transform="matrix(6.123234e-17 -1 1 6.123234e-17 26.5839 64.6155)" class="st0" width="0.7" height="0.5"/>
			
				<rect x="44.1" y="17.2" transform="matrix(-1 -1.224647e-16 1.224647e-16 -1 88.8664 34.7782)" class="st0" width="0.7" height="0.5"/>
			
				<rect x="43.7" y="20.3" transform="matrix(-1 -1.224647e-16 1.224647e-16 -1 88.144 41.0673)" class="st0" width="0.7" height="0.5"/>
		</g>
		<g>
			<rect x="39.8" y="17.9" class="st3" width="0.7" height="2.1"/>
			<rect x="43.3" y="17.9" class="st3" width="0.7" height="2.1"/>
			<rect x="40.5" y="17.9" class="st14" width="2.8" height="2.1"/>
		</g>
		<line class="st11" x1="41.3" y1="17.6" x2="42.8" y2="17.6"/>
		<line class="st11" x1="41.3" y1="20.4" x2="42.8" y2="20.4"/>
	</g>
	<g>
		<g>
			<rect x="38.7" y="33.7" class="st6" width="1.9" height="2.7"/>
			<g>
				<g>
					<path class="st13" d="M40.6,33.7v2.7h-1.9v-2.7H40.6 M41.1,33.2h-0.5h-1.9h-0.5v0.5v2.7v0.5h0.5h1.9h0.5v-0.5v-2.7V33.2
						L41.1,33.2z"/>
				</g>
			</g>
		</g>
		<g>
			<rect x="43.5" y="33.7" class="st6" width="1.9" height="2.7"/>
			<g>
				<path class="st12" d="M45.4,33.7v2.7h-1.9v-2.7H45.4 M45.9,33.2h-0.5h-1.9H43v0.5v2.7v0.5h0.5h1.9h0.5v-0.5v-2.7V33.2L45.9,33.2
					z"/>
			</g>
			
				<rect x="45.2" y="34.8" transform="matrix(6.123234e-17 -1 1 6.123234e-17 10.5245 80.6749)" class="st0" width="0.7" height="0.5"/>
			
				<rect x="44.1" y="33.2" transform="matrix(-1 -1.224647e-16 1.224647e-16 -1 88.8664 66.8971)" class="st0" width="0.7" height="0.5"/>
			
				<rect x="43.7" y="36.4" transform="matrix(-1 -1.224647e-16 1.224647e-16 -1 88.144 73.1862)" class="st0" width="0.7" height="0.5"/>
		</g>
		<g>
			<rect x="39.8" y="34" class="st3" width="0.7" height="2.1"/>
			<rect x="43.3" y="34" class="st3" width="0.7" height="2.1"/>
			<rect x="40.5" y="34" class="st14" width="2.8" height="2.1"/>
		</g>
		<line class="st11" x1="41.3" y1="33.7" x2="42.8" y2="33.7"/>
		<line class="st11" x1="41.3" y1="36.5" x2="42.8" y2="36.5"/>
	</g>
	<g>
		<g>
			
				<rect x="28.9" y="38.8" transform="matrix(6.123234e-17 -1 1 6.123234e-17 -10.3169 70.0312)" class="st6" width="1.9" height="2.7"/>
			<g>
				<g>
					<path class="st13" d="M31.2,39.2v1.9h-2.7v-1.9H31.2 M31.7,38.7h-0.5h-2.7H28v0.5v1.9v0.5h0.5h2.7h0.5v-0.5v-1.9V38.7
						L31.7,38.7z"/>
				</g>
			</g>
		</g>
		<g>
			
				<rect x="28.9" y="34" transform="matrix(6.123234e-17 -1 1 6.123234e-17 -5.5075 65.2219)" class="st6" width="1.9" height="2.7"/>
			<g>
				<path class="st12" d="M31.2,34.4v1.9h-2.7v-1.9H31.2 M31.7,33.9h-0.5h-2.7H28v0.5v1.9v0.5h0.5h2.7h0.5v-0.5v-1.9V33.9L31.7,33.9
					z"/>
			</g>
			
				<rect x="29.6" y="34" transform="matrix(-1 -1.224647e-16 1.224647e-16 -1 59.8231 68.3964)" class="st0" width="0.7" height="0.5"/>
			
				<rect x="27.9" y="35.1" transform="matrix(-1.836970e-16 1 -1 -1.836970e-16 63.6496 7.0798)" class="st0" width="0.7" height="0.5"/>
			
				<rect x="31.1" y="35.5" transform="matrix(-1.836970e-16 1 -1 -1.836970e-16 67.1553 4.2964)" class="st0" width="0.7" height="0.5"/>
		</g>
		<g>
			
				<rect x="29.5" y="38.6" transform="matrix(6.123234e-17 -1 1 6.123234e-17 -9.7974 69.5314)" class="st3" width="0.7" height="2.1"/>
			
				<rect x="29.5" y="35" transform="matrix(6.123234e-17 -1 1 6.123234e-17 -6.2497 65.9838)" class="st3" width="0.7" height="2.1"/>
			
				<rect x="28.5" y="36.8" transform="matrix(6.123234e-17 -1 1 6.123234e-17 -8.0236 67.7576)" class="st14" width="2.8" height="2.1"/>
		</g>
		<line class="st11" x1="28.5" y1="38.5" x2="28.5" y2="37"/>
		<line class="st11" x1="31.3" y1="38.5" x2="31.3" y2="37"/>
	</g>
	<g>
		<g>
			
				<rect x="32.9" y="38.8" transform="matrix(6.123234e-17 -1 1 6.123234e-17 -6.3303 74.0178)" class="st6" width="1.9" height="2.7"/>
			<g>
				<g>
					<path class="st13" d="M35.2,39.2v1.9h-2.7v-1.9H35.2 M35.7,38.7h-0.5h-2.7H32v0.5v1.9v0.5h0.5h2.7h0.5v-0.5v-1.9V38.7
						L35.7,38.7z"/>
				</g>
			</g>
		</g>
		<g>
			
				<rect x="32.9" y="34" transform="matrix(6.123234e-17 -1 1 6.123234e-17 -1.5209 69.2084)" class="st6" width="1.9" height="2.7"/>
			<g>
				<path class="st12" d="M35.2,34.4v1.9h-2.7v-1.9H35.2 M35.7,33.9h-0.5h-2.7H32v0.5v1.9v0.5h0.5h2.7h0.5v-0.5v-1.9V33.9L35.7,33.9
					z"/>
			</g>
			
				<rect x="33.5" y="34" transform="matrix(-1 -1.224647e-16 1.224647e-16 -1 67.7963 68.3964)" class="st0" width="0.7" height="0.5"/>
			
				<rect x="31.9" y="35.1" transform="matrix(-1.836970e-16 1 -1 -1.836970e-16 67.6362 3.0932)" class="st0" width="0.7" height="0.5"/>
			
				<rect x="35.1" y="35.5" transform="matrix(-1.836970e-16 1 -1 -1.836970e-16 71.1419 0.3099)" class="st0" width="0.7" height="0.5"/>
		</g>
		<g>
			
				<rect x="33.5" y="38.6" transform="matrix(6.123234e-17 -1 1 6.123234e-17 -5.8108 73.518)" class="st3" width="0.7" height="2.1"/>
			
				<rect x="33.5" y="35" transform="matrix(6.123234e-17 -1 1 6.123234e-17 -2.2632 69.9704)" class="st3" width="0.7" height="2.1"/>
			
				<rect x="32.5" y="36.8" transform="matrix(6.123234e-17 -1 1 6.123234e-17 -4.037 71.7442)" class="st14" width="2.8" height="2.1"/>
		</g>
		<line class="st11" x1="32.5" y1="38.5" x2="32.5" y2="37"/>
		<line class="st11" x1="35.3" y1="38.5" x2="35.3" y2="37"/>
	</g>
	<g>
		<g>
			<g>
				<g>
					<rect x="26.6" y="24.4" class="st6" width="2.3" height="1.1"/>
					<path class="st13" d="M28.7,24.6v0.6h-1.8v-0.6H28.7 M29.2,24.1h-0.5h-1.8h-0.5v0.5v0.6v0.5h0.5h1.8h0.5v-0.5v-0.6V24.1
						L29.2,24.1z"/>
				</g>
			</g>
		</g>
		<g>
			<g>
				<g>
					<rect x="26.6" y="25.7" class="st6" width="2.3" height="1.1"/>
					<path class="st13" d="M28.7,26v0.6h-1.8V26H28.7 M29.2,25.5h-0.5h-1.8h-0.5V26v0.6v0.5h0.5h1.8h0.5v-0.5V26V25.5L29.2,25.5z"/>
				</g>
			</g>
		</g>
		<g>
			<g>
				<g>
					<rect x="26.6" y="27" class="st6" width="2.3" height="1.1"/>
					<path class="st13" d="M28.7,27.3v0.6h-1.8v-0.6H28.7 M29.2,26.8h-0.5h-1.8h-0.5v0.5v0.6v0.5h0.5h1.8h0.5v-0.5v-0.6V26.8
						L29.2,26.8z"/>
				</g>
			</g>
		</g>
		<g>
			<g>
				<g>
					<rect x="26.6" y="28.3" class="st6" width="2.3" height="1.1"/>
					<path class="st15" d="M28.7,28.6v0.6h-1.8v-0.6H28.7 M29.2,28.1h-0.5h-1.8h-0.5v0.5v0.6v0.5h0.5h1.8h0.5v-0.5v-0.6V28.1
						L29.2,28.1z"/>
				</g>
			</g>
		</g>
		<g>
			<g>
				<rect x="33.5" y="24.4" class="st6" width="2.3" height="1.1"/>
				<path class="st15" d="M35.5,24.6v0.6h-1.8v-0.6H35.5 M36,24.1h-0.5h-1.8h-0.5v0.5v0.6v0.5h0.5h1.8H36v-0.5v-0.6V24.1L36,24.1z"
					/>
			</g>
		</g>
		<g>
			<g>
				<rect x="33.5" y="25.7" class="st6" width="2.3" height="1.1"/>
				<path class="st15" d="M35.5,26v0.6h-1.8V26H35.5 M36,25.5h-0.5h-1.8h-0.5V26v0.6v0.5h0.5h1.8H36v-0.5V26V25.5L36,25.5z"/>
			</g>
		</g>
		<g>
			<g>
				<rect x="33.5" y="27" class="st6" width="2.3" height="1.1"/>
				<path class="st15" d="M35.5,27.3v0.6h-1.8v-0.6H35.5 M36,26.8h-0.5h-1.8h-0.5v0.5v0.6v0.5h0.5h1.8H36v-0.5v-0.6V26.8L36,26.8z"
					/>
			</g>
		</g>
		<g>
			<g>
				<rect x="33.5" y="28.3" class="st6" width="2.3" height="1.1"/>
				<path class="st15" d="M35.5,28.6v0.6h-1.8v-0.6H35.5 M36,28.1h-0.5h-1.8h-0.5v0.5v0.6v0.5h0.5h1.8H36v-0.5v-0.6V28.1L36,28.1z"
					/>
			</g>
		</g>
		<g>
			<g>
				<g>
					<rect x="29.4" y="28.6" class="st6" width="1.1" height="2.3"/>
					<path class="st15" d="M30.2,28.8v1.8h-0.6v-1.8H30.2 M30.7,28.3h-0.5h-0.6h-0.5v0.5v1.8v0.5h0.5h0.6h0.5v-0.5v-1.8V28.3
						L30.7,28.3z"/>
				</g>
			</g>
		</g>
		<g>
			<g>
				<g>
					<rect x="30.7" y="28.6" class="st6" width="1.1" height="2.3"/>
					<path class="st15" d="M31.5,28.8v1.8h-0.6v-1.8H31.5 M32,28.3h-0.5h-0.6h-0.5v0.5v1.8v0.5h0.5h0.6H32v-0.5v-1.8V28.3L32,28.3z"
						/>
				</g>
			</g>
		</g>
		<g>
			<g>
				<rect x="32" y="28.6" class="st6" width="1.1" height="2.3"/>
				<path class="st13" d="M32.8,28.8v1.8h-0.6v-1.8H32.8 M33.3,28.3h-0.5h-0.6h-0.5v0.5v1.8v0.5h0.5h0.6h0.5v-0.5v-1.8V28.3
					L33.3,28.3z"/>
			</g>
		</g>
		<g>
			<g>
				<rect x="29.4" y="23" class="st6" width="1.1" height="2.3"/>
				<path class="st15" d="M30.2,23.3v1.8h-0.6v-1.8H30.2 M30.7,22.8h-0.5h-0.6h-0.5v0.5v1.8v0.5h0.5h0.6h0.5v-0.5v-1.8V22.8
					L30.7,22.8z"/>
			</g>
		</g>
		<g>
			<g>
				<rect x="30.7" y="23" class="st6" width="1.1" height="2.3"/>
				<path class="st15" d="M31.5,23.3v1.8h-0.6v-1.8H31.5 M32,22.8h-0.5h-0.6h-0.5v0.5v1.8v0.5h0.5h0.6H32v-0.5v-1.8V22.8L32,22.8z"
					/>
			</g>
		</g>
		<g>
			<g>
				<rect x="32" y="23" class="st6" width="1.1" height="2.3"/>
				<path class="st15" d="M32.8,23.3v1.8h-0.6v-1.8H32.8 M33.3,22.8h-0.5h-0.6h-0.5v0.5v1.8v0.5h0.5h0.6h0.5v-0.5v-1.8V22.8
					L33.3,22.8z"/>
			</g>
		</g>
		<line class="st11" x1="26.6" y1="23.4" x2="28.9" y2="23.4"/>
		<polyline class="st11" points="33.6,23.4 35.6,23.4 35.6,24 		"/>
		<polyline class="st11" points="35.6,29.9 35.6,30.6 33.5,30.6 		"/>
		<polyline class="st11" points="29,30.6 27,30.6 27,29.8 		"/>
	</g>
	<g>
		<g>
			<g>
				<rect x="41" y="23.3" class="st6" width="2.4" height="2.5"/>
				<rect x="41" y="23.3" class="st2" width="2.4" height="2.5"/>
			</g>
			<g>
				<rect x="38.6" y="28.4" class="st6" width="2.4" height="2.5"/>
				<rect x="38.6" y="28.4" class="st2" width="2.4" height="2.5"/>
			</g>
			<g>
				<rect x="43.3" y="28.4" class="st6" width="2.4" height="2.5"/>
				<rect x="43.3" y="28.4" class="st2" width="2.4" height="2.5"/>
			</g>
			<rect x="41.8" y="24" class="st3" width="0.7" height="1.4"/>
			<g>
				<rect x="38.6" y="23.3" class="st6" width="2.4" height="2.5"/>
				<rect x="38.6" y="23.3" class="st2" width="2.4" height="2.5"/>
			</g>
			<rect x="39.4" y="24" class="st3" width="0.7" height="1.4"/>
			<g>
				<rect x="43.3" y="23.3" class="st6" width="2.4" height="2.5"/>
				<rect x="43.3" y="23.3" class="st2" width="2.4" height="2.5"/>
			</g>
			<rect x="44.2" y="24" class="st3" width="0.7" height="1.4"/>
			<rect x="39.4" y="28.8" class="st3" width="0.7" height="1.4"/>
			<rect x="44.2" y="28.8" class="st3" width="0.7" height="1.4"/>
			<rect x="38.2" y="25.4" class="st10" width="8" height="3.4"/>
		</g>
		<line class="st11" x1="37.7" y1="24.5" x2="37.7" y2="29.5"/>
		<line class="st11" x1="46.4" y1="22.9" x2="46.4" y2="29.5"/>
	</g>
	<g>
		<rect x="28" y="23" transform="matrix(6.123234e-17 -1 1 6.123234e-17 4.3511 58.2923)" width="6.6" height="7.9"/>
		
			<rect x="28.2" y="23.2" transform="matrix(6.123234e-17 -1 1 6.123234e-17 4.3511 58.2923)" class="st10" width="6.3" height="7.6"/>
	</g>
	<path class="st3" d="M52.6,22.6c-0.2-0.3-0.5-0.4-0.9-0.5v-0.9h0.8L51.5,20l-0.9,1.2h0.8v0.9c-0.7,0.1-1.1,0.5-1.3,0.9l-0.5-0.3
		l0.2,1.1l1.1-0.4l-0.6-0.3c0.2-0.3,0.5-0.7,1.1-0.7v2.2c0,0.1,0.1,0.1,0.1,0.1s0.1-0.1,0.1-0.1v-2.2c0.3,0,0.5,0.1,0.7,0.4
		c0.3,0.4,0.4,0.9,0.4,0.9c0,0.1,0,0.1,0.1,0.1c0,0,0,0,0,0c0.1,0,0.1,0,0.1-0.1C53,23.5,52.9,23,52.6,22.6z"/>
	<path class="st3" d="M58.4,27L57.3,26v0.8h-0.9c-0.1-0.7-0.5-1.1-0.9-1.3l0.3-0.5l-1.1,0.2l0.4,1.1l0.3-0.6
		c0.3,0.1,0.7,0.5,0.7,1.1h-2.2c-0.1,0-0.1,0.1-0.1,0.1c0,0.1,0.1,0.1,0.1,0.1h2.2c0,0.3-0.1,0.5-0.4,0.7c-0.4,0.3-0.8,0.4-0.9,0.4
		c-0.1,0-0.1,0-0.1,0.1c0,0.1,0,0.1,0.1,0.1c0,0,0,0,0.1,0c0.2,0,0.7-0.1,1-0.4c0.3-0.2,0.4-0.5,0.5-0.9h0.9v0.8L58.4,27z"/>
	<path class="st3" d="M52.4,29.4c-1.6,0.5-2.5-0.2-2.8-0.6l0.4-0.5l-1.1,0l0.2,1.1l0.4-0.4c0.3,0.3,0.9,0.8,1.9,0.8
		c0.3,0,0.7-0.1,1.1-0.2c0.1,0,0.1-0.1,0.1-0.2C52.6,29.4,52.5,29.4,52.4,29.4z"/>
	<circle class="st11" cx="51.4" cy="27" r="0.3"/>
	<circle class="st11" cx="51.4" cy="27" r="1.1"/>
	<text transform="matrix(1 0 0 1 54.4359 24.1684)" class="st3 st7 st16">X</text>
	<text transform="matrix(1 0 0 1 48.2591 21.1796)" class="st3 st7 st16">Y</text>
	<text transform="matrix(1 0 0 1 47.5062 33.2119)" class="st3 st7 st16">Z</text>
</g>
</svg>
