<?xml version="1.0" encoding="utf-8"?>
<!-- Generator: Adobe Illustrator 25.0.1, SVG Export Plug-In . SVG Version: 6.00 Build 0)  -->
<svg version="1.1" id="Layer_1" xmlns="http://www.w3.org/2000/svg" xmlns:xlink="http://www.w3.org/1999/xlink" x="0px" y="0px"
	 viewBox="0 0 50 50" style="enable-background:new 0 0 50 50;" xml:space="preserve">
<style type="text/css">
	.st0{fill:#343433;}
	.st1{fill:#FFFFFF;}
</style>
<g>
	<path class="st0" d="M4.56,22.61c-0.81-3.5-0.64-6.89,1.21-10.04c1.91-3.25,4.81-5.11,8.49-5.72c4.02-0.66,7.59,0.46,10.78,2.92
		c0.2,0.15,0.31,0.15,0.51,0c2.6-2.03,5.54-3.2,8.86-3.09c4.89,0.16,8.63,2.31,10.87,6.76c1.12,2.23,1.39,4.63,1.11,7.09
		c-0.38,3.4-1.73,6.44-3.56,9.29c-2.18,3.41-4.93,6.32-7.94,9c-2.8,2.5-5.81,4.73-8.93,6.8c-0.44,0.29-0.87,0.31-1.31,0.02
		c-4.46-2.97-8.68-6.23-12.38-10.13c-1.58-1.67-3.03-3.44-4.3-5.36"/>
	<g>
		<g>
			<path class="st0" d="M25.73,35.25c-0.06,0-0.12,0-0.18-0.01c-0.65-0.07-1.19-0.55-1.34-1.2l-2.58-11.21l-1.59,4.2
				c-0.23,0.6-0.81,1.01-1.46,1.01H2.56C1.7,28.03,1,27.33,1,26.47s0.7-1.56,1.56-1.56H17.5l3.03-8.01c0.23-0.6,0.81-1.01,1.46-1.01
				l0.11,0c0.69,0.05,1.26,0.53,1.41,1.21l2.73,11.87l1.6-3.35c0.26-0.54,0.81-0.89,1.41-0.89h6.41c0.86,0,1.56,0.7,1.56,1.56
				s-0.7,1.56-1.56,1.56h-5.42l-3.1,6.5C26.88,34.9,26.33,35.25,25.73,35.25z"/>
			<path class="st1" d="M21.99,16.4c0.02,0,0.05,0,0.07,0c0.47,0.03,0.86,0.36,0.96,0.82l3.05,13.27l2.22-4.64
				c0.18-0.37,0.55-0.6,0.96-0.6h6.41c0.59,0,1.06,0.47,1.06,1.06c0,0.59-0.47,1.06-1.06,1.06h-5.74l-3.23,6.78
				c-0.18,0.37-0.55,0.6-0.96,0.6c-0.04,0-0.08,0-0.12-0.01c-0.45-0.05-0.82-0.38-0.92-0.82l-2.95-12.82l-2.17,5.74
				c-0.16,0.41-0.55,0.69-0.99,0.69H2.56c-0.59,0-1.06-0.47-1.06-1.06c0-0.59,0.47-1.06,1.06-1.06h15.29L21,17.08
				C21.16,16.67,21.55,16.4,21.99,16.4 M21.99,15.4c-0.85,0-1.62,0.54-1.92,1.33l-2.91,7.69H2.56c-1.14,0-2.06,0.92-2.06,2.06
				s0.92,2.06,2.06,2.06h16.02c0.85,0,1.63-0.54,1.93-1.33l1-2.65l2.21,9.6c0.2,0.85,0.91,1.49,1.78,1.59
				c0.08,0.01,0.15,0.01,0.23,0.01c0.79,0,1.52-0.46,1.86-1.17l2.96-6.21h5.11c1.14,0,2.06-0.92,2.06-2.06
				c0-1.14-0.92-2.06-2.06-2.06h-6.41c-0.79,0-1.52,0.46-1.86,1.17l-0.98,2.06L24,16.99c-0.21-0.89-0.96-1.53-1.87-1.59
				C22.09,15.4,22.04,15.4,21.99,15.4L21.99,15.4z"/>
		</g>
	</g>
</g>
</svg>
