<?xml version="1.0" encoding="utf-8"?>
<!-- Generator: Adobe Illustrator 19.0.0, SVG Export Plug-In . SVG Version: 6.00 Build 0)  -->
<svg version="1.1" id="Layer_1" xmlns="http://www.w3.org/2000/svg" xmlns:xlink="http://www.w3.org/1999/xlink" x="0px" y="0px"
	 viewBox="0 0 113.4 56.7" style="enable-background:new 0 0 113.4 56.7;" xml:space="preserve">
<style type="text/css">
	.st0{fill:none;}
	.st1{fill:#274A88;}
	.st2{fill:#EDEDF2;}
	.st3{fill:#DDDDDC;}
	.st4{fill:#FFFFFF;}
	.st5{fill:none;stroke:#000000;stroke-width:8.812200e-002;stroke-miterlimit:10;}
	.st6{fill:#C9B55E;}
	.st7{fill:none;stroke:#FFFFFF;stroke-width:0.25;stroke-miterlimit:10;}
	.st8{fill:#688DFF;}
	.st9{fill:#4A6DE5;}
	.st10{clip-path:url(#XMLID_3_);}
	.st11{clip-path:url(#XMLID_3_);fill:#DDDDDC;}
	.st12{fill:#C6C5C5;}
	.st13{fill:none;stroke:#7C6B2B;stroke-width:0.5;stroke-miterlimit:10;}
	.st14{fill:#474748;}
	.st15{fill:#FCCF54;}
	.st16{fill:#282828;}
	.st17{fill:#3F3F3F;stroke:#7C6B2B;stroke-width:0.5;stroke-miterlimit:10;}
	.st18{fill:#515151;}
	.st19{font-family:'Consolas';}
	.st20{font-size:3.75px;}
	.st21{font-family:'SegoeMDL2Assets';}
	.st22{font-size:4.5801px;}
</style>
<g id="XMLID_1_">
	<g id="XMLID_348_">
		<circle id="XMLID_355_" class="st0" cx="85.2" cy="0" r="3.2"/>
		<circle id="XMLID_354_" class="st0" cx="85.2" cy="56.7" r="3.2"/>
		<path id="XMLID_349_" class="st1" d="M-0.1,34l0,19.9c0,1.6,1.3,2.8,2.8,2.8l17.9,0c0,0,0,0,0,0c0-4.1,3.3-7.3,7.4-7.3
			c4.1,0,7.4,3.3,7.4,7.3c0,0,0,0,0,0l44.6,0c0,2.9,2.4,5.3,5.3,5.3c2.9,0,5.3-2.4,5.3-5.3l20,0c1.6,0,2.8-1.3,2.8-2.8V35.7
			c0,0,0,0,0,0c-4.1,0-7.3-3.3-7.3-7.4s3.3-7.4,7.3-7.4c0,0,0,0,0,0V2.8c0-1.6-1.3-2.8-2.8-2.8l-20,0c0-2.9-2.4-5.3-5.3-5.3
			C82.3-5.3,80-2.9,80,0L35.4,0c0,0,0,0,0,0.1c0,4.1-3.3,7.4-7.4,7.4c-4.1,0-7.4-3.3-7.4-7.4c0,0,0,0,0-0.1h-18
			C1.2,0-0.1,1.3-0.1,2.8l0,20.6c-2.9,0-5.3,2.4-5.3,5.3C-5.4,31.6-3,34-0.1,34z M83.6-2.8c2.9-1.5,5.9,1.4,4.4,4.4
			c-0.3,0.5-0.7,0.9-1.2,1.2c-2.9,1.5-5.9-1.4-4.4-4.4C82.7-2.1,83.1-2.5,83.6-2.8z M83.6,53.9c2.9-1.5,5.9,1.4,4.4,4.4
			c-0.3,0.5-0.7,0.9-1.2,1.2C83.9,61,81,58,82.4,55.1C82.7,54.6,83.1,54.2,83.6,53.9z M-0.1,25.5c1.8,0,3.2,1.4,3.2,3.2
			s-1.4,3.2-3.2,3.2s-3.2-1.4-3.2-3.2S-1.9,25.5-0.1,25.5z"/>
	</g>
	<g id="XMLID_342_">
		<g id="g3109_2_" transform="matrix(0 1.2499976 -1.2499976 0 1338.60444 1003.15358)">
			<g id="g33658-1_2_" transform="translate(-1.6000031,0)">
				<path id="path16826-7_2_" class="st2" d="M-767,1066.4h-3.6v-1.2l2.4,0v-7.2h-3.9v-1.2h1.3v-1.8h3.8V1066.4z"/>
				<path id="path16828-7_2_" class="st2" d="M-785.9,1066.4h-3.6V1055h3.8v1.8h1.3v1.2h-3.9v7.2h2.4V1066.4z"/>
				<path id="path16830-7_2_" class="st3" d="M-788.3,1058h3.9h12.2h3.9v7.2l-2.4,0h-15.4h-2.4L-788.3,1058L-788.3,1058z
					 M-772.1,1061v1.1h1.1v-1.1H-772.1z M-776.5,1062.2h1.1v-1.1h-1.1V1062.2z M-784.4,1062.2v-1.1h-1.1v1.1H-784.4z M-781.1,1061
					v1.1h1.1v-1.1H-781.1z"/>
				<path id="path16832-7_2_" class="st4" d="M-785.9,1066.4v-1.2h15.4v1.2H-785.9z"/>
				<path id="path16834-3_2_" class="st4" d="M-774.3,1056.8h2.2v1.2h-12.2v-1.2h2.2H-774.3L-774.3,1056.8z"/>
				<path id="path16836-3_2_" class="st2" d="M-774.3,1054.9v1.9h-7.8v-1.9C-782.2,1054.9-774.3,1054.9-774.3,1054.9z"/>
				<path id="path22220-2_2_" class="st5" d="M-770.6,1066.4"/>
				<path id="path22220-2_1_" class="st5" d="M-785.9,1066.4"/>
				<path id="path22246-8_2_" class="st5" d="M-788.3,1058"/>
				<path id="path22246-8_1_" class="st5" d="M-788.3,1065.2"/>
				<path id="path22248-0_2_" class="st5" d="M-788.3,1065.2"/>
				<path id="path22248-0_1_" class="st5" d="M-785.9,1065.2"/>
				<path id="path22250-1_2_" class="st5" d="M-785.9,1065.2"/>
				<path id="path22250-1_1_" class="st5" d="M-785.9,1066.4"/>
				<path id="path22252-2_2_" class="st5" d="M-789.5,1066.4"/>
				<path id="path22252-2_1_" class="st5" d="M-785.9,1066.4"/>
				<path id="path22276-4_2_" class="st5" d="M-785.7,1055"/>
				<path id="path22276-4_1_" class="st5" d="M-789.5,1055"/>
				<path id="path29510-1_2_" class="st5" d="M-789.5,1055"/>
				<path id="path29510-1_1_" class="st5" d="M-789.5,1066.4"/>
			</g>
			<path id="connector3pin_2_" class="st6" d="M-773.7,1061h1.1v1.1h-1.1V1061z"/>
			<path id="connector2pin_2_" class="st6" d="M-777,1062.2h-1.1v-1.1h1.1V1062.2z"/>
			<path id="connector1pin_2_" class="st6" d="M-781.5,1061v1.1h-1.1v-1.1H-781.5z"/>
			<path id="connector0pin_2_" class="st6" d="M-786,1061v1.1h-1.1v-1.1H-786z"/>
		</g>
	</g>
	<rect id="XMLID_341_" x="42.1" y="34.1" class="st7" width="20.8" height="20.8"/>
	<g id="XMLID_305_">
		<path id="XMLID_340_" class="st8" d="M61.9,54.4H43.1c-0.3,0-0.5-0.2-0.5-0.5V35.1c0-0.3,0.2-0.5,0.5-0.5h18.8
			c0.3,0,0.5,0.2,0.5,0.5v18.8C62.4,54.2,62.1,54.4,61.9,54.4z"/>
		<g id="XMLID_321_">
			<circle id="XMLID_337_" class="st9" cx="52.5" cy="44.5" r="6.7"/>
			<g id="XMLID_335_">
				<rect id="XMLID_336_" x="52.1" y="36" class="st9" width="0.8" height="3.6"/>
			</g>
			<g id="XMLID_333_">
				
					<rect id="XMLID_334_" x="48.7" y="36.9" transform="matrix(0.866 -0.5 0.5 0.866 -12.768 29.7376)" class="st9" width="0.8" height="3.6"/>
			</g>
			<g id="XMLID_330_">
				
					<rect id="XMLID_332_" x="46.2" y="39.4" transform="matrix(0.5 -0.866 0.866 0.5 -12.3209 60.9737)" class="st9" width="0.8" height="3.6"/>
				
					<rect id="XMLID_331_" x="57.9" y="46.1" transform="matrix(0.5 -0.866 0.866 0.5 -12.3209 74.4308)" class="st9" width="0.8" height="3.6"/>
			</g>
			<g id="XMLID_327_">
				<rect id="XMLID_329_" x="44" y="44.1" class="st9" width="3.6" height="0.8"/>
				<rect id="XMLID_328_" x="57.4" y="44.1" class="st9" width="3.6" height="0.8"/>
			</g>
			<g id="XMLID_324_">
				
					<rect id="XMLID_326_" x="46.2" y="46.1" transform="matrix(-0.5 -0.866 0.866 -0.5 28.4964 112.2235)" class="st9" width="0.8" height="3.6"/>
				
					<rect id="XMLID_325_" x="57.9" y="39.4" transform="matrix(-0.5 -0.866 0.866 -0.5 51.8048 112.2235)" class="st9" width="0.8" height="3.6"/>
			</g>
			<g id="XMLID_322_">
				
					<rect id="XMLID_323_" x="55.4" y="36.9" transform="matrix(-0.866 -0.5 0.5 -0.866 84.8438 100.1222)" class="st9" width="0.8" height="3.6"/>
			</g>
		</g>
		<g id="XMLID_310_">
			<defs>
				<circle id="XMLID_311_" cx="52.5" cy="44.5" r="5.8"/>
			</defs>
			<clipPath id="XMLID_3_">
				<use xlink:href="#XMLID_311_"  style="overflow:visible;"/>
			</clipPath>
			<g id="XMLID_314_" class="st10">
				<circle id="XMLID_318_" class="st4" cx="52.5" cy="44.5" r="5.8"/>
				<g id="XMLID_315_">
					<rect id="XMLID_317_" x="51.1" y="37.7" class="st3" width="2.8" height="13.6"/>
					<rect id="XMLID_316_" x="45.7" y="43.1" class="st3" width="13.6" height="2.8"/>
				</g>
			</g>
			<circle id="XMLID_313_" class="st11" cx="48.6" cy="40.3" r="0.9"/>
			<circle id="XMLID_312_" class="st11" cx="56.5" cy="40.3" r="0.9"/>
		</g>
		<circle id="XMLID_309_" class="st9" cx="45.1" cy="51.2" r="1.2"/>
		<circle id="XMLID_306_" class="st4" cx="45.1" cy="51.2" r="1"/>
	</g>
	<g id="XMLID_302_">
		<rect id="XMLID_304_" x="26.5" y="25.2" class="st12" width="2.5" height="4.9"/>
		<rect id="XMLID_303_" x="26.5" y="25.2" class="st13" width="2.5" height="4.9"/>
	</g>
	<rect id="XMLID_301_" x="27.1" y="25.7" class="st4" width="1.3" height="4.4"/>
	<g id="XMLID_298_">
		<rect id="XMLID_300_" x="30" y="25.2" class="st12" width="2.5" height="4.9"/>
		<rect id="XMLID_299_" x="30" y="25.2" class="st13" width="2.5" height="4.9"/>
	</g>
	<rect id="XMLID_297_" x="30.6" y="25.7" class="st4" width="1.3" height="4.4"/>
	<g id="XMLID_292_">
		<rect id="XMLID_296_" x="33.5" y="25.2" class="st12" width="2.5" height="4.9"/>
		<rect id="XMLID_295_" x="33.5" y="25.2" class="st13" width="2.5" height="4.9"/>
	</g>
	<rect id="XMLID_291_" x="34.1" y="25.7" class="st4" width="1.3" height="4.4"/>
	<g id="XMLID_288_">
		<rect id="XMLID_290_" x="37" y="25.2" class="st12" width="2.5" height="4.9"/>
		<rect id="XMLID_289_" x="37" y="25.2" class="st13" width="2.5" height="4.9"/>
	</g>
	<rect id="XMLID_286_" x="37.6" y="25.7" class="st4" width="1.3" height="4.4"/>
	<g id="XMLID_283_">
		<rect id="XMLID_285_" x="37" y="41.5" class="st12" width="2.5" height="4.9"/>
		<rect id="XMLID_284_" x="37" y="41.5" class="st13" width="2.5" height="4.9"/>
	</g>
	<rect id="XMLID_282_" x="37.6" y="41.5" class="st4" width="1.3" height="4.4"/>
	<g id="XMLID_277_">
		<rect id="XMLID_281_" x="33.5" y="41.5" class="st12" width="2.5" height="4.9"/>
		<rect id="XMLID_279_" x="33.5" y="41.5" class="st13" width="2.5" height="4.9"/>
	</g>
	<rect id="XMLID_276_" x="34.1" y="41.5" class="st4" width="1.3" height="4.4"/>
	<g id="XMLID_271_">
		<rect id="XMLID_274_" x="30" y="41.5" class="st12" width="2.5" height="4.9"/>
		<rect id="XMLID_273_" x="30" y="41.5" class="st13" width="2.5" height="4.9"/>
	</g>
	<rect id="XMLID_270_" x="30.6" y="41.5" class="st4" width="1.3" height="4.4"/>
	<g id="XMLID_264_">
		<rect id="XMLID_268_" x="26.5" y="41.5" class="st12" width="2.5" height="4.9"/>
		<rect id="XMLID_265_" x="26.5" y="41.5" class="st13" width="2.5" height="4.9"/>
	</g>
	<rect id="XMLID_263_" x="27.1" y="41.5" class="st4" width="1.3" height="4.4"/>
	<rect id="XMLID_262_" x="25.9" y="30.1" class="st14" width="14.4" height="11.4"/>
	<g id="XMLID_253_">
		<rect id="XMLID_261_" x="28" y="13.7" class="st7" width="4.2" height="9.7"/>
		<g id="XMLID_254_">
			<rect id="XMLID_258_" x="28.8" y="21.1" class="st4" width="2.6" height="1.4"/>
			<rect id="XMLID_257_" x="28.8" y="14.6" class="st4" width="2.6" height="1.4"/>
			<rect id="XMLID_256_" x="28.8" y="16" class="st15" width="2.6" height="5.2"/>
		</g>
	</g>
	<g id="XMLID_245_">
		<rect id="XMLID_252_" x="41.9" y="28" class="st7" width="8.8" height="4.2"/>
		<g id="XMLID_246_">
			<rect id="XMLID_251_" x="42.7" y="28.8" class="st4" width="1.2" height="2.6"/>
			<rect id="XMLID_249_" x="48.6" y="28.8" class="st4" width="1.2" height="2.6"/>
			<rect id="XMLID_248_" x="43.9" y="28.8" class="st15" width="4.7" height="2.6"/>
		</g>
	</g>
	<g id="XMLID_237_">
		<rect id="XMLID_244_" x="21.7" y="14.2" class="st7" width="5.6" height="9.7"/>
		<g id="XMLID_238_">
			<rect id="XMLID_242_" x="22.7" y="21.6" class="st4" width="3.5" height="1.4"/>
			<rect id="XMLID_241_" x="22.7" y="15.1" class="st4" width="3.5" height="1.4"/>
			<rect id="XMLID_240_" x="22.7" y="16.4" class="st15" width="3.5" height="5.2"/>
		</g>
	</g>
	<g id="XMLID_229_">
		<rect id="XMLID_236_" x="19.9" y="24.8" class="st7" width="5.6" height="9.7"/>
		<g id="XMLID_230_">
			<rect id="XMLID_234_" x="21" y="32.3" class="st4" width="3.5" height="1.4"/>
			<rect id="XMLID_233_" x="21" y="25.8" class="st4" width="3.5" height="1.4"/>
			<rect id="XMLID_232_" x="21" y="27.1" class="st15" width="3.5" height="5.2"/>
		</g>
	</g>
	<g id="XMLID_221_">
		<rect id="XMLID_228_" x="7.1" y="45.1" class="st7" width="9.7" height="5.6"/>
		<g id="XMLID_222_">
			<rect id="XMLID_226_" x="8" y="46.1" class="st4" width="1.4" height="3.5"/>
			<rect id="XMLID_225_" x="14.5" y="46.1" class="st4" width="1.4" height="3.5"/>
			<rect id="XMLID_224_" x="9.4" y="46.1" class="st15" width="5.2" height="3.5"/>
		</g>
	</g>
	<g id="XMLID_214_">
		<rect id="XMLID_220_" x="51.2" y="28.3" class="st7" width="8.4" height="3.6"/>
		<g id="XMLID_215_">
			<rect id="XMLID_218_" x="52" y="29" class="st4" width="1.2" height="2.3"/>
			<rect id="XMLID_217_" x="57.6" y="29" class="st4" width="1.2" height="2.3"/>
			<rect id="XMLID_216_" x="53.2" y="29" class="st14" width="4.5" height="2.3"/>
		</g>
	</g>
	<g id="XMLID_208_">
		<g id="XMLID_210_">
			<polygon id="XMLID_213_" class="st7" points="55.9,0.8 37.3,0.8 37.3,22.6 55.9,22.6 59.2,19.4 59.2,4 			"/>
		</g>
		<circle id="XMLID_209_" class="st7" cx="48.3" cy="11.7" r="10.2"/>
	</g>
	<g id="XMLID_201_">
		<g id="XMLID_203_">
			<rect id="XMLID_207_" x="32.9" y="8.8" class="st12" width="6.8" height="5.8"/>
			<rect id="XMLID_204_" x="32.9" y="8.8" class="st13" width="6.8" height="5.8"/>
		</g>
		<rect id="XMLID_202_" x="33.3" y="10.2" class="st4" width="6" height="3.1"/>
	</g>
	<g id="XMLID_192_">
		<g id="XMLID_196_">
			<rect id="XMLID_198_" x="56.8" y="8.8" class="st12" width="6.8" height="5.8"/>
			<rect id="XMLID_197_" x="56.8" y="8.8" class="st13" width="6.8" height="5.8"/>
		</g>
		<rect id="XMLID_195_" x="57.2" y="10.2" class="st4" width="6" height="3.1"/>
	</g>
	<g id="XMLID_183_">
		<path id="XMLID_186_" class="st16" d="M54.6,2.7H39.3v17.9h15.2l2.7-2.7V5.4L54.6,2.7z M43.3,18.5c-2.1-1.5-3.4-4-3.4-6.8
			s1.4-5.2,3.4-6.8 M43.3,5c1.4-1,3.1-1.6,4.9-1.6c4.6,0,8.4,3.8,8.4,8.4s-3.8,8.4-8.4,8.4c-1.9,0-3.6-0.6-4.9-1.6"/>
		<path id="XMLID_185_" d="M39.9,11.7c0,2.8,1.4,5.2,3.4,6.8V5C41.2,6.5,39.9,8.9,39.9,11.7z"/>
		<path id="XMLID_184_" class="st3" d="M48.3,3.3c-1.9,0-3.6,0.6-4.9,1.6v13.5c1.4,1,3.1,1.6,4.9,1.6c4.6,0,8.4-3.8,8.4-8.4
			S52.9,3.3,48.3,3.3z"/>
	</g>
	<g id="XMLID_175_">
		<rect id="XMLID_180_" x="5.9" y="3.4" class="st7" width="11.8" height="5.9"/>
		<rect id="XMLID_178_" x="12.5" y="4.4" class="st17" width="3.8" height="3.8"/>
		<circle id="XMLID_176_" class="st17" cx="8.6" cy="6.2" r="1.9"/>
	</g>
	<g id="XMLID_152_">
		<circle id="XMLID_173_" class="st16" cx="87.5" cy="26.9" r="25.3"/>
		<circle id="XMLID_168_" class="st4" cx="87.5" cy="26.9" r="24.3"/>
		<circle id="XMLID_166_" class="st18" cx="87.5" cy="26.9" r="17.5"/>
		<circle id="XMLID_165_" class="st16" cx="87.5" cy="26.9" r="6.8"/>
		<g id="XMLID_161_">
			<circle id="XMLID_164_" class="st16" cx="87.5" cy="12.9" r="2.5"/>
			<circle id="XMLID_162_" class="st16" cx="87.5" cy="40.9" r="2.5"/>
		</g>
		<g id="XMLID_157_">
			<circle id="XMLID_159_" class="st16" cx="75.4" cy="19.9" r="2.5"/>
			<circle id="XMLID_158_" class="st16" cx="99.6" cy="33.9" r="2.5"/>
		</g>
		<g id="XMLID_153_">
			<circle id="XMLID_155_" class="st16" cx="75.4" cy="33.9" r="2.5"/>
			<circle id="XMLID_154_" class="st16" cx="99.6" cy="19.9" r="2.5"/>
		</g>
	</g>
	<text id="XMLID_151_" transform="matrix(0 -1 1 0 4.4516 8.1246)" class="st4 st19 st20">J2</text>
	<text id="XMLID_150_" transform="matrix(0 -1 1 0 4.4516 42.4488)" class="st4 st19 st20">J1</text>
	<text id="XMLID_149_" transform="matrix(0 -1 1 0 24.485 44.523)" class="st4 st19 st20">U1</text>
	<text id="XMLID_148_" transform="matrix(0 -1 1 0 63.0988 6.3677)" class="st4 st19 st20">C7</text>
	<text id="XMLID_146_" transform="matrix(0 -1 1 0 31.4073 13.2818)" class="st4 st19 st20">C2</text>
	<text id="XMLID_143_" transform="matrix(0 -1 1 0 26.2363 13.2818)" class="st4 st19 st20">C3</text>
	<text id="XMLID_124_" transform="matrix(1 0 0 1 2.0461 50.034)" class="st4 st19 st20">C6</text>
	<text id="XMLID_123_" transform="matrix(1 0 0 1 20.9816 37.7926)" class="st4 st19 st20">C1</text>
	<text id="XMLID_122_" transform="matrix(1 0 0 1 44.6066 27.1228)" class="st4 st19 st20">C5</text>
	<text id="XMLID_121_" transform="matrix(1 0 0 1 62.8673 51.8045)" class="st4 st19 st20">R1</text>
	<text id="XMLID_120_" transform="matrix(1 0 0 1 53.5548 27.1229)" class="st4 st19 st20">R2</text>
	<text id="XMLID_119_" transform="matrix(1 0 0 1 18.8283 8.832)" class="st4 st21 st22"></text>
</g>
</svg>
