<?xml version="1.0" encoding="utf-8"?>
<!-- Generator: Adobe Illustrator 24.3.0, SVG Export Plug-In . SVG Version: 6.00 Build 0)  -->
<svg version="1.1" id="Layer_1" xmlns="http://www.w3.org/2000/svg" xmlns:xlink="http://www.w3.org/1999/xlink" x="0px" y="0px"
	 viewBox="0 0 65.8 56.7" style="enable-background:new 0 0 65.8 56.7;" xml:space="preserve">
<style type="text/css">
	.st0{fill:#274A88;}
	.st1{fill:none;stroke:#FFFFFF;stroke-width:0.5;stroke-miterlimit:10;}
	.st2{fill:#7C6B2B;}
	.st3{fill:#040202;}
	.st4{fill:#3A3011;}
	.st5{fill:#FFFFFF;}
	.st6{fill:#EDEDF2;}
	.st7{fill:#3A3A3A;}
	.st8{fill:#DDDDDC;}
	.st9{fill:#474748;}
	.st10{fill:#D3D3D3;}
	.st11{fill:#282828;}
	.st12{font-family:'ArialMT';}
	.st13{font-size:4px;}
	.st14{fill:none;stroke:#000000;stroke-width:0.1721;stroke-miterlimit:19.5312;}
	.st15{fill:#C9B55E;}
</style>
<path id="rect2992" class="st0" d="M0,28.3c0,2.5,2,4.5,4.5,4.5v21.6c0,1.3,1,2.3,2.3,2.3h21.6c0-2.5,2-4.5,4.5-4.5s4.5,2,4.5,4.5
	H59c1.3,0,2.3-1,2.3-2.3V32.8c2.5,0,4.5-2,4.5-4.5s-2-4.5-4.5-4.5V2.3C61.3,1,60.3,0,59,0H37.3c0,2.5-2,4.5-4.5,4.5s-4.5-2-4.5-4.5
	H6.7C5.5,0,4.5,1,4.5,2.3v21.6C2,23.9,0,25.9,0,28.3z M1.9,28.3c0-1.4,1.2-2.6,2.6-2.6s2.6,1.2,2.6,2.6s-1.2,2.6-2.6,2.6
	S1.9,29.8,1.9,28.3z M58.6,28.3c0-1.4,1.1-2.6,2.6-2.6s2.6,1.2,2.6,2.6s-1.2,2.6-2.6,2.6S58.6,29.8,58.6,28.3z"/>
<g>
	<path class="st1" d="M47.1,0.7v31.5c0,0.1-0.1,0.2-0.2,0.2H19.3c-0.1,0-0.1-0.1-0.1-0.2V0.7c0-0.1,0.1-0.2,0.1-0.2h27.6
		C47,0.5,47.1,0.6,47.1,0.7z"/>
	<g>
		<circle class="st2" cx="25.7" cy="35.5" r="3.2"/>
		<circle class="st3" cx="25.7" cy="35.5" r="2.7"/>
		<circle class="st4" cx="25.7" cy="35.5" r="2.5"/>
	</g>
	<g>
		<circle class="st2" cx="32.8" cy="35.5" r="3.2"/>
		<circle class="st3" cx="32.8" cy="35.5" r="2.7"/>
		<circle class="st4" cx="32.8" cy="35.5" r="2.5"/>
	</g>
	<g>
		<circle class="st2" cx="39.9" cy="35.5" r="3.2"/>
		<circle class="st3" cx="39.9" cy="35.5" r="2.7"/>
		<circle class="st4" cx="39.9" cy="35.5" r="2.5"/>
	</g>
	<g>
		<path class="st2" d="M14.4,18.5v-6c0-2.5,2-4.5,4.5-4.5l0,0v15l0,0C16.4,23,14.4,21,14.4,18.5z"/>
		<path class="st5" d="M15.4,18.3v-5.5c0-1.9,1.5-3.5,3.5-3.5l0,0v12.4l0,0C17,21.7,15.4,20.2,15.4,18.3z"/>
	</g>
	<g>
		<path class="st2" d="M51.1,12.5v6c0,2.5-2,4.5-4.5,4.5l0,0V8.1l0,0C49.1,8.1,51.1,10.1,51.1,12.5z"/>
		<path class="st5" d="M50.1,12.8v5.5c0,1.9-1.5,3.5-3.5,3.5l0,0V9.3l0,0C48.5,9.3,50.1,10.9,50.1,12.8z"/>
	</g>
	<path class="st6" d="M27.8,35.4v-1.9h-4.1v1.9c0,0.6,0.4,1,1,1h2.1C27.4,36.4,27.8,36,27.8,35.4z"/>
	<path class="st6" d="M34.9,35.4v-1.9h-4.1v1.9c0,0.6,0.4,1,1,1h2.1C34.5,36.4,34.9,36,34.9,35.4z"/>
	<path class="st6" d="M42,35.4v-1.9h-4.1v1.9c0,0.6,0.4,1,1,1H41C41.5,36.4,42,36,42,35.4z"/>
	<path class="st7" d="M45.2,0v30.7c0,1.5-1.2,2.8-2.8,2.8H23c-1.5,0-2.8-1.2-2.8-2.8V0H45.2z"/>
	<path class="st8" d="M46.6,1.4v28.2c0,0.8-0.6,1.4-1.4,1.4H20.3c-0.8,0-1.4-0.6-1.4-1.4V1.4c0-0.8,0.6-1.4,1.4-1.4h24.9
		C46,0,46.6,0.6,46.6,1.4z"/>
	<circle class="st9" cx="22.1" cy="3.2" r="2.2"/>
	<circle class="st9" cx="43.4" cy="27.8" r="2.2"/>
	<circle class="st10" cx="32.8" cy="15.5" r="7.9"/>
	<circle class="st9" cx="32.8" cy="15.5" r="7.5"/>
	<circle class="st11" cx="43.4" cy="27.8" r="1.9"/>
	<circle class="st11" cx="22.1" cy="3.2" r="1.9"/>
	<polygon class="st11" points="26.3,15.5 26.5,15.3 26.3,15 26.6,14.7 26.4,14.4 26.7,14.2 26.5,13.9 26.8,13.7 26.6,13.4 27,13.2 
		26.8,12.8 27.2,12.7 27.1,12.4 27.5,12.3 27.4,11.9 27.7,11.8 27.7,11.4 28.1,11.4 28.1,11 28.4,11 28.4,10.6 28.8,10.7 28.9,10.3 
		29.2,10.3 29.3,10 29.7,10.1 29.8,9.7 30.2,9.8 30.3,9.5 30.6,9.6 30.8,9.3 31.1,9.4 31.3,9.1 31.7,9.3 31.9,9 32.2,9.3 32.4,9 
		32.7,9.2 33,8.9 33.2,9.2 33.5,9 33.8,9.3 34.1,9.1 34.3,9.4 34.6,9.2 34.8,9.5 35.1,9.4 35.3,9.7 35.6,9.6 35.8,9.9 36.1,9.8 
		36.2,10.2 36.6,10.1 36.7,10.5 37,10.5 37.1,10.8 37.4,10.8 37.4,11.2 37.8,11.2 37.8,11.6 38.2,11.7 38.1,12 38.5,12.1 38.4,12.5 
		38.7,12.6 38.6,13 39,13.1 38.8,13.4 39.1,13.6 38.9,14 39.3,14.2 39.1,14.5 39.4,14.7 39.1,15 39.4,15.2 39.1,15.5 39.4,15.8 
		39.1,16 39.4,16.3 39.1,16.6 39.3,16.9 38.9,17.1 39.1,17.4 38.8,17.6 39,17.9 38.6,18.1 38.7,18.4 38.4,18.6 38.5,18.9 38.1,19 
		38.2,19.4 37.8,19.4 37.8,19.8 37.4,19.8 37.4,20.2 37.1,20.2 37,20.6 36.7,20.5 36.6,20.9 36.2,20.8 36.1,21.2 35.8,21.1 
		35.6,21.5 35.3,21.3 35.1,21.7 34.8,21.5 34.6,21.8 34.3,21.7 34.1,22 33.8,21.8 33.5,22.1 33.2,21.8 33,22.1 32.7,21.8 32.4,22.1 
		32.2,21.8 31.9,22 31.7,21.7 31.3,21.9 31.1,21.6 30.8,21.8 30.6,21.4 30.3,21.6 30.2,21.2 29.8,21.3 29.7,21 29.3,21.1 29.2,20.7 
		28.9,20.8 28.8,20.4 28.4,20.4 28.4,20 28.1,20 28.1,19.6 27.7,19.6 27.7,19.2 27.4,19.2 27.5,18.8 27.1,18.7 27.2,18.3 26.8,18.2 
		27,17.8 26.6,17.7 26.8,17.3 26.5,17.2 26.7,16.8 26.4,16.6 26.6,16.3 26.3,16.1 26.5,15.8 	"/>
	<circle class="st7" cx="32.8" cy="15.5" r="5.8"/>
	<path class="st11" d="M37,18.5l-1.2,1.2c-0.1,0.1-0.2,0.1-0.2,0l-6.9-6.9c-0.1-0.1-0.1-0.2,0-0.2l1.2-1.2c0.1-0.1,0.2-0.1,0.2,0
		l6.9,6.9C37.1,18.3,37.1,18.4,37,18.5z"/>
	<text transform="matrix(6.123234e-17 -1 1 6.123234e-17 13.1353 25.6578)" class="st5 st12 st13">ROTATION</text>
	<text transform="matrix(6.123234e-17 -1 1 6.123234e-17 16.6565 48.6578)" class="st5 st12 st13">J1</text>
</g>
<g id="XMLID_98_">
	<g id="g3109_1_" transform="matrix(0 1.2499976 -1.2499976 0 1338.60444 1003.15358)">
		<g id="g33658-1_1_" transform="translate(-1.6000031,0)">
			<path id="path16826-7_1_" class="st6" d="M-758.7,1033.3v3.6h-1.2v-2.4h-7.2v3.9h-1.2v-1.3h-1.8v-3.8L-758.7,1033.3
				L-758.7,1033.3z"/>
			<path id="path16828-7_1_" class="st6" d="M-758.7,1052.3v3.6h-11.4v-3.8h1.8v-1.3h1.2v3.9h7.2v-2.4L-758.7,1052.3L-758.7,1052.3z
				"/>
			<path id="path16832-7_1_" class="st5" d="M-758.7,1052.3h-1.2v-15.4h1.2V1052.3z"/>
			<path id="path16834-3_1_" class="st5" d="M-768.3,1040.6v-2.2h1.2v12.4h-1.2v-2.2V1040.6L-768.3,1040.6z"/>
			<path id="path16836-3_1_" class="st6" d="M-770.2,1040.7h1.9v7.8h-1.9V1040.7z"/>
			<path id="path22220-2_4_" class="st14" d="M-758.7,1036.9"/>
			<path id="path22220-2_3_" class="st14" d="M-758.7,1052.3"/>
			<path id="path22246-8_4_" class="st14" d="M-767.1,1054.6"/>
			<path id="path22246-8_3_" class="st14" d="M-759.9,1054.6"/>
			<path id="path22248-0_4_" class="st14" d="M-759.9,1054.6"/>
			<path id="path22248-0_3_" class="st14" d="M-759.9,1052.3"/>
			<path id="path22250-1_4_" class="st14" d="M-759.9,1052.3"/>
			<path id="path22250-1_3_" class="st14" d="M-758.7,1052.3"/>
			<path id="path22252-2_4_" class="st14" d="M-758.7,1055.9"/>
			<path id="path22252-2_3_" class="st14" d="M-758.7,1052.3"/>
			<path id="path22276-4_4_" class="st14" d="M-770.1,1052.1"/>
			<path id="path22276-4_3_" class="st14" d="M-770.1,1055.9"/>
			<path id="path29510-1_4_" class="st14" d="M-770.1,1055.9"/>
			<path id="path29510-1_3_" class="st14" d="M-758.7,1055.9"/>
			
				<rect x="-776.2" y="1040.1" transform="matrix(-1 -1.224647e-16 1.224647e-16 -1 -1527.0802 2089.1306)" class="st8" width="25.2" height="9"/>
		</g>
		<path id="connector3pin_1_" class="st15" d="M-765.7,1038.4v-1.1h1.1v1.1H-765.7z"/>
		<path id="connector2pin_1_" class="st15" d="M-764.5,1041.8v1.1h-1.1v-1.1H-764.5z"/>
		<path id="connector1pin_1_" class="st15" d="M-765.7,1046.3h1.1v1.1h-1.1V1046.3z"/>
		<path id="connector0pin_1_" class="st15" d="M-765.7,1050.8h1.1v1.1h-1.1V1050.8z"/>
	</g>
</g>
</svg>
