<?xml version="1.0" encoding="utf-8"?>
<!-- Generator: Adobe Illustrator 24.3.0, SVG Export Plug-In . SVG Version: 6.00 Build 0)  -->
<svg version="1.1" id="Layer_1" xmlns:xml="http://www.w3.org/XML/1998/namespace"
	 xmlns="http://www.w3.org/2000/svg" xmlns:xlink="http://www.w3.org/1999/xlink" x="0px" y="0px" viewBox="0 0 176.4 72"
	 style="enable-background:new 0 0 176.4 72;" xml:space="preserve">
<style type="text/css">
	.st0{fill:#014CB1;}
	.st1{fill:#FFFFFF;}
	.st2{font-family:'ArialMT';}
	.st3{font-size:2.6726px;}
	.st4{font-size:3.3408px;}
	.st5{fill:none;stroke:#FFFFFF;stroke-width:0.864;stroke-linecap:round;}
	.st6{fill:none;stroke:#FFFFFF;stroke-width:0.432;stroke-linecap:round;}
	.st7{fill:none;stroke:#FFFFFF;stroke-width:0.432;}
	.st8{fill:none;stroke:#FFFFFF;stroke-width:0.576;stroke-linecap:round;}
	.st9{fill:none;stroke:#FFFFFF;stroke-width:0.576;}
	.st10{fill:none;stroke:#FFFFFF;stroke-width:0.864;}
	.st11{fill:#9A916C;}
	.st12{fill:none;stroke:#9A916C;stroke-width:1.116;}
	.st13{fill:none;stroke:#9A916C;stroke-width:1.6787;}
	.st14{fill:none;stroke:#9A916C;stroke-width:1.1027;}
	.st15{fill:none;stroke:#9A916C;stroke-width:1.08;}
	.st16{fill:none;stroke:#9A916C;stroke-width:1.44;}
	.st17{fill:#DCDCDC;}
	.st18{fill:#6E554B;}
	.st19{fill:#0C3878;}
	.st20{fill:#015DD9;}
	.st21{fill:#B4B4B4;}
	.st22{fill:#8C8C8C;}
	.st23{fill:#646464;}
	.st24{fill:#404040;}
	.st25{fill:#8D8C8C;}
	.st26{fill:#8D8455;}
	.st27{fill:#8C8663;}
	.st28{fill:#B8AF82;}
	.st29{fill:#80795B;}
	.st30{fill:#5E5B43;}
	.st31{fill:#00FF00;}
	.st32{fill:#00B400;}
	.st33{fill:#333333;}
	.st34{fill:#303030;}
</style>
<desc>
	<referenceFile>Adafruit 16-Channel 12-bit PWM Servo Driver - I2C_breadboard.svg</referenceFile>
</desc>
<desc>Fritzing breadboard generated by brd2svg</desc>
<g id="breadboard">
	<g id="icon">
		<path class="st0" d="M9,72c-5,0-9-4-9-9V9c0-5,4-9,9-9h158.4c5,0,9,4,9,9v54c0,5-4,9-9,9H9 M37.4,11.9c0,0.6,0.5,1.2,1.2,1.2
			s1.2-0.5,1.2-1.2s-0.5-1.2-1.2-1.2S37.4,11.2,37.4,11.9z M27.3,11.9c0,0.6,0.5,1.2,1.2,1.2s1.2-0.5,1.2-1.2c0,0,0,0,0,0
			c0-0.6-0.5-1.2-1.2-1.2S27.3,11.2,27.3,11.9z M81.7,10.8c0,0.8,0.6,1.4,1.4,1.4c0.8,0,1.4-0.6,1.4-1.4s-0.6-1.4-1.4-1.4
			S81.7,10,81.7,10.8z M91.6,10.8c0,0.8,0.6,1.4,1.4,1.4c0.8,0,1.4-0.6,1.4-1.4S93.8,9.4,93,9.4S91.6,10,91.6,10.8z M76,53.6
			c0,0.8,0.6,1.4,1.4,1.4c0.8,0,1.4-0.6,1.4-1.4l0,0c0-0.8-0.6-1.4-1.4-1.4C76.6,52.2,76,52.9,76,53.6z M76,60.8
			c0,0.8,0.6,1.4,1.4,1.4c0.8,0,1.4-0.6,1.4-1.4s-0.6-1.4-1.4-1.4C76.6,59.4,76,60.1,76,60.8z M76,68c0,0.8,0.6,1.4,1.4,1.4
			c0.8,0,1.4-0.6,1.4-1.4s-0.6-1.4-1.4-1.4C76.6,66.6,76,67.3,76,68z M68.8,53.6c0,0.8,0.6,1.4,1.4,1.4c0.8,0,1.4-0.6,1.4-1.4l0,0
			c0-0.8-0.6-1.4-1.4-1.4C69.4,52.2,68.8,52.9,68.8,53.6z M68.8,60.8c0,0.8,0.6,1.4,1.4,1.4c0.8,0,1.4-0.6,1.4-1.4s-0.6-1.4-1.4-1.4
			C69.4,59.4,68.8,60.1,68.8,60.8z M68.8,68c0,0.8,0.6,1.4,1.4,1.4c0.8,0,1.4-0.6,1.4-1.4s-0.6-1.4-1.4-1.4
			C69.4,66.6,68.8,67.3,68.8,68z M61.6,53.6c0,0.8,0.6,1.4,1.4,1.4c0.8,0,1.4-0.6,1.4-1.4l0,0c0-0.8-0.6-1.4-1.4-1.4
			S61.6,52.9,61.6,53.6z M61.6,60.8c0,0.8,0.6,1.4,1.4,1.4c0.8,0,1.4-0.6,1.4-1.4l0,0c0-0.8-0.6-1.4-1.4-1.4S61.6,60.1,61.6,60.8z
			 M61.6,68c0,0.8,0.6,1.4,1.4,1.4c0.8,0,1.4-0.6,1.4-1.4s-0.6-1.4-1.4-1.4S61.6,67.3,61.6,68z M54.4,53.6c0,0.8,0.6,1.4,1.4,1.4
			c0.8,0,1.4-0.6,1.4-1.4l0,0c0-0.8-0.6-1.4-1.4-1.4S54.4,52.9,54.4,53.6z M54.4,60.8c0,0.8,0.6,1.4,1.4,1.4c0.8,0,1.4-0.6,1.4-1.4
			l0,0c0-0.8-0.6-1.4-1.4-1.4S54.4,60.1,54.4,60.8z M54.4,68c0,0.8,0.6,1.4,1.4,1.4c0.8,0,1.4-0.6,1.4-1.4s-0.6-1.4-1.4-1.4
			S54.4,67.3,54.4,68z M40,53.6c0,0.8,0.6,1.4,1.4,1.4c0.8,0,1.4-0.6,1.4-1.4l0,0c0-0.8-0.6-1.4-1.4-1.4S40,52.9,40,53.6z M40,60.8
			c0,0.8,0.6,1.4,1.4,1.4c0.8,0,1.4-0.6,1.4-1.4l0,0c0-0.8-0.6-1.4-1.4-1.4S40,60.1,40,60.8z M40,68c0,0.8,0.6,1.4,1.4,1.4
			c0.8,0,1.4-0.6,1.4-1.4s-0.6-1.4-1.4-1.4S40,67.3,40,68z M32.8,53.6c0,0.8,0.6,1.4,1.4,1.4s1.4-0.6,1.4-1.4l0,0
			c0-0.8-0.6-1.4-1.4-1.4S32.8,52.9,32.8,53.6z M32.8,60.8c0,0.8,0.6,1.4,1.4,1.4s1.4-0.6,1.4-1.4s-0.6-1.4-1.4-1.4
			S32.8,60.1,32.8,60.8z M32.8,68c0,0.8,0.6,1.4,1.4,1.4s1.4-0.6,1.4-1.4s-0.6-1.4-1.4-1.4S32.8,67.3,32.8,68z M25.6,53.6
			c0,0.8,0.6,1.4,1.4,1.4c0.8,0,1.4-0.6,1.4-1.4l0,0c0-0.8-0.6-1.4-1.4-1.4C26.2,52.2,25.6,52.9,25.6,53.6z M25.6,60.8
			c0,0.8,0.6,1.4,1.4,1.4c0.8,0,1.4-0.6,1.4-1.4l0,0c0-0.8-0.6-1.4-1.4-1.4C26.2,59.4,25.6,60.1,25.6,60.8z M25.6,68
			c0,0.8,0.6,1.4,1.4,1.4c0.8,0,1.4-0.6,1.4-1.4s-0.6-1.4-1.4-1.4S25.6,67.3,25.6,68z M18.4,53.6c0,0.8,0.6,1.4,1.4,1.4
			c0.8,0,1.4-0.6,1.4-1.4l0,0c0-0.8-0.6-1.4-1.4-1.4C19,52.2,18.4,52.9,18.4,53.6z M18.4,60.8c0,0.8,0.6,1.4,1.4,1.4
			c0.8,0,1.4-0.6,1.4-1.4l0,0c0-0.8-0.6-1.4-1.4-1.4C19,59.4,18.4,60.1,18.4,60.8z M18.4,68c0,0.8,0.6,1.4,1.4,1.4
			c0.8,0,1.4-0.6,1.4-1.4s-0.6-1.4-1.4-1.4C19,66.6,18.4,67.3,18.4,68z M4,53.6c0,0.8,0.6,1.4,1.4,1.4s1.4-0.6,1.4-1.4
			s-0.6-1.4-1.4-1.4S4,52.8,4,53.6L4,53.6z M4,46.4c0,0.8,0.6,1.4,1.4,1.4s1.4-0.6,1.4-1.4S6.2,45,5.4,45S4,45.6,4,46.4z M4,39.2
			c0,0.8,0.6,1.4,1.4,1.4s1.4-0.6,1.4-1.4s-0.6-1.4-1.4-1.4S4,38.4,4,39.2z M4,32c0,0.8,0.6,1.4,1.4,1.4s1.4-0.6,1.4-1.4
			c0-0.8-0.6-1.4-1.4-1.4S4,31.2,4,32z M4,24.8c0,0.8,0.6,1.4,1.4,1.4s1.4-0.6,1.4-1.4s-0.6-1.4-1.4-1.4S4,24,4,24.8z M4,17.6
			c0,0.8,0.6,1.4,1.4,1.4s1.4-0.6,1.4-1.4s-0.6-1.4-1.4-1.4S4,16.8,4,17.6z M169.6,53.6c0,0.8,0.6,1.4,1.4,1.4
			c0.8,0,1.4-0.6,1.4-1.4s-0.6-1.4-1.4-1.4C170.2,52.2,169.6,52.8,169.6,53.6L169.6,53.6z M169.6,46.4c0,0.8,0.6,1.4,1.4,1.4
			c0.8,0,1.4-0.6,1.4-1.4S171.8,45,171,45C170.2,45,169.6,45.6,169.6,46.4L169.6,46.4z M169.6,39.2c0,0.8,0.6,1.4,1.4,1.4
			c0.8,0,1.4-0.6,1.4-1.4s-0.6-1.4-1.4-1.4C170.2,37.8,169.6,38.4,169.6,39.2z M169.6,32c0,0.8,0.6,1.4,1.4,1.4
			c0.8,0,1.4-0.6,1.4-1.4s-0.6-1.4-1.4-1.4C170.2,30.6,169.6,31.2,169.6,32L169.6,32z M169.6,24.8c0,0.8,0.6,1.4,1.4,1.4
			c0.8,0,1.4-0.6,1.4-1.4s-0.6-1.4-1.4-1.4C170.2,23.4,169.6,24,169.6,24.8L169.6,24.8z M169.6,17.6c0,0.8,0.6,1.4,1.4,1.4
			c0.8,0,1.4-0.6,1.4-1.4s-0.6-1.4-1.4-1.4C170.2,16.2,169.6,16.8,169.6,17.6L169.6,17.6z M155.2,53.6c0,0.8,0.6,1.4,1.4,1.4
			s1.4-0.6,1.4-1.4l0,0c0-0.8-0.6-1.4-1.4-1.4S155.2,52.9,155.2,53.6z M155.2,60.8c0,0.8,0.6,1.4,1.4,1.4s1.4-0.6,1.4-1.4l0,0
			c0-0.8-0.6-1.4-1.4-1.4S155.2,60.1,155.2,60.8z M155.2,68c0,0.8,0.6,1.4,1.4,1.4s1.4-0.6,1.4-1.4s-0.6-1.4-1.4-1.4
			S155.2,67.3,155.2,68z M148,53.6c0,0.8,0.6,1.4,1.4,1.4s1.4-0.6,1.4-1.4l0,0c0-0.8-0.6-1.4-1.4-1.4S148,52.9,148,53.6z M148,60.8
			c0,0.8,0.6,1.4,1.4,1.4s1.4-0.6,1.4-1.4l0,0c0-0.8-0.6-1.4-1.4-1.4S148,60.1,148,60.8z M148,68c0,0.8,0.6,1.4,1.4,1.4
			s1.4-0.6,1.4-1.4s-0.6-1.4-1.4-1.4S148,67.3,148,68z M140.8,53.6c0,0.8,0.6,1.4,1.4,1.4s1.4-0.6,1.4-1.4l0,0
			c0-0.8-0.6-1.4-1.4-1.4S140.8,52.9,140.8,53.6z M140.8,60.8c0,0.8,0.6,1.4,1.4,1.4s1.4-0.6,1.4-1.4l0,0c0-0.8-0.6-1.4-1.4-1.4
			S140.8,60.1,140.8,60.8z M140.8,68c0,0.8,0.6,1.4,1.4,1.4s1.4-0.6,1.4-1.4s-0.6-1.4-1.4-1.4S140.8,67.3,140.8,68z M133.6,53.6
			c0,0.8,0.6,1.4,1.4,1.4s1.4-0.6,1.4-1.4l0,0c0-0.8-0.6-1.4-1.4-1.4S133.6,52.9,133.6,53.6z M133.6,60.8c0,0.8,0.6,1.4,1.4,1.4
			s1.4-0.6,1.4-1.4l0,0c0-0.8-0.6-1.4-1.4-1.4S133.6,60.1,133.6,60.8z M133.6,68c0,0.8,0.6,1.4,1.4,1.4s1.4-0.6,1.4-1.4
			s-0.6-1.4-1.4-1.4S133.6,67.3,133.6,68z M119.2,53.6c0,0.8,0.6,1.4,1.4,1.4c0.8,0,1.4-0.6,1.4-1.4l0,0c0-0.8-0.6-1.4-1.4-1.4
			S119.2,52.9,119.2,53.6z M119.2,60.8c0,0.8,0.6,1.4,1.4,1.4c0.8,0,1.4-0.6,1.4-1.4s-0.6-1.4-1.4-1.4S119.2,60.1,119.2,60.8z
			 M119.2,68c0,0.8,0.6,1.4,1.4,1.4c0.8,0,1.4-0.6,1.4-1.4s-0.6-1.4-1.4-1.4S119.2,67.3,119.2,68z M112,53.6c0,0.8,0.6,1.4,1.4,1.4
			c0.8,0,1.4-0.6,1.4-1.4l0,0c0-0.8-0.6-1.4-1.4-1.4C112.6,52.2,112,52.9,112,53.6z M112,60.8c0,0.8,0.6,1.4,1.4,1.4
			c0.8,0,1.4-0.6,1.4-1.4s-0.6-1.4-1.4-1.4C112.6,59.4,112,60.1,112,60.8z M112,68c0,0.8,0.6,1.4,1.4,1.4c0.8,0,1.4-0.6,1.4-1.4
			s-0.6-1.4-1.4-1.4C112.6,66.6,112,67.3,112,68z M104.8,53.6c0,0.8,0.6,1.4,1.4,1.4c0.8,0,1.4-0.6,1.4-1.4l0,0
			c0-0.8-0.6-1.4-1.4-1.4S104.8,52.9,104.8,53.6z M104.8,60.8c0,0.8,0.6,1.4,1.4,1.4c0.8,0,1.4-0.6,1.4-1.4s-0.6-1.4-1.4-1.4
			S104.8,60.1,104.8,60.8z M104.8,68c0,0.8,0.6,1.4,1.4,1.4c0.8,0,1.4-0.6,1.4-1.4s-0.6-1.4-1.4-1.4S104.8,67.3,104.8,68z
			 M97.6,53.6c0,0.8,0.6,1.4,1.4,1.4c0.8,0,1.4-0.6,1.4-1.4l0,0c0-0.8-0.6-1.4-1.4-1.4S97.6,52.9,97.6,53.6z M97.6,60.8
			c0,0.8,0.6,1.4,1.4,1.4c0.8,0,1.4-0.6,1.4-1.4s-0.6-1.4-1.4-1.4C98.2,59.4,97.6,60.1,97.6,60.8z M97.6,68c0,0.8,0.6,1.4,1.4,1.4
			c0.8,0,1.4-0.6,1.4-1.4s-0.6-1.4-1.4-1.4C98.2,66.6,97.6,67.3,97.6,68z M5.5,9c0,2,1.6,3.5,3.5,3.5S12.5,11,12.5,9c0,0,0,0,0,0
			c0-2-1.6-3.5-3.5-3.5C7,5.4,5.5,7,5.5,9C5.5,9,5.5,9,5.5,9z M5.5,63c0,2,1.6,3.5,3.5,3.5c2,0,3.5-1.6,3.5-3.5c0,0,0,0,0,0
			c0-2-1.6-3.5-3.5-3.5S5.5,61,5.5,63C5.5,63,5.5,63,5.5,63z M163.9,9c0,2,1.6,3.5,3.5,3.6s3.5-1.6,3.5-3.5c0,0,0,0,0,0
			c0-2-1.6-3.5-3.5-3.6C165.5,5.4,163.9,7,163.9,9C163.9,9,163.9,9,163.9,9z M163.9,63c0,2,1.6,3.5,3.5,3.6s3.5-1.6,3.5-3.5
			c0,0,0,0,0,0c0-2-1.6-3.5-3.5-3.5S163.9,61,163.9,63C163.9,63,163.9,63,163.9,63z"/>
		<g>
			<g>
				<g transform="matrix(1 0 0 1 149.4 14.76)">
					<g>
						<text transform="matrix(1 0 0 1 0 9.765625e-06)" class="st1 st2 st3">A0</text>
					</g>
				</g>
			</g>
			<g>
				<g transform="matrix(1 0 0 1 142.2 14.76)">
					<g>
						<text transform="matrix(1 0 0 1 1.520703e-05 9.765625e-06)" class="st1 st2 st3">A1</text>
					</g>
				</g>
			</g>
			<g>
				<g transform="matrix(1 0 0 1 135 14.76)">
					<g>
						<text transform="matrix(1 0 0 1 0 9.765625e-06)" class="st1 st2 st3">A2</text>
					</g>
				</g>
			</g>
			<g>
				<g transform="matrix(1 0 0 1 127.8 14.76)">
					<g>
						<text transform="matrix(1 0 0 1 1.531055e-05 9.765625e-06)" class="st1 st2 st3">A3</text>
					</g>
				</g>
			</g>
			<g>
				<g transform="matrix(1 0 0 1 120.6 14.76)">
					<g>
						<text transform="matrix(1 0 0 1 8.103516e-06 9.765625e-06)" class="st1 st2 st3">A4</text>
					</g>
				</g>
			</g>
			<g>
				<g transform="matrix(1 0 0 1 113.4 14.76)">
					<g>
						<text transform="matrix(1 0 0 1 7.155274e-06 9.765625e-06)" class="st1 st2 st3">A5</text>
					</g>
				</g>
			</g>
			<g>
				<g transform="matrix(1 0 0 1 85.2746 62.28)">
					<g>
						<text class="st1 st2 st4">V+</text>
					</g>
				</g>
			</g>
			<g>
				<g transform="matrix(1 0 0 1 83.8346 69.48)">
					<g>
						<text transform="matrix(1 0 0 1 7.985352e-06 7.986328e-06)" class="st1 st2 st4">GND</text>
					</g>
				</g>
			</g>
			<g>
				<g transform="matrix(1 0 0 1 98.5946 49.32)">
					<g>
						<text transform="matrix(1 0 0 1 7.492188e-06 7.324219e-06)" class="st1 st2 st3">8</text>
					</g>
				</g>
			</g>
			<g>
				<g transform="matrix(1 0 0 1 105.075 49.32)">
					<g>
						<text transform="matrix(1 0 0 1 1.520703e-05 7.324219e-06)" class="st1 st2 st3">9</text>
					</g>
				</g>
			</g>
			<g>
				<g transform="matrix(1 0 0 1 111.195 49.32)">
					<g>
						<text transform="matrix(1 0 0 1 7.324219e-06 7.324219e-06)" class="st1 st2 st3">10</text>
					</g>
				</g>
			</g>
			<g>
				<g transform="matrix(1 0 0 1 118.395 49.32)">
					<g>
						<text transform="matrix(1 0 0 1 7.272461e-06 7.324219e-06)" class="st1 st2 st3">11</text>
					</g>
				</g>
			</g>
			<g>
				<g transform="matrix(1 0 0 1 132.795 49.32)">
					<g>
						<text transform="matrix(1 0 0 1 1.542773e-05 7.324219e-06)" class="st1 st2 st3">12</text>
					</g>
				</g>
			</g>
			<g>
				<g transform="matrix(1 0 0 1 139.635 49.32)">
					<g>
						<text transform="matrix(1 0 0 1 1.476562e-05 7.324219e-06)" class="st1 st2 st3">13</text>
					</g>
				</g>
			</g>
			<g>
				<g transform="matrix(1 0 0 1 147.195 49.32)">
					<g>
						<text transform="matrix(1 0 0 1 0 7.324219e-06)" class="st1 st2 st3">14</text>
					</g>
				</g>
			</g>
			<g>
				<g transform="matrix(1 0 0 1 154.035 49.32)">
					<g>
						<text transform="matrix(1 0 0 1 0 7.324219e-06)" class="st1 st2 st3">15</text>
					</g>
				</g>
			</g>
			<g>
				<g transform="matrix(1 0 0 1 19.0346 49.32)">
					<g>
						<text transform="matrix(1 0 0 1 7.933594e-06 7.324219e-06)" class="st1 st2 st3">0</text>
					</g>
				</g>
			</g>
			<g>
				<g transform="matrix(1 0 0 1 26.2346 49.32)">
					<g>
						<text transform="matrix(1 0 0 1 0 7.324219e-06)" class="st1 st2 st3">1</text>
					</g>
				</g>
			</g>
			<g>
				<g transform="matrix(1 0 0 1 33.4346 49.32)">
					<g>
						<text transform="matrix(1 0 0 1 7.459473e-06 7.324219e-06)" class="st1 st2 st3">2</text>
					</g>
				</g>
			</g>
			<g>
				<g transform="matrix(1 0 0 1 40.6346 49.32)">
					<g>
						<text transform="matrix(1 0 0 1 1.103711e-05 7.324219e-06)" class="st1 st2 st3">3</text>
					</g>
				</g>
			</g>
			<g>
				<g transform="matrix(1 0 0 1 55.0346 49.32)">
					<g>
						<text transform="matrix(1 0 0 1 7.933594e-06 7.324219e-06)" class="st1 st2 st3">4</text>
					</g>
				</g>
			</g>
			<g>
				<g transform="matrix(1 0 0 1 62.2346 49.32)">
					<g>
						<text transform="matrix(1 0 0 1 0 7.324219e-06)" class="st1 st2 st3">5</text>
					</g>
				</g>
			</g>
			<g>
				<g transform="matrix(1 0 0 1 69.4346 49.32)">
					<g>
						<text transform="matrix(1 0 0 1 7.459473e-06 7.324219e-06)" class="st1 st2 st3">6</text>
					</g>
				</g>
			</g>
			<g>
				<g transform="matrix(1 0 0 1 75.9146 49.32)">
					<g>
						<text transform="matrix(1 0 0 1 7.187012e-06 7.324219e-06)" class="st1 st2 st3">7</text>
					</g>
				</g>
			</g>
			<g>
				<g transform="matrix(1 0 0 1 83.8346 55.08)">
					<g>
						<text transform="matrix(1 0 0 1 7.985352e-06 1.508984e-05)" class="st1 st2 st4">PWM</text>
					</g>
				</g>
			</g>
			<g>
				<g transform="matrix(1, 0, 0, 1, 101.616, 14.3773)">
					<g>
						<g>
							<g transform="rotate(270)">
								<g>
									<g>
										<g transform="matrix(1 0 0 1 3.468750e-04 3.083203e-05)">
											<g>
												<text class="st1 st2 st3">GND</text>
											</g>
										</g>
									</g>
								</g>
							</g>
						</g>
					</g>
				</g>
			</g>
			<g>
				<g transform="matrix(1, 0, 0, 1, 77.4965, 13.9266)">
					<g>
						<g>
							<g transform="rotate(270)">
								<g>
									<g>
										<g transform="matrix(1 0 0 1 -1.578125e-04 2.299609e-05)">
											<g>
												<text class="st1 st2 st3">V+</text>
											</g>
										</g>
									</g>
								</g>
							</g>
						</g>
					</g>
				</g>
			</g>
			<g>
				<g transform="matrix(1 0 0 1 9 19.08)">
					<g>
						<text transform="matrix(1 0 0 1 7.629395e-06 -1.342773e-05)" class="st1 st2 st3">GND</text>
					</g>
				</g>
			</g>
			<g>
				<g transform="matrix(1 0 0 1 9 25.92)">
					<g>
						<text transform="matrix(1 0 0 1 7.629395e-06 1.342773e-05)" class="st1 st2 st3">OE</text>
					</g>
				</g>
			</g>
			<g>
				<g transform="matrix(1 0 0 1 9 33.12)">
					<g>
						<text transform="matrix(1 0 0 1 7.629395e-06 0)" class="st1 st2 st3">SCL</text>
					</g>
				</g>
			</g>
			<g>
				<g transform="matrix(1 0 0 1 8.64 40.68)">
					<g>
						<text transform="matrix(1 0 0 1 7.019043e-06 -7.324219e-06)" class="st1 st2 st3">SDA</text>
					</g>
				</g>
			</g>
			<g>
				<g transform="matrix(1 0 0 1 8.64 47.88)">
					<g>
						<text transform="matrix(1 0 0 1 7.019043e-06 0)" class="st1 st2 st3">VCC</text>
					</g>
				</g>
			</g>
			<g>
				<g transform="matrix(1 0 0 1 115.92 30.3307)">
					<g>
						<text transform="matrix(1 0 0 1 1.542773e-05 -1.152344e-05)" class="st1 st2 st4">I2C Address</text>
					</g>
				</g>
			</g>
			<g>
				<g transform="matrix(1 0 0 1 111.6 33.9307)">
					<g>
						<text transform="matrix(1 0 0 1 8.103516e-06 0)" class="st1 st2 st3">(Open=0/Closed=1)</text>
					</g>
				</g>
			</g>
			<g>
				<g transform="matrix(1 0 0 1 108 14.76)">
					<g>
						<text transform="matrix(1 0 0 1 0 9.765625e-06)" class="st1 st2 st3">1+</text>
					</g>
				</g>
			</g>
			<g>
				<g transform="matrix(1 0 0 1 154.8 14.76)">
					<g>
						<text transform="matrix(1 0 0 1 1.531055e-05 9.765625e-06)" class="st1 st2 st3">+RW</text>
					</g>
				</g>
			</g>
			<g>
				<g transform="matrix(1 0 0 1 32.4 20.88)">
					<g>
						<text transform="matrix(1 0 0 1 7.155274e-06 5.882813e-06)" class="st1 st2 st4">C2</text>
					</g>
				</g>
			</g>
			<g>
				<g transform="matrix(1 0 0 1 160.8739 19.5408)">
					<g>
						<text class="st1 st2 st3">GND</text>
					</g>
				</g>
			</g>
			<g>
				<g transform="matrix(1 0 0 1 163.6493 26.7408)">
					<g>
						<text transform="matrix(1 0 0 1 1.550977e-05 1.320898e-05)" class="st1 st2 st3">OE</text>
					</g>
				</g>
			</g>
			<g>
				<g transform="matrix(1 0 0 1 161.2339 33.9408)">
					<g>
						<text transform="matrix(1 0 0 1 1.523633e-05 0)" class="st1 st2 st3">SCL</text>
					</g>
				</g>
			</g>
			<g>
				<g transform="matrix(1 0 0 1 160.8739 41.1408)">
					<g>
						<text transform="matrix(1 0 0 1 0 8.105469e-06)" class="st1 st2 st3">SDA</text>
					</g>
				</g>
			</g>
			<g>
				<g transform="matrix(1 0 0 1 161.2339 48.3408)">
					<g>
						<text transform="matrix(1 0 0 1 1.523633e-05 -1.120508e-05)" class="st1 st2 st3">VCC</text>
					</g>
				</g>
			</g>
			<g>
				<g transform="matrix(1 0 0 1 8.64 55.08)">
					<g>
						<text transform="matrix(1 0 0 1 7.019043e-06 1.508984e-05)" class="st1 st2 st3">V+</text>
					</g>
				</g>
			</g>
			<g>
				<g transform="matrix(1 0 0 1 163.2892 55.9008)">
					<g>
						<text transform="matrix(1 0 0 1 1.508789e-05 -1.164648e-05)" class="st1 st2 st3">V+</text>
					</g>
				</g>
			</g>
			<g>
				<g transform="matrix(1 0 0 1 64.08 26.28)">
					<g>
						<text transform="matrix(1 0 0 1 7.460449e-06 0)" class="st1 st2 st3">POWER</text>
					</g>
				</g>
			</g>
			<g>
				<g transform="matrix(1 0 0 1 37.44 28.8)">
					<g>
						<text transform="matrix(1 0 0 1 0 -1.120703e-05)" class="st1 st2 st4">PCA9685</text>
					</g>
				</g>
			</g>
			<g>
				<g transform="matrix(1 0 0 1 27.72 34.2)">
					<g>
						<text transform="matrix(1 0 0 1 9.850098e-06 1.120703e-05)" class="st1 st2 st4">16 x 12-bit PWM</text>
					</g>
				</g>
			</g>
			<g>
				<g transform="matrix(1 0 0 1 58.32 41.4)">
					<g>
						<text transform="matrix(1 0 0 1 7.324219e-06 -8.103516e-06)" class="st1 st2 st3">adafruit!</text>
					</g>
				</g>
			</g>
			<g>
				<g>
					<line class="st5" x1="26.1" y1="31.1" x2="23.2" y2="31.1"/>
				</g>
			</g>
			<g>
				<g>
					<line class="st6" x1="43.2" y1="15.1" x2="41" y2="15.1"/>
					<line class="st6" x1="42.1" y1="14" x2="42.1" y2="16.2"/>
					<circle class="st7" cx="33.5" cy="11.9" r="11.5"/>
				</g>
			</g>
			<g>
				<g>
					<line class="st8" x1="97.8" y1="20.4" x2="97.8" y2="4.6"/>
					<line class="st8" x1="97.8" y1="4.6" x2="97.8" y2="0.6"/>
					<line class="st8" x1="97.8" y1="0.6" x2="78" y2="0.6"/>
					<line class="st8" x1="78" y1="0.6" x2="78" y2="4.6"/>
					<line class="st8" x1="78" y1="4.6" x2="78" y2="20.4"/>
					<line class="st8" x1="78" y1="20.4" x2="97.8" y2="20.4"/>
					<line class="st8" x1="97.8" y1="4.6" x2="78" y2="4.6"/>
				</g>
			</g>
			<g>
				<g>
					<line class="st8" x1="81" y1="51.8" x2="79.2" y2="50"/>
					<line class="st8" x1="75.6" y1="50" x2="73.8" y2="51.8"/>
					<line class="st8" x1="73.8" y1="51.8" x2="72" y2="50"/>
					<line class="st8" x1="68.4" y1="50" x2="66.6" y2="51.8"/>
					<line class="st8" x1="66.6" y1="51.8" x2="64.8" y2="50"/>
					<line class="st8" x1="61.2" y1="50" x2="59.4" y2="51.8"/>
					<line class="st8" x1="59.4" y1="51.8" x2="57.6" y2="50"/>
					<line class="st8" x1="54" y1="50" x2="52.2" y2="51.8"/>
					<line class="st8" x1="81" y1="51.8" x2="81" y2="69.8"/>
					<line class="st8" x1="81" y1="69.8" x2="79.2" y2="71.6"/>
					<line class="st8" x1="79.2" y1="71.6" x2="75.6" y2="71.6"/>
					<line class="st8" x1="75.6" y1="71.6" x2="73.8" y2="69.8"/>
					<line class="st8" x1="73.8" y1="69.8" x2="72" y2="71.6"/>
					<line class="st8" x1="72" y1="71.6" x2="68.4" y2="71.6"/>
					<line class="st8" x1="68.4" y1="71.6" x2="66.6" y2="69.8"/>
					<line class="st8" x1="66.6" y1="69.8" x2="64.8" y2="71.6"/>
					<line class="st8" x1="64.8" y1="71.6" x2="61.2" y2="71.6"/>
					<line class="st8" x1="61.2" y1="71.6" x2="59.4" y2="69.8"/>
					<line class="st8" x1="59.4" y1="69.8" x2="57.6" y2="71.6"/>
					<line class="st8" x1="57.6" y1="71.6" x2="54" y2="71.6"/>
					<line class="st8" x1="54" y1="71.6" x2="52.2" y2="69.8"/>
					<line class="st8" x1="73.8" y1="69.8" x2="73.8" y2="51.8"/>
					<line class="st8" x1="66.6" y1="69.8" x2="66.6" y2="51.8"/>
					<line class="st8" x1="59.4" y1="69.8" x2="59.4" y2="51.8"/>
					<line class="st8" x1="52.2" y1="69.8" x2="52.2" y2="51.8"/>
					<line class="st8" x1="57.6" y1="50" x2="54" y2="50"/>
					<line class="st8" x1="64.8" y1="50" x2="61.2" y2="50"/>
					<line class="st8" x1="72" y1="50" x2="68.4" y2="50"/>
					<line class="st8" x1="79.2" y1="50" x2="75.6" y2="50"/>
				</g>
			</g>
			<g>
				<g>
					<line class="st8" x1="45" y1="51.8" x2="43.2" y2="50"/>
					<line class="st8" x1="39.6" y1="50" x2="37.8" y2="51.8"/>
					<line class="st8" x1="37.8" y1="51.8" x2="36" y2="50"/>
					<line class="st8" x1="32.4" y1="50" x2="30.6" y2="51.8"/>
					<line class="st8" x1="30.6" y1="51.8" x2="28.8" y2="50"/>
					<line class="st8" x1="25.2" y1="50" x2="23.4" y2="51.8"/>
					<line class="st8" x1="23.4" y1="51.8" x2="21.6" y2="50"/>
					<line class="st8" x1="18" y1="50" x2="16.2" y2="51.8"/>
					<line class="st8" x1="45" y1="51.8" x2="45" y2="69.8"/>
					<line class="st8" x1="45" y1="69.8" x2="43.2" y2="71.6"/>
					<line class="st8" x1="43.2" y1="71.6" x2="39.6" y2="71.6"/>
					<line class="st8" x1="39.6" y1="71.6" x2="37.8" y2="69.8"/>
					<line class="st8" x1="37.8" y1="69.8" x2="36" y2="71.6"/>
					<line class="st8" x1="36" y1="71.6" x2="32.4" y2="71.6"/>
					<line class="st8" x1="32.4" y1="71.6" x2="30.6" y2="69.8"/>
					<line class="st8" x1="30.6" y1="69.8" x2="28.8" y2="71.6"/>
					<line class="st8" x1="28.8" y1="71.6" x2="25.2" y2="71.6"/>
					<line class="st8" x1="25.2" y1="71.6" x2="23.4" y2="69.8"/>
					<line class="st8" x1="23.4" y1="69.8" x2="21.6" y2="71.6"/>
					<line class="st8" x1="21.6" y1="71.6" x2="18" y2="71.6"/>
					<line class="st8" x1="18" y1="71.6" x2="16.2" y2="69.8"/>
					<line class="st8" x1="37.8" y1="69.8" x2="37.8" y2="51.8"/>
					<line class="st8" x1="30.6" y1="69.8" x2="30.6" y2="51.8"/>
					<line class="st8" x1="23.4" y1="69.8" x2="23.4" y2="51.8"/>
					<line class="st8" x1="16.2" y1="69.8" x2="16.2" y2="51.8"/>
					<line class="st8" x1="21.6" y1="50" x2="18" y2="50"/>
					<line class="st8" x1="28.8" y1="50" x2="25.2" y2="50"/>
					<line class="st8" x1="36" y1="50" x2="32.4" y2="50"/>
					<line class="st8" x1="43.2" y1="50" x2="39.6" y2="50"/>
				</g>
			</g>
			<g>
				<g>
					<line class="st8" x1="160.2" y1="51.8" x2="158.4" y2="50"/>
					<line class="st8" x1="154.8" y1="50" x2="153" y2="51.8"/>
					<line class="st8" x1="153" y1="51.8" x2="151.2" y2="50"/>
					<line class="st8" x1="147.6" y1="50" x2="145.8" y2="51.8"/>
					<line class="st8" x1="145.8" y1="51.8" x2="144" y2="50"/>
					<line class="st8" x1="140.4" y1="50" x2="138.6" y2="51.8"/>
					<line class="st8" x1="138.6" y1="51.8" x2="136.8" y2="50"/>
					<line class="st8" x1="133.2" y1="50" x2="131.4" y2="51.8"/>
					<line class="st8" x1="160.2" y1="51.8" x2="160.2" y2="69.8"/>
					<line class="st8" x1="160.2" y1="69.8" x2="158.4" y2="71.6"/>
					<line class="st8" x1="158.4" y1="71.6" x2="154.8" y2="71.6"/>
					<line class="st8" x1="154.8" y1="71.6" x2="153" y2="69.8"/>
					<line class="st8" x1="153" y1="69.8" x2="151.2" y2="71.6"/>
					<line class="st8" x1="151.2" y1="71.6" x2="147.6" y2="71.6"/>
					<line class="st8" x1="147.6" y1="71.6" x2="145.8" y2="69.8"/>
					<line class="st8" x1="145.8" y1="69.8" x2="144" y2="71.6"/>
					<line class="st8" x1="144" y1="71.6" x2="140.4" y2="71.6"/>
					<line class="st8" x1="140.4" y1="71.6" x2="138.6" y2="69.8"/>
					<line class="st8" x1="138.6" y1="69.8" x2="136.8" y2="71.6"/>
					<line class="st8" x1="136.8" y1="71.6" x2="133.2" y2="71.6"/>
					<line class="st8" x1="133.2" y1="71.6" x2="131.4" y2="69.8"/>
					<line class="st8" x1="153" y1="69.8" x2="153" y2="51.8"/>
					<line class="st8" x1="145.8" y1="69.8" x2="145.8" y2="51.8"/>
					<line class="st8" x1="138.6" y1="69.8" x2="138.6" y2="51.8"/>
					<line class="st8" x1="131.4" y1="69.8" x2="131.4" y2="51.8"/>
					<line class="st8" x1="136.8" y1="50" x2="133.2" y2="50"/>
					<line class="st8" x1="144" y1="50" x2="140.4" y2="50"/>
					<line class="st8" x1="151.2" y1="50" x2="147.6" y2="50"/>
					<line class="st8" x1="158.4" y1="50" x2="154.8" y2="50"/>
				</g>
			</g>
			<g>
				<g>
					<line class="st8" x1="124.2" y1="51.8" x2="122.4" y2="50"/>
					<line class="st8" x1="118.8" y1="50" x2="117" y2="51.8"/>
					<line class="st8" x1="117" y1="51.8" x2="115.2" y2="50"/>
					<line class="st8" x1="111.6" y1="50" x2="109.8" y2="51.8"/>
					<line class="st8" x1="109.8" y1="51.8" x2="108" y2="50"/>
					<line class="st8" x1="104.4" y1="50" x2="102.6" y2="51.8"/>
					<line class="st8" x1="102.6" y1="51.8" x2="100.8" y2="50"/>
					<line class="st8" x1="97.2" y1="50" x2="95.4" y2="51.8"/>
					<line class="st8" x1="124.2" y1="51.8" x2="124.2" y2="69.8"/>
					<line class="st8" x1="124.2" y1="69.8" x2="122.4" y2="71.6"/>
					<line class="st8" x1="122.4" y1="71.6" x2="118.8" y2="71.6"/>
					<line class="st8" x1="118.8" y1="71.6" x2="117" y2="69.8"/>
					<line class="st8" x1="117" y1="69.8" x2="115.2" y2="71.6"/>
					<line class="st8" x1="115.2" y1="71.6" x2="111.6" y2="71.6"/>
					<line class="st8" x1="111.6" y1="71.6" x2="109.8" y2="69.8"/>
					<line class="st8" x1="109.8" y1="69.8" x2="108" y2="71.6"/>
					<line class="st8" x1="108" y1="71.6" x2="104.4" y2="71.6"/>
					<line class="st8" x1="104.4" y1="71.6" x2="102.6" y2="69.8"/>
					<line class="st8" x1="102.6" y1="69.8" x2="100.8" y2="71.6"/>
					<line class="st8" x1="100.8" y1="71.6" x2="97.2" y2="71.6"/>
					<line class="st8" x1="97.2" y1="71.6" x2="95.4" y2="69.8"/>
					<line class="st8" x1="117" y1="69.8" x2="117" y2="51.8"/>
					<line class="st8" x1="109.8" y1="69.8" x2="109.8" y2="51.8"/>
					<line class="st8" x1="102.6" y1="69.8" x2="102.6" y2="51.8"/>
					<line class="st8" x1="95.4" y1="69.8" x2="95.4" y2="51.8"/>
					<line class="st8" x1="100.8" y1="50" x2="97.2" y2="50"/>
					<line class="st8" x1="108" y1="50" x2="104.4" y2="50"/>
					<line class="st8" x1="115.2" y1="50" x2="111.6" y2="50"/>
					<line class="st8" x1="122.4" y1="50" x2="118.8" y2="50"/>
				</g>
			</g>
			<g>
				<g>
					<g>
						<path class="st6" d="M105.8,7.6l-1.1-1.4h2.2L105.8,7.6 M106.7,6.4H105H106.7 M106.4,6.8h-1.1H106.4"/>
					</g>
				</g>
			</g>
			<g>
				<g>
					<line class="st8" x1="68.9" y1="19.9" x2="51.9" y2="19.9"/>
					<line class="st8" x1="51.9" y1="19.9" x2="51.9" y2="1.3"/>
					<line class="st8" x1="51.9" y1="1.3" x2="68.9" y2="1.3"/>
				</g>
			</g>
			<g>
				<g>
					<line class="st8" x1="130.3" y1="16.6" x2="130.3" y2="24.5"/>
					<line class="st8" x1="119.5" y1="24.5" x2="119.5" y2="16.6"/>
				</g>
			</g>
			<g>
				<g>
					<line class="st8" x1="150.1" y1="16.6" x2="150.1" y2="24.5"/>
					<line class="st8" x1="139.3" y1="24.5" x2="139.3" y2="16.6"/>
				</g>
			</g>
			<g>
				<g>
					<line class="st5" x1="18" y1="13.1" x2="20.9" y2="13.1"/>
				</g>
			</g>
			<g>
				<g>
					<line class="st8" x1="107.3" y1="18.7" x2="104.4" y2="18.7"/>
				</g>
			</g>
			<g>
				<g>
					<line class="st8" x1="45" y1="45.4" x2="45" y2="37.4"/>
					<line class="st8" x1="55.8" y1="37.4" x2="55.8" y2="45.4"/>
				</g>
			</g>
			<g>
				<g>
					<line class="st8" x1="145.1" y1="45.7" x2="145.1" y2="37.8"/>
					<line class="st8" x1="155.9" y1="37.8" x2="155.9" y2="45.7"/>
				</g>
			</g>
			<g>
				<g>
					<line class="st8" x1="27" y1="45.4" x2="27" y2="37.4"/>
					<line class="st8" x1="37.8" y1="37.4" x2="37.8" y2="45.4"/>
				</g>
			</g>
			<g>
				<g>
					<line class="st8" x1="123.5" y1="45.7" x2="123.5" y2="37.8"/>
					<line class="st8" x1="134.3" y1="37.8" x2="134.3" y2="45.7"/>
				</g>
			</g>
			<g>
				<g>
					<line class="st8" x1="149" y1="10.5" x2="149" y2="2.6"/>
					<path class="st9" d="M154.1,11.3c0.4,0,0.7-0.3,0.7-0.7l0,0"/>
					<path class="st9" d="M154.8,2.6c0-0.4-0.3-0.7-0.7-0.7l0,0"/>
					<path class="st9" d="M149.8,1.9c-0.4,0-0.7,0.3-0.7,0.7l0,0"/>
					<path class="st9" d="M149,10.5c0,0.4,0.3,0.7,0.7,0.7l0,0"/>
					<line class="st8" x1="149.8" y1="11.3" x2="154.1" y2="11.3"/>
					<line class="st8" x1="149.8" y1="1.9" x2="154.1" y2="1.9"/>
					<line class="st8" x1="154.8" y1="2.6" x2="154.8" y2="10.5"/>
				</g>
			</g>
			<g>
				<g>
					<line class="st8" x1="141.8" y1="10.5" x2="141.8" y2="2.6"/>
					<path class="st9" d="M146.9,11.3c0.4,0,0.7-0.3,0.7-0.7l0,0"/>
					<path class="st9" d="M147.6,2.6c0-0.4-0.3-0.7-0.7-0.7l0,0"/>
					<path class="st9" d="M142.6,1.9c-0.4,0-0.7,0.3-0.7,0.7l0,0"/>
					<path class="st9" d="M141.8,10.5c0,0.4,0.3,0.7,0.7,0.7l0,0"/>
					<line class="st8" x1="142.6" y1="11.3" x2="146.9" y2="11.3"/>
					<line class="st8" x1="142.6" y1="1.9" x2="146.9" y2="1.9"/>
					<line class="st8" x1="147.6" y1="2.6" x2="147.6" y2="10.5"/>
				</g>
			</g>
			<g>
				<g>
					<line class="st8" x1="134.6" y1="10.5" x2="134.6" y2="2.6"/>
					<path class="st9" d="M139.7,11.3c0.4,0,0.7-0.3,0.7-0.7l0,0"/>
					<path class="st9" d="M140.4,2.6c0-0.4-0.3-0.7-0.7-0.7l0,0"/>
					<path class="st9" d="M135.4,1.9c-0.4,0-0.7,0.3-0.7,0.7l0,0"/>
					<path class="st9" d="M134.6,10.5c0,0.4,0.3,0.7,0.7,0.7l0,0"/>
					<line class="st8" x1="135.4" y1="11.3" x2="139.7" y2="11.3"/>
					<line class="st8" x1="135.4" y1="1.9" x2="139.7" y2="1.9"/>
					<line class="st8" x1="140.4" y1="2.6" x2="140.4" y2="10.5"/>
				</g>
			</g>
			<g>
				<g>
					<line class="st8" x1="127.4" y1="10.5" x2="127.4" y2="2.6"/>
					<path class="st9" d="M132.5,11.3c0.4,0,0.7-0.3,0.7-0.7l0,0"/>
					<path class="st9" d="M133.2,2.6c0-0.4-0.3-0.7-0.7-0.7l0,0"/>
					<path class="st9" d="M128.2,1.9c-0.4,0-0.7,0.3-0.7,0.7l0,0"/>
					<path class="st9" d="M127.4,10.5c0,0.4,0.3,0.7,0.7,0.7l0,0"/>
					<line class="st8" x1="128.2" y1="11.3" x2="132.5" y2="11.3"/>
					<line class="st8" x1="128.2" y1="1.9" x2="132.5" y2="1.9"/>
					<line class="st8" x1="133.2" y1="2.6" x2="133.2" y2="10.5"/>
				</g>
			</g>
			<g>
				<g>
					<line class="st8" x1="120.2" y1="10.5" x2="120.2" y2="2.6"/>
					<path class="st9" d="M125.3,11.3c0.4,0,0.7-0.3,0.7-0.7l0,0"/>
					<path class="st9" d="M126,2.6c0-0.4-0.3-0.7-0.7-0.7l0,0"/>
					<path class="st9" d="M121,1.9c-0.4,0-0.7,0.3-0.7,0.7l0,0"/>
					<path class="st9" d="M120.2,10.5c0,0.4,0.3,0.7,0.7,0.7l0,0"/>
					<line class="st8" x1="121" y1="11.3" x2="125.3" y2="11.3"/>
					<line class="st8" x1="121" y1="1.9" x2="125.3" y2="1.9"/>
					<line class="st8" x1="126" y1="2.6" x2="126" y2="10.5"/>
				</g>
			</g>
			<g>
				<g>
					<line class="st8" x1="113" y1="10.5" x2="113" y2="2.6"/>
					<path class="st9" d="M118.1,11.3c0.4,0,0.7-0.3,0.7-0.7l0,0"/>
					<path class="st9" d="M118.8,2.6c0-0.4-0.3-0.7-0.7-0.7l0,0"/>
					<path class="st9" d="M113.8,1.9c-0.4,0-0.7,0.3-0.7,0.7l0,0"/>
					<path class="st9" d="M113,10.5c0,0.4,0.3,0.7,0.7,0.7l0,0"/>
					<line class="st8" x1="113.8" y1="11.3" x2="118.1" y2="11.3"/>
					<line class="st8" x1="113.8" y1="1.9" x2="118.1" y2="1.9"/>
					<line class="st8" x1="118.8" y1="2.6" x2="118.8" y2="10.5"/>
				</g>
			</g>
			<g>
				<g>
					<circle class="st9" cx="9" cy="9" r="5.7"/>
				</g>
			</g>
			<g>
				<g>
					<circle class="st9" cx="9" cy="63" r="5.7"/>
				</g>
			</g>
			<g>
				<g>
					<circle class="st9" cx="167.4" cy="9" r="5.7"/>
				</g>
			</g>
			<g>
				<g>
					<circle class="st9" cx="167.4" cy="63" r="5.7"/>
				</g>
			</g>
			<g>
				<g>
					<circle class="st10" cx="22.3" cy="41.4" r="2.5"/>
					<g>
						<g transform="matrix(1 0 0 1 21.312 42.84)">
							<g>
								<text transform="matrix(1 0 0 1 1.171875e-05 0)" class="st1 st2 st3">C</text>
							</g>
						</g>
					</g>
				</g>
			</g>
			<g>
				<g>
					<line class="st8" x1="94.7" y1="47.9" x2="81.7" y2="47.9"/>
					<line class="st8" x1="81.7" y1="22.6" x2="94.7" y2="22.6"/>
				</g>
			</g>
		</g>
		<g transform="matrix(0, 1, -1, 0, 53.0618, 3.83244)">
			<g>
				<g>
					<g transform="matrix(2.535182e-06 1 -1 2.535182e-06 53.0617 3.8323)">
						<g>
							<rect id="connector5pin" x="22.5" y="26.6" class="st11" width="4.3" height="3.7"/>
						</g>
					</g>
				</g>
			</g>
		</g>
		<g transform="matrix(0, 1, -1, 0, 58.4476, 9.21823)">
			<g>
				<g>
					<g transform="matrix(2.535182e-06 1 -1 2.535182e-06 58.4475 9.2181)">
						<g>
							<rect id="connector6pin" x="22.5" y="32" class="st11" width="4.3" height="3.7"/>
						</g>
					</g>
				</g>
			</g>
		</g>
		<circle id="connector7pin" class="st12" cx="38.5" cy="11.9" r="1.7"/>
		<circle id="connector8pin" class="st12" cx="28.4" cy="11.9" r="1.7"/>
		<path id="connector9pin" class="st11" d="M127.8,66.7L127.8,66.7c0.8,0,1.4,0.6,1.4,1.4l0,0c0,0.8-0.6,1.4-1.4,1.4l0,0
			c-0.8,0-1.4-0.6-1.4-1.4l0,0C126.3,67.3,127,66.7,127.8,66.7z"/>
		<path id="connector10pin" class="st11" d="M31.3,3L31.3,3c0.8,0,1.4,0.6,1.4,1.4l0,0c0,0.8-0.6,1.4-1.4,1.4l0,0
			c-0.8,0-1.4-0.6-1.4-1.4l0,0C29.9,3.6,30.5,3,31.3,3z"/>
		<circle id="connector11pin" class="st13" cx="83.1" cy="10.8" r="2.3"/>
		<circle id="connector12pin" class="st13" cx="93" cy="10.8" r="2.3"/>
		<circle id="connector13pin" class="st14" cx="77.4" cy="53.6" r="2"/>
		<circle id="connector14pin" class="st14" cx="77.4" cy="60.8" r="2"/>
		<circle id="connector15pin" class="st14" cx="77.4" cy="68" r="2"/>
		<circle id="connector16pin" class="st14" cx="70.2" cy="53.6" r="2"/>
		<circle id="connector17pin" class="st14" cx="70.2" cy="60.8" r="2"/>
		<circle id="connector18pin" class="st14" cx="70.2" cy="68" r="2"/>
		<circle id="connector19pin" class="st14" cx="63" cy="53.6" r="2"/>
		<circle id="connector20pin" class="st14" cx="63" cy="60.8" r="2"/>
		<circle id="connector21pin" class="st14" cx="63" cy="68" r="2"/>
		<circle id="connector22pin" class="st14" cx="55.8" cy="53.6" r="2"/>
		<circle id="connector23pin" class="st14" cx="55.8" cy="60.8" r="2"/>
		<circle id="connector24pin" class="st14" cx="55.8" cy="68" r="2"/>
		<circle id="connector25pin" class="st14" cx="41.4" cy="53.6" r="2"/>
		<circle id="connector26pin" class="st14" cx="41.4" cy="60.8" r="2"/>
		<circle id="connector27pin" class="st14" cx="41.4" cy="68" r="2"/>
		<circle id="connector28pin" class="st14" cx="34.2" cy="53.6" r="2"/>
		<circle id="connector29pin" class="st14" cx="34.2" cy="60.8" r="2"/>
		<circle id="connector30pin" class="st14" cx="34.2" cy="68" r="2"/>
		<circle id="connector31pin" class="st14" cx="27" cy="53.6" r="2"/>
		<circle id="connector32pin" class="st14" cx="27" cy="60.8" r="2"/>
		<circle id="connector33pin" class="st14" cx="27" cy="68" r="2"/>
		<circle id="connector34pin" class="st14" cx="19.8" cy="53.6" r="2"/>
		<circle id="connector35pin" class="st14" cx="19.8" cy="60.8" r="2"/>
		<circle id="connector36pin" class="st14" cx="19.8" cy="68" r="2"/>
		<circle id="connector37pin" class="st15" cx="5.4" cy="53.6" r="2"/>
		<circle id="connector38pin" class="st15" cx="5.4" cy="46.4" r="2"/>
		<circle id="connector39pin" class="st15" cx="5.4" cy="39.2" r="2"/>
		<circle id="connector40pin" class="st15" cx="5.4" cy="32" r="2"/>
		<circle id="connector41pin" class="st15" cx="5.4" cy="24.8" r="2"/>
		<circle id="connector42pin" class="st15" cx="5.4" cy="17.6" r="2"/>
		<circle id="connector43pin" class="st15" cx="171" cy="53.6" r="2"/>
		<circle id="connector44pin" class="st15" cx="171" cy="46.4" r="2"/>
		<circle id="connector45pin" class="st15" cx="171" cy="39.2" r="2"/>
		<circle id="connector46pin" class="st15" cx="171" cy="32" r="2"/>
		<circle id="connector47pin" class="st15" cx="171" cy="24.8" r="2"/>
		<circle id="connector48pin" class="st15" cx="171" cy="17.6" r="2"/>
		<circle id="connector49pin" class="st14" cx="156.6" cy="53.6" r="2"/>
		<circle id="connector50pin" class="st14" cx="156.6" cy="60.8" r="2"/>
		<circle id="connector51pin" class="st14" cx="156.6" cy="68" r="2"/>
		<circle id="connector52pin" class="st14" cx="149.4" cy="53.6" r="2"/>
		<circle id="connector53pin" class="st14" cx="149.4" cy="60.8" r="2"/>
		<circle id="connector54pin" class="st14" cx="149.4" cy="68" r="2"/>
		<circle id="connector55pin" class="st14" cx="142.2" cy="53.6" r="2"/>
		<circle id="connector56pin" class="st14" cx="142.2" cy="60.8" r="2"/>
		<circle id="connector57pin" class="st14" cx="142.2" cy="68" r="2"/>
		<circle id="connector58pin" class="st14" cx="135" cy="53.6" r="2"/>
		<circle id="connector59pin" class="st14" cx="135" cy="60.8" r="2"/>
		<circle id="connector60pin" class="st14" cx="135" cy="68" r="2"/>
		<circle id="connector61pin" class="st14" cx="120.6" cy="53.6" r="2"/>
		<circle id="connector62pin" class="st14" cx="120.6" cy="60.8" r="2"/>
		<circle id="connector63pin" class="st14" cx="120.6" cy="68" r="2"/>
		<circle id="connector64pin" class="st14" cx="113.4" cy="53.6" r="2"/>
		<circle id="connector65pin" class="st14" cx="113.4" cy="60.8" r="2"/>
		<circle id="connector66pin" class="st14" cx="113.4" cy="68" r="2"/>
		<circle id="connector67pin" class="st14" cx="106.2" cy="53.6" r="2"/>
		<circle id="connector68pin" class="st14" cx="106.2" cy="60.8" r="2"/>
		<circle id="connector69pin" class="st14" cx="106.2" cy="68" r="2"/>
		<circle id="connector70pin" class="st14" cx="99" cy="53.6" r="2"/>
		<circle id="connector71pin" class="st14" cx="99" cy="60.8" r="2"/>
		<circle id="connector72pin" class="st14" cx="99" cy="68" r="2"/>
		<g transform="matrix(-1, 0, 0, -1, 211.68, 7.72726)">
			<g>
				<g>
					<rect id="connector73pin" x="104.1" y="2.2" class="st11" width="3.4" height="3.4"/>
				</g>
			</g>
		</g>
		<g transform="matrix(-1, 0, 0, -1, 211.68, 19.6327)">
			<g>
				<g>
					<rect id="connector74pin" x="104.1" y="8.1" class="st11" width="3.4" height="3.4"/>
				</g>
			</g>
		</g>
		<g transform="matrix(0, 1, -1, 0, 48.5433, -40.2378)">
			<g>
				<g>
					<g transform="matrix(2.535182e-06 1 -1 2.535182e-06 48.5432 -40.2378)">
						<g>
							<rect id="connector75pin" x="42.1" y="2.7" class="st11" width="4.5" height="2.8"/>
						</g>
					</g>
				</g>
			</g>
		</g>
		<g transform="matrix(0, 1, -1, 0, 61.4693, -27.3118)">
			<g>
				<g>
					<g transform="matrix(2.535182e-06 1 -1 2.535182e-06 61.4691 -27.3119)">
						<g>
							<rect id="connector76pin" x="42.1" y="15.7" class="st11" width="4.5" height="2.8"/>
						</g>
					</g>
				</g>
			</g>
		</g>
		<g transform="matrix(0, 1, -1, 0, 75.6994, -54.4677)">
			<g>
				<g>
					<g transform="matrix(2.535182e-06 1 -1 2.535182e-06 75.699 -54.4677)">
						<g>
							<rect id="connector77pin" x="56.3" y="3" class="st11" width="17.6" height="15.3"/>
						</g>
					</g>
				</g>
			</g>
		</g>
		<rect id="connector78pin" x="120.6" y="21.7" class="st11" width="1.3" height="2.6"/>
		<rect id="connector79pin" x="123.1" y="21.7" class="st11" width="1.3" height="2.6"/>
		<rect id="connector80pin" x="125.4" y="21.7" class="st11" width="1.3" height="2.6"/>
		<rect id="connector81pin" x="128" y="21.7" class="st11" width="1.3" height="2.6"/>
		<rect id="connector82pin" x="128" y="16.8" class="st11" width="1.3" height="2.6"/>
		<rect id="connector83pin" x="125.4" y="16.8" class="st11" width="1.3" height="2.6"/>
		<rect id="connector84pin" x="123.1" y="16.8" class="st11" width="1.3" height="2.6"/>
		<rect id="connector85pin" x="120.6" y="16.8" class="st11" width="1.3" height="2.6"/>
		<rect id="connector86pin" x="140.4" y="21.7" class="st11" width="1.3" height="2.6"/>
		<rect id="connector87pin" x="142.9" y="21.7" class="st11" width="1.3" height="2.6"/>
		<rect id="connector88pin" x="145.2" y="21.7" class="st11" width="1.3" height="2.6"/>
		<rect id="connector89pin" x="147.8" y="21.7" class="st11" width="1.3" height="2.6"/>
		<rect id="connector90pin" x="147.8" y="16.8" class="st11" width="1.3" height="2.6"/>
		<rect id="connector91pin" x="145.2" y="16.8" class="st11" width="1.3" height="2.6"/>
		<rect id="connector92pin" x="142.9" y="16.8" class="st11" width="1.3" height="2.6"/>
		<rect id="connector93pin" x="140.4" y="16.8" class="st11" width="1.3" height="2.6"/>
		<g transform="matrix(0, -1, 1, 0, 3.60708, 35.2729)">
			<g>
				<g>
					<g transform="matrix(-2.535182e-06 -1 1 -2.535182e-06 3.6071 35.2729)">
						<g>
							<rect id="connector94pin" x="17.3" y="14" class="st11" width="4.3" height="3.7"/>
						</g>
					</g>
				</g>
			</g>
		</g>
		<g transform="matrix(0, -1, 1, 0, 8.99294, 29.8871)">
			<g>
				<g>
					<g transform="matrix(-2.535182e-06 -1 1 -2.535182e-06 8.9929 29.887)">
						<g>
							<rect id="connector95pin" x="17.3" y="8.6" class="st11" width="4.3" height="3.7"/>
						</g>
					</g>
				</g>
			</g>
		</g>
		<g transform="matrix(0, 1, -1, 0, 121.68, -90)">
			<g>
				<g>
					<g transform="matrix(2.535182e-06 1 -1 2.535182e-06 121.6794 -89.9999)">
						<g>
							<rect id="connector96pin" x="104" y="14.1" class="st11" width="3.7" height="3.4"/>
						</g>
					</g>
				</g>
			</g>
		</g>
		<g transform="matrix(0, 1, -1, 0, 127.44, -84.24)">
			<g>
				<g>
					<g transform="matrix(2.535182e-06 1 -1 2.535182e-06 127.4394 -84.2399)">
						<g>
							<rect id="connector97pin" x="104" y="19.9" class="st11" width="3.7" height="3.4"/>
						</g>
					</g>
				</g>
			</g>
		</g>
		<g transform="matrix(-1, 0, 0, -1, 108.17, 77.981)">
			<g>
				<g>
					<rect id="connector98pin" x="53.4" y="37.7" class="st11" width="1.3" height="2.6"/>
				</g>
			</g>
		</g>
		<g transform="matrix(-1, 0, 0, -1, 103.068, 77.981)">
			<g>
				<g>
					<rect id="connector99pin" x="50.9" y="37.7" class="st11" width="1.3" height="2.6"/>
				</g>
			</g>
		</g>
		<g transform="matrix(-1, 0, 0, -1, 98.532, 77.981)">
			<g>
				<g>
					<rect id="connector100pin" x="48.6" y="37.7" class="st11" width="1.3" height="2.6"/>
				</g>
			</g>
		</g>
		<g transform="matrix(-1, 0, 0, -1, 93.4301, 77.981)">
			<g>
				<g>
					<rect id="connector101pin" x="46.1" y="37.7" class="st11" width="1.3" height="2.6"/>
				</g>
			</g>
		</g>
		<g transform="matrix(-1, 0, 0, -1, 93.4301, 87.619)">
			<g>
				<g>
					<rect id="connector102pin" x="46.1" y="42.5" class="st11" width="1.3" height="2.6"/>
				</g>
			</g>
		</g>
		<g transform="matrix(-1, 0, 0, -1, 98.532, 87.619)">
			<g>
				<g>
					<rect id="connector103pin" x="48.6" y="42.5" class="st11" width="1.3" height="2.6"/>
				</g>
			</g>
		</g>
		<g transform="matrix(-1, 0, 0, -1, 103.068, 87.619)">
			<g>
				<g>
					<rect id="connector104pin" x="50.9" y="42.5" class="st11" width="1.3" height="2.6"/>
				</g>
			</g>
		</g>
		<g transform="matrix(-1, 0, 0, -1, 108.17, 87.619)">
			<g>
				<g>
					<rect id="connector105pin" x="53.4" y="42.5" class="st11" width="1.3" height="2.6"/>
				</g>
			</g>
		</g>
		<g transform="matrix(-1, 0, 0, -1, 308.33, 78.701)">
			<g>
				<g>
					<rect id="connector106pin" x="153.5" y="38.1" class="st11" width="1.3" height="2.6"/>
				</g>
			</g>
		</g>
		<g transform="matrix(-1, 0, 0, -1, 303.228, 78.701)">
			<g>
				<g>
					<rect id="connector107pin" x="151" y="38.1" class="st11" width="1.3" height="2.6"/>
				</g>
			</g>
		</g>
		<g transform="matrix(-1, 0, 0, -1, 298.692, 78.701)">
			<g>
				<g>
					<rect id="connector108pin" x="148.7" y="38.1" class="st11" width="1.3" height="2.6"/>
				</g>
			</g>
		</g>
		<g transform="matrix(-1, 0, 0, -1, 293.59, 78.701)">
			<g>
				<g>
					<rect id="connector109pin" x="146.2" y="38.1" class="st11" width="1.3" height="2.6"/>
				</g>
			</g>
		</g>
		<g transform="matrix(-1, 0, 0, -1, 293.59, 88.339)">
			<g>
				<g>
					<rect id="connector110pin" x="146.2" y="42.9" class="st11" width="1.3" height="2.6"/>
				</g>
			</g>
		</g>
		<g transform="matrix(-1, 0, 0, -1, 298.692, 88.339)">
			<g>
				<g>
					<rect id="connector111pin" x="148.7" y="42.9" class="st11" width="1.3" height="2.6"/>
				</g>
			</g>
		</g>
		<g transform="matrix(-1, 0, 0, -1, 303.228, 88.339)">
			<g>
				<g>
					<rect id="connector112pin" x="151" y="42.9" class="st11" width="1.3" height="2.6"/>
				</g>
			</g>
		</g>
		<g transform="matrix(-1, 0, 0, -1, 308.33, 88.339)">
			<g>
				<g>
					<rect id="connector113pin" x="153.5" y="42.9" class="st11" width="1.3" height="2.6"/>
				</g>
			</g>
		</g>
		<g transform="matrix(-1, 0, 0, -1, 72.1699, 77.981)">
			<g>
				<g>
					<rect id="connector114pin" x="35.4" y="37.7" class="st11" width="1.3" height="2.6"/>
				</g>
			</g>
		</g>
		<g transform="matrix(-1, 0, 0, -1, 67.0677, 77.981)">
			<g>
				<g>
					<rect id="connector115pin" x="32.9" y="37.7" class="st11" width="1.3" height="2.6"/>
				</g>
			</g>
		</g>
		<g transform="matrix(-1, 0, 0, -1, 62.5323, 77.981)">
			<g>
				<g>
					<rect id="connector116pin" x="30.6" y="37.7" class="st11" width="1.3" height="2.6"/>
				</g>
			</g>
		</g>
		<g transform="matrix(-1, 0, 0, -1, 57.4299, 77.981)">
			<g>
				<g>
					<rect id="connector117pin" x="28.1" y="37.7" class="st11" width="1.3" height="2.6"/>
				</g>
			</g>
		</g>
		<g transform="matrix(-1, 0, 0, -1, 57.4299, 87.619)">
			<g>
				<g>
					<rect id="connector118pin" x="28.1" y="42.5" class="st11" width="1.3" height="2.6"/>
				</g>
			</g>
		</g>
		<g transform="matrix(-1, 0, 0, -1, 62.5323, 87.619)">
			<g>
				<g>
					<rect id="connector119pin" x="30.6" y="42.5" class="st11" width="1.3" height="2.6"/>
				</g>
			</g>
		</g>
		<g transform="matrix(-1, 0, 0, -1, 67.0677, 87.619)">
			<g>
				<g>
					<rect id="connector120pin" x="32.9" y="42.5" class="st11" width="1.3" height="2.6"/>
				</g>
			</g>
		</g>
		<g transform="matrix(-1, 0, 0, -1, 72.1699, 87.619)">
			<g>
				<g>
					<rect id="connector121pin" x="35.4" y="42.5" class="st11" width="1.3" height="2.6"/>
				</g>
			</g>
		</g>
		<g transform="matrix(-1, 0, 0, -1, 265.13, 78.701)">
			<g>
				<g>
					<rect id="connector122pin" x="131.9" y="38.1" class="st11" width="1.3" height="2.6"/>
				</g>
			</g>
		</g>
		<g transform="matrix(-1, 0, 0, -1, 260.028, 78.701)">
			<g>
				<g>
					<rect id="connector123pin" x="129.4" y="38.1" class="st11" width="1.3" height="2.6"/>
				</g>
			</g>
		</g>
		<g transform="matrix(-1, 0, 0, -1, 255.492, 78.701)">
			<g>
				<g>
					<rect id="connector124pin" x="127.1" y="38.1" class="st11" width="1.3" height="2.6"/>
				</g>
			</g>
		</g>
		<g transform="matrix(-1, 0, 0, -1, 250.39, 78.701)">
			<g>
				<g>
					<rect id="connector125pin" x="124.6" y="38.1" class="st11" width="1.3" height="2.6"/>
				</g>
			</g>
		</g>
		<g transform="matrix(-1, 0, 0, -1, 250.39, 88.339)">
			<g>
				<g>
					<rect id="connector126pin" x="124.6" y="42.9" class="st11" width="1.3" height="2.6"/>
				</g>
			</g>
		</g>
		<g transform="matrix(-1, 0, 0, -1, 255.492, 88.339)">
			<g>
				<g>
					<rect id="connector127pin" x="127.1" y="42.9" class="st11" width="1.3" height="2.6"/>
				</g>
			</g>
		</g>
		<g transform="matrix(-1, 0, 0, -1, 260.028, 88.339)">
			<g>
				<g>
					<rect id="connector128pin" x="129.4" y="42.9" class="st11" width="1.3" height="2.6"/>
				</g>
			</g>
		</g>
		<g transform="matrix(-1, 0, 0, -1, 265.13, 88.339)">
			<g>
				<g>
					<rect id="connector129pin" x="131.9" y="42.9" class="st11" width="1.3" height="2.6"/>
				</g>
			</g>
		</g>
		<g transform="matrix(0, 1, -1, 0, 156.331, -147.509)">
			<g>
				<g>
					<g transform="matrix(2.535182e-06 1 -1 2.535182e-06 156.3303 -147.5093)">
						<g>
							<rect id="connector130pin" x="149.7" y="2.8" class="st11" width="4.5" height="3.3"/>
						</g>
					</g>
				</g>
			</g>
		</g>
		<g transform="matrix(0, 1, -1, 0, 160.651, -143.189)">
			<g>
				<g>
					<g transform="matrix(2.535182e-06 1 -1 2.535182e-06 160.6503 -143.1893)">
						<g>
							<rect id="connector131pin" x="149.7" y="7.1" class="st11" width="4.5" height="3.3"/>
						</g>
					</g>
				</g>
			</g>
		</g>
		<g transform="matrix(0, 1, -1, 0, 149.131, -140.309)">
			<g>
				<g>
					<g transform="matrix(2.535182e-06 1 -1 2.535182e-06 149.1303 -140.3093)">
						<g>
							<rect id="connector132pin" x="142.5" y="2.8" class="st11" width="4.5" height="3.3"/>
						</g>
					</g>
				</g>
			</g>
		</g>
		<g transform="matrix(0, 1, -1, 0, 153.451, -135.989)">
			<g>
				<g>
					<g transform="matrix(2.535182e-06 1 -1 2.535182e-06 153.4503 -135.9893)">
						<g>
							<rect id="connector133pin" x="142.5" y="7.1" class="st11" width="4.5" height="3.3"/>
						</g>
					</g>
				</g>
			</g>
		</g>
		<g transform="matrix(0, 1, -1, 0, 141.931, -133.109)">
			<g>
				<g>
					<g transform="matrix(2.535182e-06 1 -1 2.535182e-06 141.9303 -133.1093)">
						<g>
							<rect id="connector134pin" x="135.3" y="2.8" class="st11" width="4.5" height="3.3"/>
						</g>
					</g>
				</g>
			</g>
		</g>
		<g transform="matrix(0, 1, -1, 0, 146.251, -128.789)">
			<g>
				<g>
					<g transform="matrix(2.535182e-06 1 -1 2.535182e-06 146.2504 -128.7893)">
						<g>
							<rect id="connector135pin" x="135.3" y="7.1" class="st11" width="4.5" height="3.3"/>
						</g>
					</g>
				</g>
			</g>
		</g>
		<g transform="matrix(0, 1, -1, 0, 134.731, -125.909)">
			<g>
				<g>
					<g transform="matrix(2.535182e-06 1 -1 2.535182e-06 134.7304 -125.9093)">
						<g>
							<rect id="connector136pin" x="128.1" y="2.8" class="st11" width="4.5" height="3.3"/>
						</g>
					</g>
				</g>
			</g>
		</g>
		<g transform="matrix(0, 1, -1, 0, 139.051, -121.589)">
			<g>
				<g>
					<g transform="matrix(2.535182e-06 1 -1 2.535182e-06 139.0504 -121.5893)">
						<g>
							<rect id="connector137pin" x="128.1" y="7.1" class="st11" width="4.5" height="3.3"/>
						</g>
					</g>
				</g>
			</g>
		</g>
		<g transform="matrix(0, 1, -1, 0, 127.531, -118.709)">
			<g>
				<g>
					<g transform="matrix(2.535182e-06 1 -1 2.535182e-06 127.5304 -118.7093)">
						<g>
							<rect id="connector138pin" x="120.9" y="2.8" class="st11" width="4.5" height="3.3"/>
						</g>
					</g>
				</g>
			</g>
		</g>
		<g transform="matrix(0, 1, -1, 0, 131.851, -114.389)">
			<g>
				<g>
					<g transform="matrix(2.535182e-06 1 -1 2.535182e-06 131.8504 -114.3893)">
						<g>
							<rect id="connector139pin" x="120.9" y="7.1" class="st11" width="4.5" height="3.3"/>
						</g>
					</g>
				</g>
			</g>
		</g>
		<g transform="matrix(0, 1, -1, 0, 120.331, -111.509)">
			<g>
				<g>
					<g transform="matrix(2.535182e-06 1 -1 2.535182e-06 120.3304 -111.5093)">
						<g>
							<rect id="connector140pin" x="113.7" y="2.8" class="st11" width="4.5" height="3.3"/>
						</g>
					</g>
				</g>
			</g>
		</g>
		<g transform="matrix(0, 1, -1, 0, 124.651, -107.189)">
			<g>
				<g>
					<g transform="matrix(2.535182e-06 1 -1 2.535182e-06 124.6504 -107.1893)">
						<g>
							<rect id="connector141pin" x="113.7" y="7.1" class="st11" width="4.5" height="3.3"/>
						</g>
					</g>
				</g>
			</g>
		</g>
		<circle id="connector142pin" class="st16" cx="9" cy="9" r="4.3"/>
		<circle id="connector143pin" class="st16" cx="9" cy="63" r="4.3"/>
		<circle id="connector144pin" class="st16" cx="167.4" cy="9" r="4.3"/>
		<circle id="connector145pin" class="st16" cx="167.4" cy="63" r="4.3"/>
		<g transform="matrix(0, 1, -1, 0, 103.233, -56.6255)">
			<g>
				<g>
					<g transform="matrix(2.535182e-06 1 -1 2.535182e-06 103.2328 -56.6259)">
						<g>
							<rect id="connector146pin" x="78.5" y="22.9" class="st11" width="2.8" height="0.9"/>
						</g>
					</g>
				</g>
			</g>
		</g>
		<g transform="matrix(0, 1, -1, 0, 105.075, -54.7829)">
			<g>
				<g>
					<g transform="matrix(2.535182e-06 1 -1 2.535182e-06 105.0753 -54.7834)">
						<g>
							<rect id="connector147pin" x="78.5" y="24.7" class="st11" width="2.8" height="0.9"/>
						</g>
					</g>
				</g>
			</g>
		</g>
		<g transform="matrix(0, 1, -1, 0, 106.918, -52.9404)">
			<g>
				<g>
					<g transform="matrix(2.535182e-06 1 -1 2.535182e-06 106.9179 -52.9408)">
						<g>
							<rect id="connector148pin" x="78.5" y="26.6" class="st11" width="2.8" height="0.9"/>
						</g>
					</g>
				</g>
			</g>
		</g>
		<g transform="matrix(0, 1, -1, 0, 108.76, -51.0979)">
			<g>
				<g>
					<g transform="matrix(2.535182e-06 1 -1 2.535182e-06 108.7604 -51.0983)">
						<g>
							<rect id="connector149pin" x="78.5" y="28.4" class="st11" width="2.8" height="0.9"/>
						</g>
					</g>
				</g>
			</g>
		</g>
		<g transform="matrix(0, 1, -1, 0, 110.603, -49.2553)">
			<g>
				<g>
					<g transform="matrix(2.535182e-06 1 -1 2.535182e-06 110.6029 -49.2558)">
						<g>
							<rect id="connector150pin" x="78.5" y="30.2" class="st11" width="2.8" height="0.9"/>
						</g>
					</g>
				</g>
			</g>
		</g>
		<g transform="matrix(0, 1, -1, 0, 112.445, -47.4129)">
			<g>
				<g>
					<g transform="matrix(2.535182e-06 1 -1 2.535182e-06 112.4454 -47.4133)">
						<g>
							<rect id="connector151pin" x="78.5" y="32.1" class="st11" width="2.8" height="0.9"/>
						</g>
					</g>
				</g>
			</g>
		</g>
		<g transform="matrix(0, 1, -1, 0, 114.288, -45.5703)">
			<g>
				<g>
					<g transform="matrix(2.535182e-06 1 -1 2.535182e-06 114.288 -45.5707)">
						<g>
							<rect id="connector152pin" x="78.5" y="33.9" class="st11" width="2.8" height="0.9"/>
						</g>
					</g>
				</g>
			</g>
		</g>
		<g transform="matrix(0, 1, -1, 0, 116.13, -43.7278)">
			<g>
				<g>
					<g transform="matrix(2.535182e-06 1 -1 2.535182e-06 116.1304 -43.7283)">
						<g>
							<rect id="connector153pin" x="78.5" y="35.8" class="st11" width="2.8" height="0.9"/>
						</g>
					</g>
				</g>
			</g>
		</g>
		<g transform="matrix(0, 1, -1, 0, 117.973, -41.8853)">
			<g>
				<g>
					<g transform="matrix(2.535182e-06 1 -1 2.535182e-06 117.973 -41.8857)">
						<g>
							<rect id="connector154pin" x="78.5" y="37.6" class="st11" width="2.8" height="0.9"/>
						</g>
					</g>
				</g>
			</g>
		</g>
		<g transform="matrix(0, 1, -1, 0, 119.815, -40.0428)">
			<g>
				<g>
					<g transform="matrix(2.535182e-06 1 -1 2.535182e-06 119.8155 -40.0432)">
						<g>
							<rect id="connector155pin" x="78.5" y="39.5" class="st11" width="2.8" height="0.9"/>
						</g>
					</g>
				</g>
			</g>
		</g>
		<g transform="matrix(0, 1, -1, 0, 121.658, -38.2002)">
			<g>
				<g>
					<g transform="matrix(2.535182e-06 1 -1 2.535182e-06 121.658 -38.2007)">
						<g>
							<rect id="connector156pin" x="78.5" y="41.3" class="st11" width="2.8" height="0.9"/>
						</g>
					</g>
				</g>
			</g>
		</g>
		<g transform="matrix(0, 1, -1, 0, 123.5, -36.3578)">
			<g>
				<g>
					<g transform="matrix(2.535182e-06 1 -1 2.535182e-06 123.5005 -36.3582)">
						<g>
							<rect id="connector157pin" x="78.5" y="43.1" class="st11" width="2.8" height="0.9"/>
						</g>
					</g>
				</g>
			</g>
		</g>
		<g transform="matrix(0, 1, -1, 0, 125.343, -34.5152)">
			<g>
				<g>
					<g transform="matrix(2.535182e-06 1 -1 2.535182e-06 125.3431 -34.5156)">
						<g>
							<rect id="connector158pin" x="78.5" y="45" class="st11" width="2.8" height="0.9"/>
						</g>
					</g>
				</g>
			</g>
		</g>
		<g transform="matrix(0, 1, -1, 0, 127.185, -32.6727)">
			<g>
				<g>
					<g transform="matrix(2.535182e-06 1 -1 2.535182e-06 127.1856 -32.6731)">
						<g>
							<rect id="connector159pin" x="78.5" y="46.8" class="st11" width="2.8" height="0.9"/>
						</g>
					</g>
				</g>
			</g>
		</g>
		<g transform="matrix(0, 1, -1, 0, 143.727, -49.2145)">
			<g>
				<g>
					<g transform="matrix(2.535182e-06 1 -1 2.535182e-06 143.7267 -49.2143)">
						<g>
							<rect id="connector160pin" x="95.1" y="46.8" class="st11" width="2.8" height="0.9"/>
						</g>
					</g>
				</g>
			</g>
		</g>
		<g transform="matrix(0, 1, -1, 0, 141.885, -51.0571)">
			<g>
				<g>
					<g transform="matrix(2.535182e-06 1 -1 2.535182e-06 141.8842 -51.0568)">
						<g>
							<rect id="connector161pin" x="95.1" y="45" class="st11" width="2.8" height="0.9"/>
						</g>
					</g>
				</g>
			</g>
		</g>
		<g transform="matrix(0, 1, -1, 0, 140.042, -52.8996)">
			<g>
				<g>
					<g transform="matrix(2.535182e-06 1 -1 2.535182e-06 140.0416 -52.8994)">
						<g>
							<rect id="connector162pin" x="95.1" y="43.1" class="st11" width="2.8" height="0.9"/>
						</g>
					</g>
				</g>
			</g>
		</g>
		<g transform="matrix(0, 1, -1, 0, 138.2, -54.7421)">
			<g>
				<g>
					<g transform="matrix(2.535182e-06 1 -1 2.535182e-06 138.1991 -54.7419)">
						<g>
							<rect id="connector163pin" x="95.1" y="41.3" class="st11" width="2.8" height="0.9"/>
						</g>
					</g>
				</g>
			</g>
		</g>
		<g transform="matrix(0, 1, -1, 0, 136.357, -56.5847)">
			<g>
				<g>
					<g transform="matrix(2.535182e-06 1 -1 2.535182e-06 136.3566 -56.5844)">
						<g>
							<rect id="connector164pin" x="95.1" y="39.5" class="st11" width="2.8" height="0.9"/>
						</g>
					</g>
				</g>
			</g>
		</g>
		<g transform="matrix(0, 1, -1, 0, 134.515, -58.4271)">
			<g>
				<g>
					<g transform="matrix(2.535182e-06 1 -1 2.535182e-06 134.5141 -58.4269)">
						<g>
							<rect id="connector165pin" x="95.1" y="37.6" class="st11" width="2.8" height="0.9"/>
						</g>
					</g>
				</g>
			</g>
		</g>
		<g transform="matrix(0, 1, -1, 0, 132.672, -60.2697)">
			<g>
				<g>
					<g transform="matrix(2.535182e-06 1 -1 2.535182e-06 132.6715 -60.2695)">
						<g>
							<rect id="connector166pin" x="95.1" y="35.8" class="st11" width="2.8" height="0.9"/>
						</g>
					</g>
				</g>
			</g>
		</g>
		<g transform="matrix(0, 1, -1, 0, 130.83, -62.1122)">
			<g>
				<g>
					<g transform="matrix(2.535182e-06 1 -1 2.535182e-06 130.8291 -62.1119)">
						<g>
							<rect id="connector167pin" x="95.1" y="33.9" class="st11" width="2.8" height="0.9"/>
						</g>
					</g>
				</g>
			</g>
		</g>
		<g transform="matrix(0, 1, -1, 0, 128.987, -63.9547)">
			<g>
				<g>
					<g transform="matrix(2.535182e-06 1 -1 2.535182e-06 128.9865 -63.9545)">
						<g>
							<rect id="connector168pin" x="95.1" y="32.1" class="st11" width="2.8" height="0.9"/>
						</g>
					</g>
				</g>
			</g>
		</g>
		<g transform="matrix(0, 1, -1, 0, 127.145, -65.7972)">
			<g>
				<g>
					<g transform="matrix(2.535182e-06 1 -1 2.535182e-06 127.144 -65.797)">
						<g>
							<rect id="connector169pin" x="95.1" y="30.2" class="st11" width="2.8" height="0.9"/>
						</g>
					</g>
				</g>
			</g>
		</g>
		<g transform="matrix(0, 1, -1, 0, 125.302, -67.6398)">
			<g>
				<g>
					<g transform="matrix(2.535182e-06 1 -1 2.535182e-06 125.3015 -67.6395)">
						<g>
							<rect id="connector170pin" x="95.1" y="28.4" class="st11" width="2.8" height="0.9"/>
						</g>
					</g>
				</g>
			</g>
		</g>
		<g transform="matrix(0, 1, -1, 0, 123.46, -69.4822)">
			<g>
				<g>
					<g transform="matrix(2.535182e-06 1 -1 2.535182e-06 123.459 -69.482)">
						<g>
							<rect id="connector171pin" x="95.1" y="26.6" class="st11" width="2.8" height="0.9"/>
						</g>
					</g>
				</g>
			</g>
		</g>
		<g transform="matrix(0, 1, -1, 0, 121.617, -71.3248)">
			<g>
				<g>
					<g transform="matrix(2.535182e-06 1 -1 2.535182e-06 121.6164 -71.3246)">
						<g>
							<rect id="connector172pin" x="95.1" y="24.7" class="st11" width="2.8" height="0.9"/>
						</g>
					</g>
				</g>
			</g>
		</g>
		<g transform="matrix(0, 1, -1, 0, 119.775, -73.1671)">
			<g>
				<g>
					<g transform="matrix(2.535182e-06 1 -1 2.535182e-06 119.7739 -73.1671)">
						<g>
							<rect id="connector173pin" x="95.1" y="22.9" class="st11" width="2.8" height="0.9"/>
						</g>
					</g>
				</g>
			</g>
		</g>
	</g>
	<g transform="matrix(1, 0, 0, 1, 21.7801, 29.3685)">
		<g>
			<g id="_x30_805-cap">
				<g transform="matrix(0, 1, -1, 0, 4.606, -1.063)">
					<g>
						<g>
							<path class="st17" d="M5.4,3.5H0.3C0.1,3.5,0,3.4,0,3.3v-3C0,0.1,0.1,0,0.3,0h5.1c0.2,0,0.3,0.1,0.3,0.3v3
								C5.7,3.4,5.5,3.5,5.4,3.5z"/>
							<g transform="matrix(2.535182e-06 1 -1 2.535182e-06 4.606 -1.063)">
								<g>
									<rect x="1.1" y="0" class="st18" width="3.5" height="3.5"/>
								</g>
							</g>
						</g>
					</g>
				</g>
			</g>
		</g>
	</g>
	<g transform="matrix(1, 0, 0, 1, 76.8614, 0.595259)">
		<g>
			<g id="termblock_1x2-3.5mm">
				<g transform="matrix(-1, 0, 0, -1, 22.1105, 19.8426)">
					<g>
						<g>
							<rect id="rect3" x="18.7" y="12.2" class="st19" width="2.3" height="5.1"/>
							<rect id="rect5" x="19.8" y="1.1" class="st19" width="2.3" height="2.3"/>
							<polygon id="polygon7" class="st20" points="21,0 1.1,0 1.1,13.6 0,13.6 0,15.9 1.1,15.9 1.1,18.4 21,18.4 21,15.9 
								19.8,15.9 19.8,13.6 21,13.6 							"/>
							<circle id="circle9" class="st21" cx="6.1" cy="9.9" r="3.7"/>
							<circle id="circle11" class="st21" cx="16" cy="9.9" r="3.7"/>
							<rect id="rect13" x="2.6" y="1.4" class="st19" width="7.4" height="2.8"/>
							<rect id="rect15" x="11.3" y="1.4" class="st19" width="7.4" height="2.8"/>
							<polygon id="polygon17" class="st19" points="1.1,19.8 4.7,19.8 4.7,18.1 7.5,18.1 7.5,19.8 14.6,19.8 14.6,18.1 17.4,18.1 
								17.4,19.8 21,19.8 21,17 1.1,17 							"/>
							<rect id="rect19" x="1.8" y="17.8" class="st22" width="8.5" height="1.7"/>
							<rect id="rect21" x="11.8" y="17.8" class="st22" width="8.5" height="1.7"/>
							<path id="path23" class="st23" d="M6.2,7L4.5,7.4l0.5,1.9L2.4,10c0,0.3,0,0.6,0.1,0.8s0.2,0.5,0.3,0.8L5.5,11L6,12.9l1.6-0.4
								l-0.5-1.9l2.6-0.7c0-0.3,0-0.6-0.1-0.8C9.6,8.7,9.5,8.4,9.3,8.2L6.7,8.9L6.2,7z"/>
							<path id="path25" class="st23" d="M13.5,8.4L13.1,10l1.9,0.5l-0.7,2.6c0.2,0.1,0.5,0.2,0.8,0.3s0.6,0.1,0.8,0.1l0.7-2.6
								l1.9,0.5L19,9.8l-1.9-0.5l0.7-2.6c-0.2-0.1-0.5-0.2-0.8-0.3c-0.3-0.1-0.6-0.1-0.8-0.1l-0.7,2.6L13.5,8.4z"/>
						</g>
					</g>
				</g>
			</g>
		</g>
	</g>
	<g transform="matrix(1, 0, 0, 1, 52.3435, 50.1255)">
		<g>
			<g id="_x33_x04">
				<g transform="matrix(-1, 0, 0, -1, 28.513, 21.429)">
					<g>
						<g>
							<g>
								<g>
									<polygon class="st24" points="21.3,19.9 21.3,8.8 21.3,5.4 21.3,1.5 19.8,0 15.9,0 14.4,1.5 14.4,5.4 14.4,8.8 14.4,19.9 
										15.9,21.4 19.8,21.4 									"/>
									<polygon class="st24" points="14.1,19.9 14.1,8.8 14.1,5.4 14.1,1.5 12.6,0 8.7,0 7.2,1.5 7.2,5.4 7.2,8.8 7.2,19.9 
										8.7,21.4 12.6,21.4 									"/>
									<polygon class="st24" points="7,19.9 7,8.8 7,5.4 7,1.5 5.4,0 1.5,0 0,1.5 0,5.4 0,8.8 0,19.9 1.5,21.4 5.4,21.4 									
										"/>
									<polygon class="st24" points="28.5,19.9 28.5,8.8 28.5,5.4 28.5,1.5 27,0 23.1,0 21.6,1.5 21.6,5.4 21.6,8.8 21.6,19.9 
										23.1,21.4 27,21.4 									"/>
								</g>
								<g>
									<rect x="2.3" y="2.4" class="st25" width="2.3" height="2.3"/>
									<rect x="2.3" y="9.6" class="st25" width="2.3" height="2.3"/>
									<rect x="9.5" y="2.4" class="st25" width="2.3" height="2.3"/>
									<rect x="9.5" y="9.6" class="st25" width="2.3" height="2.3"/>
									<rect x="16.7" y="2.4" class="st25" width="2.3" height="2.3"/>
									<rect x="16.7" y="9.6" class="st26" width="2.3" height="2.3"/>
									<rect x="17.3" y="10.1" class="st27" width="1.2" height="1.2"/>
									<polygon class="st28" points="19,9.6 18.4,10.1 18.4,11.3 19,11.9 									"/>
									<polygon class="st29" points="17.3,11.3 18.4,11.3 19,11.9 16.7,11.9 									"/>
									<polygon class="st30" points="17.3,10.1 17.3,11.3 16.7,11.9 16.7,9.6 									"/>
									<polygon class="st11" points="19,9.6 18.4,10.1 17.3,10.1 16.7,9.6 									"/>
									<rect x="17.3" y="2.9" class="st27" width="1.2" height="1.2"/>
									<polygon class="st28" points="19,2.4 18.4,2.9 18.4,4.1 19,4.7 									"/>
									<polygon class="st29" points="17.3,4.1 18.4,4.1 19,4.7 16.7,4.7 									"/>
									<polygon class="st30" points="17.3,2.9 17.3,4.1 16.7,4.7 16.7,2.4 									"/>
									<polygon class="st11" points="19,2.4 18.4,2.9 17.3,2.9 16.7,2.4 									"/>
									<rect x="23.9" y="2.4" class="st25" width="2.3" height="2.3"/>
									<rect x="23.9" y="9.6" class="st26" width="2.3" height="2.3"/>
									<rect x="24.5" y="10.1" class="st27" width="1.2" height="1.2"/>
									<polygon class="st28" points="26.2,9.6 25.6,10.1 25.6,11.3 26.2,11.9 									"/>
									<polygon class="st29" points="24.5,11.3 25.6,11.3 26.2,11.9 23.9,11.9 									"/>
									<polygon class="st30" points="24.5,10.1 24.5,11.3 23.9,11.9 23.9,9.6 									"/>
									<polygon class="st11" points="26.2,9.6 25.6,10.1 24.5,10.1 23.9,9.6 									"/>
									<rect x="24.5" y="2.9" class="st27" width="1.2" height="1.2"/>
									<polygon class="st28" points="26.2,2.4 25.6,2.9 25.6,4.1 26.2,4.7 									"/>
									<polygon class="st29" points="24.5,4.1 25.6,4.1 26.2,4.7 23.9,4.7 									"/>
									<polygon class="st30" points="24.5,2.9 24.5,4.1 23.9,4.7 23.9,2.4 									"/>
									<polygon class="st11" points="26.2,2.4 25.6,2.9 24.5,2.9 23.9,2.4 									"/>
									<rect x="10.1" y="10.1" class="st27" width="1.2" height="1.2"/>
									<polygon class="st28" points="11.8,9.6 11.2,10.1 11.2,11.3 11.8,11.9 									"/>
									<polygon class="st29" points="10.1,11.3 11.2,11.3 11.8,11.9 9.5,11.9 									"/>
									<polygon class="st30" points="10.1,10.1 10.1,11.3 9.5,11.9 9.5,9.6 									"/>
									<polygon class="st11" points="11.8,9.6 11.2,10.1 10.1,10.1 9.5,9.6 									"/>
									<rect x="10.1" y="2.9" class="st27" width="1.2" height="1.2"/>
									<polygon class="st28" points="11.8,2.4 11.2,2.9 11.2,4.1 11.8,4.7 									"/>
									<polygon class="st29" points="10.1,4.1 11.2,4.1 11.8,4.7 9.5,4.7 									"/>
									<polygon class="st30" points="10.1,2.9 10.1,4.1 9.5,4.7 9.5,2.4 									"/>
									<polygon class="st11" points="11.8,2.4 11.2,2.9 10.1,2.9 9.5,2.4 									"/>
									<rect x="2.9" y="10.1" class="st27" width="1.2" height="1.2"/>
									<polygon class="st28" points="4.6,9.6 4,10.1 4,11.3 4.6,11.9 									"/>
									<polygon class="st29" points="2.9,11.3 4,11.3 4.6,11.9 2.3,11.9 									"/>
									<polygon class="st30" points="2.9,10.1 2.9,11.3 2.3,11.9 2.3,9.6 									"/>
									<polygon class="st11" points="4.6,9.6 4,10.1 2.9,10.1 2.3,9.6 									"/>
									<rect x="2.3" y="16.8" class="st25" width="2.3" height="2.3"/>
									<rect x="9.5" y="16.8" class="st25" width="2.3" height="2.3"/>
									<rect x="16.7" y="16.8" class="st26" width="2.3" height="2.3"/>
									<rect x="17.3" y="17.3" class="st27" width="1.2" height="1.2"/>
									<polygon class="st28" points="19,16.8 18.4,17.3 18.4,18.5 19,19.1 									"/>
									<polygon class="st29" points="17.3,18.5 18.4,18.5 19,19.1 16.7,19.1 									"/>
									<polygon class="st30" points="17.3,17.3 17.3,18.5 16.7,19.1 16.7,16.8 									"/>
									<polygon class="st11" points="19,16.8 18.4,17.3 17.3,17.3 16.7,16.8 									"/>
									<rect x="23.9" y="16.8" class="st26" width="2.3" height="2.3"/>
									<rect x="24.5" y="17.3" class="st27" width="1.2" height="1.2"/>
									<polygon class="st28" points="26.2,16.8 25.6,17.3 25.6,18.5 26.2,19.1 									"/>
									<polygon class="st29" points="24.5,18.5 25.6,18.5 26.2,19.1 23.9,19.1 									"/>
									<polygon class="st30" points="24.5,17.3 24.5,18.5 23.9,19.1 23.9,16.8 									"/>
									<polygon class="st11" points="26.2,16.8 25.6,17.3 24.5,17.3 23.9,16.8 									"/>
									<rect x="10.1" y="17.3" class="st27" width="1.2" height="1.2"/>
									<polygon class="st28" points="11.8,16.8 11.2,17.3 11.2,18.5 11.8,19.1 									"/>
									<polygon class="st29" points="10.1,18.5 11.2,18.5 11.8,19.1 9.5,19.1 									"/>
									<polygon class="st30" points="10.1,17.3 10.1,18.5 9.5,19.1 9.5,16.8 									"/>
									<polygon class="st11" points="11.8,16.8 11.2,17.3 10.1,17.3 9.5,16.8 									"/>
									<rect x="2.9" y="17.3" class="st27" width="1.2" height="1.2"/>
									<polygon class="st28" points="4.6,16.8 4,17.3 4,18.5 4.6,19.1 									"/>
									<polygon class="st29" points="2.9,18.5 4,18.5 4.6,19.1 2.3,19.1 									"/>
									<polygon class="st30" points="2.9,17.3 2.9,18.5 2.3,19.1 2.3,16.8 									"/>
									<polygon class="st11" points="4.6,16.8 4,17.3 2.9,17.3 2.3,16.8 									"/>
									<rect x="2.9" y="2.9" class="st27" width="1.2" height="1.2"/>
									<polygon class="st28" points="4.6,2.4 4,2.9 4,4.1 4.6,4.7 									"/>
									<polygon class="st29" points="2.9,4.1 4,4.1 4.6,4.7 2.3,4.7 									"/>
									<polygon class="st30" points="2.9,2.9 2.9,4.1 2.3,4.7 2.3,2.4 									"/>
									<polygon class="st11" points="4.6,2.4 4,2.9 2.9,2.9 2.3,2.4 									"/>
								</g>
							</g>
						</g>
					</g>
				</g>
			</g>
		</g>
	</g>
	<g transform="matrix(1, 0, 0, 1, 16.3435, 50.1255)">
		<g>
			<g id="_x33_x04_1_">
				<g transform="matrix(-1, 0, 0, -1, 28.513, 21.429)">
					<g>
						<g>
							<g>
								<g>
									<polygon class="st24" points="21.3,19.9 21.3,8.8 21.3,5.4 21.3,1.5 19.8,0 15.9,0 14.4,1.5 14.4,5.4 14.4,8.8 14.4,19.9 
										15.9,21.4 19.8,21.4 									"/>
									<polygon class="st24" points="14.1,19.9 14.1,8.8 14.1,5.4 14.1,1.5 12.6,0 8.7,0 7.2,1.5 7.2,5.4 7.2,8.8 7.2,19.9 
										8.7,21.4 12.6,21.4 									"/>
									<polygon class="st24" points="7,19.9 7,8.8 7,5.4 7,1.5 5.4,0 1.5,0 0,1.5 0,5.4 0,8.8 0,19.9 1.5,21.4 5.4,21.4 									
										"/>
									<polygon class="st24" points="28.5,19.9 28.5,8.8 28.5,5.4 28.5,1.5 27,0 23.1,0 21.6,1.5 21.6,5.4 21.6,8.8 21.6,19.9 
										23.1,21.4 27,21.4 									"/>
								</g>
								<g>
									<rect x="2.3" y="2.4" class="st25" width="2.3" height="2.3"/>
									<rect x="2.3" y="9.6" class="st25" width="2.3" height="2.3"/>
									<rect x="9.5" y="2.4" class="st25" width="2.3" height="2.3"/>
									<rect x="9.5" y="9.6" class="st25" width="2.3" height="2.3"/>
									<rect x="16.7" y="2.4" class="st25" width="2.3" height="2.3"/>
									<rect x="16.7" y="9.6" class="st26" width="2.3" height="2.3"/>
									<rect x="17.3" y="10.1" class="st27" width="1.2" height="1.2"/>
									<polygon class="st28" points="19,9.6 18.4,10.1 18.4,11.3 19,11.9 									"/>
									<polygon class="st29" points="17.3,11.3 18.4,11.3 19,11.9 16.7,11.9 									"/>
									<polygon class="st30" points="17.3,10.1 17.3,11.3 16.7,11.9 16.7,9.6 									"/>
									<polygon class="st11" points="19,9.6 18.4,10.1 17.3,10.1 16.7,9.6 									"/>
									<rect x="17.3" y="2.9" class="st27" width="1.2" height="1.2"/>
									<polygon class="st28" points="19,2.4 18.4,2.9 18.4,4.1 19,4.7 									"/>
									<polygon class="st29" points="17.3,4.1 18.4,4.1 19,4.7 16.7,4.7 									"/>
									<polygon class="st30" points="17.3,2.9 17.3,4.1 16.7,4.7 16.7,2.4 									"/>
									<polygon class="st11" points="19,2.4 18.4,2.9 17.3,2.9 16.7,2.4 									"/>
									<rect x="23.9" y="2.4" class="st25" width="2.3" height="2.3"/>
									<rect x="23.9" y="9.6" class="st26" width="2.3" height="2.3"/>
									<rect x="24.5" y="10.1" class="st27" width="1.2" height="1.2"/>
									<polygon class="st28" points="26.2,9.6 25.6,10.1 25.6,11.3 26.2,11.9 									"/>
									<polygon class="st29" points="24.5,11.3 25.6,11.3 26.2,11.9 23.9,11.9 									"/>
									<polygon class="st30" points="24.5,10.1 24.5,11.3 23.9,11.9 23.9,9.6 									"/>
									<polygon class="st11" points="26.2,9.6 25.6,10.1 24.5,10.1 23.9,9.6 									"/>
									<rect x="24.5" y="2.9" class="st27" width="1.2" height="1.2"/>
									<polygon class="st28" points="26.2,2.4 25.6,2.9 25.6,4.1 26.2,4.7 									"/>
									<polygon class="st29" points="24.5,4.1 25.6,4.1 26.2,4.7 23.9,4.7 									"/>
									<polygon class="st30" points="24.5,2.9 24.5,4.1 23.9,4.7 23.9,2.4 									"/>
									<polygon class="st11" points="26.2,2.4 25.6,2.9 24.5,2.9 23.9,2.4 									"/>
									<rect x="10.1" y="10.1" class="st27" width="1.2" height="1.2"/>
									<polygon class="st28" points="11.8,9.6 11.2,10.1 11.2,11.3 11.8,11.9 									"/>
									<polygon class="st29" points="10.1,11.3 11.2,11.3 11.8,11.9 9.5,11.9 									"/>
									<polygon class="st30" points="10.1,10.1 10.1,11.3 9.5,11.9 9.5,9.6 									"/>
									<polygon class="st11" points="11.8,9.6 11.2,10.1 10.1,10.1 9.5,9.6 									"/>
									<rect x="10.1" y="2.9" class="st27" width="1.2" height="1.2"/>
									<polygon class="st28" points="11.8,2.4 11.2,2.9 11.2,4.1 11.8,4.7 									"/>
									<polygon class="st29" points="10.1,4.1 11.2,4.1 11.8,4.7 9.5,4.7 									"/>
									<polygon class="st30" points="10.1,2.9 10.1,4.1 9.5,4.7 9.5,2.4 									"/>
									<polygon class="st11" points="11.8,2.4 11.2,2.9 10.1,2.9 9.5,2.4 									"/>
									<rect x="2.9" y="10.1" class="st27" width="1.2" height="1.2"/>
									<polygon class="st28" points="4.6,9.6 4,10.1 4,11.3 4.6,11.9 									"/>
									<polygon class="st29" points="2.9,11.3 4,11.3 4.6,11.9 2.3,11.9 									"/>
									<polygon class="st30" points="2.9,10.1 2.9,11.3 2.3,11.9 2.3,9.6 									"/>
									<polygon class="st11" points="4.6,9.6 4,10.1 2.9,10.1 2.3,9.6 									"/>
									<rect x="2.3" y="16.8" class="st25" width="2.3" height="2.3"/>
									<rect x="9.5" y="16.8" class="st25" width="2.3" height="2.3"/>
									<rect x="16.7" y="16.8" class="st26" width="2.3" height="2.3"/>
									<rect x="17.3" y="17.3" class="st27" width="1.2" height="1.2"/>
									<polygon class="st28" points="19,16.8 18.4,17.3 18.4,18.5 19,19.1 									"/>
									<polygon class="st29" points="17.3,18.5 18.4,18.5 19,19.1 16.7,19.1 									"/>
									<polygon class="st30" points="17.3,17.3 17.3,18.5 16.7,19.1 16.7,16.8 									"/>
									<polygon class="st11" points="19,16.8 18.4,17.3 17.3,17.3 16.7,16.8 									"/>
									<rect x="23.9" y="16.8" class="st26" width="2.3" height="2.3"/>
									<rect x="24.5" y="17.3" class="st27" width="1.2" height="1.2"/>
									<polygon class="st28" points="26.2,16.8 25.6,17.3 25.6,18.5 26.2,19.1 									"/>
									<polygon class="st29" points="24.5,18.5 25.6,18.5 26.2,19.1 23.9,19.1 									"/>
									<polygon class="st30" points="24.5,17.3 24.5,18.5 23.9,19.1 23.9,16.8 									"/>
									<polygon class="st11" points="26.2,16.8 25.6,17.3 24.5,17.3 23.9,16.8 									"/>
									<rect x="10.1" y="17.3" class="st27" width="1.2" height="1.2"/>
									<polygon class="st28" points="11.8,16.8 11.2,17.3 11.2,18.5 11.8,19.1 									"/>
									<polygon class="st29" points="10.1,18.5 11.2,18.5 11.8,19.1 9.5,19.1 									"/>
									<polygon class="st30" points="10.1,17.3 10.1,18.5 9.5,19.1 9.5,16.8 									"/>
									<polygon class="st11" points="11.8,16.8 11.2,17.3 10.1,17.3 9.5,16.8 									"/>
									<rect x="2.9" y="17.3" class="st27" width="1.2" height="1.2"/>
									<polygon class="st28" points="4.6,16.8 4,17.3 4,18.5 4.6,19.1 									"/>
									<polygon class="st29" points="2.9,18.5 4,18.5 4.6,19.1 2.3,19.1 									"/>
									<polygon class="st30" points="2.9,17.3 2.9,18.5 2.3,19.1 2.3,16.8 									"/>
									<polygon class="st11" points="4.6,16.8 4,17.3 2.9,17.3 2.3,16.8 									"/>
									<rect x="2.9" y="2.9" class="st27" width="1.2" height="1.2"/>
									<polygon class="st28" points="4.6,2.4 4,2.9 4,4.1 4.6,4.7 									"/>
									<polygon class="st29" points="2.9,4.1 4,4.1 4.6,4.7 2.3,4.7 									"/>
									<polygon class="st30" points="2.9,2.9 2.9,4.1 2.3,4.7 2.3,2.4 									"/>
									<polygon class="st11" points="4.6,2.4 4,2.9 2.9,2.9 2.3,2.4 									"/>
								</g>
							</g>
						</g>
					</g>
				</g>
			</g>
		</g>
	</g>
	<g transform="matrix(1, 0, 0, 1, 131.543, 50.1255)">
		<g>
			<g id="_x33_x04_2_">
				<g transform="matrix(-1, 0, 0, -1, 28.513, 21.429)">
					<g>
						<g>
							<g>
								<g>
									<polygon class="st24" points="21.3,19.9 21.3,8.8 21.3,5.4 21.3,1.5 19.8,0 15.9,0 14.4,1.5 14.4,5.4 14.4,8.8 14.4,19.9 
										15.9,21.4 19.8,21.4 									"/>
									<polygon class="st24" points="14.1,19.9 14.1,8.8 14.1,5.4 14.1,1.5 12.6,0 8.7,0 7.2,1.5 7.2,5.4 7.2,8.8 7.2,19.9 
										8.7,21.4 12.6,21.4 									"/>
									<polygon class="st24" points="7,19.9 7,8.8 7,5.4 7,1.5 5.4,0 1.5,0 0,1.5 0,5.4 0,8.8 0,19.9 1.5,21.4 5.4,21.4 									
										"/>
									<polygon class="st24" points="28.5,19.9 28.5,8.8 28.5,5.4 28.5,1.5 27,0 23.1,0 21.6,1.5 21.6,5.4 21.6,8.8 21.6,19.9 
										23.1,21.4 27,21.4 									"/>
								</g>
								<g>
									<rect x="2.3" y="2.4" class="st25" width="2.3" height="2.3"/>
									<rect x="2.3" y="9.6" class="st25" width="2.3" height="2.3"/>
									<rect x="9.5" y="2.4" class="st25" width="2.3" height="2.3"/>
									<rect x="9.5" y="9.6" class="st25" width="2.3" height="2.3"/>
									<rect x="16.7" y="2.4" class="st25" width="2.3" height="2.3"/>
									<rect x="16.7" y="9.6" class="st26" width="2.3" height="2.3"/>
									<rect x="17.3" y="10.1" class="st27" width="1.2" height="1.2"/>
									<polygon class="st28" points="19,9.6 18.4,10.1 18.4,11.3 19,11.9 									"/>
									<polygon class="st29" points="17.3,11.3 18.4,11.3 19,11.9 16.7,11.9 									"/>
									<polygon class="st30" points="17.3,10.1 17.3,11.3 16.7,11.9 16.7,9.6 									"/>
									<polygon class="st11" points="19,9.6 18.4,10.1 17.3,10.1 16.7,9.6 									"/>
									<rect x="17.3" y="2.9" class="st27" width="1.2" height="1.2"/>
									<polygon class="st28" points="19,2.4 18.4,2.9 18.4,4.1 19,4.7 									"/>
									<polygon class="st29" points="17.3,4.1 18.4,4.1 19,4.7 16.7,4.7 									"/>
									<polygon class="st30" points="17.3,2.9 17.3,4.1 16.7,4.7 16.7,2.4 									"/>
									<polygon class="st11" points="19,2.4 18.4,2.9 17.3,2.9 16.7,2.4 									"/>
									<rect x="23.9" y="2.4" class="st25" width="2.3" height="2.3"/>
									<rect x="23.9" y="9.6" class="st26" width="2.3" height="2.3"/>
									<rect x="24.5" y="10.1" class="st27" width="1.2" height="1.2"/>
									<polygon class="st28" points="26.2,9.6 25.6,10.1 25.6,11.3 26.2,11.9 									"/>
									<polygon class="st29" points="24.5,11.3 25.6,11.3 26.2,11.9 23.9,11.9 									"/>
									<polygon class="st30" points="24.5,10.1 24.5,11.3 23.9,11.9 23.9,9.6 									"/>
									<polygon class="st11" points="26.2,9.6 25.6,10.1 24.5,10.1 23.9,9.6 									"/>
									<rect x="24.5" y="2.9" class="st27" width="1.2" height="1.2"/>
									<polygon class="st28" points="26.2,2.4 25.6,2.9 25.6,4.1 26.2,4.7 									"/>
									<polygon class="st29" points="24.5,4.1 25.6,4.1 26.2,4.7 23.9,4.7 									"/>
									<polygon class="st30" points="24.5,2.9 24.5,4.1 23.9,4.7 23.9,2.4 									"/>
									<polygon class="st11" points="26.2,2.4 25.6,2.9 24.5,2.9 23.9,2.4 									"/>
									<rect x="10.1" y="10.1" class="st27" width="1.2" height="1.2"/>
									<polygon class="st28" points="11.8,9.6 11.2,10.1 11.2,11.3 11.8,11.9 									"/>
									<polygon class="st29" points="10.1,11.3 11.2,11.3 11.8,11.9 9.5,11.9 									"/>
									<polygon class="st30" points="10.1,10.1 10.1,11.3 9.5,11.9 9.5,9.6 									"/>
									<polygon class="st11" points="11.8,9.6 11.2,10.1 10.1,10.1 9.5,9.6 									"/>
									<rect x="10.1" y="2.9" class="st27" width="1.2" height="1.2"/>
									<polygon class="st28" points="11.8,2.4 11.2,2.9 11.2,4.1 11.8,4.7 									"/>
									<polygon class="st29" points="10.1,4.1 11.2,4.1 11.8,4.7 9.5,4.7 									"/>
									<polygon class="st30" points="10.1,2.9 10.1,4.1 9.5,4.7 9.5,2.4 									"/>
									<polygon class="st11" points="11.8,2.4 11.2,2.9 10.1,2.9 9.5,2.4 									"/>
									<rect x="2.9" y="10.1" class="st27" width="1.2" height="1.2"/>
									<polygon class="st28" points="4.6,9.6 4,10.1 4,11.3 4.6,11.9 									"/>
									<polygon class="st29" points="2.9,11.3 4,11.3 4.6,11.9 2.3,11.9 									"/>
									<polygon class="st30" points="2.9,10.1 2.9,11.3 2.3,11.9 2.3,9.6 									"/>
									<polygon class="st11" points="4.6,9.6 4,10.1 2.9,10.1 2.3,9.6 									"/>
									<rect x="2.3" y="16.8" class="st25" width="2.3" height="2.3"/>
									<rect x="9.5" y="16.8" class="st25" width="2.3" height="2.3"/>
									<rect x="16.7" y="16.8" class="st26" width="2.3" height="2.3"/>
									<rect x="17.3" y="17.3" class="st27" width="1.2" height="1.2"/>
									<polygon class="st28" points="19,16.8 18.4,17.3 18.4,18.5 19,19.1 									"/>
									<polygon class="st29" points="17.3,18.5 18.4,18.5 19,19.1 16.7,19.1 									"/>
									<polygon class="st30" points="17.3,17.3 17.3,18.5 16.7,19.1 16.7,16.8 									"/>
									<polygon class="st11" points="19,16.8 18.4,17.3 17.3,17.3 16.7,16.8 									"/>
									<rect x="23.9" y="16.8" class="st26" width="2.3" height="2.3"/>
									<rect x="24.5" y="17.3" class="st27" width="1.2" height="1.2"/>
									<polygon class="st28" points="26.2,16.8 25.6,17.3 25.6,18.5 26.2,19.1 									"/>
									<polygon class="st29" points="24.5,18.5 25.6,18.5 26.2,19.1 23.9,19.1 									"/>
									<polygon class="st30" points="24.5,17.3 24.5,18.5 23.9,19.1 23.9,16.8 									"/>
									<polygon class="st11" points="26.2,16.8 25.6,17.3 24.5,17.3 23.9,16.8 									"/>
									<rect x="10.1" y="17.3" class="st27" width="1.2" height="1.2"/>
									<polygon class="st28" points="11.8,16.8 11.2,17.3 11.2,18.5 11.8,19.1 									"/>
									<polygon class="st29" points="10.1,18.5 11.2,18.5 11.8,19.1 9.5,19.1 									"/>
									<polygon class="st30" points="10.1,17.3 10.1,18.5 9.5,19.1 9.5,16.8 									"/>
									<polygon class="st11" points="11.8,16.8 11.2,17.3 10.1,17.3 9.5,16.8 									"/>
									<rect x="2.9" y="17.3" class="st27" width="1.2" height="1.2"/>
									<polygon class="st28" points="4.6,16.8 4,17.3 4,18.5 4.6,19.1 									"/>
									<polygon class="st29" points="2.9,18.5 4,18.5 4.6,19.1 2.3,19.1 									"/>
									<polygon class="st30" points="2.9,17.3 2.9,18.5 2.3,19.1 2.3,16.8 									"/>
									<polygon class="st11" points="4.6,16.8 4,17.3 2.9,17.3 2.3,16.8 									"/>
									<rect x="2.9" y="2.9" class="st27" width="1.2" height="1.2"/>
									<polygon class="st28" points="4.6,2.4 4,2.9 4,4.1 4.6,4.7 									"/>
									<polygon class="st29" points="2.9,4.1 4,4.1 4.6,4.7 2.3,4.7 									"/>
									<polygon class="st30" points="2.9,2.9 2.9,4.1 2.3,4.7 2.3,2.4 									"/>
									<polygon class="st11" points="4.6,2.4 4,2.9 2.9,2.9 2.3,2.4 									"/>
								</g>
							</g>
						</g>
					</g>
				</g>
			</g>
		</g>
	</g>
	<g transform="matrix(1, 0, 0, 1, 95.5433, 50.1255)">
		<g>
			<g id="_x33_x04_3_">
				<g transform="matrix(-1, 0, 0, -1, 28.513, 21.429)">
					<g>
						<g>
							<g>
								<g>
									<polygon class="st24" points="21.3,19.9 21.3,8.8 21.3,5.4 21.3,1.5 19.8,0 15.9,0 14.4,1.5 14.4,5.4 14.4,8.8 14.4,19.9 
										15.9,21.4 19.8,21.4 									"/>
									<polygon class="st24" points="14.1,19.9 14.1,8.8 14.1,5.4 14.1,1.5 12.6,0 8.7,0 7.2,1.5 7.2,5.4 7.2,8.8 7.2,19.9 
										8.7,21.4 12.6,21.4 									"/>
									<polygon class="st24" points="7,19.9 7,8.8 7,5.4 7,1.5 5.4,0 1.5,0 0,1.5 0,5.4 0,8.8 0,19.9 1.5,21.4 5.4,21.4 									
										"/>
									<polygon class="st24" points="28.5,19.9 28.5,8.8 28.5,5.4 28.5,1.5 27,0 23.1,0 21.6,1.5 21.6,5.4 21.6,8.8 21.6,19.9 
										23.1,21.4 27,21.4 									"/>
								</g>
								<g>
									<rect x="2.3" y="2.4" class="st25" width="2.3" height="2.3"/>
									<rect x="2.3" y="9.6" class="st25" width="2.3" height="2.3"/>
									<rect x="9.5" y="2.4" class="st25" width="2.3" height="2.3"/>
									<rect x="9.5" y="9.6" class="st25" width="2.3" height="2.3"/>
									<rect x="16.7" y="2.4" class="st25" width="2.3" height="2.3"/>
									<rect x="16.7" y="9.6" class="st26" width="2.3" height="2.3"/>
									<rect x="17.3" y="10.1" class="st27" width="1.2" height="1.2"/>
									<polygon class="st28" points="19,9.6 18.4,10.1 18.4,11.3 19,11.9 									"/>
									<polygon class="st29" points="17.3,11.3 18.4,11.3 19,11.9 16.7,11.9 									"/>
									<polygon class="st30" points="17.3,10.1 17.3,11.3 16.7,11.9 16.7,9.6 									"/>
									<polygon class="st11" points="19,9.6 18.4,10.1 17.3,10.1 16.7,9.6 									"/>
									<rect x="17.3" y="2.9" class="st27" width="1.2" height="1.2"/>
									<polygon class="st28" points="19,2.4 18.4,2.9 18.4,4.1 19,4.7 									"/>
									<polygon class="st29" points="17.3,4.1 18.4,4.1 19,4.7 16.7,4.7 									"/>
									<polygon class="st30" points="17.3,2.9 17.3,4.1 16.7,4.7 16.7,2.4 									"/>
									<polygon class="st11" points="19,2.4 18.4,2.9 17.3,2.9 16.7,2.4 									"/>
									<rect x="23.9" y="2.4" class="st25" width="2.3" height="2.3"/>
									<rect x="23.9" y="9.6" class="st26" width="2.3" height="2.3"/>
									<rect x="24.5" y="10.1" class="st27" width="1.2" height="1.2"/>
									<polygon class="st28" points="26.2,9.6 25.6,10.1 25.6,11.3 26.2,11.9 									"/>
									<polygon class="st29" points="24.5,11.3 25.6,11.3 26.2,11.9 23.9,11.9 									"/>
									<polygon class="st30" points="24.5,10.1 24.5,11.3 23.9,11.9 23.9,9.6 									"/>
									<polygon class="st11" points="26.2,9.6 25.6,10.1 24.5,10.1 23.9,9.6 									"/>
									<rect x="24.5" y="2.9" class="st27" width="1.2" height="1.2"/>
									<polygon class="st28" points="26.2,2.4 25.6,2.9 25.6,4.1 26.2,4.7 									"/>
									<polygon class="st29" points="24.5,4.1 25.6,4.1 26.2,4.7 23.9,4.7 									"/>
									<polygon class="st30" points="24.5,2.9 24.5,4.1 23.9,4.7 23.9,2.4 									"/>
									<polygon class="st11" points="26.2,2.4 25.6,2.9 24.5,2.9 23.9,2.4 									"/>
									<rect x="10.1" y="10.1" class="st27" width="1.2" height="1.2"/>
									<polygon class="st28" points="11.8,9.6 11.2,10.1 11.2,11.3 11.8,11.9 									"/>
									<polygon class="st29" points="10.1,11.3 11.2,11.3 11.8,11.9 9.5,11.9 									"/>
									<polygon class="st30" points="10.1,10.1 10.1,11.3 9.5,11.9 9.5,9.6 									"/>
									<polygon class="st11" points="11.8,9.6 11.2,10.1 10.1,10.1 9.5,9.6 									"/>
									<rect x="10.1" y="2.9" class="st27" width="1.2" height="1.2"/>
									<polygon class="st28" points="11.8,2.4 11.2,2.9 11.2,4.1 11.8,4.7 									"/>
									<polygon class="st29" points="10.1,4.1 11.2,4.1 11.8,4.7 9.5,4.7 									"/>
									<polygon class="st30" points="10.1,2.9 10.1,4.1 9.5,4.7 9.5,2.4 									"/>
									<polygon class="st11" points="11.8,2.4 11.2,2.9 10.1,2.9 9.5,2.4 									"/>
									<rect x="2.9" y="10.1" class="st27" width="1.2" height="1.2"/>
									<polygon class="st28" points="4.6,9.6 4,10.1 4,11.3 4.6,11.9 									"/>
									<polygon class="st29" points="2.9,11.3 4,11.3 4.6,11.9 2.3,11.9 									"/>
									<polygon class="st30" points="2.9,10.1 2.9,11.3 2.3,11.9 2.3,9.6 									"/>
									<polygon class="st11" points="4.6,9.6 4,10.1 2.9,10.1 2.3,9.6 									"/>
									<rect x="2.3" y="16.8" class="st25" width="2.3" height="2.3"/>
									<rect x="9.5" y="16.8" class="st25" width="2.3" height="2.3"/>
									<rect x="16.7" y="16.8" class="st26" width="2.3" height="2.3"/>
									<rect x="17.3" y="17.3" class="st27" width="1.2" height="1.2"/>
									<polygon class="st28" points="19,16.8 18.4,17.3 18.4,18.5 19,19.1 									"/>
									<polygon class="st29" points="17.3,18.5 18.4,18.5 19,19.1 16.7,19.1 									"/>
									<polygon class="st30" points="17.3,17.3 17.3,18.5 16.7,19.1 16.7,16.8 									"/>
									<polygon class="st11" points="19,16.8 18.4,17.3 17.3,17.3 16.7,16.8 									"/>
									<rect x="23.9" y="16.8" class="st26" width="2.3" height="2.3"/>
									<rect x="24.5" y="17.3" class="st27" width="1.2" height="1.2"/>
									<polygon class="st28" points="26.2,16.8 25.6,17.3 25.6,18.5 26.2,19.1 									"/>
									<polygon class="st29" points="24.5,18.5 25.6,18.5 26.2,19.1 23.9,19.1 									"/>
									<polygon class="st30" points="24.5,17.3 24.5,18.5 23.9,19.1 23.9,16.8 									"/>
									<polygon class="st11" points="26.2,16.8 25.6,17.3 24.5,17.3 23.9,16.8 									"/>
									<rect x="10.1" y="17.3" class="st27" width="1.2" height="1.2"/>
									<polygon class="st28" points="11.8,16.8 11.2,17.3 11.2,18.5 11.8,19.1 									"/>
									<polygon class="st29" points="10.1,18.5 11.2,18.5 11.8,19.1 9.5,19.1 									"/>
									<polygon class="st30" points="10.1,17.3 10.1,18.5 9.5,19.1 9.5,16.8 									"/>
									<polygon class="st11" points="11.8,16.8 11.2,17.3 10.1,17.3 9.5,16.8 									"/>
									<rect x="2.9" y="17.3" class="st27" width="1.2" height="1.2"/>
									<polygon class="st28" points="4.6,16.8 4,17.3 4,18.5 4.6,19.1 									"/>
									<polygon class="st29" points="2.9,18.5 4,18.5 4.6,19.1 2.3,19.1 									"/>
									<polygon class="st30" points="2.9,17.3 2.9,18.5 2.3,19.1 2.3,16.8 									"/>
									<polygon class="st11" points="4.6,16.8 4,17.3 2.9,17.3 2.3,16.8 									"/>
									<rect x="2.9" y="2.9" class="st27" width="1.2" height="1.2"/>
									<polygon class="st28" points="4.6,2.4 4,2.9 4,4.1 4.6,4.7 									"/>
									<polygon class="st29" points="2.9,4.1 4,4.1 4.6,4.7 2.3,4.7 									"/>
									<polygon class="st30" points="2.9,2.9 2.9,4.1 2.3,4.7 2.3,2.4 									"/>
									<polygon class="st11" points="4.6,2.4 4,2.9 2.9,2.9 2.3,2.4 									"/>
								</g>
							</g>
						</g>
					</g>
				</g>
			</g>
		</g>
	</g>
	<g transform="matrix(1, 0, 0, 1, 104.069, 4.006)">
		<g>
			<g id="_x30_805-led-green">
				<g transform="matrix(-1, 0, 0, -1, 3.543, 5.668)">
					<g>
						<g>
							<path class="st17" d="M3.5,0.3v5.1c0,0.2-0.1,0.3-0.3,0.3h-3C0.1,5.7,0,5.5,0,5.4V0.3C0,0.1,0.1,0,0.3,0h3
								C3.4,0,3.5,0.1,3.5,0.3z"/>
							<rect x="0" y="1.1" class="st31" width="3.5" height="3.5"/>
							<circle class="st32" cx="1.8" cy="2.8" r="0.6"/>
						</g>
					</g>
				</g>
			</g>
		</g>
	</g>
	<g transform="matrix(1, 0, 0, 1, 48.7843, -2.84819)">
		<g>
			<g id="to252">
				<g transform="matrix(0, 1, -1, 0, 22.677, 4.252)">
					<g>
						<g>
							<g>
								<g transform="matrix(2.535182e-06 1 -1 2.535182e-06 25.369 19.9849)">
									<g>
										<rect x="-1.6" y="21.6" class="st17" width="8.5" height="2.1"/>
									</g>
								</g>
								<g transform="matrix(2.535182e-06 1 -1 2.535182e-06 29.4795 11.0554)">
									<g>
										<rect x="7.4" y="19.2" class="st17" width="3.7" height="2.1"/>
									</g>
								</g>
								<g transform="matrix(2.535182e-06 1 -1 2.535182e-06 38.4079 6.9459)">
									<g>
										<rect x="11.5" y="21.6" class="st17" width="8.5" height="2.1"/>
									</g>
								</g>
								<path class="st17" d="M2,5.7l0-4.3C2.5,0.9,2.8,0.6,3.4,0L15,0c0.6,0.6,0.9,0.9,1.4,1.4l0,4.3L2,5.7z"/>
								<g transform="matrix(2.535182e-06 1 -1 2.535182e-06 21.26 2.835)">
									<g>
										<rect x="1.4" y="2.8" class="st33" width="15.6" height="18.4"/>
									</g>
								</g>
							</g>
						</g>
					</g>
				</g>
			</g>
		</g>
	</g>
	<g transform="matrix(1, 0, 0, 1, 120.385, 18.2525)">
		<g>
			<g id="respack_4x0603">
				<g>
					<rect x="0" y="0" class="st17" width="1.8" height="4.5"/>
					<rect x="2.7" y="0" class="st17" width="1.4" height="4.5"/>
					<rect x="5" y="0" class="st17" width="1.4" height="4.5"/>
					<rect x="7.2" y="0" class="st17" width="1.8" height="4.5"/>
					<rect x="0" y="0.8" class="st34" width="9.1" height="2.8"/>
				</g>
			</g>
		</g>
	</g>
	<g transform="matrix(1, 0, 0, 1, 140.185, 18.2525)">
		<g>
			<g id="respack_4x0603_1_">
				<g>
					<rect x="0" y="0" class="st17" width="1.8" height="4.5"/>
					<rect x="2.7" y="0" class="st17" width="1.4" height="4.5"/>
					<rect x="5" y="0" class="st17" width="1.4" height="4.5"/>
					<rect x="7.2" y="0" class="st17" width="1.8" height="4.5"/>
					<rect x="0" y="0.8" class="st34" width="9.1" height="2.8"/>
				</g>
			</g>
		</g>
	</g>
	<g transform="matrix(1, 0, 0, 1, 16.6055, 11.3685)">
		<g>
			<g id="_x30_805-res">
				<g transform="matrix(0, -1, 1, 0, 1.063, 4.606)">
					<g>
						<g>
							<path class="st17" d="M5.4,3.5H0.3C0.1,3.5,0,3.4,0,3.3v-3C0,0.1,0.1,0,0.3,0h5.1c0.2,0,0.3,0.1,0.3,0.3v3
								C5.7,3.4,5.5,3.5,5.4,3.5z"/>
							<g transform="matrix(-2.535182e-06 -1 1 -2.535182e-06 1.063 4.606)">
								<g>
									<rect x="1.1" y="0" class="st33" width="3.5" height="3.5"/>
								</g>
							</g>
						</g>
					</g>
				</g>
			</g>
		</g>
	</g>
	<g transform="matrix(1, 0, 0, 1, 103.005, 16.9485)">
		<g>
			<g id="_x30_805-res_1_">
				<g transform="matrix(0, 1, -1, 0, 4.606, -1.063)">
					<g>
						<g>
							<path class="st17" d="M5.4,3.5H0.3C0.1,3.5,0,3.4,0,3.3v-3C0,0.1,0.1,0,0.3,0h5.1c0.2,0,0.3,0.1,0.3,0.3v3
								C5.7,3.4,5.5,3.5,5.4,3.5z"/>
							<g transform="matrix(2.535182e-06 1 -1 2.535182e-06 4.606 -1.063)">
								<g>
									<rect x="1.1" y="0" class="st33" width="3.5" height="3.5"/>
								</g>
							</g>
						</g>
					</g>
				</g>
			</g>
		</g>
	</g>
	<g transform="matrix(1, 0, 0, 1, 45.8645, 39.1325)">
		<g>
			<g id="respack_4x0603_2_">
				<g transform="matrix(-1, 0, 0, -1, 9.07099, 4.535)">
					<g>
						<g>
							<g>
								<rect x="0" y="0" class="st17" width="1.8" height="4.5"/>
								<rect x="2.7" y="0" class="st17" width="1.4" height="4.5"/>
								<rect x="5" y="0" class="st17" width="1.4" height="4.5"/>
								<rect x="7.2" y="0" class="st17" width="1.8" height="4.5"/>
								<rect x="0" y="0.9" class="st34" width="9.1" height="2.8"/>
							</g>
						</g>
					</g>
				</g>
			</g>
		</g>
	</g>
	<g transform="matrix(1, 0, 0, 1, 145.945, 39.4925)">
		<g>
			<g id="respack_4x0603_3_">
				<g transform="matrix(-1, 0, 0, -1, 9.07099, 4.535)">
					<g>
						<g>
							<g>
								<rect x="0" y="0" class="st17" width="1.8" height="4.5"/>
								<rect x="2.7" y="0" class="st17" width="1.4" height="4.5"/>
								<rect x="5" y="0" class="st17" width="1.4" height="4.5"/>
								<rect x="7.2" y="0" class="st17" width="1.8" height="4.5"/>
								<rect x="0" y="0.8" class="st34" width="9.1" height="2.8"/>
							</g>
						</g>
					</g>
				</g>
			</g>
		</g>
	</g>
	<g transform="matrix(1, 0, 0, 1, 27.8645, 39.1325)">
		<g>
			<g id="respack_4x0603_4_">
				<g transform="matrix(-1, 0, 0, -1, 9.07099, 4.535)">
					<g>
						<g>
							<g>
								<rect x="0" y="0" class="st17" width="1.8" height="4.5"/>
								<rect x="2.7" y="0" class="st17" width="1.4" height="4.5"/>
								<rect x="5" y="0" class="st17" width="1.4" height="4.5"/>
								<rect x="7.2" y="0" class="st17" width="1.8" height="4.5"/>
								<rect x="0" y="0.9" class="st34" width="9.1" height="2.8"/>
							</g>
						</g>
					</g>
				</g>
			</g>
		</g>
	</g>
	<g transform="matrix(1, 0, 0, 1, 124.345, 39.4925)">
		<g>
			<g id="respack_4x0603_5_">
				<g transform="matrix(-1, 0, 0, -1, 9.07099, 4.535)">
					<g>
						<g>
							<g>
								<rect x="0" y="0" class="st17" width="1.8" height="4.5"/>
								<rect x="2.7" y="0" class="st17" width="1.4" height="4.5"/>
								<rect x="5" y="0" class="st17" width="1.4" height="4.5"/>
								<rect x="7.2" y="0" class="st17" width="1.8" height="4.5"/>
								<rect x="0" y="0.8" class="st34" width="9.1" height="2.8"/>
							</g>
						</g>
					</g>
				</g>
			</g>
		</g>
	</g>
	<g transform="matrix(1, 0, 0, 1, 98.5313, 33.2502)">
		<g>
			<g id="adafruit_5mm">
				<path class="st17" d="M14.9,5.3c0-0.3-0.2-0.4-0.6-0.5c-0.3-0.1-2.2-0.7-2.2-0.7s-1.3-0.5-2.3,0.2C9.7,4.4,9.5,4.5,9.4,4.6
					c0.1-0.1,0.2-0.3,0.3-0.4c0.7-1,0.2-2.3,0.2-2.3S9.3,0,9.2-0.3C9.1-0.7,9-0.8,8.7-0.9c-0.3,0-0.4,0.1-0.6,0.4
					C7.9-0.2,6.7,1.4,6.7,1.4S5.9,2.5,6.2,3.7C6.3,3.8,6.3,4,6.4,4.1C6.3,4,6.2,3.8,6.1,3.7C5.4,2.7,4,2.8,4,2.8s-2,0-2.3,0
					c-0.4,0-0.6,0-0.7,0.3C0.8,3.3,0.9,3.5,1.1,3.8c0.2,0.2,1.4,1.9,1.4,1.9s0.8,1.2,2,1.2c0.2,0,0.3,0,0.5,0C4.9,6.9,4.7,6.9,4.5,7
					C3.4,7.4,3,8.8,3,8.8S2.4,10.7,2.3,11c-0.1,0.4-0.1,0.5,0.1,0.8s0.4,0.2,0.8,0.1C3.4,11.7,5.3,11,5.3,11S6.7,10.7,7,9.5
					C7.1,9.3,7.1,9.2,7.2,9c0,0.2,0,0.4,0,0.5c0,1.2,1.2,2,1.2,2s1.6,1.2,1.9,1.4c0.3,0.2,0.5,0.3,0.7,0.2s0.3-0.3,0.3-0.7
					c0-0.3,0-2.3,0-2.3s0.1-1.4-0.9-2.1C10.2,7.8,10,7.7,9.9,7.6c0.2,0.1,0.3,0.1,0.5,0.2c1.2,0.4,2.3-0.5,2.3-0.5s1.6-1.2,1.9-1.3
					C14.8,5.7,15,5.6,14.9,5.3z M8,3.8c0.2,0,0.3,0.5,0.2,1S7.9,5.8,7.7,5.8s-0.3-0.5-0.2-1C7.5,4.2,7.8,3.8,8,3.8z M5.2,5.2
					C5.3,5,5.8,5.1,6.3,5.3C6.7,5.6,7.1,5.9,7,6.1C6.9,6.3,6.4,6.3,5.9,6C5.4,5.8,5.1,5.4,5.2,5.2z M6.7,7.9c-0.4,0.4-0.8,0.6-1,0.4
					c-0.2-0.2,0-0.6,0.4-1c0.4-0.4,0.8-0.6,1-0.4C7.2,7.1,7.1,7.5,6.7,7.9z M8.8,8.8C8.6,8.9,8.2,8.6,8,8.1c-0.2-0.5-0.3-1-0.1-1.1
					C8.1,7,8.5,7.3,8.7,7.8S9,8.7,8.8,8.8z M9.3,6.6c-0.5,0.1-1,0-1-0.2c0-0.2,0.4-0.5,0.9-0.6s1,0,1,0.2C10.3,6.2,9.9,6.5,9.3,6.6z
					"/>
			</g>
		</g>
	</g>
	<g transform="matrix(1, 0, 0, 1, 74.4523, 26.351)">
		<g>
			<g id="tssop28">
				<g transform="matrix(0, 1, -1, 0, 22.677, -4.819)">
					<g>
						<g>
							<g>
								<path class="st17" d="M2.1,0v17.9H1.4V0H2.1z M3.3,0v17.9H4L4,0H3.3z M5.1,0v17.9h0.7L5.8,0H5.1z M6.9,0v17.9h0.7L7.7,0H6.9
									z M8.8,0v17.9h0.7L9.5,0H8.8z M10.6,0v17.9h0.7V0H10.6z M12.5,0v17.9h0.7V0H12.5z M14.3,0v17.9H15V0H14.3z M16.2,0v17.9h0.7
									V0H16.2z M18,0v17.9h0.7V0H18z M19.8,0v17.9h0.7V0H19.8z M21.7,0v17.9h0.7V0H21.7z M23.5,0v17.9h0.7V0H23.5z M25.4,0v17.9
									h0.7V0H25.4z"/>
								<g transform="matrix(2.535182e-06 1 -1 2.535182e-06 22.6771 -4.8187)">
									<g>
										<rect x="7.5" y="-4.3" class="st33" width="12.5" height="26.4"/>
									</g>
								</g>
								<circle cx="2.6" cy="13" r="1.1"/>
							</g>
						</g>
					</g>
				</g>
			</g>
		</g>
	</g>
</g>
</svg>
