<?xml version="1.0" encoding="utf-8"?>
<!-- Generator: Adobe Illustrator 23.0.1, SVG Export Plug-In . SVG Version: 6.00 Build 0)  -->
<svg version="1.1" id="Layer_1" xmlns="http://www.w3.org/2000/svg" xmlns:xlink="http://www.w3.org/1999/xlink" x="0px" y="0px"
	 viewBox="0 0 22.7 57.7" style="enable-background:new 0 0 22.7 57.7;" xml:space="preserve">
<style type="text/css">
	.st0{fill:#0A783D;}
	.st1{fill:#FFFFFF;}
	.st2{fill:#BE9349;}
	.st3{fill:#E5E5EC;}
	.st4{fill:#C0944C;}
	.st5{fill:#FDC26B;}
	.st6{fill:#FFD39B;}
	.st7{fill:#1D1D1D;}
	.st8{fill:#302F2F;}
	.st9{fill:#DEDEE7;}
	.st10{fill:#1E201F;}
	.st11{fill:#323332;}
	.st12{fill:#FDE500;}
	.st13{fill:#EA2227;}
	.st14{fill:none;stroke:#FFFFFF;stroke-miterlimit:10;}
</style>
<g>
	<g>
		<rect x="4.1" y="15" transform="matrix(6.123234e-17 -1 1 6.123234e-17 -12.2158 34.774)" class="st0" width="14.3" height="17"/>
	</g>
	<g>
		<path class="st1" d="M4.7,22H2.9v-0.3h1.8V22z M4.7,21.9H4.5v-0.4c0-0.1,0-0.2-0.1-0.3C4.3,21.1,4.2,21,4.1,21H3.5
			c-0.1,0-0.2,0-0.3,0.1c-0.1,0.1-0.1,0.2-0.1,0.3v0.4H2.9v-0.4c0-0.2,0.1-0.4,0.2-0.5c0.1-0.1,0.3-0.2,0.5-0.2H4
			c0.2,0,0.4,0.1,0.5,0.2c0.1,0.1,0.2,0.3,0.2,0.5V21.9z"/>
		<path class="st1" d="M2.9,20h1.8v0.3H3.2l0.2,0.3H3.1l-0.2-0.3V20z"/>
	</g>
	<g>
		<path class="st1" d="M18.7,28.6c0,0.1,0,0.2-0.1,0.3c-0.1,0.1-0.1,0.2-0.2,0.2c-0.1,0.1-0.2,0.1-0.4,0.1h-0.5
			c-0.1,0-0.3,0-0.4-0.1C17.1,29.1,17,29.1,17,29c-0.1-0.1-0.1-0.2-0.1-0.3c0-0.1,0-0.2,0.1-0.3c0-0.1,0.1-0.2,0.2-0.2
			c0.1-0.1,0.2-0.1,0.3-0.1v0.3c-0.1,0-0.1,0-0.2,0.1c0,0-0.1,0.1-0.1,0.1c0,0,0,0.1,0,0.2c0,0.1,0,0.2,0.1,0.3
			c0.1,0.1,0.2,0.1,0.3,0.1h0.5c0.1,0,0.2,0,0.3-0.1c0.1-0.1,0.1-0.2,0.1-0.3c0-0.1,0-0.2-0.1-0.2c0-0.1-0.1-0.1-0.2-0.1V28
			c0.1,0,0.2,0.1,0.3,0.1c0.1,0.1,0.1,0.1,0.2,0.2C18.7,28.4,18.7,28.5,18.7,28.6z"/>
		<path class="st1" d="M16.9,27.2h1.8v0.3h-1.5l0.2,0.3h-0.3l-0.2-0.3V27.2z"/>
	</g>
	<g>
		<polygon class="st1" points="7.1,26.5 7.1,26.6 5,26.6 5,25.4 5.1,25.4 5.1,26.5 		"/>
	</g>
	<g>
		<polygon class="st1" points="7.1,21.3 7.1,21.4 5.1,21.4 5.1,22.4 5,22.4 5,21.3 		"/>
	</g>
	<g>
		<polygon class="st1" points="15,22.4 15,22.5 12.5,22.5 12.5,25.4 15,25.4 15,25.5 12.4,25.5 12.4,22.4 		"/>
	</g>
	<g>
		<polygon class="st1" points="18.1,22.4 18.1,25.5 15.6,25.5 15.6,25.4 18.1,25.4 18.1,22.5 15.6,22.5 15.6,22.4 		"/>
	</g>
	<g>
		<g>
			<circle class="st2" cx="6.8" cy="28.5" r="1.3"/>
		</g>
		<g>
			<circle class="st3" cx="6.8" cy="28.5" r="1"/>
		</g>
	</g>
	<g>
		<g>
			<circle class="st2" cx="11.2" cy="28.5" r="1.3"/>
		</g>
		<g>
			<circle class="st3" cx="11.2" cy="28.5" r="1"/>
		</g>
	</g>
	<g>
		<g>
			<circle class="st2" cx="15.7" cy="28.5" r="1.3"/>
		</g>
		<g>
			<circle class="st3" cx="15.7" cy="28.5" r="1"/>
		</g>
	</g>
	<g>
		<g>
			<circle class="st2" cx="6.8" cy="18.1" r="1.3"/>
		</g>
		<g>
			<circle class="st3" cx="6.8" cy="18.1" r="1"/>
		</g>
	</g>
	<g>
		<g>
			<circle class="st2" cx="11.2" cy="18.1" r="1.3"/>
		</g>
		<g>
			<circle class="st3" cx="11.2" cy="18.1" r="1"/>
		</g>
	</g>
	<g>
		<g>
			<circle class="st2" cx="15.7" cy="18.1" r="1.3"/>
		</g>
		<g>
			<circle class="st3" cx="15.7" cy="18.1" r="1"/>
		</g>
	</g>
	<g>
		<g>
			
				<rect x="8.2" y="24.5" transform="matrix(6.123234e-17 -1 1 6.123234e-17 -16.4871 34.3605)" class="st2" width="1.5" height="1.9"/>
		</g>
		<g>
			<rect x="8.1" y="24.8" class="st3" width="1.6" height="1.2"/>
		</g>
	</g>
	<g>
		<g>
			
				<rect x="8.2" y="21.7" transform="matrix(6.123234e-17 -1 1 6.123234e-17 -13.6761 31.5495)" class="st2" width="1.5" height="1.9"/>
		</g>
		<g>
			<rect x="8.1" y="22" class="st3" width="1.6" height="1.2"/>
		</g>
	</g>
	<g>
		<g>
			
				<rect x="4.7" y="23" transform="matrix(6.123234e-17 -1 1 6.123234e-17 -18.5208 29.3911)" class="st2" width="1.5" height="1.9"/>
		</g>
		<g>
			<rect x="4.6" y="23.4" class="st3" width="1.6" height="1.2"/>
		</g>
	</g>
	<g>
		<g>
			<g>
				
					<rect x="-1.4" y="36.2" transform="matrix(6.123234e-17 -1 1 6.123234e-17 -29.8882 43.5707)" class="st4" width="16.5" height="1.1"/>
			</g>
			<g>
				
					<rect x="-1.4" y="36.3" transform="matrix(6.123234e-17 -1 1 6.123234e-17 -29.8882 43.5707)" class="st5" width="16.5" height="0.9"/>
			</g>
			<g>
				<polygon class="st5" points="7.2,45.7 7.4,45 6.3,45 6.5,45.7 				"/>
			</g>
			<g>
				<polygon class="st6" points="7.2,45.7 7.3,45 6.4,45 6.5,45.7 				"/>
			</g>
		</g>
		<g>
			<g>
				<path class="st7" d="M6,31.4h1.7c0.5,0.5,0.8,0.8,1.4,1.4v1.7c-0.5,0.5-0.8,0.8-1.4,1.4H6c-0.5-0.5-0.8-0.8-1.4-1.4v-1.7
					C5.2,32.2,5.5,31.9,6,31.4z"/>
			</g>
			<g>
				
					<rect x="4.6" y="31.7" transform="matrix(6.123234e-17 -1 1 6.123234e-17 -26.7728 40.4582)" class="st8" width="4.4" height="3.8"/>
			</g>
		</g>
	</g>
	<g>
		<g>
			<g>
				
					<rect x="3" y="36.2" transform="matrix(6.123234e-17 -1 1 6.123234e-17 -25.4672 47.9918)" class="st4" width="16.5" height="1.1"/>
			</g>
			<g>
				
					<rect x="3" y="36.3" transform="matrix(6.123234e-17 -1 1 6.123234e-17 -25.4672 47.9918)" class="st5" width="16.5" height="0.9"/>
			</g>
			<g>
				<polygon class="st5" points="11.6,45.7 11.8,45 10.7,45 10.9,45.7 				"/>
			</g>
			<g>
				<polygon class="st6" points="11.6,45.7 11.7,45 10.8,45 10.9,45.7 				"/>
			</g>
		</g>
		<g>
			<g>
				<path class="st7" d="M10.4,31.4h1.7c0.5,0.5,0.8,0.8,1.4,1.4v1.7c-0.5,0.5-0.8,0.8-1.4,1.4h-1.7c-0.5-0.5-0.8-0.8-1.4-1.4v-1.7
					C9.6,32.2,9.9,31.9,10.4,31.4z"/>
			</g>
			<g>
				
					<rect x="9.1" y="31.7" transform="matrix(6.123234e-17 -1 1 6.123234e-17 -22.3517 44.8792)" class="st8" width="4.4" height="3.8"/>
			</g>
		</g>
	</g>
	<g>
		<g>
			<g>
				
					<rect x="7.4" y="36.2" transform="matrix(6.123234e-17 -1 1 6.123234e-17 -21.0462 52.4128)" class="st4" width="16.5" height="1.1"/>
			</g>
			<g>
				
					<rect x="7.4" y="36.3" transform="matrix(6.123234e-17 -1 1 6.123234e-17 -21.0462 52.4128)" class="st5" width="16.5" height="0.9"/>
			</g>
			<g>
				<polygon class="st5" points="16,45.7 16.2,45 15.2,45 15.4,45.7 				"/>
			</g>
			<g>
				<polygon class="st6" points="16,45.7 16.1,45 15.3,45 15.4,45.7 				"/>
			</g>
		</g>
		<g>
			<g>
				<path class="st7" d="M14.8,31.4h1.7c0.5,0.5,0.8,0.8,1.4,1.4v1.7c-0.5,0.5-0.8,0.8-1.4,1.4h-1.7c-0.5-0.5-0.8-0.8-1.4-1.4v-1.7
					C14,32.2,14.3,31.9,14.8,31.4z"/>
			</g>
			<g>
				
					<rect x="13.5" y="31.7" transform="matrix(6.123234e-17 -1 1 6.123234e-17 -17.9307 49.3002)" class="st8" width="4.4" height="3.8"/>
			</g>
		</g>
	</g>
	<g>
		<path class="st9" d="M22.7,9.4v6.1c0,0.5-0.4,0.8-0.8,0.8h-21C0.4,16.3,0,16,0,15.5V9.4c0-0.5,0.4-0.8,0.8-0.8h21
			C22.3,8.5,22.7,8.9,22.7,9.4z"/>
	</g>
	<g>
		<path class="st3" d="M21.3,3.7v4.8H1.4V3.7C2.9,2.3,3.7,1.5,5.1,0h12.4C19,1.5,19.8,2.3,21.3,3.7z"/>
	</g>
	<g>
		<g>
			<g>
				
					<rect x="6.1" y="21.6" transform="matrix(-1 -1.224647e-16 1.224647e-16 -1 14.2994 47.8931)" class="st10" width="2.2" height="4.8"/>
			</g>
			<g>
				
					<rect x="6.2" y="21.6" transform="matrix(-1 -1.224647e-16 1.224647e-16 -1 14.2994 47.8931)" class="st11" width="1.9" height="4.8"/>
			</g>
		</g>
		<g>
			
				<rect x="8.2" y="25" transform="matrix(-1 -1.224647e-16 1.224647e-16 -1 17.7285 50.8476)" class="st1" width="1.3" height="0.8"/>
		</g>
		<g>
			
				<rect x="8.2" y="22.2" transform="matrix(-1 -1.224647e-16 1.224647e-16 -1 17.7285 45.2256)" class="st1" width="1.3" height="0.8"/>
		</g>
		<g>
			
				<rect x="4.8" y="23.6" transform="matrix(-1 -1.224647e-16 1.224647e-16 -1 10.8703 47.8931)" class="st1" width="1.3" height="0.8"/>
		</g>
	</g>
	<g id="_x3C_Group_x3E__Capacitor_4_">
		<g>
			
				<rect x="16.4" y="22.9" transform="matrix(-1 -1.224647e-16 1.224647e-16 -1 33.8738 47.9119)" class="st1" width="1" height="2.1"/>
		</g>
		<g>
			
				<rect x="13.1" y="22.9" transform="matrix(-1 -1.224647e-16 1.224647e-16 -1 27.1296 47.9119)" class="st1" width="1" height="2.1"/>
		</g>
		<g>
			
				<rect x="14.1" y="22.9" transform="matrix(-1 -1.224647e-16 1.224647e-16 -1 30.5017 47.9119)" class="st5" width="2.4" height="2.1"/>
		</g>
	</g>
</g>
<g>
	<g>
		<g>
			<rect x="15" y="40" width="3" height="13.8"/>
		</g>
		<g>
			<rect x="9.9" y="40" class="st12" width="3" height="10.8"/>
		</g>
		<g>
			<rect x="4.7" y="40" class="st13" width="3" height="10.8"/>
		</g>
	</g>
	<polyline class="st14" points="0.8,50.7 12.5,50.7 9.6,54.5 21.9,54.5 	"/>
	<polyline class="st14" points="0.8,54 7.4,54 5.1,57.2 21.9,57.2 	"/>
</g>
</svg>
