<?xml version="1.0" encoding="utf-8"?>
<!-- Generator: Adobe Illustrator 23.0.1, SVG Export Plug-In . SVG Version: 6.00 Build 0)  -->
<svg version="1.1" id="Layer_1" xmlns="http://www.w3.org/2000/svg" xmlns:xlink="http://www.w3.org/1999/xlink" x="0px" y="0px"
	 viewBox="0 0 62.4 160.1" style="enable-background:new 0 0 62.4 160.1;" xml:space="preserve">
<style type="text/css">
	.st0{fill:#DD0000;}
	.st1{fill:#C9B55E;}
	.st2{fill:#7C6B2B;}
	.st3{fill:#C6C5C5;}
	.st4{fill:#FFFFFF;}
	.st5{fill:#474748;}
	.st6{fill:none;stroke:#FFFFFF;stroke-width:0.25;stroke-miterlimit:10;}
	.st7{fill:#C0944C;}
	.st8{fill:#FDC26B;}
	.st9{fill:#FFD39B;}
	.st10{fill:#E5E5E5;}
</style>
<g>
	<path class="st0" d="M0,123.4h20.9l0,0c0,0.9,1.1,1.7,2.6,1.7h15.4c1.4,0,2.6-0.7,2.6-1.7l0,0h20.9v21.1c0,3.1-3.9,5.6-8.7,5.6h-45
		c-4.8,0-8.7-2.5-8.7-5.6C0,144.5,0,123.4,0,123.4z"/>
	<g>
		<path class="st1" d="M62.4,123.4V25.7c0-3.2-0.5-6.4-1.4-9.4L56.5,2.2C56,0.9,54.8,0,53.5,0h-3.1c-1.4,0-2.6,0.9-3,2.2l-4.5,14.1
			c-1,3-1.4,6.2-1.4,9.4v97.7C41.5,123.4,62.4,123.4,62.4,123.4z"/>
		<circle class="st2" cx="58" cy="118.1" r="0.6"/>
		<circle class="st2" cx="51.8" cy="118.1" r="0.6"/>
		<circle class="st2" cx="55.3" cy="104.4" r="0.6"/>
		<circle class="st2" cx="48.4" cy="104.4" r="0.6"/>
		<circle class="st2" cx="45.6" cy="118.1" r="0.6"/>
		<circle class="st2" cx="58" cy="90.7" r="0.6"/>
		<circle class="st2" cx="51.8" cy="90.7" r="0.6"/>
		<circle class="st2" cx="55.3" cy="77" r="0.6"/>
		<circle class="st2" cx="48.4" cy="77" r="0.6"/>
		<circle class="st2" cx="45.6" cy="90.7" r="0.6"/>
		<circle class="st2" cx="58" cy="63.3" r="0.6"/>
		<circle class="st2" cx="51.8" cy="63.3" r="0.6"/>
		<circle class="st2" cx="55.3" cy="49.5" r="0.6"/>
		<circle class="st2" cx="48.4" cy="49.5" r="0.6"/>
		<circle class="st2" cx="45.6" cy="63.3" r="0.6"/>
		<circle class="st2" cx="58" cy="35.9" r="0.6"/>
		<circle class="st2" cx="51.8" cy="35.9" r="0.6"/>
		<circle class="st2" cx="51.8" cy="8.3" r="0.6"/>
		<circle class="st2" cx="55.3" cy="22.1" r="0.6"/>
		<circle class="st2" cx="48.4" cy="22.1" r="0.6"/>
		<circle class="st2" cx="45.6" cy="35.9" r="0.6"/>
	</g>
	<g>
		<path class="st1" d="M20.9,123.4V25.7c0-3.2-0.5-6.4-1.4-9.4L15,2.2C14.6,0.9,13.4,0,12,0H8.9c-1.4,0-2.6,0.9-3,2.2L1.4,16.3
			c-1,3-1.4,6.2-1.4,9.4v97.7C0,123.4,20.9,123.4,20.9,123.4z"/>
		<circle class="st2" cx="16.5" cy="118.1" r="0.6"/>
		<circle class="st2" cx="10.4" cy="118.1" r="0.6"/>
		<circle class="st2" cx="13.8" cy="104.4" r="0.6"/>
		<circle class="st2" cx="6.9" cy="104.4" r="0.6"/>
		<circle class="st2" cx="4.2" cy="118.1" r="0.6"/>
		<circle class="st2" cx="16.5" cy="90.7" r="0.6"/>
		<circle class="st2" cx="10.4" cy="90.7" r="0.6"/>
		<circle class="st2" cx="13.8" cy="77" r="0.6"/>
		<circle class="st2" cx="6.9" cy="77" r="0.6"/>
		<circle class="st2" cx="4.2" cy="90.7" r="0.6"/>
		<circle class="st2" cx="16.5" cy="63.3" r="0.6"/>
		<circle class="st2" cx="10.4" cy="63.3" r="0.6"/>
		<circle class="st2" cx="13.8" cy="49.5" r="0.6"/>
		<circle class="st2" cx="6.9" cy="49.5" r="0.6"/>
		<circle class="st2" cx="4.2" cy="63.3" r="0.6"/>
		<circle class="st2" cx="16.5" cy="35.9" r="0.6"/>
		<circle class="st2" cx="10.4" cy="35.9" r="0.6"/>
		<circle class="st2" cx="10.4" cy="8.3" r="0.6"/>
		<circle class="st2" cx="13.8" cy="22.1" r="0.6"/>
		<circle class="st2" cx="6.9" cy="22.1" r="0.6"/>
		<circle class="st2" cx="4.2" cy="35.9" r="0.6"/>
	</g>
	<g>
		<g>
			<rect x="38" y="135.4" class="st3" width="3.1" height="2.2"/>
			<g>
				<path class="st2" d="M41,135.4v2.2h-3v-2.2H41 M41.5,134.9H41h-3h-0.5v0.5v2.2v0.5H38h3h0.5v-0.5v-2.2V134.9L41.5,134.9z"/>
			</g>
			<rect x="41" y="136.1" class="st1" width="0.5" height="0.8"/>
		</g>
		<g>
			<rect x="38" y="129.9" class="st3" width="3.1" height="2.2"/>
			<g>
				<path class="st2" d="M41,129.9v2.2h-3v-2.2H41 M41.5,129.4H41h-3h-0.5v0.5v2.2v0.5H38h3h0.5V132v-2.2V129.4L41.5,129.4z"/>
			</g>
			<rect x="39.2" y="129.4" class="st1" width="0.8" height="0.5"/>
			<rect x="37.4" y="130.6" class="st1" width="0.5" height="0.8"/>
		</g>
		<g>
			<rect x="38.3" y="135.4" class="st4" width="2.5" height="0.9"/>
			<rect x="38.3" y="131.3" class="st4" width="2.5" height="0.9"/>
			<rect x="38.2" y="132.3" class="st5" width="2.5" height="3.2"/>
		</g>
		<line class="st6" x1="38" y1="134.6" x2="38" y2="132.9"/>
		<line class="st6" x1="41.2" y1="134.6" x2="41.2" y2="132.9"/>
	</g>
	<g>
		<g>
			<rect x="21.4" y="135.4" class="st3" width="3.1" height="2.2"/>
			<g>
				<path class="st2" d="M24.5,135.4v2.2h-3.1v-2.2H24.5 M25,134.9h-0.5h-3.1h-0.5v0.5v2.2v0.5h0.5h3.1H25v-0.5v-2.2V134.9L25,134.9
					z"/>
			</g>
			<rect x="24.4" y="136.2" class="st1" width="0.5" height="0.8"/>
		</g>
		<g>
			<rect x="21.4" y="129.8" class="st3" width="3.1" height="2.2"/>
			<g>
				<path class="st2" d="M24.5,129.9v2.2h-3.1v-2.2H24.5 M25,129.4h-0.5h-3.1h-0.5v0.5v2.2v0.5h0.5h3.1H25V132v-2.2V129.4L25,129.4z
					"/>
			</g>
			<rect x="22.6" y="129.4" class="st1" width="0.8" height="0.5"/>
			<rect x="20.9" y="130.5" class="st1" width="0.5" height="0.8"/>
		</g>
		<g>
			<rect x="21.7" y="135.5" class="st4" width="2.5" height="0.9"/>
			<rect x="21.7" y="131.4" class="st4" width="2.5" height="0.9"/>
			<rect x="21.7" y="132.3" class="st5" width="2.5" height="3.2"/>
		</g>
		<line class="st6" x1="21.4" y1="134.6" x2="21.4" y2="132.9"/>
		<line class="st6" x1="24.6" y1="134.6" x2="24.6" y2="132.9"/>
	</g>
	<g>
		<g>
			<rect x="32.7" y="130.6" class="st3" width="2.2" height="2.5"/>
			<g>
				<path class="st2" d="M34.9,130.5v2.5h-2.2v-2.5H34.9 M35.4,130h-0.5h-2.2h-0.5v0.5v2.5v0.5h0.5h2.2h0.5V133v-2.5V130L35.4,130z"
					/>
			</g>
		</g>
		<g>
			<rect x="30.2" y="135.7" class="st3" width="2.2" height="2.5"/>
			<g>
				<path class="st2" d="M32.4,135.7v2.5h-2.2v-2.5H32.4 M32.9,135.2h-0.5h-2.2h-0.5v0.5v2.5v0.5h0.5h2.2h0.5v-0.5v-2.5V135.2
					L32.9,135.2z"/>
			</g>
		</g>
		<g>
			<rect x="27.4" y="130.6" class="st3" width="2.2" height="2.5"/>
			<g>
				<path class="st2" d="M29.6,130.5v2.5h-2.2v-2.5H29.6 M30.1,130h-0.5h-2.2H27v0.5v2.5v0.5h0.5h2.2h0.5V133v-2.5V130H30.1z"/>
			</g>
		</g>
		<rect x="33.3" y="131" class="st4" width="1.2" height="2.1"/>
		<rect x="27.9" y="131" class="st4" width="1.2" height="2.1"/>
		<rect x="30.7" y="136.5" class="st4" width="1.2" height="1.5"/>
		<rect x="27.5" y="133" class="st5" width="7.6" height="3.5"/>
		<line class="st6" x1="35.8" y1="136.5" x2="35.8" y2="130.4"/>
		<polyline class="st6" points="27.3,136.4 27,136.4 27,133.9 		"/>
	</g>
</g>
<g>
	<rect x="23.3" y="149.9" class="st7" width="1.4" height="9.5"/>
	<rect x="23.4" y="149.9" class="st8" width="1.1" height="9.5"/>
	<polygon class="st8" points="24.4,160.1 24.6,159.5 23.2,159.5 23.5,160.1 	"/>
	<polygon class="st9" points="24.4,160.1 24.5,159.5 23.4,159.5 23.5,160.1 	"/>
</g>
<g>
	<rect x="30.4" y="150.1" class="st7" width="1.4" height="9.5"/>
	<rect x="30.5" y="150.1" class="st8" width="1.1" height="9.5"/>
	<polygon class="st8" points="31.5,160.1 31.8,159.5 30.4,159.5 30.7,160.1 	"/>
	<polygon class="st9" points="31.5,160.1 31.7,159.5 30.5,159.5 30.7,160.1 	"/>
</g>
<g>
	<rect x="37.5" y="150.1" class="st7" width="1.4" height="9.5"/>
	<rect x="37.6" y="150.1" class="st8" width="1.1" height="9.5"/>
	<polygon class="st8" points="38.6,160.1 38.9,159.5 37.5,159.5 37.8,160.1 	"/>
	<polygon class="st9" points="38.6,160.1 38.8,159.5 37.6,159.5 37.8,160.1 	"/>
</g>
<g id="JST_10_">
	<g>
		<path class="st1" d="M38.2,144.5h0.4c1,0,1.8,0.8,1.8,1.8v1.2c0,1-0.8,1.8-1.8,1.8h-0.4c-1,0-1.8-0.8-1.8-1.8v-1.2
			C36.5,145.3,37.2,144.5,38.2,144.5z"/>
		<ellipse class="st10" cx="38.5" cy="147" rx="1.2" ry="1"/>
	</g>
	<g>
		<path class="st1" d="M31,144.5h0.4c1,0,1.8,0.8,1.8,1.8v1.2c0,1-0.8,1.8-1.8,1.8H31c-1,0-1.8-0.8-1.8-1.8v-1.2
			C29.2,145.3,30,144.5,31,144.5z"/>
		<ellipse class="st10" cx="31.2" cy="147" rx="1.2" ry="1"/>
	</g>
	<g>
		<path class="st1" d="M23.9,144.5h0.4c1,0,1.8,0.8,1.8,1.8v1.2c0,1-0.8,1.8-1.8,1.8h-0.4c-1,0-1.8-0.8-1.8-1.8v-1.2
			C22,145.3,22.9,144.5,23.9,144.5z"/>
		<ellipse class="st10" cx="24" cy="147" rx="1.2" ry="1"/>
	</g>
</g>
<g>
	<path class="st4" d="M22.1,142h0.8v0.5c0,0.2,0,0.3-0.1,0.5c-0.1,0.1-0.2,0.2-0.3,0.3c-0.1,0.1-0.3,0.1-0.4,0.1s-0.3,0-0.4-0.1
		c-0.1-0.1-0.2-0.2-0.3-0.3c-0.1-0.1-0.1-0.3-0.1-0.4v-0.7c0-0.2,0-0.3,0.1-0.5c0.1-0.1,0.2-0.2,0.3-0.3c0.1-0.1,0.3-0.1,0.4-0.1
		s0.3,0,0.4,0.1c0.1,0,0.2,0.1,0.3,0.3c0.1,0.1,0.1,0.2,0.2,0.4h-0.3c0-0.1-0.1-0.2-0.2-0.3c-0.1-0.1-0.2-0.1-0.3-0.1
		c-0.1,0-0.3,0-0.3,0.2c-0.1,0.1-0.1,0.2-0.1,0.4v0.7c0,0.2,0,0.3,0.1,0.4c0.1,0.1,0.2,0.1,0.3,0.1s0.3,0,0.3-0.1
		c0.1-0.1,0.1-0.2,0.1-0.4v-0.2h-0.5V142L22.1,142z"/>
	<path class="st4" d="M23.4,143.3v-2.4h0.3l1.2,1.8l0,0v-1.9h0.3v2.4h-0.3l-1.2-1.7l0,0v1.8C23.8,143.3,23.4,143.3,23.4,143.3z"/>
	<path class="st4" d="M26,143.3V143h0.5c0.2,0,0.3,0,0.4-0.1c0.1-0.1,0.1-0.3,0.1-0.4v-0.7c0-0.2,0-0.3-0.1-0.4
		c-0.1-0.1-0.2-0.1-0.4-0.1H26V141h0.5c0.3,0,0.5,0.1,0.6,0.2c0.2,0.1,0.2,0.3,0.2,0.6v0.6c0,0.3-0.1,0.5-0.2,0.6
		c-0.2,0.1-0.4,0.2-0.6,0.2L26,143.3L26,143.3z M25.8,143.3v-2.4h0.3v2.4H25.8z"/>
</g>
<g>
	<path class="st4" d="M29.6,143.3l-0.8-2.4h0.3l0.6,1.9l0.6-1.9h0.3l-0.8,2.4H29.6z"/>
	<path class="st4" d="M31.8,143.3c-0.2,0-0.3,0-0.4-0.1c-0.1-0.1-0.2-0.2-0.3-0.3c-0.1-0.1-0.1-0.3-0.1-0.5v-0.6
		c0-0.2,0-0.3,0.1-0.5c0.1-0.1,0.2-0.2,0.3-0.3c0.1-0.1,0.3-0.1,0.4-0.1s0.3,0,0.4,0.1c0.1,0,0.2,0.1,0.3,0.3
		c0.1,0.1,0.1,0.2,0.2,0.4h-0.3c0-0.1,0-0.1-0.1-0.2c0,0-0.1-0.1-0.2-0.1c-0.1,0-0.1,0-0.2,0s-0.3,0-0.3,0.2
		c-0.1,0.1-0.1,0.2-0.1,0.4v0.6c0,0.2,0,0.3,0.1,0.4C31.7,143.1,31.8,143.2,31.8,143.3c0.2-0.1,0.3-0.1,0.4-0.2
		c0.1,0,0.2-0.1,0.2-0.3h0.3c0,0.1-0.1,0.3-0.2,0.3c-0.1,0.1-0.2,0.2-0.3,0.2C32,143.3,31.9,143.3,31.8,143.3z"/>
	<path class="st4" d="M33.8,143.3c-0.2,0-0.3,0-0.4-0.1c-0.1-0.1-0.2-0.2-0.3-0.3c-0.1-0.1-0.1-0.3-0.1-0.5v-0.6
		c0-0.2,0-0.3,0.1-0.5c0.1-0.1,0.2-0.2,0.3-0.3c0.1-0.1,0.3-0.1,0.4-0.1s0.3,0,0.4,0.1c0.1,0,0.2,0.1,0.3,0.3
		c0.1,0.1,0.1,0.2,0.2,0.4h-0.3c0-0.1,0-0.1-0.1-0.2c0,0-0.1-0.1-0.2-0.1c0,0-0.1,0-0.2,0c-0.1,0-0.3,0-0.3,0.2
		c-0.1,0.1-0.1,0.2-0.1,0.4v0.6c0,0.2,0,0.3,0.1,0.4c0.1,0.1,0.2,0.2,0.3,0.2s0.2,0,0.3-0.1c0.1,0,0.2-0.1,0.2-0.3h0.3
		c0,0.1-0.1,0.3-0.2,0.3c-0.1,0.1-0.2,0.2-0.3,0.2C34,143.3,34,143.3,33.8,143.3z"/>
</g>
<g>
	<path class="st4" d="M37.6,143.3c-0.2,0-0.3,0-0.5-0.1c-0.1,0-0.3-0.1-0.4-0.2l0.2-0.3c0.1,0.1,0.2,0.1,0.3,0.2c0.1,0,0.2,0,0.3,0
		c0.2,0,0.3,0,0.4-0.1c0.1,0,0.1-0.2,0.1-0.3l0,0c0-0.1,0-0.2-0.1-0.2c0,0-0.1-0.1-0.2-0.1c-0.1,0-0.2,0-0.3,0s-0.2,0-0.3,0
		s-0.2,0-0.3-0.1c-0.1,0-0.1-0.1-0.2-0.2c0-0.1-0.1-0.2-0.1-0.3l0,0c0-0.2,0.1-0.4,0.2-0.5c0.1-0.1,0.3-0.2,0.6-0.2
		c0.1,0,0.3,0,0.4,0c0.1,0,0.3,0.1,0.3,0.2l-0.2,0.3c-0.2-0.1-0.3-0.2-0.5-0.2s-0.3,0-0.4,0.1c-0.1,0-0.1,0.2-0.1,0.3l0,0
		c0,0.1,0,0.2,0.1,0.2c0,0,0.1,0.1,0.2,0.1c0.1,0,0.2,0,0.3,0s0.2,0,0.3,0s0.2,0,0.2,0.1c0.1,0,0.1,0.1,0.2,0.2c0,0,0,0.2,0,0.3l0,0
		c0,0.2-0.1,0.4-0.2,0.5C38.1,143.3,37.9,143.3,37.6,143.3z"/>
	<path class="st4" d="M39.3,141v2.4H39V141H39.3z"/>
	<path class="st4" d="M40.6,142h0.8v0.5c0,0.2,0,0.3-0.1,0.5c-0.1,0.1-0.2,0.2-0.3,0.3c-0.1,0.1-0.3,0.1-0.4,0.1s-0.3,0-0.4-0.1
		c-0.1-0.1-0.2-0.2-0.3-0.3c-0.1-0.1-0.1-0.3-0.1-0.4v-0.7c0-0.2,0-0.3,0.1-0.5c0.1-0.1,0.2-0.2,0.3-0.3c0.1-0.1,0.3-0.1,0.4-0.1
		c0.1,0,0.3,0,0.4,0.1c0.1,0,0.2,0.1,0.3,0.3c0.1,0.1,0.1,0.2,0.2,0.4h-0.3c0-0.1-0.1-0.2-0.2-0.3c-0.1-0.1-0.2-0.1-0.3-0.1
		s-0.3,0-0.3,0.2c-0.1,0.1-0.1,0.2-0.1,0.4v0.7c0,0.2,0,0.3,0.1,0.4c0.1,0.1,0.2,0.1,0.3,0.1s0.3,0,0.3-0.1c0.1-0.1,0.1-0.2,0.1-0.4
		v-0.2h-0.5V142L40.6,142z"/>
</g>
</svg>
