<?xml version="1.0" encoding="utf-8"?>
<!-- Generator: Adobe Illustrator 23.0.1, SVG Export Plug-In . SVG Version: 6.00 Build 0)  -->
<svg version="1.1" id="Layer_1" xmlns="http://www.w3.org/2000/svg" xmlns:xlink="http://www.w3.org/1999/xlink" x="0px" y="0px"
	 viewBox="0 0 62.4 54" style="enable-background:new 0 0 62.4 54;" xml:space="preserve">
<style type="text/css">
	.st0{fill:#C9B55E;}
	.st1{fill:#040202;}
	.st2{fill:none;stroke:#7C6B2B;stroke-width:0.5;stroke-miterlimit:10;}
	.st3{fill:#FFFFFF;}
	.st4{fill:#EDEDF2;}
	.st5{fill:#DDDDDC;}
	.st6{fill:#C6C5C5;}
	.st7{font-family:'ArialRoundedMTBold';}
	.st8{font-size:4.1493px;}
	.st9{fill:#7C6B2B;stroke:#D8C262;stroke-width:0.15;stroke-miterlimit:10;}
	.st10{fill:#474748;}
	.st11{fill:none;stroke:#FFFFFF;stroke-width:0.25;stroke-miterlimit:10;}
	.st12{fill:#7C6B2B;}
	.st13{fill:#D8C262;}
	.st14{fill:#663231;}
	.st15{fill:#303030;}
	.st16{stroke:#212121;stroke-width:0.3;stroke-miterlimit:10;}
</style>
<g>
	<path d="M43.5,0.1H18.9c-2,0-3.9,1.1-4.9,2.8L1.7,24.2c-1,1.8-1,3.9,0,5.7L14,51.1c1,1.8,2.9,2.8,4.9,2.8h24.5c2,0,3.9-1.1,4.9-2.8
		l12.3-21.3c1-1.8,1-3.9,0-5.7L48.4,2.9C47.4,1.2,45.5,0.1,43.5,0.1z"/>
	<g>
		<g>
			<g>
				<path class="st0" d="M28.5,8.4L28.5,8.4c-1,0-1.7-0.8-1.7-1.7V5.3c0-1,0.8-1.7,1.7-1.7h0c1,0,1.7,0.8,1.7,1.7v1.4
					C30.2,7.6,29.4,8.4,28.5,8.4z"/>
				<circle class="st1" cx="28.5" cy="6" r="1"/>
			</g>
			<path class="st2" d="M28.5,8.4L28.5,8.4c-1,0-1.7-0.8-1.7-1.7V5.3c0-1,0.8-1.7,1.7-1.7h0c1,0,1.7,0.8,1.7,1.7v1.4
				C30.2,7.6,29.4,8.4,28.5,8.4z"/>
			<rect x="28.2" y="8" class="st0" width="0.7" height="0.9"/>
		</g>
		<g>
			<rect x="27.4" y="5" class="st3" width="2" height="2"/>
			<polygon class="st4" points="27.4,5 28.5,6 27.4,7 			"/>
			<polygon class="st5" points="29.5,7 28.5,6 27.4,7 			"/>
			<polygon class="st6" points="29.5,5 28.5,6 29.5,7 			"/>
		</g>
	</g>
	<g>
		<g>
			<g>
				<path class="st0" d="M23.2,8.4L23.2,8.4c1,0,1.7-0.8,1.7-1.7V5.3c0-1-0.8-1.7-1.7-1.7h0c-1,0-1.7,0.8-1.7,1.7v1.4
					C21.5,7.6,22.3,8.4,23.2,8.4z"/>
				<circle class="st1" cx="23.2" cy="6" r="1"/>
			</g>
			<path class="st2" d="M23.2,8.4L23.2,8.4c1,0,1.7-0.8,1.7-1.7V5.3c0-1-0.8-1.7-1.7-1.7h0c-1,0-1.7,0.8-1.7,1.7v1.4
				C21.5,7.6,22.3,8.4,23.2,8.4z"/>
			
				<rect x="24.1" y="7.6" transform="matrix(-0.7071 0.7071 -0.7071 -0.7071 47.3717 -3.7744)" class="st0" width="0.7" height="0.7"/>
		</g>
		<g>
			<rect x="22.2" y="5" class="st3" width="2" height="2"/>
			<polygon class="st4" points="22.2,5 23.2,6 22.2,7 			"/>
			<polygon class="st5" points="24.2,7 23.2,6 22.2,7 			"/>
			<polygon class="st6" points="24.2,5 23.2,6 24.2,7 			"/>
		</g>
	</g>
	<g>
		<g>
			<g>
				<path class="st0" d="M33.9,8.4L33.9,8.4c-1,0-1.7-0.8-1.7-1.7V5.3c0-1,0.8-1.7,1.7-1.7h0c1,0,1.7,0.8,1.7,1.7v1.4
					C35.6,7.6,34.9,8.4,33.9,8.4z"/>
				<circle class="st1" cx="33.9" cy="6" r="1"/>
			</g>
			<path class="st2" d="M33.9,8.4L33.9,8.4c-1,0-1.7-0.8-1.7-1.7V5.3c0-1,0.8-1.7,1.7-1.7h0c1,0,1.7,0.8,1.7,1.7v1.4
				C35.6,7.6,34.9,8.4,33.9,8.4z"/>
			<rect x="33.6" y="7.9" class="st0" width="0.7" height="1"/>
		</g>
		<g>
			<rect x="32.9" y="5" class="st3" width="2" height="2"/>
			<polygon class="st4" points="32.9,5 33.9,6 32.9,7 			"/>
			<polygon class="st5" points="34.9,7 33.9,6 32.9,7 			"/>
			<polygon class="st6" points="34.9,5 33.9,6 34.9,7 			"/>
		</g>
	</g>
	<g>
		<g>
			<g>
				<g>
					<path class="st0" d="M41.1,5.3V3.7c0-0.1-0.1-0.1-0.1-0.1h-3.2c-0.1,0-0.1,0.1-0.1,0.1v4.6c0,0.1,0.1,0.1,0.1,0.1h0.9l0,0h1.4
						l0,0h0.9c0.1,0,0.1-0.1,0.1-0.1V6.7l0,0V5.3L41.1,5.3z"/>
					<path class="st2" d="M41.1,5.3V3.7c0-0.1-0.1-0.1-0.1-0.1h-3.2c-0.1,0-0.1,0.1-0.1,0.1v4.6c0,0.1,0.1,0.1,0.1,0.1h0.9l0,0h1.4
						l0,0h0.9c0.1,0,0.1-0.1,0.1-0.1V6.7l0,0V5.3L41.1,5.3z"/>
					<circle class="st1" cx="39.4" cy="6" r="1"/>
				</g>
			</g>
			<rect x="38.7" y="8.1" class="st0" width="1.4" height="0.8"/>
			
				<rect x="40.4" y="5.7" transform="matrix(6.123234e-17 -1 1 6.123234e-17 35.0284 47.1357)" class="st0" width="1.4" height="0.8"/>
		</g>
		<g>
			<rect x="38.4" y="5" class="st3" width="2" height="2"/>
			<polygon class="st4" points="38.4,5 39.4,6 38.4,7 			"/>
			<polygon class="st5" points="40.4,7 39.4,6 38.4,7 			"/>
			<polygon class="st6" points="40.4,5 39.4,6 40.4,7 			"/>
		</g>
	</g>
	<g>
		<g>
			<polygon class="st3" points="50.8,29.6 56.1,24.3 55,24.3 52.9,26.4 52.4,25.9 53.9,24.3 52.9,24.3 51.8,25.4 51.3,24.8 
				51.8,24.3 50.8,24.3 			"/>
			<polygon class="st3" points="56.1,29.7 56.1,28.8 54.2,26.9 53.8,27.4 			"/>
			<polygon class="st3" points="56.1,27.8 56.1,26.9 55.1,26 54.7,26.4 			"/>
			<polygon class="st3" points="56.1,26 56.1,25.1 55.6,25.5 			"/>
		</g>
	</g>
	<g>
		<text transform="matrix(1 0 0 1 20.2131 46.6544)"><tspan x="0" y="0" class="st3 st7 st8">Distance &amp;</tspan><tspan x="2.9" y="5" class="st3 st7 st8">Gesture</tspan></text>
	</g>
	<circle class="st9" cx="17.7" cy="5" r="0.5"/>
	<circle class="st9" cx="45.1" cy="4.7" r="0.5"/>
	<circle class="st9" cx="24.7" cy="13.1" r="0.5"/>
	<circle class="st9" cx="37.4" cy="35.2" r="0.5"/>
	<circle class="st9" cx="35.4" cy="28.3" r="0.5"/>
	<circle class="st9" cx="47.6" cy="26.9" r="0.5"/>
	<circle class="st9" cx="35.6" cy="25.5" r="0.5"/>
	<circle class="st9" cx="26.3" cy="15.8" r="0.5"/>
	<circle class="st9" cx="26.3" cy="18.6" r="0.5"/>
	<circle class="st9" cx="26.3" cy="21.3" r="0.5"/>
	<circle class="st9" cx="26" cy="35.2" r="0.5"/>
	<circle class="st9" cx="13.2" cy="21.3" r="0.5"/>
	<circle class="st9" cx="13.2" cy="32.4" r="0.5"/>
	<circle class="st9" cx="3.6" cy="27" r="0.5"/>
	<circle class="st9" cx="39.6" cy="15.8" r="0.5"/>
	<g>
		<g>
			<rect x="9.2" y="23.1" class="st6" width="2.4" height="2.5"/>
			<rect x="9.2" y="23.1" class="st2" width="2.4" height="2.5"/>
		</g>
		<g>
			<rect x="6.8" y="28.3" class="st6" width="2.4" height="2.5"/>
			<rect x="6.8" y="28.3" class="st2" width="2.4" height="2.5"/>
		</g>
		<g>
			<rect x="11.5" y="28.3" class="st6" width="2.4" height="2.5"/>
			<rect x="11.5" y="28.3" class="st2" width="2.4" height="2.5"/>
		</g>
		<rect x="10" y="23.9" class="st3" width="0.7" height="1.4"/>
		<rect x="7.6" y="28.6" class="st3" width="0.7" height="1.4"/>
		<rect x="12.4" y="28.6" class="st3" width="0.7" height="1.4"/>
		<rect x="6.4" y="25.3" class="st10" width="8" height="3.4"/>
		<polyline class="st11" points="6.1,30.9 6.1,25 8.8,25 		"/>
		<polyline class="st11" points="12,25 14.6,25 14.6,28.9 		"/>
	</g>
	<g>
		<g>
			<rect x="18.8" y="23.1" class="st6" width="2.4" height="2.5"/>
			<rect x="18.8" y="23.1" class="st2" width="2.4" height="2.5"/>
		</g>
		<g>
			<rect x="16.4" y="28.3" class="st6" width="2.4" height="2.5"/>
			<rect x="16.4" y="28.3" class="st2" width="2.4" height="2.5"/>
		</g>
		<g>
			<rect x="21.2" y="28.3" class="st6" width="2.4" height="2.5"/>
			<rect x="21.2" y="28.3" class="st2" width="2.4" height="2.5"/>
		</g>
		<rect x="19.6" y="23.9" class="st3" width="0.7" height="1.4"/>
		<rect x="17.3" y="28.6" class="st3" width="0.7" height="1.4"/>
		<rect x="22" y="28.6" class="st3" width="0.7" height="1.4"/>
		<rect x="16" y="25.3" class="st10" width="8" height="3.4"/>
		<polyline class="st11" points="15.7,30.9 15.7,25 18.4,25 		"/>
		<polyline class="st11" points="21.7,25 24.3,25 24.3,28.9 		"/>
	</g>
	<g>
		<g>
			
				<rect x="12" y="17.3" transform="matrix(-1 -1.224647e-16 1.224647e-16 -1 25.9469 37.2533)" class="st6" width="1.9" height="2.7"/>
			<g>
				<path class="st12" d="M13.9,17.3V20H12v-2.7H13.9 M14.4,16.8h-0.5H12h-0.5v0.5V20v0.5H12h1.9h0.5V20v-2.7V16.8L14.4,16.8z"/>
			</g>
			
				<rect x="12.6" y="16.8" transform="matrix(-1 -1.224647e-16 1.224647e-16 -1 25.9469 34.1087)" class="st0" width="0.7" height="0.5"/>
		</g>
		<g>
			
				<rect x="7.2" y="17.3" transform="matrix(-1 -1.224647e-16 1.224647e-16 -1 16.3281 37.2533)" class="st6" width="1.9" height="2.7"/>
			<g>
				<path class="st12" d="M9.1,17.3V20H7.2v-2.7H9.1 M9.6,16.8H9.1H7.2H6.7v0.5V20v0.5h0.5h1.9h0.5V20v-2.7V16.8L9.6,16.8z"/>
			</g>
			
				<rect x="6.6" y="18.3" transform="matrix(-1.836970e-16 1 -1 -1.836970e-16 25.5698 11.5747)" class="st0" width="0.7" height="0.5"/>
			<rect x="7.8" y="20" class="st0" width="0.7" height="0.5"/>
		</g>
		<g>
			
				<rect x="12.1" y="17.5" transform="matrix(-1 -1.224647e-16 1.224647e-16 -1 24.9276 37.2336)" class="st3" width="0.7" height="2.1"/>
			
				<rect x="8.5" y="17.5" transform="matrix(-1 -1.224647e-16 1.224647e-16 -1 17.8323 37.2336)" class="st3" width="0.7" height="2.1"/>
			
				<rect x="9.3" y="17.5" transform="matrix(-1 -1.224647e-16 1.224647e-16 -1 21.3799 37.2336)" class="st10" width="2.8" height="2.1"/>
		</g>
		<line class="st11" x1="11.3" y1="20" x2="9.8" y2="20"/>
		<line class="st11" x1="11.3" y1="17.2" x2="9.8" y2="17.2"/>
	</g>
	<g>
		<g>
			
				<rect x="13" y="33.9" transform="matrix(-1 -1.224647e-16 1.224647e-16 -1 27.9236 70.3906)" class="st6" width="1.9" height="2.7"/>
			<g>
				<path class="st12" d="M14.9,33.9v2.7H13v-2.7H14.9 M15.4,33.4h-0.5H13h-0.5v0.5v2.7V37H13h1.9h0.5v-0.5v-2.7V33.4L15.4,33.4z"/>
			</g>
			
				<rect x="13.6" y="33.4" transform="matrix(-1 -1.224647e-16 1.224647e-16 -1 27.9236 67.2461)" class="st0" width="0.7" height="0.5"/>
		</g>
		<g>
			
				<rect x="8.2" y="33.9" transform="matrix(-1 -1.224647e-16 1.224647e-16 -1 18.3048 70.3906)" class="st6" width="1.9" height="2.7"/>
			<g>
				<path class="st12" d="M10.1,33.9v2.7H8.2v-2.7H10.1 M10.6,33.4h-0.5H8.2H7.7v0.5v2.7V37h0.5h1.9h0.5v-0.5v-2.7V33.4L10.6,33.4z"
					/>
			</g>
			
				<rect x="7.6" y="34.9" transform="matrix(-1.836970e-16 1 -1 -1.836970e-16 43.1269 27.155)" class="st0" width="0.7" height="0.5"/>
			<rect x="8.8" y="36.5" class="st0" width="0.7" height="0.5"/>
		</g>
		<g>
			
				<rect x="13.1" y="34.1" transform="matrix(-1 -1.224647e-16 1.224647e-16 -1 26.9043 70.3709)" class="st3" width="0.7" height="2.1"/>
			
				<rect x="9.5" y="34.1" transform="matrix(-1 -1.224647e-16 1.224647e-16 -1 19.809 70.3709)" class="st3" width="0.7" height="2.1"/>
			
				<rect x="10.3" y="34.1" transform="matrix(-1 -1.224647e-16 1.224647e-16 -1 23.3567 70.3709)" class="st10" width="2.8" height="2.1"/>
		</g>
		<line class="st11" x1="12.3" y1="36.5" x2="10.8" y2="36.5"/>
		<line class="st11" x1="12.3" y1="33.7" x2="10.8" y2="33.7"/>
	</g>
	<g>
		<g>
			
				<rect x="21.4" y="33.9" transform="matrix(-1 -1.224647e-16 1.224647e-16 -1 44.5993 70.3906)" class="st6" width="1.9" height="2.7"/>
			<g>
				<path class="st12" d="M23.2,33.9v2.7h-1.9v-2.7H23.2 M23.7,33.4h-0.5h-1.9h-0.5v0.5v2.7V37h0.5h1.9h0.5v-0.5v-2.7V33.4
					L23.7,33.4z"/>
			</g>
			
				<rect x="21.9" y="33.4" transform="matrix(-1 -1.224647e-16 1.224647e-16 -1 44.5993 67.2461)" class="st0" width="0.7" height="0.5"/>
		</g>
		<g>
			
				<rect x="16.6" y="33.9" transform="matrix(-1 -1.224647e-16 1.224647e-16 -1 34.9805 70.3906)" class="st6" width="1.9" height="2.7"/>
			<g>
				<path class="st12" d="M18.4,33.9v2.7h-1.9v-2.7H18.4 M18.9,33.4h-0.5h-1.9h-0.5v0.5v2.7V37h0.5h1.9h0.5v-0.5v-2.7V33.4
					L18.9,33.4z"/>
			</g>
			
				<rect x="16" y="34.9" transform="matrix(-1.836970e-16 1 -1 -1.836970e-16 51.4647 18.8172)" class="st0" width="0.7" height="0.5"/>
			<rect x="17.1" y="36.5" class="st0" width="0.7" height="0.5"/>
		</g>
		<g>
			
				<rect x="21.4" y="34.1" transform="matrix(-1 -1.224647e-16 1.224647e-16 -1 43.58 70.3709)" class="st3" width="0.7" height="2.1"/>
			
				<rect x="17.9" y="34.1" transform="matrix(-1 -1.224647e-16 1.224647e-16 -1 36.4847 70.3709)" class="st3" width="0.7" height="2.1"/>
			
				<rect x="18.6" y="34.1" transform="matrix(-1 -1.224647e-16 1.224647e-16 -1 40.0324 70.3709)" class="st10" width="2.8" height="2.1"/>
		</g>
		<line class="st11" x1="20.6" y1="36.5" x2="19.1" y2="36.5"/>
		<line class="st11" x1="20.6" y1="33.7" x2="19.1" y2="33.7"/>
	</g>
	<g>
		<g>
			
				<rect x="21.4" y="17.3" transform="matrix(-1 -1.224647e-16 1.224647e-16 -1 44.5993 37.2533)" class="st6" width="1.9" height="2.7"/>
			<g>
				<path class="st12" d="M23.2,17.3V20h-1.9v-2.7H23.2 M23.7,16.8h-0.5h-1.9h-0.5v0.5V20v0.5h0.5h1.9h0.5V20v-2.7V16.8L23.7,16.8z"
					/>
			</g>
			
				<rect x="21.9" y="16.8" transform="matrix(-1 -1.224647e-16 1.224647e-16 -1 44.5993 34.1087)" class="st0" width="0.7" height="0.5"/>
		</g>
		<g>
			
				<rect x="16.6" y="17.3" transform="matrix(-1 -1.224647e-16 1.224647e-16 -1 34.9805 37.2533)" class="st6" width="1.9" height="2.7"/>
			<g>
				<path class="st12" d="M18.4,17.3V20h-1.9v-2.7H18.4 M18.9,16.8h-0.5h-1.9h-0.5v0.5V20v0.5h0.5h1.9h0.5V20v-2.7V16.8L18.9,16.8z"
					/>
			</g>
			
				<rect x="16" y="18.3" transform="matrix(-1.836970e-16 1 -1 -1.836970e-16 34.896 2.2485)" class="st0" width="0.7" height="0.5"/>
			<rect x="17.1" y="20" class="st0" width="0.7" height="0.5"/>
		</g>
		<g>
			
				<rect x="21.4" y="17.5" transform="matrix(-1 -1.224647e-16 1.224647e-16 -1 43.58 37.2336)" class="st3" width="0.7" height="2.1"/>
			
				<rect x="17.9" y="17.5" transform="matrix(-1 -1.224647e-16 1.224647e-16 -1 36.4847 37.2336)" class="st3" width="0.7" height="2.1"/>
			
				<rect x="18.6" y="17.5" transform="matrix(-1 -1.224647e-16 1.224647e-16 -1 40.0324 37.2336)" class="st10" width="2.8" height="2.1"/>
		</g>
		<line class="st11" x1="20.6" y1="20" x2="19.1" y2="20"/>
		<line class="st11" x1="20.6" y1="17.2" x2="19.1" y2="17.2"/>
	</g>
	<g>
		<g>
			<rect x="27.8" y="17.2" class="st6" width="1.9" height="2.7"/>
			<g>
				<g>
					<path class="st13" d="M29.7,17.2v2.7h-1.9v-2.7H29.7 M30.2,16.7h-0.5h-1.9h-0.5v0.5v2.7v0.5h0.5h1.9h0.5v-0.5v-2.7V16.7
						L30.2,16.7z"/>
				</g>
			</g>
		</g>
		<g>
			<rect x="32.6" y="17.2" class="st6" width="1.9" height="2.7"/>
			<g>
				<path class="st12" d="M34.5,17.2v2.7h-1.9v-2.7H34.5 M35,16.7h-0.5h-1.9h-0.5v0.5v2.7v0.5h0.5h1.9H35v-0.5v-2.7V16.7L35,16.7z"
					/>
			</g>
			
				<rect x="34.3" y="18.4" transform="matrix(6.123234e-17 -1 1 6.123234e-17 16.0708 53.3241)" class="st0" width="0.7" height="0.5"/>
			
				<rect x="33.2" y="16.8" transform="matrix(-1 -1.224647e-16 1.224647e-16 -1 67.0619 34)" class="st0" width="0.7" height="0.5"/>
			
				<rect x="32.8" y="19.9" transform="matrix(-1 -1.224647e-16 1.224647e-16 -1 66.3395 40.289)" class="st0" width="0.7" height="0.5"/>
		</g>
		<g>
			<rect x="28.9" y="17.5" class="st3" width="0.7" height="2.1"/>
			<rect x="32.4" y="17.5" class="st3" width="0.7" height="2.1"/>
			<rect x="29.6" y="17.5" class="st14" width="2.8" height="2.1"/>
		</g>
		<line class="st11" x1="30.4" y1="17.2" x2="31.9" y2="17.2"/>
		<line class="st11" x1="30.4" y1="20" x2="31.9" y2="20"/>
	</g>
	<g>
		<g>
			<rect x="38.8" y="17.2" class="st6" width="1.9" height="2.7"/>
			<g>
				<g>
					<path class="st13" d="M40.7,17.2v2.7h-1.9v-2.7H40.7 M41.2,16.7h-0.5h-1.9h-0.5v0.5v2.7v0.5h0.5h1.9h0.5v-0.5v-2.7V16.7
						L41.2,16.7z"/>
				</g>
			</g>
		</g>
		<g>
			<rect x="43.6" y="17.2" class="st6" width="1.9" height="2.7"/>
			<g>
				<path class="st12" d="M45.5,17.2v2.7h-1.9v-2.7H45.5 M46,16.7h-0.5h-1.9h-0.5v0.5v2.7v0.5h0.5h1.9H46v-0.5v-2.7V16.7L46,16.7z"
					/>
			</g>
			
				<rect x="45.4" y="18.4" transform="matrix(6.123234e-17 -1 1 6.123234e-17 27.1146 64.3678)" class="st0" width="0.7" height="0.5"/>
			
				<rect x="44.2" y="16.8" transform="matrix(-1 -1.224647e-16 1.224647e-16 -1 89.1494 34)" class="st0" width="0.7" height="0.5"/>
			
				<rect x="43.9" y="19.9" transform="matrix(-1 -1.224647e-16 1.224647e-16 -1 88.427 40.289)" class="st0" width="0.7" height="0.5"/>
		</g>
		<g>
			<rect x="39.9" y="17.5" class="st3" width="0.7" height="2.1"/>
			<rect x="43.5" y="17.5" class="st3" width="0.7" height="2.1"/>
			<rect x="40.6" y="17.5" class="st14" width="2.8" height="2.1"/>
		</g>
		<line class="st11" x1="41.4" y1="17.2" x2="42.9" y2="17.2"/>
		<line class="st11" x1="41.4" y1="20" x2="42.9" y2="20"/>
	</g>
	<g>
		<g>
			<rect x="27.8" y="33.8" class="st6" width="1.9" height="2.7"/>
			<g>
				<g>
					<path class="st13" d="M29.7,33.8v2.7h-1.9v-2.7H29.7 M30.2,33.3h-0.5h-1.9h-0.5v0.5v2.7V37h0.5h1.9h0.5v-0.5v-2.7V33.3
						L30.2,33.3z"/>
				</g>
			</g>
		</g>
		<g>
			<rect x="32.6" y="33.8" class="st6" width="1.9" height="2.7"/>
			<g>
				<path class="st12" d="M34.5,33.8v2.7h-1.9v-2.7H34.5 M35,33.3h-0.5h-1.9h-0.5v0.5v2.7V37h0.5h1.9H35v-0.5v-2.7V33.3L35,33.3z"/>
			</g>
			
				<rect x="34.3" y="35" transform="matrix(6.123234e-17 -1 1 6.123234e-17 -0.5424 69.9373)" class="st0" width="0.7" height="0.5"/>
			
				<rect x="33.2" y="33.4" transform="matrix(-1 -1.224647e-16 1.224647e-16 -1 67.0619 67.2264)" class="st0" width="0.7" height="0.5"/>
			
				<rect x="32.8" y="36.5" transform="matrix(-1 -1.224647e-16 1.224647e-16 -1 66.3395 73.5155)" class="st0" width="0.7" height="0.5"/>
		</g>
		<g>
			<rect x="28.9" y="34.1" class="st3" width="0.7" height="2.1"/>
			<rect x="32.4" y="34.1" class="st3" width="0.7" height="2.1"/>
			<rect x="29.6" y="34.1" class="st14" width="2.8" height="2.1"/>
		</g>
		<line class="st11" x1="30.4" y1="33.8" x2="31.9" y2="33.8"/>
		<line class="st11" x1="30.4" y1="36.6" x2="31.9" y2="36.6"/>
	</g>
	<g>
		<g>
			<rect x="38.8" y="33.8" class="st6" width="1.9" height="2.7"/>
			<g>
				<g>
					<path class="st13" d="M40.7,33.8v2.7h-1.9v-2.7H40.7 M41.2,33.3h-0.5h-1.9h-0.5v0.5v2.7V37h0.5h1.9h0.5v-0.5v-2.7V33.3
						L41.2,33.3z"/>
				</g>
			</g>
		</g>
		<g>
			<rect x="43.6" y="33.8" class="st6" width="1.9" height="2.7"/>
			<g>
				<path class="st12" d="M45.5,33.8v2.7h-1.9v-2.7H45.5 M46,33.3h-0.5h-1.9h-0.5v0.5v2.7V37h0.5h1.9H46v-0.5v-2.7V33.3L46,33.3z"/>
			</g>
			
				<rect x="45.4" y="35" transform="matrix(6.123234e-17 -1 1 6.123234e-17 10.5013 80.981)" class="st0" width="0.7" height="0.5"/>
			
				<rect x="44.2" y="33.4" transform="matrix(-1 -1.224647e-16 1.224647e-16 -1 89.1494 67.2264)" class="st0" width="0.7" height="0.5"/>
			
				<rect x="43.9" y="36.5" transform="matrix(-1 -1.224647e-16 1.224647e-16 -1 88.427 73.5155)" class="st0" width="0.7" height="0.5"/>
		</g>
		<g>
			<rect x="39.9" y="34.1" class="st3" width="0.7" height="2.1"/>
			<rect x="43.5" y="34.1" class="st3" width="0.7" height="2.1"/>
			<rect x="40.6" y="34.1" class="st14" width="2.8" height="2.1"/>
		</g>
		<line class="st11" x1="41.4" y1="33.8" x2="42.9" y2="33.8"/>
		<line class="st11" x1="41.4" y1="36.6" x2="42.9" y2="36.6"/>
	</g>
	<g>
		<g>
			<g>
				<rect x="41.1" y="23.2" class="st6" width="2.4" height="2.5"/>
				<rect x="41.1" y="23.2" class="st2" width="2.4" height="2.5"/>
			</g>
			<g>
				<rect x="38.7" y="28.4" class="st6" width="2.4" height="2.5"/>
				<rect x="38.7" y="28.4" class="st2" width="2.4" height="2.5"/>
			</g>
			<g>
				<rect x="43.4" y="28.4" class="st6" width="2.4" height="2.5"/>
				<rect x="43.4" y="28.4" class="st2" width="2.4" height="2.5"/>
			</g>
			<rect x="41.9" y="24" class="st3" width="0.7" height="1.4"/>
			<g>
				<rect x="38.7" y="23.2" class="st6" width="2.4" height="2.5"/>
				<rect x="38.7" y="23.2" class="st2" width="2.4" height="2.5"/>
			</g>
			<rect x="39.5" y="24" class="st3" width="0.7" height="1.4"/>
			<g>
				<rect x="43.4" y="23.2" class="st6" width="2.4" height="2.5"/>
				<rect x="43.4" y="23.2" class="st2" width="2.4" height="2.5"/>
			</g>
			<rect x="44.3" y="24" class="st3" width="0.7" height="1.4"/>
			<rect x="39.5" y="28.8" class="st3" width="0.7" height="1.4"/>
			<rect x="44.3" y="28.8" class="st3" width="0.7" height="1.4"/>
			<rect x="38.3" y="25.4" class="st10" width="8" height="3.4"/>
		</g>
		<line class="st11" x1="37.8" y1="24.5" x2="37.8" y2="29.5"/>
		<line class="st11" x1="46.5" y1="22.9" x2="46.5" y2="29.5"/>
	</g>
	<g>
		
			<rect x="28.5" y="22" transform="matrix(-1 -1.224647e-16 1.224647e-16 -1 58.5371 45.7929)" class="st6" width="1.5" height="1.9"/>
		<g>
			<path class="st12" d="M30,22v1.9h-1.5V22H30 M30.4,21.6H30h-1.5h-0.4V22v1.9v0.4h0.4H30h0.4v-0.4V22V21.6L30.4,21.6z"/>
		</g>
		
			<rect x="28.1" y="22.7" transform="matrix(-1.836970e-16 1 -1 -1.836970e-16 51.2021 -5.4857)" class="st0" width="0.5" height="0.4"/>
		<rect x="29" y="23.8" class="st0" width="0.6" height="0.3"/>
	</g>
	<g>
		
			<rect x="28.5" y="24.7" transform="matrix(-1 -1.224647e-16 1.224647e-16 -1 58.5371 51.2279)" class="st6" width="1.5" height="1.9"/>
		<g>
			<path class="st12" d="M30,24.7v1.9h-1.5v-1.9H30 M30.4,24.3H30h-1.5h-0.4v0.4v1.9v0.3h0.4H30h0.4v-0.3v-1.9V24.3L30.4,24.3z"/>
		</g>
		
			<rect x="28.1" y="25.4" transform="matrix(-1.836970e-16 1 -1 -1.836970e-16 53.9196 -2.7682)" class="st0" width="0.5" height="0.4"/>
	</g>
	<g>
		
			<rect x="28.5" y="30" transform="matrix(-1 -1.224647e-16 1.224647e-16 -1 58.5371 61.8698)" class="st6" width="1.5" height="1.9"/>
		<g>
			<path class="st12" d="M30,30v1.9h-1.5V30H30 M30.4,29.6H30h-1.5h-0.4V30v1.9v0.4h0.4H30h0.4v-0.4V30V29.6L30.4,29.6z"/>
		</g>
		
			<rect x="28.1" y="30.7" transform="matrix(-1.836970e-16 1 -1 -1.836970e-16 59.2406 2.5527)" class="st0" width="0.5" height="0.4"/>
	</g>
	<g>
		
			<rect x="28.5" y="27.3" transform="matrix(-1 -1.224647e-16 1.224647e-16 -1 58.5371 56.5271)" class="st6" width="1.5" height="1.9"/>
		<g>
			<path class="st12" d="M30,27.3v1.9h-1.5v-1.9H30 M30.4,27H30h-1.5h-0.4v0.4v1.9v0.3h0.4H30h0.4v-0.3v-1.9V27L30.4,27z"/>
		</g>
	</g>
	<g>
		
			<rect x="32.4" y="22" transform="matrix(-1 -1.224647e-16 1.224647e-16 -1 66.3096 45.7929)" class="st6" width="1.5" height="1.9"/>
		<g>
			<path class="st12" d="M33.9,22v1.9h-1.5V22H33.9 M34.2,21.6h-0.3h-1.5h-0.3V22v1.9v0.4h0.3h1.5h0.3v-0.4V22V21.6L34.2,21.6z"/>
		</g>
	</g>
	<g>
		
			<rect x="32.4" y="24.7" transform="matrix(-1 -1.224647e-16 1.224647e-16 -1 66.3096 51.2279)" class="st6" width="1.5" height="1.9"/>
		<g>
			<path class="st12" d="M33.9,24.7v1.9h-1.5v-1.9H33.9 M34.2,24.3h-0.3h-1.5h-0.3v0.4v1.9v0.3h0.3h1.5h0.3v-0.3v-1.9V24.3
				L34.2,24.3z"/>
		</g>
	</g>
	<g>
		
			<rect x="32.4" y="30" transform="matrix(-1 -1.224647e-16 1.224647e-16 -1 66.3096 61.8698)" class="st6" width="1.5" height="1.9"/>
		<g>
			<path class="st12" d="M33.9,30v1.9h-1.5V30H33.9 M34.2,29.6h-0.3h-1.5h-0.3V30v1.9v0.4h0.3h1.5h0.3v-0.4V30V29.6L34.2,29.6z"/>
		</g>
	</g>
	<g>
		
			<rect x="32.4" y="27.3" transform="matrix(-1 -1.224647e-16 1.224647e-16 -1 66.3096 56.5271)" class="st6" width="1.5" height="1.9"/>
		<g>
			<path class="st12" d="M33.9,27.3v1.9h-1.5v-1.9H33.9 M34.2,27h-0.3h-1.5h-0.3v0.4v1.9v0.3h0.3h1.5h0.3v-0.3v-1.9V27L34.2,27z"/>
		</g>
	</g>
	<line class="st11" x1="28.3" y1="32.5" x2="34.2" y2="32.5"/>
	<line class="st11" x1="28.3" y1="21.3" x2="34.2" y2="21.3"/>
	<g>
		<rect x="26.4" y="24.3" transform="matrix(6.123234e-17 -1 1 6.123234e-17 4.375 58.0637)" width="9.7" height="5"/>
		
			<rect x="26.6" y="24.4" transform="matrix(6.123234e-17 -1 1 6.123234e-17 4.375 58.0637)" class="st15" width="9.3" height="4.8"/>
	</g>
	<circle class="st16" cx="31.2" cy="24.7" r="0.8"/>
	<circle class="st16" cx="31.2" cy="28.9" r="1.2"/>
</g>
</svg>
