<?xml version="1.0" encoding="utf-8"?>
<!-- Generator: Adobe Illustrator 23.0.1, SVG Export Plug-In . SVG Version: 6.00 Build 0)  -->
<svg version="1.1" id="Layer_1" xmlns="http://www.w3.org/2000/svg" xmlns:xlink="http://www.w3.org/1999/xlink" x="0px" y="0px"
	 viewBox="0 0 127.6 85" style="enable-background:new 0 0 127.6 85;" xml:space="preserve">
<style type="text/css">
	.st0{fill:#1D2856;}
	.st1{fill:#FFFFFF;}
	.st2{font-family:'Bahnschrift';}
	.st3{font-size:6.5865px;}
	.st4{font-size:8.6148px;}
	.st5{font-size:4.7652px;}
	.st6{fill:#BE9349;}
	.st7{fill:#E5E5EC;}
	.st8{fill:#C0944C;}
	.st9{fill:#FDC26B;}
	.st10{fill:#FFD39B;}
	.st11{fill:#3F4040;}
	.st12{opacity:0.8;}
	.st13{clip-path:url(#SVGID_2_);}
	.st14{fill:none;stroke:#231F20;stroke-width:0.5;stroke-miterlimit:10;}
	.st15{clip-path:url(#SVGID_4_);}
	.st16{fill:#FDE500;}
	.st17{fill:#EA2227;}
	.st18{fill:none;stroke:#FFFFFF;stroke-miterlimit:10;}
</style>
<g>
	<path class="st0" d="M0,0v57.2h127.6V0H0z M4,56c-1.6,0-3-1.3-3-3c0-1.6,1.3-3,3-3s3,1.3,3,3C7,54.7,5.6,56,4,56z M4,7
		C2.3,7,1,5.7,1,4c0-1.6,1.3-3,3-3s3,1.3,3,3C7,5.7,5.6,7,4,7z M123.2,56c-1.6,0-3-1.3-3-3c0-1.6,1.3-3,3-3c1.6,0,3,1.3,3,3
		C126.2,54.7,124.9,56,123.2,56z M123.2,7c-1.6,0-3-1.3-3-3c0-1.6,1.3-3,3-3c1.6,0,3,1.3,3,3C126.2,5.7,124.9,7,123.2,7z"/>
</g>
<text transform="matrix(1 0 0 1 51.2649 21.6651)" class="st1 st2 st3">HC-SRO4</text>
<text transform="matrix(1 0 0 1 115.6086 55.2491)" class="st1 st2 st4">R</text>
<text transform="matrix(1 0 0 1 9.051 55.2491)" class="st1 st2 st4">T</text>
<text transform="matrix(0 -1 1 0 54.5482 48.3907)" class="st1 st2 st5">Vcc</text>
<g>
	<path class="st6" d="M52.8,55.3L52.8,55.3c-1.3,0-2.3-1-2.3-2.3v-1.3c0-1.3,1-2.3,2.3-2.3h0c1.3,0,2.3,1,2.3,2.3V53
		C55.1,54.3,54.1,55.3,52.8,55.3z"/>
	<path class="st7" d="M52.8,54.6L52.8,54.6c-1,0-1.7-0.8-1.7-1.7v-1c0-1,0.8-1.7,1.7-1.7h0c1,0,1.7,0.8,1.7,1.7v1
		C54.6,53.8,53.8,54.6,52.8,54.6z"/>
	<g>
		
			<rect x="52.2" y="51.7" transform="matrix(6.123234e-17 -1 1 6.123234e-17 0.4742 105.2169)" class="st8" width="1.3" height="1.3"/>
		<polygon class="st9" points="52.8,52.4 53.5,53 53.5,51.7 		"/>
		<polygon class="st10" points="52.2,53 52.8,52.4 53.5,53 		"/>
		<polygon class="st9" points="52.2,51.7 52.8,52.4 52.2,53 		"/>
	</g>
</g>
<g>
	
		<rect x="48.9" y="60.5" transform="matrix(6.123234e-17 -1 1 6.123234e-17 -8.3456 114.0328)" class="st8" width="8" height="1.4"/>
	
		<rect x="48.9" y="60.6" transform="matrix(6.123234e-17 -1 1 6.123234e-17 -8.3456 114.0328)" class="st9" width="8" height="1.1"/>
	<polygon class="st9" points="53.3,65.7 53.5,65.2 52.1,65.2 52.4,65.7 	"/>
	<polygon class="st10" points="53.3,65.7 53.4,65.2 52.3,65.2 52.4,65.7 	"/>
</g>
<text transform="matrix(0 -1 1 0 61.6349 48.3907)" class="st1 st2 st5">Trig</text>
<g>
	<path class="st6" d="M60,55.3L60,55.3c-1.3,0-2.3-1-2.3-2.3v-1.3c0-1.3,1-2.3,2.3-2.3h0c1.3,0,2.3,1,2.3,2.3V53
		C62.3,54.3,61.2,55.3,60,55.3z"/>
	<path class="st7" d="M60,54.6L60,54.6c-1,0-1.7-0.8-1.7-1.7v-1c0-1,0.8-1.7,1.7-1.7h0c1,0,1.7,0.8,1.7,1.7v1
		C61.7,53.8,60.9,54.6,60,54.6z"/>
	<g>
		
			<rect x="59.3" y="51.7" transform="matrix(6.123234e-17 -1 1 6.123234e-17 7.6118 112.3545)" class="st8" width="1.3" height="1.3"/>
		<polygon class="st9" points="60,52.4 60.7,53 60.7,51.7 		"/>
		<polygon class="st10" points="59.3,53 60,52.4 60.7,53 		"/>
		<polygon class="st9" points="59.3,51.7 60,52.4 59.3,53 		"/>
	</g>
</g>
<g>
	<rect x="56" y="60.5" transform="matrix(6.123234e-17 -1 1 6.123234e-17 -1.208 121.1704)" class="st8" width="8" height="1.4"/>
	<rect x="56" y="60.6" transform="matrix(6.123234e-17 -1 1 6.123234e-17 -1.208 121.1704)" class="st9" width="8" height="1.1"/>
	<polygon class="st9" points="60.4,65.7 60.7,65.2 59.3,65.2 59.6,65.7 	"/>
	<polygon class="st10" points="60.4,65.7 60.6,65.2 59.4,65.2 59.6,65.7 	"/>
</g>
<text transform="matrix(0 -1 1 0 68.7215 48.3907)" class="st1 st2 st5">Echo</text>
<g>
	<path class="st6" d="M67.1,55.3L67.1,55.3c-1.3,0-2.3-1-2.3-2.3v-1.3c0-1.3,1-2.3,2.3-2.3l0,0c1.3,0,2.3,1,2.3,2.3V53
		C69.4,54.3,68.4,55.3,67.1,55.3z"/>
	<path class="st7" d="M67.1,54.6L67.1,54.6c-1,0-1.7-0.8-1.7-1.7v-1c0-1,0.8-1.7,1.7-1.7l0,0c1,0,1.7,0.8,1.7,1.7v1
		C68.9,53.8,68.1,54.6,67.1,54.6z"/>
	<g>
		
			<rect x="66.4" y="51.7" transform="matrix(6.123234e-17 -1 1 6.123234e-17 14.7493 119.4921)" class="st8" width="1.3" height="1.3"/>
		<polygon class="st9" points="67.1,52.4 67.8,53 67.8,51.7 		"/>
		<polygon class="st10" points="66.4,53 67.1,52.4 67.8,53 		"/>
		<polygon class="st9" points="66.4,51.7 67.1,52.4 66.4,53 		"/>
	</g>
</g>
<g>
	<rect x="63.1" y="60.5" transform="matrix(6.123234e-17 -1 1 6.123234e-17 5.9296 128.308)" class="st8" width="8" height="1.4"/>
	<rect x="63.1" y="60.6" transform="matrix(6.123234e-17 -1 1 6.123234e-17 5.9296 128.308)" class="st9" width="8" height="1.1"/>
	<polygon class="st9" points="67.5,65.7 67.8,65.2 66.4,65.2 66.7,65.7 	"/>
	<polygon class="st10" points="67.5,65.7 67.7,65.2 66.5,65.2 66.7,65.7 	"/>
</g>
<text transform="matrix(0 -1 1 0 75.8081 48.3907)" class="st1 st2 st5">Gnd</text>
<g>
	<path class="st6" d="M74.3,55.3L74.3,55.3c-1.3,0-2.3-1-2.3-2.3v-1.3c0-1.3,1-2.3,2.3-2.3l0,0c1.3,0,2.3,1,2.3,2.3V53
		C76.5,54.3,75.5,55.3,74.3,55.3z"/>
	<path class="st7" d="M74.3,54.6L74.3,54.6c-1,0-1.7-0.8-1.7-1.7v-1c0-1,0.8-1.7,1.7-1.7l0,0c1,0,1.7,0.8,1.7,1.7v1
		C76,53.8,75.2,54.6,74.3,54.6z"/>
	<g>
		
			<rect x="73.6" y="51.7" transform="matrix(6.123234e-17 -1 1 6.123234e-17 21.8868 126.6296)" class="st8" width="1.3" height="1.3"/>
		<polygon class="st9" points="74.3,52.4 74.9,53 74.9,51.7 		"/>
		<polygon class="st10" points="73.6,53 74.3,52.4 74.9,53 		"/>
		<polygon class="st9" points="73.6,51.7 74.3,52.4 73.6,53 		"/>
	</g>
</g>
<g>
	
		<rect x="70.3" y="60.5" transform="matrix(6.123234e-17 -1 1 6.123234e-17 13.0671 135.4455)" class="st8" width="8" height="1.4"/>
	
		<rect x="70.3" y="60.6" transform="matrix(6.123234e-17 -1 1 6.123234e-17 13.0671 135.4455)" class="st9" width="8" height="1.1"/>
	<polygon class="st9" points="74.7,65.7 75,65.2 73.6,65.2 73.8,65.7 	"/>
	<polygon class="st10" points="74.7,65.7 74.8,65.2 73.7,65.2 73.8,65.7 	"/>
</g>
<g>
	<circle class="st7" cx="24" cy="27.6" r="24"/>
	<circle class="st11" cx="24" cy="27.6" r="19.7"/>
	<g class="st12">
		<defs>
			<circle id="SVGID_1_" class="st12" cx="24" cy="27.6" r="19.7"/>
		</defs>
		<clipPath id="SVGID_2_">
			<use xlink:href="#SVGID_1_"  style="overflow:visible;"/>
		</clipPath>
		<g class="st13">
			<g>
				<line class="st14" x1="4.3" y1="7.9" x2="4.3" y2="47.4"/>
				<line class="st14" x1="14.2" y1="7.9" x2="14.2" y2="47.4"/>
				<line class="st14" x1="24" y1="7.9" x2="24" y2="47.4"/>
				<line class="st14" x1="33.9" y1="7.9" x2="33.9" y2="47.4"/>
				<line class="st14" x1="43.8" y1="7.9" x2="43.8" y2="47.4"/>
			</g>
			<g>
				<line class="st14" x1="-2.9" y1="34.9" x2="31.3" y2="54.6"/>
				<line class="st14" x1="2" y1="26.3" x2="36.2" y2="46.1"/>
				<line class="st14" x1="7" y1="17.8" x2="41.1" y2="37.5"/>
				<line class="st14" x1="11.9" y1="9.2" x2="46.1" y2="29"/>
				<line class="st14" x1="16.8" y1="0.7" x2="51" y2="20.4"/>
			</g>
			<g>
				<line class="st14" x1="51" y1="34.9" x2="16.8" y2="54.6"/>
				<line class="st14" x1="46.1" y1="26.3" x2="11.9" y2="46.1"/>
				<line class="st14" x1="41.1" y1="17.8" x2="7" y2="37.5"/>
				<line class="st14" x1="36.2" y1="9.2" x2="2" y2="29"/>
				<line class="st14" x1="31.3" y1="0.7" x2="-2.9" y2="20.4"/>
			</g>
		</g>
	</g>
</g>
<g>
	<circle class="st7" cx="103.5" cy="28.6" r="24"/>
	<circle class="st11" cx="103.5" cy="28.6" r="19.7"/>
	<g class="st12">
		<defs>
			<circle id="SVGID_3_" class="st12" cx="103.5" cy="28.6" r="19.7"/>
		</defs>
		<clipPath id="SVGID_4_">
			<use xlink:href="#SVGID_3_"  style="overflow:visible;"/>
		</clipPath>
		<g class="st15">
			<g>
				<line class="st14" x1="83.8" y1="8.9" x2="83.8" y2="48.4"/>
				<line class="st14" x1="93.6" y1="8.9" x2="93.6" y2="48.4"/>
				<line class="st14" x1="103.5" y1="8.9" x2="103.5" y2="48.4"/>
				<line class="st14" x1="113.4" y1="8.9" x2="113.4" y2="48.4"/>
				<line class="st14" x1="123.2" y1="8.9" x2="123.2" y2="48.4"/>
			</g>
			<g>
				<line class="st14" x1="76.5" y1="35.8" x2="110.7" y2="55.6"/>
				<line class="st14" x1="81.5" y1="27.3" x2="115.6" y2="47"/>
				<line class="st14" x1="86.4" y1="18.8" x2="120.6" y2="38.5"/>
				<line class="st14" x1="91.3" y1="10.2" x2="125.5" y2="29.9"/>
				<line class="st14" x1="96.3" y1="1.7" x2="130.4" y2="21.4"/>
			</g>
			<g>
				<line class="st14" x1="130.4" y1="35.8" x2="96.3" y2="55.6"/>
				<line class="st14" x1="125.5" y1="27.3" x2="91.3" y2="47"/>
				<line class="st14" x1="120.6" y1="18.8" x2="86.4" y2="38.5"/>
				<line class="st14" x1="115.6" y1="10.2" x2="81.5" y2="29.9"/>
				<line class="st14" x1="110.7" y1="1.7" x2="76.5" y2="21.4"/>
			</g>
		</g>
	</g>
</g>
<g>
	<rect x="65.6" y="64.1" class="st16" width="3" height="17.2"/>
</g>
<g>
	<rect x="58.5" y="64.1" class="st1" width="3" height="13.4"/>
</g>
<g>
	<rect x="51.3" y="64.1" class="st17" width="3" height="13.4"/>
</g>
<g>
	<rect x="72.8" y="64.1" width="3" height="17.2"/>
</g>
<polyline class="st18" points="49.4,78.1 65,78.1 61.2,81.9 77.6,81.9 "/>
<polyline class="st18" points="49.4,81.4 58.3,81.4 55.1,84.6 77.6,84.6 "/>
</svg>
