<?xml version="1.0" encoding="UTF-8" standalone="no"?>
<svg
   xmlns:dc="http://purl.org/dc/elements/1.1/"
   xmlns:cc="http://creativecommons.org/ns#"
   xmlns:rdf="http://www.w3.org/1999/02/22-rdf-syntax-ns#"
   xmlns:svg="http://www.w3.org/2000/svg"
   xmlns="http://www.w3.org/2000/svg"
   xmlns:xlink="http://www.w3.org/1999/xlink"
   xmlns:sodipodi="http://sodipodi.sourceforge.net/DTD/sodipodi-0.dtd"
   xmlns:inkscape="http://www.inkscape.org/namespaces/inkscape"
   version="1.1"
   id="Layer_1"
   x="0px"
   y="0px"
   viewBox="0 0 65.8 56.7"
   style="enable-background:new 0 0 65.8 56.7;"
   xml:space="preserve"
   sodipodi:docname="device_fix.svg"
   inkscape:version="1.0.2-2 (e86c870879, 2021-01-15)"
   inkscape:export-filename="C:\Users\Jetstream\Documents\JET\jobs-2020\MakerPlayground\library\devices\Grove-104030009\asset\device_fix.png"
   inkscape:export-xdpi="192"
   inkscape:export-ydpi="192"><metadata
   id="metadata236"><rdf:RDF><cc:Work
       rdf:about=""><dc:format>image/svg+xml</dc:format><dc:type
         rdf:resource="http://purl.org/dc/dcmitype/StillImage" /></cc:Work></rdf:RDF></metadata><defs
   id="defs234" /><sodipodi:namedview
   pagecolor="#ffffff"
   bordercolor="#666666"
   borderopacity="1"
   objecttolerance="10"
   gridtolerance="10"
   guidetolerance="10"
   inkscape:pageopacity="0"
   inkscape:pageshadow="2"
   inkscape:window-width="2160"
   inkscape:window-height="1346"
   id="namedview232"
   showgrid="false"
   inkscape:zoom="16"
   inkscape:cx="23.433116"
   inkscape:cy="31.585146"
   inkscape:window-x="-11"
   inkscape:window-y="1789"
   inkscape:window-maximized="1"
   inkscape:current-layer="Layer_1"
   inkscape:document-rotation="0" />
<style
   type="text/css"
   id="style124">
	.st0{fill:#274A88;}
	.st1{fill:#FFFFFF;}
	.st2{font-family:'ArialMT';}
	.st3{font-size:3.75px;}
	.st4{font-family:'MyriadPro-Regular';}
	.st5{fill:none;stroke:#FFFFFF;stroke-width:0.25;stroke-miterlimit:10;}
	.st6{fill:#474748;}
	.st7{opacity:0.7;fill:#EDEEF2;enable-background:new    ;}
	.st8{fill:#696969;}
	.st9{fill:#7C6B2B;stroke:#C6C5C5;stroke-miterlimit:10;}
	.st10{fill:#282828;}
	.st11{fill:#EDEDF2;}
	.st12{fill:#DDDDDC;}
	.st13{fill:#DA9B32;}
	.st14{fill:#FFB926;}
	.st15{clip-path:url(#SVGID_2_);fill:#E8A123;stroke:#D38E20;stroke-width:0.15;stroke-miterlimit:10;}
	.st16{fill:#FFFFFF;}
	.st17{fill:none;stroke:#000000;stroke-width:0.1721;stroke-miterlimit:19.5312;}
	.st18{fill:#C9B55E;}
</style>
<path
   id="rect2992"
   class="st0"
   d="M0.1,28.5c0,2.5,2,4.5,4.5,4.5v21.6c0,1.3,1,2.3,2.2,2.3h21.6c0-2.5,2-4.5,4.5-4.5s4.5,2,4.5,4.5  H59c1.3,0,2.3-1,2.3-2.3V33c2.5,0,4.5-2,4.5-4.5s-2-4.5-4.5-4.5V2.4c0-1.3-1-2.3-2.3-2.3H37.4c0,2.5-2,4.5-4.5,4.5s-4.5-2-4.5-4.5  H6.8c-1.3,0-2.3,1-2.3,2.3v21.7C2.1,24.1,0.1,26.1,0.1,28.5z M2,28.5c0-1.4,1.2-2.6,2.6-2.6s2.6,1.2,2.6,2.6S6,31.1,4.6,31.1  S2,30,2,28.5z M58.7,28.5c0-1.4,1.1-2.6,2.6-2.6s2.6,1.2,2.6,2.6s-1.2,2.6-2.6,2.6S58.7,30,58.7,28.5z" />
<text
   id="XMLID_97_"
   transform="matrix(6.123234e-17 -1 1 6.123234e-17 25.1742 38.607)"
   class="st1 st2 st3">GND</text>
<text
   id="XMLID_96_"
   transform="matrix(-1 0 0 -1 17.1729 45.107)"
   class="st1 st2 st3">J1</text>
<text
   id="XMLID_95_"
   transform="matrix(6.123234e-17 -1 1 6.123234e-17 30.5746 38.607)"
   class="st1 st2 st3">VCC</text>
<text
   id="XMLID_94_"
   transform="matrix(6.123234e-17 -1 1 6.123234e-17 35.975 38.607)"
   class="st1 st2 st3">NC</text>
<text
   id="XMLID_93_"
   transform="matrix(6.123234e-17 -1 1 6.123234e-17 41.3755 38.607)"
   class="st1 st2 st3">SIG</text>
<text
   id="XMLID_91_"
   transform="matrix(-1 0 0 -1 39.9746 7.0445)"
   class="st1 st2 st3">R3</text>
<text
   id="XMLID_10_"
   transform="matrix(-1 0 0 -1 55.0693 37.23)"
   class="st1 st2 st3">R1</text>
<text
   id="XMLID_90_"
   transform="matrix(-1 0 0 -1 24.5508 6.3042)"
   class="st1 st2 st3">R2</text>
<text
   id="XMLID_89_"
   transform="matrix(6.123234e-17 -1 1 6.123234e-17 59.9044 21.2662)"
   class="st1 st2 st3">D1</text>
<text
   id="XMLID_88_"
   transform="matrix(6.123234e-17 -1 1 6.123234e-17 58.9044 5.9537)"
   class="st1 st4 st3">+</text>
<text
   id="XMLID_86_"
   transform="matrix(6.123234e-17 -1 1 6.123234e-17 57.8 27.6001)"
   class="st1 st2 st3">Q1</text>
<g
   id="XMLID_80_">
	<rect
   id="XMLID_85_"
   x="34.5"
   y="21.9"
   class="st5"
   width="3.6"
   height="8.4" />
	<g
   id="XMLID_81_">
		<rect
   id="XMLID_84_"
   x="35.2"
   y="28.2"
   class="st1"
   width="2.3"
   height="1.2" />
		<rect
   id="XMLID_83_"
   x="35.2"
   y="22.5"
   class="st1"
   width="2.3"
   height="1.2" />
		<rect
   id="XMLID_82_"
   x="35.2"
   y="23.7"
   class="st6"
   width="2.3"
   height="4.5" />
	</g>
</g>
<g
   id="XMLID_74_">
	<rect
   id="XMLID_79_"
   x="39.6"
   y="21.9"
   class="st5"
   width="3.6"
   height="8.4" />
	<g
   id="XMLID_75_">
		<rect
   id="XMLID_78_"
   x="40.3"
   y="28.2"
   class="st1"
   width="2.3"
   height="1.2" />
		<rect
   id="XMLID_77_"
   x="40.3"
   y="22.5"
   class="st1"
   width="2.3"
   height="1.2" />
		<rect
   id="XMLID_76_"
   x="40.3"
   y="23.7"
   class="st6"
   width="2.3"
   height="4.5" />
	</g>
</g>
<g
   id="XMLID_3_">
	<rect
   id="XMLID_9_"
   x="47.3"
   y="32.4"
   class="st5"
   width="8.4"
   height="3.6" />
	<g
   id="XMLID_4_">
		<rect
   id="XMLID_8_"
   x="53.6"
   y="33"
   class="st1"
   width="1.2"
   height="2.3" />
		<rect
   id="XMLID_6_"
   x="47.9"
   y="33"
   class="st1"
   width="1.2"
   height="2.3" />
		<rect
   id="XMLID_5_"
   x="49.1"
   y="33"
   class="st6"
   width="4.5"
   height="2.3" />
	</g>
</g>
<g
   id="XMLID_68_">
	<rect
   id="XMLID_73_"
   x="34.5"
   y="11"
   class="st5"
   width="3.6"
   height="8.4" />
	<g
   id="XMLID_69_">
		<rect
   id="XMLID_72_"
   x="35.2"
   y="17.4"
   class="st1"
   width="2.3"
   height="1.2" />
		<rect
   id="XMLID_71_"
   x="35.2"
   y="11.7"
   class="st1"
   width="2.3"
   height="1.2" />
		<rect
   id="XMLID_70_"
   x="35.2"
   y="12.9"
   class="st6"
   width="2.3"
   height="4.5" />
	</g>
</g>
<g
   id="XMLID_57_">
	<rect
   id="XMLID_67_"
   x="44.9"
   y="22.4"
   class="st7"
   width="2.6"
   height="2.6" />
	<rect
   id="XMLID_66_"
   x="45.2"
   y="22.6"
   class="st7"
   width="2.2"
   height="1.9" />
	<rect
   id="XMLID_65_"
   x="51"
   y="25.1"
   class="st7"
   width="2.2"
   height="1.9" />
	<rect
   id="XMLID_64_"
   x="45.2"
   y="27.6"
   class="st7"
   width="2.2"
   height="1.9" />
	<rect
   id="XMLID_63_"
   x="44.9"
   y="27.3"
   class="st7"
   width="2.6"
   height="2.6" />
	<rect
   id="XMLID_62_"
   x="51"
   y="24.7"
   class="st7"
   width="2.6"
   height="2.6" />
	<rect
   id="XMLID_61_"
   x="51"
   y="25.7"
   class="st1"
   width="1.5"
   height="0.8" />
	<rect
   id="XMLID_60_"
   x="46"
   y="23.2"
   class="st1"
   width="1.5"
   height="0.8" />
	<rect
   id="XMLID_59_"
   x="46"
   y="28.2"
   class="st1"
   width="1.5"
   height="0.8" />
	<rect
   id="XMLID_58_"
   x="47.5"
   y="21.9"
   class="st6"
   width="3.6"
   height="8.4" />
</g>
<g
   id="XMLID_55_">
	<path
   id="XMLID_56_"
   class="st8"
   d="M40.7,12.4c0,2.5,1,4.7,2.7,6.2h11.7c1.7-1.6,2.7-3.8,2.7-6.2c0-4.7-3.8-8.5-8.5-8.5   C44.5,3.8,40.7,7.6,40.7,12.4z" />
</g>
<rect
   id="XMLID_54_"
   x="12.4"
   y="10.6"
   class="st5"
   width="19.1"
   height="19.1" />
<circle
   id="XMLID_53_"
   class="st9"
   cx="29.5"
   cy="12.9"
   r="2.2" />
<circle
   id="XMLID_52_"
   class="st9"
   cx="29.5"
   cy="27.3"
   r="2.2" />
<g
   id="XMLID_28_">
	<rect
   id="XMLID_51_"
   x="14"
   y="12.2"
   class="st10"
   width="16"
   height="16" />
	<g
   id="XMLID_49_">
		<path
   id="XMLID_50_"
   class="st11"
   d="M13.8,29.3H30c0.6,0,1-0.4,1-1V26l-3.8-1.6v-8.5l3.8-1.6V12c0-0.6-0.4-1-1-1H13.8    c-0.6,0-1,0.4-1,1v16.3C12.8,28.8,13.2,29.3,13.8,29.3z" />
	</g>
	<rect
   id="XMLID_48_"
   x="27.2"
   y="17.1"
   class="st12"
   width="1.8"
   height="6.3" />
	<rect
   id="XMLID_47_"
   x="29.1"
   y="17.1"
   class="st6"
   width="1.8"
   height="6.3" />
	<path
   id="XMLID_46_"
   class="st1"
   d="M31.1,23v3.3c0,0.4-0.3,0.7-0.7,0.7l0,0c-0.4,0-0.7-0.3-0.7-0.7V23c0-0.4,0.3-0.7,0.7-0.7l0,0   C30.8,22.4,31.1,22.6,31.1,23z" />
	<path
   id="XMLID_45_"
   class="st1"
   d="M31.1,13.9v3.3c0,0.4-0.3,0.7-0.7,0.7l0,0c-0.4,0-0.7-0.3-0.7-0.7v-3.3c0-0.4,0.3-0.7,0.7-0.7   l0,0C30.8,13.1,31.1,13.4,31.1,13.9z" />
	<path
   id="XMLID_44_"
   class="st13"
   d="M23.1,16.9v6.7c0,0.8-0.7,1.5-1.5,1.5h-5c-1.2,0-2.3-1-2.3-2.3v-5.2c0-1.2,1-2.3,2.3-2.3h5   C22.5,15.4,23.1,16,23.1,16.9z" />
	<path
   id="XMLID_41_"
   class="st14"
   d="M22.9,19.1v2.2c0,0,0,3.5-4.1,3.5s-4.1-1.3-4.1-1.3v-6.6c0,0,0-1.3,4.1-1.3   S22.9,19.1,22.9,19.1z" />
	<path
   id="XMLID_40_"
   class="st13"
   d="M17.8,17.9v1.3c0,0.1-0.1,0.2-0.2,0.2h-1.3c-0.1,0-0.2,0.1-0.2,0.2v1.3c0,0.1,0.1,0.2,0.2,0.2   h1.3c0.1,0,0.2,0.1,0.2,0.2v1.3c0,0.1,0.1,0.2,0.2,0.2h1.3c0.1,0,0.2-0.1,0.2-0.2v-1.3c0-0.1,0.1-0.2,0.2-0.2H21   c0.1,0,0.2-0.1,0.2-0.2v-1.3c0-0.1-0.1-0.2-0.2-0.2h-1.3c-0.1,0-0.2-0.1-0.2-0.2v-1.3c0-0.1-0.1-0.2-0.2-0.2H18   C17.8,17.6,17.8,17.7,17.8,17.9z" />
	<g
   id="XMLID_29_">
		<g
   id="g197">
			<g
   id="g195">
				<defs
   id="defs189">
					<path
   id="SVGID_1_"
   d="M17.8,17.9v1.3c0,0.1-0.1,0.2-0.2,0.2h-1.3c-0.1,0-0.2,0.1-0.2,0.2v1.3c0,0.1,0.1,0.2,0.2,0.2h1.3       c0.1,0,0.2,0.1,0.2,0.2v1.3c0,0.1,0.1,0.2,0.2,0.2h1.3c0.1,0,0.2-0.1,0.2-0.2v-1.3c0-0.1,0.1-0.2,0.2-0.2H21       c0.1,0,0.2-0.1,0.2-0.2v-1.3c0-0.1-0.1-0.2-0.2-0.2h-1.3c-0.1,0-0.2-0.1-0.2-0.2v-1.3c0-0.1-0.1-0.2-0.2-0.2H18       C17.8,17.6,17.8,17.7,17.8,17.9z" />
				</defs>
				<clipPath
   id="SVGID_2_">
					<use
   xlink:href="#SVGID_1_"
   style="overflow:visible;"
   id="use191" />
				</clipPath>
				<circle
   id="XMLID_31_"
   class="st15"
   cx="18.6"
   cy="20.2"
   r="1.8"
   clip-path="url(#SVGID_2_)" />
			</g>
		</g>
	</g>
</g>
<g
   id="XMLID_1_">
	<path
   id="XMLID_2_"
   class="st16"
   d="M41.7,12.2c0,2.2,0.9,4.1,2.4,5.5h10.3c1.5-1.4,2.4-3.3,2.4-5.5c0-4.1-3.3-7.5-7.5-7.5   C45,4.7,41.7,8.1,41.7,12.2z" />
</g>
<g
   id="XMLID_7_">
	<g
   id="g3109_2_"
   transform="matrix(0,1.2499976,-1.2499976,0,1338.6044,1003.1536)">
		<g
   id="g33658-1_2_"
   transform="translate(-1.6000031)">
			<rect
   x="-1055.1328"
   y="-767.98016"
   transform="rotate(-90)"
   class="st12"
   width="20.952166"
   height="9"
   id="rect222"
   style="stroke-width:0.91183" /><path
   id="path16826-7_2_"
   class="st11"
   d="m -758.7,1033.3 v 3.6 h -1.2 v -2.4 h -7.2 v 3.9 h -1.2 v -1.3 h -1.8 v -3.8 z" />
			<path
   id="path16828-7_2_"
   class="st11"
   d="m -758.7,1052.3 v 3.6 h -11.4 v -3.8 h 1.8 v -1.3 h 1.2 v 3.9 h 7.2 v -2.4 z" />
			<path
   id="path16832-7_2_"
   class="st1"
   d="m -758.7,1052.3 h -1.2 v -15.4 h 1.2 z" />
			<path
   id="path16834-3_2_"
   class="st1"
   d="m -768.3,1040.6 v -2.2 h 1.2 v 12.4 h -1.2 v -2.2 z" />
			<path
   id="path16836-3_2_"
   class="st11"
   d="m -770.2,1040.7 h 1.9 v 7.8 h -1.9 z" />
			<path
   id="path22220-2_2_"
   class="st17"
   d="M -758.7,1036.9" />
			<path
   id="path22220-2_1_"
   class="st17"
   d="M -758.7,1052.3" />
			<path
   id="path22246-8_2_"
   class="st17"
   d="M -767.1,1054.6" />
			<path
   id="path22246-8_1_"
   class="st17"
   d="M -759.9,1054.6" />
			<path
   id="path22248-0_2_"
   class="st17"
   d="M -759.9,1054.6" />
			<path
   id="path22248-0_1_"
   class="st17"
   d="M -759.9,1052.3" />
			<path
   id="path22250-1_2_"
   class="st17"
   d="M -759.9,1052.3" />
			<path
   id="path22250-1_1_"
   class="st17"
   d="M -758.7,1052.3" />
			<path
   id="path22252-2_2_"
   class="st17"
   d="M -758.7,1055.9" />
			<path
   id="path22252-2_1_"
   class="st17"
   d="M -758.7,1052.3" />
			<path
   id="path22276-4_2_"
   class="st17"
   d="M -770.1,1052.1" />
			<path
   id="path22276-4_1_"
   class="st17"
   d="M -770.1,1055.9" />
			<path
   id="path29510-1_2_"
   class="st17"
   d="M -770.1,1055.9" />
			<path
   id="path29510-1_1_"
   class="st17"
   d="M -758.7,1055.9" />
			
				
		</g>
		<path
   id="connector3pin_2_"
   class="st18"
   d="m -765.7,1038.4 v -1.1 h 1.1 v 1.1 z" />
		<path
   id="connector2pin_2_"
   class="st18"
   d="m -764.5,1041.8 v 1.1 h -1.1 v -1.1 z" />
		<path
   id="connector1pin_2_"
   class="st18"
   d="m -765.7,1046.3 h 1.1 v 1.1 h -1.1 z" />
		<path
   id="connector0pin_2_"
   class="st18"
   d="m -765.7,1050.8 h 1.1 v 1.1 h -1.1 z" />
	</g>
</g>
</svg>
