<?xml version="1.0" encoding="utf-8"?>
<!-- Generator: Adobe Illustrator 24.2.3, SVG Export Plug-In . SVG Version: 6.00 Build 0)  -->
<svg version="1.1" xmlns="http://www.w3.org/2000/svg" xmlns:xlink="http://www.w3.org/1999/xlink" x="0px" y="0px"
	 viewBox="0 0 205.5 163" style="enable-background:new 0 0 205.5 163;" xml:space="preserve">
<style type="text/css">
	.st0{fill:#FFFEFA;}
	.st1{fill:#262626;}
	.st2{fill:#1D57AD;}
</style>
<g id="Layer_1">
</g>
<g id="Layer_2">
	<path class="st0" d="M191.3,163H15.6c-7.8,0-14.2-6.3-14.2-14.2V9.9c0-4.7,3.8-8.5,8.5-8.5H197c4.7,0,8.5,3.8,8.5,8.5v138.9
		C205.5,156.6,199.1,163,191.3,163z"/>
	<path d="M192.7,144.3H14.1c-4.7,0-8.5-3.8-8.5-8.5V13.9c0-4.7,3.8-8.5,8.5-8.5h178.6c4.7,0,8.5,3.8,8.5,8.5v121.9
		C201.2,140.5,197.4,144.3,192.7,144.3z"/>
	<rect x="35.4" y="20.5" class="st1" width="136.1" height="102"/>
	<path class="st1" d="M26.4,150.1c-0.4,0-0.7,0.3-0.7,0.7v4.6c0,0.4,0.3,0.7,0.7,0.7c0.4,0,0.7-0.3,0.7-0.7v-4.6
		C27.1,150.4,26.8,150.1,26.4,150.1z"/>
	<path class="st1" d="M32.1,150.1c-0.4,0-0.7,0.3-0.7,0.7v4.6c0,0.4,0.3,0.7,0.7,0.7c0.4,0,0.7-0.3,0.7-0.7v-4.6
		C32.8,150.4,32.5,150.1,32.1,150.1z"/>
	<path class="st1" d="M38.1,150.1c-0.4,0-0.7,0.3-0.7,0.7v4.6c0,0.4,0.3,0.7,0.7,0.7c0.4,0,0.7-0.3,0.7-0.7v-4.6
		C38.8,150.4,38.4,150.1,38.1,150.1z"/>
	<path class="st1" d="M43.9,150.1c-0.4,0-0.7,0.3-0.7,0.7v4.6c0,0.4,0.3,0.7,0.7,0.7c0.4,0,0.7-0.3,0.7-0.7v-4.6
		C44.6,150.4,44.3,150.1,43.9,150.1z"/>
	<circle class="st2" cx="181.8" cy="144.3" r="11.3"/>
	<path class="st2" d="M46.8,0H25.8c-0.3,0-0.5,0.2-0.5,0.5v0.9h21.9V0.5C47.2,0.2,47,0,46.8,0z"/>
	<path class="st2" d="M83.2,0H62.3c-0.3,0-0.5,0.2-0.5,0.5v0.9h21.9V0.5C83.7,0.2,83.5,0,83.2,0z"/>
	<path class="st2" d="M120.2,0H99.2c-0.3,0-0.5,0.2-0.5,0.5v0.9h21.9V0.5C120.7,0.2,120.4,0,120.2,0z"/>
	<path class="st0" d="M0.6,48.8h0.8v-6.9H0.6c-0.3,0-0.6,0.3-0.6,0.6v5.8C0,48.5,0.3,48.8,0.6,48.8z"/>
</g>
</svg>
