<?xml version="1.0" encoding="utf-8"?>
<!-- Generator: Adobe Illustrator 23.0.1, SVG Export Plug-In . SVG Version: 6.00 Build 0)  -->
<svg version="1.1" id="Layer_1" xmlns="http://www.w3.org/2000/svg" xmlns:xlink="http://www.w3.org/1999/xlink" x="0px" y="0px"
	 viewBox="0 0 37.7 29.8" style="enable-background:new 0 0 37.7 29.8;" xml:space="preserve">
<style type="text/css">
	.st0{fill:#FFFFFF;}
	.st1{fill:#BE9349;}
	.st2{font-size:2.5056px;}
	.st3{fill:#E5E5EC;}
	.st4{fill:#302F2F;}
	.st5{fill:#4F4E4E;}
	.st6{fill:#FDE500;}
	.st7{fill:#EA2227;}
	.st8{fill:none;stroke:#FFFFFF;stroke-width:0.5;stroke-miterlimit:10;}
</style>
<g>
	<path d="M7.9,5.4c0,0.5-0.4,0.9-0.9,0.9h-3C1.8,6.3,0,8,0,10.2v0c0,2.2,1.8,3.9,3.9,3.9h3c0.5,0,0.9,0.4,0.9,0.9v4.7h22v-4.7
		c0-0.5,0.4-0.9,0.9-0.9h3c2.2,0,3.9-1.8,3.9-3.9v0c0-2.2-1.8-3.9-3.9-3.9h-3c-0.5,0-0.9-0.4-0.9-0.9V0h-22V5.4z M28.1,17.3
		c0,0.5-0.4,0.9-0.9,0.9c-0.5,0-0.9-0.4-0.9-0.9s0.4-0.9,0.9-0.9C27.7,16.4,28.1,16.8,28.1,17.3z M24.7,17.3c0,0.5-0.4,0.9-0.9,0.9
		c-0.5,0-0.9-0.4-0.9-0.9s0.4-0.9,0.9-0.9C24.3,16.4,24.7,16.8,24.7,17.3z M21.2,17.3c0,0.5-0.4,0.9-0.9,0.9c-0.5,0-0.9-0.4-0.9-0.9
		s0.4-0.9,0.9-0.9C20.8,16.4,21.2,16.8,21.2,17.3z M17.8,17.3c0,0.5-0.4,0.9-0.9,0.9c-0.5,0-0.9-0.4-0.9-0.9s0.4-0.9,0.9-0.9
		C17.4,16.4,17.8,16.8,17.8,17.3z M14.3,17.3c0,0.5-0.4,0.9-0.9,0.9s-0.9-0.4-0.9-0.9s0.4-0.9,0.9-0.9S14.3,16.8,14.3,17.3z
		 M10.9,17.3c0,0.5-0.4,0.9-0.9,0.9c-0.5,0-0.9-0.4-0.9-0.9s0.4-0.9,0.9-0.9C10.5,16.4,10.9,16.8,10.9,17.3z M36,10.2
		c0,1.2-1,2.3-2.3,2.3s-2.3-1-2.3-2.3s1-2.3,2.3-2.3S36,9,36,10.2z M6.2,10.2c0,1.2-1,2.3-2.3,2.3s-2.3-1-2.3-2.3S2.7,8,3.9,8
		S6.2,9,6.2,10.2z"/>
	<circle class="st0" cx="33.8" cy="10.2" r="2.3"/>
</g>
<path class="st1" d="M6.9,10.2c0-1.7-1.4-3-3-3c-1.7,0-3,1.4-3,3s1.4,3,3,3C5.6,13.2,6.9,11.9,6.9,10.2z M1.7,10.2
	C1.7,9,2.7,8,3.9,8s2.3,1,2.3,2.3s-1,2.3-2.3,2.3S1.7,11.4,1.7,10.2z"/>
<path class="st1" d="M8.8,17.3c0,0.7,0.5,1.2,1.2,1.2c0.7,0,1.2-0.5,1.2-1.2c0-0.7-0.5-1.2-1.2-1.2C9.3,16.1,8.8,16.6,8.8,17.3z
	 M10.9,17.3c0,0.5-0.4,0.9-0.9,0.9c-0.5,0-0.9-0.4-0.9-0.9s0.4-0.9,0.9-0.9C10.5,16.4,10.9,16.8,10.9,17.3z"/>
<path class="st1" d="M12.2,17.3c0,0.7,0.5,1.2,1.2,1.2s1.2-0.5,1.2-1.2c0-0.7-0.5-1.2-1.2-1.2S12.2,16.6,12.2,17.3z M14.3,17.3
	c0,0.5-0.4,0.9-0.9,0.9s-0.9-0.4-0.9-0.9s0.4-0.9,0.9-0.9S14.3,16.8,14.3,17.3z"/>
<path class="st1" d="M15.7,17.3c0,0.7,0.5,1.2,1.2,1.2c0.7,0,1.2-0.5,1.2-1.2c0-0.7-0.5-1.2-1.2-1.2C16.2,16.1,15.7,16.6,15.7,17.3z
	 M17.8,17.3c0,0.5-0.4,0.9-0.9,0.9c-0.5,0-0.9-0.4-0.9-0.9s0.4-0.9,0.9-0.9C17.4,16.4,17.8,16.8,17.8,17.3z"/>
<path class="st1" d="M19.1,17.3c0,0.7,0.5,1.2,1.2,1.2c0.7,0,1.2-0.5,1.2-1.2c0-0.7-0.5-1.2-1.2-1.2C19.7,16.1,19.1,16.6,19.1,17.3z
	 M21.2,17.3c0,0.5-0.4,0.9-0.9,0.9c-0.5,0-0.9-0.4-0.9-0.9s0.4-0.9,0.9-0.9C20.8,16.4,21.2,16.8,21.2,17.3z"/>
<path class="st1" d="M22.6,17.3c0,0.7,0.5,1.2,1.2,1.2c0.7,0,1.2-0.5,1.2-1.2c0-0.7-0.5-1.2-1.2-1.2C23.1,16.1,22.6,16.6,22.6,17.3z
	 M24.7,17.3c0,0.5-0.4,0.9-0.9,0.9c-0.5,0-0.9-0.4-0.9-0.9s0.4-0.9,0.9-0.9C24.3,16.4,24.7,16.8,24.7,17.3z"/>
<path class="st1" d="M26,17.3c0,0.7,0.5,1.2,1.2,1.2c0.7,0,1.2-0.5,1.2-1.2c0-0.7-0.5-1.2-1.2-1.2C26.6,16.1,26,16.6,26,17.3z
	 M28.1,17.3c0,0.5-0.4,0.9-0.9,0.9c-0.5,0-0.9-0.4-0.9-0.9s0.4-0.9,0.9-0.9C27.7,16.4,28.1,16.8,28.1,17.3z"/>
<path class="st1" d="M30.8,10.2c0,1.7,1.4,3,3,3c1.7,0,3-1.4,3-3s-1.4-3-3-3C32.1,7.2,30.8,8.5,30.8,10.2z M36,10.2
	c0,1.2-1,2.3-2.3,2.3s-2.3-1-2.3-2.3s1-2.3,2.3-2.3S36,9,36,10.2z"/>
<text transform="matrix(6.123234e-17 -1 1 6.123234e-17 10.8657 15.5942)" class="st0 st2">VCC</text>
<text transform="matrix(6.123234e-17 -1 1 6.123234e-17 14.3164 15.5942)" class="st0 st2">GND</text>
<text transform="matrix(1 0 0 1 10.3022 2.582)" class="st0 st2">CJVL53L0XV2</text>
<text transform="matrix(6.123234e-17 -1 1 6.123234e-17 17.7666 15.5942)" class="st0 st2">SCL</text>
<text transform="matrix(6.123234e-17 -1 1 6.123234e-17 21.2173 15.5942)" class="st0 st2">SDA</text>
<text transform="matrix(6.123234e-17 -1 1 6.123234e-17 24.668 15.5942)" class="st0 st2">GPIO1</text>
<text transform="matrix(6.123234e-17 -1 1 6.123234e-17 28.1182 15.5942)" class="st0 st2">XSHUT</text>
<circle class="st1" cx="26.3" cy="1.7" r="0.7"/>
<g>
	<rect x="15.1" y="8.6" class="st1" width="0.6" height="1"/>
	<rect x="15.2" y="8.6" class="st3" width="0.5" height="0.8"/>
</g>
<g>
	<rect x="16.2" y="8.6" class="st1" width="0.6" height="1"/>
	<rect x="16.3" y="8.6" class="st3" width="0.5" height="0.8"/>
</g>
<g>
	<rect x="17.3" y="8.6" class="st1" width="0.6" height="1"/>
	<rect x="17.4" y="8.6" class="st3" width="0.5" height="0.8"/>
</g>
<g>
	<rect x="18.4" y="8.6" class="st1" width="0.6" height="1"/>
	<rect x="18.4" y="8.6" class="st3" width="0.5" height="0.8"/>
</g>
<g>
	<rect x="19.4" y="8.6" class="st1" width="0.6" height="1"/>
	<rect x="19.5" y="8.6" class="st3" width="0.5" height="0.8"/>
</g>
<g>
	<rect x="15.1" y="4.2" class="st1" width="0.6" height="1"/>
	<rect x="15.2" y="4.3" class="st3" width="0.5" height="0.8"/>
</g>
<g>
	<rect x="16.2" y="4.2" class="st1" width="0.6" height="1"/>
	<rect x="16.3" y="4.3" class="st3" width="0.5" height="0.8"/>
</g>
<g>
	<rect x="17.3" y="4.2" class="st1" width="0.6" height="1"/>
	<rect x="17.4" y="4.3" class="st3" width="0.5" height="0.8"/>
</g>
<g>
	<rect x="18.4" y="4.2" class="st1" width="0.6" height="1"/>
	<rect x="18.4" y="4.3" class="st3" width="0.5" height="0.8"/>
</g>
<g>
	<rect x="19.4" y="4.2" class="st1" width="0.6" height="1"/>
	<rect x="19.5" y="4.3" class="st3" width="0.5" height="0.8"/>
</g>
<rect x="15.8" y="4.1" transform="matrix(6.123234e-17 -1 1 6.123234e-17 10.7125 24.457)" class="st4" width="3.5" height="5.5"/>
<rect x="15.9" y="4.2" transform="matrix(6.123234e-17 -1 1 6.123234e-17 10.7125 24.457)" class="st5" width="3.3" height="5.3"/>
<rect x="16.1" y="19.8" class="st6" width="1.4" height="8.3"/>
<g>
	<rect x="12.7" y="19.8" width="1.4" height="6.4"/>
</g>
<rect x="9.2" y="19.8" class="st7" width="1.4" height="6.4"/>
<rect x="19.6" y="19.8" class="st0" width="1.4" height="8.3"/>
<polyline class="st8" points="8.8,26.5 16.3,26.5 14.4,28.3 22.3,28.3 "/>
<polyline class="st8" points="8.8,28.1 13,28.1 11.5,29.6 22.3,29.6 "/>
</svg>
