<?xml version="1.0" encoding="utf-8"?>
<!-- Generator: Adobe Illustrator 23.0.1, SVG Export Plug-In . SVG Version: 6.00 Build 0)  -->
<svg version="1.1" id="Layer_1" xmlns="http://www.w3.org/2000/svg" xmlns:xlink="http://www.w3.org/1999/xlink" x="0px" y="0px"
	 viewBox="0 0 195.6 173" style="enable-background:new 0 0 195.6 173;" xml:space="preserve">
<style type="text/css">
	.st0{fill:#CAB65E;}
	.st1{fill:#040202;}
	.st2{fill:#FFFFFF;}
	.st3{fill:#DDDDDD;}
	.st4{fill:#EDEEF2;}
	.st5{font-family:'ArialRoundedMTBold';}
	.st6{font-size:6.9639px;}
	.st7{fill:#3D3C3A;}
	.st8{fill:#E5D48C;}
	.st9{fill:#D3C27E;}
	.st10{fill:#B59E38;}
	.st11{fill:none;stroke:#FFFFFF;stroke-width:0.25;stroke-miterlimit:10;}
	.st12{fill:none;stroke:#CAB65E;stroke-width:0.25;stroke-miterlimit:10;}
	.st13{fill:#474748;}
	.st14{fill:#D3D3D3;}
	.st15{fill:#A9A8A9;}
	.st16{font-size:3.8186px;}
	.st17{fill:#C9C9C9;}
	.st18{fill:none;stroke:#CAB65E;stroke-width:0.5;stroke-miterlimit:10;}
	.st19{fill:none;stroke:#7C6B2B;stroke-width:0.5;stroke-miterlimit:10;}
	.st20{fill:#E8D379;}
	.st21{fill:none;stroke:#CAB65E;stroke-width:2;stroke-miterlimit:10;}
	.st22{fill:#F4C128;}
	.st23{font-size:4.1431px;}
	.st24{fill:#7AC795;}
	.st25{fill:#7C6B2B;}
	.st26{fill:#6D6D6D;}
	.st27{fill:none;stroke:#6D6D6D;stroke-width:5.000000e-02;stroke-miterlimit:10;}
</style>
<g id="Baseboard">
	<path d="M194.9,82.1L148.8,2.8c-1-1.7-2.9-2.8-4.9-2.8H51.7c-2,0-3.9,1.1-4.9,2.8L0.8,82.1c-1,1.8-1,3.9,0,5.7l46.1,79.3
		c1,1.8,2.9,2.8,4.9,2.8h92.2c2,0,3.9-1.1,4.9-2.8l46.1-79.3C195.9,86.1,195.9,83.9,194.9,82.1z M11.2,89.9C8.9,89.9,7,88,7,85.7
		s1.9-4.2,4.2-4.2s4.2,1.9,4.2,4.2S13.6,89.9,11.2,89.9z M54.5,14.9c-2.3,0-4.2-1.9-4.2-4.2c0-2.3,1.9-4.2,4.2-4.2
		c2.3,0,4.2,1.9,4.2,4.2C58.8,13,56.9,14.9,54.5,14.9z M141.2,14.9c-2.3,0-4.2-1.9-4.2-4.2c0-2.3,1.9-4.2,4.2-4.2s4.2,1.9,4.2,4.2
		C145.4,13,143.5,14.9,141.2,14.9z M184.5,89.9c-2.3,0-4.2-1.9-4.2-4.2s1.9-4.2,4.2-4.2c2.3,0,4.2,1.9,4.2,4.2
		S186.9,89.9,184.5,89.9z"/>
	<g id="D1">
		<g id="JST_5_">
			<g>
				<path class="st0" d="M55.9,143.2l0.1,0.1c0.5,0.8,0.2,1.9-0.6,2.4l-1.4,0.8c-0.8,0.5-1.9,0.2-2.4-0.6l-0.1-0.1
					c-0.5-0.8-0.2-1.9,0.6-2.4l1.4-0.8C54.4,142.1,55.4,142.4,55.9,143.2z"/>
				<circle class="st1" cx="53.8" cy="144.6" r="1.1"/>
			</g>
			<g>
				<path class="st0" d="M53.1,138.3l0.1,0.1c0.5,0.8,0.2,1.9-0.6,2.4l-1.4,0.8c-0.8,0.5-1.9,0.2-2.4-0.6l-0.1-0.1
					c-0.5-0.8-0.2-1.9,0.6-2.4l1.4-0.8C51.5,137.2,52.6,137.5,53.1,138.3z"/>
				<circle class="st1" cx="50.9" cy="139.7" r="1.1"/>
			</g>
			<g>
				<path class="st0" d="M50.3,133.4l0.1,0.1c0.5,0.8,0.2,1.9-0.6,2.4l-1.4,0.8c-0.8,0.5-1.9,0.2-2.4-0.6l-0.1-0.1
					c-0.5-0.8-0.2-1.9,0.6-2.4l1.4-0.8C48.7,132.3,49.8,132.6,50.3,133.4z"/>
				<circle class="st1" cx="48.1" cy="134.8" r="1.1"/>
			</g>
			<g>
				<path class="st0" d="M43.7,128.7l-1.4,0.8c-0.1,0-0.1,0.1,0,0.2l1.7,2.9c0,0.1,0.1,0.1,0.2,0.1l4.2-2.4c0.1,0,0.1-0.1,0-0.2
					l-0.5-0.8l0.6-0.3l-0.8-1.3l-0.6,0.3l-0.5-0.8c0-0.1-0.1-0.1-0.2-0.1l-1.4,0.8l-0.3-0.6l-1.3,0.7L43.7,128.7z"/>
				<circle class="st1" cx="45.3" cy="129.9" r="1.1"/>
			</g>
			<g>
				<rect x="49.9" y="145.3" transform="matrix(0.866 -0.5 0.5 0.866 -66.265 45.0565)" class="st2" width="2" height="1.7"/>
				<path class="st3" d="M54.3,144.2L54.3,144.2c0.2,0.4,0.1,0.9-0.3,1.1l-1.8,1l-0.8-1.4l1.8-1C53.5,143.7,54,143.8,54.3,144.2z"/>
			</g>
			<g>
				<rect x="47.1" y="140.4" transform="matrix(0.866 -0.5 0.5 0.866 -64.1943 42.9858)" class="st2" width="2" height="1.7"/>
				<path class="st3" d="M51.4,139.3L51.4,139.3c0.2,0.4,0.1,0.9-0.3,1.1l-1.8,1l-0.8-1.4l1.8-1C50.7,138.8,51.2,138.9,51.4,139.3z"
					/>
			</g>
			<g>
				<rect x="44.3" y="135.5" transform="matrix(0.866 -0.5 0.5 0.866 -62.1234 40.9152)" class="st2" width="2" height="1.7"/>
				<path class="st3" d="M48.6,134.4L48.6,134.4c0.2,0.4,0.1,0.9-0.3,1.1l-1.8,1l-0.8-1.4l1.8-1C47.9,133.9,48.4,134,48.6,134.4z"/>
			</g>
			<g>
				<rect x="41.5" y="130.6" transform="matrix(0.866 -0.5 0.5 0.866 -60.0526 38.8445)" class="st2" width="2" height="1.7"/>
				<path class="st3" d="M45.8,129.5L45.8,129.5c0.2,0.4,0.1,0.9-0.3,1.1l-1.8,1l-0.8-1.4l1.8-1C45.1,129,45.6,129.1,45.8,129.5z"/>
			</g>
			<g>
				<rect x="52.6" y="146.9" transform="matrix(0.866 -0.5 0.5 0.866 -66.7723 47.4662)" class="st2" width="5.2" height="2.8"/>
				<rect x="57.3" y="145.1" transform="matrix(0.866 -0.5 0.5 0.866 -65.4433 48.7953)" class="st3" width="2.1" height="2.8"/>
			</g>
			<g>
				<rect x="40.2" y="125.4" transform="matrix(0.866 -0.5 0.5 0.866 -57.6759 38.372)" class="st2" width="5.2" height="2.8"/>
				<rect x="44.9" y="123.6" transform="matrix(0.866 -0.5 0.5 0.866 -56.3469 39.7011)" class="st3" width="2.1" height="2.8"/>
			</g>
			<rect x="33" y="128.8" transform="matrix(0.866 -0.5 0.5 0.866 -65.9381 39.2078)" class="st3" width="14.5" height="27.7"/>
			<g>
				<rect x="34.3" y="144.5" transform="matrix(0.866 -0.5 0.5 0.866 -66.9881 40.2371)" class="st2" width="14.6" height="1.2"/>
				<rect x="31.4" y="139.6" transform="matrix(0.866 -0.5 0.5 0.866 -64.8972 38.1459)" class="st2" width="14.6" height="1.2"/>
				<rect x="38.7" y="140.4" transform="matrix(0.866 -0.5 0.5 0.866 -64.775 40.3389)" class="st2" width="8.3" height="1.2"/>
				<rect x="41.6" y="145.3" transform="matrix(0.866 -0.5 0.5 0.866 -66.8458 42.4096)" class="st2" width="8.3" height="1.2"/>
				<rect x="35.9" y="135.5" transform="matrix(0.866 -0.5 0.5 0.866 -62.7042 38.2683)" class="st2" width="8.3" height="1.2"/>
			</g>
			<rect x="41.8" y="126.4" transform="matrix(0.866 -0.5 0.5 0.866 -64.1658 40.9448)" class="st4" width="4.9" height="27.6"/>
			<polygon class="st2" points="27.5,141.6 37.5,135.9 40.8,141.4 44.8,148.3 34.7,154.1 38,159.9 53.4,151 52.7,149.7 42,155.9 
				40.6,153.5 50.7,147.7 45.5,138.7 41.1,131 31,136.9 29.6,134.5 40.3,128.3 39.6,127 24.2,135.9 			"/>
			<rect x="45.8" y="138.5" transform="matrix(0.866 -0.5 0.5 0.866 -63.4035 41.7169)" class="st2" width="0.7" height="1.4"/>
			<rect x="48.6" y="143.3" transform="matrix(0.866 -0.5 0.5 0.866 -65.469 43.7815)" class="st2" width="0.7" height="1.4"/>
			<rect x="43" y="133.5" transform="matrix(0.866 -0.5 0.5 0.866 -61.3274 39.6402)" class="st2" width="0.7" height="1.4"/>
		</g>
		<text transform="matrix(-0.5 -0.866 0.866 -0.5 61.4341 135.3159)" class="st2 st5 st6">D1</text>
	</g>
	<g id="D2">
		<g id="JST_4_">
			<g>
				<path class="st0" d="M36.7,109.9L36.7,109.9c0.5,0.9,0.3,2-0.6,2.5l-1.4,0.8c-0.8,0.5-1.9,0.2-2.4-0.6l-0.1-0.1
					c-0.5-0.8-0.2-1.9,0.6-2.4l1.4-0.8C35.1,108.7,36.2,109,36.7,109.9z"/>
				<circle class="st1" cx="34.5" cy="111.2" r="1.1"/>
			</g>
			<g>
				<path class="st0" d="M33.8,105L33.8,105c0.5,0.9,0.3,2-0.6,2.5l-1.4,0.8c-0.8,0.5-1.9,0.2-2.4-0.6l-0.1-0.1
					c-0.5-0.8-0.2-1.9,0.6-2.4l1.4-0.8C32.3,103.8,33.3,104.1,33.8,105z"/>
				<circle class="st1" cx="31.6" cy="106.3" r="1.1"/>
			</g>
			<g>
				<path class="st0" d="M31,100.1L31,100.1c0.5,0.9,0.3,2-0.6,2.5l-1.4,0.8c-0.8,0.5-1.9,0.2-2.4-0.6l-0.1-0.1
					c-0.5-0.8-0.2-1.9,0.6-2.4l1.4-0.8C29.4,98.9,30.5,99.2,31,100.1z"/>
				<circle class="st1" cx="28.8" cy="101.4" r="1.1"/>
			</g>
			<g>
				<path class="st0" d="M24.4,95.3L23,96.1c-0.1,0-0.1,0.1,0,0.2l1.7,2.9c0,0.1,0.1,0.1,0.2,0.1l4.2-2.4c0.1,0,0.1-0.1,0-0.2
					l-0.5-0.8l0.6-0.3l-0.8-1.3l-0.6,0.3l-0.5-0.8c0-0.1-0.1-0.1-0.2-0.1l-1.4,0.8L25.4,94l-1.3,0.7L24.4,95.3z"/>
				<circle class="st1" cx="26" cy="96.5" r="1.1"/>
			</g>
			<g>
				<rect x="30.7" y="112" transform="matrix(0.866 -0.5 0.5 0.866 -52.1594 30.9513)" class="st2" width="2" height="1.7"/>
				<path class="st3" d="M35,110.8L35,110.8c0.2,0.4,0.1,0.9-0.3,1.2l-1.8,1l-0.8-1.4l1.8-1C34.3,110.3,34.8,110.5,35,110.8z"/>
			</g>
			<g>
				<rect x="27.9" y="107.1" transform="matrix(0.866 -0.5 0.5 0.866 -50.0886 28.8807)" class="st2" width="2" height="1.7"/>
				<path class="st3" d="M32.2,105.9L32.2,105.9c0.3,0.4,0.1,0.9-0.3,1.2l-1.8,1l-0.8-1.4l1.8-1C31.5,105.4,32,105.6,32.2,105.9z"/>
			</g>
			<g>
				<rect x="25" y="102.2" transform="matrix(0.866 -0.5 0.5 0.866 -48.0141 26.8064)" class="st2" width="2" height="1.7"/>
				<path class="st3" d="M29.3,101.1L29.3,101.1c0.2,0.4,0.1,0.9-0.3,1.2l-1.8,1l-0.8-1.4l1.8-1C28.6,100.5,29.1,100.7,29.3,101.1z"
					/>
			</g>
			<g>
				<rect x="22.2" y="97.3" transform="matrix(0.866 -0.5 0.5 0.866 -45.9434 24.7357)" class="st2" width="2" height="1.7"/>
				<path class="st3" d="M26.5,96.2L26.5,96.2c0.2,0.4,0.1,0.9-0.3,1.2l-1.8,1l-0.8-1.4l1.8-1C25.8,95.6,26.3,95.8,26.5,96.2z"/>
			</g>
			<g>
				<rect x="33.3" y="113.5" transform="matrix(0.866 -0.5 0.5 0.866 -52.663 33.3574)" class="st2" width="5.2" height="2.8"/>
				<rect x="38" y="111.7" transform="matrix(0.866 -0.5 0.5 0.866 -51.334 34.6865)" class="st3" width="2.1" height="2.8"/>
			</g>
			<g>
				<rect x="20.9" y="92" transform="matrix(0.866 -0.5 0.5 0.866 -43.5666 24.2632)" class="st2" width="5.2" height="2.8"/>
				<rect x="25.6" y="90.2" transform="matrix(0.866 -0.5 0.5 0.866 -42.2376 25.5923)" class="st3" width="2.1" height="2.8"/>
			</g>
			<rect x="13.7" y="95.4" transform="matrix(0.866 -0.5 0.5 0.866 -51.8289 25.099)" class="st3" width="14.5" height="27.7"/>
			<g>
				<rect x="15" y="111.2" transform="matrix(0.866 -0.5 0.5 0.866 -52.8825 26.132)" class="st2" width="14.6" height="1.2"/>
				<rect x="12.2" y="106.2" transform="matrix(0.866 -0.5 0.5 0.866 -50.788 24.0371)" class="st2" width="14.6" height="1.2"/>
				<rect x="19.5" y="107.1" transform="matrix(0.866 -0.5 0.5 0.866 -50.6657 26.2301)" class="st2" width="8.3" height="1.2"/>
				<rect x="22.3" y="112" transform="matrix(0.866 -0.5 0.5 0.866 -52.7365 28.3008)" class="st2" width="8.3" height="1.2"/>
				<rect x="16.6" y="102.2" transform="matrix(0.866 -0.5 0.5 0.866 -48.5949 24.1595)" class="st2" width="8.3" height="1.2"/>
			</g>
			<rect x="22.6" y="93" transform="matrix(0.866 -0.5 0.5 0.866 -50.0565 26.836)" class="st4" width="4.9" height="27.6"/>
			<polygon class="st2" points="8.3,108.3 18.3,102.5 21.5,108.1 25.5,115 15.5,120.7 18.8,126.5 34.1,117.6 33.4,116.3 22.7,122.5 
				21.3,120.1 31.4,114.3 26.2,105.3 21.8,97.7 11.7,103.5 10.3,101.1 21,94.9 20.3,93.7 4.9,102.5 			"/>
			<rect x="26.5" y="105.1" transform="matrix(0.866 -0.5 0.5 0.866 -49.2942 27.6081)" class="st2" width="0.7" height="1.4"/>
			<rect x="29.3" y="110" transform="matrix(0.866 -0.5 0.5 0.866 -51.3597 29.6727)" class="st2" width="0.7" height="1.4"/>
			<rect x="23.7" y="100.2" transform="matrix(0.866 -0.5 0.5 0.866 -47.2181 25.5314)" class="st2" width="0.7" height="1.4"/>
		</g>
		<text transform="matrix(-0.5 -0.866 0.866 -0.5 41.5723 100.9116)" class="st2 st5 st6">D2</text>
	</g>
	<g id="D3">
		<g id="JST_7_">
			<g>
				<path class="st0" d="M28,77.1L28,77.1c-0.5,0.9-1.6,1.2-2.4,0.7L24.1,77c-0.8-0.5-1.1-1.6-0.6-2.4l0.1-0.1
					c0.5-0.8,1.5-1.1,2.4-0.6l1.4,0.8C28.2,75.2,28.5,76.2,28,77.1z"/>
				<circle class="st1" cx="25.7" cy="75.8" r="1.1"/>
			</g>
			<g>
				<path class="st0" d="M30.8,72.2L30.8,72.2c-0.5,0.9-1.6,1.2-2.4,0.7L27,72.1c-0.8-0.5-1.1-1.6-0.6-2.4l0.1-0.1
					c0.5-0.8,1.5-1.1,2.4-0.6l1.4,0.8C31,70.3,31.3,71.3,30.8,72.2z"/>
				<circle class="st1" cx="28.6" cy="70.9" r="1.1"/>
			</g>
			<g>
				<path class="st0" d="M33.6,67.3L33.6,67.3c-0.5,0.9-1.6,1.2-2.5,0.7l-1.4-0.8c-0.8-0.5-1.1-1.6-0.6-2.4l0.1-0.1
					c0.5-0.8,1.5-1.1,2.4-0.6l1.4,0.8C33.8,65.4,34.1,66.4,33.6,67.3z"/>
				<circle class="st1" cx="31.4" cy="66" r="1.1"/>
			</g>
			<g>
				<path class="st0" d="M34.5,59.2L33,58.4c-0.1,0-0.2,0-0.2,0l-1.7,2.9c0,0.1,0,0.2,0,0.2l4.2,2.4c0.1,0,0.2,0,0.2,0l0.5-0.8
					l0.6,0.3l0.8-1.3l-0.6-0.3l0.5-0.8c0-0.1,0-0.2,0-0.2L35.8,60l0.3-0.6l-1.3-0.8L34.5,59.2z"/>
				<circle class="st1" cx="34.2" cy="61.1" r="1.1"/>
			</g>
			<g>
				<rect x="22.1" y="73.2" transform="matrix(0.5 -0.866 0.866 0.5 -52.8101 56.9592)" class="st2" width="1.7" height="2"/>
				<path class="st3" d="M26.3,76.1L26.3,76.1c-0.2,0.4-0.8,0.6-1.1,0.3l-1.8-1l0.8-1.4l1.8,1C26.4,75.2,26.5,75.7,26.3,76.1z"/>
			</g>
			<g>
				<rect x="24.9" y="68.3" transform="matrix(0.5 -0.866 0.866 0.5 -47.1511 56.9594)" class="st2" width="1.7" height="2"/>
				<path class="st3" d="M29.1,71.2L29.1,71.2c-0.2,0.4-0.8,0.6-1.1,0.3l-1.8-1l0.8-1.4l1.8,1C29.2,70.3,29.3,70.8,29.1,71.2z"/>
			</g>
			<g>
				<rect x="27.7" y="63.4" transform="matrix(0.5 -0.866 0.866 0.5 -41.4921 56.9597)" class="st2" width="1.7" height="2"/>
				<path class="st3" d="M31.9,66.3L31.9,66.3c-0.2,0.4-0.8,0.6-1.1,0.3l-1.8-1l0.8-1.4l1.8,1C32,65.4,32.2,65.9,31.9,66.3z"/>
			</g>
			<g>
				<rect x="30.6" y="58.5" transform="matrix(0.5 -0.866 0.866 0.5 -35.8331 56.96)" class="st2" width="1.7" height="2"/>
				<path class="st3" d="M34.8,61.4L34.8,61.4c-0.2,0.4-0.8,0.6-1.1,0.3l-1.8-1l0.8-1.5l1.8,1C34.9,60.5,35,61,34.8,61.4z"/>
			</g>
			<g>
				<rect x="21.8" y="76.4" transform="matrix(0.5 -0.866 0.866 0.5 -56.7934 59.5667)" class="st2" width="2.8" height="5.2"/>
				<rect x="24.9" y="79.8" transform="matrix(0.5 -0.866 0.866 0.5 -56.7935 63.2003)" class="st3" width="2.8" height="2.1"/>
			</g>
			<g>
				<rect x="34.2" y="54.8" transform="matrix(0.5 -0.866 0.866 0.5 -31.9376 59.56)" class="st2" width="2.8" height="5.2"/>
				<rect x="37.4" y="58.2" transform="matrix(0.5 -0.866 0.866 0.5 -31.9377 63.2036)" class="st3" width="2.8" height="2.1"/>
			</g>
			<rect x="6.8" y="55.9" transform="matrix(0.5 -0.866 0.866 0.5 -44.369 49.4208)" class="st3" width="27.7" height="14.5"/>
			<g>
				<rect x="18.6" y="58.3" transform="matrix(0.5 -0.866 0.866 0.5 -47.2205 49.3932)" class="st2" width="1.2" height="14.6"/>
				<rect x="21.4" y="53.3" transform="matrix(0.5 -0.866 0.866 0.5 -41.503 49.3929)" class="st2" width="1.2" height="14.6"/>
				<rect x="22.8" y="60.5" transform="matrix(0.5 -0.866 0.866 0.5 -44.3278 52.5499)" class="st2" width="1.2" height="8.3"/>
				<rect x="19.9" y="65.4" transform="matrix(0.5 -0.866 0.866 0.5 -49.9868 52.5496)" class="st2" width="1.2" height="8.3"/>
				<rect x="25.6" y="55.6" transform="matrix(0.5 -0.866 0.866 0.5 -38.6688 52.5502)" class="st2" width="1.2" height="8.3"/>
			</g>
			<rect x="11" y="63" transform="matrix(0.5 -0.866 0.866 0.5 -44.3232 54.2165)" class="st4" width="27.6" height="4.9"/>
			<polygon class="st2" points="15.1,51.7 25.2,57.5 21.9,63 18,69.9 7.9,64.1 4.6,69.9 20,78.8 20.7,77.5 10,71.3 11.4,68.9 
				21.5,74.8 26.7,65.8 31.1,58.1 21,52.3 22.4,49.9 33.1,56.1 33.8,54.8 18.5,45.9 			"/>
			<rect x="25.9" y="66.2" transform="matrix(0.5 -0.866 0.866 0.5 -44.3363 56.3091)" class="st2" width="1.4" height="0.7"/>
			<rect x="23.1" y="71.1" transform="matrix(0.5 -0.866 0.866 0.5 -49.9801 56.3078)" class="st2" width="1.4" height="0.7"/>
			<rect x="28.7" y="61.3" transform="matrix(0.5 -0.866 0.866 0.5 -38.6621 56.3084)" class="st2" width="1.4" height="0.7"/>
		</g>
		<text transform="matrix(0.5 -0.866 0.866 0.5 36.6675 78.2056)" class="st2 st5 st6">D3</text>
	</g>
	<g id="D4">
		<g id="JST_6_">
			<g>
				<path class="st0" d="M47.2,43.7L47.2,43.7c-0.5,0.9-1.6,1.2-2.5,0.7l-1.4-0.8c-0.8-0.5-1.1-1.5-0.6-2.4l0.1-0.1
					c0.5-0.8,1.5-1.1,2.4-0.6l1.4,0.8C47.4,41.8,47.7,42.8,47.2,43.7z"/>
				<circle class="st1" cx="45" cy="42.5" r="1.1"/>
			</g>
			<g>
				<path class="st0" d="M50.1,38.8L50.1,38.8c-0.5,0.9-1.6,1.2-2.5,0.7l-1.4-0.8c-0.8-0.5-1.1-1.5-0.6-2.4l0.1-0.1
					c0.5-0.8,1.5-1.1,2.4-0.6l1.4,0.8C50.3,36.9,50.5,38,50.1,38.8z"/>
				<circle class="st1" cx="47.8" cy="37.6" r="1.1"/>
			</g>
			<g>
				<path class="st0" d="M52.9,33.9L52.9,33.9c-0.5,0.9-1.6,1.2-2.5,0.7L49,33.8c-0.8-0.5-1.1-1.5-0.6-2.4l0.1-0.1
					c0.5-0.8,1.5-1.1,2.4-0.6l1.4,0.8C53.1,32,53.4,33,52.9,33.9z"/>
				<circle class="st1" cx="50.7" cy="32.7" r="1.1"/>
			</g>
			<g>
				<path class="st0" d="M53.7,25.8L52.3,25c-0.1,0-0.2,0-0.2,0l-1.7,2.9c0,0.1,0,0.1,0,0.2l4.2,2.4c0.1,0,0.2,0,0.2,0l0.5-0.8
					l0.6,0.3l0.8-1.3l-0.6-0.3l0.5-0.8c0-0.1,0-0.1,0-0.2L55,26.6l0.3-0.6l-1.3-0.8L53.7,25.8z"/>
				<circle class="st1" cx="53.5" cy="27.8" r="1.1"/>
			</g>
			<g>
				<rect x="41.4" y="39.8" transform="matrix(0.5 -0.866 0.866 0.5 -14.2686 56.9603)" class="st2" width="1.7" height="2"/>
				<path class="st3" d="M45.5,42.7L45.5,42.7c-0.2,0.4-0.8,0.6-1.1,0.3l-1.8-1l0.8-1.5l1.8,1C45.6,41.9,45.8,42.3,45.5,42.7z"/>
			</g>
			<g>
				<rect x="44.2" y="34.9" transform="matrix(0.5 -0.866 0.866 0.5 -8.6096 56.9606)" class="st2" width="1.7" height="2"/>
				<path class="st3" d="M48.4,37.8L48.4,37.8c-0.2,0.4-0.8,0.6-1.1,0.3l-1.8-1l0.8-1.5l1.8,1C48.5,37,48.6,37.5,48.4,37.8z"/>
			</g>
			<g>
				<rect x="47" y="30" transform="matrix(0.5 -0.866 0.866 0.5 -2.9506 56.9609)" class="st2" width="1.7" height="2"/>
				<path class="st3" d="M51.2,32.9L51.2,32.9c-0.2,0.4-0.8,0.6-1.1,0.3l-1.8-1l0.8-1.5l1.8,1C51.3,32.1,51.4,32.5,51.2,32.9z"/>
			</g>
			<g>
				<rect x="49.8" y="25.1" transform="matrix(0.5 -0.866 0.866 0.5 2.7084 56.9611)" class="st2" width="1.7" height="2"/>
				<path class="st3" d="M54,28L54,28c-0.2,0.4-0.8,0.6-1.1,0.3l-1.8-1l0.8-1.5l1.8,1C54.1,27.2,54.3,27.6,54,28z"/>
			</g>
			<g>
				<rect x="41.1" y="43" transform="matrix(0.5 -0.866 0.866 0.5 -18.2519 59.5678)" class="st2" width="2.8" height="5.2"/>
				<rect x="44.2" y="46.4" transform="matrix(0.5 -0.866 0.866 0.5 -18.252 63.2014)" class="st3" width="2.8" height="2.1"/>
			</g>
			<g>
				<rect x="53.5" y="21.5" transform="matrix(0.5 -0.866 0.866 0.5 6.6039 59.5611)" class="st2" width="2.8" height="5.2"/>
				<rect x="56.6" y="24.8" transform="matrix(0.5 -0.866 0.866 0.5 6.6038 63.2048)" class="st3" width="2.8" height="2.1"/>
			</g>
			<rect x="26.1" y="22.5" transform="matrix(0.5 -0.866 0.866 0.5 -5.8276 49.422)" class="st3" width="27.7" height="14.5"/>
			<g>
				<rect x="37.9" y="24.9" transform="matrix(0.5 -0.866 0.866 0.5 -8.669 49.3944)" class="st2" width="1.2" height="14.6"/>
				<rect x="40.7" y="20" transform="matrix(0.5 -0.866 0.866 0.5 -2.9615 49.404)" class="st2" width="1.2" height="14.6"/>
				<rect x="42" y="27.1" transform="matrix(0.5 -0.866 0.866 0.5 -5.7863 52.5511)" class="st2" width="1.2" height="8.3"/>
				<rect x="39.2" y="32" transform="matrix(0.5 -0.866 0.866 0.5 -11.4453 52.5508)" class="st2" width="1.2" height="8.3"/>
				<rect x="44.9" y="22.2" transform="matrix(0.5 -0.866 0.866 0.5 -0.1273 52.5513)" class="st2" width="1.2" height="8.3"/>
			</g>
			<rect x="30.3" y="29.6" transform="matrix(0.5 -0.866 0.866 0.5 -5.7817 54.2176)" class="st4" width="27.6" height="4.9"/>
			<polygon class="st2" points="34.4,18.3 44.4,24.1 41.2,29.6 37.2,36.5 27.2,30.8 23.9,36.5 39.3,45.4 40,44.1 29.3,37.9 
				30.7,35.5 40.8,41.4 45.9,32.4 50.4,24.7 40.3,18.9 41.7,16.5 52.4,22.7 53.1,21.4 37.7,12.6 			"/>
			<rect x="45.2" y="32.8" transform="matrix(0.5 -0.866 0.866 0.5 -5.7948 56.3103)" class="st2" width="1.4" height="0.7"/>
			<rect x="42.3" y="37.7" transform="matrix(0.5 -0.866 0.866 0.5 -11.4386 56.309)" class="st2" width="1.4" height="0.7"/>
			<rect x="48" y="27.9" transform="matrix(0.5 -0.866 0.866 0.5 -0.1206 56.3095)" class="st2" width="1.4" height="0.7"/>
		</g>
		<text transform="matrix(0.5 -0.866 0.866 0.5 56.5295 43.8013)" class="st2 st5 st6">D4</text>
	</g>
	<g id="D5_x2F_A1">
		<g id="JST_9_">
			<g>
				<path class="st0" d="M69.6,24.1h-0.1c-1,0-1.8-0.8-1.8-1.8v-1.6c0-1,0.8-1.8,1.8-1.8h0.1c1,0,1.8,0.8,1.8,1.8v1.6
					C71.4,23.3,70.6,24.1,69.6,24.1z"/>
				<circle class="st1" cx="69.6" cy="21.5" r="1.1"/>
			</g>
			<g>
				<path class="st0" d="M75.3,24.1h-0.1c-1,0-1.8-0.8-1.8-1.8v-1.6c0-1,0.8-1.8,1.8-1.8h0.1c1,0,1.8,0.8,1.8,1.8v1.6
					C77,23.3,76.3,24.1,75.3,24.1z"/>
				<circle class="st1" cx="75.2" cy="21.5" r="1.1"/>
			</g>
			<g>
				<path class="st0" d="M80.9,24.1h-0.1c-1,0-1.8-0.8-1.8-1.8v-1.6c0-1,0.8-1.8,1.8-1.8h0.1c1,0,1.8,0.8,1.8,1.8v1.6
					C82.7,23.3,81.9,24.1,80.9,24.1z"/>
				<circle class="st1" cx="80.9" cy="21.5" r="1.1"/>
			</g>
			<g>
				<path class="st0" d="M88.4,20.8v-1.7c0-0.1-0.1-0.1-0.1-0.1h-3.3c-0.1,0-0.1,0.1-0.1,0.1V24c0,0.1,0.1,0.1,0.1,0.1h0.9v0.7h1.5
					v-0.7h0.9c0.1,0,0.1-0.1,0.1-0.1v-1.7H89v-1.5L88.4,20.8L88.4,20.8z"/>
				<circle class="st1" cx="86.6" cy="21.5" r="1.1"/>
			</g>
			<g>
				<rect x="68.7" y="17.3" class="st2" width="1.7" height="2"/>
				<path class="st3" d="M69.6,22.2L69.6,22.2c-0.5,0-0.9-0.4-0.9-0.8v-2.1h1.7v2C70.4,21.8,70.1,22.2,69.6,22.2z"/>
			</g>
			<g>
				<rect x="74.4" y="17.3" class="st2" width="1.7" height="2"/>
				<path class="st3" d="M75.3,22.2L75.3,22.2c-0.5,0-0.9-0.4-0.9-0.8v-2.1h1.7v2C76.1,21.8,75.7,22.2,75.3,22.2z"/>
			</g>
			<g>
				<rect x="80.1" y="17.3" class="st2" width="1.7" height="2"/>
				<path class="st3" d="M80.9,22.2L80.9,22.2c-0.5,0-0.9-0.4-0.9-0.8v-2.1h1.7v2C81.7,21.8,81.4,22.2,80.9,22.2z"/>
			</g>
			<g>
				<rect x="85.7" y="17.3" class="st2" width="1.7" height="2"/>
				<path class="st3" d="M86.6,22.2L86.6,22.2c-0.5,0-0.9-0.4-0.9-0.8v-2.1h1.7v2C87.4,21.8,87,22.2,86.6,22.2z"/>
			</g>
			<g>
				<rect x="64.2" y="18.3" class="st2" width="2.8" height="5.2"/>
				<rect x="64.2" y="23.5" class="st3" width="2.8" height="2.1"/>
			</g>
			<g>
				<rect x="89" y="18.3" class="st2" width="2.8" height="5.2"/>
				<rect x="89" y="23.5" class="st3" width="2.8" height="2.1"/>
			</g>
			<rect x="64.2" y="3.5" class="st3" width="27.7" height="14.5"/>
			<g>
				<rect x="74.6" y="3.4" class="st2" width="1.2" height="14.6"/>
				<rect x="80.3" y="3.4" class="st2" width="1.2" height="14.6"/>
				<rect x="77.5" y="9.8" class="st2" width="1.2" height="8.3"/>
				<rect x="71.8" y="9.8" class="st2" width="1.2" height="8.3"/>
				<rect x="83.1" y="9.8" class="st2" width="1.2" height="8.3"/>
			</g>
			<rect x="64.3" y="13.1" class="st4" width="27.6" height="4.9"/>
			<polygon class="st2" points="85.2,0.3 85.2,11.9 78.8,11.9 70.8,11.9 70.8,0.3 64.2,0.3 64.2,18 65.6,18 65.6,5.7 68.4,5.7 
				68.4,17.3 78.8,17.3 87.6,17.3 87.6,5.7 90.4,5.7 90.4,18 91.8,18 91.8,0.3 			"/>
			<rect x="77.3" y="17.3" class="st2" width="1.4" height="0.7"/>
			<rect x="71.7" y="17.3" class="st2" width="1.4" height="0.7"/>
			<rect x="83" y="17.3" class="st2" width="1.4" height="0.7"/>
		</g>
		<text transform="matrix(1 0 0 1 67.2807 32.2937)" class="st2 st5 st6">D5/A1</text>
	</g>
	<g id="D6_x2F_A2">
		<g id="JST_8_">
			<g>
				<path class="st0" d="M108.2,24.1h-0.1c-1,0-1.8-0.8-1.8-1.8v-1.6c0-1,0.8-1.8,1.8-1.8h0.1c1,0,1.8,0.8,1.8,1.8v1.6
					C109.9,23.3,109.2,24.1,108.2,24.1z"/>
				<circle class="st1" cx="108.1" cy="21.5" r="1.1"/>
			</g>
			<g>
				<path class="st0" d="M113.8,24.1h-0.1c-1,0-1.8-0.8-1.8-1.8v-1.6c0-1,0.8-1.8,1.8-1.8h0.1c1,0,1.8,0.8,1.8,1.8v1.6
					C115.6,23.3,114.8,24.1,113.8,24.1z"/>
				<circle class="st1" cx="113.8" cy="21.5" r="1.1"/>
			</g>
			<g>
				<path class="st0" d="M119.5,24.1h-0.1c-1,0-1.8-0.8-1.8-1.8v-1.6c0-1,0.8-1.8,1.8-1.8h0.1c1,0,1.8,0.8,1.8,1.8v1.6
					C121.2,23.3,120.5,24.1,119.5,24.1z"/>
				<circle class="st1" cx="119.4" cy="21.5" r="1.1"/>
			</g>
			<g>
				<path class="st0" d="M126.9,20.8v-1.7c0-0.1-0.1-0.1-0.1-0.1h-3.3c-0.1,0-0.1,0.1-0.1,0.1V24c0,0.1,0.1,0.1,0.1,0.1h0.9v0.7h1.5
					v-0.7h0.9c0.1,0,0.1-0.1,0.1-0.1v-1.7h0.7v-1.5L126.9,20.8L126.9,20.8z"/>
				<circle class="st1" cx="125.1" cy="21.5" r="1.1"/>
			</g>
			<g>
				<rect x="107.3" y="17.3" class="st2" width="1.7" height="2"/>
				<path class="st3" d="M108.2,22.2L108.2,22.2c-0.5,0-0.9-0.4-0.9-0.8v-2.1h1.7v2C109,21.8,108.6,22.2,108.2,22.2z"/>
			</g>
			<g>
				<rect x="112.9" y="17.3" class="st2" width="1.7" height="2"/>
				<path class="st3" d="M113.8,22.2L113.8,22.2c-0.5,0-0.9-0.4-0.9-0.8v-2.1h1.7v2C114.6,21.8,114.3,22.2,113.8,22.2z"/>
			</g>
			<g>
				<rect x="118.6" y="17.3" class="st2" width="1.7" height="2"/>
				<path class="st3" d="M119.5,22.2L119.5,22.2c-0.5,0-0.9-0.4-0.9-0.8v-2.1h1.7v2C120.3,21.8,119.9,22.2,119.5,22.2z"/>
			</g>
			<g>
				<rect x="124.3" y="17.3" class="st2" width="1.7" height="2"/>
				<path class="st3" d="M125.1,22.2L125.1,22.2c-0.5,0-0.9-0.4-0.9-0.8v-2.1h1.7v2C125.9,21.8,125.6,22.2,125.1,22.2z"/>
			</g>
			<g>
				<rect x="102.7" y="18.3" class="st2" width="2.8" height="5.2"/>
				<rect x="102.7" y="23.5" class="st3" width="2.8" height="2.1"/>
			</g>
			<g>
				<rect x="127.6" y="18.3" class="st2" width="2.8" height="5.2"/>
				<rect x="127.6" y="23.5" class="st3" width="2.8" height="2.1"/>
			</g>
			<rect x="102.7" y="3.5" class="st3" width="27.7" height="14.5"/>
			<g>
				<rect x="113.1" y="3.4" class="st2" width="1.2" height="14.6"/>
				<rect x="118.8" y="3.4" class="st2" width="1.2" height="14.6"/>
				<rect x="116" y="9.8" class="st2" width="1.2" height="8.3"/>
				<rect x="110.4" y="9.8" class="st2" width="1.2" height="8.3"/>
				<rect x="121.7" y="9.8" class="st2" width="1.2" height="8.3"/>
			</g>
			<rect x="102.8" y="13.1" class="st4" width="27.6" height="4.9"/>
			<polygon class="st2" points="123.8,0.3 123.8,11.9 117.3,11.9 109.4,11.9 109.4,0.3 102.7,0.3 102.7,18 104.2,18 104.2,5.7 
				106.9,5.7 106.9,17.3 117.3,17.3 126.2,17.3 126.2,5.7 128.9,5.7 128.9,18 130.4,18 130.4,0.3 			"/>
			<rect x="115.9" y="17.3" class="st2" width="1.4" height="0.7"/>
			<rect x="110.2" y="17.3" class="st2" width="1.4" height="0.7"/>
			<rect x="121.6" y="17.3" class="st2" width="1.4" height="0.7"/>
		</g>
		<text transform="matrix(1 0 0 1 107.0058 32.2937)" class="st2 st5 st6">D6/A2</text>
	</g>
	<g id="I2C">
		<g id="JST_3_">
			<g>
				<path class="st0" d="M167,96.3L167,96.3c0.5-0.9,1.6-1.2,2.4-0.7l1.4,0.8c0.8,0.5,1.1,1.6,0.6,2.4l-0.1,0.1
					c-0.5,0.8-1.6,1.1-2.4,0.6l-1.4-0.8C166.8,98.2,166.5,97.2,167,96.3z"/>
				<circle class="st1" cx="169.2" cy="97.6" r="1.1"/>
			</g>
			<g>
				<path class="st0" d="M164.2,101.2L164.2,101.2c0.5-0.9,1.6-1.2,2.4-0.7l1.4,0.8c0.8,0.5,1.1,1.6,0.6,2.4l-0.1,0.1
					c-0.5,0.8-1.6,1.1-2.4,0.6l-1.4-0.8C164,103.1,163.7,102.1,164.2,101.2z"/>
				<circle class="st1" cx="166.4" cy="102.5" r="1.1"/>
			</g>
			<g>
				<path class="st0" d="M161.4,106.1L161.4,106.1c0.5-0.9,1.6-1.2,2.4-0.7l1.4,0.8c0.8,0.5,1.1,1.6,0.6,2.4l-0.1,0.1
					c-0.5,0.8-1.6,1.1-2.4,0.6l-1.4-0.8C161.2,108,160.9,107,161.4,106.1z"/>
				<circle class="st1" cx="163.6" cy="107.4" r="1.1"/>
			</g>
			<g>
				<path class="st0" d="M160.5,114.2l1.4,0.8c0.1,0,0.1,0,0.2-0.1l1.7-2.9c0-0.1,0-0.2-0.1-0.2l-4.2-2.4c-0.1,0-0.1,0-0.2,0.1
					l-0.5,0.8l-0.6-0.3l-0.8,1.3l0.6,0.3l-0.5,0.8c0,0.1,0,0.2,0.1,0.2l1.4,0.8l-0.3,0.6l1.3,0.8L160.5,114.2z"/>
				<circle class="st1" cx="160.8" cy="112.3" r="1.1"/>
			</g>
			<g>
				<rect x="171.2" y="98.2" transform="matrix(0.5 -0.866 0.866 0.5 0.1455 198.5865)" class="st2" width="1.7" height="2"/>
				<path class="st3" d="M168.7,97.3L168.7,97.3c0.2-0.4,0.8-0.6,1.1-0.3l1.8,1l-0.8,1.4l-1.8-1C168.6,98.2,168.5,97.7,168.7,97.3z"
					/>
			</g>
			<g>
				<rect x="168.4" y="103.1" transform="matrix(0.5 -0.866 0.866 0.5 -5.5116 198.5867)" class="st2" width="1.7" height="2"/>
				<path class="st3" d="M165.9,102.2L165.9,102.2c0.2-0.4,0.8-0.6,1.1-0.3l1.8,1l-0.8,1.4l-1.8-1
					C165.8,103.1,165.6,102.6,165.9,102.2z"/>
			</g>
			<g>
				<rect x="165.6" y="108" transform="matrix(0.5 -0.866 0.866 0.5 -11.1788 198.5869)" class="st2" width="1.7" height="2"/>
				<path class="st3" d="M163,107.1L163,107.1c0.2-0.4,0.8-0.6,1.1-0.3l1.8,1l-0.8,1.4l-1.8-1C162.9,108,162.8,107.5,163,107.1z"/>
			</g>
			<g>
				<rect x="162.7" y="112.9" transform="matrix(0.5 -0.866 0.866 0.5 -16.8358 198.5871)" class="st2" width="1.7" height="2"/>
				<path class="st3" d="M160.2,112L160.2,112c0.2-0.4,0.8-0.6,1.1-0.3l1.8,1l-0.8,1.4l-1.8-1C160.1,112.9,160,112.4,160.2,112z"/>
			</g>
			<g>
				<rect x="170.4" y="91.8" transform="matrix(0.5 -0.866 0.866 0.5 4.1247 195.992)" class="st2" width="2.8" height="5.2"/>
				<rect x="167.2" y="91.6" transform="matrix(0.5 -0.866 0.866 0.5 4.1246 192.351)" class="st3" width="2.8" height="2.1"/>
			</g>
			<g>
				<rect x="158" y="113.3" transform="matrix(0.5 -0.866 0.866 0.5 -20.7332 195.985)" class="st2" width="2.8" height="5.2"/>
				<rect x="154.8" y="113.1" transform="matrix(0.5 -0.866 0.866 0.5 -20.7333 192.354)" class="st3" width="2.8" height="2.1"/>
			</g>
			<rect x="160.5" y="103" transform="matrix(0.5 -0.866 0.866 0.5 -8.3029 206.1262)" class="st3" width="27.7" height="14.5"/>
			<g>
				<rect x="175.2" y="100.5" transform="matrix(0.5 -0.866 0.866 0.5 -5.4568 206.1501)" class="st2" width="1.2" height="14.6"/>
				<rect x="172.4" y="105.5" transform="matrix(0.5 -0.866 0.866 0.5 -11.1694 206.1497)" class="st2" width="1.2" height="14.6"/>
				<rect x="171" y="104.6" transform="matrix(0.5 -0.866 0.866 0.5 -8.3464 202.9959)" class="st2" width="1.2" height="8.3"/>
				<rect x="173.9" y="99.7" transform="matrix(0.5 -0.866 0.866 0.5 -2.6892 202.9957)" class="st2" width="1.2" height="8.3"/>
				<rect x="168.2" y="109.5" transform="matrix(0.5 -0.866 0.866 0.5 -14.0035 202.9961)" class="st2" width="1.2" height="8.3"/>
			</g>
			<rect x="156.4" y="105.4" transform="matrix(0.5 -0.866 0.866 0.5 -8.3419 201.336)" class="st4" width="27.6" height="4.9"/>
			<polygon class="st2" points="179.8,121.7 169.8,115.9 173,110.4 177,103.5 187,109.2 190.4,103.5 175,94.6 174.3,95.9 
				184.9,102.1 183.6,104.5 173.5,98.7 168.3,107.6 163.9,115.3 174,121.1 172.6,123.5 161.9,117.3 161.2,118.6 176.5,127.5 			"/>
			<rect x="167.7" y="106.5" transform="matrix(0.5 -0.866 0.866 0.5 -8.3342 199.2421)" class="st2" width="1.4" height="0.7"/>
			<rect x="170.5" y="101.6" transform="matrix(0.5 -0.866 0.866 0.5 -2.6926 199.2409)" class="st2" width="1.4" height="0.7"/>
			<rect x="164.8" y="111.4" transform="matrix(0.5 -0.866 0.866 0.5 -14.0069 199.2413)" class="st2" width="1.4" height="0.7"/>
		</g>
		<text transform="matrix(-0.5 0.866 -0.866 -0.5 159.0366 92.8169)" class="st2 st5 st6">I2C</text>
	</g>
	<g id="I2C_1_">
		<g id="JST">
			<g>
				<path class="st0" d="M147.8,129.7l0.1-0.1c0.5-0.8,1.6-1.1,2.4-0.6l1.4,0.8c0.8,0.5,1.1,1.6,0.6,2.4l-0.1,0.1
					c-0.5,0.8-1.6,1.1-2.4,0.6l-1.4-0.8C147.6,131.6,147.3,130.6,147.8,129.7z"/>
				<circle class="st1" cx="150" cy="130.9" r="1.1"/>
			</g>
			<g>
				<path class="st0" d="M144.9,134.6l0.1-0.1c0.5-0.8,1.6-1.1,2.4-0.6l1.4,0.8c0.8,0.5,1.1,1.6,0.6,2.4l-0.1,0.1
					c-0.5,0.8-1.6,1.1-2.4,0.6l-1.4-0.8C144.7,136.5,144.4,135.4,144.9,134.6z"/>
				<circle class="st1" cx="147.1" cy="135.8" r="1.1"/>
			</g>
			<g>
				<path class="st0" d="M142.1,139.5l0.1-0.1c0.5-0.8,1.6-1.1,2.4-0.6l1.4,0.8c0.8,0.5,1.1,1.6,0.6,2.4l-0.1,0.1
					c-0.5,0.8-1.6,1.1-2.4,0.6l-1.4-0.8C141.9,141.4,141.6,140.4,142.1,139.5z"/>
				<circle class="st1" cx="144.3" cy="140.7" r="1.1"/>
			</g>
			<g>
				<path class="st0" d="M141.2,147.6l1.4,0.8c0.1,0,0.1,0,0.2-0.1l1.7-2.9c0-0.1,0-0.1-0.1-0.2l-4.2-2.4c-0.1,0-0.1,0-0.2,0.1
					l-0.5,0.8l-0.6-0.3l-0.8,1.3l0.6,0.3l-0.5,0.8c0,0.1,0,0.1,0.1,0.2l1.4,0.8l-0.3,0.6l1.3,0.8L141.2,147.6z"/>
				<circle class="st1" cx="141.5" cy="145.6" r="1.1"/>
			</g>
			<g>
				<rect x="151.9" y="131.6" transform="matrix(0.5 -0.866 0.866 0.5 -38.3998 198.5872)" class="st2" width="1.7" height="2"/>
				<path class="st3" d="M149.4,130.6L149.4,130.6c0.2-0.4,0.8-0.6,1.1-0.3l1.8,1l-0.8,1.4l-1.8-1
					C149.3,131.5,149.2,131,149.4,130.6z"/>
			</g>
			<g>
				<rect x="149.1" y="136.5" transform="matrix(0.5 -0.866 0.866 0.5 -44.057 198.5874)" class="st2" width="1.7" height="2"/>
				<path class="st3" d="M146.6,135.6L146.6,135.6c0.2-0.4,0.8-0.6,1.1-0.3l1.8,1l-0.8,1.4l-1.8-1
					C146.5,136.4,146.4,135.9,146.6,135.6z"/>
			</g>
			<g>
				<rect x="146.3" y="141.4" transform="matrix(0.5 -0.866 0.866 0.5 -49.714 198.5875)" class="st2" width="1.7" height="2"/>
				<path class="st3" d="M143.8,140.4L143.8,140.4c0.2-0.4,0.8-0.6,1.1-0.3l1.8,1l-0.8,1.4l-1.8-1
					C143.7,141.3,143.6,140.8,143.8,140.4z"/>
			</g>
			<g>
				<rect x="143.5" y="146.3" transform="matrix(0.5 -0.866 0.866 0.5 -55.3712 198.5878)" class="st2" width="1.7" height="2"/>
				<path class="st3" d="M140.9,145.4L140.9,145.4c0.2-0.4,0.8-0.6,1.1-0.3l1.8,1l-0.8,1.4l-1.8-1
					C140.9,146.2,140.7,145.7,140.9,145.4z"/>
			</g>
			<g>
				<rect x="151.1" y="125.2" transform="matrix(0.5 -0.866 0.866 0.5 -34.4206 195.9926)" class="st2" width="2.8" height="5.2"/>
				<rect x="148" y="125" transform="matrix(0.5 -0.866 0.866 0.5 -34.4207 192.3516)" class="st3" width="2.8" height="2.1"/>
			</g>
			<g>
				<rect x="138.7" y="146.7" transform="matrix(0.5 -0.866 0.866 0.5 -59.2684 195.9857)" class="st2" width="2.8" height="5.2"/>
				<rect x="135.5" y="146.5" transform="matrix(0.5 -0.866 0.866 0.5 -59.2686 192.3546)" class="st3" width="2.8" height="2.1"/>
			</g>
			<rect x="141.3" y="136.4" transform="matrix(0.5 -0.866 0.866 0.5 -46.8483 206.1269)" class="st3" width="27.7" height="14.5"/>
			<g>
				<rect x="155.9" y="133.9" transform="matrix(0.5 -0.866 0.866 0.5 -43.9921 206.1508)" class="st2" width="1.2" height="14.6"/>
				<rect x="153.1" y="138.8" transform="matrix(0.5 -0.866 0.866 0.5 -49.7148 206.1504)" class="st2" width="1.2" height="14.6"/>
				<rect x="151.8" y="138" transform="matrix(0.5 -0.866 0.866 0.5 -46.8917 202.9966)" class="st2" width="1.2" height="8.3"/>
				<rect x="154.6" y="133.1" transform="matrix(0.5 -0.866 0.866 0.5 -41.2246 202.9964)" class="st2" width="1.2" height="8.3"/>
				<rect x="148.9" y="142.9" transform="matrix(0.5 -0.866 0.866 0.5 -52.5488 202.9968)" class="st2" width="1.2" height="8.3"/>
			</g>
			<rect x="137.1" y="138.8" transform="matrix(0.5 -0.866 0.866 0.5 -46.8871 201.3367)" class="st4" width="27.6" height="4.9"/>
			<polygon class="st2" points="160.6,155.1 150.6,149.3 153.8,143.7 157.8,136.9 167.8,142.6 171.1,136.9 155.7,128 155,129.3 
				165.7,135.4 164.3,137.8 154.2,132 149,141 144.6,148.7 154.7,154.5 153.3,156.9 142.6,150.7 141.9,152 157.2,160.8 			"/>
			<rect x="148.4" y="139.9" transform="matrix(0.5 -0.866 0.866 0.5 -46.8795 199.2428)" class="st2" width="1.4" height="0.7"/>
			<rect x="151.2" y="135" transform="matrix(0.5 -0.866 0.866 0.5 -41.228 199.2416)" class="st2" width="1.4" height="0.7"/>
			<rect x="145.6" y="144.8" transform="matrix(0.5 -0.866 0.866 0.5 -52.5522 199.242)" class="st2" width="1.4" height="0.7"/>
		</g>
		<text transform="matrix(-0.5 0.866 -0.866 -0.5 139.1714 127.2192)" class="st2 st5 st6">I2C</text>
	</g>
	<g id="I2C_2_">
		<g id="JST_1_">
			<g>
				<path class="st0" d="M140.1,29l-0.1-0.1c-0.5-0.8-0.2-1.9,0.6-2.4l1.4-0.8c0.8-0.5,1.9-0.2,2.4,0.6l0.1,0.1
					c0.5,0.8,0.2,1.9-0.6,2.4l-1.4,0.8C141.6,30.1,140.6,29.9,140.1,29z"/>
				<circle class="st1" cx="142.2" cy="27.7" r="1.1"/>
			</g>
			<g>
				<path class="st0" d="M142.9,33.9L142.9,33.9c-0.5-0.9-0.3-2,0.6-2.5l1.4-0.8c0.8-0.5,1.9-0.2,2.4,0.6l0.1,0.1
					c0.5,0.8,0.2,1.9-0.6,2.4l-1.4,0.8C144.4,35,143.4,34.8,142.9,33.9z"/>
				<circle class="st1" cx="145.1" cy="32.6" r="1.1"/>
			</g>
			<g>
				<path class="st0" d="M145.7,38.8L145.7,38.8c-0.5-0.9-0.3-2,0.6-2.5l1.4-0.8c0.8-0.5,1.9-0.2,2.4,0.6l0.1,0.1
					c0.5,0.8,0.2,1.9-0.6,2.4l-1.4,0.8C147.3,40,146.2,39.7,145.7,38.8z"/>
				<circle class="st1" cx="147.9" cy="37.5" r="1.1"/>
			</g>
			<g>
				<path class="st0" d="M152.3,43.6l1.4-0.8c0.1,0,0.1-0.1,0.1-0.2l-1.7-2.9c0-0.1-0.1-0.1-0.2,0l-4.2,2.4c-0.1,0-0.1,0.1-0.1,0.2
					l0.5,0.8l-0.6,0.3l0.8,1.3l0.6-0.3l0.5,0.8c0,0.1,0.1,0.1,0.2,0l1.4-0.8l0.3,0.6l1.3-0.8L152.3,43.6z"/>
				<circle class="st1" cx="150.7" cy="42.4" r="1.1"/>
			</g>
			<g>
				<rect x="144" y="25.2" transform="matrix(0.866 -0.5 0.5 0.866 6.3932 76.0174)" class="st2" width="2" height="1.7"/>
				<path class="st3" d="M141.7,28L141.7,28c-0.2-0.4-0.1-0.9,0.3-1.2l1.8-1l0.8,1.5l-1.8,1C142.4,28.6,141.9,28.4,141.7,28z"/>
			</g>
			<g>
				<rect x="146.9" y="30.1" transform="matrix(0.866 -0.5 0.5 0.866 4.3219 78.0889)" class="st2" width="2" height="1.7"/>
				<path class="st3" d="M144.6,32.9L144.6,32.9c-0.2-0.4-0.1-0.9,0.3-1.2l1.8-1l0.8,1.5l-1.8,1C145.3,33.5,144.8,33.3,144.6,32.9z"
					/>
			</g>
			<g>
				<rect x="149.7" y="35" transform="matrix(0.866 -0.5 0.5 0.866 2.2506 80.1604)" class="st2" width="2" height="1.7"/>
				<path class="st3" d="M147.4,37.8L147.4,37.8c-0.2-0.4-0.1-0.9,0.3-1.2l1.8-1l0.8,1.5l-1.8,1C148.1,38.4,147.6,38.2,147.4,37.8z"
					/>
			</g>
			<g>
				<rect x="152.5" y="39.9" transform="matrix(0.866 -0.5 0.5 0.866 0.1793 82.2319)" class="st2" width="2" height="1.7"/>
				<path class="st3" d="M150.2,42.7L150.2,42.7c-0.2-0.4-0.1-0.9,0.3-1.2l1.8-1l0.8,1.5l-1.8,1C150.9,43.3,150.4,43.1,150.2,42.7z"
					/>
			</g>
			<g>
				<rect x="138.2" y="22.5" transform="matrix(0.866 -0.5 0.5 0.866 6.8963 73.6084)" class="st2" width="5.2" height="2.8"/>
				<rect x="136.6" y="24.3" transform="matrix(0.866 -0.5 0.5 0.866 5.5661 72.2784)" class="st3" width="2.1" height="2.8"/>
			</g>
			<g>
				<rect x="150.6" y="44.1" transform="matrix(0.866 -0.5 0.5 0.866 -2.2007 82.7078)" class="st2" width="5.2" height="2.8"/>
				<rect x="149" y="45.9" transform="matrix(0.866 -0.5 0.5 0.866 -3.5308 81.3778)" class="st3" width="2.1" height="2.8"/>
			</g>
			<rect x="148.6" y="15.8" transform="matrix(0.866 -0.5 0.5 0.866 6.0645 81.8701)" class="st3" width="14.5" height="27.7"/>
			<g>
				<rect x="147.1" y="26.6" transform="matrix(0.866 -0.5 0.5 0.866 7.1152 80.8363)" class="st2" width="14.6" height="1.2"/>
				<rect x="150" y="31.5" transform="matrix(0.866 -0.5 0.5 0.866 5.0222 82.929)" class="st2" width="14.6" height="1.2"/>
				<rect x="149" y="30.6" transform="matrix(0.866 -0.5 0.5 0.866 4.9017 80.7374)" class="st2" width="8.3" height="1.2"/>
				<rect x="146.1" y="25.7" transform="matrix(0.866 -0.5 0.5 0.866 6.9694 78.6695)" class="st2" width="8.3" height="1.2"/>
				<rect x="151.8" y="35.5" transform="matrix(0.866 -0.5 0.5 0.866 2.8304 82.8089)" class="st2" width="8.3" height="1.2"/>
			</g>
			<rect x="149.2" y="18.3" transform="matrix(0.866 -0.5 0.5 0.866 4.2897 80.1294)" class="st4" width="4.9" height="27.6"/>
			<polygon class="st2" points="168.5,30.6 158.4,36.4 155.2,30.8 151.2,23.9 161.3,18.1 157.9,12.4 142.6,21.3 143.3,22.5 
				154,16.4 155.4,18.8 145.3,24.6 150.5,33.5 154.9,41.2 165,35.4 166.4,37.8 155.7,44 156.4,45.2 171.8,36.4 			"/>
			<rect x="149.5" y="32.4" transform="matrix(0.866 -0.5 0.5 0.866 3.5271 79.3615)" class="st2" width="0.7" height="1.4"/>
			<rect x="146.7" y="27.5" transform="matrix(0.866 -0.5 0.5 0.866 5.5924 77.2951)" class="st2" width="0.7" height="1.4"/>
			<rect x="152.3" y="37.3" transform="matrix(0.866 -0.5 0.5 0.866 1.4535 81.4345)" class="st2" width="0.7" height="1.4"/>
		</g>
		<text transform="matrix(0.5 0.866 -0.866 0.5 134.0073 36.2156)" class="st2 st5 st6">I2C</text>
	</g>
	<g id="I2C_3_">
		<g id="JST_2_">
			<g>
				<path class="st0" d="M159.3,62.4L159.3,62.4c-0.5-0.9-0.3-2,0.6-2.5l1.4-0.8c0.8-0.5,1.9-0.2,2.4,0.6l0.1,0.1
					c0.5,0.8,0.2,1.9-0.6,2.4l-1.4,0.8C160.9,63.5,159.8,63.2,159.3,62.4z"/>
				<circle class="st1" cx="161.5" cy="61.1" r="1.1"/>
			</g>
			<g>
				<path class="st0" d="M162.2,67.3L162.2,67.3c-0.5-0.9-0.3-2,0.6-2.5l1.4-0.8c0.8-0.5,1.9-0.2,2.4,0.6l0.1,0.1
					c0.5,0.8,0.2,1.9-0.6,2.4l-1.4,0.8C163.7,68.4,162.6,68.1,162.2,67.3z"/>
				<circle class="st1" cx="164.3" cy="66" r="1.1"/>
			</g>
			<g>
				<path class="st0" d="M165,72.2L165,72.2c-0.5-0.9-0.3-2,0.6-2.5l1.4-0.8c0.8-0.5,1.9-0.2,2.4,0.6l0.1,0.1
					c0.5,0.8,0.2,1.9-0.6,2.4l-1.4,0.8C166.5,73.3,165.5,73,165,72.2z"/>
				<circle class="st1" cx="167.2" cy="70.9" r="1.1"/>
			</g>
			<g>
				<path class="st0" d="M171.6,77l1.4-0.8c0.1,0,0.1-0.1,0.1-0.2l-1.7-2.9c0-0.1-0.1-0.1-0.2-0.1l-4.2,2.4c-0.1,0-0.1,0.1-0.1,0.2
					l0.5,0.8l-0.6,0.3l0.8,1.3l0.6-0.3l0.5,0.8c0,0.1,0.1,0.1,0.2,0.1l1.4-0.8l0.3,0.6l1.3-0.8L171.6,77z"/>
				<circle class="st1" cx="170" cy="75.8" r="1.1"/>
			</g>
			<g>
				<rect x="163.3" y="58.6" transform="matrix(0.866 -0.5 0.5 0.866 -7.7177 90.1292)" class="st2" width="2" height="1.7"/>
				<path class="st3" d="M161,61.4L161,61.4c-0.2-0.4-0.1-0.9,0.3-1.2l1.8-1l0.8,1.5l-1.8,1C161.7,61.9,161.2,61.8,161,61.4z"/>
			</g>
			<g>
				<rect x="166.1" y="63.5" transform="matrix(0.866 -0.5 0.5 0.866 -9.7853 92.197)" class="st2" width="2" height="1.7"/>
				<path class="st3" d="M163.8,66.3L163.8,66.3c-0.2-0.4-0.1-0.9,0.3-1.2l1.8-1l0.8,1.4l-1.8,1C164.5,66.8,164,66.7,163.8,66.3z"/>
			</g>
			<g>
				<rect x="169" y="68.4" transform="matrix(0.866 -0.5 0.5 0.866 -11.8567 94.2685)" class="st2" width="2" height="1.7"/>
				<path class="st3" d="M166.6,71.2L166.6,71.2c-0.2-0.4-0.1-0.9,0.3-1.2l1.8-1l0.8,1.4l-1.8,1C167.4,71.7,166.9,71.6,166.6,71.2z"
					/>
			</g>
			<g>
				<rect x="171.8" y="73.3" transform="matrix(0.866 -0.5 0.5 0.866 -13.928 96.34)" class="st2" width="2" height="1.7"/>
				<path class="st3" d="M169.5,76.1L169.5,76.1c-0.2-0.4-0.1-0.9,0.3-1.2l1.8-1l0.8,1.4l-1.8,1C170.2,76.6,169.7,76.5,169.5,76.1z"
					/>
			</g>
			<g>
				<rect x="157.5" y="55.9" transform="matrix(0.866 -0.5 0.5 0.866 -7.211 87.7164)" class="st2" width="5.2" height="2.8"/>
				<rect x="155.9" y="57.7" transform="matrix(0.866 -0.5 0.5 0.866 -8.5411 86.3865)" class="st3" width="2.1" height="2.8"/>
			</g>
			<g>
				<rect x="169.9" y="77.4" transform="matrix(0.866 -0.5 0.5 0.866 -16.3079 96.8158)" class="st2" width="5.2" height="2.8"/>
				<rect x="168.3" y="79.2" transform="matrix(0.866 -0.5 0.5 0.866 -17.638 95.4858)" class="st3" width="2.1" height="2.8"/>
			</g>
			<rect x="167.8" y="49.2" transform="matrix(0.866 -0.5 0.5 0.866 -8.0464 95.9819)" class="st3" width="14.5" height="27.7"/>
			<g>
				<rect x="166.4" y="59.9" transform="matrix(0.866 -0.5 0.5 0.866 -6.992 94.9444)" class="st2" width="14.6" height="1.2"/>
				<rect x="169.2" y="64.9" transform="matrix(0.866 -0.5 0.5 0.866 -9.085 97.0371)" class="st2" width="14.6" height="1.2"/>
				<rect x="168.2" y="64" transform="matrix(0.866 -0.5 0.5 0.866 -9.2092 94.8491)" class="st2" width="8.3" height="1.2"/>
				<rect x="165.4" y="59.1" transform="matrix(0.866 -0.5 0.5 0.866 -7.1379 92.7776)" class="st2" width="8.3" height="1.2"/>
				<rect x="171.1" y="68.9" transform="matrix(0.866 -0.5 0.5 0.866 -11.2805 96.9206)" class="st2" width="8.3" height="1.2"/>
			</g>
			<rect x="168.5" y="51.6" transform="matrix(0.866 -0.5 0.5 0.866 -9.8175 94.2374)" class="st4" width="4.9" height="27.6"/>
			<polygon class="st2" points="187.7,64 177.7,69.8 174.5,64.2 170.5,57.3 180.5,51.5 177.2,45.8 161.9,54.7 162.6,55.9 
				173.3,49.7 174.6,52.1 164.6,57.9 169.8,66.9 174.2,74.6 184.3,68.8 185.6,71.2 174.9,77.3 175.7,78.6 191,69.7 			"/>
			<rect x="168.8" y="65.8" transform="matrix(0.866 -0.5 0.5 0.866 -10.5802 93.4695)" class="st2" width="0.7" height="1.4"/>
			<rect x="166" y="60.9" transform="matrix(0.866 -0.5 0.5 0.866 -8.5148 91.4032)" class="st2" width="0.7" height="1.4"/>
			<rect x="171.6" y="70.7" transform="matrix(0.866 -0.5 0.5 0.866 -12.6574 95.5462)" class="st2" width="0.7" height="1.4"/>
		</g>
		<text transform="matrix(0.5 0.866 -0.866 0.5 153.8696 70.6194)" class="st2 st5 st6">I2C</text>
	</g>
	<g id="logo">
		<g>
			<g>
				<g>
					<path class="st2" d="M100.8,41.6c0,0.3-0.2,0.5-0.5,0.5h-2.2v-5.5h2.2c0.3,0,0.5,0.2,0.5,0.5v1.4c0,0.2-0.1,0.3-0.2,0.4
						c0,0-0.2,0.1-0.4,0.3c0.3,0.2,0.4,0.3,0.4,0.3c0.1,0.1,0.2,0.3,0.2,0.5L100.8,41.6L100.8,41.6z M99.9,38.6v-1.3h-1v1.6h0.6
						L99.9,38.6z M99.9,41.4v-1.6l-0.4-0.3h-0.6v1.8L99.9,41.4L99.9,41.4z"/>
				</g>
				<g>
					<path class="st2" d="M105.3,42.1h-0.8l-0.2-1h-1l-0.2,1h-0.8v0l1.1-5.5h0.9L105.3,42.1z M104.2,40.3l-0.4-2.5l-0.4,2.5H104.2z"
						/>
				</g>
				<g>
					<path class="st2" d="M109.5,41.6c0,0.3-0.2,0.5-0.5,0.5h-1.6c-0.3,0-0.5-0.2-0.5-0.5v-1.3h0.8v1.1h1v-1.1l-1.6-1.5
						c-0.1-0.1-0.2-0.3-0.2-0.4v-1.2c0-0.3,0.2-0.5,0.5-0.5h1.6c0.3,0,0.5,0.2,0.5,0.5v1.2h-0.8v-1h-1v1l1.6,1.5
						c0.1,0.1,0.2,0.3,0.2,0.4V41.6z"/>
				</g>
				<g>
					<path class="st2" d="M113.6,42.1h-2.3v-5.5h2.2v0.7h-1.4v1.6h1.2v0.7h-1.2v1.7h1.4V42.1z"/>
				</g>
			</g>
			<g>
				<g>
					<path class="st2" d="M100.8,49.8c0,0.3-0.2,0.5-0.5,0.5h-2.2v-5.5h2.2c0.3,0,0.5,0.2,0.5,0.5v1.4c0,0.2-0.1,0.3-0.2,0.4
						c0,0-0.2,0.1-0.4,0.3c0.3,0.2,0.4,0.3,0.4,0.3c0.1,0.1,0.2,0.3,0.2,0.5V49.8z M99.9,46.9v-1.3h-1v1.6h0.6L99.9,46.9z
						 M99.9,49.6v-1.6l-0.4-0.3h-0.6v1.8L99.9,49.6L99.9,49.6z"/>
				</g>
				<g>
					<path class="st2" d="M104.2,49.8c0,0.3-0.2,0.5-0.5,0.5h-1.8c-0.3,0-0.5-0.2-0.5-0.5v-4.5c0-0.3,0.2-0.5,0.5-0.5h1.8
						c0.3,0,0.5,0.2,0.5,0.5V49.8z M103.3,49.6v-4.1h-1.1v4.1H103.3z"/>
				</g>
				<g>
					<path class="st2" d="M107.6,50.3h-0.8l-0.2-1h-1l-0.2,1h-0.8v0l1.1-5.5h0.9L107.6,50.3z M106.5,48.6l-0.4-2.5l-0.4,2.5H106.5z"
						/>
				</g>
				<g>
					<path class="st2" d="M110.8,50.3H110l-0.9-2.5v-0.5h0.8v-1.7h-1v4.8H108v-5.5h2.2c0.3,0,0.5,0.2,0.5,0.5v2
						c0,0.2-0.1,0.4-0.2,0.5c-0.1,0-0.3,0-0.5,0L110.8,50.3z"/>
				</g>
				<g>
					<path class="st2" d="M114.1,49.3c0,0.3-0.1,0.6-0.3,0.8c-0.2,0.2-0.4,0.3-0.8,0.3h-1.7v-5.5h1.7c0.3,0,0.6,0.1,0.8,0.3
						c0.2,0.2,0.3,0.4,0.3,0.8V49.3z M113.2,49.2V46c0-0.3-0.2-0.5-0.5-0.5h-0.6v4.1h0.6C113.1,49.6,113.2,49.5,113.2,49.2z"/>
				</g>
			</g>
		</g>
		<g>
			<g>
				<polygon class="st2" points="80.9,50.2 94.4,36.6 91.7,36.6 86.3,42 85,40.7 89,36.6 86.3,36.6 83.6,39.3 82.2,38 83.6,36.6 
					80.9,36.6 				"/>
				<polygon class="st2" points="94.4,50.3 94.4,48 89.8,43.3 88.6,44.4 				"/>
				<polygon class="st2" points="94.4,45.6 94.4,43.2 92.1,40.9 90.9,42 				"/>
				<polygon class="st2" points="94.4,40.8 94.4,38.5 93.3,39.7 				"/>
			</g>
		</g>
	</g>
	<g id="header">
		<g>
			<g>
				<path class="st7" d="M129.8,68h-6.3c-0.2,0-0.4-0.2-0.4-0.4v-6.3c0-0.2,0.2-0.4,0.4-0.4h6.3c0.2,0,0.4,0.2,0.4,0.4v6.3
					C130.2,67.8,130,68,129.8,68z"/>
				<rect x="125.2" y="63" class="st0" width="2.8" height="2.8"/>
			</g>
			<polygon class="st8" points="125.2,63 126.6,64.4 125.2,65.9 			"/>
			<polygon class="st9" points="128,65.9 126.6,64.4 125.2,65.9 			"/>
			<polygon class="st10" points="128,63 126.6,64.4 128,65.9 			"/>
		</g>
		<g>
			<g>
				<path class="st7" d="M136.9,68h-6.3c-0.2,0-0.4-0.2-0.4-0.4v-6.3c0-0.2,0.2-0.4,0.4-0.4h6.3c0.2,0,0.4,0.2,0.4,0.4v6.3
					C137.4,67.8,137.2,68,136.9,68z"/>
				<rect x="132.4" y="63" class="st0" width="2.8" height="2.8"/>
			</g>
			<polygon class="st8" points="132.4,63 133.8,64.4 132.4,65.9 			"/>
			<polygon class="st9" points="135.2,65.9 133.8,64.4 132.4,65.9 			"/>
			<polygon class="st10" points="135.2,63 133.8,64.4 135.2,65.9 			"/>
		</g>
		<g>
			<g>
				<path class="st7" d="M144.1,68h-6.3c-0.2,0-0.4-0.2-0.4-0.4v-6.3c0-0.2,0.2-0.4,0.4-0.4h6.3c0.2,0,0.4,0.2,0.4,0.4v6.3
					C144.5,67.8,144.4,68,144.1,68z"/>
				<rect x="139.6" y="63" class="st0" width="2.8" height="2.8"/>
			</g>
			<polygon class="st8" points="139.6,63 141,64.4 139.6,65.9 			"/>
			<polygon class="st9" points="142.4,65.9 141,64.4 139.6,65.9 			"/>
			<polygon class="st10" points="142.4,63 141,64.4 142.4,65.9 			"/>
		</g>
		<g>
			<g>
				<path class="st7" d="M129.8,75.2h-6.3c-0.2,0-0.4-0.2-0.4-0.4v-6.3c0-0.2,0.2-0.4,0.4-0.4h6.3c0.2,0,0.4,0.2,0.4,0.4v6.3
					C130.2,75,130,75.2,129.8,75.2z"/>
				<rect x="125.2" y="70.2" class="st0" width="2.8" height="2.8"/>
			</g>
			<polygon class="st8" points="125.2,70.2 126.6,71.6 125.2,73 			"/>
			<polygon class="st9" points="128,73 126.6,71.6 125.2,73 			"/>
			<polygon class="st10" points="128,70.2 126.6,71.6 128,73 			"/>
		</g>
		<g>
			<g>
				<path class="st7" d="M136.9,75.2h-6.3c-0.2,0-0.4-0.2-0.4-0.4v-6.3c0-0.2,0.2-0.4,0.4-0.4h6.3c0.2,0,0.4,0.2,0.4,0.4v6.3
					C137.4,75,137.2,75.2,136.9,75.2z"/>
				<rect x="132.4" y="70.2" class="st0" width="2.8" height="2.8"/>
			</g>
			<polygon class="st8" points="132.4,70.2 133.8,71.6 132.4,73 			"/>
			<polygon class="st9" points="135.2,73 133.8,71.6 132.4,73 			"/>
			<polygon class="st10" points="135.2,70.2 133.8,71.6 135.2,73 			"/>
		</g>
		<g>
			<g>
				<path class="st7" d="M144.1,75.2h-6.3c-0.2,0-0.4-0.2-0.4-0.4v-6.3c0-0.2,0.2-0.4,0.4-0.4h6.3c0.2,0,0.4,0.2,0.4,0.4v6.3
					C144.5,75,144.4,75.2,144.1,75.2z"/>
				<rect x="139.6" y="70.2" class="st0" width="2.8" height="2.8"/>
			</g>
			<polygon class="st8" points="139.6,70.2 141,71.6 139.6,73 			"/>
			<polygon class="st9" points="142.4,73 141,71.6 139.6,73 			"/>
			<polygon class="st10" points="142.4,70.2 141,71.6 142.4,73 			"/>
		</g>
		<g>
			<polyline class="st11" points="122.7,68 122.7,60.3 144.9,60.3 144.9,75.8 129.5,75.8 			"/>
			<polyline class="st11" points="125.9,75.8 122.7,75.8 122.7,71.4 			"/>
		</g>
	</g>
	<g id="Reset_button">
		<g>
			<g>
				<rect x="49.6" y="59.1" class="st11" width="17.7" height="19.6"/>
				<g>
					<rect x="45" y="60.6" class="st3" width="4.6" height="3.8"/>
					<rect x="45" y="60.6" class="st12" width="4.6" height="3.8"/>
				</g>
				<g>
					<rect x="67.3" y="60.6" class="st3" width="4.6" height="3.8"/>
					<rect x="67.3" y="60.6" class="st12" width="4.6" height="3.8"/>
				</g>
				<g>
					<rect x="45" y="73.2" class="st3" width="4.6" height="3.8"/>
					<rect x="45" y="73.2" class="st12" width="4.6" height="3.8"/>
				</g>
				<g>
					<rect x="67.3" y="73.2" class="st3" width="4.6" height="3.8"/>
					<rect x="67.3" y="73.2" class="st12" width="4.6" height="3.8"/>
				</g>
			</g>
			<g>
				<rect x="50.1" y="60.4" class="st13" width="16.6" height="16.6"/>
				<rect x="50.9" y="61.1" class="st3" width="15.1" height="15.1"/>
				<path class="st3" d="M54,64.2h-3.8v-2.4c0-0.8,0.6-1.4,1.4-1.4H54C54,60.4,54,64.2,54,64.2z"/>
				<path class="st3" d="M66.7,64.2h-3.8v-3.8h2.4c0.8,0,1.4,0.6,1.4,1.4V64.2z"/>
				<path class="st3" d="M54,77h-2.4c-0.8,0-1.4-0.6-1.4-1.4v-2.4H54V77z"/>
				<path class="st3" d="M65.3,77h-2.4v-3.8h3.8v2.4C66.7,76.4,66.1,77,65.3,77z"/>
				<circle class="st13" cx="52.1" cy="62.3" r="1.3"/>
				<circle class="st13" cx="64.8" cy="62.3" r="1.3"/>
				<circle class="st13" cx="52.1" cy="75.1" r="1.3"/>
				<circle class="st14" cx="58.4" cy="68.7" r="4.7"/>
				<circle class="st13" cx="64.8" cy="75.1" r="1.3"/>
				<circle class="st13" cx="58.4" cy="68.7" r="4.5"/>
				<circle class="st15" cx="58.4" cy="68.7" r="4.2"/>
			</g>
		</g>
		<text transform="matrix(1 0 0 1 52.019 57.0398)" class="st2 st5 st16">RESET</text>
	</g>
	<g id="Atmega">
		<g>
			<g>
				<rect x="91.2" y="74.2" class="st17" width="0.6" height="1"/>
				<rect x="91.2" y="75.2" class="st0" width="0.6" height="0.5"/>
			</g>
			<g>
				<rect x="92.6" y="74.2" class="st17" width="0.6" height="1"/>
				<rect x="92.6" y="75.2" class="st0" width="0.6" height="0.5"/>
			</g>
			<g>
				<rect x="94" y="74.2" class="st17" width="0.6" height="1"/>
				<rect x="94" y="75.2" class="st0" width="0.6" height="0.5"/>
			</g>
			<g>
				<rect x="95.4" y="74.2" class="st17" width="0.6" height="1"/>
			</g>
			<g>
				<rect x="96.8" y="74.2" class="st17" width="0.6" height="1"/>
				<rect x="96.8" y="75.2" class="st0" width="0.6" height="0.5"/>
			</g>
			<g>
				<rect x="98.2" y="74.2" class="st17" width="0.6" height="1"/>
				<rect x="98.2" y="75.2" class="st0" width="0.6" height="0.5"/>
			</g>
			<g>
				<rect x="99.7" y="74.2" class="st17" width="0.6" height="1"/>
				<rect x="99.7" y="75.2" class="st0" width="0.6" height="0.5"/>
			</g>
			<g>
				<rect x="101.1" y="74.2" class="st17" width="0.6" height="1"/>
				<rect x="101.1" y="75.2" class="st0" width="0.6" height="0.5"/>
			</g>
			<g>
				<rect x="103.3" y="72.1" class="st17" width="1" height="0.6"/>
				<rect x="104.3" y="72.1" class="st0" width="0.5" height="0.6"/>
			</g>
			<g>
				<rect x="103.3" y="70.7" class="st17" width="1" height="0.6"/>
				<rect x="104.3" y="70.7" class="st0" width="0.5" height="0.6"/>
			</g>
			<g>
				<rect x="103.3" y="69.3" class="st17" width="1" height="0.6"/>
			</g>
			<g>
				<rect x="103.3" y="67.9" class="st17" width="1" height="0.6"/>
				<rect x="104.3" y="67.9" class="st0" width="0.5" height="0.6"/>
			</g>
			<g>
				<rect x="103.3" y="66.5" class="st17" width="1" height="0.6"/>
				<rect x="104.3" y="66.5" class="st0" width="0.5" height="0.6"/>
			</g>
			<g>
				<rect x="103.3" y="65.1" class="st17" width="1" height="0.6"/>
			</g>
			<g>
				<rect x="103.3" y="63.7" class="st17" width="1" height="0.6"/>
				<rect x="104.3" y="63.7" class="st0" width="0.5" height="0.6"/>
			</g>
			<g>
				<rect x="103.3" y="62.3" class="st17" width="1" height="0.6"/>
				<rect x="104.3" y="62.3" class="st0" width="0.5" height="0.6"/>
			</g>
			<g>
				<rect x="101" y="59.3" class="st17" width="0.6" height="1"/>
				<rect x="101" y="58.8" class="st0" width="0.6" height="0.5"/>
			</g>
			<g>
				<rect x="99.6" y="59.3" class="st17" width="0.6" height="1"/>
				<rect x="99.6" y="58.8" class="st0" width="0.6" height="0.5"/>
			</g>
			<g>
				<rect x="98.2" y="59.3" class="st17" width="0.6" height="1"/>
				<rect x="98.2" y="58.8" class="st0" width="0.6" height="0.5"/>
			</g>
			<g>
				<rect x="96.8" y="59.3" class="st17" width="0.6" height="1"/>
				<rect x="96.8" y="58.8" class="st0" width="0.6" height="0.5"/>
			</g>
			<g>
				<rect x="95.4" y="59.3" class="st17" width="0.6" height="1"/>
				<rect x="95.4" y="58.8" class="st0" width="0.6" height="0.5"/>
			</g>
			<g>
				<rect x="94" y="59.3" class="st17" width="0.6" height="1"/>
				<rect x="94" y="58.8" class="st0" width="0.6" height="0.5"/>
			</g>
			<g>
				<rect x="92.6" y="59.3" class="st17" width="0.6" height="1"/>
				<rect x="92.6" y="58.8" class="st0" width="0.6" height="0.5"/>
			</g>
			<g>
				<rect x="88.3" y="62.2" class="st17" width="1" height="0.6"/>
				<rect x="87.9" y="62.2" class="st0" width="0.5" height="0.6"/>
			</g>
			<g>
				<rect x="88.3" y="63.6" class="st17" width="1" height="0.6"/>
				<rect x="87.9" y="63.6" class="st0" width="0.5" height="0.6"/>
			</g>
			<g>
				<rect x="88.3" y="65.1" class="st17" width="1" height="0.6"/>
				<rect x="87.9" y="65" class="st0" width="0.5" height="0.6"/>
			</g>
			<g>
				<rect x="88.3" y="66.5" class="st17" width="1" height="0.6"/>
				<rect x="87.9" y="66.4" class="st0" width="0.5" height="0.6"/>
			</g>
			<g>
				<rect x="88.3" y="67.9" class="st17" width="1" height="0.6"/>
				<rect x="87.9" y="67.9" class="st0" width="0.5" height="0.6"/>
			</g>
			<g>
				<rect x="88.3" y="69.3" class="st17" width="1" height="0.6"/>
			</g>
			<g>
				<rect x="88.3" y="70.7" class="st17" width="1" height="0.6"/>
				<rect x="87.9" y="70.7" class="st0" width="0.5" height="0.6"/>
			</g>
			<g>
				<rect x="88.3" y="72.1" class="st17" width="1" height="0.6"/>
				<rect x="87.9" y="72.1" class="st0" width="0.5" height="0.6"/>
			</g>
			<g>
				<rect x="91.2" y="59.3" class="st17" width="0.6" height="1"/>
			</g>
		</g>
		<g>
			<rect x="89.3" y="60.3" width="13.9" height="13.9"/>
			<rect x="89.6" y="60.6" class="st13" width="13.4" height="13.4"/>
			<circle class="st0" cx="90.9" cy="62" r="0.8"/>
		</g>
		<polyline class="st11" points="90.7,74.8 88.8,74.8 88.8,73.2 		"/>
		<polyline class="st11" points="103.9,73.3 103.9,74.8 102.1,74.8 		"/>
		<polyline class="st11" points="102.1,59.7 103.9,59.7 103.9,61.6 		"/>
		<line class="st11" x1="88.8" y1="59.7" x2="90.6" y2="59.7"/>
	</g>
	<g id="Atmega-2">
		<g>
			<rect x="57.1" y="109.7" width="11.2" height="11.2"/>
			<rect x="57.3" y="109.9" class="st13" width="10.7" height="10.7"/>
			<circle class="st0" cx="58.5" cy="119.6" r="0.6"/>
		</g>
		<g>
			<rect x="58.8" y="120.9" class="st17" width="0.6" height="1"/>
		</g>
		<g>
			<rect x="60.2" y="120.9" class="st17" width="0.6" height="1"/>
			<rect x="60.2" y="121.9" class="st0" width="0.6" height="0.5"/>
		</g>
		<g>
			<rect x="61.7" y="120.9" class="st17" width="0.6" height="1"/>
			<rect x="61.7" y="121.9" class="st0" width="0.6" height="0.5"/>
		</g>
		<g>
			<rect x="63.1" y="120.9" class="st17" width="0.6" height="1"/>
			<rect x="63.1" y="121.9" class="st0" width="0.6" height="0.5"/>
		</g>
		<g>
			<rect x="64.5" y="120.9" class="st17" width="0.6" height="1"/>
			<rect x="64.5" y="121.9" class="st0" width="0.6" height="0.5"/>
		</g>
		<g>
			<rect x="65.9" y="120.9" class="st17" width="0.6" height="1"/>
			<rect x="65.9" y="121.9" class="st0" width="0.6" height="0.5"/>
		</g>
		<g>
			<rect x="68.3" y="118.5" class="st17" width="1" height="0.6"/>
			<rect x="69.3" y="118.5" class="st0" width="0.5" height="0.6"/>
		</g>
		<g>
			<rect x="68.3" y="117.1" class="st17" width="1" height="0.6"/>
			<rect x="69.3" y="117.1" class="st0" width="0.5" height="0.6"/>
		</g>
		<g>
			<rect x="68.3" y="115.7" class="st17" width="1" height="0.6"/>
			<rect x="69.3" y="115.7" class="st0" width="0.5" height="0.6"/>
		</g>
		<g>
			<rect x="68.3" y="114.3" class="st17" width="1" height="0.6"/>
		</g>
		<g>
			<rect x="68.3" y="112.9" class="st17" width="1" height="0.6"/>
		</g>
		<g>
			<rect x="68.3" y="111.5" class="st17" width="1" height="0.6"/>
		</g>
		<g>
			<rect x="65.9" y="108.7" class="st17" width="0.6" height="1"/>
			<rect x="65.9" y="108.3" class="st0" width="0.6" height="0.5"/>
		</g>
		<g>
			<rect x="64.5" y="108.7" class="st17" width="0.6" height="1"/>
			<rect x="64.5" y="108.3" class="st0" width="0.6" height="0.5"/>
		</g>
		<g>
			<rect x="63.1" y="108.7" class="st17" width="0.6" height="1"/>
		</g>
		<g>
			<rect x="61.7" y="108.7" class="st17" width="0.6" height="1"/>
		</g>
		<g>
			<rect x="60.3" y="108.7" class="st17" width="0.6" height="1"/>
		</g>
		<g>
			<rect x="58.9" y="108.7" class="st17" width="0.6" height="1"/>
		</g>
		<g>
			<rect x="56.1" y="111.4" class="st17" width="1" height="0.6"/>
		</g>
		<g>
			<rect x="56.1" y="112.8" class="st17" width="1" height="0.6"/>
			<rect x="55.6" y="112.8" class="st0" width="0.5" height="0.6"/>
		</g>
		<g>
			<rect x="56.1" y="114.2" class="st17" width="1" height="0.6"/>
			<rect x="55.6" y="114.2" class="st0" width="0.5" height="0.6"/>
		</g>
		<g>
			<rect x="56.1" y="115.6" class="st17" width="1" height="0.6"/>
		</g>
		<g>
			<rect x="56.1" y="117" class="st17" width="1" height="0.6"/>
			<rect x="55.6" y="117" class="st0" width="0.5" height="0.6"/>
		</g>
		<g>
			<rect x="56.1" y="118.4" class="st17" width="1" height="0.6"/>
		</g>
		<polyline class="st11" points="68.8,119.7 68.8,121.4 67.1,121.4 		"/>
		<polyline class="st11" points="67.1,109.2 68.8,109.2 68.8,110.8 		"/>
		<polyline class="st11" points="56.6,110.9 56.6,109.2 58.2,109.2 		"/>
		<line class="st11" x1="56.6" y1="121.4" x2="56.6" y2="119.7"/>
	</g>
	<g>
		<rect x="56.4" y="157.4" class="st4" width="5.6" height="4.5"/>
		<rect x="56.4" y="157.4" class="st18" width="5.6" height="4.5"/>
	</g>
	<g>
		<rect x="62" y="163.5" class="st4" width="5.7" height="5.8"/>
		<rect x="62" y="163.5" class="st18" width="5.7" height="5.8"/>
	</g>
	<g>
		<rect x="68.8" y="163.5" class="st4" width="5.7" height="5.8"/>
		<rect x="68.8" y="163.5" class="st18" width="5.7" height="5.8"/>
	</g>
	<g>
		<rect x="74.7" y="157.4" class="st4" width="5.6" height="4.5"/>
		<rect x="74.7" y="157.4" class="st18" width="5.6" height="4.5"/>
	</g>
	<g id="wifi_1_">
		<g id="wifi">
			<g>
				<rect x="83.9" y="104.2" class="st4" width="7.6" height="3.3"/>
				<rect x="83.9" y="104.2" class="st18" width="7.6" height="3.3"/>
			</g>
			<g>
				<rect x="83.9" y="109.8" class="st4" width="7.6" height="3.3"/>
				<polyline class="st19" points="83.9,111 83.9,109.8 91.4,109.8 91.4,113.1 83.9,113.1 83.9,111.8 				"/>
				<line class="st18" x1="83.9" y1="111.8" x2="83.9" y2="111"/>
			</g>
			<g>
				<rect x="83.9" y="115.4" class="st4" width="7.6" height="3.3"/>
				<polyline class="st19" points="83.9,116.6 83.9,115.4 91.4,115.4 91.4,118.7 83.9,118.7 83.9,117.4 				"/>
				<line class="st18" x1="83.9" y1="117.4" x2="83.9" y2="116.6"/>
			</g>
			<g>
				<rect x="83.9" y="121" class="st4" width="7.6" height="3.3"/>
				<polyline class="st19" points="91.4,123.1 91.4,124.3 83.9,124.3 83.9,121 91.4,121 91.4,122.3 				"/>
				<line class="st18" x1="91.4" y1="122.3" x2="91.4" y2="123.1"/>
			</g>
			<g>
				<rect x="126.5" y="104.2" class="st4" width="7.6" height="3.3"/>
				<polyline class="st19" points="134.1,106.3 134.1,107.5 126.5,107.5 126.5,104.2 134.1,104.2 134.1,105.6 				"/>
				<line class="st18" x1="134.1" y1="105.6" x2="134.1" y2="106.3"/>
			</g>
			<g>
				<rect x="83.9" y="137.8" class="st4" width="7.6" height="3.3"/>
				<polyline class="st19" points="91.4,139.8 91.4,141.1 83.9,141.1 83.9,137.8 91.4,137.8 91.4,139.1 				"/>
				<line class="st18" x1="91.4" y1="139.1" x2="91.4" y2="139.8"/>
			</g>
			<g>
				<rect x="83.9" y="143.4" class="st4" width="7.6" height="3.3"/>
				<line class="st19" x1="91.4" y1="143.9" x2="91.4" y2="144.7"/>
				<polyline class="st19" points="91.4,145.4 91.4,146.6 83.9,146.6 83.9,143.4 91,143.4 				"/>
				<line class="st19" x1="91.4" y1="144.7" x2="91.4" y2="145.4"/>
			</g>
			<g>
				<rect x="83.9" y="126.6" class="st4" width="7.6" height="3.3"/>
				<polyline class="st19" points="91.4,128.6 91.4,129.9 83.9,129.9 83.9,126.6 91.4,126.6 91.4,127.9 				"/>
				<line class="st19" x1="91.4" y1="127.9" x2="91.4" y2="128.6"/>
			</g>
			<g>
				<rect x="93.3" y="98.7" class="st4" width="3.3" height="5.4"/>
				<polyline class="st19" points="95.4,98.7 96.6,98.7 96.6,104.1 93.3,104.1 93.3,98.7 94.7,98.7 				"/>
				<line class="st19" x1="94.7" y1="98.7" x2="95.4" y2="98.7"/>
			</g>
			<g>
				<rect x="99" y="98.7" class="st4" width="3.3" height="5.4"/>
				<polyline class="st19" points="101,98.7 102.2,98.7 102.2,104.1 99,104.1 99,98.7 100.3,98.7 				"/>
				<line class="st19" x1="100.3" y1="98.7" x2="101" y2="98.7"/>
			</g>
			<g>
				<rect x="104.6" y="98.7" class="st4" width="3.3" height="5.4"/>
				<polyline class="st19" points="106.6,98.7 107.8,98.7 107.8,104.1 104.6,104.1 104.6,98.7 105.9,98.7 				"/>
				<line class="st19" x1="105.9" y1="98.7" x2="106.6" y2="98.7"/>
			</g>
			<g>
				<rect x="110.2" y="98.7" class="st4" width="3.3" height="5.4"/>
				<polyline class="st19" points="112.2,98.7 113.5,98.7 113.5,104.1 110.2,104.1 110.2,98.7 111.5,98.7 				"/>
				<line class="st19" x1="111.5" y1="98.7" x2="112.2" y2="98.7"/>
			</g>
			<g>
				<rect x="115.8" y="98.7" class="st4" width="3.3" height="5.4"/>
				<polyline class="st19" points="117.9,98.7 119.1,98.7 119.1,104.1 115.8,104.1 115.8,98.7 117.1,98.7 				"/>
				<line class="st19" x1="117.1" y1="98.7" x2="117.9" y2="98.7"/>
			</g>
			<g>
				<rect x="121.4" y="98.7" class="st4" width="3.3" height="5.4"/>
				<polyline class="st19" points="123.5,98.7 124.7,98.7 124.7,104.1 121.4,104.1 121.4,98.7 122.8,98.7 				"/>
				<line class="st19" x1="122.8" y1="98.7" x2="123.5" y2="98.7"/>
			</g>
			<g>
				<rect x="126.5" y="109.8" class="st4" width="7.6" height="3.3"/>
				<polyline class="st19" points="134.1,111.9 134.1,113.1 126.5,113.1 126.5,109.9 134.1,109.9 134.1,111.2 				"/>
				<line class="st19" x1="134.1" y1="111.2" x2="134.1" y2="111.9"/>
			</g>
			<g>
				<rect x="126.5" y="115.4" class="st4" width="7.6" height="3.3"/>
				<polyline class="st19" points="134.1,117.5 134.1,118.7 126.5,118.7 126.5,115.4 134.1,115.4 134.1,116.7 				"/>
				<line class="st19" x1="134.1" y1="116.7" x2="134.1" y2="117.5"/>
			</g>
			<g>
				<rect x="126.5" y="121" class="st4" width="7.6" height="3.3"/>
				<polyline class="st19" points="134.1,123 134.1,124.2 126.5,124.2 126.5,121 134.1,121 134.1,122.3 				"/>
				<line class="st19" x1="134.1" y1="122.3" x2="134.1" y2="123"/>
			</g>
			<g>
				<rect x="126.5" y="126.5" class="st4" width="7.6" height="3.3"/>
				<polyline class="st19" points="134.1,128.6 134.1,129.8 126.5,129.8 126.5,126.5 134.1,126.5 134.1,127.9 				"/>
				<line class="st19" x1="134.1" y1="127.9" x2="134.1" y2="128.6"/>
			</g>
			<g>
				<rect x="126.5" y="132.1" class="st4" width="7.6" height="3.3"/>
				<polyline class="st19" points="134.1,134.1 134.1,135.4 126.5,135.4 126.5,132.1 134.1,132.1 134.1,133.4 				"/>
				<line class="st18" x1="134.1" y1="133.4" x2="134.1" y2="134.1"/>
			</g>
			<g>
				<rect x="126.5" y="137.7" class="st4" width="7.6" height="3.3"/>
				<polyline class="st19" points="134.1,139.7 134.1,140.9 126.5,140.9 126.5,137.7 134.1,137.7 134.1,139 				"/>
				<line class="st19" x1="134.1" y1="139" x2="134.1" y2="139.7"/>
			</g>
			<g>
				<rect x="126.5" y="143.2" class="st4" width="7.6" height="3.3"/>
				<polyline class="st19" points="134.1,145.3 134.1,146.5 126.5,146.5 126.5,143.2 134.1,143.2 134.1,144.5 				"/>
				<line class="st18" x1="134.1" y1="144.5" x2="134.1" y2="145.3"/>
			</g>
			<g>
				<rect x="83.9" y="132.2" class="st4" width="7.6" height="3.3"/>
				<polyline class="st19" points="91.4,134.2 91.4,135.5 83.9,135.5 83.9,132.2 91.4,132.2 91.4,133.5 				"/>
				<line class="st19" x1="91.4" y1="133.5" x2="91.4" y2="134.2"/>
			</g>
			<polyline class="st18" points="91,143.4 91.4,143.4 91.4,143.9 			"/>
			<polyline class="st11" points="86.3,147.9 86.3,169.3 131.9,169.3 131.9,147.9 133.5,147.9 			"/>
			<polyline class="st11" points="125.9,101.3 131.9,101.3 131.9,103.3 			"/>
			<polyline class="st11" points="86.3,103.2 86.3,101.3 92.3,101.3 			"/>
		</g>
		<rect x="86.7" y="101.7" class="st13" width="44.7" height="67"/>
		<g>
			<g>
				<path class="st20" d="M86.5,104.3v0.8c0.4,0,0.7,0.3,0.7,0.7c0,0.4-0.3,0.7-0.7,0.7v0.8h3.9c0.2,0,0.4-0.2,0.4-0.4v-2.2
					c0-0.2-0.2-0.4-0.4-0.4L86.5,104.3L86.5,104.3z"/>
			</g>
			<circle class="st3" cx="89.5" cy="105.8" r="0.7"/>
			<path class="st3" d="M86.5,106.5c0.4,0,0.7-0.3,0.7-0.7s-0.3-0.7-0.7-0.7V106.5z"/>
		</g>
		<g>
			<g>
				<path class="st20" d="M86.5,109.9v0.8c0.4,0,0.7,0.3,0.7,0.7c0,0.4-0.3,0.7-0.7,0.7v0.8h3.9c0.2,0,0.4-0.2,0.4-0.4v-2.2
					c0-0.2-0.2-0.4-0.4-0.4L86.5,109.9L86.5,109.9z"/>
			</g>
			<circle class="st3" cx="89.5" cy="111.4" r="0.7"/>
			<path class="st3" d="M86.5,112.1c0.4,0,0.7-0.3,0.7-0.7s-0.3-0.7-0.7-0.7V112.1z"/>
		</g>
		<g>
			<g>
				<path class="st20" d="M86.5,115.5v0.8c0.4,0,0.7,0.3,0.7,0.7c0,0.4-0.3,0.7-0.7,0.7v0.8h3.9c0.2,0,0.4-0.2,0.4-0.4V116
					c0-0.2-0.2-0.4-0.4-0.4L86.5,115.5L86.5,115.5z"/>
			</g>
			<circle class="st3" cx="89.5" cy="117" r="0.7"/>
			<path class="st3" d="M86.5,117.7c0.4,0,0.7-0.3,0.7-0.7s-0.3-0.7-0.7-0.7V117.7z"/>
		</g>
		<g>
			<g>
				<path class="st20" d="M86.5,121.1v0.8c0.4,0,0.7,0.3,0.7,0.7c0,0.4-0.3,0.7-0.7,0.7v0.8h3.9c0.2,0,0.4-0.2,0.4-0.4v-2.2
					c0-0.2-0.2-0.4-0.4-0.4L86.5,121.1L86.5,121.1z"/>
			</g>
			<circle class="st3" cx="89.5" cy="122.6" r="0.7"/>
			<path class="st3" d="M86.5,123.3c0.4,0,0.7-0.3,0.7-0.7s-0.3-0.7-0.7-0.7V123.3z"/>
		</g>
		<g>
			<g>
				<path class="st20" d="M86.5,126.7v0.8c0.4,0,0.7,0.3,0.7,0.7c0,0.4-0.3,0.7-0.7,0.7v0.8h3.9c0.2,0,0.4-0.2,0.4-0.4v-2.2
					c0-0.2-0.2-0.4-0.4-0.4L86.5,126.7L86.5,126.7z"/>
			</g>
			<circle class="st3" cx="89.5" cy="128.2" r="0.7"/>
			<path class="st3" d="M86.5,128.9c0.4,0,0.7-0.3,0.7-0.7c0-0.4-0.3-0.7-0.7-0.7V128.9z"/>
		</g>
		<g>
			<g>
				<path class="st20" d="M86.5,132.3v0.8c0.4,0,0.7,0.3,0.7,0.7c0,0.4-0.3,0.7-0.7,0.7v0.8h3.9c0.2,0,0.4-0.2,0.4-0.4v-2.2
					c0-0.2-0.2-0.4-0.4-0.4L86.5,132.3L86.5,132.3z"/>
			</g>
			<circle class="st3" cx="89.5" cy="133.8" r="0.7"/>
			<path class="st3" d="M86.5,134.5c0.4,0,0.7-0.3,0.7-0.7c0-0.4-0.3-0.7-0.7-0.7V134.5z"/>
		</g>
		<g>
			<g>
				<path class="st20" d="M86.5,137.9v0.8c0.4,0,0.7,0.3,0.7,0.7c0,0.4-0.3,0.7-0.7,0.7v0.8h3.9c0.2,0,0.4-0.2,0.4-0.4v-2.2
					c0-0.2-0.2-0.4-0.4-0.4L86.5,137.9L86.5,137.9z"/>
			</g>
			<circle class="st3" cx="89.5" cy="139.4" r="0.7"/>
			<path class="st3" d="M86.5,140.1c0.4,0,0.7-0.3,0.7-0.7c0-0.4-0.3-0.7-0.7-0.7V140.1z"/>
		</g>
		<g>
			<g>
				<path class="st20" d="M86.5,143.5v0.8c0.4,0,0.7,0.3,0.7,0.7c0,0.4-0.3,0.7-0.7,0.7v0.8h3.9c0.2,0,0.4-0.2,0.4-0.4v-2.2
					c0-0.2-0.2-0.4-0.4-0.4L86.5,143.5L86.5,143.5z"/>
			</g>
			<circle class="st3" cx="89.5" cy="145" r="0.7"/>
			<path class="st3" d="M86.5,145.7c0.4,0,0.7-0.3,0.7-0.7c0-0.4-0.3-0.7-0.7-0.7V145.7z"/>
		</g>
		<g>
			<g>
				<path class="st20" d="M131.5,146.5v-0.8c-0.4,0-0.7-0.3-0.7-0.7c0-0.4,0.3-0.7,0.7-0.7v-0.8h-3.9c-0.2,0-0.4,0.2-0.4,0.4v2.2
					c0,0.2,0.2,0.4,0.4,0.4L131.5,146.5L131.5,146.5z"/>
			</g>
			<circle class="st3" cx="128.4" cy="145" r="0.7"/>
			<path class="st3" d="M131.5,144.3c-0.4,0-0.7,0.3-0.7,0.7c0,0.4,0.3,0.7,0.7,0.7V144.3z"/>
		</g>
		<g>
			<g>
				<path class="st20" d="M131.5,140.9v-0.8c-0.4,0-0.7-0.3-0.7-0.7c0-0.4,0.3-0.7,0.7-0.7v-0.8h-3.9c-0.2,0-0.4,0.2-0.4,0.4v2.2
					c0,0.2,0.2,0.4,0.4,0.4L131.5,140.9L131.5,140.9z"/>
			</g>
			<circle class="st3" cx="128.4" cy="139.4" r="0.7"/>
			<path class="st3" d="M131.5,138.7c-0.4,0-0.7,0.3-0.7,0.7c0,0.4,0.3,0.7,0.7,0.7V138.7z"/>
		</g>
		<g>
			<g>
				<path class="st20" d="M131.5,135.3v-0.8c-0.4,0-0.7-0.3-0.7-0.7c0-0.4,0.3-0.7,0.7-0.7v-0.8h-3.9c-0.2,0-0.4,0.2-0.4,0.4v2.2
					c0,0.2,0.2,0.4,0.4,0.4L131.5,135.3L131.5,135.3z"/>
			</g>
			<circle class="st3" cx="128.4" cy="133.8" r="0.7"/>
			<path class="st3" d="M131.5,133.1c-0.4,0-0.7,0.3-0.7,0.7c0,0.4,0.3,0.7,0.7,0.7V133.1z"/>
		</g>
		<g>
			<g>
				<path class="st20" d="M131.5,129.7v-0.8c-0.4,0-0.7-0.3-0.7-0.7c0-0.4,0.3-0.7,0.7-0.7v-0.8h-3.9c-0.2,0-0.4,0.2-0.4,0.4v2.2
					c0,0.2,0.2,0.4,0.4,0.4L131.5,129.7L131.5,129.7z"/>
			</g>
			<circle class="st3" cx="128.4" cy="128.2" r="0.7"/>
			<path class="st3" d="M131.5,127.5c-0.4,0-0.7,0.3-0.7,0.7c0,0.4,0.3,0.7,0.7,0.7V127.5z"/>
		</g>
		<g>
			<g>
				<path class="st20" d="M131.5,124.1v-0.8c-0.4,0-0.7-0.3-0.7-0.7c0-0.4,0.3-0.7,0.7-0.7v-0.8h-3.9c-0.2,0-0.4,0.2-0.4,0.4v2.2
					c0,0.2,0.2,0.4,0.4,0.4L131.5,124.1L131.5,124.1z"/>
			</g>
			<circle class="st3" cx="128.4" cy="122.6" r="0.7"/>
			<path class="st3" d="M131.5,121.9c-0.4,0-0.7,0.3-0.7,0.7s0.3,0.7,0.7,0.7V121.9z"/>
		</g>
		<g>
			<g>
				<path class="st20" d="M131.5,118.5v-0.8c-0.4,0-0.7-0.3-0.7-0.7c0-0.4,0.3-0.7,0.7-0.7v-0.8h-3.9c-0.2,0-0.4,0.2-0.4,0.4v2.2
					c0,0.2,0.2,0.4,0.4,0.4L131.5,118.5L131.5,118.5z"/>
			</g>
			<circle class="st3" cx="128.4" cy="117" r="0.7"/>
			<path class="st3" d="M131.5,116.3c-0.4,0-0.7,0.3-0.7,0.7s0.3,0.7,0.7,0.7V116.3z"/>
		</g>
		<g>
			<g>
				<path class="st20" d="M131.5,112.9v-0.8c-0.4,0-0.7-0.3-0.7-0.7c0-0.4,0.3-0.7,0.7-0.7v-0.8h-3.9c-0.2,0-0.4,0.2-0.4,0.4v2.2
					c0,0.2,0.2,0.4,0.4,0.4L131.5,112.9L131.5,112.9z"/>
			</g>
			<circle class="st3" cx="128.4" cy="111.4" r="0.7"/>
			<path class="st3" d="M131.5,110.7c-0.4,0-0.7,0.3-0.7,0.7s0.3,0.7,0.7,0.7V110.7z"/>
		</g>
		<g>
			<g>
				<path class="st20" d="M131.5,107.3v-0.8c-0.4,0-0.7-0.3-0.7-0.7c0-0.4,0.3-0.7,0.7-0.7v-0.8h-3.9c-0.2,0-0.4,0.2-0.4,0.4v2.2
					c0,0.2,0.2,0.4,0.4,0.4L131.5,107.3L131.5,107.3z"/>
			</g>
			<circle class="st3" cx="128.4" cy="105.8" r="0.7"/>
			<path class="st3" d="M131.5,105.1c-0.4,0-0.7,0.3-0.7,0.7s0.3,0.7,0.7,0.7V105.1z"/>
		</g>
		<g>
			<path class="st20" d="M95.7,101.6c0,0.4-0.3,0.7-0.7,0.7c-0.4,0-0.7-0.3-0.7-0.7h-0.8v1.2h3v-1.2H95.7z"/>
			<path class="st3" d="M95,102.4c0.4,0,0.7-0.3,0.7-0.7h-1.4C94.3,102,94.6,102.4,95,102.4z"/>
		</g>
		<g>
			<path class="st20" d="M101.3,101.6c0,0.4-0.3,0.7-0.7,0.7c-0.4,0-0.7-0.3-0.7-0.7h-0.8v1.2h3v-1.2H101.3z"/>
			<path class="st3" d="M100.6,102.4c0.4,0,0.7-0.3,0.7-0.7h-1.4C99.9,102,100.2,102.4,100.6,102.4z"/>
		</g>
		<g>
			<path class="st20" d="M107,101.6c0,0.4-0.3,0.7-0.7,0.7c-0.4,0-0.7-0.3-0.7-0.7h-0.8v1.2h3v-1.2H107z"/>
			<path class="st3" d="M106.2,102.4c0.4,0,0.7-0.3,0.7-0.7h-1.4C105.5,102,105.8,102.4,106.2,102.4z"/>
		</g>
		<g>
			<path class="st20" d="M112.6,101.6c0,0.4-0.3,0.7-0.7,0.7s-0.7-0.3-0.7-0.7h-0.8v1.2h3v-1.2H112.6z"/>
			<path class="st3" d="M111.8,102.4c0.4,0,0.7-0.3,0.7-0.7h-1.4C111.1,102,111.5,102.4,111.8,102.4z"/>
		</g>
		<g>
			<path class="st20" d="M118.2,101.6c0,0.4-0.3,0.7-0.7,0.7s-0.7-0.3-0.7-0.7h-0.8v1.2h3v-1.2H118.2z"/>
			<path class="st3" d="M117.5,102.4c0.4,0,0.7-0.3,0.7-0.7h-1.4C116.7,102,117.1,102.4,117.5,102.4z"/>
		</g>
		<g>
			<path class="st20" d="M123.8,101.6c0,0.4-0.3,0.7-0.7,0.7c-0.4,0-0.7-0.3-0.7-0.7h-0.8v1.2h3v-1.2H123.8z"/>
			<path class="st3" d="M123.1,102.4c0.4,0,0.7-0.3,0.7-0.7h-1.4C122.3,102,122.7,102.4,123.1,102.4z"/>
		</g>
		<path class="st4" d="M124.9,147.5H93.1c-0.7,0-1.3-0.6-1.3-1.3v-40.9c0-0.7,0.6-1.3,1.3-1.3h31.8c0.7,0,1.3,0.6,1.3,1.3v40.9
			C126.2,147,125.6,147.5,124.9,147.5z"/>
		<g>
			<polyline class="st21" points="89,152.7 89,166.2 95.7,166.2 95.7,158.2 102.3,158.2 102.3,166.2 109.1,166.2 109.1,158.3 
				115.5,158.3 115.5,166.2 122.2,166.2 122.2,152.7 			"/>
			<polyline class="st21" points="129,152.7 129,166.2 122.2,166.2 			"/>
		</g>
	</g>
	<g id="TX">
		<g>
			<rect x="73" y="89.7" class="st4" width="2.3" height="3.4"/>
			<rect x="73" y="89.7" class="st19" width="2.3" height="3.4"/>
		</g>
		<g>
			<rect x="78" y="89.7" class="st4" width="2.3" height="3.4"/>
			<rect x="78" y="89.7" class="st19" width="2.3" height="3.4"/>
		</g>
		<g>
			<rect x="75.2" y="90.3" class="st2" width="2.8" height="2.1"/>
			<rect x="74.2" y="90.3" class="st22" width="1" height="2.1"/>
			<rect x="78" y="90.3" class="st22" width="1" height="2.1"/>
		</g>
		<polyline class="st11" points="79,93.6 72.4,93.6 72.4,89 79,89 		"/>
		<text transform="matrix(1 0 0 1 73.9892 87.9534)" class="st2 st5 st23">TX</text>
		<rect x="72.5" y="91.1" class="st20" width="0.3" height="0.7"/>
	</g>
	<g id="TX_1_">
		<g>
			<rect x="115.3" y="92.5" class="st4" width="2.3" height="3.4"/>
			<rect x="115.3" y="92.5" class="st19" width="2.3" height="3.4"/>
		</g>
		<g>
			<rect x="120.3" y="92.5" class="st4" width="2.3" height="3.4"/>
			<rect x="120.3" y="92.5" class="st19" width="2.3" height="3.4"/>
		</g>
		<g>
			<rect x="117.5" y="93.2" class="st2" width="2.8" height="2.1"/>
			<rect x="116.5" y="93.2" class="st22" width="1" height="2.1"/>
			<rect x="120.3" y="93.2" class="st22" width="1" height="2.1"/>
		</g>
		<polyline class="st11" points="121.3,96.4 114.7,96.4 114.7,91.8 121.3,91.8 		"/>
		<text transform="matrix(1 0 0 1 114.3173 90.7649)" class="st2 st5 st23">WIFI</text>
		<rect x="114.8" y="93.9" class="st20" width="0.3" height="0.7"/>
	</g>
	<g id="RX">
		<g>
			<rect x="73" y="100" class="st4" width="2.3" height="3.4"/>
			<rect x="73" y="100" class="st19" width="2.3" height="3.4"/>
		</g>
		<g>
			<rect x="78" y="100" class="st4" width="2.3" height="3.4"/>
			<rect x="78" y="100" class="st19" width="2.3" height="3.4"/>
		</g>
		<g>
			<rect x="75.2" y="100.7" class="st2" width="2.8" height="2.1"/>
			<rect x="74.2" y="100.7" class="st22" width="1" height="2.1"/>
			<rect x="78" y="100.7" class="st22" width="1" height="2.1"/>
		</g>
		<polyline class="st11" points="79,103.9 72.4,103.9 72.4,99.3 79,99.3 		"/>
		<text transform="matrix(1 0 0 1 73.7939 98.1819)" class="st2 st5 st23">RX</text>
		<polygon class="st24" points="76.3,101.7 77.8,102.6 77.8,100.8 		"/>
		<rect x="72.5" y="101.4" class="st20" width="0.3" height="0.7"/>
	</g>
	<g id="PWR">
		<polyline class="st11" points="70.3,142.7 76.9,142.7 76.9,147.3 70.3,147.3 		"/>
		<g>
			<circle class="st25" cx="76.9" cy="145.1" r="0.6"/>
			<circle class="st12" cx="76.9" cy="145.1" r="0.6"/>
		</g>
		<g>
			<rect x="69.1" y="143.4" class="st4" width="2.3" height="3.4"/>
			<rect x="69.1" y="143.4" class="st19" width="2.3" height="3.4"/>
		</g>
		<g>
			<rect x="74" y="143.4" class="st4" width="2.3" height="3.4"/>
			<rect x="74" y="143.4" class="st19" width="2.3" height="3.4"/>
		</g>
		<g>
			<rect x="71.2" y="144.1" class="st2" width="2.8" height="2.1"/>
			<rect x="70.3" y="144.1" class="st22" width="1" height="2.1"/>
			<rect x="74.1" y="144.1" class="st22" width="1" height="2.1"/>
		</g>
		<text transform="matrix(1 0 0 1 67.7675 141.5774)" class="st2 st5 st23">PWR</text>
	</g>
	<g id="micro_usb">
		<g>
			<path class="st2" d="M74,158c-0.6,0-1.1,0.5-1.1,1.1c0,0.6,0.5,1.1,1.1,1.1h1.6v0.8H61.5v-0.8H63c0.6,0,1.1-0.5,1.1-1.1
				c0-0.6-0.5-1.1-1.1-1.1h-3.6c-0.8,0-1.4,0.6-1.4,1.4v1.5v9.7h20.9V161v-1.5c0-0.8-0.6-1.4-1.4-1.4H74z"/>
			<rect x="59.4" y="171.6" class="st3" width="18.2" height="1.2"/>
			<rect x="65.1" y="157.4" class="st2" width="6.8" height="3.6"/>
			<polygon class="st3" points="60.4,156.2 60.4,156.8 65.1,156.8 65.1,157.4 71.9,157.4 71.9,156.8 76.6,156.8 76.6,156.2 			"/>
			<polygon class="st4" points="79,170.6 79,170.6 58,170.6 57.2,171.4 57.8,172 58.3,171.6 78.6,171.6 79.2,172 79.7,171.4 			"/>
			<path class="st3" d="M63,167.7h-0.5v-3.1c0-0.3-0.2-0.5-0.5-0.5h-1c-0.3,0-0.5,0.2-0.5,0.5v3.1H60c-0.2,0-0.4,0.2-0.4,0.4
				c0,0.2,0.2,0.4,0.4,0.4h3c0.2,0,0.4-0.2,0.4-0.4C63.4,167.9,63.2,167.7,63,167.7z"/>
			<rect x="60.8" y="166" class="st26" width="1.4" height="0.7"/>
			<rect x="67.8" y="160.4" class="st26" width="1.4" height="0.7"/>
			<polyline class="st27" points="60.7,168.5 60.7,169.5 62.3,169.5 62.3,168.5 			"/>
			<path class="st3" d="M76.8,167.7h-0.5v-3.1c0-0.3-0.2-0.5-0.5-0.5h-1c-0.3,0-0.5,0.2-0.5,0.5v3.1h-0.5c-0.2,0-0.4,0.2-0.4,0.4
				c0,0.2,0.2,0.4,0.4,0.4h3c0.2,0,0.4-0.2,0.4-0.4C77.2,167.9,77,167.7,76.8,167.7z"/>
			<rect x="74.6" y="166" class="st26" width="1.4" height="0.7"/>
			<polyline class="st27" points="74.5,168.5 74.5,169.5 76.2,169.5 76.2,168.5 			"/>
		</g>
		<g>
			<rect x="64.9" y="154.5" class="st17" width="0.9" height="1.7"/>
			<rect x="64.9" y="153.7" class="st0" width="0.9" height="0.8"/>
		</g>
		<g>
			<rect x="66.7" y="154.5" class="st17" width="0.9" height="1.7"/>
			<rect x="66.7" y="153.7" class="st0" width="0.9" height="0.8"/>
		</g>
		<g>
			<rect x="68.5" y="154.5" class="st17" width="0.9" height="1.7"/>
			<rect x="68.5" y="153.7" class="st0" width="0.9" height="0.8"/>
		</g>
		<g>
			<rect x="70.4" y="154.5" class="st17" width="0.9" height="1.7"/>
		</g>
		<g>
			<rect x="72.2" y="154.5" class="st17" width="0.9" height="1.7"/>
			<rect x="72.2" y="153.7" class="st0" width="0.9" height="0.8"/>
		</g>
		<rect x="60.4" y="156.8" class="st4" width="4.7" height="0.6"/>
		<rect x="71.9" y="156.8" class="st4" width="4.7" height="0.6"/>
	</g>
</g>
</svg>
