<?xml version="1.0" encoding="utf-8"?>
<!-- Generator: Adobe Illustrator 23.0.3, SVG Export Plug-In . SVG Version: 6.00 Build 0)  -->
<svg version="1.1" id="Layer_1" xmlns="http://www.w3.org/2000/svg" xmlns:xlink="http://www.w3.org/1999/xlink" x="0px" y="0px"
	 viewBox="0 0 138.9 92.4" style="enable-background:new 0 0 138.9 92.4;" xml:space="preserve">
<style type="text/css">
	.st0{fill:#2A3C97;}
	.st1{fill:#EDEDF2;}
	.st2{fill:#2A3171;}
	.st3{fill:#21295B;}
	.st4{fill:none;stroke:#ECD962;stroke-width:0.5;stroke-miterlimit:10;}
	.st5{fill:#ECD962;}
	.st6{fill:#3D3D3D;}
	.st7{fill:none;stroke:#6E332F;stroke-width:4;stroke-miterlimit:10;}
	.st8{fill:none;stroke:#FE443F;stroke-width:4;stroke-miterlimit:10;}
	.st9{fill:none;stroke:#FFA022;stroke-width:4;stroke-miterlimit:10;}
</style>
<g>
	<g>
		<g>
			<path class="st0" d="M128.8,92.4H58.4c-0.5,0-0.9-0.4-0.9-0.9V42.8h72.1v48.7C129.6,92.1,129.2,92.4,128.8,92.4z"/>
			<path class="st0" d="M129.6,35.8H57.5V20.2c0-0.5,0.4-0.9,0.9-0.9h70.4c0.5,0,0.9,0.4,0.9,0.9v15.6H129.6z"/>
			<rect x="74.4" y="0" class="st1" width="8.5" height="6"/>
			<rect x="63.6" y="6.1" class="st2" width="30.2" height="13.3"/>
			<rect x="93.7" y="6" class="st3" width="8.5" height="13.3"/>
			<rect x="48.2" y="35.8" class="st2" width="90.7" height="7.1"/>
		</g>
		<rect x="63.7" y="46.9" width="59.8" height="41.5"/>
		<rect x="66.1" y="49.6" class="st4" width="55.1" height="36.2"/>
		<line class="st4" x1="66" y1="60.2" x2="121.1" y2="60.2"/>
		<line class="st4" x1="66" y1="76.3" x2="121.1" y2="76.3"/>
		<path class="st5" d="M118.2,74.7H69c-0.3,0-0.6-0.3-0.6-0.6V62.5c0-0.3,0.3-0.6,0.6-0.6h49.2c0.3,0,0.6,0.3,0.6,0.6v11.6
			C118.8,74.4,118.5,74.7,118.2,74.7z"/>
	</g>
	<polygon class="st6" points="0,65.6 0,72.8 0,79.9 0,80 0,87.1 32.4,87.1 32.4,80 32.4,79.9 32.4,72.8 32.4,65.6 	"/>
	<polyline class="st7" points="32.4,69.2 45,69.2 48.2,72.2 57.5,72.2 	"/>
	<line class="st8" x1="32.4" y1="76.4" x2="57.5" y2="76.4"/>
	<polyline class="st9" points="32.4,83.5 45,83.5 48.2,80.5 57.5,80.5 	"/>
</g>
</svg>
