<?xml version="1.0" encoding="utf-8"?>
<!-- Generator: Adobe Illustrator 19.0.0, SVG Export Plug-In . SVG Version: 6.00 Build 0)  -->
<svg version="1.1" id="Layer_1" xmlns="http://www.w3.org/2000/svg" xmlns:xlink="http://www.w3.org/1999/xlink" x="0px" y="0px"
	 viewBox="-3 -1.8 76.5 76.5" style="enable-background:new -3 -1.8 76.5 76.5;" xml:space="preserve">
<style type="text/css">
	.st0{fill:#274A88;}
	.st1{fill:#242221;}
	.st2{fill:#414042;}
	.st3{fill:#FCCF54;}
	.st4{fill:#F9DA51;}
	.st5{fill:#D0CBC1;}
	.st6{fill:none;stroke:#F1F2F2;stroke-width:0.2366;stroke-miterlimit:10;}
	.st7{fill:#FFFFFF;}
	.st8{font-family:'Consolas';}
	.st9{font-size:2.8px;}
</style>
<path id="XMLID_36_" class="st0" d="M73.5,74.7V-1.8H-3v76.5H73.5z M67.3,0c2.3,0,4.2,1.9,4.2,4.2s-1.9,4.2-4.2,4.2
	c-2.3,0-4.2-1.9-4.2-4.2S65,0,67.3,0z M67.3,64.7c2.3,0,4.2,1.9,4.2,4.2c0,2.3-1.9,4.2-4.2,4.2c-2.3,0-4.2-1.9-4.2-4.2
	C63.1,66.6,65,64.7,67.3,64.7z M45.5,69.6c0.4,0,0.8,0.4,0.8,0.8s-0.4,0.8-0.8,0.8c-0.4,0-0.8-0.4-0.8-0.8S45.1,69.6,45.5,69.6z
	 M38.2,69.6c0.4,0,0.8,0.4,0.8,0.8s-0.4,0.8-0.8,0.8c-0.4,0-0.8-0.4-0.8-0.8S37.7,69.6,38.2,69.6z M31,69.6c0.4,0,0.8,0.4,0.8,0.8
	s-0.4,0.8-0.8,0.8s-0.8-0.4-0.8-0.8S30.5,69.6,31,69.6z M23.8,69.6c0.4,0,0.8,0.4,0.8,0.8s-0.4,0.8-0.8,0.8S23,70.8,23,70.4
	S23.3,69.6,23.8,69.6z M3.1,0c2.3,0,4.2,1.9,4.2,4.2S5.4,8.4,3.1,8.4s-4.2-1.9-4.2-4.2S0.8,0,3.1,0z M3.1,64.7
	c2.3,0,4.2,1.9,4.2,4.2c0,2.3-1.9,4.2-4.2,4.2s-4.2-1.9-4.2-4.2C-1.1,66.6,0.8,64.7,3.1,64.7z"/>
<g id="XMLID_112_">
	<g id="XMLID_113_">
		<rect id="XMLID_114_" x="-1" y="21.1" class="st1" width="72.7" height="42.5"/>
	</g>
</g>
<g id="XMLID_109_">
	<g id="XMLID_110_">
		<rect id="XMLID_111_" x="1.8" y="26.6" class="st2" width="66.9" height="31.6"/>
	</g>
</g>
<g id="XMLID_103_">
	<path id="XMLID_104_" class="st3" d="M67.3,64c2.7,0,4.8,2.2,4.8,4.8c0,2.6-2.2,4.8-4.8,4.8c-2.6,0-4.8-2.2-4.8-4.8
		C62.5,66.2,64.6,64,67.3,64z M67.3,72.5c2,0,3.6-1.6,3.6-3.6s-1.6-3.6-3.6-3.6s-3.6,1.6-3.6,3.6S65.3,72.5,67.3,72.5z"/>
</g>
<g id="XMLID_96_">
	<path id="XMLID_97_" class="st3" d="M3.1,64c2.7,0,4.8,2.2,4.8,4.8c0,2.6-2.2,4.8-4.8,4.8s-4.8-2.2-4.8-4.8
		C-1.7,66.2,0.4,64,3.1,64z M3.1,72.5c2,0,3.6-1.6,3.6-3.6s-1.6-3.6-3.6-3.6s-3.6,1.6-3.6,3.6S1.1,72.5,3.1,72.5z"/>
</g>
<g id="XMLID_89_">
	<path id="XMLID_90_" class="st3" d="M67.3-0.6c2.7,0,4.8,2.2,4.8,4.8S69.9,9,67.3,9s-4.8-2.3-4.8-4.9C62.5,1.6,64.6-0.6,67.3-0.6z
		 M67.3,7.7c2,0,3.6-1.6,3.6-3.6s-1.6-3.6-3.6-3.6s-3.6,1.6-3.6,3.6S65.3,7.7,67.3,7.7z"/>
</g>
<g id="XMLID_82_">
	<path id="XMLID_83_" class="st3" d="M3.1-0.6c2.7,0,4.8,2.2,4.8,4.8S5.7,9,3.1,9s-4.8-2.2-4.8-4.8S0.4-0.6,3.1-0.6z M3.1,7.7
		c2,0,3.6-1.6,3.6-3.6S5.1,0.5,3.1,0.5s-3.6,1.6-3.6,3.6S1.1,7.7,3.1,7.7z"/>
</g>
<g id="XMLID_71_">
	<g id="XMLID_78_">
		<g id="XMLID_79_">
			<rect id="XMLID_80_" x="20.4" y="-1.7" class="st1" width="28.8" height="10.7"/>
		</g>
	</g>
	<g id="XMLID_75_">
		<g id="XMLID_76_">
			<polygon id="XMLID_77_" class="st4" points="49.2,-1.7 49.2,9 52.3,9 52.3,7.3 50.9,5.7 50.9,4.9 52.7,3.9 52.7,-1.7 			"/>
		</g>
	</g>
	<g id="XMLID_72_">
		<g id="XMLID_73_">
			<polygon id="XMLID_74_" class="st4" points="17.9,9 17.9,6.8 19.6,5.6 19.6,5.1 18,3.6 18,-1.7 20.4,-1.7 20.4,9 			"/>
		</g>
	</g>
</g>
<g id="XMLID_61_">
	<g id="XMLID_68_">
		<g id="XMLID_69_">
			<rect id="XMLID_70_" x="-2" y="9.1" class="st1" width="74.6" height="12"/>
		</g>
	</g>
	<g id="XMLID_65_">
		<g id="XMLID_66_">
			<polygon id="XMLID_67_" class="st3" points="63.8,21.1 63.8,20.5 61.1,19.8 61.1,12.8 49.9,12.8 49.9,12.2 52.3,12.2 53.5,11.2 
				53.5,9 48.7,9 48.7,9.9 52.3,9.9 52.3,11.2 48.7,11.2 48.7,13 49.7,13.9 54.8,13.9 55.7,16.1 56.8,16.1 56.8,21.1 			"/>
		</g>
	</g>
	<g id="XMLID_62_">
		<g id="XMLID_63_">
			<polygon id="XMLID_64_" class="st3" points="13.5,21.1 13.5,19.7 12.8,19 12.8,11.7 9.8,11.7 9.8,19.7 7.2,19.7 5.7,21.1 			"/>
		</g>
	</g>
</g>
<path id="XMLID_133_" class="st5" d="M45.5,72.6c1.2,0,2.2-1,2.2-2.2s-1-2.2-2.2-2.2s-2.2,1-2.2,2.2S44.3,72.6,45.5,72.6z
	 M45.5,69.6c0.4,0,0.8,0.4,0.8,0.8s-0.4,0.8-0.8,0.8c-0.4,0-0.8-0.4-0.8-0.8S45.1,69.6,45.5,69.6z"/>
<path id="XMLID_56_" class="st5" d="M38.2,72.6c1.2,0,2.2-1,2.2-2.2s-1-2.2-2.2-2.2s-2.2,1-2.2,2.2S37,72.6,38.2,72.6z M38.2,69.6
	c0.4,0,0.8,0.4,0.8,0.8s-0.4,0.8-0.8,0.8s-0.8-0.4-0.8-0.8S37.7,69.6,38.2,69.6z"/>
<path id="XMLID_48_" class="st5" d="M31,72.6c1.2,0,2.2-1,2.2-2.2s-1-2.2-2.2-2.2s-2.2,1-2.2,2.2S29.8,72.6,31,72.6z M31,69.6
	c0.4,0,0.8,0.4,0.8,0.8s-0.4,0.8-0.8,0.8s-0.8-0.4-0.8-0.8S30.5,69.6,31,69.6z"/>
<path id="XMLID_40_" class="st5" d="M23.8,72.6c1.2,0,2.2-1,2.2-2.2s-1-2.2-2.2-2.2s-2.2,1-2.2,2.2C21.6,71.6,22.6,72.6,23.8,72.6z
	 M23.8,69.6c0.4,0,0.8,0.4,0.8,0.8s-0.4,0.8-0.8,0.8S23,70.8,23,70.4S23.3,69.6,23.8,69.6z"/>
<rect id="XMLID_27_" x="19.9" y="67" class="st6" width="29.1" height="6.9"/>
<text id="XMLID_641_" transform="matrix(-1 0 0 -1 47.3369 64.359)" class="st7 st8 st9">VCC</text>
<text id="XMLID_118_" transform="matrix(-1 0 0 -1 40.0068 64.359)" class="st7 st8 st9">GND</text>
<text id="XMLID_119_" transform="matrix(-1 0 0 -1 32.8066 64.359)" class="st7 st8 st9">SCL</text>
<text id="XMLID_120_" transform="matrix(-1 0 0 -1 25.6064 64.359)" class="st7 st8 st9">SDA</text>
</svg>
