<svg xmlns="http://www.w3.org/2000/svg" viewBox="0 0 76.13 225.66"><defs><style>.cls-1{fill:#d5d6ce;}.cls-2{fill:#302f2f;stroke:#1e1e1e;stroke-width:3px;}.cls-2,.cls-9{stroke-miterlimit:10;}.cls-3{fill:#c1954c;}.cls-4{fill:#fdc26b;}.cls-5{fill:#ffd49c;}.cls-6,.cls-9{fill:none;}.cls-7{fill:#f7f8f8;}.cls-8{fill:#fff;}.cls-9{stroke:#fec36c;}.cls-10{fill:#b27e37;}</style></defs><title>ZX-AM2302</title><g id="Layer_2" data-name="Layer 2"><g id="Layer_2-2" data-name="Layer 2"><rect x="4.03" y="30.23" width="68" height="158.74"/><path class="cls-1" d="M58.7,0H17.43L0,17.43H0V124.74H76.13V17.43h0ZM38,19.6a7.37,7.37,0,1,1,7.37-7.37A7.37,7.37,0,0,1,38,19.6Z"/><path class="cls-2" d="M21.09,172.42H31.14l2.17,2.17v10l-2.17,2.18h-10l-2.18-2.18v-10Z"/><rect class="cls-3" x="3.44" y="198.86" width="45.34" height="3.43" transform="translate(-174.46 226.68) rotate(-90)"/><rect class="cls-4" x="3.44" y="199.16" width="45.34" height="2.82" transform="translate(-174.46 226.68) rotate(-90)"/><polygon class="cls-4" points="27.14 225.66 27.83 223.24 24.39 223.24 25.08 225.66 27.14 225.66"/><polygon class="cls-5" points="27.14 225.66 27.52 223.24 24.7 223.24 25.08 225.66 27.14 225.66"/><path class="cls-2" d="M35.49,172.42h10l2.17,2.17v10l-2.17,2.18h-10l-2.18-2.18v-10Z"/><rect class="cls-3" x="17.84" y="198.86" width="45.34" height="3.43" transform="translate(-160.06 241.08) rotate(-90)"/><rect class="cls-4" x="17.84" y="199.16" width="45.34" height="2.82" transform="translate(-160.06 241.08) rotate(-90)"/><polygon class="cls-4" points="41.54 225.66 42.23 223.24 38.79 223.24 39.48 225.66 41.54 225.66"/><polygon class="cls-5" points="41.54 225.66 41.92 223.24 39.1 223.24 39.48 225.66 41.54 225.66"/><path class="cls-2" d="M49.89,172.42h10l2.17,2.17v10l-2.17,2.18h-10l-2.18-2.18v-10Z"/><rect class="cls-3" x="32.24" y="198.86" width="45.34" height="3.43" transform="translate(-145.66 255.48) rotate(-90)"/><rect class="cls-4" x="32.24" y="199.16" width="45.34" height="2.82" transform="translate(-145.66 255.48) rotate(-90)"/><polygon class="cls-4" points="55.94 225.66 56.63 223.24 53.19 223.24 53.88 225.66 55.94 225.66"/><polygon class="cls-5" points="55.94 225.66 56.32 223.24 53.5 223.24 53.88 225.66 55.94 225.66"/><circle class="cls-6" cx="38.03" cy="12.23" r="7.37" transform="translate(2.49 30.47) rotate(-45)"/><path class="cls-7" d="M58.7,0H17.43L0,17.43H0v20.4H15.82V44.1H0V51H15.82v6.27H0v6.88H15.82v6.26H0v6.88H15.82v6.27H0v6.88H15.82v6.27H0v28.05H76.13v-28H60.31V90.42H76.13V83.54H60.31V77.27H76.13V70.39H60.31V64.13H76.13V57.25H60.31V51H76.13V44.1H60.31V37.83H76.13V17.43h0ZM29,96.69H22.7V90.42H29Zm0-13.15H22.7V77.27H29Zm0-13.15H22.7V64.13H29Zm0-13.14H22.7V51H29ZM29,44.1H22.7V37.83H29Zm0-16.2H22.7V21.63H29ZM42.11,96.69H35.85V90.42h6.26Zm0-13.15H35.85V77.27h6.26Zm0-13.15H35.85V64.13h6.26Zm0-13.14H35.85V51h6.26Zm0-13.15H35.85V37.83h6.26Zm0-16.2H35.85V21.63h6.26ZM38,19.6a7.37,7.37,0,1,1,7.37-7.37A7.37,7.37,0,0,1,38,19.6ZM55.26,96.69H49V90.42h6.27Zm0-13.15H49V77.27h6.27Zm0-13.15H49V64.13h6.27Zm0-13.14H49V51h6.27Zm0-13.15H49V37.83h6.27Zm0-16.2H49V21.63h6.27Z"/><circle class="cls-8" cx="18.61" cy="132.38" r="3.25"/><circle class="cls-9" cx="18.61" cy="132.38" r="3.36"/><circle class="cls-8" cx="31.56" cy="132.38" r="3.25"/><circle class="cls-9" cx="31.56" cy="132.38" r="3.36"/><circle class="cls-8" cx="44.5" cy="132.38" r="3.25"/><circle class="cls-9" cx="44.5" cy="132.38" r="3.36"/><circle class="cls-8" cx="57.45" cy="132.38" r="3.25"/><circle class="cls-9" cx="57.45" cy="132.38" r="3.36"/><circle class="cls-6" cx="38.79" cy="154.24" r="7.34"/><path class="cls-8" d="M38.79,141.82a12.42,12.42,0,1,0,12.42,12.42A12.42,12.42,0,0,0,38.79,141.82Zm0,2a1,1,0,1,1-1,1A1,1,0,0,1,38.79,143.77Zm-7.4,3.07a1,1,0,0,1,1.46,0,1,1,0,0,1-1.46,1.46A1,1,0,0,1,31.39,146.84Zm-2,8.44a1,1,0,1,1,1-1A1,1,0,0,1,29.35,155.28Zm3.5,6.37a1,1,0,1,1,0-1.47A1.05,1.05,0,0,1,32.85,161.65Zm5.94,3.07a1,1,0,1,1,1-1A1,1,0,0,1,38.79,164.72Zm0-3.14a7.34,7.34,0,1,1,7.34-7.34A7.34,7.34,0,0,1,38.79,161.58Zm7.41.07a1,1,0,1,1,0-1.47A1.05,1.05,0,0,1,46.2,161.65Zm0-13.35a1.05,1.05,0,0,1-1.47,0,1,1,0,1,1,1.47,0Zm2,7a1,1,0,1,1,1-1A1,1,0,0,1,48.23,155.28Z"/><circle class="cls-10" cx="15.25" cy="170.68" r="1.92"/><circle class="cls-9" cx="15.25" cy="170.68" r="1.99"/><circle class="cls-10" cx="61.38" cy="142.81" r="1.92"/><circle class="cls-9" cx="61.38" cy="142.81" r="1.99"/></g></g></svg>