<?xml version="1.0" encoding="utf-8"?>
<!-- Generator: Adobe Illustrator 23.0.3, SVG Export Plug-In . SVG Version: 6.00 Build 0)  -->
<svg version="1.1" id="Ebene_1" xmlns="http://www.w3.org/2000/svg" xmlns:xlink="http://www.w3.org/1999/xlink" x="0px" y="0px"
	 viewBox="0 0 127.6 50.4" style="enable-background:new 0 0 127.6 50.4;" xml:space="preserve">
<style type="text/css">
	.st0{fill:#0F7391;}
	.st1{fill:#FFFFFF;}
	.st2{font-family:'ArialMT';}
	.st3{font-size:2.6726px;}
	.st4{font-size:4.5936px;}
	.st5{font-size:3.0902px;}
	.st6{font-size:3.3408px;}
	.st7{font-size:1.6704px;}
	.st8{fill:none;stroke:#9A916C;stroke-width:1.224;}
	.st9{fill:#CCCCCC;}
	.st10{opacity:0.2;enable-background:new    ;}
	.st11{fill:#1A1A1A;}
	.st12{fill:#333333;}
	.st13{opacity:0.2;fill:#FFFFFF;enable-background:new    ;}
	.st14{fill:none;}
	.st15{fill:#F2F2F2;}
	.st16{fill:#22B573;fill-opacity:0.7;}
	.st17{fill:#B3B3B3;}
	.st18{fill:#D1C690;}
	.st19{fill:#9D956C;}
	.st20{opacity:0.5;fill:#FFFFFF;enable-background:new    ;}
	.st21{opacity:0.5;fill:#F2F2F2;enable-background:new    ;}
	.st22{opacity:0.55;fill:#FFFFFF;enable-background:new    ;}
	.st23{opacity:3.000000e-02;enable-background:new    ;}
	.st24{fill:#E6E6E6;}
	.st25{opacity:0.1;fill:#1A1A1A;enable-background:new    ;}
	.st26{opacity:0.1;enable-background:new    ;}
	.st27{fill:#666666;}
	.st28{fill:#999999;}
	.st29{fill:#404040;}
	.st30{fill:#8D8C8C;}
	.st31{fill:#8D8455;}
	.st32{fill:#8C8663;}
	.st33{fill:#B8AF82;}
	.st34{fill:#80795B;}
	.st35{fill:#5E5B43;}
	.st36{fill:#9A916C;}
</style>
<desc>Fritzing breadboard generated by brd2svg</desc>
<g id="breadboardbreadboard">
	<g id="icon">
		<path class="st0" d="M4.9-0.3v50.4h122.4V-0.3H4.9 M8.5,1c1.3,0,2.3,1,2.3,2.3c0,1.3-1,2.3-2.3,2.3c0,0,0,0,0,0
			c-1.3,0-2.3-1-2.3-2.3C6.1,2,7.2,1,8.5,1L8.5,1z M8.5,44.2c1.3,0,2.3,1,2.3,2.3c0,1.3-1,2.3-2.3,2.3l0,0c-1.3,0-2.3-1-2.3-2.3
			C6.1,45.2,7.2,44.2,8.5,44.2z M123.7,44.2c1.3,0,2.3,1,2.3,2.3c0,1.3-1,2.3-2.3,2.3c-1.3,0-2.3-1-2.3-2.3
			C121.3,45.2,122.4,44.2,123.7,44.2z M123.7,1c1.3,0,2.3,1,2.3,2.3c0,1.3-1,2.3-2.3,2.3c0,0,0,0,0,0c-1.3,0-2.3-1-2.3-2.3
			C121.3,2,122.4,1,123.7,1C123.7,1,123.7,1,123.7,1z M116.5,2c0.7,0,1.3,0.6,1.3,1.3c0,0.7-0.6,1.3-1.3,1.3c-0.7,0-1.3-0.6-1.3-1.3
			S115.8,2,116.5,2z M109.3,2c0.7,0,1.3,0.6,1.3,1.3c0,0.7-0.6,1.3-1.3,1.3S108,4,108,3.3S108.6,2,109.3,2z M102.1,2
			c0.7,0,1.3,0.6,1.3,1.3c0,0.7-0.6,1.3-1.3,1.3c-0.7,0-1.3-0.6-1.3-1.3S101.4,2,102.1,2z M94.9,2c0.7,0,1.3,0.6,1.3,1.3
			c0,0.7-0.6,1.3-1.3,1.3S93.6,4,93.6,3.3S94.2,2,94.9,2z M87.7,2C88.4,2,89,2.6,89,3.3c0,0.7-0.6,1.3-1.3,1.3S86.4,4,86.4,3.3
			S87,2,87.7,2z M80.5,2c0.7,0,1.3,0.6,1.3,1.3c0,0.7-0.6,1.3-1.3,1.3l0,0c-0.7,0-1.3-0.6-1.3-1.3S79.8,2,80.5,2z M73.3,2
			c0.7,0,1.3,0.6,1.3,1.3c0,0.7-0.6,1.3-1.3,1.3l0,0C72.6,4.6,72,4,72,3.3S72.6,2,73.3,2z M66.1,2c0.7,0,1.3,0.6,1.3,1.3
			c0,0.7-0.6,1.3-1.3,1.3c-0.7,0-1.3-0.6-1.3-1.3S65.4,2,66.1,2L66.1,2z M58.9,2c0.7,0,1.3,0.6,1.3,1.3c0,0.7-0.6,1.3-1.3,1.3
			c-0.7,0-1.3-0.6-1.3-1.3S58.2,2,58.9,2z M51.7,2C52.4,2,53,2.6,53,3.3c0,0.7-0.6,1.3-1.3,1.3c-0.7,0-1.3-0.6-1.3-1.3
			C50.4,2.6,51,2,51.7,2z M44.5,2c0.7,0,1.3,0.6,1.3,1.3c0,0.7-0.6,1.3-1.3,1.3l0,0c-0.7,0-1.3-0.6-1.3-1.3S43.8,2,44.5,2z M37.3,2
			c0.7,0,1.3,0.6,1.3,1.3c0,0.7-0.6,1.3-1.3,1.3S36,4,36,3.3S36.6,2,37.3,2z M30.1,2c0.7,0,1.3,0.6,1.3,1.3c0,0.7-0.6,1.3-1.3,1.3
			c-0.7,0-1.3-0.6-1.3-1.3C28.8,2.6,29.4,2,30.1,2z M22.9,2c0.7,0,1.3,0.6,1.3,1.3c0,0.7-0.6,1.3-1.3,1.3c-0.7,0-1.3-0.6-1.3-1.3
			S22.2,2,22.9,2z M15.7,2C16.4,2,17,2.6,17,3.3c0,0.7-0.6,1.3-1.3,1.3c-0.7,0-1.3-0.6-1.3-1.3C14.4,2.6,15,2,15.7,2z M116.5,45.2
			c0.7,0,1.3,0.6,1.3,1.3c0,0.7-0.6,1.3-1.3,1.3c0,0,0,0,0,0c-0.7,0-1.3-0.6-1.3-1.3C115.2,45.8,115.8,45.2,116.5,45.2
			C116.5,45.2,116.5,45.2,116.5,45.2z M109.3,45.2c0.7,0,1.3,0.6,1.3,1.3c0,0.7-0.6,1.3-1.3,1.3c0,0,0,0,0,0c-0.7,0-1.3-0.6-1.3-1.3
			C108,45.8,108.6,45.2,109.3,45.2C109.3,45.2,109.3,45.2,109.3,45.2z M102.1,45.2c0.7,0,1.3,0.6,1.3,1.3c0,0.7-0.6,1.3-1.3,1.3
			c0,0,0,0,0,0c-0.7,0-1.3-0.6-1.3-1.3C100.8,45.8,101.4,45.2,102.1,45.2C102.1,45.2,102.1,45.2,102.1,45.2z M94.9,45.2
			c0.7,0,1.3,0.6,1.3,1.3c0,0.7-0.6,1.3-1.3,1.3c0,0,0,0,0,0c-0.7,0-1.3-0.6-1.3-1.3C93.6,45.8,94.2,45.2,94.9,45.2
			C94.9,45.2,94.9,45.2,94.9,45.2z M87.7,45.2c0.7,0,1.3,0.6,1.3,1.3c0,0.7-0.6,1.3-1.3,1.3c0,0,0,0,0,0c-0.7,0-1.3-0.6-1.3-1.3
			C86.4,45.8,87,45.2,87.7,45.2C87.7,45.2,87.7,45.2,87.7,45.2z M80.5,45.2c0.7,0,1.3,0.6,1.3,1.3c0,0.7-0.6,1.3-1.3,1.3
			c0,0,0,0,0,0c-0.7,0-1.3-0.6-1.3-1.3C79.2,45.8,79.8,45.2,80.5,45.2C80.5,45.2,80.5,45.2,80.5,45.2z M73.3,45.2
			c0.7,0,1.3,0.6,1.3,1.3c0,0.7-0.6,1.3-1.3,1.3c0,0,0,0,0,0c-0.7,0-1.3-0.6-1.3-1.3C72,45.8,72.6,45.2,73.3,45.2
			C73.3,45.2,73.3,45.2,73.3,45.2z M66.1,45.2c0.7,0,1.3,0.6,1.3,1.3c0,0.7-0.6,1.3-1.3,1.3c0,0,0,0,0,0c-0.7,0-1.3-0.6-1.3-1.3
			C64.8,45.8,65.4,45.2,66.1,45.2C66.1,45.2,66.1,45.2,66.1,45.2z M58.9,45.2c0.7,0,1.3,0.6,1.3,1.3c0,0.7-0.6,1.3-1.3,1.3h0
			c-0.7,0-1.3-0.6-1.3-1.3C57.6,45.8,58.2,45.2,58.9,45.2C58.9,45.2,58.9,45.2,58.9,45.2z M51.7,45.2c0.7,0,1.3,0.6,1.3,1.3
			c0,0.7-0.6,1.3-1.3,1.3c0,0,0,0,0,0c-0.7,0-1.3-0.6-1.3-1.3C50.4,45.8,51,45.2,51.7,45.2C51.7,45.2,51.7,45.2,51.7,45.2z
			 M44.5,45.2c0.7,0,1.3,0.6,1.3,1.3c0,0.7-0.6,1.3-1.3,1.3h0c-0.7,0-1.3-0.6-1.3-1.3C43.2,45.8,43.8,45.2,44.5,45.2
			C44.5,45.2,44.5,45.2,44.5,45.2z M37.3,45.2c0.7,0,1.3,0.6,1.3,1.3c0,0.7-0.6,1.3-1.3,1.3c0,0,0,0,0,0c-0.7,0-1.3-0.6-1.3-1.3
			C36,45.8,36.6,45.2,37.3,45.2C37.3,45.2,37.3,45.2,37.3,45.2z M30.1,45.2c0.7,0,1.3,0.6,1.3,1.3c0,0.7-0.6,1.3-1.3,1.3
			c0,0,0,0,0,0c-0.7,0-1.3-0.6-1.3-1.3C28.8,45.8,29.4,45.2,30.1,45.2C30.1,45.2,30.1,45.2,30.1,45.2z M22.9,45.2
			c0.7,0,1.3,0.6,1.3,1.3c0,0.7-0.6,1.3-1.3,1.3h0c-0.7,0-1.3-0.6-1.3-1.3C21.6,45.8,22.2,45.2,22.9,45.2
			C22.9,45.2,22.9,45.2,22.9,45.2z M15.7,45.2c0.7,0,1.3,0.6,1.3,1.3c0,0.7-0.6,1.3-1.3,1.3c0,0,0,0,0,0c-0.7,0-1.3-0.6-1.3-1.3
			C14.4,45.8,15,45.2,15.7,45.2C15.7,45.2,15.7,45.2,15.7,45.2z M123.4,30.8c0.7,0,1.3,0.6,1.3,1.3c0,0.7-0.6,1.3-1.3,1.3
			c0,0,0,0,0,0c-0.7,0-1.3-0.6-1.3-1.3C122.1,31.4,122.7,30.8,123.4,30.8C123.4,30.8,123.4,30.8,123.4,30.8z M116.2,30.8
			c0.7,0,1.3,0.6,1.3,1.3c0,0.7-0.6,1.3-1.3,1.3c0,0,0,0,0,0c-0.7,0-1.3-0.6-1.3-1.3C114.9,31.4,115.5,30.8,116.2,30.8
			C116.2,30.8,116.2,30.8,116.2,30.8z M123.4,23.6c0.7,0,1.3,0.6,1.3,1.3s-0.6,1.3-1.3,1.3c0,0,0,0,0,0c-0.7,0-1.3-0.6-1.3-1.3
			C122.1,24.2,122.7,23.6,123.4,23.6C123.4,23.6,123.4,23.6,123.4,23.6z M116.2,23.6c0.7,0,1.3,0.6,1.3,1.3s-0.6,1.3-1.3,1.3
			c0,0,0,0,0,0c-0.7,0-1.3-0.6-1.3-1.3C114.9,24.2,115.5,23.6,116.2,23.6C116.2,23.6,116.2,23.6,116.2,23.6z M123.4,16.4
			c0.7,0,1.3,0.6,1.3,1.3s-0.6,1.3-1.3,1.3c-0.7,0-1.3-0.6-1.3-1.3S122.7,16.4,123.4,16.4C123.4,16.4,123.4,16.4,123.4,16.4z
			 M116.2,16.4c0.7,0,1.3,0.6,1.3,1.3s-0.6,1.3-1.3,1.3c-0.7,0-1.3-0.6-1.3-1.3C114.9,17,115.5,16.4,116.2,16.4
			C116.2,16.4,116.2,16.4,116.2,16.4z"/>
		<g>
			<title>layer 21</title>
			<g>
				<title>text:TX1</title>
				<g transform="matrix(1, 0, 0, 1, 9.216, 13.68)">
					<g transform="rotate(270)">
						<text transform="matrix(0 1 -1 0 4.7639 104.3878)" class="st1 st2 st3">TX1</text>
					</g>
				</g>
			</g>
			<g>
				<title>text:RX0</title>
				<g transform="matrix(1, 0, 0, 1, 9.216, 20.88)">
					<g transform="rotate(270)">
						<text transform="matrix(0 1 -1 0 11.9639 97.1886)" class="st1 st2 st3">RX0</text>
					</g>
				</g>
			</g>
			<g>
				<title>text:RST</title>
				<g transform="matrix(1, 0, 0, 1, 9.216, 28.008)">
					<g transform="rotate(270)">
						<text transform="matrix(0 1 -1 0 19.0919 90.0597)" class="st1 st2 st3">RST</text>
					</g>
				</g>
			</g>
			<g>
				<title>text:GND</title>
				<g transform="matrix(1, 0, 0, 1, 9.216, 35.208)">
					<g transform="rotate(270)">
						<text transform="matrix(0 1 -1 0 26.2919 82.8605)" class="st1 st2 st3">GND</text>
					</g>
				</g>
			</g>
			<g>
				<title>text:D2</title>
				<g transform="matrix(1, 0, 0, 1, 9.216, 41.544)">
					<g transform="rotate(270)">
						<text transform="matrix(0 1 -1 0 32.6279 76.5246)" class="st1 st2 st3">D2</text>
					</g>
				</g>
			</g>
			<g>
				<title>text:D3</title>
				<g transform="matrix(1, 0, 0, 1, 9.216, 48.6)">
					<g transform="rotate(270)">
						<text transform="matrix(0 1 -1 0 39.6839 69.4679)" class="st1 st2 st3">D3</text>
					</g>
				</g>
			</g>
			<g>
				<title>text:D4</title>
				<g transform="matrix(1, 0, 0, 1, 9.216, 55.872)">
					<g transform="rotate(270)">
						<text transform="matrix(0 1 -1 0 46.9559 62.1964)" class="st1 st2 st3">D4</text>
					</g>
				</g>
			</g>
			<g>
				<title>text:D5</title>
				<g transform="matrix(1, 0, 0, 1, 9.216, 62.928)">
					<g transform="rotate(270)">
						<text transform="matrix(0 1 -1 0 54.0119 55.1398)" class="st1 st2 st3">D5</text>
					</g>
				</g>
			</g>
			<g>
				<title>text:D6</title>
				<g transform="matrix(1, 0, 0, 1, 9.216, 70.272)">
					<g transform="rotate(270)">
						<text transform="matrix(0 1 -1 0 61.3559 47.796)" class="st1 st2 st3">D6</text>
					</g>
				</g>
			</g>
			<g>
				<title>text:D7</title>
				<g transform="matrix(1, 0, 0, 1, 9.216, 77.544)">
					<g transform="rotate(270)">
						<text transform="matrix(0 1 -1 0 68.6279 40.5246)" class="st1 st2 st3">D7</text>
					</g>
				</g>
			</g>
			<g>
				<title>text:D8</title>
				<g transform="matrix(1, 0, 0, 1, 9.216, 84.6)">
					<g transform="rotate(270)">
						<text transform="matrix(0 1 -1 0 75.6839 33.4679)" class="st1 st2 st3">D8</text>
					</g>
				</g>
			</g>
			<g>
				<title>text:D9</title>
				<g transform="matrix(1, 0, 0, 1, 9.216, 91.872)">
					<g transform="rotate(270)">
						<text transform="matrix(0 1 -1 0 82.9559 26.1964)" class="st1 st2 st3">D9</text>
					</g>
				</g>
			</g>
			<g>
				<title>text:D10</title>
				<g transform="matrix(1, 0, 0, 1, 9.216, 100.224)">
					<g transform="rotate(270)">
						<text transform="matrix(0 1 -1 0 91.3079 17.8429)" class="st1 st2 st3">D10</text>
					</g>
				</g>
			</g>
			<g>
				<title>text:D11</title>
				<g transform="matrix(1, 0, 0, 1, 9.216, 107.352)">
					<g transform="rotate(270)">
						<text transform="matrix(0 1 -1 0 98.4359 10.716)" class="st1 st2 st3">D11</text>
					</g>
				</g>
			</g>
			<g>
				<title>text:D12</title>
				<g transform="matrix(1, 0, 0, 1, 9.216, 114.552)">
					<g transform="rotate(270)">
						<text transform="matrix(0 1 -1 0 105.6359 3.5148)" class="st1 st2 st3">D12</text>
					</g>
				</g>
			</g>
			<g>
				<title>text:D13</title>
				<g transform="matrix(1, 0, 0, 1, 43.488, 114.552)">
					<g transform="rotate(270)">
						<text transform="matrix(0 1 -1 0 71.3644 -30.7572)" class="st1 st2 st3">D13</text>
					</g>
				</g>
			</g>
			<g>
				<title>text:3V3</title>
				<g transform="matrix(1, 0, 0, 1, 43.488, 107.28)">
					<g transform="rotate(270)">
						<text transform="matrix(0 1 -1 0 64.0924 -23.4838)" class="st1 st2 st3">3V3</text>
					</g>
				</g>
			</g>
			<g>
				<title>text:REF</title>
				<g transform="matrix(1, 0, 0, 1, 43.488, 100.152)">
					<g transform="rotate(270)">
						<text transform="matrix(0 1 -1 0 56.9644 -16.3568)" class="st1 st2 st3">REF</text>
					</g>
				</g>
			</g>
			<g>
				<title>text:A0</title>
				<g transform="matrix(1, 0, 0, 1, 43.488, 91.944)">
					<g transform="rotate(270)">
						<text transform="matrix(0 1 -1 0 48.7564 -8.1478)" class="st1 st2 st3">A0</text>
					</g>
				</g>
			</g>
			<g>
				<title>text:A1</title>
				<g transform="matrix(1, 0, 0, 1, 43.488, 84.672)">
					<g transform="rotate(270)">
						<text transform="matrix(0 1 -1 0 41.4844 -0.8764)" class="st1 st2 st3">A1</text>
					</g>
				</g>
			</g>
			<g>
				<title>text:A2</title>
				<g transform="matrix(1, 0, 0, 1, 43.488, 77.544)">
					<g transform="rotate(270)">
						<text transform="matrix(0 1 -1 0 34.3564 6.2526)" class="st1 st2 st3">A2</text>
					</g>
				</g>
			</g>
			<g>
				<title>text:A3</title>
				<g transform="matrix(1, 0, 0, 1, 43.488, 70.344)">
					<g transform="rotate(270)">
						<text transform="matrix(0 1 -1 0 27.1564 13.4518)" class="st1 st2 st3">A3</text>
					</g>
				</g>
			</g>
			<g>
				<title>text:A4</title>
				<g transform="matrix(1, 0, 0, 1, 43.488, 63.216)">
					<g transform="rotate(270)">
						<text transform="matrix(0 1 -1 0 20.0284 20.5807)" class="st1 st2 st3">A4</text>
					</g>
				</g>
			</g>
			<g>
				<title>text:A5</title>
				<g transform="matrix(1, 0, 0, 1, 43.488, 55.944)">
					<g transform="rotate(270)">
						<text transform="matrix(0 1 -1 0 12.7564 27.8522)" class="st1 st2 st3">A5</text>
					</g>
				</g>
			</g>
			<g>
				<title>text:A6</title>
				<g transform="matrix(1, 0, 0, 1, 43.488, 48.744)">
					<g transform="rotate(270)">
						<text transform="matrix(0 1 -1 0 5.5564 35.0514)" class="st1 st2 st3">A6</text>
					</g>
				</g>
			</g>
			<g>
				<title>text:A7</title>
				<g transform="matrix(1, 0, 0, 1, 43.488, 41.616)">
					<g transform="rotate(270)">
						<text transform="matrix(0 1 -1 0 -1.5716 42.1803)" class="st1 st2 st3">A7</text>
					</g>
				</g>
			</g>
			<g>
				<title>text:5V</title>
				<g transform="matrix(1, 0, 0, 1, 43.488, 34.416)">
					<g transform="rotate(270)">
						<text transform="matrix(0 1 -1 0 -8.7716 49.3795)" class="st1 st2 st3">5V</text>
					</g>
				</g>
			</g>
			<g>
				<title>text:RST</title>
				<g transform="matrix(1, 0, 0, 1, 43.488, 27.216)">
					<g transform="rotate(270)">
						<text transform="matrix(0 1 -1 0 -15.9716 56.5807)" class="st1 st2 st3">RST</text>
					</g>
				</g>
			</g>
			<g>
				<title>text:GND</title>
				<g transform="matrix(1, 0, 0, 1, 43.488, 19.8)">
					<g transform="rotate(270)">
						<text transform="matrix(0 1 -1 0 -23.3876 63.9967)" class="st1 st2 st3">GND</text>
					</g>
				</g>
			</g>
			<g>
				<title>text:VIN</title>
				<g transform="matrix(1, 0, 0, 1, 43.488, 12.672)">
					<g transform="rotate(270)">
						<text transform="matrix(0 1 -1 0 -30.5156 71.1236)" class="st1 st2 st3">VIN</text>
					</g>
				</g>
			</g>
			<g>
				<title>text:1</title>
				<text transform="matrix(6.123234e-17 1 -1 6.123234e-17 121.7385 36.5645)" class="st1 st2 st4">1</text>
			</g>
			<g>
				<title>text:ICSP</title>
				<g transform="matrix(1, 0, 0, 1, 13.68, 7.704)">
					<g transform="rotate(270)">
						<text transform="matrix(0 1 -1 0 -5.676 105.9004)" class="st1 st2 st3">ICSP</text>
					</g>
				</g>
			</g>
			<g>
				<title>text:TX</title>
				<text transform="matrix(6.123234e-17 1 -1 6.123234e-17 93.8029 9.5641)" class="st1 st2 st3">TX</text>
			</g>
			<g>
				<title>text:RX</title>
				<text transform="matrix(6.123234e-17 1 -1 6.123234e-17 93.8029 17.1241)" class="st1 st2 st3">RX</text>
			</g>
			<g>
				<title>text:PWR</title>
				<text transform="matrix(6.123234e-17 1 -1 6.123234e-17 93.8029 25.9083)" class="st1 st2 st3">PWR</text>
			</g>
			<g>
				<title>text:RST</title>
				<text transform="matrix(6.123234e-17 1 -1 6.123234e-17 78.6096 23.3878)" class="st1 st2 st3">RST</text>
			</g>
			<g>
				<title>text:L</title>
				<text transform="matrix(6.123234e-17 1 -1 6.123234e-17 93.8029 37.8595)" class="st1 st2 st3">L</text>
			</g>
			<g>
				<title>text:2009</title>
				<text transform="matrix(6.123234e-17 1 -1 6.123234e-17 30.2287 29.6524)" class="st1 st2 st5">2009</text>
			</g>
			<g>
				<title>text:USA</title>
				<text transform="matrix(6.123234e-17 1 -1 6.123234e-17 30.2287 12.9483)" class="st1 st2 st5">USA</text>
			</g>
			<g>
				<title>text:ARDUINO.CC</title>
				<g transform="matrix(1, 0, 0, 1, 16.488, 57.024)">
					<g transform="rotate(270)">
						<text transform="matrix(0 1 -1 0 40.8364 53.7721)" class="st1 st2 st3">ARDUINO.CC</text>
					</g>
				</g>
			</g>
			<g>
				<title>text:ARDUINO</title>
				<text transform="matrix(6.123234e-17 1 -1 6.123234e-17 108.7072 15.3243)" class="st1 st2 st6">ARDUINO</text>
			</g>
			<g>
				<title>text:NANO</title>
				<text transform="matrix(6.123234e-17 1 -1 6.123234e-17 104.8205 19.068)" class="st1 st2 st6">NANO</text>
			</g>
			<g>
				<title>text:V3.0</title>
				<text transform="matrix(6.123234e-17 1 -1 6.123234e-17 101.0041 19.6432)" class="st1 st2 st6">V3.0</text>
			</g>
			<g>
				<title>text:*</title>
				<g transform="matrix(1, 0, 0, 1, 7.056, 92.664)">
					<g transform="rotate(270)">
						<text transform="matrix(0 1 -1 0 85.9081 27.5635)" class="st1 st2 st7">*</text>
					</g>
				</g>
			</g>
			<g>
				<title>text:*</title>
				<g transform="matrix(1, 0, 0, 1, 7.056, 99.936)">
					<g transform="rotate(270)">
						<text transform="matrix(0 1 -1 0 93.18 20.292)" class="st1 st2 st7">*</text>
					</g>
				</g>
			</g>
			<g>
				<title>text:*</title>
				<g transform="matrix(1, 0, 0, 1, 7.056, 107.064)">
					<g transform="rotate(270)">
						<text transform="matrix(0 1 -1 0 100.3081 13.1631)" class="st1 st2 st7">*</text>
					</g>
				</g>
			</g>
			<g>
				<title>text:*</title>
				<g transform="matrix(1, 0, 0, 1, 7.056, 71.064)">
					<g transform="rotate(270)">
						<text transform="matrix(0 1 -1 0 64.3081 49.1631)" class="st1 st2 st7">*</text>
					</g>
				</g>
			</g>
			<g>
				<title>text:*</title>
				<g transform="matrix(1, 0, 0, 1, 7.056, 63.792)">
					<g transform="rotate(270)">
						<text transform="matrix(0 1 -1 0 57.0361 56.4365)" class="st1 st2 st7">*</text>
					</g>
				</g>
			</g>
			<g>
				<title>text:*</title>
				<g transform="matrix(1, 0, 0, 1, 7.056, 49.464)">
					<g transform="rotate(270)">
						<text transform="matrix(0 1 -1 0 42.7081 70.7646)" class="st1 st2 st7">*</text>
					</g>
				</g>
			</g>
			<g>
				<title>element:C1</title>
				<g>
					<title>package:CAP0805-NP</title>
				</g>
			</g>
			<g>
				<title>element:C2</title>
				<g>
					<title>package:TAN-A</title>
				</g>
			</g>
			<g>
				<title>element:C3</title>
				<g>
					<title>package:CAP0805-NP</title>
				</g>
			</g>
			<g>
				<title>element:C4</title>
				<g>
					<title>package:CAP0805-NP</title>
				</g>
			</g>
			<g>
				<title>element:C7</title>
				<g>
					<title>package:CAP0805-NP</title>
				</g>
			</g>
			<g>
				<title>element:C8</title>
				<g>
					<title>package:TAN-A</title>
				</g>
			</g>
			<g>
				<title>element:C9</title>
				<g>
					<title>package:CAP0805-NP</title>
				</g>
			</g>
			<g>
				<title>element:D1</title>
				<g>
					<title>package:SOD-123</title>
				</g>
			</g>
			<g>
				<title>element:J1</title>
				<g>
					<title>package:HEAD15-NOSS</title>
				</g>
			</g>
			<g>
				<title>element:J2</title>
				<g>
					<title>package:HEAD15-NOSS-1</title>
				</g>
			</g>
			<g>
				<title>element:RP1</title>
				<g>
					<title>package:RES4NT</title>
				</g>
			</g>
			<g>
				<title>element:RP2</title>
				<g>
					<title>package:RES4NT</title>
				</g>
			</g>
			<g>
				<title>element:U$4</title>
				<g>
					<title>package:FIDUCIAL-1X2</title>
				</g>
			</g>
			<g>
				<title>element:U$37</title>
				<g>
					<title>package:FIDUCIAL-1X2</title>
				</g>
			</g>
			<g>
				<title>element:U$53</title>
				<g>
					<title>package:FIDUCIAL-1X2</title>
				</g>
			</g>
			<g>
				<title>element:U$54</title>
				<g>
					<title>package:FIDUCIAL-1X2</title>
				</g>
			</g>
			<g>
				<title>element:U2</title>
				<g>
					<title>package:SSOP28</title>
				</g>
			</g>
			<g>
				<title>element:U3</title>
				<g>
					<title>package:SOT223</title>
				</g>
			</g>
		</g>
		<circle id="connector16pin" class="st8" cx="116.5" cy="3.3" r="1.9"/>
		<rect x="114.6" y="1.4" class="st8" width="3.8" height="3.8"/>
		<circle id="connector17pin" class="st8" cx="109.3" cy="3.3" r="1.9"/>
		<circle id="connector18pin" class="st8" cx="102.1" cy="3.3" r="1.9"/>
		<circle id="connector19pin" class="st8" cx="94.9" cy="3.3" r="1.9"/>
		<circle id="connector20pin" class="st8" cx="87.7" cy="3.3" r="1.9"/>
		<circle id="connector21pin" class="st8" cx="80.5" cy="3.3" r="1.9"/>
		<circle id="connector22pin" class="st8" cx="73.3" cy="3.3" r="1.9"/>
		<circle id="connector23pin" class="st8" cx="66.1" cy="3.3" r="1.9"/>
		<circle id="connector24pin" class="st8" cx="58.9" cy="3.3" r="1.9"/>
		<circle id="connector25pin" class="st8" cx="51.7" cy="3.3" r="1.9"/>
		<circle id="connector26pin" class="st8" cx="44.5" cy="3.3" r="1.9"/>
		<circle id="connector27pin" class="st8" cx="37.3" cy="3.3" r="1.9"/>
		<circle id="connector28pin" class="st8" cx="30.1" cy="3.3" r="1.9"/>
		<circle id="connector29pin" class="st8" cx="22.9" cy="3.3" r="1.9"/>
		<circle id="connector30pin" class="st8" cx="15.7" cy="3.3" r="1.9"/>
		<circle id="connector31pin" class="st8" cx="116.5" cy="46.5" r="1.9"/>
		<circle id="connector32pin" class="st8" cx="109.3" cy="46.5" r="1.9"/>
		<circle id="connector33pin" class="st8" cx="102.1" cy="46.5" r="1.9"/>
		<circle id="connector34pin" class="st8" cx="94.9" cy="46.5" r="1.9"/>
		<circle id="connector35pin" class="st8" cx="87.7" cy="46.5" r="1.9"/>
		<circle id="connector36pin" class="st8" cx="80.5" cy="46.5" r="1.9"/>
		<circle id="connector37pin" class="st8" cx="73.3" cy="46.5" r="1.9"/>
		<circle id="connector38pin" class="st8" cx="66.1" cy="46.5" r="1.9"/>
		<circle id="connector39pin" class="st8" cx="58.9" cy="46.5" r="1.9"/>
		<circle id="connector40pin" class="st8" cx="51.7" cy="46.5" r="1.9"/>
		<circle id="connector41pin" class="st8" cx="44.5" cy="46.5" r="1.9"/>
		<circle id="connector42pin" class="st8" cx="37.3" cy="46.5" r="1.9"/>
		<circle id="connector43pin" class="st8" cx="30.1" cy="46.5" r="1.9"/>
		<circle id="connector44pin" class="st8" cx="22.9" cy="46.5" r="1.9"/>
		<circle id="connector45pin" class="st8" cx="15.7" cy="46.5" r="1.9"/>
		<circle id="connector55pin" class="st8" cx="123.4" cy="32.1" r="1.9"/>
		<rect x="121.5" y="30.2" class="st8" width="3.8" height="3.8"/>
		<circle id="connector56pin" class="st8" cx="116.2" cy="32.1" r="1.9"/>
		<circle id="connector57pin" class="st8" cx="123.4" cy="24.9" r="1.9"/>
		<circle id="connector58pin" class="st8" cx="116.2" cy="24.9" r="1.9"/>
		<circle id="connector59pin" class="st8" cx="123.4" cy="17.7" r="1.9"/>
		<circle id="connector60pin" class="st8" cx="116.2" cy="17.7" r="1.9"/>
		<g>
			<polygon class="st9" points="76.9,28.4 76.8,28.4 76.8,24 76.9,24 76.9,20.7 70.6,20.7 70.6,31.7 76.9,31.7 			"/>
			<polygon class="st9" points="69.6,24 69.8,24 69.8,28.4 69.6,28.4 69.6,31.7 75.9,31.7 75.9,20.7 69.6,20.7 			"/>
			<circle cx="73.3" cy="26.2" r="2.3"/>
			<path class="st10" d="M73.2,23.9c-1.3,0-2.3,1-2.3,2.3c0,1.3,1,2.3,2.3,2.3h0.1c-1.3,0-2.3-1-2.3-2.3c0-1.3,1-2.3,2.3-2.3H73.2z"
				/>
			<circle class="st11" cx="73.3" cy="26.2" r="2.2"/>
			<circle class="st12" cx="73.3" cy="26.2" r="2.2"/>
			<path class="st10" d="M73.2,24C72,24,71,25,71,26.2c0,1.2,1,2.2,2.2,2.2h0.1c-1.2,0-2.2-1-2.2-2.2s1-2.2,2.2-2.2
				C73.3,24,73.2,24,73.2,24z"/>
			<path class="st13" d="M73.2,28.4c1.2,0,2.2-1,2.2-2.2s-1-2.2-2.2-2.2h0.1c1.2,0,2.2,1,2.2,2.2c0,1.2-1,2.2-2.2,2.2H73.2z"/>
			<rect x="76.8" y="28.4" class="st13" width="0.1" height="3.3"/>
			<rect x="76.8" y="20.7" class="st13" width="0.1" height="3.3"/>
			<rect x="76.7" y="24" class="st13" width="0.1" height="4.4"/>
			<rect x="69.6" y="28.4" class="st10" width="0.1" height="3.3"/>
			<rect x="69.6" y="20.7" class="st10" width="0.1" height="3.3"/>
			<rect x="69.8" y="24" class="st10" width="0.1" height="4.4"/>
		</g>
	</g>
	<g>
		<g id="led-0603_2_" transform="matrix(1, 0, 0, 1, 21.5539, 31.3385)">
			<line class="st14" x1="71.7" y1="5.2" x2="64.5" y2="5.2"/>
			<rect x="64.4" y="5.2" class="st15" width="7.3" height="3.8"/>
			<path class="st16" d="M67,5.2c0,0-0.6,0.5-0.9,0.4c-0.2,0-0.5,0.1-0.7,0l0-0.4L67,5.2z"/>
			<g>
				<rect x="67.7" y="6.7" class="st1" width="0.9" height="1"/>
				<rect x="67.7" y="6.6" class="st17" width="0.9" height="0"/>
			</g>
			<g>
				<polygon class="st18" points="66.4,5.6 65.4,5.5 65.4,6.3 66.4,6.2 				"/>
				<g>
					<path class="st18" d="M66.3,5.8C66.3,5.8,66.3,5.8,66.3,5.8c0.3,0,0.5,0.1,0.6,0.2c0.2,0.1,0.6,0.8,0.8,0.7c0,0,0.1,0,0.1,0
						c0,0,0,0.1,0,0.1c-0.3,0.1-0.7-0.6-0.9-0.7C66.7,6,66.6,6,66.3,6C66.3,5.9,66.3,5.9,66.3,5.8C66.3,5.9,66.3,5.8,66.3,5.8z"/>
				</g>
				<polygon class="st18" points="69.8,8.5 70.8,8.6 70.8,7.9 69.8,8 				"/>
				<g>
					<path class="st18" d="M68.1,7C68.2,7,68.2,7,68.1,7c0.1,0.3,1.1,1.2,1.9,1.2c0,0,0.1,0,0.1,0.1c0,0,0,0.1-0.1,0.1h0
						C69.3,8.3,68.2,7.6,68.1,7C68.1,7,68.1,7,68.1,7C68.1,7,68.1,7,68.1,7z"/>
				</g>
				<path class="st18" d="M67.7,7c0,0,0.4,0,0.4-0.3c-0.1,0-0.4,0-0.4,0V7z"/>
				<path class="st18" d="M68.1,7.3c0,0-0.2-0.3-0.1-0.4c0.1,0,0.2-0.1,0.2,0C68.4,7.1,68.1,7.3,68.1,7.3z"/>
				<path class="st19" d="M67.8,6.6c-0.3,0.1-0.6-0.6-0.8-0.7c-0.1-0.1-0.3-0.1-0.6-0.2v0.1c0.3,0,0.4,0.1,0.6,0.2
					C67.1,6.1,67.5,6.8,67.8,6.6L67.8,6.6z"/>
				<polygon class="st19" points="69.8,7.9 70.8,7.8 70.8,7.9 69.8,8 				"/>
				<path class="st19" d="M68.2,7c0.1,0.3,1.1,1.2,1.9,1.1v0.1C69.2,8.3,68.3,7.3,68.2,7L68.2,7z"/>
				<path class="st19" d="M68.1,6.6c-0.1,0-0.4,0-0.4,0v0.1C67.7,6.7,68,6.7,68.1,6.6L68.1,6.6z"/>
				<path class="st19" d="M68.3,6.9c-0.1-0.1-0.1-0.1-0.2,0l0,0.1C68.2,6.9,68.2,6.9,68.3,6.9L68.3,6.9z"/>
			</g>
			<rect x="66" y="9" class="st20" width="4.2" height="0.1"/>
			<path class="st21" d="M70.8,9V5.2h-5.3l0,3.8H70.8z"/>
			<path class="st22" d="M70.7,8.4v0.3c0,0.1,0,0.3-0.1,0.3c-0.6,0-4.7,0-4.9,0c-0.2,0-0.2-0.1,0-0.1c0.1,0,3.9,0,4.3,0
				c0.5,0,0.5-0.1,0.5-0.2L70.7,8.4C70.6,8.2,70.7,8.2,70.7,8.4z"/>
			<path class="st23" d="M65.6,5.4c0-0.1,0-0.1,0.1-0.1c0.6,0,4.7,0,4.8,0c0.2,0,0.2,0.1,0,0.1c-0.1,0-3.1,0-3.6,0
				C66.3,5.4,65.6,5.4,65.6,5.4z"/>
			<path class="st18" d="M71.7,5.2h-0.8v0.5c0,0.1-0.1,0.2-0.2,0.3v3h1L71.7,5.2L71.7,5.2"/>
			<rect x="70.8" y="9" class="st20" width="1" height="0.1"/>
			<path class="st18" d="M64.4,5.2L64.4,5.2V9h1.1V5.6c-0.1-0.1-0.2-0.1-0.2-0.3V5.2L64.4,5.2"/>
			<rect x="64.4" y="9" class="st20" width="1.1" height="0.1"/>
		</g>
	</g>
	<g>
		<g id="led-0603_3_" transform="matrix(1, 0, 0, 1, 21.5539, 31.3385)">
			<line class="st14" x1="71.7" y1="-4.4" x2="64.5" y2="-4.4"/>
			<rect x="64.4" y="-4.4" class="st15" width="7.3" height="3.8"/>
			<path class="st16" d="M67-4.4c0,0-0.6,0.5-0.9,0.4c-0.2,0-0.5,0.1-0.7,0l0-0.4L67-4.4z"/>
			<g>
				<rect x="67.7" y="-2.9" class="st1" width="0.9" height="1"/>
				<rect x="67.7" y="-3" class="st17" width="0.9" height="0.1"/>
			</g>
			<g>
				<polygon class="st18" points="66.4,-4 65.4,-4.1 65.4,-3.3 66.4,-3.4 				"/>
				<g>
					<path class="st18" d="M66.3-3.8C66.3-3.8,66.3-3.8,66.3-3.8c0.3,0,0.5,0.1,0.6,0.2c0.2,0.1,0.6,0.8,0.8,0.7c0,0,0.1,0,0.1,0
						c0,0,0,0.1,0,0.1c-0.3,0.1-0.7-0.6-0.9-0.7c-0.1-0.1-0.3-0.1-0.6-0.2C66.3-3.7,66.3-3.7,66.3-3.8C66.3-3.7,66.3-3.8,66.3-3.8z"
						/>
				</g>
				<polygon class="st18" points="69.8,-1.1 70.8,-1 70.8,-1.7 69.8,-1.6 				"/>
				<g>
					<path class="st18" d="M68.1-2.6C68.2-2.6,68.2-2.6,68.1-2.6c0.1,0.3,1.1,1.2,1.9,1.2c0,0,0.1,0,0.1,0.1c0,0,0,0.1-0.1,0.1h0
						C69.3-1.3,68.2-2.1,68.1-2.6C68.1-2.6,68.1-2.6,68.1-2.6C68.1-2.6,68.1-2.6,68.1-2.6z"/>
				</g>
				<path class="st18" d="M67.7-2.6c0,0,0.4,0,0.4-0.3c-0.1,0-0.4,0-0.4,0V-2.6z"/>
				<path class="st18" d="M68.1-2.3c0,0-0.2-0.3-0.1-0.4c0.1,0,0.2-0.1,0.2,0C68.4-2.5,68.1-2.3,68.1-2.3z"/>
				<path class="st19" d="M67.8-3c-0.3,0.1-0.6-0.6-0.8-0.7c-0.1-0.1-0.3-0.1-0.6-0.2v0.1c0.3,0,0.4,0.1,0.6,0.2
					C67.1-3.5,67.5-2.8,67.8-3L67.8-3z"/>
				<polygon class="st19" points="69.8,-1.7 70.8,-1.8 70.8,-1.7 69.8,-1.6 				"/>
				<path class="st19" d="M68.2-2.6c0.1,0.3,1.1,1.2,1.9,1.1v0.1C69.2-1.3,68.3-2.3,68.2-2.6L68.2-2.6z"/>
				<path class="st19" d="M68.1-3c-0.1,0-0.4,0-0.4,0v0.1C67.7-2.9,68-2.9,68.1-3L68.1-3z"/>
				<path class="st19" d="M68.3-2.7c-0.1-0.1-0.1-0.1-0.2,0l0,0.1C68.2-2.7,68.2-2.7,68.3-2.7L68.3-2.7z"/>
			</g>
			<rect x="66" y="-0.6" class="st20" width="4.2" height="0.1"/>
			<path class="st21" d="M70.8-0.6v-3.8h-5.3l0,3.8H70.8z"/>
			<path class="st22" d="M70.7-1.2v0.3c0,0.1,0,0.3-0.1,0.3c-0.6,0-4.7,0-4.9,0c-0.2,0-0.2-0.1,0-0.1c0.1,0,3.9,0,4.3,0
				c0.5,0,0.5-0.1,0.5-0.2L70.7-1.2C70.6-1.4,70.7-1.4,70.7-1.2z"/>
			<path class="st23" d="M65.6-4.2c0-0.1,0-0.1,0.1-0.1c0.6,0,4.7,0,4.8,0c0.2,0,0.2,0.1,0,0.1c-0.1,0-3.1,0-3.6,0
				C66.3-4.2,65.6-4.2,65.6-4.2z"/>
			<path class="st18" d="M71.7-4.4h-0.8v0.5c0,0.1-0.1,0.2-0.2,0.3v3h1L71.7-4.4L71.7-4.4"/>
			<rect x="70.8" y="-0.6" class="st20" width="1" height="0.1"/>
			<path class="st18" d="M64.4-4.4L64.4-4.4v3.8h1.1V-4c-0.1-0.1-0.2-0.1-0.2-0.3v-0.1L64.4-4.4"/>
			<rect x="64.4" y="-0.6" class="st20" width="1.1" height="0.1"/>
		</g>
	</g>
	<g>
		<g id="led-0603_5_" transform="matrix(1, 0, 0, 1, 21.5539, 31.3385)">
			<line class="st14" x1="71.7" y1="-14.2" x2="64.5" y2="-14.2"/>
			<rect x="64.4" y="-14.2" class="st15" width="7.3" height="3.8"/>
			<path class="st16" d="M67-14.2c0,0-0.6,0.5-0.9,0.4c-0.2,0-0.5,0.1-0.7,0l0-0.4L67-14.2z"/>
			<g>
				<rect x="67.7" y="-12.7" class="st1" width="0.9" height="1"/>
				<rect x="67.7" y="-12.7" class="st17" width="0.9" height="0"/>
			</g>
			<g>
				<polygon class="st18" points="66.4,-13.8 65.4,-13.9 65.4,-13.1 66.4,-13.2 				"/>
				<g>
					<path class="st18" d="M66.3-13.6C66.3-13.6,66.3-13.6,66.3-13.6c0.3,0,0.5,0.1,0.6,0.2c0.2,0.1,0.6,0.8,0.8,0.7
						c0,0,0.1,0,0.1,0c0,0,0,0.1,0,0.1c-0.3,0.1-0.7-0.6-0.9-0.7c-0.1-0.1-0.3-0.1-0.6-0.2C66.3-13.4,66.3-13.5,66.3-13.6
						C66.3-13.5,66.3-13.6,66.3-13.6z"/>
				</g>
				<polygon class="st18" points="69.8,-10.9 70.8,-10.8 70.8,-11.5 69.8,-11.4 				"/>
				<g>
					<path class="st18" d="M68.1-12.4C68.2-12.4,68.2-12.4,68.1-12.4c0.1,0.3,1.1,1.2,1.9,1.2c0,0,0.1,0,0.1,0.1c0,0,0,0.1-0.1,0.1
						h0C69.3-11.1,68.2-11.8,68.1-12.4C68.1-12.3,68.1-12.4,68.1-12.4C68.1-12.4,68.1-12.4,68.1-12.4z"/>
				</g>
				<path class="st18" d="M67.7-12.4c0,0,0.4,0,0.4-0.3c-0.1,0-0.4,0-0.4,0V-12.4z"/>
				<path class="st18" d="M68.1-12.1c0,0-0.2-0.3-0.1-0.4c0.1,0,0.2-0.1,0.2,0C68.4-12.3,68.1-12.1,68.1-12.1z"/>
				<path class="st19" d="M67.8-12.8c-0.3,0.1-0.6-0.6-0.8-0.7c-0.1-0.1-0.3-0.1-0.6-0.2v0.1c0.3,0,0.4,0.1,0.6,0.2
					C67.1-13.3,67.5-12.6,67.8-12.8L67.8-12.8z"/>
				<polygon class="st19" points="69.8,-11.4 70.8,-11.6 70.8,-11.5 69.8,-11.4 				"/>
				<path class="st19" d="M68.2-12.4c0.1,0.3,1.1,1.2,1.9,1.1v0.1C69.2-11.1,68.3-12.1,68.2-12.4L68.2-12.4z"/>
				<path class="st19" d="M68.1-12.8c-0.1,0-0.4,0-0.4,0v0.1C67.7-12.7,68-12.7,68.1-12.8L68.1-12.8z"/>
				<path class="st19" d="M68.3-12.5c-0.1-0.1-0.1-0.1-0.2,0l0,0.1C68.2-12.5,68.2-12.5,68.3-12.5L68.3-12.5z"/>
			</g>
			<rect x="66" y="-10.4" class="st20" width="4.2" height="0.1"/>
			<path class="st21" d="M70.8-10.3v-3.8h-5.3l0,3.8C65.4-10.3,70.8-10.3,70.8-10.3z"/>
			<path class="st22" d="M70.7-11v0.3c0,0.1,0,0.3-0.1,0.3c-0.6,0-4.7,0-4.9,0c-0.2,0-0.2-0.1,0-0.1c0.1,0,3.9,0,4.3,0
				c0.5,0,0.5-0.1,0.5-0.2L70.7-11C70.6-11.2,70.7-11.2,70.7-11z"/>
			<path class="st23" d="M65.6-14c0-0.1,0-0.1,0.1-0.1c0.6,0,4.7,0,4.8,0c0.2,0,0.2,0.1,0,0.1c-0.1,0-3.1,0-3.6,0
				C66.3-14,65.6-14,65.6-14z"/>
			<path class="st18" d="M71.7-14.2h-0.8v0.5c0,0.1-0.1,0.2-0.2,0.3v3h1L71.7-14.2L71.7-14.2"/>
			<rect x="70.8" y="-10.4" class="st20" width="1" height="0.1"/>
			<path class="st18" d="M64.4-14.2L64.4-14.2v3.8h1.1v-3.5c-0.1-0.1-0.2-0.1-0.2-0.3v-0.1L64.4-14.2"/>
			<rect x="64.4" y="-10.4" class="st20" width="1.1" height="0.1"/>
		</g>
	</g>
	<g>
		<g id="led-0603_4_" transform="matrix(1, 0, 0, 1, 21.5539, 31.3385)">
			<line class="st14" x1="71.7" y1="-21.7" x2="64.5" y2="-21.7"/>
			<rect x="64.4" y="-21.7" class="st15" width="7.3" height="3.8"/>
			<path class="st16" d="M67-21.7c0,0-0.6,0.5-0.9,0.4c-0.2,0-0.5,0.1-0.7,0l0-0.4L67-21.7z"/>
			<g>
				<rect x="67.7" y="-20.2" class="st1" width="0.9" height="1"/>
				<rect x="67.7" y="-20.3" class="st17" width="0.9" height="0.1"/>
			</g>
			<g>
				<polygon class="st18" points="66.4,-21.3 65.4,-21.4 65.4,-20.6 66.4,-20.7 				"/>
				<g>
					<path class="st18" d="M66.3-21.1C66.3-21.1,66.3-21.1,66.3-21.1c0.3,0,0.5,0.1,0.6,0.2c0.2,0.1,0.6,0.8,0.8,0.7
						c0,0,0.1,0,0.1,0c0,0,0,0.1,0,0.1c-0.3,0.1-0.7-0.6-0.9-0.7c-0.1-0.1-0.3-0.1-0.6-0.2C66.3-21,66.3-21,66.3-21.1
						C66.3-21,66.3-21.1,66.3-21.1z"/>
				</g>
				<polygon class="st18" points="69.8,-18.4 70.8,-18.3 70.8,-19 69.8,-18.9 				"/>
				<g>
					<path class="st18" d="M68.1-19.9C68.2-19.9,68.2-19.9,68.1-19.9c0.1,0.3,1.1,1.2,1.9,1.2c0,0,0.1,0,0.1,0.1c0,0,0,0.1-0.1,0.1
						h0C69.3-18.6,68.2-19.3,68.1-19.9C68.1-19.9,68.1-19.9,68.1-19.9C68.1-19.9,68.1-19.9,68.1-19.9z"/>
				</g>
				<path class="st18" d="M67.7-19.9c0,0,0.4,0,0.4-0.3c-0.1,0-0.4,0-0.4,0V-19.9z"/>
				<path class="st18" d="M68.1-19.6c0,0-0.2-0.3-0.1-0.4c0.1-0.1,0.2-0.1,0.2,0C68.4-19.8,68.1-19.6,68.1-19.6z"/>
				<path class="st19" d="M67.8-20.3c-0.3,0.1-0.6-0.6-0.8-0.7c-0.1-0.1-0.3-0.1-0.6-0.2v0.1c0.3,0,0.4,0.1,0.6,0.2
					C67.1-20.8,67.5-20.1,67.8-20.3L67.8-20.3z"/>
				<polygon class="st19" points="69.8,-19 70.8,-19.1 70.8,-19 69.8,-18.9 				"/>
				<path class="st19" d="M68.2-19.9c0.1,0.3,1.1,1.2,1.9,1.1v0.1C69.2-18.6,68.3-19.6,68.2-19.9L68.2-19.9z"/>
				<path class="st19" d="M68.1-20.3c-0.1,0-0.4,0-0.4,0v0.1C67.7-20.2,68-20.2,68.1-20.3L68.1-20.3z"/>
				<path class="st19" d="M68.3-20c-0.1-0.1-0.1-0.1-0.2,0l0,0.1C68.2-20,68.2-20,68.3-20L68.3-20z"/>
			</g>
			<rect x="66" y="-17.9" class="st20" width="4.2" height="0.1"/>
			<path class="st21" d="M70.8-17.9v-3.8h-5.3l0,3.8C65.4-17.9,70.8-17.9,70.8-17.9z"/>
			<path class="st22" d="M70.7-18.5v0.3c0,0.1,0,0.3-0.1,0.3c-0.6,0-4.7,0-4.9,0c-0.2,0-0.2-0.1,0-0.1c0.1,0,3.9,0,4.3,0
				c0.5,0,0.5-0.1,0.5-0.2L70.7-18.5C70.6-18.7,70.7-18.7,70.7-18.5z"/>
			<path class="st23" d="M65.6-21.5c0-0.1,0-0.1,0.1-0.1c0.6,0,4.7,0,4.8,0c0.2,0,0.2,0.1,0,0.1c-0.1,0-3.1,0-3.6,0
				C66.3-21.5,65.6-21.5,65.6-21.5z"/>
			<path class="st18" d="M71.7-21.7h-0.8v0.5c0,0.1-0.1,0.2-0.2,0.3v3h1L71.7-21.7L71.7-21.7"/>
			<rect x="70.8" y="-17.9" class="st20" width="1" height="0.1"/>
			<path class="st18" d="M64.4-21.7L64.4-21.7v3.8h1.1v-3.5c-0.1-0.1-0.2-0.1-0.2-0.3v-0.1L64.4-21.7"/>
			<rect x="64.4" y="-17.9" class="st20" width="1.1" height="0.1"/>
		</g>
	</g>
	
		<rect x="39.4" y="16.2" transform="matrix(0.7071 -0.7071 0.7071 0.7071 -3.9992 42.1031)" class="st11" width="18.8" height="19.3"/>
	<g>
		<g>
			<circle class="st24" cx="15.7" cy="3.3" r="1.9"/>
			<path class="st13" d="M15.3,5.2c1,0,1.9-0.8,1.9-1.9s-0.8-1.9-1.9-1.9h0.3c1,0,1.9,0.8,1.9,1.9s-0.8,1.9-1.9,1.9H15.3z"/>
			<path class="st25" d="M16,1.4c-1,0-1.9,0.8-1.9,1.9S15,5.2,16,5.2h-0.3c-1,0-1.9-0.8-1.9-1.9s0.8-1.9,1.9-1.9
				C15.7,1.4,16,1.4,16,1.4z"/>
			<g>
				<rect x="14.9" y="2.5" class="st9" width="1.6" height="1.6"/>
				<rect x="16.3" y="2.5" class="st13" width="0.1" height="1.6"/>
				<rect x="14.9" y="2.5" class="st26" width="0.1" height="1.6"/>
			</g>
		</g>
		<g>
			<circle class="st24" cx="22.9" cy="3.3" r="1.9"/>
			<path class="st13" d="M22.5,5.2c1,0,1.9-0.8,1.9-1.9s-0.8-1.9-1.9-1.9h0.3c1,0,1.9,0.8,1.9,1.9s-0.8,1.9-1.9,1.9H22.5z"/>
			<path class="st25" d="M23.2,1.4c-1,0-1.9,0.8-1.9,1.9s0.8,1.9,1.9,1.9h-0.3c-1,0-1.9-0.8-1.9-1.9s0.8-1.9,1.9-1.9
				C22.9,1.4,23.2,1.4,23.2,1.4z"/>
			<g>
				<rect x="22.1" y="2.5" class="st9" width="1.6" height="1.6"/>
				<rect x="23.5" y="2.5" class="st13" width="0.1" height="1.6"/>
				<rect x="22.1" y="2.5" class="st26" width="0.1" height="1.6"/>
			</g>
		</g>
		<g>
			<circle class="st24" cx="30.1" cy="3.3" r="1.9"/>
			<path class="st13" d="M29.7,5.2c1,0,1.9-0.8,1.9-1.9s-0.8-1.9-1.9-1.9h0.3c1,0,1.9,0.8,1.9,1.9s-0.8,1.9-1.9,1.9
				C30.1,5.2,29.7,5.2,29.7,5.2z"/>
			<path class="st25" d="M30.4,1.4c-1,0-1.9,0.8-1.9,1.9s0.8,1.9,1.9,1.9h-0.3c-1,0-1.9-0.8-1.9-1.9s0.8-1.9,1.9-1.9
				C30.1,1.4,30.4,1.4,30.4,1.4z"/>
			<g>
				<rect x="29.3" y="2.5" class="st9" width="1.6" height="1.6"/>
				<rect x="30.7" y="2.5" class="st13" width="0.1" height="1.6"/>
				<rect x="29.3" y="2.5" class="st26" width="0.1" height="1.6"/>
			</g>
		</g>
		<g>
			<circle class="st24" cx="37.3" cy="3.3" r="1.9"/>
			<path class="st13" d="M36.9,5.2c1,0,1.9-0.8,1.9-1.9S38,1.4,36.9,1.4h0.3c1,0,1.9,0.8,1.9,1.9s-0.8,1.9-1.9,1.9H36.9z"/>
			<path class="st25" d="M37.6,1.4c-1,0-1.9,0.8-1.9,1.9s0.8,1.9,1.9,1.9h-0.3c-1,0-1.9-0.8-1.9-1.9s0.8-1.9,1.9-1.9
				C37.3,1.4,37.6,1.4,37.6,1.4z"/>
			<g>
				<rect x="36.5" y="2.5" class="st9" width="1.6" height="1.6"/>
				<rect x="37.9" y="2.5" class="st13" width="0.1" height="1.6"/>
				<rect x="36.5" y="2.5" class="st26" width="0.1" height="1.6"/>
			</g>
		</g>
		<g>
			<circle class="st24" cx="44.5" cy="3.3" r="1.9"/>
			<path class="st13" d="M44.1,5.2c1,0,1.9-0.8,1.9-1.9s-0.8-1.9-1.9-1.9h0.3c1,0,1.9,0.8,1.9,1.9s-0.8,1.9-1.9,1.9H44.1z"/>
			<path class="st25" d="M44.8,1.4c-1,0-1.9,0.8-1.9,1.9s0.8,1.9,1.9,1.9h-0.3c-1,0-1.9-0.8-1.9-1.9s0.8-1.9,1.9-1.9
				C44.5,1.4,44.8,1.4,44.8,1.4z"/>
			<g>
				<rect x="43.7" y="2.5" class="st9" width="1.6" height="1.6"/>
				<rect x="45.1" y="2.5" class="st13" width="0.1" height="1.6"/>
				<rect x="43.7" y="2.5" class="st26" width="0.1" height="1.6"/>
			</g>
		</g>
		<g>
			<circle class="st24" cx="51.7" cy="3.3" r="1.9"/>
			<path class="st13" d="M51.3,5.2c1,0,1.9-0.8,1.9-1.9s-0.8-1.9-1.9-1.9h0.3c1,0,1.9,0.8,1.9,1.9s-0.8,1.9-1.9,1.9H51.3z"/>
			<path class="st25" d="M52,1.4c-1,0-1.9,0.8-1.9,1.9S51,5.2,52,5.2h-0.3c-1,0-1.9-0.8-1.9-1.9s0.8-1.9,1.9-1.9
				C51.7,1.4,52,1.4,52,1.4z"/>
			<g>
				<rect x="50.9" y="2.5" class="st9" width="1.6" height="1.6"/>
				<rect x="52.3" y="2.5" class="st13" width="0.1" height="1.6"/>
				<rect x="50.9" y="2.5" class="st26" width="0.1" height="1.6"/>
			</g>
		</g>
		<g>
			<circle class="st24" cx="58.9" cy="3.3" r="1.9"/>
			<path class="st13" d="M58.5,5.2c1,0,1.9-0.8,1.9-1.9s-0.8-1.9-1.9-1.9h0.3c1,0,1.9,0.8,1.9,1.9s-0.8,1.9-1.9,1.9H58.5z"/>
			<path class="st25" d="M59.2,1.4c-1,0-1.9,0.8-1.9,1.9s0.8,1.9,1.9,1.9h-0.3c-1,0-1.9-0.8-1.9-1.9s0.8-1.9,1.9-1.9
				C58.9,1.4,59.2,1.4,59.2,1.4z"/>
			<g>
				<rect x="58.1" y="2.5" class="st9" width="1.6" height="1.6"/>
				<rect x="59.5" y="2.5" class="st13" width="0.1" height="1.6"/>
				<rect x="58.1" y="2.5" class="st26" width="0.1" height="1.6"/>
			</g>
		</g>
		<g>
			<circle class="st24" cx="66.1" cy="3.3" r="1.9"/>
			<path class="st13" d="M65.7,5.2c1,0,1.9-0.8,1.9-1.9s-0.8-1.9-1.9-1.9h0.3c1,0,1.9,0.8,1.9,1.9s-0.8,1.9-1.9,1.9
				C66.1,5.2,65.7,5.2,65.7,5.2z"/>
			<path class="st25" d="M66.4,1.4c-1,0-1.9,0.8-1.9,1.9s0.8,1.9,1.9,1.9h-0.3c-1,0-1.9-0.8-1.9-1.9s0.8-1.9,1.9-1.9
				C66.1,1.4,66.4,1.4,66.4,1.4z"/>
			<g>
				<rect x="65.3" y="2.5" class="st9" width="1.6" height="1.6"/>
				<rect x="66.7" y="2.5" class="st13" width="0.1" height="1.6"/>
				<rect x="65.3" y="2.5" class="st26" width="0.1" height="1.6"/>
			</g>
		</g>
		<g>
			<circle class="st24" cx="73.3" cy="3.3" r="1.9"/>
			<path class="st13" d="M72.9,5.2c1,0,1.9-0.8,1.9-1.9S74,1.4,72.9,1.4h0.3c1,0,1.9,0.8,1.9,1.9s-0.8,1.9-1.9,1.9H72.9z"/>
			<path class="st25" d="M73.6,1.4c-1,0-1.9,0.8-1.9,1.9s0.8,1.9,1.9,1.9h-0.3c-1,0-1.9-0.8-1.9-1.9s0.8-1.9,1.9-1.9
				C73.3,1.4,73.6,1.4,73.6,1.4z"/>
			<g>
				<rect x="72.5" y="2.5" class="st9" width="1.6" height="1.6"/>
				<rect x="73.9" y="2.5" class="st13" width="0.1" height="1.6"/>
				<rect x="72.5" y="2.5" class="st26" width="0.1" height="1.6"/>
			</g>
		</g>
		<g>
			<circle class="st24" cx="80.5" cy="3.3" r="1.9"/>
			<path class="st13" d="M80.1,5.2c1,0,1.9-0.8,1.9-1.9s-0.8-1.9-1.9-1.9h0.3c1,0,1.9,0.8,1.9,1.9s-0.8,1.9-1.9,1.9
				C80.5,5.2,80.1,5.2,80.1,5.2z"/>
			<path class="st25" d="M80.8,1.4c-1,0-1.9,0.8-1.9,1.9s0.8,1.9,1.9,1.9h-0.3c-1,0-1.9-0.8-1.9-1.9s0.8-1.9,1.9-1.9
				C80.5,1.4,80.8,1.4,80.8,1.4z"/>
			<g>
				<rect x="79.7" y="2.5" class="st9" width="1.6" height="1.6"/>
				<rect x="81.1" y="2.5" class="st13" width="0.1" height="1.6"/>
				<rect x="79.7" y="2.5" class="st26" width="0.1" height="1.6"/>
			</g>
		</g>
		<g>
			<circle class="st24" cx="87.7" cy="3.3" r="1.9"/>
			<path class="st13" d="M87.3,5.2c1,0,1.9-0.8,1.9-1.9s-0.8-1.9-1.9-1.9h0.3c1,0,1.9,0.8,1.9,1.9s-0.8,1.9-1.9,1.9H87.3z"/>
			<path class="st25" d="M88,1.4c-1,0-1.9,0.8-1.9,1.9S87,5.2,88,5.2h-0.3c-1,0-1.9-0.8-1.9-1.9s0.8-1.9,1.9-1.9
				C87.7,1.4,88,1.4,88,1.4z"/>
			<g>
				<rect x="86.9" y="2.5" class="st9" width="1.6" height="1.6"/>
				<rect x="88.3" y="2.5" class="st13" width="0.1" height="1.6"/>
				<rect x="86.9" y="2.5" class="st26" width="0.1" height="1.6"/>
			</g>
		</g>
		<g>
			<circle class="st24" cx="94.9" cy="3.3" r="1.9"/>
			<path class="st13" d="M94.5,5.2c1,0,1.9-0.8,1.9-1.9s-0.8-1.9-1.9-1.9h0.3c1,0,1.9,0.8,1.9,1.9s-0.8,1.9-1.9,1.9
				C94.9,5.2,94.5,5.2,94.5,5.2z"/>
			<path class="st25" d="M95.2,1.4c-1,0-1.9,0.8-1.9,1.9s0.8,1.9,1.9,1.9h-0.3c-1,0-1.9-0.8-1.9-1.9s0.8-1.9,1.9-1.9
				C94.9,1.4,95.2,1.4,95.2,1.4z"/>
			<g>
				<rect x="94.1" y="2.5" class="st9" width="1.6" height="1.6"/>
				<rect x="95.5" y="2.5" class="st13" width="0.1" height="1.6"/>
				<rect x="94.1" y="2.5" class="st26" width="0.1" height="1.6"/>
			</g>
		</g>
		<g>
			<circle class="st24" cx="102.1" cy="3.3" r="1.9"/>
			<path class="st13" d="M101.7,5.2c1,0,1.9-0.8,1.9-1.9s-0.8-1.9-1.9-1.9h0.3c1,0,1.9,0.8,1.9,1.9s-0.8,1.9-1.9,1.9H101.7z"/>
			<path class="st25" d="M102.4,1.4c-1,0-1.9,0.8-1.9,1.9s0.8,1.9,1.9,1.9h-0.3c-1,0-1.9-0.8-1.9-1.9s0.8-1.9,1.9-1.9
				C102.1,1.4,102.4,1.4,102.4,1.4z"/>
			<g>
				<rect x="101.3" y="2.5" class="st9" width="1.6" height="1.6"/>
				<rect x="102.7" y="2.5" class="st13" width="0.1" height="1.6"/>
				<rect x="101.3" y="2.5" class="st26" width="0.1" height="1.6"/>
			</g>
		</g>
		<g>
			<circle class="st24" cx="109.3" cy="3.3" r="1.9"/>
			<path class="st13" d="M108.9,5.2c1,0,1.9-0.8,1.9-1.9s-0.8-1.9-1.9-1.9h0.3c1,0,1.9,0.8,1.9,1.9s-0.8,1.9-1.9,1.9H108.9z"/>
			<path class="st25" d="M109.6,1.4c-1,0-1.9,0.8-1.9,1.9s0.8,1.9,1.9,1.9h-0.3c-1,0-1.9-0.8-1.9-1.9s0.8-1.9,1.9-1.9
				C109.3,1.4,109.6,1.4,109.6,1.4z"/>
			<g>
				<rect x="108.5" y="2.5" class="st9" width="1.6" height="1.6"/>
				<rect x="109.9" y="2.5" class="st13" width="0.1" height="1.6"/>
				<rect x="108.5" y="2.5" class="st26" width="0.1" height="1.6"/>
			</g>
		</g>
		<g>
			<circle class="st24" cx="116.5" cy="3.3" r="1.9"/>
			<path class="st13" d="M116.1,5.2c1,0,1.9-0.8,1.9-1.9s-0.8-1.9-1.9-1.9h0.3c1,0,1.9,0.8,1.9,1.9s-0.8,1.9-1.9,1.9H116.1z"/>
			<path class="st25" d="M116.8,1.4c-1,0-1.9,0.8-1.9,1.9s0.8,1.9,1.9,1.9h-0.3c-1,0-1.9-0.8-1.9-1.9s0.8-1.9,1.9-1.9
				C116.5,1.4,116.8,1.4,116.8,1.4z"/>
			<g>
				<rect x="115.7" y="2.5" class="st9" width="1.6" height="1.6"/>
				<rect x="117.1" y="2.5" class="st13" width="0.1" height="1.6"/>
				<rect x="115.7" y="2.5" class="st26" width="0.1" height="1.6"/>
			</g>
		</g>
	</g>
	<g>
		<g>
			<circle class="st24" cx="15.7" cy="46.6" r="1.9"/>
			<path class="st13" d="M15.4,48.4c1,0,1.9-0.8,1.9-1.9s-0.8-1.9-1.9-1.9h0.3c1,0,1.9,0.8,1.9,1.9s-0.8,1.9-1.9,1.9H15.4z"/>
			<path class="st25" d="M16,44.7c-1,0-1.9,0.8-1.9,1.9s0.8,1.9,1.9,1.9h-0.3c-1,0-1.9-0.8-1.9-1.9s0.8-1.9,1.9-1.9H16z"/>
			<g>
				<rect x="14.9" y="45.8" class="st9" width="1.6" height="1.6"/>
				<rect x="16.4" y="45.8" class="st13" width="0.1" height="1.6"/>
				<rect x="14.9" y="45.8" class="st26" width="0.1" height="1.6"/>
			</g>
		</g>
		<g>
			<circle class="st24" cx="22.9" cy="46.6" r="1.9"/>
			<path class="st13" d="M22.6,48.4c1,0,1.9-0.8,1.9-1.9s-0.8-1.9-1.9-1.9h0.3c1,0,1.9,0.8,1.9,1.9s-0.8,1.9-1.9,1.9H22.6z"/>
			<path class="st25" d="M23.2,44.7c-1,0-1.9,0.8-1.9,1.9s0.8,1.9,1.9,1.9h-0.3c-1,0-1.9-0.8-1.9-1.9s0.8-1.9,1.9-1.9H23.2z"/>
			<g>
				<rect x="22.1" y="45.8" class="st9" width="1.6" height="1.6"/>
				<rect x="23.6" y="45.8" class="st13" width="0.1" height="1.6"/>
				<rect x="22.1" y="45.8" class="st26" width="0.1" height="1.6"/>
			</g>
		</g>
		<g>
			<circle class="st24" cx="30.1" cy="46.6" r="1.9"/>
			<path class="st13" d="M29.8,48.4c1,0,1.9-0.8,1.9-1.9s-0.8-1.9-1.9-1.9h0.3c1,0,1.9,0.8,1.9,1.9s-0.8,1.9-1.9,1.9H29.8z"/>
			<path class="st25" d="M30.4,44.7c-1,0-1.9,0.8-1.9,1.9s0.8,1.9,1.9,1.9h-0.3c-1,0-1.9-0.8-1.9-1.9s0.8-1.9,1.9-1.9H30.4z"/>
			<g>
				<rect x="29.3" y="45.8" class="st9" width="1.6" height="1.6"/>
				<rect x="30.8" y="45.8" class="st13" width="0.1" height="1.6"/>
				<rect x="29.3" y="45.8" class="st26" width="0.1" height="1.6"/>
			</g>
		</g>
		<g>
			<circle class="st24" cx="37.3" cy="46.6" r="1.9"/>
			<path class="st13" d="M37,48.4c1,0,1.9-0.8,1.9-1.9S38,44.7,37,44.7h0.3c1,0,1.9,0.8,1.9,1.9s-0.8,1.9-1.9,1.9H37z"/>
			<path class="st25" d="M37.6,44.7c-1,0-1.9,0.8-1.9,1.9s0.8,1.9,1.9,1.9h-0.3c-1,0-1.9-0.8-1.9-1.9s0.8-1.9,1.9-1.9H37.6z"/>
			<g>
				<rect x="36.5" y="45.8" class="st9" width="1.6" height="1.6"/>
				<rect x="38" y="45.8" class="st13" width="0.1" height="1.6"/>
				<rect x="36.5" y="45.8" class="st26" width="0.1" height="1.6"/>
			</g>
		</g>
		<g>
			<circle class="st24" cx="44.5" cy="46.6" r="1.9"/>
			<path class="st13" d="M44.2,48.4c1,0,1.9-0.8,1.9-1.9s-0.8-1.9-1.9-1.9h0.3c1,0,1.9,0.8,1.9,1.9s-0.8,1.9-1.9,1.9H44.2z"/>
			<path class="st25" d="M44.8,44.7c-1,0-1.9,0.8-1.9,1.9s0.8,1.9,1.9,1.9h-0.3c-1,0-1.9-0.8-1.9-1.9s0.8-1.9,1.9-1.9H44.8z"/>
			<g>
				<rect x="43.7" y="45.8" class="st9" width="1.6" height="1.6"/>
				<rect x="45.2" y="45.8" class="st13" width="0.1" height="1.6"/>
				<rect x="43.7" y="45.8" class="st26" width="0.1" height="1.6"/>
			</g>
		</g>
		<g>
			<circle class="st24" cx="51.7" cy="46.6" r="1.9"/>
			<path class="st13" d="M51.4,48.4c1,0,1.9-0.8,1.9-1.9s-0.8-1.9-1.9-1.9h0.3c1,0,1.9,0.8,1.9,1.9s-0.8,1.9-1.9,1.9H51.4z"/>
			<path class="st25" d="M52,44.7c-1,0-1.9,0.8-1.9,1.9s0.8,1.9,1.9,1.9h-0.3c-1,0-1.9-0.8-1.9-1.9s0.8-1.9,1.9-1.9H52z"/>
			<g>
				<rect x="50.9" y="45.8" class="st9" width="1.6" height="1.6"/>
				<rect x="52.4" y="45.8" class="st13" width="0.1" height="1.6"/>
				<rect x="50.9" y="45.8" class="st26" width="0.1" height="1.6"/>
			</g>
		</g>
		<g>
			<circle class="st24" cx="58.9" cy="46.6" r="1.9"/>
			<path class="st13" d="M58.6,48.4c1,0,1.9-0.8,1.9-1.9s-0.8-1.9-1.9-1.9h0.3c1,0,1.9,0.8,1.9,1.9s-0.8,1.9-1.9,1.9H58.6z"/>
			<path class="st25" d="M59.2,44.7c-1,0-1.9,0.8-1.9,1.9s0.8,1.9,1.9,1.9h-0.3c-1,0-1.9-0.8-1.9-1.9s0.8-1.9,1.9-1.9H59.2z"/>
			<g>
				<rect x="58.1" y="45.8" class="st9" width="1.6" height="1.6"/>
				<rect x="59.6" y="45.8" class="st13" width="0.1" height="1.6"/>
				<rect x="58.1" y="45.8" class="st26" width="0.1" height="1.6"/>
			</g>
		</g>
		<g>
			<circle class="st24" cx="66.1" cy="46.6" r="1.9"/>
			<path class="st13" d="M65.8,48.4c1,0,1.9-0.8,1.9-1.9s-0.8-1.9-1.9-1.9h0.3c1,0,1.9,0.8,1.9,1.9s-0.8,1.9-1.9,1.9H65.8z"/>
			<path class="st25" d="M66.4,44.7c-1,0-1.9,0.8-1.9,1.9s0.8,1.9,1.9,1.9h-0.3c-1,0-1.9-0.8-1.9-1.9s0.8-1.9,1.9-1.9H66.4z"/>
			<g>
				<rect x="65.3" y="45.8" class="st9" width="1.6" height="1.6"/>
				<rect x="66.8" y="45.8" class="st13" width="0.1" height="1.6"/>
				<rect x="65.3" y="45.8" class="st26" width="0.1" height="1.6"/>
			</g>
		</g>
		<g>
			<circle class="st24" cx="73.3" cy="46.6" r="1.9"/>
			<path class="st13" d="M73,48.4c1,0,1.9-0.8,1.9-1.9S74,44.7,73,44.7h0.3c1,0,1.9,0.8,1.9,1.9s-0.9,1.9-1.9,1.9H73z"/>
			<path class="st25" d="M73.6,44.7c-1,0-1.9,0.8-1.9,1.9s0.8,1.9,1.9,1.9h-0.3c-1,0-1.9-0.8-1.9-1.9s0.8-1.9,1.9-1.9H73.6z"/>
			<g>
				<rect x="72.5" y="45.8" class="st9" width="1.6" height="1.6"/>
				<rect x="74" y="45.8" class="st13" width="0.1" height="1.6"/>
				<rect x="72.5" y="45.8" class="st26" width="0.1" height="1.6"/>
			</g>
		</g>
		<g>
			<circle class="st24" cx="80.5" cy="46.6" r="1.9"/>
			<path class="st13" d="M80.2,48.4c1,0,1.9-0.8,1.9-1.9s-0.8-1.9-1.9-1.9h0.3c1,0,1.9,0.8,1.9,1.9s-0.8,1.9-1.9,1.9H80.2z"/>
			<path class="st25" d="M80.8,44.7c-1,0-1.9,0.8-1.9,1.9s0.8,1.9,1.9,1.9h-0.3c-1,0-1.9-0.8-1.9-1.9s0.8-1.9,1.9-1.9H80.8z"/>
			<g>
				<rect x="79.7" y="45.8" class="st9" width="1.6" height="1.6"/>
				<rect x="81.2" y="45.8" class="st13" width="0.1" height="1.6"/>
				<rect x="79.7" y="45.8" class="st26" width="0.1" height="1.6"/>
			</g>
		</g>
		<g>
			<circle class="st24" cx="87.7" cy="46.6" r="1.9"/>
			<path class="st13" d="M87.4,48.4c1,0,1.9-0.8,1.9-1.9s-0.8-1.9-1.9-1.9h0.3c1,0,1.9,0.8,1.9,1.9s-0.8,1.9-1.9,1.9H87.4z"/>
			<path class="st25" d="M88,44.7c-1,0-1.9,0.8-1.9,1.9s0.8,1.9,1.9,1.9h-0.3c-1,0-1.9-0.8-1.9-1.9s0.8-1.9,1.9-1.9H88z"/>
			<g>
				<rect x="86.9" y="45.8" class="st9" width="1.6" height="1.6"/>
				<rect x="88.4" y="45.8" class="st13" width="0.1" height="1.6"/>
				<rect x="86.9" y="45.8" class="st26" width="0.1" height="1.6"/>
			</g>
		</g>
		<g>
			<circle class="st24" cx="94.9" cy="46.6" r="1.9"/>
			<path class="st13" d="M94.6,48.4c1,0,1.9-0.8,1.9-1.9s-0.8-1.9-1.9-1.9h0.3c1,0,1.9,0.8,1.9,1.9s-0.8,1.9-1.9,1.9H94.6z"/>
			<path class="st25" d="M95.2,44.7c-1,0-1.9,0.8-1.9,1.9s0.8,1.9,1.9,1.9h-0.3c-1,0-1.9-0.8-1.9-1.9s0.8-1.9,1.9-1.9H95.2z"/>
			<g>
				<rect x="94.1" y="45.8" class="st9" width="1.6" height="1.6"/>
				<rect x="95.6" y="45.8" class="st13" width="0.1" height="1.6"/>
				<rect x="94.1" y="45.8" class="st26" width="0.1" height="1.6"/>
			</g>
		</g>
		<g>
			<circle class="st24" cx="102.1" cy="46.6" r="1.9"/>
			<path class="st13" d="M101.8,48.4c1,0,1.9-0.8,1.9-1.9s-0.8-1.9-1.9-1.9h0.3c1,0,1.9,0.8,1.9,1.9s-0.8,1.9-1.9,1.9H101.8z"/>
			<path class="st25" d="M102.4,44.7c-1,0-1.9,0.8-1.9,1.9s0.8,1.9,1.9,1.9h-0.3c-1,0-1.9-0.8-1.9-1.9s0.8-1.9,1.9-1.9H102.4z"/>
			<g>
				<rect x="101.3" y="45.8" class="st9" width="1.6" height="1.6"/>
				<rect x="102.8" y="45.8" class="st13" width="0.1" height="1.6"/>
				<rect x="101.3" y="45.8" class="st26" width="0.1" height="1.6"/>
			</g>
		</g>
		<g>
			<circle class="st24" cx="109.3" cy="46.6" r="1.9"/>
			<path class="st13" d="M109,48.4c1,0,1.9-0.8,1.9-1.9s-0.8-1.9-1.9-1.9h0.3c1,0,1.9,0.8,1.9,1.9s-0.8,1.9-1.9,1.9H109z"/>
			<path class="st25" d="M109.6,44.7c-1,0-1.9,0.8-1.9,1.9s0.8,1.9,1.9,1.9h-0.3c-1,0-1.9-0.8-1.9-1.9s0.8-1.9,1.9-1.9H109.6z"/>
			<g>
				<rect x="108.5" y="45.8" class="st9" width="1.6" height="1.6"/>
				<rect x="110" y="45.8" class="st13" width="0.1" height="1.6"/>
				<rect x="108.5" y="45.8" class="st26" width="0.1" height="1.6"/>
			</g>
		</g>
		<g>
			<circle class="st24" cx="116.5" cy="46.6" r="1.9"/>
			<path class="st13" d="M116.2,48.4c1,0,1.9-0.8,1.9-1.9s-0.8-1.9-1.9-1.9h0.3c1,0,1.9,0.8,1.9,1.9s-0.8,1.9-1.9,1.9H116.2z"/>
			<path class="st25" d="M116.8,44.7c-1,0-1.9,0.8-1.9,1.9s0.8,1.9,1.9,1.9h-0.3c-1,0-1.9-0.8-1.9-1.9s0.8-1.9,1.9-1.9H116.8z"/>
			<g>
				<rect x="115.7" y="45.8" class="st9" width="1.6" height="1.6"/>
				<rect x="117.2" y="45.8" class="st13" width="0.1" height="1.6"/>
				<rect x="115.7" y="45.8" class="st26" width="0.1" height="1.6"/>
			</g>
		</g>
	</g>
	<g>
		<path class="st1" d="M108.6,9.6C108.6,9.6,108.6,9.6,108.6,9.6h2c0.1,0,0.2,0.1,0.3,0.2c0.1,0.1,0.1,0.2,0,0.3l-1,1.5
			c-0.1,0.2-0.4,0.2-0.6,0l-0.9-1.4c-0.1-0.1-0.1-0.2-0.1-0.3C108.3,9.7,108.4,9.6,108.6,9.6z"/>
	</g>
	<g>
		<path class="st1" d="M117.4,11.7C117.4,11.7,117.4,11.7,117.4,11.7h-2c-0.1,0-0.2-0.1-0.3-0.2c-0.1-0.1-0.1-0.2,0-0.3l1-1.5
			c0.1-0.2,0.4-0.2,0.6,0l0.9,1.4c0.1,0.1,0.1,0.1,0.1,0.3C117.8,11.5,117.6,11.7,117.4,11.7z"/>
	</g>
	<g id="con2_usb_micro_b_at_2_" transform="matrix(1, 0, 0, 1, 14.5557, 123.449)">
		<g id="con2_usb_micro_b_at_3_" transform="matrix(1, 0, 0, 1, 18.6038, 120.082)">
			<rect x="-27.3" y="-208.7" class="st9" width="7.2" height="5.4"/>
			<rect x="-11.7" y="-208.7" class="st9" width="7.1" height="5.4"/>
			<rect x="-27.3" y="-233.9" class="st9" width="7.2" height="5.4"/>
			<rect x="-27.3" y="-208.7" class="st15" width="0.2" height="5.4"/>
			<rect x="-27.3" y="-233.9" class="st15" width="0.2" height="5.4"/>
			<rect x="-20.4" y="-208.7" class="st10" width="0.2" height="5.4"/>
			<rect x="-20.4" y="-233.9" class="st10" width="0.2" height="5.4"/>
			<rect x="-11.7" y="-233.9" class="st9" width="7.1" height="5.4"/>
			<rect x="-11.7" y="-208.7" class="st15" width="0.2" height="5.4"/>
			<rect x="-11.7" y="-233.9" class="st15" width="0.2" height="5.4"/>
			<g>
				<rect x="-7.8" y="-223.9" class="st27" width="3" height="1.3"/>
				<rect x="-7.6" y="-223.9" class="st28" width="2.8" height="0.1"/>
			</g>
			<g>
				<rect x="-7.8" y="-221.6" class="st27" width="3" height="1.3"/>
				<rect x="-7.6" y="-221.6" class="st28" width="2.8" height="0.1"/>
			</g>
			<g>
				<rect x="-7.8" y="-219.3" class="st27" width="3" height="1.3"/>
				<rect x="-7.6" y="-219.3" class="st28" width="2.8" height="0.1"/>
			</g>
			<g>
				<rect x="-7.8" y="-216.9" class="st27" width="3" height="1.3"/>
				<rect x="-7.6" y="-216.9" class="st28" width="2.8" height="0.1"/>
			</g>
			<g>
				<rect x="-7.8" y="-214.6" class="st27" width="3" height="1.3"/>
				<rect x="-7.6" y="-214.6" class="st28" width="2.8" height="0.1"/>
			</g>
			<g>
				<polygon class="st17" points="-32.9,-208 -32.9,-229.2 -7.5,-229.2 -7.5,-208 				"/>
				<rect x="-7.6" y="-229.2" class="st9" width="0.1" height="21.2"/>
				<rect x="-31.3" y="-227.6" class="st12" width="23.8" height="17.9"/>
				<path class="st9" d="M-8.1-229.5l0.6,0.3v2.9c0,0-0.1-2.6-0.3-2.7c-0.2-0.1-0.3,0.1-0.3,0.1L-8.1-229.5
					C-8.1-229.5-8.1-229.5-8.1-229.5z"/>
				<path class="st9" d="M-8.1-207.8l0.6-0.3v-2.9c0,0-0.1,2.6-0.3,2.7c-0.2,0.1-0.3-0.1-0.3-0.1L-8.1-207.8L-8.1-207.8z"/>
				<path class="st24" d="M-32.9-207.8h25.4v-6.1h-0.6v-9.4h0.6v-6.1h-25.4V-207.8z M-20.4-211.4c0.1,0,0.2,0.1,0.2,0.2v0.7
					c0,0.1-0.1,0.2-0.2,0.2h-6.7c-0.1,0-0.2-0.1-0.2-0.2v-0.7c0-0.1,0.1-0.2,0.2-0.2H-20.4z M-30.3-215.6v-0.2
					c0-0.1,0.1-0.3,0.2-0.3l9.9-0.6c0.1,0,0.2-0.1,0.2-0.3v-3.7c0-0.1-0.1-0.3-0.2-0.3l-9.9-0.6c-0.1,0-0.2-0.1-0.2-0.3v-0.2
					c0-0.1,0.1-0.2,0.2-0.2l12.5,0.7c0.1,0,0.2,0.1,0.2,0.3v4.7c0,0.1-0.1,0.3-0.2,0.3l-12.5,0.7C-30.2-215.3-30.3-215.4-30.3-215.6
					z M-29.3-211.8l-0.9-0.9c-0.1-0.1-0.2-0.3-0.2-0.4v-0.6c0-0.1,0.1-0.2,0.2-0.2h9.6c0.1,0,0.2,0.1,0.2,0.2v0.6
					c0,0.1-0.1,0.2-0.2,0.2h-7.2c-0.1,0-0.3,0.1-0.4,0.2l-0.9,0.9C-29-211.7-29.2-211.7-29.3-211.8z M-11.1-225.7
					c0.1,0,0.2,0.1,0.2,0.2v13.2c0,0.1-0.1,0.2-0.2,0.2H-12c-0.1,0-0.2-0.1-0.2-0.2v-13.2c0-0.1,0.1-0.2,0.2-0.2H-11.1z
					 M-28.9-225.8l0.9,0.9c0.1,0.1,0.3,0.2,0.4,0.2h7.2c0.1,0,0.2,0.1,0.2,0.2v0.6c0,0.1-0.1,0.2-0.2,0.2h-9.6
					c-0.1,0-0.2-0.1-0.2-0.2v-0.6c0-0.1,0.1-0.3,0.2-0.4l0.9-0.9C-29.2-225.9-29-225.9-28.9-225.8z M-20.4-227.4
					c0.1,0,0.2,0.1,0.2,0.2v0.7c0,0.1-0.1,0.2-0.2,0.2h-6.7c-0.1,0-0.2-0.1-0.2-0.2v-0.7c0-0.1,0.1-0.2,0.2-0.2H-20.4L-20.4-227.4z"
					/>
				<polygon class="st15" points="-32.9,-229 -32.9,-229.5 -7.5,-229.5 -7.5,-227.8 				"/>
				<polygon class="st15" points="-32.9,-207.8 -14.3,-208.4 -7.5,-209.1 -7.5,-207.8 				"/>
				<polyline class="st15" points="-32.5,-207.8 -32.9,-207.8 -32.9,-229.5 -32.5,-229.5 				"/>
			</g>
		</g>
	</g>
	<g id="_x32_x03" transform="matrix(1, 0, 0, 1, 185.784, 64.2515)">
		<g transform="matrix(0, -1, 1, 0, 3.52001, 17.793)">
			<g>
				<polygon class="st29" points="46.5,-75.1 46.5,-71.2 46.5,-67.8 46.5,-63.9 48,-62.4 51.9,-62.4 53.4,-63.9 53.4,-67.8 
					53.4,-71.2 53.4,-75.1 51.9,-76.6 48,-76.6 				"/>
				<polygon class="st29" points="53.7,-75.1 53.7,-71.2 53.7,-67.8 53.7,-63.9 55.2,-62.4 59.1,-62.4 60.6,-63.9 60.6,-67.8 
					60.6,-71.2 60.6,-75.1 59.1,-76.6 55.2,-76.6 				"/>
				<polygon class="st29" points="60.8,-75.1 60.8,-71.2 60.8,-67.8 60.8,-63.9 62.4,-62.4 66.3,-62.4 67.8,-63.9 67.8,-67.8 
					67.8,-71.2 67.8,-75.1 66.3,-76.6 62.4,-76.6 				"/>
				<polygon class="st29" points="46.5,-75.1 46.5,-71.2 46.5,-67.8 46.5,-63.9 48,-62.4 51.9,-62.4 53.4,-63.9 53.4,-67.8 
					53.4,-71.2 53.4,-75.1 51.9,-76.6 48,-76.6 				"/>
				<polygon class="st29" points="53.7,-75.1 53.7,-71.2 53.7,-67.8 53.7,-63.9 55.2,-62.4 59.1,-62.4 60.6,-63.9 60.6,-67.8 
					60.6,-71.2 60.6,-75.1 59.1,-76.6 55.2,-76.6 				"/>
				<polygon class="st29" points="60.8,-75.1 60.8,-71.2 60.8,-67.8 60.8,-63.9 62.4,-62.4 66.3,-62.4 67.8,-63.9 67.8,-67.8 
					67.8,-71.2 67.8,-75.1 66.3,-76.6 62.4,-76.6 				"/>
				
					<rect x="63" y="-67.1" transform="matrix(-2.535182e-06 -1 1 -2.535182e-06 130.1418 -1.7582)" class="st30" width="2.3" height="2.3"/>
				
					<rect x="63" y="-74.3" transform="matrix(-2.535182e-06 -1 1 -2.535182e-06 137.3427 -8.9553)" class="st30" width="2.3" height="2.3"/>
				
					<rect x="55.8" y="-67.1" transform="matrix(-2.535182e-06 -1 1 -2.535182e-06 122.9433 -8.9577)" class="st30" width="2.3" height="2.3"/>
				
					<rect x="55.8" y="-74.3" transform="matrix(-2.535182e-06 -1 1 -2.535182e-06 130.1417 -16.1562)" class="st30" width="2.3" height="2.3"/>
				
					<rect x="48.6" y="-67.1" transform="matrix(-2.535182e-06 -1 1 -2.535182e-06 115.7446 -16.1567)" class="st30" width="2.3" height="2.3"/>
				
					<rect x="48.6" y="-74.3" transform="matrix(-2.535182e-06 -1 1 -2.535182e-06 122.9441 -23.3542)" class="st31" width="2.3" height="2.3"/>
				
					<rect x="49.2" y="-73.7" transform="matrix(-2.535182e-06 -1 1 -2.535182e-06 122.9455 -23.3562)" class="st32" width="1.2" height="1.2"/>
				<polygon class="st33" points="48.6,-72 49.2,-72.6 49.2,-73.7 48.6,-74.3 				"/>
				<polygon class="st34" points="50.4,-73.7 49.2,-73.7 48.6,-74.3 50.9,-74.3 				"/>
				<polygon class="st35" points="50.4,-72.6 50.4,-73.7 50.9,-74.3 50.9,-72 				"/>
				<polygon class="st36" points="48.6,-72 49.2,-72.6 50.4,-72.6 50.9,-72 				"/>
				
					<rect x="49.2" y="-66.5" transform="matrix(-2.535182e-06 -1 1 -2.535182e-06 115.7451 -16.1552)" class="st32" width="1.2" height="1.2"/>
				<polygon class="st33" points="48.6,-64.8 49.2,-65.4 49.2,-66.5 48.6,-67.1 				"/>
				<polygon class="st34" points="50.4,-66.5 49.2,-66.5 48.6,-67.1 50.9,-67.1 				"/>
				<polygon class="st35" points="50.4,-65.4 50.4,-66.5 50.9,-67.1 50.9,-64.8 				"/>
				<polygon class="st36" points="48.6,-64.8 49.2,-65.4 50.4,-65.4 50.9,-64.8 				"/>
				
					<rect x="56.4" y="-73.7" transform="matrix(-2.535182e-06 -1 1 -2.535182e-06 130.144 -16.1577)" class="st32" width="1.2" height="1.2"/>
				<polygon class="st33" points="55.8,-72 56.4,-72.6 56.4,-73.7 55.8,-74.3 				"/>
				<polygon class="st34" points="57.6,-73.7 56.4,-73.7 55.8,-74.3 58.1,-74.3 				"/>
				<polygon class="st35" points="57.6,-72.6 57.6,-73.7 58.1,-74.3 58.1,-72 				"/>
				<polygon class="st36" points="55.8,-72 56.4,-72.6 57.6,-72.6 58.1,-72 				"/>
				
					<rect x="56.4" y="-66.5" transform="matrix(-2.535182e-06 -1 1 -2.535182e-06 122.9427 -8.9566)" class="st32" width="1.2" height="1.2"/>
				<polygon class="st33" points="55.8,-64.8 56.4,-65.4 56.4,-66.5 55.8,-67.1 				"/>
				<polygon class="st34" points="57.6,-66.5 56.4,-66.5 55.8,-67.1 58.1,-67.1 				"/>
				<polygon class="st35" points="57.6,-65.4 57.6,-66.5 58.1,-67.1 58.1,-64.8 				"/>
				<polygon class="st36" points="55.8,-64.8 56.4,-65.4 57.6,-65.4 58.1,-64.8 				"/>
				
					<rect x="63.6" y="-73.7" transform="matrix(-2.535182e-06 -1 1 -2.535182e-06 137.3456 -8.9568)" class="st32" width="1.2" height="1.2"/>
				<polygon class="st33" points="63,-72 63.6,-72.6 63.6,-73.7 63,-74.3 				"/>
				<polygon class="st34" points="64.8,-73.7 63.6,-73.7 63,-74.3 65.3,-74.3 				"/>
				<polygon class="st35" points="64.8,-72.6 64.8,-73.7 65.3,-74.3 65.3,-72 				"/>
				<polygon class="st36" points="63,-72 63.6,-72.6 64.8,-72.6 65.3,-72 				"/>
				
					<rect x="63.6" y="-66.5" transform="matrix(-2.535182e-06 -1 1 -2.535182e-06 130.1447 -1.7563)" class="st32" width="1.2" height="1.2"/>
				<polygon class="st33" points="63,-64.8 63.6,-65.4 63.6,-66.5 63,-67.1 				"/>
				<polygon class="st34" points="64.8,-66.5 63.6,-66.5 63,-67.1 65.3,-67.1 				"/>
				<polygon class="st35" points="64.8,-65.4 64.8,-66.5 65.3,-67.1 65.3,-64.8 				"/>
				<polygon class="st36" points="63,-64.8 63.6,-65.4 64.8,-65.4 65.3,-64.8 				"/>
			</g>
		</g>
	</g>
</g>
</svg>
