<?xml version="1.0" encoding="utf-8"?>
<!-- Generator: Adobe Illustrator 24.3.0, SVG Export Plug-In . SVG Version: 6.00 Build 0)  -->
<svg version="1.1" id="Layer_1" xmlns:svg="http://www.w3.org/2000/svg"
	 xmlns="http://www.w3.org/2000/svg" xmlns:xlink="http://www.w3.org/1999/xlink" x="0px" y="0px" viewBox="0 0 29.2 65.3"
	 style="enable-background:new 0 0 29.2 65.3;" xml:space="preserve">
<style type="text/css">
	.st0{fill:none;stroke:#8C8C8C;stroke-width:2.5;stroke-linecap:round;stroke-linejoin:round;}
	.st1{fill:#CCCCCC;}
	.st2{fill:#8F0000;}
	.st3{fill:#8C8C8C;}
	.st4{opacity:0.2;enable-background:new    ;}
	.st5{opacity:0.8;fill:#FFFFFF;enable-background:new    ;}
</style>
<path class="st0" d="M25.1,11.1v51.8"/>
<path class="st0" d="M4.1,11.1v51.8"/>
<g id="connector0leg">
</g>
<g id="connector1leg">
</g>
<g>
	<path d="M0,9.7c0,3.8,1.9,7.3,4.9,9.7h19.3c3-2.4,5-5.8,5-9.7c0-3.8-1.9-7.3-5-9.7H4.9C1.9,2.4,0,5.8,0,9.7z"/>
	<rect x="4.9" width="19.3" height="19.3"/>
	<path class="st1" d="M24.3,18.2c0,0-4.7,0.4-9.7,0.4s-9.7-0.4-9.7-0.4s-0.4-4.1-0.4-8.6c0-4.4,0.4-8.6,0.4-8.6s4.7-0.4,9.7-0.4
		c5,0,9.7,0.4,9.7,0.4s0.5,4.1,0.5,8.6C24.7,14.1,24.3,18.2,24.3,18.2z"/>
	<path class="st2" d="M23.2,2.4l-0.1-0.3L22.8,2c0,0-4-0.6-8.2-0.6c-2.2,0-4.3,0.2-5.7,0.3C7.5,1.9,6.8,1.9,6.4,2
		c-0.1,0-0.2,0-0.3,0.1C6,2.2,6,2.3,6,2.4c-0.1,0.3-0.2,1-0.4,2.2C5.5,5.6,5.3,7.5,5.3,9.7c0,3.8,0.6,7.2,0.6,7.3L6,17.2l0.4,0.1
		c0,0,3.9,0.6,8.2,0.6c4.3,0,8.2-0.6,8.2-0.6l0.4-0.1l0.1-0.3c0,0,0.6-3.5,0.6-7.3S23.2,2.4,23.2,2.4z M6.9,16.4
		c-0.2-0.9-0.6-3.7-0.6-6.8c0-3.2,0.4-6,0.5-6.8c0.4,0,1.1-0.1,1.9-0.2c0,0.1,0,0.1,0,0.2c0,0.5,0.4,1.5,0.4,1.6
		c0.1,0.2,0.3,0.3,0.6,0.3c0,0,2.3-0.4,4.8-0.4c2.4,0,4.5,0.4,4.8,0.4c0,0,0,0,0,0.1c0,0.2-0.1,0.5-0.2,0.7
		c-0.6-0.1-1.6-0.2-2.9-0.2c-1.8,0-3.5,0.3-3.5,0.3c-0.1,0-0.3,0.1-0.4,0.2c0,0.1-0.2,0.3-0.2,0.9c0,0.5,0.1,1.1,0.1,1.2
		c0,0.1,0.1,0.2,0.2,0.3c0.1,0.1,0.3,0.1,0.4,0.1c0,0,0.8-0.1,1.6-0.1c0.5,0,1,0.1,1.3,0.1c0,0.1,0,0.3,0,0.4c0,0.2,0,0.4,0,0.5
		h-1.3h-1.7c-0.2,0-0.4,0.1-0.5,0.3c0,0-0.2,0.5-0.2,1.1c0,0.5,0.1,0.9,0.2,1c0.1,0.2,0.2,0.3,0.4,0.3c0,0,0.9,0.1,1.8,0.1
		c0.5,0,1,0,1.3-0.1c0,0.2,0.1,0.4,0.1,0.6c0,0.1,0,0.2,0,0.3c-0.6,0.1-1.8,0.2-3,0.2c-1.7,0-3.1-0.3-3.1-0.3c-0.2,0-0.4,0-0.5,0.2
		c0,0-0.5,0.6-0.5,1.2c0,0.6,0.4,1.1,0.5,1.2c0.1,0.1,0.2,0.1,0.3,0.2c0.1,0,2.4,0.4,5,0.4c2,0,3.8-0.2,4.6-0.4
		c0.1,0.3,0.2,0.7,0.2,0.9c0,0.1-0.1,0.2-0.1,0.3c-1.4,0.1-3,0.2-4.7,0.2C11.2,17,8,16.6,6.9,16.4z M22.3,16.4
		c-0.4,0.1-1,0.1-1.9,0.2c0-0.1,0-0.1,0-0.2c0-0.5-0.4-1.5-0.4-1.6c-0.1-0.2-0.3-0.3-0.6-0.3c0,0-2.3,0.4-4.8,0.4
		c-2.1,0-4-0.3-4.6-0.4c-0.1-0.1-0.2-0.3-0.2-0.5c0-0.1,0.1-0.3,0.1-0.4c0.5,0.1,1.7,0.2,2.9,0.2c1.8,0,3.5-0.3,3.5-0.3
		c0.1,0,0.3-0.1,0.4-0.2c0-0.1,0.2-0.3,0.2-0.9c0-0.5-0.1-1.2-0.1-1.2c0-0.1-0.1-0.2-0.2-0.3C16.5,11,16.4,11,16.3,11
		c-0.1,0-0.8,0.1-1.7,0.1c-0.5,0-1-0.1-1.3-0.1c0-0.1,0-0.3,0-0.4c0-0.2,0-0.4,0.1-0.5h1.3h1.7c0.2,0,0.5-0.1,0.5-0.3
		c0,0,0.1-0.6,0.1-1.1c0-0.5-0.1-0.9-0.2-1c-0.1-0.2-0.2-0.3-0.4-0.3c0,0-0.9-0.2-1.8-0.2c-0.5,0-0.9,0-1.3,0.1
		c0-0.2-0.1-0.4-0.1-0.6c0-0.1,0-0.2,0-0.3c0.6-0.1,1.8-0.3,3-0.3c1.7,0,3.1,0.3,3.1,0.3c0.2,0,0.5-0.1,0.6-0.3
		c0-0.1,0.4-0.9,0.4-1.4c0-0.7-0.5-0.9-0.8-1c-0.1,0-2.4-0.4-5-0.4c-2,0-3.8,0.2-4.6,0.4C9.9,3.4,9.8,3,9.8,2.9
		c0-0.1,0.1-0.3,0.1-0.3c1.4-0.1,3-0.2,4.7-0.2c3.4,0,6.6,0.4,7.7,0.5c0.2,0.9,0.6,3.7,0.6,6.8C22.8,12.7,22.4,15.5,22.3,16.4z"/>
	<ellipse class="st3" cx="3.1" cy="9.7" rx="2.8" ry="2.4"/>
	<ellipse class="st3" cx="26.1" cy="9.7" rx="2.8" ry="2.4"/>
	<path class="st4" d="M24.3,0H4.9C1.9,2.4,0,5.8,0,9.7s1.9,7.3,4.9,9.7h19.3c3-2.4,5-5.8,5-9.7C29.2,5.8,27.3,2.4,24.3,0z M14,17.1
		c-5,0-9-3.6-9-8c0-4.4,4-8,9-8c5,0,9,3.6,9,8C23,13.5,19,17.1,14,17.1z"/>
	<ellipse class="st5" cx="11" cy="6" rx="2.3" ry="2.1"/>
</g>
</svg>
