<?xml version="1.0" encoding="utf-8"?>
<!-- Generator: Adobe Illustrator 23.0.1, SVG Export Plug-In . SVG Version: 6.00 Build 0)  -->
<svg version="1.1" id="Layer_1" xmlns="http://www.w3.org/2000/svg" xmlns:xlink="http://www.w3.org/1999/xlink" x="0px" y="0px"
	 viewBox="0 0 62.4 54" style="enable-background:new 0 0 62.4 54;" xml:space="preserve">
<style type="text/css">
	.st0{fill:#C9B55E;}
	.st1{fill:#040202;}
	.st2{fill:none;stroke:#7C6B2B;stroke-width:0.5;stroke-miterlimit:10;}
	.st3{fill:#FFFFFF;}
	.st4{fill:#EDEDF2;}
	.st5{fill:#DDDDDC;}
	.st6{fill:#C6C5C5;}
	.st7{font-family:'ArialRoundedMTBold';}
	.st8{font-size:5.8542px;}
	.st9{fill:#D8C262;}
	.st10{fill:#7C6B2B;}
	.st11{fill:#474748;}
	.st12{fill:none;stroke:#FFFFFF;stroke-width:0.25;stroke-miterlimit:10;}
	.st13{fill:none;stroke:#D8C262;stroke-width:0.5;stroke-miterlimit:10;}
	.st14{fill:#E0CB71;}
	.st15{fill:#E0CA6F;}
	.st16{fill:#D3D3D3;}
	.st17{fill:#A8A8A8;}
</style>
<g>
	<g>
		<path d="M43.5,0.1H18.9c-2,0-3.9,1.1-4.9,2.8L1.7,24.2c-1,1.8-1,3.9,0,5.7L14,51.1c1,1.8,2.9,2.8,4.9,2.8h24.5
			c2,0,3.9-1.1,4.9-2.8l12.3-21.3c1-1.8,1-3.9,0-5.7L48.4,2.9C47.4,1.2,45.5,0.1,43.5,0.1z"/>
		<g>
			<g>
				<g>
					<path class="st0" d="M28.5,8.4L28.5,8.4c-1,0-1.7-0.8-1.7-1.7V5.3c0-1,0.8-1.7,1.7-1.7h0c1,0,1.7,0.8,1.7,1.7v1.4
						C30.2,7.6,29.4,8.4,28.5,8.4z"/>
					<circle class="st1" cx="28.5" cy="6" r="1"/>
				</g>
				<path class="st2" d="M28.5,8.4L28.5,8.4c-1,0-1.7-0.8-1.7-1.7V5.3c0-1,0.8-1.7,1.7-1.7h0c1,0,1.7,0.8,1.7,1.7v1.4
					C30.2,7.6,29.4,8.4,28.5,8.4z"/>
				<rect x="28.2" y="8" class="st0" width="0.7" height="0.9"/>
			</g>
			<g>
				<rect x="27.4" y="5" class="st3" width="2" height="2"/>
				<polygon class="st4" points="27.4,5 28.5,6 27.4,7 				"/>
				<polygon class="st5" points="29.5,7 28.5,6 27.4,7 				"/>
				<polygon class="st6" points="29.5,5 28.5,6 29.5,7 				"/>
			</g>
		</g>
		<g>
			<g>
				<g>
					<path class="st0" d="M23.2,8.4L23.2,8.4c1,0,1.7-0.8,1.7-1.7V5.3c0-1-0.8-1.7-1.7-1.7h0c-1,0-1.7,0.8-1.7,1.7v1.4
						C21.5,7.6,22.3,8.4,23.2,8.4z"/>
					<circle class="st1" cx="23.2" cy="6" r="1"/>
				</g>
				<path class="st2" d="M23.2,8.4L23.2,8.4c1,0,1.7-0.8,1.7-1.7V5.3c0-1-0.8-1.7-1.7-1.7h0c-1,0-1.7,0.8-1.7,1.7v1.4
					C21.5,7.6,22.3,8.4,23.2,8.4z"/>
				
					<rect x="24.1" y="7.6" transform="matrix(-0.7071 0.7071 -0.7071 -0.7071 47.3717 -3.7744)" class="st0" width="0.7" height="0.7"/>
			</g>
			<g>
				<rect x="22.2" y="5" class="st3" width="2" height="2"/>
				<polygon class="st4" points="22.2,5 23.2,6 22.2,7 				"/>
				<polygon class="st5" points="24.2,7 23.2,6 22.2,7 				"/>
				<polygon class="st6" points="24.2,5 23.2,6 24.2,7 				"/>
			</g>
		</g>
		<g>
			<g>
				<g>
					<path class="st0" d="M33.9,8.4L33.9,8.4c-1,0-1.7-0.8-1.7-1.7V5.3c0-1,0.8-1.7,1.7-1.7h0c1,0,1.7,0.8,1.7,1.7v1.4
						C35.6,7.6,34.9,8.4,33.9,8.4z"/>
					<circle class="st1" cx="33.9" cy="6" r="1"/>
				</g>
				<path class="st2" d="M33.9,8.4L33.9,8.4c-1,0-1.7-0.8-1.7-1.7V5.3c0-1,0.8-1.7,1.7-1.7h0c1,0,1.7,0.8,1.7,1.7v1.4
					C35.6,7.6,34.9,8.4,33.9,8.4z"/>
				<rect x="33.6" y="7.9" class="st0" width="0.7" height="1"/>
			</g>
			<g>
				<rect x="32.9" y="5" class="st3" width="2" height="2"/>
				<polygon class="st4" points="32.9,5 33.9,6 32.9,7 				"/>
				<polygon class="st5" points="34.9,7 33.9,6 32.9,7 				"/>
				<polygon class="st6" points="34.9,5 33.9,6 34.9,7 				"/>
			</g>
		</g>
		<g>
			<g>
				<g>
					<g>
						<path class="st0" d="M41.1,5.3V3.7c0-0.1-0.1-0.1-0.1-0.1h-3.2c-0.1,0-0.1,0.1-0.1,0.1v4.6c0,0.1,0.1,0.1,0.1,0.1h0.9l0,0h1.4
							l0,0h0.9c0.1,0,0.1-0.1,0.1-0.1V6.7l0,0V5.3L41.1,5.3z"/>
						<path class="st2" d="M41.1,5.3V3.7c0-0.1-0.1-0.1-0.1-0.1h-3.2c-0.1,0-0.1,0.1-0.1,0.1v4.6c0,0.1,0.1,0.1,0.1,0.1h0.9l0,0h1.4
							l0,0h0.9c0.1,0,0.1-0.1,0.1-0.1V6.7l0,0V5.3L41.1,5.3z"/>
						<circle class="st1" cx="39.4" cy="6" r="1"/>
					</g>
				</g>
				<rect x="38.7" y="8.1" class="st0" width="1.4" height="0.8"/>
				
					<rect x="40.4" y="5.7" transform="matrix(6.123234e-17 -1 1 6.123234e-17 35.0284 47.1357)" class="st0" width="1.4" height="0.8"/>
			</g>
			<g>
				<rect x="38.4" y="5" class="st3" width="2" height="2"/>
				<polygon class="st4" points="38.4,5 39.4,6 38.4,7 				"/>
				<polygon class="st5" points="40.4,7 39.4,6 38.4,7 				"/>
				<polygon class="st6" points="40.4,5 39.4,6 40.4,7 				"/>
			</g>
		</g>
		<g>
			<g>
				<polygon class="st3" points="8.2,29.5 13.5,24.2 12.4,24.2 10.3,26.3 9.8,25.8 11.4,24.2 10.3,24.2 9.2,25.2 8.7,24.7 9.2,24.2 
					8.2,24.2 				"/>
				<polygon class="st3" points="13.5,29.5 13.5,28.6 11.6,26.8 11.2,27.2 				"/>
				<polygon class="st3" points="13.5,27.7 13.5,26.8 12.6,25.8 12.1,26.3 				"/>
				<polygon class="st3" points="13.5,25.8 13.5,24.9 13,25.4 				"/>
			</g>
		</g>
		<g>
			<text transform="matrix(1 0 0 1 21.7175 49.3689)" class="st3 st7 st8">Button</text>
		</g>
		<g>
			<g>
				<rect x="27.8" y="11.9" class="st6" width="1.9" height="2.7"/>
				<g>
					<g>
						<path class="st9" d="M29.6,11.9v2.7h-1.9v-2.7H29.6 M30.1,11.4h-0.5h-1.9h-0.5v0.5v2.7v0.5h0.5h1.9h0.5v-0.5v-2.7V11.4
							L30.1,11.4z"/>
					</g>
				</g>
			</g>
			<g>
				<rect x="32.6" y="11.9" class="st6" width="1.9" height="2.7"/>
				<g>
					<path class="st10" d="M34.4,11.9v2.7h-1.9v-2.7H34.4 M34.9,11.4h-0.5h-1.9h-0.5v0.5v2.7v0.5h0.5h1.9h0.5v-0.5v-2.7V11.4
						L34.9,11.4z"/>
				</g>
				
					<rect x="34.3" y="13" transform="matrix(6.123234e-17 -1 1 6.123234e-17 21.383 47.932)" class="st0" width="0.7" height="0.5"/>
				
					<rect x="33.1" y="11.4" transform="matrix(-1 -1.224647e-16 1.224647e-16 -1 66.982 23.2957)" class="st0" width="0.7" height="0.5"/>
				
					<rect x="32.8" y="14.6" transform="matrix(-1 -1.224647e-16 1.224647e-16 -1 66.2596 29.5848)" class="st0" width="0.7" height="0.5"/>
			</g>
			<g>
				<rect x="28.8" y="12.2" class="st3" width="0.7" height="2.1"/>
				<rect x="32.4" y="12.2" class="st3" width="0.7" height="2.1"/>
				<rect x="29.6" y="12.2" class="st11" width="2.8" height="2.1"/>
			</g>
			<line class="st12" x1="30.3" y1="11.9" x2="31.8" y2="11.9"/>
			<line class="st12" x1="30.3" y1="14.7" x2="31.8" y2="14.7"/>
		</g>
		<g>
			<g>
				
					<rect x="18.7" y="31" transform="matrix(-1.836970e-16 1 -1 -1.836970e-16 53.4457 12.622)" class="st6" width="3.4" height="4.1"/>
				<polyline class="st2" points="22.8,33.5 22.8,34.9 20.3,34.9 18.1,34.9 18.1,31.1 22.8,31.1 22.8,32.2 				"/>
			</g>
			<line class="st13" x1="22.8" y1="32.2" x2="22.8" y2="33.5"/>
		</g>
		<g>
			<g>
				
					<rect x="40.2" y="18.6" transform="matrix(6.123234e-17 -1 1 6.123234e-17 21.1805 62.6539)" class="st6" width="3.4" height="4.2"/>
				<polyline class="st2" points="39.6,20.3 39.6,18.8 42.1,18.8 44.3,18.8 44.3,22.7 39.6,22.7 39.6,21.6 				"/>
			</g>
			<line class="st13" x1="39.6" y1="21.6" x2="39.6" y2="20.3"/>
		</g>
		<g>
			<g>
				
					<rect x="40.2" y="30.9" transform="matrix(6.123234e-17 -1 1 6.123234e-17 8.9404 74.894)" class="st6" width="3.4" height="4.2"/>
				<polyline class="st2" points="39.6,32.5 39.6,31.1 42.1,31.1 44.3,31.1 44.3,34.9 39.6,34.9 39.6,33.8 				"/>
			</g>
			<line class="st13" x1="39.6" y1="33.8" x2="39.6" y2="32.5"/>
		</g>
		<g>
			<g>
				
					<rect x="18.5" y="18.4" transform="matrix(-1.836970e-16 1 -1 -1.836970e-16 41.2205 0.3852)" class="st6" width="3.9" height="4.8"/>
				<polyline class="st2" points="22.8,21.3 22.8,22.7 20.3,22.7 18,22.7 18,18.9 22.8,18.9 22.8,20 				"/>
			</g>
			<line class="st13" x1="22.8" y1="20" x2="22.8" y2="21.3"/>
			<polygon class="st14" points="21.7,18.6 21.3,19.1 22.1,19.1 22.5,18.6 			"/>
		</g>
		<polygon class="st15" points="44.5,30.8 44.5,31.3 44,31.8 44,31.3 43.5,31.3 44,30.8 		"/>
	</g>
	<polyline class="st12" points="22.7,35.5 22.7,36.2 39.7,36.2 39.7,35.5 	"/>
	<line class="st12" x1="22.7" y1="30.5" x2="22.7" y2="23.2"/>
	<line class="st12" x1="39.7" y1="30.5" x2="39.7" y2="23.2"/>
	<polyline class="st12" points="22.7,18.3 22.7,17.9 39.7,17.9 39.7,18.3 	"/>
	<g>
		<rect x="23.3" y="18.9" class="st11" width="15.9" height="15.9"/>
		<rect x="24" y="19.6" class="st5" width="14.5" height="14.5"/>
		<path class="st5" d="M26.9,22.5h-3.7v-2.3c0-0.8,0.6-1.4,1.4-1.4h2.3V22.5z"/>
		<path class="st5" d="M39.1,22.5h-3.7v-3.7h2.3c0.8,0,1.4,0.6,1.4,1.4V22.5z"/>
		<path class="st5" d="M26.9,34.7h-2.3c-0.8,0-1.4-0.6-1.4-1.4v-2.3h3.7V34.7z"/>
		<path class="st5" d="M37.7,34.7h-2.3v-3.7h3.7v2.3C39.1,34.1,38.5,34.7,37.7,34.7z"/>
		<circle class="st11" cx="25.1" cy="20.7" r="1.2"/>
		<circle class="st11" cx="37.3" cy="20.7" r="1.2"/>
		<circle class="st11" cx="25.1" cy="32.9" r="1.2"/>
		<circle class="st16" cx="31.2" cy="26.8" r="4.5"/>
		<circle class="st11" cx="37.3" cy="32.9" r="1.2"/>
		<circle class="st11" cx="31.2" cy="26.8" r="4.3"/>
		<circle class="st17" cx="31.2" cy="26.8" r="4"/>
	</g>
</g>
</svg>
