<?xml version="1.0" encoding="utf-8"?>
<!-- Generator: Adobe Illustrator 23.0.1, SVG Export Plug-In . SVG Version: 6.00 Build 0)  -->
<svg version="1.1" id="Layer_1" xmlns="http://www.w3.org/2000/svg" xmlns:xlink="http://www.w3.org/1999/xlink" x="0px" y="0px"
	 viewBox="0 0 93.5 90.7" style="enable-background:new 0 0 93.5 90.7;" xml:space="preserve">
<style type="text/css">
	.st0{fill:#2A3C97;}
	.st1{fill:#EDEDF2;}
	.st2{fill:#2A3171;}
	.st3{fill:#21295B;}
	.st4{fill:none;stroke:#ECD962;stroke-width:0.5;stroke-miterlimit:10;}
	.st5{fill:#ECD962;}
</style>
<g>
	<g>
		<path class="st0" d="M0.6,80.6l0-70.4c0-0.5,0.4-0.9,0.9-0.9l48.7,0l0,72.1l-48.7,0C0.9,81.4,0.6,81,0.6,80.6z"/>
		<path class="st0" d="M57.2,81.4l0-72.1l15.6,0c0.5,0,0.9,0.4,0.9,0.9l0,70.4c0,0.5-0.4,0.9-0.9,0.9H57.2z"/>
		
			<rect x="85.7" y="27.4" transform="matrix(3.267948e-07 1 -1 3.267948e-07 120.3756 -59.5421)" class="st1" width="8.5" height="6"/>
		
			<rect x="65.2" y="23.8" transform="matrix(3.267949e-07 1 -1 3.267949e-07 110.7011 -49.8675)" class="st2" width="30.2" height="13.3"/>
		
			<rect x="76" y="43.1" transform="matrix(3.267951e-07 1 -1 3.267951e-07 130.0502 -30.5184)" class="st3" width="8.5" height="13.3"/>
		
			<rect x="8.3" y="41.8" transform="matrix(3.267949e-07 1 -1 3.267949e-07 99.0013 -8.2927)" class="st2" width="90.7" height="7.1"/>
	</g>
	<rect x="-4.6" y="24.6" transform="matrix(3.267949e-07 1 -1 3.267949e-07 70.6742 20.0345)" width="59.8" height="41.5"/>
	
		<rect x="-2.2" y="27.3" transform="matrix(3.267949e-07 1 -1 3.267949e-07 70.6742 20.0345)" class="st4" width="55.1" height="36.2"/>
	<line class="st4" x1="32.8" y1="17.8" x2="32.8" y2="72.9"/>
	<line class="st4" x1="16.7" y1="17.8" x2="16.7" y2="72.9"/>
	<path class="st5" d="M18.3,70l0-49.2c0-0.3,0.3-0.6,0.6-0.6l11.6,0c0.3,0,0.6,0.3,0.6,0.6l0,49.2c0,0.3-0.3,0.6-0.6,0.6l-11.6,0
		C18.6,70.6,18.3,70.3,18.3,70z"/>
</g>
</svg>
