<?xml version="1.0" encoding="utf-8"?>
<!-- Generator: Adobe Illustrator 19.0.0, SVG Export Plug-In . SVG Version: 6.00 Build 0)  -->
<svg version="1.1" id="Layer_1" xmlns="http://www.w3.org/2000/svg" xmlns:xlink="http://www.w3.org/1999/xlink" x="0px" y="0px"
	 viewBox="0 0 56.7 56.7" style="enable-background:new 0 0 56.7 56.7;" xml:space="preserve">
<style type="text/css">
	.st0{fill:#274A88;}
	.st1{fill:#FFFFFF;}
	.st2{fill:#EDEEF3;}
	.st3{font-family:'Consolas';}
	.st4{font-size:4px;}
	.st5{fill:#7C6B2B;}
</style>
<g id="XMLID_62_">
	<path id="XMLID_70_" class="st0" d="M28.3,6c3.3,0,6-2.7,6-6s-2.7-6-6-6s-6,2.7-6,6S25,6,28.3,6z M28.3-3.4c1.9,0,3.4,1.5,3.4,3.4
		s-1.5,3.4-3.4,3.4S25,1.9,25,0S26.5-3.4,28.3-3.4z"/>
	<path id="XMLID_67_" class="st0" d="M28.3,62.7c3.3,0,6-2.7,6-6s-2.7-6-6-6s-6,2.7-6,6S25,62.7,28.3,62.7z M28.3,53.3
		c1.9,0,3.4,1.5,3.4,3.4s-1.5,3.4-3.4,3.4S25,58.6,25,56.7S26.5,53.3,28.3,53.3z"/>
	<g id="XMLID_63_">
		<path id="XMLID_66_" class="st1" d="M28.3,60.1c1.9,0,3.4-1.5,3.4-3.4H25C25,58.6,26.5,60.1,28.3,60.1z"/>
		<path id="XMLID_65_" class="st1" d="M28.3-3.4C26.5-3.4,25-1.9,25,0h6.8C31.7-1.9,30.2-3.4,28.3-3.4z"/>
		<path id="XMLID_64_" class="st0" d="M56.7,21.5C56.7,21.5,56.7,21.5,56.7,21.5l0-18.7c0-1.6-1.3-2.8-2.8-2.8H31.7
			c0,1.9-1.5,3.4-3.4,3.4S25,1.9,25,0H2.8C1.3,0,0,1.3,0,2.8v18.7c3.8,0,6.9,3.1,6.9,6.9c0,3.8-3.1,6.9-6.9,6.9v18.7
			c0,1.6,1.3,2.8,2.8,2.8H25c0-1.9,1.5-3.4,3.4-3.4s3.4,1.5,3.4,3.4h22.2c1.6,0,2.8-1.3,2.8-2.8V35.2c0,0,0,0,0,0
			c-3.8,0-6.9-3.1-6.9-6.9C49.8,24.5,52.9,21.5,56.7,21.5z"/>
	</g>
</g>
<g id="XMLID_28_">
	<path id="XMLID_61_" class="st1" d="M24.4,10.8l-1.7-0.2C22.6,10,22.3,9.4,22,8.8l1.1-1.3c0.1-0.1,0.1-0.2,0-0.3l-1.7-1.7
		c-0.1-0.1-0.2-0.1-0.3,0l-1.3,1.1c-0.6-0.3-1.2-0.6-1.8-0.8l-0.2-1.7c0-0.1-0.1-0.2-0.2-0.2h-2.4C15,4,15,4.1,14.9,4.2l-0.2,1.7
		C14.1,6,13.5,6.3,13,6.6l-1.3-1.1c-0.1-0.1-0.2-0.1-0.3,0L9.7,7.2c-0.1,0.1-0.1,0.2,0,0.3l1.1,1.3c-0.3,0.5-0.5,1-0.7,1.6
		c0,0.1,0,0.1,0,0.2l-1.7,0.2c-0.1,0-0.2,0.1-0.2,0.2v2.4c0,0.1,0.1,0.2,0.2,0.2l1.7,0.2c0.2,0.6,0.4,1.2,0.8,1.8l-1.1,1.3
		c-0.1,0.1-0.1,0.2,0,0.3l1.7,1.7c0.1,0.1,0.2,0.1,0.3,0l1.4-1.1c0.1,0.1,0.2,0.1,0.3,0.2c0.1,0.1,0.3,0,0.3-0.1l1.5-3.1
		c0.1-0.1,0-0.2-0.1-0.3c-0.8-0.5-1.3-1.3-1.3-2.3c0-1.5,1.2-2.7,2.7-2.7s2.7,1.2,2.7,2.7c0,1-0.5,1.8-1.3,2.3
		c-0.1,0.1-0.1,0.2-0.1,0.3l1.5,3.1c0.1,0.1,0.2,0.2,0.3,0.1c0.1,0,0.2-0.1,0.3-0.2l1.3,1.1c0.1,0.1,0.2,0.1,0.3,0l1.7-1.7
		c0.1-0.1,0.1-0.2,0-0.3L22,15.6c0.3-0.6,0.6-1.2,0.8-1.8l1.7-0.2c0.1,0,0.2-0.1,0.2-0.2V11C24.6,10.9,24.5,10.8,24.4,10.8z"/>
	<path id="XMLID_53_" class="st1" d="M49.5,10.1c-0.6,0-1.2,0.4-1.5,0.9l-1.8-0.9c0-0.1,0-0.2,0-0.2c0-0.6-0.4-1.2-0.9-1.5l0.9-3.8
		c1,0,1.8-0.8,1.8-1.8c0-1-0.8-1.8-1.8-1.8s-1.8,0.8-1.8,1.8c0,0.7,0.4,1.4,1.1,1.6l-0.9,3.7c-0.1,0-0.1,0-0.2,0
		c-0.4,0-0.7,0.1-1,0.4l-1.3-1.3c0.2-0.3,0.4-0.7,0.4-1.1c0-1-0.8-1.8-1.8-1.8s-1.8,0.8-1.8,1.8c0,1,0.8,1.8,1.8,1.8
		c0.3,0,0.6-0.1,0.8-0.2L43,9c-0.2,0.3-0.3,0.6-0.3,0.9c0,0.1,0,0.2,0.1,0.4l-2.2,1.1c-0.3-0.5-0.9-0.9-1.5-0.9
		c-1,0-1.8,0.8-1.8,1.8s0.8,1.8,1.8,1.8c1,0,1.8-0.8,1.8-1.8c0-0.1,0-0.1,0-0.2l2.2-1.1c0.2,0.3,0.5,0.5,0.8,0.6v5.1
		c-1.2,0.4-2.1,1.5-2.1,2.9c0,1.7,1.4,3.1,3.1,3.1s3.1-1.4,3.1-3.1c0-1.5-1.1-2.8-2.5-3v-5.1c0.2-0.1,0.5-0.3,0.6-0.6l1.8,0.9
		c0,0.1,0,0.1,0,0.2c0,1,0.8,1.8,1.8,1.8c1,0,1.8-0.8,1.8-1.8C51.3,10.9,50.5,10.1,49.5,10.1z M45.3,2.8c0-0.6,0.5-1.1,1.1-1.1
		c0.6,0,1.1,0.5,1.1,1.1c0,0.6-0.5,1.1-1.1,1.1C45.7,3.9,45.3,3.4,45.3,2.8z M39.2,13.2c-0.6,0-1.1-0.5-1.1-1.1s0.5-1.1,1.1-1.1
		c0.6,0,1.1,0.5,1.1,1.1S39.7,13.2,39.2,13.2z M39.8,6.1c0-0.6,0.5-1.1,1.1-1.1C41.5,5,42,5.5,42,6.1c0,0.6-0.5,1.1-1.1,1.1
		C40.3,7.2,39.8,6.7,39.8,6.1z M46.5,19.5c0,0.9-0.7,1.6-1.6,1.6s-1.6-0.7-1.6-1.6s0.7-1.6,1.6-1.6S46.5,18.6,46.5,19.5z M44.5,10.9
		c-0.6,0-1.1-0.5-1.1-1.1c0-0.6,0.5-1.1,1.1-1.1s1.1,0.5,1.1,1.1C45.6,10.4,45.1,10.9,44.5,10.9z M49.5,12.9c-0.6,0-1.1-0.5-1.1-1.1
		c0-0.6,0.5-1.1,1.1-1.1c0.6,0,1.1,0.5,1.1,1.1C50.6,12.4,50.1,12.9,49.5,12.9z"/>
	<g id="XMLID_41_">
		<path id="XMLID_52_" class="st2" d="M35.7,39.2H20.9c-1.9,0-3.4-1.5-3.4-3.4V20.9c0-1.9,1.5-3.4,3.4-3.4h14.8
			c1.9,0,3.4,1.5,3.4,3.4v14.8C39.2,37.6,37.6,39.2,35.7,39.2z"/>
		<g id="XMLID_48_">
			<path id="XMLID_49_" class="st1" d="M18.8,21.7V35c0,1.6,1.3,2.9,2.9,2.9H35c1.6,0,2.9-1.3,2.9-2.9V21.7c0-1.6-1.3-2.9-2.9-2.9
				H21.7C20.1,18.8,18.8,20.1,18.8,21.7z M35.6,28.3v5.8c0,0.8-0.6,1.5-1.5,1.5h-5.8h-5.8c-0.8,0-1.5-0.6-1.5-1.5v-5.8v-5.8
				c0-0.8,0.6-1.5,1.5-1.5h5.8h5.8c0.8,0,1.5,0.6,1.5,1.5V28.3z"/>
		</g>
		<rect id="XMLID_47_" x="26.9" y="19.7" class="st1" width="2.9" height="2.9"/>
		<rect id="XMLID_46_" x="27.9" y="26.9" class="st1" width="0.8" height="2.9"/>
		<rect id="XMLID_45_" x="26.9" y="34.1" class="st1" width="2.9" height="2.9"/>
		<rect id="XMLID_44_" x="19.7" y="26.9" class="st1" width="2.9" height="2.9"/>
		<rect id="XMLID_43_" x="34.1" y="26.9" class="st1" width="2.9" height="2.9"/>
		<rect id="XMLID_42_" x="26.9" y="27.9" class="st1" width="2.9" height="0.8"/>
	</g>
	<text id="XMLID_40_" transform="matrix(1 0 0 1 5.5058 45.1367)" class="st1 st3 st4">Mini PIR Motion Sensor</text>
	<text id="XMLID_39_" transform="matrix(1 0 0 1 44.3971 49.5351)" class="st1 st3 st4">v1.0</text>
	<g id="XMLID_36_">
		<circle id="XMLID_38_" class="st5" cx="4.8" cy="46.7" r="1.6"/>
		<circle id="XMLID_37_" class="st2" cx="4.8" cy="46.7" r="1.3"/>
	</g>
	<g id="XMLID_33_">
		<circle id="XMLID_35_" class="st5" cx="4.8" cy="39.5" r="1.6"/>
		<circle id="XMLID_34_" class="st2" cx="4.8" cy="39.5" r="1.3"/>
	</g>
	<g id="XMLID_30_">
		<circle id="XMLID_32_" class="st5" cx="4.8" cy="17.9" r="1.6"/>
		<circle id="XMLID_31_" class="st2" cx="4.8" cy="17.9" r="1.3"/>
	</g>
	<circle id="XMLID_29_" class="st2" cx="4.9" cy="10.3" r="1.8"/>
</g>
</svg>
