<?xml version="1.0" encoding="utf-8"?>
<!-- Generator: Adobe Illustrator 24.3.0, SVG Export Plug-In . SVG Version: 6.00 Build 0)  -->
<svg version="1.1" id="Layer_1" xmlns="http://www.w3.org/2000/svg" xmlns:xlink="http://www.w3.org/1999/xlink" x="0px" y="0px"
	 viewBox="0 0 68.5 56.7" style="enable-background:new 0 0 68.5 56.7;" xml:space="preserve">
<style type="text/css">
	.st0{fill:#274A88;}
	.st1{fill:#FFFFFF;}
	.st2{fill:#EDEEF3;}
	.st3{font-family:'ArialMT';}
	.st4{font-size:4px;}
	.st5{fill:#7C6B2B;}
</style>
<path class="st0" d="M11.8,28.3c0-3.3-2.7-6-6-6s-6,2.7-6,6s2.7,6,6,6S11.8,31.7,11.8,28.3z M2.4,28.3C2.4,26.5,4,25,5.8,25
	s3.4,1.5,3.4,3.4s-1.5,3.4-3.4,3.4S2.4,30.2,2.4,28.3z"/>
<path class="st0" d="M68.5,28.3c0-3.3-2.7-6-6-6s-6,2.7-6,6s2.7,6,6,6S68.5,31.7,68.5,28.3z M59.1,28.3c0-1.9,1.5-3.4,3.4-3.4
	s3.4,1.5,3.4,3.4s-1.5,3.4-3.4,3.4S59.1,30.2,59.1,28.3z"/>
<g>
	<path class="st1" d="M65.9,28.3c0-1.9-1.5-3.4-3.4-3.4l0,6.8C64.4,31.7,65.9,30.2,65.9,28.3z"/>
	<path class="st1" d="M2.4,28.3c0,1.9,1.5,3.4,3.4,3.4l0-6.8C4,25,2.4,26.5,2.4,28.3z"/>
	<path class="st0" d="M27.3,0C27.3,0,27.3,0,27.3,0L8.6,0C7.1,0,5.8,1.3,5.8,2.8l0,22.2c1.9,0,3.4,1.5,3.4,3.4
		c0,1.9-1.5,3.4-3.4,3.4l0,22.2c0,1.6,1.3,2.8,2.8,2.8l18.7,0c0-3.8,3.1-6.9,6.9-6.9c3.8,0,6.9,3.1,6.9,6.9l18.7,0
		c1.6,0,2.8-1.3,2.8-2.8l0-22.2c-1.9,0-3.4-1.5-3.4-3.4s1.5-3.4,3.4-3.4l0-22.2c0-1.6-1.3-2.8-2.8-2.8L41,0c0,0,0,0,0,0
		c0,3.8-3.1,6.9-6.9,6.9C30.4,6.9,27.3,3.8,27.3,0z"/>
</g>
<g>
	<path class="st1" d="M16.6,32.3L16.5,34c-0.6,0.2-1.3,0.4-1.8,0.8l-1.3-1.1c-0.1-0.1-0.2-0.1-0.3,0l-1.7,1.7
		c-0.1,0.1-0.1,0.2,0,0.3l1.1,1.3c-0.3,0.6-0.6,1.2-0.8,1.8L10,38.9c-0.1,0-0.2,0.1-0.2,0.2v2.4c0,0.1,0.1,0.2,0.2,0.2l1.7,0.2
		c0.2,0.6,0.4,1.3,0.8,1.8L11.4,45c-0.1,0.1-0.1,0.2,0,0.3l1.7,1.7c0.1,0.1,0.2,0.1,0.3,0l1.3-1.1c0.5,0.3,1,0.5,1.6,0.7
		c0.1,0,0.1,0,0.2,0l0.2,1.7c0,0.1,0.1,0.2,0.2,0.2h2.4c0.1,0,0.2-0.1,0.2-0.2l0.2-1.7c0.6-0.2,1.2-0.4,1.8-0.8l1.3,1.1
		c0.1,0.1,0.2,0.1,0.3,0l1.7-1.7c0.1-0.1,0.1-0.2,0-0.3l-1.1-1.4c0.1-0.1,0.1-0.2,0.2-0.3c0.1-0.1,0-0.3-0.1-0.3l-3.1-1.5
		c-0.1-0.1-0.2,0-0.3,0.1C19.9,42.5,19,43,18,43c-1.5,0-2.7-1.2-2.7-2.7s1.2-2.7,2.7-2.7c1,0,1.8,0.5,2.3,1.3
		c0.1,0.1,0.2,0.1,0.3,0.1l3.1-1.5c0.1-0.1,0.2-0.2,0.1-0.3c0-0.1-0.1-0.2-0.2-0.3l1.1-1.3c0.1-0.1,0.1-0.2,0-0.3l-1.7-1.7
		c-0.1-0.1-0.2-0.1-0.3,0l-1.3,1.1c-0.6-0.3-1.2-0.6-1.8-0.8l-0.2-1.7c0-0.1-0.1-0.2-0.2-0.2h-2.4C16.8,32.1,16.7,32.2,16.6,32.3z"
		/>
	<path class="st1" d="M15.9,7.2c0,0.6,0.4,1.2,0.9,1.5l-0.9,1.8c-0.1,0-0.2,0-0.2,0c-0.6,0-1.2,0.4-1.5,0.9l-3.8-0.9
		c0-1-0.8-1.8-1.8-1.8c-1,0-1.8,0.8-1.8,1.8s0.8,1.8,1.8,1.8c0.7,0,1.4-0.4,1.6-1.1l3.7,0.9c0,0.1,0,0.1,0,0.2c0,0.4,0.1,0.7,0.4,1
		L13,14.4c-0.3-0.2-0.7-0.4-1.1-0.4c-1,0-1.8,0.8-1.8,1.8s0.8,1.8,1.8,1.8c1,0,1.8-0.8,1.8-1.8c0-0.3-0.1-0.6-0.2-0.8l1.3-1.3
		c0.3,0.2,0.6,0.3,0.9,0.3c0.1,0,0.2,0,0.4-0.1l1.1,2.2c-0.5,0.3-0.9,0.9-0.9,1.5c0,1,0.8,1.8,1.8,1.8s1.8-0.8,1.8-1.8
		c0-1-0.8-1.8-1.8-1.8c-0.1,0-0.1,0-0.2,0l-1.1-2.2c0.3-0.2,0.5-0.5,0.6-0.8h5.1c0.4,1.2,1.5,2.1,2.9,2.1c1.7,0,3.1-1.4,3.1-3.1
		S27,8.7,25.3,8.7c-1.5,0-2.8,1.1-3,2.5h-5.1c-0.1-0.2-0.3-0.5-0.6-0.6l0.9-1.8c0.1,0,0.1,0,0.2,0c1,0,1.8-0.8,1.8-1.8
		s-0.8-1.8-1.8-1.8C16.7,5.4,15.9,6.2,15.9,7.2z M8.6,11.4c-0.6,0-1.1-0.5-1.1-1.1c0-0.6,0.5-1.1,1.1-1.1c0.6,0,1.1,0.5,1.1,1.1
		C9.7,10.9,9.2,11.4,8.6,11.4z M19,17.5c0,0.6-0.5,1.1-1.1,1.1s-1.1-0.5-1.1-1.1c0-0.6,0.5-1.1,1.1-1.1S19,17,19,17.5z M11.9,16.9
		c-0.6,0-1.1-0.5-1.1-1.1c0-0.6,0.5-1.1,1.1-1.1c0.6,0,1.1,0.5,1.1,1.1C13,16.4,12.5,16.9,11.9,16.9z M25.3,10.2
		c0.9,0,1.6,0.7,1.6,1.6c0,0.9-0.7,1.6-1.6,1.6s-1.6-0.7-1.6-1.6C23.7,10.9,24.4,10.2,25.3,10.2z M16.7,12.1c0,0.6-0.5,1.1-1.1,1.1
		c-0.6,0-1.1-0.5-1.1-1.1s0.5-1.1,1.1-1.1C16.3,11.1,16.7,11.6,16.7,12.1z M18.7,7.2c0,0.6-0.5,1.1-1.1,1.1c-0.6,0-1.1-0.5-1.1-1.1
		c0-0.6,0.5-1.1,1.1-1.1C18.3,6.1,18.7,6.6,18.7,7.2z"/>
	<g>
		<path class="st2" d="M45,20.9v14.8c0,1.9-1.5,3.4-3.4,3.4H26.8c-1.9,0-3.4-1.5-3.4-3.4V20.9c0-1.9,1.5-3.4,3.4-3.4h14.8
			C43.4,17.5,45,19.1,45,20.9z"/>
		<g>
			<path class="st1" d="M27.6,37.9h13.2c1.6,0,2.9-1.3,2.9-2.9V21.7c0-1.6-1.3-2.9-2.9-2.9H27.6c-1.6,0-2.9,1.3-2.9,2.9V35
				C24.6,36.6,25.9,37.9,27.6,37.9z M34.2,21.1h5.8c0.8,0,1.5,0.6,1.5,1.5v5.8v5.8c0,0.8-0.6,1.5-1.5,1.5h-5.8h-5.8
				c-0.8,0-1.5-0.6-1.5-1.5v-5.8v-5.8c0-0.8,0.6-1.5,1.5-1.5H34.2z"/>
		</g>
		
			<rect x="25.5" y="26.9" transform="matrix(6.123234e-17 -1 1 6.123234e-17 -1.4161 55.277)" class="st1" width="2.9" height="2.9"/>
		
			<rect x="33.8" y="26.9" transform="matrix(6.123234e-17 -1 1 6.123234e-17 5.8189 62.512)" class="st1" width="0.8" height="2.9"/>
		<rect x="40" y="26.9" transform="matrix(6.123234e-17 -1 1 6.123234e-17 13.0539 69.747)" class="st1" width="2.9" height="2.9"/>
		
			<rect x="32.7" y="34.1" transform="matrix(6.123234e-17 -1 1 6.123234e-17 -1.4161 69.747)" class="st1" width="2.9" height="2.9"/>
		
			<rect x="32.7" y="19.7" transform="matrix(6.123234e-17 -1 1 6.123234e-17 13.0539 55.277)" class="st1" width="2.9" height="2.9"/>
		
			<rect x="33.8" y="26.9" transform="matrix(-1 -1.224647e-16 1.224647e-16 -1 68.3309 56.6931)" class="st1" width="0.8" height="2.9"/>
	</g>
	<text transform="matrix(6.123234e-17 -1 1 6.123234e-17 50.9557 48.0039)" class="st1 st3 st4">Mini PIR Motion Sensor</text>
	<g>
		<circle class="st5" cx="52.6" cy="51.9" r="1.6"/>
		<circle class="st2" cx="52.6" cy="51.9" r="1.3"/>
	</g>
	<g>
		<circle class="st5" cx="45.3" cy="51.9" r="1.6"/>
		<circle class="st2" cx="45.3" cy="51.9" r="1.3"/>
	</g>
	<g>
		<circle class="st5" cx="23.7" cy="51.9" r="1.6"/>
		<circle class="st2" cx="23.7" cy="51.9" r="1.3"/>
	</g>
	<circle class="st2" cx="16.1" cy="51.8" r="1.8"/>
</g>
</svg>
