<?xml version="1.0" encoding="utf-8"?>
<!-- Generator: Adobe Illustrator 23.0.1, SVG Export Plug-In . SVG Version: 6.00 Build 0)  -->
<svg version="1.1" id="Layer_1" xmlns="http://www.w3.org/2000/svg" xmlns:xlink="http://www.w3.org/1999/xlink" x="0px" y="0px"
	 viewBox="0 0 31.2 56.8" style="enable-background:new 0 0 31.2 56.8;" xml:space="preserve">
<style type="text/css">
	.st0{fill:#1D2856;}
	.st1{fill:#E2E2E2;}
	.st2{fill:#E3E3E3;}
	.st3{fill:#E4E4E4;}
	.st4{fill:#E5E5E5;}
	.st5{fill:#E6E6E6;}
	.st6{fill:#E7E7E7;}
	.st7{fill:#E8E8E8;}
	.st8{fill:#E9E9E9;}
	.st9{fill:#EAEAEA;}
	.st10{fill:#EBEBEB;}
	.st11{fill:#ECECEC;}
	.st12{fill:#EDEDED;}
	.st13{fill:#EEEEEE;}
	.st14{fill:#EFEFEF;}
	.st15{fill:#F0F0F0;}
	.st16{fill:#F1F1F1;}
	.st17{fill:#F2F2F2;}
	.st18{fill:#F3F3F3;}
	.st19{fill:#F4F4F4;}
	.st20{fill:#F5F5F5;}
	.st21{fill:#F6F6F6;}
	.st22{fill:#F7F7F7;}
	.st23{fill:#F8F8F8;}
	.st24{fill:#F9F9F9;}
	.st25{fill:#FAFAFA;}
	.st26{fill:#FBFBFB;}
	.st27{fill:#FCFCFC;}
	.st28{fill:#FDFDFD;}
	.st29{fill:#FEFEFE;}
	.st30{fill:#FFFFFF;}
	.st31{fill:#EAEAE9;}
	.st32{fill:#E9E9E8;}
	.st33{fill:#E8E8E7;}
	.st34{fill:#E7E7E6;}
	.st35{fill:#E6E6E5;}
	.st36{fill:#E5E5E4;}
	.st37{fill:#E5E4E4;}
	.st38{fill:#E4E4E3;}
	.st39{fill:#E3E3E2;}
	.st40{fill:#E2E2E1;}
	.st41{fill:#E1E1E0;}
	.st42{fill:#E1E0E0;}
	.st43{fill:#E0E0DF;}
	.st44{fill:#E0DFDF;}
	.st45{fill:#DFDFDE;}
	.st46{fill:#DEDEDD;}
	.st47{fill:#DEDDDD;}
	.st48{fill:#DDDDDC;}
	.st49{fill:#DDDCDC;}
	.st50{fill:#DCDCDB;}
	.st51{fill:#DCDBDB;}
	.st52{fill:#DBDBDA;}
	.st53{fill:#DBDADA;}
	.st54{fill:#DADAD9;}
	.st55{fill:#DAD9D9;}
	.st56{fill:#D9D9D8;}
	.st57{fill:#D9D8D8;}
	.st58{fill:#D8D8D7;}
	.st59{fill:#D8D7D7;}
	.st60{fill:#D7D7D6;}
	.st61{fill:#D7D6D6;}
	.st62{fill:#D6D6D5;}
	.st63{fill:#D6D5D5;}
	.st64{fill:#D5D5D4;}
	.st65{fill:#D5D4D4;}
	.st66{fill:#D4D4D3;}
	.st67{fill:#D4D3D3;}
	.st68{fill:#D3D3D2;}
	.st69{fill:#D3D2D2;}
	.st70{fill:#D2D2D1;}
	.st71{fill:#D2D1D1;}
	.st72{fill:#D1D1D0;}
	.st73{fill:#D1D0D0;}
	.st74{fill:#D0D0CF;}
	.st75{fill:#D0CFCF;}
	.st76{fill:#CFCFCE;}
	.st77{fill:#CFCECE;}
	.st78{fill:#CECECD;}
	.st79{fill:#CECDCD;}
	.st80{fill:#CDCDCC;}
	.st81{fill:#CDCCCC;}
	.st82{fill:#CCCCCB;}
	.st83{fill:#CCCBCB;}
	.st84{fill:#CBCBCA;}
	.st85{fill:#CBCACA;}
	.st86{fill:#CACAC9;}
	.st87{fill:#CAC9C9;}
	.st88{fill:#C9C9C8;}
	.st89{fill:#C9C8C8;}
	.st90{fill:#C8C8C7;}
	.st91{fill:#C8C7C7;}
	.st92{fill:#C7C7C6;}
	.st93{fill:#C7C6C6;}
	.st94{fill:#C6C5C5;}
	.st95{fill:#C5C5C4;}
	.st96{fill:#C5C4C4;}
	.st97{fill:#C4C4C3;}
	.st98{fill:#C4C3C3;}
	.st99{fill:#C3C2C2;}
	.st100{fill:#C2C1C1;}
	.st101{fill:#C1C0C0;}
	.st102{fill:#C0C0BF;}
	.st103{fill:#C0BFBF;}
	.st104{fill:#BFBEBE;}
	.st105{fill:#BEBDBD;}
	.st106{fill:#BDBCBC;}
	.st107{fill:#BCBBBB;}
	.st108{fill:#BBBABA;}
	.st109{fill:#353535;}
	.st110{fill:#BE9349;}
	.st111{fill:#E5E5EC;}
	.st112{fill:#C0944C;}
	.st113{fill:#FDC26B;}
	.st114{fill:#FFD39B;}
</style>
<path class="st0" d="M0,0v48.2h31.2V0H0z M6.5,10.2c-2.3,0-4.3-1.9-4.3-4.3c0-2.3,1.9-4.3,4.3-4.3c2.3,0,4.3,1.9,4.3,4.3
	C10.7,8.3,8.8,10.2,6.5,10.2z M24.7,10.1c-2.3,0-4.3-1.9-4.3-4.3c0-2.3,1.9-4.3,4.3-4.3C27,1.5,29,3.4,29,5.8S27.1,10.1,24.7,10.1z"
	/>
<g>
	<g>
		<g>
			<circle class="st1" cx="15.6" cy="21.1" r="11"/>
			<circle class="st1" cx="15.6" cy="21.1" r="11"/>
			<circle class="st1" cx="15.6" cy="21.1" r="11"/>
			<circle class="st2" cx="15.6" cy="21.1" r="11"/>
			<circle class="st2" cx="15.6" cy="21.1" r="11"/>
			<circle class="st2" cx="15.6" cy="21.1" r="11"/>
			<circle class="st2" cx="15.6" cy="21.1" r="10.9"/>
			<circle class="st3" cx="15.6" cy="21.1" r="10.9"/>
			<circle class="st3" cx="15.6" cy="21.1" r="10.9"/>
			<circle class="st3" cx="15.6" cy="21.1" r="10.9"/>
			<circle class="st3" cx="15.6" cy="21.1" r="10.9"/>
			<circle class="st4" cx="15.6" cy="21.1" r="10.9"/>
			<circle class="st4" cx="15.6" cy="21.1" r="10.9"/>
			<circle class="st4" cx="15.6" cy="21.1" r="10.8"/>
			<circle class="st4" cx="15.6" cy="21.1" r="10.8"/>
			<circle class="st4" cx="15.6" cy="21.1" r="10.8"/>
			<circle class="st5" cx="15.6" cy="21.1" r="10.8"/>
			<circle class="st5" cx="15.6" cy="21.1" r="10.8"/>
			<circle class="st5" cx="15.6" cy="21.1" r="10.8"/>
			<circle class="st5" cx="15.6" cy="21.1" r="10.8"/>
			<circle class="st6" cx="15.6" cy="21.1" r="10.8"/>
			<circle class="st6" cx="15.6" cy="21.1" r="10.7"/>
			<circle class="st6" cx="15.6" cy="21.1" r="10.7"/>
			<circle class="st6" cx="15.6" cy="21.1" r="10.7"/>
			<circle class="st7" cx="15.6" cy="21.1" r="10.7"/>
			<circle class="st7" cx="15.6" cy="21.1" r="10.7"/>
			<circle class="st7" cx="15.6" cy="21.1" r="10.7"/>
			<circle class="st7" cx="15.6" cy="21.1" r="10.7"/>
			<circle class="st7" cx="15.6" cy="21.1" r="10.6"/>
			<circle class="st8" cx="15.6" cy="21.1" r="10.6"/>
			<circle class="st8" cx="15.6" cy="21.1" r="10.6"/>
			<circle class="st8" cx="15.6" cy="21.1" r="10.6"/>
			<circle class="st8" cx="15.6" cy="21.1" r="10.6"/>
			<circle class="st9" cx="15.6" cy="21.1" r="10.6"/>
			<circle class="st9" cx="15.6" cy="21.1" r="10.6"/>
			<circle class="st9" cx="15.6" cy="21.1" r="10.6"/>
			<circle class="st9" cx="15.6" cy="21.1" r="10.5"/>
			<circle class="st10" cx="15.6" cy="21.1" r="10.5"/>
			<circle class="st10" cx="15.6" cy="21.1" r="10.5"/>
			<circle class="st10" cx="15.6" cy="21.1" r="10.5"/>
			<circle class="st10" cx="15.6" cy="21.1" r="10.5"/>
			<circle class="st11" cx="15.6" cy="21.1" r="10.5"/>
			<circle class="st11" cx="15.6" cy="21.1" r="10.5"/>
			<circle class="st11" cx="15.6" cy="21.1" r="10.4"/>
			<circle class="st11" cx="15.6" cy="21.1" r="10.4"/>
			<circle class="st11" cx="15.6" cy="21.1" r="10.4"/>
			<circle class="st12" cx="15.6" cy="21.1" r="10.4"/>
			<circle class="st12" cx="15.6" cy="21.1" r="10.4"/>
			<circle class="st12" cx="15.6" cy="21.1" r="10.4"/>
			<circle class="st12" cx="15.6" cy="21.1" r="10.4"/>
			<circle class="st13" cx="15.6" cy="21.1" r="10.3"/>
			<circle class="st13" cx="15.6" cy="21.1" r="10.3"/>
			<circle class="st13" cx="15.6" cy="21.1" r="10.3"/>
			<circle class="st13" cx="15.6" cy="21.1" r="10.3"/>
			<circle class="st14" cx="15.6" cy="21.1" r="10.3"/>
			<circle class="st14" cx="15.6" cy="21.1" r="10.3"/>
			<circle class="st14" cx="15.6" cy="21.1" r="10.3"/>
			<circle class="st14" cx="15.6" cy="21.1" r="10.3"/>
			<circle class="st14" cx="15.6" cy="21.1" r="10.2"/>
			<circle class="st15" cx="15.6" cy="21.1" r="10.2"/>
			<circle class="st15" cx="15.6" cy="21.1" r="10.2"/>
			<circle class="st15" cx="15.6" cy="21.1" r="10.2"/>
			<circle class="st15" cx="15.6" cy="21.1" r="10.2"/>
			<circle class="st16" cx="15.6" cy="21.1" r="10.2"/>
			<circle class="st16" cx="15.6" cy="21.1" r="10.2"/>
			<circle class="st16" cx="15.6" cy="21.1" r="10.1"/>
			<circle class="st16" cx="15.6" cy="21.1" r="10.1"/>
			<circle class="st17" cx="15.6" cy="21.1" r="10.1"/>
			<circle class="st17" cx="15.6" cy="21.1" r="10.1"/>
			<circle class="st17" cx="15.6" cy="21.1" r="10.1"/>
			<circle class="st17" cx="15.6" cy="21.1" r="10.1"/>
			<circle class="st17" cx="15.6" cy="21.1" r="10.1"/>
			<circle class="st18" cx="15.6" cy="21.1" r="10.1"/>
			<circle class="st18" cx="15.6" cy="21.1" r="10"/>
			<circle class="st18" cx="15.6" cy="21.1" r="10"/>
			<circle class="st18" cx="15.6" cy="21.1" r="10"/>
			<circle class="st19" cx="15.6" cy="21.1" r="10"/>
			<circle class="st19" cx="15.6" cy="21.1" r="10"/>
			<circle class="st19" cx="15.6" cy="21.1" r="10"/>
			<circle class="st19" cx="15.6" cy="21.1" r="10"/>
			<circle class="st20" cx="15.6" cy="21.1" r="9.9"/>
			<circle class="st20" cx="15.6" cy="21.1" r="9.9"/>
			<circle class="st20" cx="15.6" cy="21.1" r="9.9"/>
			<circle class="st20" cx="15.6" cy="21.1" r="9.9"/>
			<circle class="st20" cx="15.6" cy="21.1" r="9.9"/>
			<circle class="st21" cx="15.6" cy="21.1" r="9.9"/>
			<circle class="st21" cx="15.6" cy="21.1" r="9.9"/>
			<circle class="st21" cx="15.6" cy="21.1" r="9.8"/>
			<circle class="st21" cx="15.6" cy="21.1" r="9.8"/>
			<circle class="st22" cx="15.6" cy="21.1" r="9.8"/>
			<circle class="st22" cx="15.6" cy="21.1" r="9.8"/>
			<circle class="st22" cx="15.6" cy="21.1" r="9.8"/>
			<circle class="st22" cx="15.6" cy="21.1" r="9.8"/>
			<circle class="st23" cx="15.6" cy="21.1" r="9.8"/>
			<circle class="st23" cx="15.6" cy="21.1" r="9.8"/>
			<circle class="st23" cx="15.6" cy="21.1" r="9.7"/>
			<circle class="st23" cx="15.6" cy="21.1" r="9.7"/>
			<circle class="st24" cx="15.6" cy="21.1" r="9.7"/>
			<circle class="st24" cx="15.6" cy="21.1" r="9.7"/>
			<circle class="st24" cx="15.6" cy="21.1" r="9.7"/>
			<circle class="st24" cx="15.6" cy="21.1" r="9.7"/>
			<circle class="st24" cx="15.6" cy="21.1" r="9.7"/>
			<circle class="st25" cx="15.6" cy="21.1" r="9.6"/>
			<circle class="st25" cx="15.6" cy="21.1" r="9.6"/>
			<circle class="st25" cx="15.6" cy="21.1" r="9.6"/>
			<circle class="st25" cx="15.6" cy="21.1" r="9.6"/>
			<circle class="st26" cx="15.6" cy="21.1" r="9.6"/>
			<circle class="st26" cx="15.6" cy="21.1" r="9.6"/>
			<circle class="st26" cx="15.6" cy="21.1" r="9.6"/>
			<circle class="st26" cx="15.6" cy="21.1" r="9.6"/>
			<circle class="st27" cx="15.6" cy="21.1" r="9.5"/>
			<circle class="st27" cx="15.6" cy="21.1" r="9.5"/>
			<circle class="st27" cx="15.6" cy="21.1" r="9.5"/>
			<circle class="st27" cx="15.6" cy="21.1" r="9.5"/>
			<circle class="st27" cx="15.6" cy="21.1" r="9.5"/>
			<circle class="st28" cx="15.6" cy="21.1" r="9.5"/>
			<circle class="st28" cx="15.6" cy="21.1" r="9.5"/>
			<circle class="st28" cx="15.6" cy="21.1" r="9.4"/>
			<circle class="st28" cx="15.6" cy="21.1" r="9.4"/>
			<circle class="st29" cx="15.6" cy="21.1" r="9.4"/>
			<circle class="st29" cx="15.6" cy="21.1" r="9.4"/>
			<circle class="st29" cx="15.6" cy="21.1" r="9.4"/>
			<circle class="st29" cx="15.6" cy="21.1" r="9.4"/>
			<circle class="st30" cx="15.6" cy="21.1" r="9.4"/>
			<circle class="st30" cx="15.6" cy="21.1" r="9.3"/>
			<circle class="st30" cx="15.6" cy="21.1" r="9.3"/>
		</g>
		<g>
			<circle class="st31" cx="15.6" cy="21.1" r="5.8"/>
			<circle class="st31" cx="15.6" cy="21.1" r="5.8"/>
			<circle class="st32" cx="15.6" cy="21.1" r="5.8"/>
			<circle class="st32" cx="15.6" cy="21.1" r="5.8"/>
			<circle class="st32" cx="15.6" cy="21.1" r="5.8"/>
			<circle class="st33" cx="15.6" cy="21.1" r="5.8"/>
			<circle class="st33" cx="15.6" cy="21.1" r="5.8"/>
			<circle class="st34" cx="15.6" cy="21.1" r="5.7"/>
			<circle class="st34" cx="15.6" cy="21.1" r="5.7"/>
			<circle class="st34" cx="15.6" cy="21.1" r="5.7"/>
			<circle class="st35" cx="15.6" cy="21.1" r="5.7"/>
			<circle class="st35" cx="15.6" cy="21.1" r="5.7"/>
			<circle class="st35" cx="15.6" cy="21.1" r="5.7"/>
			<circle class="st36" cx="15.6" cy="21.1" r="5.7"/>
			<circle class="st36" cx="15.6" cy="21.1" r="5.6"/>
			<circle class="st37" cx="15.6" cy="21.1" r="5.6"/>
			<circle class="st38" cx="15.6" cy="21.1" r="5.6"/>
			<circle class="st38" cx="15.6" cy="21.1" r="5.6"/>
			<circle class="st39" cx="15.6" cy="21.1" r="5.6"/>
			<circle class="st39" cx="15.6" cy="21.1" r="5.6"/>
			<circle class="st39" cx="15.6" cy="21.1" r="5.6"/>
			<circle class="st40" cx="15.6" cy="21.1" r="5.6"/>
			<circle class="st40" cx="15.6" cy="21.1" r="5.5"/>
			<circle class="st40" cx="15.6" cy="21.1" r="5.5"/>
			<circle class="st41" cx="15.6" cy="21.1" r="5.5"/>
			<circle class="st41" cx="15.6" cy="21.1" r="5.5"/>
			<circle class="st42" cx="15.6" cy="21.1" r="5.5"/>
			<circle class="st43" cx="15.6" cy="21.1" r="5.5"/>
			<circle class="st43" cx="15.6" cy="21.1" r="5.5"/>
			<circle class="st44" cx="15.6" cy="21.1" r="5.4"/>
			<circle class="st45" cx="15.6" cy="21.1" r="5.4"/>
			<circle class="st45" cx="15.6" cy="21.1" r="5.4"/>
			<circle class="st46" cx="15.6" cy="21.1" r="5.4"/>
			<circle class="st46" cx="15.6" cy="21.1" r="5.4"/>
			<circle class="st47" cx="15.6" cy="21.1" r="5.4"/>
			<circle class="st48" cx="15.6" cy="21.1" r="5.4"/>
			<circle class="st48" cx="15.6" cy="21.1" r="5.3"/>
			<circle class="st49" cx="15.6" cy="21.1" r="5.3"/>
			<circle class="st50" cx="15.6" cy="21.1" r="5.3"/>
			<circle class="st50" cx="15.6" cy="21.1" r="5.3"/>
			<circle class="st51" cx="15.6" cy="21.1" r="5.3"/>
			<circle class="st52" cx="15.6" cy="21.1" r="5.3"/>
			<circle class="st53" cx="15.6" cy="21.1" r="5.3"/>
			<circle class="st54" cx="15.6" cy="21.1" r="5.3"/>
			<circle class="st54" cx="15.6" cy="21.1" r="5.2"/>
			<circle class="st55" cx="15.6" cy="21.1" r="5.2"/>
			<circle class="st56" cx="15.6" cy="21.1" r="5.2"/>
			<circle class="st56" cx="15.6" cy="21.1" r="5.2"/>
			<circle class="st57" cx="15.6" cy="21.1" r="5.2"/>
			<circle class="st58" cx="15.6" cy="21.1" r="5.2"/>
			<circle class="st58" cx="15.6" cy="21.1" r="5.2"/>
			<circle class="st59" cx="15.6" cy="21.1" r="5.1"/>
			<circle class="st60" cx="15.6" cy="21.1" r="5.1"/>
			<circle class="st61" cx="15.6" cy="21.1" r="5.1"/>
			<circle class="st62" cx="15.6" cy="21.1" r="5.1"/>
			<circle class="st62" cx="15.6" cy="21.1" r="5.1"/>
			<circle class="st63" cx="15.6" cy="21.1" r="5.1"/>
			<circle class="st64" cx="15.6" cy="21.1" r="5.1"/>
			<circle class="st64" cx="15.6" cy="21.1" r="5.1"/>
			<circle class="st65" cx="15.6" cy="21.1" r="5"/>
			<circle class="st66" cx="15.6" cy="21.1" r="5"/>
			<circle class="st67" cx="15.6" cy="21.1" r="5"/>
			<circle class="st67" cx="15.6" cy="21.1" r="5"/>
			<circle class="st68" cx="15.6" cy="21.1" r="5"/>
			<circle class="st69" cx="15.6" cy="21.1" r="5"/>
			<circle class="st69" cx="15.6" cy="21.1" r="5"/>
			<circle class="st70" cx="15.6" cy="21.1" r="4.9"/>
			<circle class="st71" cx="15.6" cy="21.1" r="4.9"/>
			<circle class="st72" cx="15.6" cy="21.1" r="4.9"/>
			<circle class="st72" cx="15.6" cy="21.1" r="4.9"/>
			<circle class="st73" cx="15.6" cy="21.1" r="4.9"/>
			<circle class="st74" cx="15.6" cy="21.1" r="4.9"/>
			<circle class="st75" cx="15.6" cy="21.1" r="4.9"/>
			<circle class="st75" cx="15.6" cy="21.1" r="4.9"/>
			<circle class="st76" cx="15.6" cy="21.1" r="4.8"/>
			<circle class="st77" cx="15.6" cy="21.1" r="4.8"/>
			<circle class="st77" cx="15.6" cy="21.1" r="4.8"/>
			<circle class="st78" cx="15.6" cy="21.1" r="4.8"/>
			<circle class="st79" cx="15.6" cy="21.1" r="4.8"/>
			<circle class="st80" cx="15.6" cy="21.1" r="4.8"/>
			<circle class="st81" cx="15.6" cy="21.1" r="4.8"/>
			<circle class="st81" cx="15.6" cy="21.1" r="4.7"/>
			<circle class="st82" cx="15.6" cy="21.1" r="4.7"/>
			<circle class="st83" cx="15.6" cy="21.1" r="4.7"/>
			<circle class="st83" cx="15.6" cy="21.1" r="4.7"/>
			<circle class="st84" cx="15.6" cy="21.1" r="4.7"/>
			<circle class="st85" cx="15.6" cy="21.1" r="4.7"/>
			<circle class="st85" cx="15.6" cy="21.1" r="4.7"/>
			<circle class="st86" cx="15.6" cy="21.1" r="4.6"/>
			<circle class="st87" cx="15.6" cy="21.1" r="4.6"/>
			<circle class="st88" cx="15.6" cy="21.1" r="4.6"/>
			<circle class="st89" cx="15.6" cy="21.1" r="4.6"/>
			<circle class="st89" cx="15.6" cy="21.1" r="4.6"/>
			<circle class="st90" cx="15.6" cy="21.1" r="4.6"/>
			<circle class="st91" cx="15.6" cy="21.1" r="4.6"/>
			<circle class="st91" cx="15.6" cy="21.1" r="4.6"/>
			<circle class="st92" cx="15.6" cy="21.1" r="4.5"/>
			<circle class="st93" cx="15.6" cy="21.1" r="4.5"/>
			<circle class="st93" cx="15.6" cy="21.1" r="4.5"/>
			<circle class="st94" cx="15.6" cy="21.1" r="4.5"/>
			<circle class="st94" cx="15.6" cy="21.1" r="4.5"/>
			<circle class="st95" cx="15.6" cy="21.1" r="4.5"/>
			<circle class="st96" cx="15.6" cy="21.1" r="4.5"/>
			<circle class="st96" cx="15.6" cy="21.1" r="4.4"/>
			<circle class="st97" cx="15.6" cy="21.1" r="4.4"/>
			<circle class="st98" cx="15.6" cy="21.1" r="4.4"/>
			<circle class="st98" cx="15.6" cy="21.1" r="4.4"/>
			<circle class="st99" cx="15.6" cy="21.1" r="4.4"/>
			<circle class="st99" cx="15.6" cy="21.1" r="4.4"/>
			<circle class="st99" cx="15.6" cy="21.1" r="4.4"/>
			<circle class="st100" cx="15.6" cy="21.1" r="4.4"/>
			<circle class="st100" cx="15.6" cy="21.1" r="4.3"/>
			<circle class="st100" cx="15.6" cy="21.1" r="4.3"/>
			<circle class="st101" cx="15.6" cy="21.1" r="4.3"/>
			<circle class="st101" cx="15.6" cy="21.1" r="4.3"/>
			<circle class="st102" cx="15.6" cy="21.1" r="4.3"/>
			<circle class="st103" cx="15.6" cy="21.1" r="4.3"/>
			<circle class="st103" cx="15.6" cy="21.1" r="4.3"/>
			<circle class="st104" cx="15.6" cy="21.1" r="4.2"/>
			<circle class="st104" cx="15.6" cy="21.1" r="4.2"/>
			<circle class="st104" cx="15.6" cy="21.1" r="4.2"/>
			<circle class="st105" cx="15.6" cy="21.1" r="4.2"/>
			<circle class="st105" cx="15.6" cy="21.1" r="4.2"/>
			<circle class="st105" cx="15.6" cy="21.1" r="4.2"/>
			<circle class="st106" cx="15.6" cy="21.1" r="4.2"/>
			<circle class="st106" cx="15.6" cy="21.1" r="4.2"/>
			<circle class="st107" cx="15.6" cy="21.1" r="4.1"/>
			<circle class="st107" cx="15.6" cy="21.1" r="4.1"/>
			<circle class="st107" cx="15.6" cy="21.1" r="4.1"/>
			<circle class="st108" cx="15.6" cy="21.1" r="4.1"/>
			<circle class="st108" cx="15.6" cy="21.1" r="4.1"/>
		</g>
		<g>
			<circle class="st109" cx="15.6" cy="21.1" r="3.3"/>
		</g>
	</g>
</g>
<g>
	<path class="st110" d="M5.3,46.4L5.3,46.4c-1.3,0-2.3-1-2.3-2.3v-1.3c0-1.3,1-2.3,2.3-2.3l0,0c1.3,0,2.3,1,2.3,2.3v1.3
		C7.6,45.4,6.6,46.4,5.3,46.4z"/>
	<path class="st111" d="M5.3,45.7L5.3,45.7c-1,0-1.7-0.8-1.7-1.7v-1c0-1,0.8-1.7,1.7-1.7l0,0c1,0,1.7,0.8,1.7,1.7v1
		C7.1,44.9,6.3,45.7,5.3,45.7z"/>
	<g>
		<rect x="4.7" y="42.8" class="st112" width="1.3" height="1.3"/>
		<polygon class="st113" points="5.3,43.5 6,44.1 6,42.8 		"/>
		<polygon class="st114" points="4.7,44.1 5.3,43.5 6,44.1 		"/>
		<polygon class="st113" points="4.7,42.8 5.3,43.5 4.7,44.1 		"/>
	</g>
</g>
<g>
	<rect x="4.7" y="48.2" class="st112" width="1.4" height="8"/>
	<rect x="4.8" y="48.2" class="st113" width="1.1" height="8"/>
	<polygon class="st113" points="5.8,56.8 6,56.3 4.6,56.3 4.9,56.8 	"/>
	<polygon class="st114" points="5.8,56.8 5.9,56.3 4.8,56.3 4.9,56.8 	"/>
</g>
<g>
	<path class="st110" d="M12.5,46.4L12.5,46.4c-1.3,0-2.3-1-2.3-2.3v-1.3c0-1.3,1-2.3,2.3-2.3l0,0c1.3,0,2.3,1,2.3,2.3v1.3
		C14.8,45.4,13.7,46.4,12.5,46.4z"/>
	<path class="st111" d="M12.5,45.7L12.5,45.7c-1,0-1.7-0.8-1.7-1.7v-1c0-1,0.8-1.7,1.7-1.7l0,0c1,0,1.7,0.8,1.7,1.7v1
		C14.2,44.9,13.4,45.7,12.5,45.7z"/>
	<g>
		<rect x="11.8" y="42.8" class="st112" width="1.3" height="1.3"/>
		<polygon class="st113" points="12.5,43.5 13.2,44.1 13.2,42.8 		"/>
		<polygon class="st114" points="11.8,44.1 12.5,43.5 13.2,44.1 		"/>
		<polygon class="st113" points="11.8,42.8 12.5,43.5 11.8,44.1 		"/>
	</g>
</g>
<g>
	<rect x="11.8" y="48.3" class="st112" width="1.4" height="8"/>
	<rect x="11.9" y="48.3" class="st113" width="1.1" height="8"/>
	<polygon class="st113" points="12.9,56.8 13.2,56.3 11.8,56.3 12.1,56.8 	"/>
	<polygon class="st114" points="12.9,56.8 13.1,56.3 11.9,56.3 12.1,56.8 	"/>
</g>
<g>
	<path class="st110" d="M19.6,46.4L19.6,46.4c-1.3,0-2.3-1-2.3-2.3v-1.3c0-1.3,1-2.3,2.3-2.3l0,0c1.3,0,2.3,1,2.3,2.3v1.3
		C21.9,45.4,20.9,46.4,19.6,46.4z"/>
	<path class="st111" d="M19.6,45.7L19.6,45.7c-1,0-1.7-0.8-1.7-1.7v-1c0-1,0.8-1.7,1.7-1.7l0,0c1,0,1.7,0.8,1.7,1.7v1
		C21.4,44.9,20.6,45.7,19.6,45.7z"/>
	<g>
		<rect x="18.9" y="42.9" class="st112" width="1.3" height="1.3"/>
		<polygon class="st113" points="19.6,43.5 20.3,44.1 20.3,42.8 		"/>
		<polygon class="st114" points="18.9,44.1 19.6,43.5 20.3,44.1 		"/>
		<polygon class="st113" points="18.9,42.8 19.6,43.5 18.9,44.1 		"/>
	</g>
</g>
<g>
	<rect x="18.9" y="48.3" class="st112" width="1.4" height="8"/>
	<rect x="19" y="48.3" class="st113" width="1.1" height="8"/>
	<polygon class="st113" points="20,56.8 20.3,56.3 18.9,56.3 19.2,56.8 	"/>
	<polygon class="st114" points="20,56.8 20.2,56.3 19,56.3 19.2,56.8 	"/>
</g>
<g>
	<path class="st110" d="M26.8,46.4L26.8,46.4c-1.3,0-2.3-1-2.3-2.3v-1.3c0-1.3,1-2.3,2.3-2.3l0,0c1.3,0,2.3,1,2.3,2.3v1.3
		C29,45.4,28,46.4,26.8,46.4z"/>
	<path class="st111" d="M26.8,45.7L26.8,45.7c-1,0-1.7-0.8-1.7-1.7v-1c0-1,0.8-1.7,1.7-1.7l0,0c1,0,1.7,0.8,1.7,1.7v1
		C28.5,44.9,27.7,45.7,26.8,45.7z"/>
	<g>
		<rect x="26.1" y="42.8" class="st112" width="1.3" height="1.3"/>
		<polygon class="st113" points="26.8,43.5 27.4,44.1 27.4,42.8 		"/>
		<polygon class="st114" points="26.1,44.1 26.8,43.5 27.4,44.1 		"/>
		<polygon class="st113" points="26.1,42.8 26.8,43.5 26.1,44.1 		"/>
	</g>
</g>
<g>
	<rect x="26.1" y="48.2" class="st112" width="1.4" height="8"/>
	<rect x="26.2" y="48.2" class="st113" width="1.1" height="8"/>
	<polygon class="st113" points="27.2,56.8 27.5,56.3 26.1,56.3 26.3,56.8 	"/>
	<polygon class="st114" points="27.2,56.8 27.3,56.3 26.2,56.3 26.3,56.8 	"/>
</g>
<g>
	<path class="st30" d="M6.7,39.2l-2.8,0.9v-0.4L6.1,39l-2.2-0.7v-0.4l2.8,0.9V39.2z"/>
	<path class="st30" d="M6.7,36.6c0,0.2,0,0.4-0.1,0.5s-0.2,0.3-0.4,0.3s-0.3,0.1-0.6,0.1H4.9c-0.2,0-0.4,0-0.6-0.1S4,37.3,3.9,37.2
		s-0.1-0.3-0.1-0.5s0-0.3,0.1-0.5s0.2-0.2,0.3-0.3s0.3-0.2,0.4-0.2v0.4c-0.1,0-0.2,0.1-0.2,0.1s-0.1,0.1-0.2,0.2s-0.1,0.2-0.1,0.2
		c0,0.2,0.1,0.3,0.2,0.4s0.3,0.2,0.5,0.2h0.8c0.2,0,0.4-0.1,0.5-0.2s0.2-0.2,0.2-0.4c0-0.1,0-0.2-0.1-0.3S6,36.1,5.9,36.1v-0.4
		c0.2,0,0.3,0.1,0.4,0.2s0.2,0.2,0.3,0.3S6.7,36.5,6.7,36.6z"/>
	<path class="st30" d="M6.7,34.2c0,0.2,0,0.4-0.1,0.5S6.4,34.9,6.2,35s-0.3,0.1-0.6,0.1H4.9c-0.2,0-0.4,0-0.6-0.1S4,34.8,3.9,34.7
		s-0.1-0.3-0.1-0.5s0-0.3,0.1-0.5s0.2-0.2,0.3-0.3s0.3-0.2,0.4-0.2v0.4c-0.1,0-0.2,0.1-0.2,0.1s-0.1,0.1-0.2,0.2s-0.1,0.2-0.1,0.2
		c0,0.2,0.1,0.3,0.2,0.4s0.3,0.2,0.5,0.2h0.8c0.2,0,0.4-0.1,0.5-0.2s0.2-0.2,0.2-0.4c0-0.1,0-0.2-0.1-0.3S6,33.6,5.9,33.6v-0.4
		c0.2,0,0.3,0.1,0.4,0.2s0.2,0.2,0.3,0.3S6.7,34,6.7,34.2z"/>
</g>
<g>
	<path class="st30" d="M12.3,39.1v-1h0.5c0.2,0,0.4,0,0.6,0.1s0.3,0.2,0.4,0.3s0.1,0.3,0.1,0.5s0,0.4-0.1,0.5s-0.2,0.3-0.3,0.4
		S13.2,40,13,40h-0.8c-0.2,0-0.4,0-0.6-0.1s-0.3-0.2-0.4-0.3S11,39.3,11,39.1s0-0.3,0.1-0.5s0.2-0.2,0.3-0.3s0.3-0.2,0.4-0.2v0.4
		c-0.1,0-0.3,0.1-0.3,0.2s-0.1,0.2-0.1,0.3c0,0.2,0.1,0.3,0.2,0.4s0.3,0.2,0.5,0.2h0.8c0.2,0,0.3-0.1,0.4-0.2s0.2-0.3,0.2-0.4
		c0-0.2-0.1-0.3-0.2-0.4s-0.3-0.2-0.5-0.2h-0.1V39h-0.4V39.1z"/>
	<path class="st30" d="M13.9,37.5H11v-0.4l2.2-1.4h0.1H11v-0.4h2.8v0.4l-2.1,1.4h-0.1h2.2L13.9,37.5L13.9,37.5z"/>
	<path class="st30" d="M13.9,34.4h-0.4v-0.6c0-0.2-0.1-0.4-0.2-0.5s-0.3-0.2-0.5-0.2H12c-0.2,0-0.4,0.1-0.5,0.2s-0.2,0.3-0.2,0.5
		v0.6H11v-0.6c0-0.3,0.1-0.6,0.3-0.8s0.4-0.3,0.8-0.3h0.8c0.3,0,0.6,0.1,0.8,0.3s0.3,0.5,0.3,0.8v0.6H13.9z M13.9,34.7H11v-0.4h2.8
		L13.9,34.7L13.9,34.7z"/>
</g>
<g>
	<path class="st30" d="M21,39.1c0,0.2,0,0.4-0.1,0.6s-0.1,0.3-0.3,0.5L20.3,40c0.1-0.1,0.2-0.2,0.2-0.4s0.1-0.3,0.1-0.4
		c0-0.2,0-0.4-0.1-0.5s-0.2-0.2-0.3-0.2l0,0c-0.1,0-0.2,0-0.2,0.1c-0.1,0.1-0.1,0.1-0.1,0.2c0,0.1-0.1,0.2-0.1,0.3s0,0.2-0.1,0.3
		c0,0.1-0.1,0.2-0.1,0.3c-0.1,0.1-0.1,0.2-0.2,0.2C19.2,40,19.1,40,18.9,40l0,0c-0.3,0-0.5-0.1-0.6-0.3s-0.2-0.4-0.2-0.7
		c0-0.2,0-0.3,0.1-0.4s0.1-0.3,0.2-0.4l0.3,0.2c-0.2,0.2-0.2,0.4-0.2,0.6c0,0.2,0,0.3,0.1,0.5c0.1,0.1,0.2,0.2,0.3,0.2l0,0
		c0.1,0,0.2,0,0.2-0.1c0.1-0.1,0.1-0.1,0.1-0.2s0.1-0.2,0.1-0.3s0-0.2,0.1-0.3s0.1-0.2,0.1-0.3c0.1-0.1,0.1-0.2,0.2-0.2
		c0.1-0.1,0.2-0.1,0.4-0.1l0,0c0.3,0,0.5,0.1,0.6,0.3C20.9,38.5,21,38.8,21,39.1z"/>
	<path class="st30" d="M21,36.6c0,0.2,0,0.4-0.1,0.5s-0.2,0.3-0.4,0.3c-0.2,0.1-0.3,0.1-0.6,0.1h-0.8c-0.2,0-0.4,0-0.6-0.1
		s-0.3-0.2-0.4-0.3S18,36.8,18,36.6s0-0.3,0.1-0.5s0.2-0.2,0.3-0.3c0.1-0.1,0.3-0.2,0.4-0.2V36c-0.1,0-0.2,0.1-0.2,0.1
		s-0.1,0.1-0.2,0.2c0,0.1-0.1,0.2-0.1,0.2c0,0.2,0.1,0.3,0.2,0.4s0.3,0.2,0.5,0.2h0.8c0.2,0,0.4-0.1,0.5-0.2
		c0.1-0.1,0.2-0.2,0.2-0.4c0-0.1,0-0.2-0.1-0.3S20.2,36,20.1,36v-0.4c0.2,0,0.3,0.1,0.4,0.2c0.1,0.1,0.2,0.2,0.3,0.3
		C21,36.2,21,36.4,21,36.6z"/>
	<path class="st30" d="M21,35h-2.8v-0.4H21V35z M21,34.8h-0.4v-1.6H21V34.8z"/>
</g>
<g>
	<path class="st30" d="M28.2,39.1c0,0.2,0,0.4-0.1,0.6S28,40,27.9,40.1l-0.3-0.2c0.1-0.1,0.2-0.2,0.2-0.4s0.1-0.3,0.1-0.4
		c0-0.2,0-0.4-0.1-0.5s-0.2-0.2-0.3-0.2l0,0c-0.1,0-0.2,0-0.2,0.1c-0.1,0.1-0.1,0.1-0.1,0.2c0,0.1-0.1,0.2-0.1,0.3s0,0.2-0.1,0.3
		c0,0.1-0.1,0.2-0.1,0.3c-0.1,0.1-0.1,0.2-0.2,0.2C26.4,40,26.3,40,26.1,40l0,0c-0.3,0-0.5-0.1-0.6-0.3s-0.2-0.4-0.2-0.7
		c0-0.2,0-0.3,0.1-0.4s0.1-0.3,0.2-0.4l0.3,0.2c-0.2,0.2-0.2,0.4-0.2,0.6c0,0.2,0,0.3,0.1,0.5c0.1,0.1,0.2,0.2,0.3,0.2l0,0
		c0.1,0,0.2,0,0.2-0.1c0.1-0.1,0.1-0.1,0.1-0.2s0.1-0.2,0.1-0.3s0-0.2,0.1-0.3s0.1-0.2,0.1-0.3c0.1-0.1,0.1-0.2,0.2-0.2
		c0.1-0.1,0.2-0.1,0.4-0.1l0,0c0.3,0,0.5,0.1,0.6,0.3C28.1,38.5,28.2,38.8,28.2,39.1z"/>
	<path class="st30" d="M28.2,37.2h-0.4v-0.6c0-0.2-0.1-0.4-0.2-0.5s-0.3-0.2-0.5-0.2h-0.8c-0.2,0-0.4,0.1-0.5,0.2
		c-0.1,0.1-0.2,0.3-0.2,0.5v0.6h-0.4v-0.6c0-0.3,0.1-0.6,0.3-0.8s0.4-0.3,0.8-0.3h0.8c0.3,0,0.6,0.1,0.8,0.3s0.3,0.5,0.3,0.8
		C28.2,36.6,28.2,37.2,28.2,37.2z M28.2,37.5h-2.8v-0.4h2.8V37.5z"/>
	<path class="st30" d="M28.2,35.1l-2.8-1v-0.3l2.8-1v0.4L25.9,34l2.3,0.8V35.1z M27.6,34.7h-0.4v-1.5h0.4V34.7z"/>
</g>
</svg>
