<?xml version="1.0" encoding="utf-8"?>
<!-- Generator: Adobe Illustrator 23.0.1, SVG Export Plug-In . SVG Version: 6.00 Build 0)  -->
<svg version="1.1" id="Layer_1" xmlns="http://www.w3.org/2000/svg" xmlns:xlink="http://www.w3.org/1999/xlink" x="0px" y="0px"
	 viewBox="0 0 62.4 54" style="enable-background:new 0 0 62.4 54;" xml:space="preserve">
<style type="text/css">
	.st0{fill:#7C6B2B;stroke:#D8C262;stroke-width:0.15;stroke-miterlimit:10;}
	.st1{fill:#7C6B2B;stroke:#D8C262;stroke-miterlimit:10;}
	.st2{fill:#C6C5C5;}
	.st3{fill:#7C6B2B;}
	.st4{fill:#C9B55E;}
	.st5{fill:#FFFFFF;}
	.st6{fill:#474748;}
	.st7{fill:none;stroke:#FFFFFF;stroke-width:0.25;stroke-miterlimit:10;}
	.st8{fill:#663332;}
	.st9{font-family:'ArialRoundedMTBold';}
	.st10{font-size:3.9446px;}
	.st11{fill:#040202;}
	.st12{fill:#DDDDDC;}
	.st13{fill:#EDEDF2;}
	.st14{fill:#7D6C2B;}
	.st15{fill:#3D3C3A;}
</style>
<g>
	<path d="M18.9,53.9h24.5c2,0,3.9-1.1,4.9-2.8l12.3-21.2c1-1.8,1-3.9,0-5.7L48.4,2.9c-1-1.8-2.9-2.8-4.9-2.8H18.9
		c-2,0-3.9,1.1-4.9,2.8L1.8,24.1c-1,1.8-1,3.9,0,5.7L14,51C15,52.8,16.9,53.9,18.9,53.9z"/>
	<circle class="st0" cx="54.7" cy="23.5" r="0.5"/>
	<circle class="st0" cx="49.3" cy="36.5" r="0.5"/>
	<circle class="st1" cx="28" cy="15.1" r="1.5"/>
	<circle class="st1" cx="34.7" cy="15.1" r="1.5"/>
	<circle class="st0" cx="45.5" cy="22.2" r="0.5"/>
	<circle class="st0" cx="45.5" cy="18.1" r="0.5"/>
	<circle class="st0" cx="45.5" cy="14.1" r="0.5"/>
	<circle class="st0" cx="46" cy="7.1" r="0.5"/>
	<circle class="st0" cx="16.6" cy="7.1" r="0.5"/>
	<g>
		<g>
			
				<rect x="46" y="20.9" transform="matrix(-1 -1.224647e-16 1.224647e-16 -1 93.842 44.4276)" class="st2" width="1.9" height="2.7"/>
			<g>
				<path class="st3" d="M47.9,20.9v2.7H46v-2.7H47.9 M48.4,20.4h-0.5H46h-0.5v0.5v2.7V24H46h1.9h0.5v-0.5v-2.7V20.4L48.4,20.4z"/>
			</g>
			
				<rect x="45.4" y="21.9" transform="matrix(-1.836970e-16 1 -1 -1.836970e-16 67.9153 -23.5963)" class="st4" width="0.7" height="0.5"/>
			<rect x="46.6" y="23.5" class="st4" width="0.7" height="0.5"/>
			<rect x="46.9" y="20.4" class="st4" width="0.7" height="0.5"/>
		</g>
		<g>
			
				<rect x="50.8" y="20.9" transform="matrix(-1 -1.224647e-16 1.224647e-16 -1 103.4795 44.4276)" class="st2" width="1.9" height="2.7"/>
			<g>
				<path class="st3" d="M52.7,20.9v2.7h-1.9v-2.7H52.7 M53.2,20.4h-0.5h-1.9h-0.5v0.5v2.7V24h0.5h1.9h0.5v-0.5v-2.7V20.4L53.2,20.4
					z"/>
			</g>
			
				<rect x="50.2" y="21.9" transform="matrix(-1.836970e-16 1 -1 -1.836970e-16 72.7341 -28.4151)" class="st4" width="0.7" height="0.5"/>
			<rect x="51.4" y="23.5" class="st4" width="0.7" height="0.5"/>
			<rect x="51.7" y="20.4" class="st4" width="0.7" height="0.5"/>
		</g>
		<g>
			
				<rect x="50.8" y="21.1" transform="matrix(-1 -1.224647e-16 1.224647e-16 -1 102.4318 44.408)" class="st5" width="0.7" height="2.1"/>
			
				<rect x="47.3" y="21.1" transform="matrix(-1 -1.224647e-16 1.224647e-16 -1 95.3445 44.408)" class="st5" width="0.7" height="2.1"/>
			
				<rect x="48" y="21.1" transform="matrix(-1 -1.224647e-16 1.224647e-16 -1 98.8881 44.408)" class="st6" width="2.8" height="2.1"/>
		</g>
		<line class="st7" x1="50.1" y1="23.5" x2="48.6" y2="23.5"/>
		<line class="st7" x1="50.1" y1="20.8" x2="48.6" y2="20.8"/>
	</g>
	<g>
		<g>
			
				<rect x="9.9" y="21.8" transform="matrix(-1 -1.224647e-16 1.224647e-16 -1 21.6942 46.2169)" class="st2" width="1.9" height="2.7"/>
			<g>
				<path class="st3" d="M11.8,21.8v2.7H9.9v-2.7H11.8 M12.3,21.3h-0.5H9.9H9.4v0.5v2.7v0.5h0.5h1.9h0.5v-0.5v-2.7V21.3L12.3,21.3z"
					/>
			</g>
			
				<rect x="9.3" y="22.8" transform="matrix(-1.836970e-16 1 -1 -1.836970e-16 32.7361 13.3722)" class="st4" width="0.7" height="0.5"/>
			<rect x="10.5" y="24.4" class="st4" width="0.7" height="0.5"/>
			<rect x="10.8" y="21.3" class="st4" width="0.7" height="0.5"/>
		</g>
		<g>
			
				<rect x="14.7" y="21.8" transform="matrix(-1 -1.224647e-16 1.224647e-16 -1 31.3318 46.2169)" class="st2" width="1.9" height="2.7"/>
			<g>
				<path class="st3" d="M16.6,21.8v2.7h-1.9v-2.7H16.6 M17.1,21.3h-0.5h-1.9h-0.5v0.5v2.7v0.5h0.5h1.9h0.5v-0.5v-2.7V21.3
					L17.1,21.3z"/>
			</g>
			
				<rect x="14.1" y="22.8" transform="matrix(-1.836970e-16 1 -1 -1.836970e-16 37.5548 8.5534)" class="st4" width="0.7" height="0.5"/>
			<rect x="15.3" y="24.4" class="st4" width="0.7" height="0.5"/>
			<rect x="15.7" y="21.3" class="st4" width="0.7" height="0.5"/>
		</g>
		<g>
			
				<rect x="14.8" y="22" transform="matrix(-1 -1.224647e-16 1.224647e-16 -1 30.284 46.1972)" class="st5" width="0.7" height="2.1"/>
			
				<rect x="11.2" y="22" transform="matrix(-1 -1.224647e-16 1.224647e-16 -1 23.1967 46.1972)" class="st5" width="0.7" height="2.1"/>
			
				<rect x="12" y="22" transform="matrix(-1 -1.224647e-16 1.224647e-16 -1 26.7404 46.1972)" class="st6" width="2.8" height="2.1"/>
		</g>
		<line class="st7" x1="14" y1="24.4" x2="12.5" y2="24.4"/>
		<line class="st7" x1="14" y1="21.6" x2="12.5" y2="21.6"/>
	</g>
	<g>
		<g>
			
				<rect x="43" y="28.6" transform="matrix(-1.836970e-16 1 -1 -1.836970e-16 73.9227 -13.9759)" class="st2" width="1.9" height="2.7"/>
			<g>
				<path class="st3" d="M45.3,29v1.9h-2.7V29H45.3 M45.8,28.5h-0.5h-2.7h-0.5V29v1.9v0.5h0.5h2.7h0.5v-0.5V29V28.5L45.8,28.5z"/>
			</g>
			<rect x="43.5" y="30.9" class="st4" width="0.7" height="0.5"/>
			
				<rect x="45.2" y="29.7" transform="matrix(6.123234e-17 -1 1 6.123234e-17 15.5464 75.4932)" class="st4" width="0.7" height="0.5"/>
			
				<rect x="42" y="29.4" transform="matrix(6.123234e-17 -1 1 6.123234e-17 12.7662 71.9914)" class="st4" width="0.7" height="0.5"/>
		</g>
		<g>
			
				<rect x="43" y="23.8" transform="matrix(-1.836970e-16 1 -1 -1.836970e-16 69.1039 -18.7947)" class="st2" width="1.9" height="2.7"/>
			<g>
				<path class="st3" d="M45.3,24.2v1.9h-2.7v-1.9H45.3 M45.8,23.7h-0.5h-2.7h-0.5v0.5v1.9v0.5h0.5h2.7h0.5v-0.5v-1.9V23.7
					L45.8,23.7z"/>
			</g>
			<rect x="43.5" y="26.1" class="st4" width="0.7" height="0.5"/>
			
				<rect x="45.2" y="24.9" transform="matrix(6.123234e-17 -1 1 6.123234e-17 20.3652 70.6744)" class="st4" width="0.7" height="0.5"/>
			
				<rect x="42" y="24.6" transform="matrix(6.123234e-17 -1 1 6.123234e-17 17.585 67.1726)" class="st4" width="0.7" height="0.5"/>
		</g>
		<g>
			
				<rect x="43.6" y="24.6" transform="matrix(-1.836970e-16 1 -1 -1.836970e-16 69.618 -18.2609)" class="st5" width="0.7" height="2.1"/>
			
				<rect x="43.6" y="28.2" transform="matrix(-1.836970e-16 1 -1 -1.836970e-16 73.1616 -14.7173)" class="st5" width="0.7" height="2.1"/>
			
				<rect x="42.5" y="26.4" transform="matrix(-1.836970e-16 1 -1 -1.836970e-16 71.3898 -16.4891)" class="st6" width="2.8" height="2.1"/>
		</g>
		<line class="st7" x1="45.3" y1="26.8" x2="45.3" y2="28.3"/>
		<line class="st7" x1="42.5" y1="26.8" x2="42.5" y2="28.3"/>
	</g>
	<g>
		<g>
			
				<rect x="46" y="16.9" transform="matrix(-1 -1.224647e-16 1.224647e-16 -1 93.842 36.394)" class="st2" width="1.9" height="2.7"/>
			<g>
				<path class="st3" d="M47.9,16.9v2.7H46v-2.7H47.9 M48.4,16.4h-0.5H46h-0.5v0.5v2.7V20H46h1.9h0.5v-0.5v-2.7V16.4L48.4,16.4z"/>
			</g>
			
				<rect x="45.4" y="17.9" transform="matrix(-1.836970e-16 1 -1 -1.836970e-16 63.8985 -27.6131)" class="st4" width="0.7" height="0.5"/>
			<rect x="46.6" y="19.5" class="st4" width="0.7" height="0.5"/>
			<rect x="46.9" y="16.4" class="st4" width="0.7" height="0.5"/>
		</g>
		<g>
			
				<rect x="50.8" y="16.9" transform="matrix(-1 -1.224647e-16 1.224647e-16 -1 103.4795 36.394)" class="st2" width="1.9" height="2.7"/>
			<g>
				<path class="st3" d="M52.7,16.9v2.7h-1.9v-2.7H52.7 M53.2,16.4h-0.5h-1.9h-0.5v0.5v2.7V20h0.5h1.9h0.5v-0.5v-2.7V16.4L53.2,16.4
					z"/>
			</g>
			
				<rect x="50.2" y="17.9" transform="matrix(-1.836970e-16 1 -1 -1.836970e-16 68.7173 -32.4319)" class="st4" width="0.7" height="0.5"/>
			<rect x="51.4" y="19.5" class="st4" width="0.7" height="0.5"/>
			<rect x="51.7" y="16.4" class="st4" width="0.7" height="0.5"/>
		</g>
		<g>
			
				<rect x="50.8" y="17.1" transform="matrix(-1 -1.224647e-16 1.224647e-16 -1 102.4318 36.3744)" class="st5" width="0.7" height="2.1"/>
			
				<rect x="47.3" y="17.1" transform="matrix(-1 -1.224647e-16 1.224647e-16 -1 95.3445 36.3744)" class="st5" width="0.7" height="2.1"/>
			
				<rect x="48" y="17.1" transform="matrix(-1 -1.224647e-16 1.224647e-16 -1 98.8881 36.3744)" class="st6" width="2.8" height="2.1"/>
		</g>
		<line class="st7" x1="50.1" y1="19.5" x2="48.6" y2="19.5"/>
		<line class="st7" x1="50.1" y1="16.7" x2="48.6" y2="16.7"/>
	</g>
	<g>
		<g>
			
				<rect x="46" y="12.8" transform="matrix(-1 -1.224647e-16 1.224647e-16 -1 93.842 28.3604)" class="st2" width="1.9" height="2.7"/>
			<g>
				<path class="st3" d="M47.9,12.8v2.7H46v-2.7H47.9 M48.4,12.3h-0.5H46h-0.5v0.5v2.7V16H46h1.9h0.5v-0.5v-2.7V12.3L48.4,12.3z"/>
			</g>
			
				<rect x="45.4" y="13.9" transform="matrix(-1.836970e-16 1 -1 -1.836970e-16 59.8817 -31.6299)" class="st4" width="0.7" height="0.5"/>
			<rect x="46.6" y="15.5" class="st4" width="0.7" height="0.5"/>
			<rect x="46.9" y="12.4" class="st4" width="0.7" height="0.5"/>
		</g>
		<g>
			
				<rect x="50.8" y="12.8" transform="matrix(-1 -1.224647e-16 1.224647e-16 -1 103.4795 28.3604)" class="st2" width="1.9" height="2.7"/>
			<g>
				<path class="st3" d="M52.7,12.8v2.7h-1.9v-2.7H52.7 M53.2,12.3h-0.5h-1.9h-0.5v0.5v2.7V16h0.5h1.9h0.5v-0.5v-2.7V12.3L53.2,12.3
					z"/>
			</g>
			
				<rect x="50.2" y="13.9" transform="matrix(-1.836970e-16 1 -1 -1.836970e-16 64.7005 -36.4487)" class="st4" width="0.7" height="0.5"/>
			<rect x="51.4" y="15.5" class="st4" width="0.7" height="0.5"/>
			<rect x="51.7" y="12.4" class="st4" width="0.7" height="0.5"/>
		</g>
		<g>
			
				<rect x="50.8" y="13.1" transform="matrix(-1 -1.224647e-16 1.224647e-16 -1 102.4318 28.3408)" class="st5" width="0.7" height="2.1"/>
			
				<rect x="47.3" y="13.1" transform="matrix(-1 -1.224647e-16 1.224647e-16 -1 95.3445 28.3408)" class="st5" width="0.7" height="2.1"/>
			
				<rect x="48" y="13.1" transform="matrix(-1 -1.224647e-16 1.224647e-16 -1 98.8881 28.3408)" class="st8" width="2.8" height="2.1"/>
		</g>
		<line class="st7" x1="50.1" y1="15.5" x2="48.6" y2="15.5"/>
		<line class="st7" x1="50.1" y1="12.7" x2="48.6" y2="12.7"/>
	</g>
	<g>
		<g>
			
				<rect x="9.9" y="17.9" transform="matrix(-1 -1.224647e-16 1.224647e-16 -1 21.6943 38.4005)" class="st2" width="1.9" height="2.7"/>
			<g>
				<path class="st3" d="M11.8,17.9v2.7H9.9v-2.7H11.8 M12.3,17.4h-0.5H9.9H9.4v0.5v2.7V21h0.5h1.9h0.5v-0.5v-2.7V17.4L12.3,17.4z"
					/>
			</g>
			
				<rect x="9.3" y="18.9" transform="matrix(-1.836970e-16 1 -1 -1.836970e-16 28.8279 9.464)" class="st4" width="0.7" height="0.5"/>
			<rect x="10.5" y="20.5" class="st4" width="0.7" height="0.5"/>
			<rect x="10.8" y="17.4" class="st4" width="0.7" height="0.5"/>
		</g>
		<g>
			
				<rect x="14.7" y="17.9" transform="matrix(-1 -1.224647e-16 1.224647e-16 -1 31.3318 38.4005)" class="st2" width="1.9" height="2.7"/>
			<g>
				<path class="st3" d="M16.6,17.9v2.7h-1.9v-2.7H16.6 M17.1,17.4h-0.5h-1.9h-0.5v0.5v2.7V21h0.5h1.9h0.5v-0.5v-2.7V17.4L17.1,17.4
					z"/>
			</g>
			
				<rect x="14.1" y="18.9" transform="matrix(-1.836970e-16 1 -1 -1.836970e-16 33.6467 4.6452)" class="st4" width="0.7" height="0.5"/>
			<rect x="15.3" y="20.5" class="st4" width="0.7" height="0.5"/>
			<rect x="15.7" y="17.4" class="st4" width="0.7" height="0.5"/>
		</g>
		<g>
			
				<rect x="14.8" y="18.1" transform="matrix(-1 -1.224647e-16 1.224647e-16 -1 30.284 38.3809)" class="st5" width="0.7" height="2.1"/>
			
				<rect x="11.2" y="18.1" transform="matrix(-1 -1.224647e-16 1.224647e-16 -1 23.1967 38.3809)" class="st5" width="0.7" height="2.1"/>
			
				<rect x="12" y="18.1" transform="matrix(-1 -1.224647e-16 1.224647e-16 -1 26.7404 38.3809)" class="st8" width="2.8" height="2.1"/>
		</g>
		<line class="st7" x1="14" y1="20.5" x2="12.5" y2="20.5"/>
		<line class="st7" x1="14" y1="17.7" x2="12.5" y2="17.7"/>
	</g>
	<g>
		<g>
			
				<rect x="53.8" y="28.4" transform="matrix(-1.836970e-16 1 -1 -1.836970e-16 84.4657 -24.9811)" class="st2" width="1.9" height="2.7"/>
			<g>
				<path class="st3" d="M56.1,28.8v1.9h-2.7v-1.9H56.1 M56.6,28.3h-0.5h-2.7h-0.5v0.5v1.9v0.5h0.5h2.7h0.5v-0.5v-1.9V28.3
					L56.6,28.3z"/>
			</g>
			<rect x="54.3" y="30.7" class="st4" width="0.7" height="0.5"/>
			
				<rect x="55.9" y="29.5" transform="matrix(6.123234e-17 -1 1 6.123234e-17 26.5516 86.0362)" class="st4" width="0.7" height="0.5"/>
			
				<rect x="52.8" y="29.1" transform="matrix(6.123234e-17 -1 1 6.123234e-17 23.7713 82.5344)" class="st4" width="0.7" height="0.5"/>
		</g>
		<g>
			
				<rect x="53.8" y="23.6" transform="matrix(-1.836970e-16 1 -1 -1.836970e-16 79.6469 -29.7998)" class="st2" width="1.9" height="2.7"/>
			<g>
				<path class="st3" d="M56.1,24v1.9h-2.7V24H56.1 M56.6,23.5h-0.5h-2.7h-0.5V24v1.9v0.5h0.5h2.7h0.5v-0.5V24V23.5L56.6,23.5z"/>
			</g>
			<rect x="54.3" y="25.9" class="st4" width="0.7" height="0.5"/>
			
				<rect x="55.9" y="24.7" transform="matrix(6.123234e-17 -1 1 6.123234e-17 31.3703 81.2175)" class="st4" width="0.7" height="0.5"/>
			
				<rect x="52.8" y="24.3" transform="matrix(6.123234e-17 -1 1 6.123234e-17 28.5901 77.7157)" class="st4" width="0.7" height="0.5"/>
		</g>
		<g>
			
				<rect x="54.3" y="24.4" transform="matrix(-1.836970e-16 1 -1 -1.836970e-16 80.161 -29.2661)" class="st5" width="0.7" height="2.1"/>
			
				<rect x="54.3" y="27.9" transform="matrix(-1.836970e-16 1 -1 -1.836970e-16 83.7047 -25.7225)" class="st5" width="0.7" height="2.1"/>
			
				<rect x="53.3" y="26.2" transform="matrix(-1.836970e-16 1 -1 -1.836970e-16 81.9328 -27.4943)" class="st8" width="2.8" height="2.1"/>
		</g>
		<line class="st7" x1="56.1" y1="26.6" x2="56.1" y2="28.1"/>
		<line class="st7" x1="53.3" y1="26.6" x2="53.3" y2="28.1"/>
	</g>
	<g>
		<g>
			
				<rect x="9.9" y="13.9" transform="matrix(-1 -1.224647e-16 1.224647e-16 -1 21.6943 30.4137)" class="st2" width="1.9" height="2.7"/>
			<g>
				<path class="st3" d="M11.8,13.9v2.7H9.9v-2.7H11.8 M12.3,13.4h-0.5H9.9H9.4v0.5v2.7V17h0.5h1.9h0.5v-0.5v-2.7V13.4L12.3,13.4z"
					/>
			</g>
			
				<rect x="9.3" y="14.9" transform="matrix(-1.836970e-16 1 -1 -1.836970e-16 24.8345 5.4706)" class="st4" width="0.7" height="0.5"/>
			<rect x="10.5" y="16.5" class="st4" width="0.7" height="0.5"/>
			<rect x="10.8" y="13.4" class="st4" width="0.7" height="0.5"/>
		</g>
		<g>
			
				<rect x="14.7" y="13.9" transform="matrix(-1 -1.224647e-16 1.224647e-16 -1 31.3318 30.4137)" class="st2" width="1.9" height="2.7"/>
			<g>
				<path class="st3" d="M16.6,13.9v2.7h-1.9v-2.7H16.6 M17.1,13.4h-0.5h-1.9h-0.5v0.5v2.7V17h0.5h1.9h0.5v-0.5v-2.7V13.4L17.1,13.4
					z"/>
			</g>
			
				<rect x="14.1" y="14.9" transform="matrix(-1.836970e-16 1 -1 -1.836970e-16 29.6533 0.6518)" class="st4" width="0.7" height="0.5"/>
			<rect x="15.3" y="16.5" class="st4" width="0.7" height="0.5"/>
			<rect x="15.7" y="13.4" class="st4" width="0.7" height="0.5"/>
		</g>
		<g>
			
				<rect x="14.8" y="14.1" transform="matrix(-1 -1.224647e-16 1.224647e-16 -1 30.284 30.394)" class="st5" width="0.7" height="2.1"/>
			
				<rect x="11.2" y="14.1" transform="matrix(-1 -1.224647e-16 1.224647e-16 -1 23.1967 30.394)" class="st5" width="0.7" height="2.1"/>
			
				<rect x="12" y="14.1" transform="matrix(-1 -1.224647e-16 1.224647e-16 -1 26.7404 30.394)" class="st6" width="2.8" height="2.1"/>
		</g>
		<line class="st7" x1="14" y1="16.5" x2="12.5" y2="16.5"/>
		<line class="st7" x1="14" y1="13.7" x2="12.5" y2="13.7"/>
	</g>
	<text transform="matrix(-1 0 0 -1 27.9775 28.7494)" class="st5 st9 st10">Microphone</text>
	<g>
		<g>
			<polygon class="st5" points="15.2,32.6 9.9,37.9 10.9,37.9 13.1,35.8 13.6,36.4 12,37.9 13.1,37.9 14.1,36.9 14.7,37.4 
				14.1,37.9 15.2,37.9 			"/>
			<polygon class="st5" points="9.9,32.6 9.9,33.5 11.7,35.3 12.2,34.9 			"/>
			<polygon class="st5" points="9.9,34.4 9.9,35.4 10.8,36.3 11.3,35.8 			"/>
			<polygon class="st5" points="9.9,36.3 9.9,37.2 10.3,36.7 			"/>
		</g>
	</g>
	<g id="JST_15_">
		<g>
			<path class="st4" d="M39.3,33.3L39.3,33.3c0.9,0,1.7,0.8,1.7,1.7v1c0,0.9-0.8,1.7-1.7,1.7h0c-0.9,0-1.7-0.8-1.7-1.7v-1
				C37.5,34.1,38.3,33.3,39.3,33.3z"/>
			<ellipse class="st11" cx="39.3" cy="35.5" rx="1" ry="0.9"/>
		</g>
		<g>
			<path class="st4" d="M33.9,33.3L33.9,33.3c0.9,0,1.7,0.8,1.7,1.7v1c0,0.9-0.8,1.7-1.7,1.7h0c-0.9,0-1.7-0.8-1.7-1.7v-1
				C32.1,34.1,32.9,33.3,33.9,33.3z"/>
			<ellipse class="st11" cx="33.9" cy="35.5" rx="1" ry="0.9"/>
		</g>
		<g>
			<path class="st4" d="M28.5,33.3L28.5,33.3c0.9,0,1.7,0.8,1.7,1.7v1c0,0.9-0.8,1.7-1.7,1.7h0c-0.9,0-1.7-0.8-1.7-1.7v-1
				C26.7,34.1,27.5,33.3,28.5,33.3z"/>
			<ellipse class="st11" cx="28.5" cy="35.5" rx="1" ry="0.9"/>
		</g>
		<g>
			<path class="st4" d="M21.3,36.2v1.4c0,0.1,0.1,0.1,0.1,0.1h3.2c0.1,0,0.1-0.1,0.1-0.1v-4.2c0-0.1-0.1-0.1-0.1-0.1h-0.9v-0.6h-1.4
				v0.6h-0.9c-0.1,0-0.1,0.1-0.1,0.1v1.4h-0.7v1.3H21.3z"/>
			<ellipse class="st11" cx="23.1" cy="35.5" rx="1" ry="0.9"/>
		</g>
		<g>
			
				<rect x="38.5" y="37.4" transform="matrix(-1 -1.224647e-16 1.224647e-16 -1 78.5102 76.6236)" class="st5" width="1.6" height="1.7"/>
			<path class="st12" d="M39.3,35L39.3,35c0.4,0,0.8,0.4,0.8,0.8v1.7h-1.6v-1.7C38.5,35.3,38.8,35,39.3,35z"/>
		</g>
		<g>
			
				<rect x="33.1" y="37.4" transform="matrix(-1 -1.224647e-16 1.224647e-16 -1 67.7161 76.6236)" class="st5" width="1.6" height="1.7"/>
			<path class="st12" d="M33.9,35L33.9,35c0.4,0,0.8,0.4,0.8,0.8v1.7h-1.6v-1.7C33.1,35.3,33.4,35,33.9,35z"/>
		</g>
		<g>
			
				<rect x="27.7" y="37.4" transform="matrix(-1 -1.224647e-16 1.224647e-16 -1 56.922 76.6236)" class="st5" width="1.6" height="1.7"/>
			<path class="st12" d="M28.5,35L28.5,35c0.4,0,0.8,0.4,0.8,0.8v1.7h-1.6v-1.7C27.7,35.3,28,35,28.5,35z"/>
		</g>
		<g>
			
				<rect x="22.3" y="37.4" transform="matrix(-1 -1.224647e-16 1.224647e-16 -1 46.128 76.6236)" class="st5" width="1.6" height="1.7"/>
			<path class="st12" d="M23.1,35L23.1,35c0.4,0,0.8,0.4,0.8,0.8v1.7h-1.6v-1.7C22.3,35.3,22.6,35,23.1,35z"/>
		</g>
		<g>
			
				<rect x="41.7" y="33.8" transform="matrix(-1 -1.224647e-16 1.224647e-16 -1 86.1053 72.1127)" class="st5" width="2.7" height="4.5"/>
			
				<rect x="41.7" y="32" transform="matrix(-1 -1.224647e-16 1.224647e-16 -1 86.1053 65.8047)" class="st12" width="2.7" height="1.8"/>
		</g>
		<g>
			
				<rect x="18" y="33.8" transform="matrix(-1 -1.224647e-16 1.224647e-16 -1 38.6947 72.1127)" class="st5" width="2.7" height="4.5"/>
			
				<rect x="18" y="32" transform="matrix(-1 -6.764703e-13 6.764703e-13 -1 38.6947 65.8047)" class="st12" width="2.7" height="1.8"/>
		</g>
		
			<rect x="18" y="38.6" transform="matrix(-1 -1.224647e-16 1.224647e-16 -1 62.4 89.7069)" class="st12" width="26.4" height="12.5"/>
		<g>
			
				<rect x="33.4" y="38.5" transform="matrix(-1 -1.224647e-16 1.224647e-16 -1 67.8347 89.7429)" class="st5" width="1.1" height="12.7"/>
			
				<rect x="27.9" y="38.5" transform="matrix(-1 -1.224647e-16 1.224647e-16 -1 56.9319 89.7429)" class="st5" width="1.1" height="12.7"/>
			
				<rect x="30.6" y="38.5" transform="matrix(-1 -1.224647e-16 1.224647e-16 -1 62.3191 84.2706)" class="st5" width="1.1" height="7.2"/>
			
				<rect x="36" y="38.5" transform="matrix(-1 -1.224647e-16 1.224647e-16 -1 73.1132 84.2706)" class="st5" width="1.1" height="7.2"/>
			
				<rect x="25.2" y="38.5" transform="matrix(-1 -1.224647e-16 1.224647e-16 -1 51.525 84.2706)" class="st5" width="1.1" height="7.2"/>
		</g>
		
			<rect x="18" y="38.5" transform="matrix(-1 -1.224647e-16 1.224647e-16 -1 62.3191 81.3861)" class="st13" width="26.3" height="4.3"/>
		<polygon class="st5" points="24.3,53.9 24.3,43.9 30.5,43.9 38.1,43.9 38.1,53.9 44.4,53.9 44.4,38.5 43,38.5 43,49.3 40.4,49.3 
			40.4,39.2 30.5,39.2 22,39.2 22,49.3 19.4,49.3 19.4,38.5 18,38.5 18,53.9 		"/>
		
			<rect x="30.5" y="38.6" transform="matrix(-1 -1.224647e-16 1.224647e-16 -1 62.3388 77.7558)" class="st5" width="1.4" height="0.6"/>
		
			<rect x="35.9" y="38.6" transform="matrix(-1 -1.224647e-16 1.224647e-16 -1 73.1132 77.7558)" class="st5" width="1.4" height="0.6"/>
		
			<rect x="25.1" y="38.6" transform="matrix(-1 -1.224647e-16 1.224647e-16 -1 51.525 77.7558)" class="st5" width="1.4" height="0.6"/>
		<rect x="27.9" y="32.7" class="st4" width="1.1" height="0.8"/>
		<rect x="38.7" y="32.7" class="st4" width="1.1" height="0.8"/>
	</g>
	<g>
		<g>
			<g>
				<g>
					<g>
						<rect x="48.8" y="25" class="st2" width="1.1" height="2.3"/>
						<path class="st14" d="M49.7,25.2V27h-0.6v-1.8H49.7 M50.2,24.7h-0.5h-0.6h-0.5v0.5V27v0.5h0.5h0.6h0.5V27v-1.8V24.7L50.2,24.7
							z"/>
					</g>
				</g>
			</g>
			<g>
				<g>
					<g>
						<g>
							<rect x="50.2" y="25" class="st2" width="1.1" height="2.3"/>
							<path class="st14" d="M51,25.2V27h-0.6v-1.8H51 M51.5,24.7H51h-0.6h-0.5v0.5V27v0.5h0.5H51h0.5V27v-1.8V24.7L51.5,24.7z"/>
						</g>
					</g>
				</g>
				<polygon class="st4" points="51,25.2 50.6,25.2 51.1,24.8 51.5,24.8 51.5,25.3 51,25.8 				"/>
			</g>
			<g>
				<g>
					<g>
						<g>
							<rect x="47.5" y="25" class="st2" width="1.1" height="2.3"/>
							<path class="st14" d="M48.3,25.2V27h-0.6v-1.8H48.3 M48.8,24.7h-0.5h-0.6h-0.5v0.5V27v0.5h0.5h0.6h0.5V27v-1.8V24.7
								L48.8,24.7z"/>
						</g>
					</g>
				</g>
				<polygon class="st4" points="47.7,25.2 48.1,25.2 47.6,24.8 47.3,24.8 47.3,25.3 47.7,25.8 				"/>
			</g>
			<g>
				<g>
					<g>
						<g>
							<rect x="50.2" y="27.7" class="st2" width="1.1" height="2.3"/>
							<path class="st14" d="M51,28v1.8h-0.6V28H51 M51.5,27.5H51h-0.6h-0.5V28v1.8v0.5h0.5H51h0.5v-0.5V28V27.5L51.5,27.5z"/>
						</g>
					</g>
				</g>
				<polygon class="st4" points="51,29.7 50.6,29.7 51.1,30.2 51.5,30.2 51.5,29.6 51,29.1 				"/>
			</g>
			<g>
				<g>
					<g>
						<g>
							<rect x="47.5" y="27.7" class="st2" width="1.1" height="2.3"/>
							<path class="st14" d="M48.3,28v1.8h-0.6V28H48.3 M48.8,27.5h-0.5h-0.6h-0.5V28v1.8v0.5h0.5h0.6h0.5v-0.5V28V27.5L48.8,27.5z"
								/>
						</g>
					</g>
				</g>
				<polygon class="st4" points="47.7,29.7 48.1,29.7 47.6,30.2 47.3,30.2 47.3,29.6 47.7,29.1 				"/>
			</g>
			
				<rect x="49.1" y="24.8" transform="matrix(-1 -1.224647e-16 1.224647e-16 -1 98.7695 49.9958)" class="st4" width="0.6" height="0.5"/>
		</g>
		
			<rect x="47.1" y="25.8" transform="matrix(-1 -1.224647e-16 1.224647e-16 -1 98.7695 54.9326)" class="st6" width="4.6" height="3.3"/>
		<line class="st7" x1="51.9" y1="29.2" x2="51.9" y2="25.4"/>
		<line class="st7" x1="46.8" y1="29.2" x2="46.8" y2="25.8"/>
	</g>
	<circle class="st7" cx="31.2" cy="15.2" r="13"/>
	<g>
		<path class="st15" d="M31.2,26.9c-6.5,0-11.7-5.3-11.7-11.7S24.7,3.4,31.2,3.4s11.7,5.3,11.7,11.7S37.7,26.9,31.2,26.9z"/>
		<path class="st13" d="M31.2,3.9c6.2,0,11.2,5,11.2,11.2s-5,11.2-11.2,11.2S20,21.3,20,15.2S25,3.9,31.2,3.9 M31.2,2.9
			C24.5,2.9,19,8.4,19,15.2s5.5,12.2,12.2,12.2s12.2-5.5,12.2-12.2S37.9,2.9,31.2,2.9L31.2,2.9z"/>
	</g>
</g>
</svg>
