<?xml version="1.0" encoding="utf-8"?>
<!-- Generator: Adobe Illustrator 23.0.1, SVG Export Plug-In . SVG Version: 6.00 Build 0)  -->
<svg version="1.1" id="Layer_1" xmlns="http://www.w3.org/2000/svg" xmlns:xlink="http://www.w3.org/1999/xlink" x="0px" y="0px"
	 viewBox="0 0 53.9 123.5" style="enable-background:new 0 0 53.9 123.5;" xml:space="preserve">
<style type="text/css">
	.st0{fill:#C9B55E;}
	.st1{fill:#040202;}
	.st2{fill:#FFFFFF;}
	.st3{fill:#DDDDDC;}
	.st4{fill:#EDEDF2;}
	.st5{fill:#7C6B2B;stroke:#D8C262;stroke-width:2;stroke-miterlimit:10;}
	.st6{fill:none;stroke:#D8C262;stroke-width:2;stroke-miterlimit:10;}
	.st7{fill:#D8C262;}
	.st8{fill:#7C6B2B;}
	.st9{fill:#C6C5C5;}
	.st10{fill:#474748;}
	.st11{fill:none;stroke:#FFFFFF;stroke-width:0.25;stroke-miterlimit:10;}
	.st12{fill:none;stroke:#7C6B2B;stroke-width:0.5;stroke-miterlimit:10;}
	.st13{font-family:'ArialRoundedMTBold';}
	.st14{font-size:3.6797px;}
	.st15{fill:#232323;}
	.st16{fill:#5CAF66;}
	.st17{fill:#76C27C;}
	.st18{clip-path:url(#SVGID_2_);}
	.st19{fill:#BBBBBB;}
	.st20{clip-path:url(#SVGID_4_);}
</style>
<g>
	<g>
		<path d="M2.7,13.2C1,14.1,0,15.9,0,17.8v28L0.3,46L0,46.2v31.1l0.3,0.2L0,77.6v28c0,1.9,1,3.7,2.7,4.7l21.5,12.4
			c1.7,1,3.7,1,5.4,0l21.5-12.4c1.7-1,2.7-2.7,2.7-4.7v-28l-0.3-0.2l0.3-0.2V46.2L53.5,46l0.3-0.2v-28c0-1.9-1-3.7-2.7-4.7L29.6,0.7
			c-1.7-1-3.7-1-5.4,0L2.7,13.2z"/>
		<g id="JST_11_">
			<g>
				<path class="st0" d="M35,95.2L35,95.2c1,0,1.7,0.8,1.7,1.7v1.4c0,1-0.8,1.7-1.7,1.7h0c-1,0-1.7-0.8-1.7-1.7v-1.4
					C33.3,96,34,95.2,35,95.2z"/>
				<circle class="st1" cx="35" cy="97.6" r="1"/>
			</g>
			<g>
				<path class="st0" d="M29.6,95.2L29.6,95.2c1,0,1.7,0.8,1.7,1.7v1.4c0,1-0.8,1.7-1.7,1.7h0c-1,0-1.7-0.8-1.7-1.7v-1.4
					C27.9,96,28.6,95.2,29.6,95.2z"/>
				<circle class="st1" cx="29.6" cy="97.6" r="1"/>
			</g>
			<g>
				<path class="st0" d="M24.2,95.2L24.2,95.2c1,0,1.7,0.8,1.7,1.7v1.4c0,1-0.8,1.7-1.7,1.7h0c-1,0-1.7-0.8-1.7-1.7v-1.4
					C22.5,96,23.2,95.2,24.2,95.2z"/>
				<circle class="st1" cx="24.2" cy="97.6" r="1"/>
			</g>
			<g>
				<path class="st0" d="M17.1,98.4v1.6c0,0.1,0.1,0.1,0.1,0.1h3.2c0.1,0,0.1-0.1,0.1-0.1v-4.6c0-0.1-0.1-0.1-0.1-0.1h-0.9v-0.7
					h-1.4v0.7h-0.9c-0.1,0-0.1,0.1-0.1,0.1v1.6h-0.7v1.4H17.1z"/>
				<circle class="st1" cx="18.8" cy="97.6" r="1"/>
			</g>
			<g>
				
					<rect x="34.2" y="99.8" transform="matrix(-1 -1.224647e-16 1.224647e-16 -1 69.9867 201.4535)" class="st2" width="1.6" height="1.9"/>
				<path class="st3" d="M35,97L35,97c0.4,0,0.8,0.4,0.8,0.8v1.9h-1.6v-1.9C34.2,97.4,34.6,97,35,97z"/>
			</g>
			<g>
				
					<rect x="28.8" y="99.8" transform="matrix(-1 -1.224647e-16 1.224647e-16 -1 59.1804 201.4535)" class="st2" width="1.6" height="1.9"/>
				<path class="st3" d="M29.6,97L29.6,97c0.4,0,0.8,0.4,0.8,0.8v1.9h-1.6v-1.9C28.8,97.4,29.1,97,29.6,97z"/>
			</g>
			<g>
				
					<rect x="23.4" y="99.8" transform="matrix(-1 -1.224647e-16 1.224647e-16 -1 48.3742 201.4535)" class="st2" width="1.6" height="1.9"/>
				<path class="st3" d="M24.2,97L24.2,97c0.4,0,0.8,0.4,0.8,0.8v1.9h-1.6v-1.9C23.4,97.4,23.7,97,24.2,97z"/>
			</g>
			<g>
				
					<rect x="18" y="99.8" transform="matrix(-1 -1.224647e-16 1.224647e-16 -1 37.5679 201.4535)" class="st2" width="1.6" height="1.9"/>
				<path class="st3" d="M18.8,97L18.8,97c0.4,0,0.8,0.4,0.8,0.8v1.9H18v-1.9C18,97.4,18.3,97,18.8,97z"/>
			</g>
			<g>
				
					<rect x="37.4" y="95.8" transform="matrix(-1 -1.224647e-16 1.224647e-16 -1 77.5904 196.4858)" class="st2" width="2.7" height="5"/>
				
					<rect x="37.4" y="93.8" transform="matrix(-1 -1.224647e-16 1.224647e-16 -1 77.5904 189.5389)" class="st3" width="2.7" height="2"/>
			</g>
			<g>
				
					<rect x="13.7" y="95.8" transform="matrix(-1 -1.224647e-16 1.224647e-16 -1 30.1263 196.4858)" class="st2" width="2.7" height="5"/>
				
					<rect x="13.7" y="93.8" transform="matrix(-1 -1.224647e-16 1.224647e-16 -1 30.1263 189.5389)" class="st3" width="2.7" height="2"/>
			</g>
			
				<rect x="13.7" y="101" transform="matrix(-1 -1.224647e-16 1.224647e-16 -1 53.8583 215.8618)" class="st3" width="26.4" height="13.8"/>
			<g>
				
					<rect x="29.1" y="101" transform="matrix(-1 -1.224647e-16 1.224647e-16 -1 59.2992 215.9014)" class="st2" width="1.1" height="13.9"/>
				
					<rect x="23.6" y="101" transform="matrix(-1 -1.224647e-16 1.224647e-16 -1 48.3841 215.9014)" class="st2" width="1.1" height="13.9"/>
				
					<rect x="26.3" y="101" transform="matrix(-1 -1.224647e-16 1.224647e-16 -1 53.7773 209.8749)" class="st2" width="1.1" height="7.9"/>
				
					<rect x="31.7" y="101" transform="matrix(-1 -1.224647e-16 1.224647e-16 -1 64.5835 209.8749)" class="st2" width="1.1" height="7.9"/>
				
					<rect x="20.9" y="101" transform="matrix(-1 -1.224647e-16 1.224647e-16 -1 42.9711 209.8749)" class="st2" width="1.1" height="7.9"/>
			</g>
			
				<rect x="13.7" y="101" transform="matrix(-1 -1.224647e-16 1.224647e-16 -1 53.7773 206.6983)" class="st4" width="26.3" height="4.7"/>
			<polygon class="st2" points="20.1,117.9 20.1,106.9 26.2,106.9 33.8,106.9 33.8,117.9 40.1,117.9 40.1,101 38.8,101 38.8,112.8 
				36.1,112.8 36.1,101.7 26.2,101.7 17.8,101.7 17.8,112.8 15.1,112.8 15.1,101 13.7,101 13.7,117.9 			"/>
			
				<rect x="26.2" y="101" transform="matrix(-1 -1.224647e-16 1.224647e-16 -1 53.7971 202.7004)" class="st2" width="1.4" height="0.7"/>
			
				<rect x="31.6" y="101" transform="matrix(-1 -1.224647e-16 1.224647e-16 -1 64.5835 202.7004)" class="st2" width="1.4" height="0.7"/>
			
				<rect x="20.8" y="101" transform="matrix(-1 -1.224647e-16 1.224647e-16 -1 42.9711 202.7004)" class="st2" width="1.4" height="0.7"/>
		</g>
		<circle class="st5" cx="11.1" cy="71.8" r="2.5"/>
		<circle class="st5" cx="10.9" cy="38.9" r="2.5"/>
		<circle class="st5" cx="43.1" cy="38.9" r="2.5"/>
		<circle class="st5" cx="22.5" cy="15.2" r="2.5"/>
		<circle class="st5" cx="26.9" cy="76.8" r="2.5"/>
		<line class="st6" x1="11.1" y1="74.3" x2="11.1" y2="75.7"/>
		<g>
			
				<rect x="28.6" y="12.2" transform="matrix(6.123234e-17 -1 1 6.123234e-17 16.3646 46.9738)" class="st7" width="6.2" height="6.2"/>
			<circle class="st8" cx="31.7" cy="15.2" r="1.7"/>
			
				<rect x="31.3" y="16.1" transform="matrix(6.123234e-17 -1 1 6.123234e-17 12.9195 50.4189)" class="st7" width="0.7" height="5.3"/>
		</g>
		<g>
			<g>
				
					<rect x="17.5" y="86.8" transform="matrix(6.123234e-17 -1 1 6.123234e-17 -68.2616 107.4327)" class="st9" width="4.2" height="2.2"/>
				<g>
					<path class="st8" d="M20.7,85.7V90h-2.2v-4.2H20.7 M21.2,85.2h-0.5h-2.2H18v0.5V90v0.5h0.5h2.2h0.5V90v-4.2V85.2L21.2,85.2z"/>
				</g>
			</g>
			<g>
				
					<rect x="32.3" y="86.8" transform="matrix(6.123234e-17 -1 1 6.123234e-17 -53.4426 122.2517)" class="st9" width="4.2" height="2.2"/>
				<g>
					<path class="st8" d="M35.5,85.7V90h-2.2v-4.2H35.5 M36,85.2h-0.5h-2.2h-0.5v0.5V90v0.5h0.5h2.2H36V90v-4.2V85.2L36,85.2z"/>
				</g>
			</g>
			<g>
				
					<rect x="18.4" y="87" transform="matrix(6.123234e-17 -1 1 6.123234e-17 -65.8817 109.8126)" class="st3" width="7.1" height="1.7"/>
				
					<rect x="24.3" y="82.8" transform="matrix(6.123234e-17 -1 1 6.123234e-17 -60.0209 115.6734)" class="st10" width="7.1" height="10.1"/>
			</g>
			
				<rect x="18.9" y="87.5" transform="matrix(6.123234e-17 -1 1 6.123234e-17 -67.0642 108.6301)" class="st2" width="3.9" height="0.7"/>
			
				<rect x="31.3" y="87.5" transform="matrix(6.123234e-17 -1 1 6.123234e-17 -54.64 121.0543)" class="st2" width="3.9" height="0.7"/>
			<polyline class="st11" points="32.3,92.2 18,92.2 18,83.5 32.3,83.5 			"/>
		</g>
		<g>
			<g>
				
					<rect x="39.2" y="86.4" transform="matrix(6.123234e-17 -1 1 6.123234e-17 -47.2892 128.0393)" class="st9" width="2.4" height="2.5"/>
				
					<rect x="39.2" y="86.4" transform="matrix(6.123234e-17 -1 1 6.123234e-17 -47.2892 128.0393)" class="st12" width="2.4" height="2.5"/>
			</g>
			<g>
				
					<rect x="44.3" y="88.7" transform="matrix(6.123234e-17 -1 1 6.123234e-17 -44.4838 135.5434)" class="st9" width="2.4" height="2.5"/>
				
					<rect x="44.3" y="88.7" transform="matrix(6.123234e-17 -1 1 6.123234e-17 -44.4838 135.5434)" class="st12" width="2.4" height="2.5"/>
			</g>
			<g>
				
					<rect x="44.3" y="84" transform="matrix(6.123234e-17 -1 1 6.123234e-17 -39.7579 130.8175)" class="st9" width="2.4" height="2.5"/>
				
					<rect x="44.3" y="84" transform="matrix(6.123234e-17 -1 1 6.123234e-17 -39.7579 130.8175)" class="st12" width="2.4" height="2.5"/>
			</g>
			
				<rect x="40.2" y="87" transform="matrix(6.123234e-17 -1 1 6.123234e-17 -47.1048 128.2237)" class="st2" width="0.7" height="1.4"/>
			
				<rect x="45" y="89.3" transform="matrix(6.123234e-17 -1 1 6.123234e-17 -44.6747 135.3525)" class="st2" width="0.7" height="1.4"/>
			
				<rect x="45" y="84.6" transform="matrix(6.123234e-17 -1 1 6.123234e-17 -39.9489 130.6266)" class="st2" width="0.7" height="1.4"/>
			
				<rect x="39" y="86" transform="matrix(6.123234e-17 -1 1 6.123234e-17 -44.7151 130.6134)" class="st10" width="8" height="3.4"/>
			<polyline class="st11" points="46.9,91.9 41,91.9 41,89.3 			"/>
			<polyline class="st11" points="41,86 41,83.4 44.9,83.4 			"/>
		</g>
		<g>
			<g>
				
					<rect x="44.8" y="93.3" transform="matrix(-1.836970e-16 1 -1 -1.836970e-16 140.4243 48.9192)" class="st9" width="1.9" height="2.7"/>
				<g>
					<path class="st8" d="M47.1,93.7v1.9h-2.7v-1.9H47.1 M47.6,93.2h-0.5h-2.7h-0.5v0.5v1.9v0.5h0.5h2.7h0.5v-0.5v-1.9V93.2
						L47.6,93.2z"/>
				</g>
				
					<rect x="43.8" y="94.4" transform="matrix(-1.836970e-16 1 -1 -1.836970e-16 138.852 50.4915)" class="st0" width="0.7" height="0.5"/>
			</g>
			<g>
				
					<rect x="44.8" y="98.1" transform="matrix(-1.836970e-16 1 -1 -1.836970e-16 145.2336 53.7286)" class="st9" width="1.9" height="2.7"/>
				<g>
					<path class="st8" d="M47.1,98.6v1.9h-2.7v-1.9H47.1 M47.6,98.1h-0.5h-2.7h-0.5v0.5v1.9v0.5h0.5h2.7h0.5v-0.5v-1.9V98.1
						L47.6,98.1z"/>
				</g>
				<rect x="45.3" y="100.4" class="st0" width="0.7" height="0.5"/>
				
					<rect x="47" y="99.2" transform="matrix(6.123234e-17 -1 1 6.123234e-17 -52.1563 146.8059)" class="st0" width="0.7" height="0.5"/>
			</g>
			<g>
				
					<rect x="45.4" y="94.1" transform="matrix(-1.836970e-16 1 -1 -1.836970e-16 140.924 49.4387)" class="st2" width="0.7" height="2.1"/>
				
					<rect x="45.4" y="97.7" transform="matrix(-1.836970e-16 1 -1 -1.836970e-16 144.4717 52.9863)" class="st2" width="0.7" height="2.1"/>
				
					<rect x="44.3" y="95.9" transform="matrix(-1.836970e-16 1 -1 -1.836970e-16 142.6979 51.2125)" class="st10" width="2.8" height="2.1"/>
			</g>
			<line class="st11" x1="47.1" y1="96.3" x2="47.1" y2="97.8"/>
			<line class="st11" x1="44.3" y1="96.3" x2="44.3" y2="97.8"/>
		</g>
		<text transform="matrix(6.123234e-17 -1 1 6.123234e-17 4.2365 80.8252)" class="st2 st13 st14">Relay Module</text>
		<g>
			<g>
				<polygon class="st2" points="9.3,97 4,91.7 4,92.7 6.1,94.8 5.6,95.4 4,93.8 4,94.9 5.1,95.9 4.5,96.5 4,95.9 4,97 				"/>
				<polygon class="st2" points="9.4,91.6 8.4,91.6 6.6,93.5 7,94 				"/>
				<polygon class="st2" points="7.5,91.6 6.6,91.6 5.6,92.6 6.1,93 				"/>
				<polygon class="st2" points="5.6,91.6 4.7,91.6 5.2,92.1 				"/>
			</g>
		</g>
		<polyline class="st11" points="23.6,80.7 6.1,80.7 6.1,27.5 47.8,27.5 47.8,80.7 30.2,80.7 		"/>
		<polyline class="st11" points="26.9,72.2 26.9,69.7 36.7,69.7 36.7,51.6 26.9,51.6 26.9,47.6 20.4,35.2 		"/>
		<polyline class="st11" points="10.9,67.4 10.9,60.6 22.2,60.6 		"/>
		
			<rect x="21.9" y="55.8" transform="matrix(6.123234e-17 -1 1 6.123234e-17 -33.5375 87.7598)" class="st11" width="10.4" height="9.8"/>
		<line class="st11" x1="22.2" y1="65.9" x2="32" y2="55.4"/>
		<polyline class="st11" points="43.1,67.4 43.1,60.6 36.7,60.6 32,60.6 		"/>
		<line class="st11" x1="31.7" y1="38.9" x2="38.4" y2="38.9"/>
		<line class="st11" x1="15.4" y1="38.9" x2="22.1" y2="38.9"/>
		
			<rect x="17.8" y="5.8" transform="matrix(6.123234e-17 -1 1 6.123234e-17 11.7063 42.1598)" class="st11" width="18.3" height="18.8"/>
		<line class="st11" x1="17.5" y1="8.5" x2="36.3" y2="8.5"/>
		<g>
			
				<rect x="0.8" y="33.9" transform="matrix(3.558837e-14 -1 1 3.558837e-14 -27.2793 80.8017)" class="st15" width="51.9" height="40.2"/>
			
				<rect x="1.4" y="34.4" transform="matrix(3.558837e-14 -1 1 3.558837e-14 -27.2793 80.8017)" class="st10" width="50.7" height="39.3"/>
		</g>
	</g>
	<g>
		<rect x="16.2" y="6.9" class="st16" width="21.5" height="17.5"/>
		<rect x="16.2" y="11" class="st17" width="21.5" height="9.3"/>
		<g>
			<defs>
				<circle id="SVGID_1_" cx="22.5" cy="15.2" r="2.9"/>
			</defs>
			<clipPath id="SVGID_2_">
				<use xlink:href="#SVGID_1_"  style="overflow:visible;"/>
			</clipPath>
			<g class="st18">
				<circle class="st4" cx="22.5" cy="15.2" r="2.9"/>
				
					<rect x="21.5" y="11.7" transform="matrix(0.7071 -0.7071 0.7071 0.7071 -4.187 20.3451)" class="st19" width="1.9" height="7"/>
			</g>
		</g>
		<g>
			<defs>
				<circle id="SVGID_3_" cx="31.7" cy="15.2" r="2.9"/>
			</defs>
			<clipPath id="SVGID_4_">
				<use xlink:href="#SVGID_3_"  style="overflow:visible;"/>
			</clipPath>
			<g class="st20">
				<circle class="st4" cx="31.7" cy="15.2" r="2.9"/>
				
					<rect x="30.7" y="11.7" transform="matrix(0.7071 -0.7071 0.7071 0.7071 -1.4913 26.8533)" class="st19" width="1.9" height="7"/>
			</g>
		</g>
	</g>
</g>
</svg>
