<?xml version="1.0" encoding="utf-8"?>
<!-- Generator: Adobe Illustrator 23.0.1, SVG Export Plug-In . SVG Version: 6.00 Build 0)  -->
<svg version="1.1" id="Layer_1" xmlns="http://www.w3.org/2000/svg" xmlns:xlink="http://www.w3.org/1999/xlink" x="0px" y="0px"
	 viewBox="0 0 45.4 99" style="enable-background:new 0 0 45.4 99;" xml:space="preserve">
<style type="text/css">
	.st0{fill:#1D2856;}
	.st1{fill:#FFFFFF;}
	.st2{fill:#E5E5EC;}
	.st3{fill:#B38E80;}
	.st4{fill:#E4E6DE;}
	.st5{fill:#D1D1D1;}
	.st6{fill:#29292B;}
	.st7{fill:#595859;}
	.st8{enable-background:new    ;}
	.st9{fill:#BE9349;}
	.st10{fill:#C0944C;}
	.st11{fill:#FDC26B;}
	.st12{fill:#FFD39B;}
	.st13{fill:#FDE500;}
	.st14{fill:#EA2227;}
	.st15{fill:none;stroke:#FFFFFF;stroke-miterlimit:10;}
</style>
<g>
	<path class="st0" d="M45.4,0H0v70.9h45.4V0z M0.9,56.4c0-2.3,1.9-4.3,4.3-4.3c2.3,0,4.3,1.9,4.3,4.3c0,2.3-1.9,4.3-4.3,4.3
		C2.8,60.7,0.9,58.8,0.9,56.4z M36.1,56.4c0-2.3,1.9-4.3,4.3-4.3c2.3,0,4.3,1.9,4.3,4.3c0,2.3-1.9,4.3-4.3,4.3
		C38,60.7,36.1,58.8,36.1,56.4z M10.1,66.4v-1c0-0.9,0.8-1.7,1.7-1.7c1,0,1.7,0.8,1.7,1.7v1c0,1-0.8,1.7-1.7,1.7
		C10.8,68.1,10.1,67.3,10.1,66.4z M17.3,66.4v-1c-0.1-0.9,0.7-1.7,1.7-1.7s1.7,0.8,1.7,1.7v1c0,1-0.8,1.7-1.7,1.7
		C18,68.1,17.3,67.3,17.3,66.4z M24.4,66.4v-1c0-0.9,0.8-1.7,1.7-1.7c1,0,1.7,0.8,1.7,1.7v1c0,1-0.8,1.7-1.7,1.7
		C25.1,68.1,24.4,67.3,24.4,66.4z M31.6,66.4v-1c-0.1-0.9,0.7-1.7,1.7-1.7s1.7,0.8,1.7,1.7v1c0,1-0.8,1.7-1.7,1.7
		C32.3,68.1,31.6,67.3,31.6,66.4z"/>
	<g>
		<g>
			<g>
				
					<rect x="38.9" y="8.7" transform="matrix(-1.836970e-16 1 -1 -1.836970e-16 50.3048 -29.869)" class="st1" width="2.4" height="3"/>
				<rect x="38.8" y="9.3" class="st2" width="2.5" height="1.8"/>
			</g>
			<g>
				
					<rect x="38.9" y="14.2" transform="matrix(-1.836970e-16 1 -1 -1.836970e-16 55.7352 -24.4386)" class="st1" width="2.4" height="3"/>
				<rect x="38.8" y="14.7" class="st2" width="2.5" height="1.8"/>
			</g>
		</g>
		<g id="_x3C_Group_x3E__Capacitor_4_">
			
				<rect x="39.4" y="9.5" transform="matrix(-1.836970e-16 1 -1 -1.836970e-16 50.9237 -29.2501)" class="st1" width="1.3" height="2.6"/>
			
				<rect x="39.4" y="13.8" transform="matrix(-1.836970e-16 1 -1 -1.836970e-16 55.2136 -24.9602)" class="st1" width="1.3" height="2.6"/>
			
				<rect x="38.6" y="11.7" transform="matrix(-1.836970e-16 1 -1 -1.836970e-16 53.0687 -27.1052)" class="st3" width="3" height="2.6"/>
		</g>
	</g>
	<g>
		<g>
			<g>
				
					<rect x="38.9" y="27.1" transform="matrix(-1.836970e-16 1 -1 -1.836970e-16 68.7114 -11.4624)" class="st1" width="2.4" height="3"/>
				<rect x="38.8" y="27.7" class="st2" width="2.5" height="1.8"/>
			</g>
			<g>
				
					<rect x="38.9" y="32.6" transform="matrix(-1.836970e-16 1 -1 -1.836970e-16 74.1418 -6.0321)" class="st1" width="2.4" height="3"/>
				<rect x="38.8" y="33.2" class="st2" width="2.5" height="1.8"/>
			</g>
		</g>
		<g id="_x3C_Group_x3E__Capacitor_3_">
			
				<rect x="39.4" y="28" transform="matrix(-1.836970e-16 1 -1 -1.836970e-16 69.3579 -10.816)" class="st1" width="1.3" height="2.6"/>
			
				<rect x="39.4" y="32.2" transform="matrix(-1.836970e-16 1 -1 -1.836970e-16 73.6477 -6.5261)" class="st1" width="1.3" height="2.6"/>
			<rect x="38.8" y="29.9" class="st4" width="2.6" height="3"/>
		</g>
	</g>
	<g>
		<g>
			
				<rect x="30.4" y="31.7" transform="matrix(-1 -1.224647e-16 1.224647e-16 -1 62.6361 65.2072)" class="st5" width="1.9" height="1.8"/>
			
				<rect x="26.6" y="31.7" transform="matrix(-1 -1.224647e-16 1.224647e-16 -1 55.1595 65.2072)" class="st5" width="1.9" height="1.8"/>
			
				<rect x="22.9" y="31.7" transform="matrix(-1 -1.224647e-16 1.224647e-16 -1 47.6828 65.2072)" class="st5" width="1.9" height="1.8"/>
			
				<rect x="19.1" y="31.7" transform="matrix(-1 -1.224647e-16 1.224647e-16 -1 40.2062 65.2072)" class="st5" width="1.9" height="1.8"/>
			
				<rect x="15.4" y="31.7" transform="matrix(-1 -1.224647e-16 1.224647e-16 -1 32.7296 65.2072)" class="st5" width="1.9" height="1.8"/>
			
				<rect x="11.7" y="31.7" transform="matrix(-1 -1.224647e-16 1.224647e-16 -1 25.253 65.2072)" class="st5" width="1.9" height="1.8"/>
			
				<rect x="7.9" y="31.7" transform="matrix(-1 -1.224647e-16 1.224647e-16 -1 17.7764 65.2072)" class="st5" width="1.9" height="1.8"/>
			
				<rect x="4.2" y="31.7" transform="matrix(-1 -1.224647e-16 1.224647e-16 -1 10.2997 65.2072)" class="st5" width="1.9" height="1.8"/>
		</g>
		
			<rect x="30.4" y="7.2" transform="matrix(-1 -1.224647e-16 1.224647e-16 -1 62.6361 16.2265)" class="st5" width="1.9" height="1.8"/>
		
			<rect x="26.6" y="7.2" transform="matrix(-1 -1.224647e-16 1.224647e-16 -1 55.1595 16.2265)" class="st5" width="1.9" height="1.8"/>
		
			<rect x="22.9" y="7.2" transform="matrix(-1 -1.224647e-16 1.224647e-16 -1 47.6828 16.2265)" class="st5" width="1.9" height="1.8"/>
		
			<rect x="19.1" y="7.2" transform="matrix(-1 -1.224647e-16 1.224647e-16 -1 40.2062 16.2265)" class="st5" width="1.9" height="1.8"/>
		
			<rect x="15.4" y="7.2" transform="matrix(-1 -1.224647e-16 1.224647e-16 -1 32.7296 16.2265)" class="st5" width="1.9" height="1.8"/>
		
			<rect x="11.7" y="7.2" transform="matrix(-1 -1.224647e-16 1.224647e-16 -1 25.253 16.2265)" class="st5" width="1.9" height="1.8"/>
		
			<rect x="7.9" y="7.2" transform="matrix(-1 -1.224647e-16 1.224647e-16 -1 17.7764 16.2265)" class="st5" width="1.9" height="1.8"/>
		
			<rect x="4.2" y="7.2" transform="matrix(-1 -1.224647e-16 1.224647e-16 -1 10.2997 16.2265)" class="st5" width="1.9" height="1.8"/>
		
			<rect x="3.5" y="9" transform="matrix(-1 -1.224647e-16 1.224647e-16 -1 36.9733 40.7168)" class="st6" width="30" height="22.7"/>
		<g>
			<g>
				<g>
					
						<rect x="30.2" y="5.5" transform="matrix(-1 -1.224647e-16 1.224647e-16 -1 62.6361 15.0356)" class="st1" width="2.2" height="4.1"/>
					<rect x="30.5" y="5.9" class="st2" width="1.5" height="3.3"/>
				</g>
			</g>
			<g>
				<g>
					
						<rect x="26.5" y="5.5" transform="matrix(-1 -1.224647e-16 1.224647e-16 -1 55.1595 15.0356)" class="st1" width="2.2" height="4.1"/>
					<rect x="26.8" y="5.9" class="st2" width="1.5" height="3.3"/>
				</g>
			</g>
			<g>
				<g>
					
						<rect x="22.7" y="5.5" transform="matrix(-1 -1.224647e-16 1.224647e-16 -1 47.6828 15.0356)" class="st1" width="2.2" height="4.1"/>
					<rect x="23.1" y="5.9" class="st2" width="1.5" height="3.3"/>
				</g>
			</g>
			<g>
				<g>
					
						<rect x="19" y="5.5" transform="matrix(-1 -1.224647e-16 1.224647e-16 -1 40.2062 15.0356)" class="st1" width="2.2" height="4.1"/>
					<rect x="19.3" y="5.9" class="st2" width="1.5" height="3.3"/>
				</g>
			</g>
			<g>
				<g>
					
						<rect x="15.2" y="5.5" transform="matrix(-1 -1.224647e-16 1.224647e-16 -1 32.7296 15.0356)" class="st1" width="2.2" height="4.1"/>
					<rect x="15.6" y="5.9" class="st2" width="1.5" height="3.3"/>
				</g>
			</g>
			<g>
				<g>
					
						<rect x="11.5" y="5.5" transform="matrix(-1 -1.224647e-16 1.224647e-16 -1 25.253 15.0356)" class="st1" width="2.2" height="4.1"/>
					<rect x="11.9" y="5.9" class="st2" width="1.5" height="3.3"/>
				</g>
			</g>
			<g>
				<g>
					
						<rect x="7.8" y="5.5" transform="matrix(-1 -1.224647e-16 1.224647e-16 -1 17.7764 15.0356)" class="st1" width="2.2" height="4.1"/>
					<rect x="8.1" y="5.9" class="st2" width="1.5" height="3.3"/>
				</g>
			</g>
			<g>
				<g>
					
						<rect x="4" y="5.5" transform="matrix(-1 -1.224647e-16 1.224647e-16 -1 10.2997 15.0356)" class="st1" width="2.2" height="4.1"/>
					<rect x="4.4" y="5.9" class="st2" width="1.5" height="3.3"/>
				</g>
			</g>
			<g>
				<g>
					
						<rect x="30.2" y="31.3" transform="matrix(-1 -1.224647e-16 1.224647e-16 -1 62.6361 66.682)" class="st1" width="2.2" height="4.1"/>
					<rect x="30.5" y="31.7" class="st2" width="1.5" height="3.3"/>
				</g>
			</g>
			<g>
				<g>
					
						<rect x="26.5" y="31.3" transform="matrix(-1 -1.224647e-16 1.224647e-16 -1 55.1595 66.682)" class="st1" width="2.2" height="4.1"/>
					<rect x="26.8" y="31.7" class="st2" width="1.5" height="3.3"/>
				</g>
			</g>
			<g>
				<g>
					
						<rect x="22.7" y="31.3" transform="matrix(-1 -1.224647e-16 1.224647e-16 -1 47.6828 66.682)" class="st1" width="2.2" height="4.1"/>
					<rect x="23.1" y="31.7" class="st2" width="1.5" height="3.3"/>
				</g>
			</g>
			<g>
				<g>
					
						<rect x="19" y="31.3" transform="matrix(-1 -1.224647e-16 1.224647e-16 -1 40.2062 66.682)" class="st1" width="2.2" height="4.1"/>
					<rect x="19.3" y="31.7" class="st2" width="1.5" height="3.3"/>
				</g>
			</g>
			<g>
				<g>
					
						<rect x="15.2" y="31.3" transform="matrix(-1 -1.224647e-16 1.224647e-16 -1 32.7296 66.682)" class="st1" width="2.2" height="4.1"/>
					<rect x="15.6" y="31.7" class="st2" width="1.5" height="3.3"/>
				</g>
			</g>
			<g>
				<g>
					
						<rect x="11.5" y="31.3" transform="matrix(-1 -1.224647e-16 1.224647e-16 -1 25.253 66.682)" class="st1" width="2.2" height="4.1"/>
					<rect x="11.9" y="31.7" class="st2" width="1.5" height="3.3"/>
				</g>
			</g>
			<g>
				<g>
					
						<rect x="7.8" y="31.3" transform="matrix(-1 -1.224647e-16 1.224647e-16 -1 17.7764 66.682)" class="st1" width="2.2" height="4.1"/>
					<rect x="8.1" y="31.7" class="st2" width="1.5" height="3.3"/>
				</g>
			</g>
			<g>
				<g>
					
						<rect x="4" y="31.3" transform="matrix(-1 -1.224647e-16 1.224647e-16 -1 10.2997 66.682)" class="st1" width="2.2" height="4.1"/>
					<rect x="4.4" y="31.7" class="st2" width="1.5" height="3.3"/>
				</g>
			</g>
			<g>
				<path class="st7" d="M32.8,30.9v-8.5c-1.2,0-2.2-1-2.2-2.2c0-1.2,1-2.2,2.2-2.2V9.8H4.2v21.1H32.8z"/>
			</g>
		</g>
	</g>
	<g class="st8">
		<path class="st1" d="M31.5,54.7l3.4-1.1v0.5l-2.7,0.8l2.7,0.8v0.5l-3.4-1.1V54.7z"/>
		<path class="st1" d="M31.4,57.7c0-0.2,0.1-0.4,0.2-0.6c0.1-0.2,0.3-0.3,0.4-0.4c0.2-0.1,0.4-0.1,0.7-0.1h0.9c0.3,0,0.5,0,0.7,0.1
			c0.2,0.1,0.3,0.2,0.4,0.4c0.1,0.2,0.2,0.4,0.2,0.6c0,0.2,0,0.4-0.1,0.5c-0.1,0.2-0.2,0.3-0.4,0.4s-0.3,0.2-0.5,0.2v-0.5
			c0.1,0,0.2-0.1,0.3-0.1c0.1-0.1,0.1-0.2,0.2-0.2c0-0.1,0.1-0.2,0.1-0.3c0-0.2-0.1-0.4-0.2-0.5C34,57.1,33.9,57,33.6,57h-0.9
			c-0.2,0-0.4,0.1-0.6,0.2c-0.1,0.1-0.2,0.3-0.2,0.5c0,0.1,0,0.3,0.1,0.4c0.1,0.1,0.2,0.2,0.4,0.3v0.5c-0.2,0-0.4-0.1-0.5-0.2
			s-0.3-0.2-0.3-0.4S31.4,57.9,31.4,57.7z"/>
		<path class="st1" d="M31.4,60.7c0-0.2,0.1-0.4,0.2-0.6c0.1-0.2,0.3-0.3,0.4-0.4c0.2-0.1,0.4-0.1,0.7-0.1h0.9c0.3,0,0.5,0,0.7,0.1
			c0.2,0.1,0.3,0.2,0.4,0.4c0.1,0.2,0.2,0.4,0.2,0.6c0,0.2,0,0.4-0.1,0.5c-0.1,0.2-0.2,0.3-0.4,0.4s-0.3,0.2-0.5,0.2v-0.5
			c0.1,0,0.2-0.1,0.3-0.1c0.1-0.1,0.1-0.2,0.2-0.2c0-0.1,0.1-0.2,0.1-0.3c0-0.2-0.1-0.4-0.2-0.5C34,60,33.9,60,33.6,60h-0.9
			c-0.2,0-0.4,0.1-0.6,0.2c-0.1,0.1-0.2,0.3-0.2,0.5c0,0.1,0,0.3,0.1,0.4c0.1,0.1,0.2,0.2,0.4,0.3v0.5c-0.2,0-0.4-0.1-0.5-0.2
			s-0.3-0.2-0.3-0.4S31.4,60.9,31.4,60.7z"/>
	</g>
	<path class="st9" d="M35.5,66.6v-1.3c0-1.3-1-2.3-2.3-2.3c-1.3,0-2.3,1-2.3,2.3v1.3c0,1.3,1,2.3,2.3,2.3
		C34.5,68.9,35.5,67.9,35.5,66.6z M31.5,66.4v-1c-0.1-0.9,0.7-1.7,1.7-1.7s1.7,0.8,1.7,1.7v1c0,1-0.8,1.7-1.7,1.7
		C32.2,68.1,31.5,67.3,31.5,66.4z"/>
	<g>
		<rect x="32.5" y="65.3" class="st10" width="1.3" height="1.3"/>
		<polygon class="st11" points="33.2,65.9 32.5,65.3 32.5,66.6 		"/>
		<polygon class="st12" points="33.8,65.3 33.2,65.9 32.5,65.3 		"/>
		<polygon class="st11" points="33.8,66.6 33.2,65.9 33.8,65.3 		"/>
	</g>
	<g class="st8">
		<path class="st1" d="M24.3,54.8c0-0.2,0-0.5,0.1-0.7c0.1-0.2,0.2-0.4,0.3-0.6l0.4,0.3c-0.1,0.1-0.2,0.3-0.3,0.4
			c-0.1,0.2-0.1,0.3-0.1,0.5c0,0.2,0,0.4,0.1,0.6c0.1,0.1,0.2,0.2,0.4,0.2h0c0.1,0,0.2,0,0.3-0.1s0.1-0.2,0.2-0.3
			c0-0.1,0.1-0.2,0.1-0.4c0-0.1,0-0.3,0.1-0.4s0.1-0.2,0.1-0.4c0.1-0.1,0.2-0.2,0.3-0.3s0.3-0.1,0.5-0.1h0c0.3,0,0.6,0.1,0.7,0.3
			c0.2,0.2,0.3,0.5,0.3,0.9c0,0.2,0,0.4-0.1,0.5c-0.1,0.2-0.1,0.3-0.3,0.5L27,55.7c0.2-0.3,0.3-0.5,0.3-0.8c0-0.2,0-0.4-0.1-0.5
			c-0.1-0.1-0.2-0.2-0.4-0.2h0c-0.1,0-0.2,0-0.3,0.1c-0.1,0.1-0.1,0.2-0.1,0.3s-0.1,0.2-0.1,0.4c0,0.1-0.1,0.2-0.1,0.4
			c0,0.1-0.1,0.2-0.2,0.3c-0.1,0.1-0.2,0.2-0.3,0.2C25.6,56,25.4,56,25.2,56h0c-0.3,0-0.6-0.1-0.7-0.3
			C24.3,55.5,24.3,55.2,24.3,54.8z"/>
		<path class="st1" d="M24.3,57.8c0-0.2,0.1-0.4,0.2-0.6c0.1-0.2,0.3-0.3,0.4-0.4c0.2-0.1,0.4-0.1,0.7-0.1h0.9c0.3,0,0.5,0,0.7,0.1
			c0.2,0.1,0.3,0.2,0.4,0.4c0.1,0.2,0.2,0.4,0.2,0.6c0,0.2,0,0.4-0.1,0.5c-0.1,0.2-0.2,0.3-0.4,0.4S26.9,59,26.7,59v-0.5
			c0.1,0,0.2-0.1,0.3-0.1c0.1-0.1,0.1-0.2,0.2-0.2c0-0.1,0.1-0.2,0.1-0.3c0-0.2-0.1-0.4-0.2-0.5c-0.1-0.1-0.3-0.2-0.6-0.2h-0.9
			c-0.2,0-0.4,0.1-0.6,0.2c-0.1,0.1-0.2,0.3-0.2,0.5c0,0.1,0,0.3,0.1,0.4c0.1,0.1,0.2,0.2,0.4,0.3V59c-0.2,0-0.4-0.1-0.5-0.2
			s-0.3-0.2-0.3-0.4S24.3,58,24.3,57.8z"/>
		<path class="st1" d="M24.3,59.7h3.4v0.5h-3.4V59.7z M24.3,59.9h0.5v1.9h-0.5V59.9z"/>
	</g>
	<path class="st9" d="M28.3,66.6v-1.3c0-1.3-1-2.3-2.3-2.3c-1.2,0-2.3,1-2.3,2.3v1.3c0,1.3,1,2.3,2.3,2.3
		C27.3,68.9,28.3,67.9,28.3,66.6z M24.3,66.4v-1c0-0.9,0.8-1.7,1.7-1.7c1,0,1.7,0.8,1.7,1.7v1c0,1-0.8,1.7-1.7,1.7
		C25,68.1,24.3,67.3,24.3,66.4z"/>
	<g>
		<rect x="25.4" y="65.3" class="st10" width="1.3" height="1.3"/>
		<polygon class="st11" points="26,65.9 25.3,65.3 25.3,66.6 		"/>
		<polygon class="st12" points="26.7,65.3 26,65.9 25.3,65.3 		"/>
		<polygon class="st11" points="26.7,66.6 26,65.9 26.7,65.3 		"/>
	</g>
	<g class="st8">
		<path class="st1" d="M17.2,54.2c0-0.2,0-0.5,0.1-0.7c0.1-0.2,0.2-0.4,0.3-0.6l0.4,0.3c-0.1,0.1-0.2,0.3-0.3,0.4
			c-0.1,0.2-0.1,0.3-0.1,0.5c0,0.2,0,0.4,0.1,0.6c0.1,0.1,0.2,0.2,0.4,0.2h0c0.1,0,0.2,0,0.3-0.1s0.1-0.2,0.2-0.3
			c0-0.1,0.1-0.2,0.1-0.4c0-0.1,0-0.3,0.1-0.4s0.1-0.2,0.1-0.4c0.1-0.1,0.2-0.2,0.3-0.3s0.3-0.1,0.5-0.1h0c0.3,0,0.6,0.1,0.7,0.3
			c0.2,0.2,0.3,0.5,0.3,0.9c0,0.2,0,0.4-0.1,0.5c-0.1,0.2-0.1,0.3-0.3,0.5l-0.4-0.3c0.2-0.3,0.3-0.5,0.3-0.8c0-0.2,0-0.4-0.1-0.5
			c-0.1-0.1-0.2-0.2-0.4-0.2h0c-0.1,0-0.2,0-0.3,0.1c-0.1,0.1-0.1,0.2-0.1,0.3s-0.1,0.2-0.1,0.4c0,0.1-0.1,0.2-0.1,0.4
			c0,0.1-0.1,0.2-0.2,0.3c-0.1,0.1-0.2,0.2-0.3,0.2c-0.1,0.1-0.3,0.1-0.4,0.1h0c-0.3,0-0.6-0.1-0.7-0.3
			C17.2,54.9,17.2,54.6,17.2,54.2z"/>
		<path class="st1" d="M17.2,56.1h3.4v0.5h-3.4V56.1z M17.2,56.5h0.5v0.8c0,0.2,0.1,0.4,0.2,0.6c0.1,0.1,0.3,0.2,0.5,0.2h1
			c0.2,0,0.4-0.1,0.5-0.2c0.1-0.1,0.2-0.3,0.2-0.6v-0.8h0.5v0.8c0,0.4-0.1,0.7-0.3,1c-0.2,0.2-0.5,0.3-0.9,0.3h-1
			c-0.4,0-0.7-0.1-0.9-0.3c-0.2-0.2-0.3-0.5-0.3-1V56.5z"/>
		<path class="st1" d="M17.2,58.9l3.4,1.2v0.4l-3.4,1.2v-0.5l2.7-0.9l-2.7-0.9V58.9z M17.9,59.5h0.5v1.8h-0.5V59.5z"/>
	</g>
	<path class="st9" d="M21.2,66.6v-1.3c0-1.3-1-2.3-2.3-2.3c-1.3,0-2.3,1-2.3,2.3v1.3c0,1.3,1,2.3,2.3,2.3
		C20.2,68.9,21.2,67.9,21.2,66.6z M17.2,66.4v-1c-0.1-0.9,0.7-1.7,1.7-1.7s1.7,0.8,1.7,1.7v1c0,1-0.8,1.7-1.7,1.7
		C17.9,68.1,17.2,67.3,17.2,66.4z"/>
	<g>
		<rect x="18.2" y="65.3" class="st10" width="1.3" height="1.3"/>
		<polygon class="st11" points="18.9,65.9 18.2,65.3 18.2,66.6 		"/>
		<polygon class="st12" points="19.6,65.3 18.9,65.9 18.2,65.3 		"/>
		<polygon class="st11" points="19.6,66.6 18.9,65.9 19.6,65.3 		"/>
	</g>
	<g class="st8">
		<path class="st1" d="M11.9,54.2v1.2h-0.6c-0.3,0-0.5,0-0.7-0.1c-0.2-0.1-0.3-0.2-0.4-0.4c-0.1-0.2-0.2-0.4-0.2-0.6
			c0-0.2,0-0.5,0.1-0.6c0.1-0.2,0.2-0.3,0.4-0.4C10.8,53,11,53,11.2,53h1c0.3,0,0.5,0,0.7,0.1c0.2,0.1,0.3,0.2,0.4,0.4
			s0.2,0.4,0.2,0.6c0,0.2,0,0.4-0.1,0.5c-0.1,0.2-0.2,0.3-0.4,0.4c-0.2,0.1-0.3,0.2-0.5,0.2v-0.5c0.2,0,0.3-0.1,0.4-0.3
			s0.1-0.3,0.1-0.4c0-0.2-0.1-0.4-0.2-0.5c-0.1-0.1-0.3-0.2-0.6-0.2h-1c-0.2,0-0.4,0.1-0.5,0.2c-0.1,0.1-0.2,0.3-0.2,0.5
			c0,0.2,0.1,0.4,0.2,0.5c0.1,0.1,0.3,0.2,0.6,0.2h0.1l0-0.7H11.9z"/>
		<path class="st1" d="M10.1,56.1h3.4v0.4l-2.6,1.7l-0.1-0.1h2.7v0.5h-3.4v-0.4l2.6-1.6l0.1,0.1h-2.6V56.1z"/>
		<path class="st1" d="M10.1,59.5h3.4V60h-3.4V59.5z M10.1,59.8h0.5v0.8c0,0.2,0.1,0.4,0.2,0.6c0.1,0.1,0.3,0.2,0.5,0.2h1
			c0.2,0,0.4-0.1,0.5-0.2c0.1-0.1,0.2-0.3,0.2-0.6v-0.8h0.5v0.8c0,0.4-0.1,0.7-0.3,1c-0.2,0.2-0.5,0.3-0.9,0.3h-1
			c-0.4,0-0.7-0.1-0.9-0.3s-0.3-0.5-0.3-1V59.8z"/>
	</g>
	<path class="st9" d="M14,66.6v-1.3c0-1.3-1-2.3-2.3-2.3c-1.2,0-2.2,1-2.3,2.3v1.3c0,1.3,1,2.3,2.3,2.3C13,68.9,14,67.9,14,66.6z
		 M10,66.4v-1c0-0.9,0.8-1.7,1.7-1.7c1,0,1.7,0.8,1.7,1.7v1c0,1-0.8,1.7-1.7,1.7C10.7,68.1,10,67.3,10,66.4z"/>
	<g>
		<rect x="11.1" y="65.3" class="st10" width="1.3" height="1.3"/>
		<polygon class="st11" points="11.7,65.9 11.1,65.3 11.1,66.6 		"/>
		<polygon class="st12" points="12.4,65.3 11.7,65.9 11.1,65.3 		"/>
		<polygon class="st11" points="12.4,66.6 11.7,65.9 12.4,65.3 		"/>
	</g>
	<g>
		<g>
			<g>
				<rect x="33.2" y="39.7" class="st1" width="2.1" height="2.6"/>
				<rect x="33.4" y="39.9" class="st2" width="1.6" height="2.2"/>
			</g>
			<g>
				<rect x="33.2" y="44.1" class="st1" width="2.1" height="2.6"/>
				<rect x="33.4" y="44.3" class="st2" width="1.6" height="2.2"/>
			</g>
		</g>
		<g>
			<g>
				<rect x="31.1" y="39.7" class="st1" width="2.1" height="2.6"/>
				<rect x="31.3" y="39.9" class="st2" width="1.6" height="2.2"/>
			</g>
			<g>
				<rect x="31.1" y="44.1" class="st1" width="2.1" height="2.6"/>
				<rect x="31.3" y="44.3" class="st2" width="1.6" height="2.2"/>
			</g>
		</g>
		<g>
			<g>
				<rect x="29" y="39.7" class="st1" width="2.1" height="2.6"/>
				<rect x="29.2" y="39.9" class="st2" width="1.6" height="2.2"/>
			</g>
			<g>
				<rect x="29" y="44.1" class="st1" width="2.1" height="2.6"/>
				<rect x="29.2" y="44.3" class="st2" width="1.6" height="2.2"/>
			</g>
		</g>
		<g>
			<g>
				<rect x="26.9" y="39.7" class="st1" width="2.1" height="2.6"/>
				<rect x="27.1" y="39.9" class="st2" width="1.6" height="2.2"/>
			</g>
			<g>
				<rect x="26.9" y="44.1" class="st1" width="2.1" height="2.6"/>
				<rect x="27.1" y="44.3" class="st2" width="1.6" height="2.2"/>
			</g>
		</g>
		<g>
			
				<rect x="28.8" y="39.3" transform="matrix(-1.836970e-16 1 -1 -1.836970e-16 74.2589 12.1524)" class="st6" width="4.4" height="7.9"/>
			<rect x="27.1" y="41.2" class="st7" width="7.9" height="3.9"/>
		</g>
	</g>
</g>
<g>
	<rect x="11" y="71.1" class="st10" width="1.4" height="8"/>
	<rect x="11.1" y="71.1" class="st11" width="1.1" height="8"/>
	<polygon class="st11" points="12.2,79.6 12.4,79.1 11,79.1 11.3,79.6 	"/>
	<polygon class="st12" points="12.2,79.6 12.3,79.1 11.2,79.1 11.3,79.6 	"/>
</g>
<g>
	<rect x="18.2" y="71.1" class="st10" width="1.4" height="8"/>
	<rect x="18.3" y="71.1" class="st11" width="1.1" height="8"/>
	<polygon class="st11" points="19.3,79.6 19.6,79.1 18.2,79.1 18.5,79.6 	"/>
	<polygon class="st12" points="19.3,79.6 19.5,79.1 18.3,79.1 18.5,79.6 	"/>
</g>
<g>
	<rect x="25.3" y="71.1" class="st10" width="1.4" height="8"/>
	<rect x="25.4" y="71.1" class="st11" width="1.1" height="8"/>
	<polygon class="st11" points="26.4,79.6 26.7,79.1 25.3,79.1 25.6,79.6 	"/>
	<polygon class="st12" points="26.4,79.6 26.6,79.1 25.4,79.1 25.6,79.6 	"/>
</g>
<g>
	<rect x="32.4" y="71.1" class="st10" width="1.4" height="8"/>
	<rect x="32.5" y="71.1" class="st11" width="1.1" height="8"/>
	<polygon class="st11" points="33.6,79.6 33.9,79.1 32.5,79.1 32.7,79.6 	"/>
	<polygon class="st12" points="33.6,79.6 33.7,79.1 32.6,79.1 32.7,79.6 	"/>
</g>
<g>
	<rect x="24.5" y="78" class="st13" width="3" height="17.2"/>
</g>
<g>
	<rect x="17.4" y="78" class="st1" width="3" height="13.4"/>
</g>
<g>
	<rect x="10.2" y="78" width="3" height="13.4"/>
</g>
<g>
	<rect x="31.7" y="78" class="st14" width="3" height="17.2"/>
</g>
<polyline class="st15" points="8.3,92 23.9,92 20.1,95.8 36.5,95.8 "/>
<polyline class="st15" points="8.3,95.3 17.2,95.3 14,98.5 36.5,98.5 "/>
</svg>
