<?xml version="1.0" encoding="utf-8"?>
<!-- Generator: Adobe Illustrator 24.2.3, SVG Export Plug-In . SVG Version: 6.00 Build 0)  -->
<svg version="1.1" id="Layer_1" xmlns="http://www.w3.org/2000/svg" xmlns:xlink="http://www.w3.org/1999/xlink" x="0px" y="0px"
	 viewBox="0 0 279.2 158.1" style="enable-background:new 0 0 279.2 158.1;" xml:space="preserve">
<style type="text/css">
	.st0{fill:#014CB1;}
	.st1{display:none;}
	.st2{fill:none;stroke:#CAB65E;stroke-width:3.5133;stroke-miterlimit:10;}
	.st3{fill:#FFFFFF;}
	.st4{font-family:'SegoeUI-Bold';}
	.st5{font-size:6.3239px;}
	.st6{fill:#3D3C3A;}
	.st7{fill:#DDDDDC;}
	.st8{fill:none;stroke:#FFFFFF;stroke-width:0.3513;stroke-miterlimit:10;}
	.st9{fill:#C9B55E;}
	.st10{fill:none;stroke:#C9B55E;stroke-width:8.782068e-02;stroke-miterlimit:10;}
	.st11{fill:#B7B7B7;}
	.st12{fill:#474748;}
	.st13{fill:#D3D3D3;}
	.st14{fill:#232221;}
	.st15{fill:#C8C8C8;}
	.st16{fill:#EDEDF2;}
	.st17{fill:#6D6E6E;}
	.st18{fill:none;stroke:#6D6E6E;stroke-width:1.756633e-02;stroke-miterlimit:10;}
	.st19{fill:none;stroke:#CAB65E;stroke-width:1.4053;stroke-miterlimit:10;}
	.st20{font-size:3.8398px;}
	.st21{font-size:3px;}
	.st22{font-size:4.9368px;}
	.st23{fill:none;stroke:#FFFFFF;stroke-width:1.054;stroke-miterlimit:10;}
	.st24{fill:none;stroke:#7C6B2B;stroke-width:0.1756;stroke-miterlimit:10;}
	.st25{fill:#F3C028;}
	.st26{font-family:'ArialRoundedMTBold';}
	.st27{font-size:4px;}
	.st28{fill:none;stroke:#FFFFFF;stroke-width:0.7027;stroke-miterlimit:10;}
	.st29{font-size:5.3313px;}
	.st30{font-size:3.6661px;}
	.st31{font-size:4.9186px;}
	.st32{fill:none;stroke:#910909;stroke-width:0.7027;stroke-miterlimit:10;}
	.st33{fill:#C6C5C5;}
	.st34{fill:#013C7C;}
	.st35{fill:none;stroke:#CAB65E;stroke-width:1.7566;stroke-miterlimit:10;}
	.st36{font-family:'FabricExternalMDL2Assets';}
	.st37{font-size:11.8574px;}
	.st38{font-size:5px;}
	.st39{fill:#FFFFFF;stroke:#FFFFFF;stroke-width:0.1756;stroke-miterlimit:10;}
	.st40{fill:#EDECF1;}
	.st41{fill:#7C6C2C;}
	.st42{fill:#CAB65E;}
	.st43{fill:#8D181B;}
	.st44{fill:#CD2027;}
	.st45{fill:#302F2F;}
	.st46{fill:#C0944C;}
	.st47{fill:#FDC26B;}
	.st48{fill:#FFD39B;}
	.st49{fill:#5CAF66;}
	.st50{fill:#76C27C;}
	.st51{clip-path:url(#SVGID_2_);}
	.st52{fill:#BBBBBB;}
	.st53{clip-path:url(#SVGID_4_);}
	.st54{fill:none;stroke:#FFFFFF;stroke-width:0.2743;stroke-miterlimit:10;}
	.st55{fill:none;stroke:#FFFFFF;stroke-width:0.4114;stroke-miterlimit:10;}
	.st56{fill:#FFFFFF;stroke:#FFFFFF;stroke-width:0.4114;stroke-linejoin:round;stroke-miterlimit:10;}
	.st57{fill:#014CB1;stroke:#FFFFFF;stroke-width:0.4114;stroke-miterlimit:10;}
	.st58{fill:none;stroke:#FFFFFF;stroke-width:0.2236;stroke-miterlimit:10;}
	.st59{display:inline;}
	.st60{fill:none;stroke:#232221;stroke-miterlimit:10;}
	.st61{fill:none;stroke:#232221;stroke-linejoin:round;stroke-miterlimit:10;}
	.st62{fill:none;stroke:#FFFFFF;stroke-width:0.5;stroke-linecap:round;stroke-miterlimit:10;}
</style>
<path class="st0" d="M261.4,2H10.2C4.6,2,0,6.5,0,12.1v135.3c0,5.6,4.6,10.2,10.1,10.2h251.2c5.6,0,10.1-4.6,10.1-10.1V12.1
	C271.6,6.5,267,2,261.4,2z M243.2,40.2c1.1,0,2,0.9,2,2s-0.9,2-2,2c-1.1,0-2-0.9-2-2S242,40.2,243.2,40.2z M243.2,47.3
	c1.1,0,2,0.9,2,2s-0.9,2-2,2c-1.1,0-2-0.9-2-2S242,47.3,243.2,47.3z M243.2,54.3c1.1,0,2,0.9,2,2c0,1.2-0.9,2-2,2c-1.1,0-2-0.9-2-2
	S242.1,54.3,243.2,54.3z M243.2,61.3c1.1,0,2,0.9,2,2c0,1.2-0.9,2-2,2c-1.1,0-2-0.9-2-2C241.2,62.2,242,61.3,243.2,61.3z
	 M243.2,68.3c1.1,0,2,0.9,2,2c0,1.1-0.9,2-2,2c-1.1,0-2-0.9-2-2C241.2,69.3,242,68.3,243.2,68.3z M62,27c1.1,0,2,0.9,2,2
	c0,1.1-0.9,2-2,2s-2-0.9-2-2C60,27.8,60.9,27,62,27z M61.9,34.1c1.1,0,2,0.9,2,2s-0.9,2-2,2s-2-0.9-2-2S60.8,34.1,61.9,34.1z
	 M61.9,41.4c1.1,0,2,0.9,2,2c0,1.2-0.9,2-2,2s-2-0.9-2-2C59.9,42.2,60.8,41.4,61.9,41.4z M61.9,48.9c1.1,0,2,0.9,2,2
	c0,1.2-0.9,2-2,2s-2-0.9-2-2C59.9,49.8,60.8,48.9,61.9,48.9z M61.9,56.1c1.1,0,2,0.9,2,2s-0.9,2-2,2s-2-0.9-2-2S60.8,56.1,61.9,56.1
	z M61.9,63.2c1.1,0,2,0.9,2,2c0,1.1-0.9,2-2,2s-2-0.9-2-2C60,64.1,60.8,63.2,61.9,63.2z M61.9,70.4c1.1,0,2,0.9,2,2s-0.9,2-2,2
	s-2-0.9-2-2S60.8,70.4,61.9,70.4z M61.9,77.5c1.1,0,2,0.9,2,2s-0.9,2-2,2s-2-0.9-2-2S60.8,77.5,61.9,77.5z M15.3,116.4
	c-4.1,0-7.4-3.3-7.4-7.4s3.3-7.4,7.4-7.4c4.1,0,7.4,3.3,7.4,7.4S19.4,116.4,15.3,116.4z M15.3,87.6c-4.1,0-7.4-3.3-7.4-7.4
	s3.3-7.4,7.4-7.4c4.1,0,7.4,3.3,7.4,7.4C22.7,84.2,19.4,87.6,15.3,87.6z M15.3,59.1c-4.1,0-7.4-3.3-7.4-7.4s3.3-7.4,7.4-7.4
	c4.1,0,7.4,3.3,7.4,7.4S19.4,59.1,15.3,59.1z M15.3,31c-4.1,0-7.4-3.3-7.4-7.4s3.3-7.4,7.4-7.4c4.1,0,7.4,3.3,7.4,7.4
	S19.4,31,15.3,31z M40,116.5c-4.1,0-7.4-3.3-7.4-7.4c0-4.1,3.3-7.4,7.4-7.4c4.1,0,7.4,3.3,7.4,7.4S44.1,116.5,40,116.5z M40,87.7
	c-4.1,0-7.4-3.3-7.4-7.4c0-4.1,3.3-7.4,7.4-7.4c4.1,0,7.4,3.3,7.4,7.4S44.1,87.7,40,87.7z M40,59.2c-4.1,0-7.4-3.3-7.4-7.4
	c0-4.1,3.3-7.4,7.4-7.4c4.1,0,7.4,3.3,7.4,7.4C47.4,55.9,44.1,59.2,40,59.2z M40,31.1c-4.1,0-7.4-3.3-7.4-7.4s3.3-7.4,7.4-7.4
	c4.1,0,7.4,3.3,7.4,7.4S44.1,31.1,40,31.1z M55.3,21.2l-3.9-3.9V5h2.5v11.2l3.2,3.2L55.3,21.2z M61.9,84.7c1.1,0,2,0.9,2,2
	c0,1.2-0.9,2-2,2s-2-0.9-2-2C59.9,85.5,60.8,84.7,61.9,84.7z M62,95.8c-1.2,0-2-0.9-2-2c0-1.1,0.9-2,2-2c1.2,0,2,0.9,2,2
	C64,94.9,63.1,95.8,62,95.8z M75.6,17.3l-3.9,3.9l-1.8-1.8l3.2-3.2V5h2.5V17.3z M85.1,151.9c-2.1,0-3.8-1.7-3.8-3.8s1.7-3.8,3.8-3.8
	s3.8,1.7,3.8,3.8C89,150.2,87.3,151.9,85.1,151.9z M85.1,15.9c-2.1,0-3.8-1.7-3.8-3.8s1.7-3.8,3.8-3.8S89,10,89,12.1
	S87.3,15.9,85.1,15.9z M178.3,88.5c-1.1,0-2-0.9-2-2c0-1.1,0.9-2,2-2c1.1,0,2,0.9,2,2C180.4,87.6,179.4,88.5,178.3,88.5z
	 M185.6,88.5c-1.1,0-2-0.9-2-2c0-1.1,0.9-2,2-2c1.1,0,2,0.9,2,2S186.7,88.5,185.6,88.5z M245.4,133.2c-1.6,0-2.9-1.3-2.9-2.9
	c0-1.6,1.3-2.9,2.9-2.9c1.6,0,2.9,1.3,2.9,2.9C248.3,131.9,247,133.2,245.4,133.2z M245.4,92.2c-1.6,0-2.9-1.3-2.9-2.9
	s1.3-2.9,2.9-2.9c1.6,0,2.9,1.3,2.9,2.9S247,92.2,245.4,92.2z M261.8,151.9c-2.1,0-3.8-1.7-3.8-3.8s1.7-3.8,3.8-3.8
	c2.1,0,3.8,1.7,3.8,3.8C265.7,150.2,263.9,151.9,261.8,151.9z M261.8,15.9c-2.1,0-3.8-1.7-3.8-3.8s1.7-3.8,3.8-3.8
	c2.1,0,3.8,1.7,3.8,3.8S263.9,15.9,261.8,15.9z"/>
<g id="Layer_1_1_" class="st1">
	
		<image style="display:inline;overflow:visible;opacity:0.5;enable-background:new    ;" width="314" height="164" xlink:href="../../../../../../Desktop/F4BC07A4D2C81C1E.jpg"  transform="matrix(2.8774 0 0 2.8774 -319.0237 -152.9503)">
	</image>
</g>
<circle class="st2" cx="15.3" cy="23.6" r="7.4"/>
<circle class="st2" cx="40" cy="23.6" r="7.4"/>
<text transform="matrix(1 0 0 1 9.7128 12.6416)" class="st3 st4 st5">3V3</text>
<text transform="matrix(1 0 0 1 32.9745 12.6416)" class="st3 st4 st5">GND</text>
<circle class="st2" cx="15.3" cy="51.7" r="7.4"/>
<circle class="st2" cx="40" cy="51.7" r="7.4"/>
<text transform="matrix(1 0 0 1 10.1405 40.748)" class="st3 st4 st5">IN1</text>
<text transform="matrix(1 0 0 1 34.7323 40.748)" class="st3 st4 st5">IN2</text>
<circle class="st2" cx="15.3" cy="80.1" r="7.4"/>
<circle class="st2" cx="40" cy="80.1" r="7.4"/>
<text transform="matrix(1 0 0 1 10.1405 69.2051)" class="st3 st4 st5">IN3</text>
<text transform="matrix(1 0 0 1 34.7323 69.2051)" class="st3 st4 st5">IN4</text>
<circle class="st2" cx="15.3" cy="109" r="7.4"/>
<circle class="st2" cx="40" cy="109" r="7.4"/>
<text transform="matrix(1 0 0 1 7.1034 98.0136)" class="st3 st4 st5">OUT1</text>
<text transform="matrix(1 0 0 1 31.6962 98.0136)" class="st3 st4 st5">OUT2</text>
<rect x="77.8" y="22.9" class="st6" width="116.1" height="57.6"/>
<g>
	<circle class="st7" cx="81" cy="26.4" r="2.5"/>
	<circle class="st7" cx="88.3" cy="26.4" r="2.5"/>
	<circle class="st7" cx="95.6" cy="26.4" r="2.5"/>
	<circle class="st7" cx="102.9" cy="26.4" r="2.5"/>
	<circle class="st7" cx="110.2" cy="26.4" r="2.5"/>
	<circle class="st7" cx="117.5" cy="26.4" r="2.5"/>
	<circle class="st7" cx="124.8" cy="26.4" r="2.5"/>
	<circle class="st7" cx="132.1" cy="26.4" r="2.5"/>
	<circle class="st7" cx="139.4" cy="26.4" r="2.5"/>
	<circle class="st7" cx="146.7" cy="26.4" r="2.5"/>
	<circle class="st7" cx="154.1" cy="26.4" r="2.5"/>
	<circle class="st7" cx="161.4" cy="26.4" r="2.5"/>
	<circle class="st7" cx="168.7" cy="26.4" r="2.5"/>
	<circle class="st7" cx="176" cy="26.4" r="2.5"/>
	<circle class="st7" cx="183.3" cy="26.4" r="2.5"/>
	<circle class="st7" cx="190.6" cy="26.4" r="2.5"/>
</g>
<g>
	<circle class="st7" cx="81" cy="33.7" r="2.5"/>
	<circle class="st7" cx="88.3" cy="33.7" r="2.5"/>
	<circle class="st7" cx="95.6" cy="33.7" r="2.5"/>
	<circle class="st7" cx="102.9" cy="33.7" r="2.5"/>
	<circle class="st7" cx="110.2" cy="33.7" r="2.5"/>
	<circle class="st7" cx="117.5" cy="33.7" r="2.5"/>
	<circle class="st7" cx="124.8" cy="33.7" r="2.5"/>
	<circle class="st7" cx="132.1" cy="33.7" r="2.5"/>
	<circle class="st7" cx="139.4" cy="33.7" r="2.5"/>
	<circle class="st7" cx="146.7" cy="33.7" r="2.5"/>
	<circle class="st7" cx="154.1" cy="33.7" r="2.5"/>
	<circle class="st7" cx="161.4" cy="33.7" r="2.5"/>
	<circle class="st7" cx="168.7" cy="33.7" r="2.5"/>
	<circle class="st7" cx="176" cy="33.7" r="2.5"/>
	<circle class="st7" cx="183.3" cy="33.7" r="2.5"/>
	<circle class="st7" cx="190.6" cy="33.7" r="2.5"/>
</g>
<g>
	<circle class="st7" cx="81" cy="40.9" r="2.5"/>
	<circle class="st7" cx="88.3" cy="40.9" r="2.5"/>
	<circle class="st7" cx="95.6" cy="40.9" r="2.5"/>
	<circle class="st7" cx="102.9" cy="40.9" r="2.5"/>
	<circle class="st7" cx="110.2" cy="40.9" r="2.5"/>
	<circle class="st7" cx="117.5" cy="40.9" r="2.5"/>
	<circle class="st7" cx="124.8" cy="40.9" r="2.5"/>
	<circle class="st7" cx="132.1" cy="40.9" r="2.5"/>
	<circle class="st7" cx="139.4" cy="40.9" r="2.5"/>
	<circle class="st7" cx="146.7" cy="40.9" r="2.5"/>
	<circle class="st7" cx="154.1" cy="40.9" r="2.5"/>
	<circle class="st7" cx="161.4" cy="40.9" r="2.5"/>
	<circle class="st7" cx="168.7" cy="40.9" r="2.5"/>
	<circle class="st7" cx="176" cy="40.9" r="2.5"/>
	<circle class="st7" cx="183.3" cy="40.9" r="2.5"/>
	<circle class="st7" cx="190.6" cy="40.9" r="2.5"/>
</g>
<g>
	<circle class="st7" cx="81" cy="48.1" r="2.5"/>
	<circle class="st7" cx="88.3" cy="48.1" r="2.5"/>
	<circle class="st7" cx="95.6" cy="48.1" r="2.5"/>
	<circle class="st7" cx="102.9" cy="48.1" r="2.5"/>
	<circle class="st7" cx="110.2" cy="48.1" r="2.5"/>
	<circle class="st7" cx="117.5" cy="48.1" r="2.5"/>
	<circle class="st7" cx="124.8" cy="48.1" r="2.5"/>
	<circle class="st7" cx="132.1" cy="48.1" r="2.5"/>
	<circle class="st7" cx="139.4" cy="48.1" r="2.5"/>
	<circle class="st7" cx="146.7" cy="48.1" r="2.5"/>
	<circle class="st7" cx="154.1" cy="48.1" r="2.5"/>
	<circle class="st7" cx="161.4" cy="48.1" r="2.5"/>
	<circle class="st7" cx="168.7" cy="48.1" r="2.5"/>
	<circle class="st7" cx="176" cy="48.1" r="2.5"/>
	<circle class="st7" cx="183.3" cy="48.1" r="2.5"/>
	<circle class="st7" cx="190.6" cy="48.1" r="2.5"/>
</g>
<g>
	<circle class="st7" cx="81" cy="55.4" r="2.5"/>
	<circle class="st7" cx="88.3" cy="55.4" r="2.5"/>
	<circle class="st7" cx="95.6" cy="55.4" r="2.5"/>
	<circle class="st7" cx="102.9" cy="55.4" r="2.5"/>
	<circle class="st7" cx="110.2" cy="55.4" r="2.5"/>
	<circle class="st7" cx="117.5" cy="55.4" r="2.5"/>
	<circle class="st7" cx="124.8" cy="55.4" r="2.5"/>
	<circle class="st7" cx="132.1" cy="55.4" r="2.5"/>
	<circle class="st7" cx="139.4" cy="55.4" r="2.5"/>
	<circle class="st7" cx="146.7" cy="55.4" r="2.5"/>
	<circle class="st7" cx="154.1" cy="55.4" r="2.5"/>
	<circle class="st7" cx="161.4" cy="55.4" r="2.5"/>
	<circle class="st7" cx="168.7" cy="55.4" r="2.5"/>
	<circle class="st7" cx="176" cy="55.4" r="2.5"/>
	<circle class="st7" cx="183.3" cy="55.4" r="2.5"/>
	<circle class="st7" cx="190.6" cy="55.4" r="2.5"/>
</g>
<g>
	<circle class="st7" cx="81" cy="62.6" r="2.5"/>
	<circle class="st7" cx="88.3" cy="62.6" r="2.5"/>
	<circle class="st7" cx="95.6" cy="62.6" r="2.5"/>
	<circle class="st7" cx="102.9" cy="62.6" r="2.5"/>
	<circle class="st7" cx="110.2" cy="62.6" r="2.5"/>
	<circle class="st7" cx="117.5" cy="62.6" r="2.5"/>
	<circle class="st7" cx="124.8" cy="62.6" r="2.5"/>
	<circle class="st7" cx="132.1" cy="62.6" r="2.5"/>
	<circle class="st7" cx="139.4" cy="62.6" r="2.5"/>
	<circle class="st7" cx="146.7" cy="62.6" r="2.5"/>
	<circle class="st7" cx="154.1" cy="62.6" r="2.5"/>
	<circle class="st7" cx="161.4" cy="62.6" r="2.5"/>
	<circle class="st7" cx="168.7" cy="62.6" r="2.5"/>
	<circle class="st7" cx="176" cy="62.6" r="2.5"/>
	<circle class="st7" cx="183.3" cy="62.6" r="2.5"/>
	<circle class="st7" cx="190.6" cy="62.6" r="2.5"/>
</g>
<g>
	<circle class="st7" cx="81" cy="69.9" r="2.5"/>
	<circle class="st7" cx="88.3" cy="69.9" r="2.5"/>
	<circle class="st7" cx="95.6" cy="69.9" r="2.5"/>
	<circle class="st7" cx="102.9" cy="69.9" r="2.5"/>
	<circle class="st7" cx="110.2" cy="69.9" r="2.5"/>
	<circle class="st7" cx="117.5" cy="69.9" r="2.5"/>
	<circle class="st7" cx="124.8" cy="69.9" r="2.5"/>
	<circle class="st7" cx="132.1" cy="69.9" r="2.5"/>
	<circle class="st7" cx="139.4" cy="69.9" r="2.5"/>
	<circle class="st7" cx="146.7" cy="69.9" r="2.5"/>
	<circle class="st7" cx="154.1" cy="69.9" r="2.5"/>
	<circle class="st7" cx="161.4" cy="69.9" r="2.5"/>
	<circle class="st7" cx="168.7" cy="69.9" r="2.5"/>
	<circle class="st7" cx="176" cy="69.9" r="2.5"/>
	<circle class="st7" cx="183.3" cy="69.9" r="2.5"/>
	<circle class="st7" cx="190.6" cy="69.9" r="2.5"/>
</g>
<g>
	<circle class="st7" cx="81" cy="77.2" r="2.5"/>
	<circle class="st7" cx="88.3" cy="77.2" r="2.5"/>
	<circle class="st7" cx="95.6" cy="77.2" r="2.5"/>
	<circle class="st7" cx="102.9" cy="77.2" r="2.5"/>
	<circle class="st7" cx="110.2" cy="77.2" r="2.5"/>
	<circle class="st7" cx="117.5" cy="77.2" r="2.5"/>
	<circle class="st7" cx="124.8" cy="77.2" r="2.5"/>
	<circle class="st7" cx="132.1" cy="77.2" r="2.5"/>
	<circle class="st7" cx="139.4" cy="77.2" r="2.5"/>
	<circle class="st7" cx="146.7" cy="77.2" r="2.5"/>
	<circle class="st7" cx="154.1" cy="77.2" r="2.5"/>
	<circle class="st7" cx="161.4" cy="77.2" r="2.5"/>
	<circle class="st7" cx="168.7" cy="77.2" r="2.5"/>
	<circle class="st7" cx="176" cy="77.2" r="2.5"/>
	<circle class="st7" cx="183.3" cy="77.2" r="2.5"/>
	<circle class="st7" cx="190.6" cy="77.2" r="2.5"/>
</g>
<g>
	<g>
		<rect x="84.9" y="96.4" class="st8" width="31.9" height="35.4"/>
		<g>
			<rect x="77.6" y="101.9" class="st9" width="8.3" height="6.8"/>
			<rect x="77.6" y="101.9" class="st10" width="8.3" height="6.8"/>
		</g>
		<g>
			<rect x="115.8" y="101.9" class="st7" width="8.3" height="6.8"/>
			<rect x="115.8" y="101.9" class="st9" width="8.3" height="6.8"/>
		</g>
		<g>
			<rect x="77.6" y="116.9" class="st9" width="8.3" height="6.8"/>
			<rect x="77.6" y="116.9" class="st10" width="8.3" height="6.8"/>
		</g>
		<g>
			<rect x="115.8" y="116.9" class="st7" width="8.3" height="6.8"/>
			<rect x="115.8" y="116.9" class="st9" width="8.3" height="6.8"/>
		</g>
		<g>
			<rect x="78.6" y="102.5" class="st11" width="7.2" height="5.5"/>
		</g>
		<g>
			<rect x="115.8" y="102.5" class="st11" width="7.3" height="5.5"/>
		</g>
		<g>
			<rect x="78.6" y="117.5" class="st11" width="7.2" height="5.5"/>
		</g>
		<g>
			<rect x="115.8" y="117.5" class="st11" width="7.3" height="5.5"/>
		</g>
	</g>
	<g>
		<rect x="85.8" y="98.7" class="st12" width="30" height="30"/>
		<rect x="87.2" y="100" class="st7" width="27.3" height="27.3"/>
		<path class="st7" d="M92.8,105.6h-6.9v-6.4c0-0.3,0.2-0.5,0.5-0.5h6.4L92.8,105.6L92.8,105.6z"/>
		<path class="st7" d="M115.8,105.6h-6.9v-6.9h6.4c0.3,0,0.5,0.2,0.5,0.5L115.8,105.6L115.8,105.6z"/>
		<path class="st7" d="M92.8,128.6h-6.4c-0.3,0-0.5-0.2-0.5-0.5v-6.4h6.9L92.8,128.6L92.8,128.6z"/>
		<path class="st7" d="M115.3,128.6h-6.4v-6.9h6.9v6.4C115.8,128.4,115.6,128.6,115.3,128.6z"/>
		<circle class="st12" cx="89.3" cy="102.1" r="2.4"/>
		<circle class="st12" cx="112.3" cy="102.1" r="2.4"/>
		<circle class="st12" cx="89.3" cy="125.2" r="2.4"/>
		<circle class="st13" cx="100.8" cy="113.6" r="8.6"/>
		<circle class="st12" cx="112.3" cy="125.2" r="2.4"/>
		<circle class="st12" cx="100.8" cy="113.6" r="8.1"/>
		<circle class="st14" cx="100.8" cy="113.6" r="7.6"/>
	</g>
</g>
<g>
	<g>
		<rect x="142.9" y="96.4" class="st8" width="31.9" height="35.4"/>
		<g>
			<rect x="135.7" y="101.9" class="st7" width="8.3" height="6.8"/>
			<rect x="135.7" y="101.9" class="st9" width="8.3" height="6.8"/>
		</g>
		<g>
			<rect x="173.9" y="101.9" class="st9" width="8.3" height="6.8"/>
			<rect x="173.9" y="101.9" class="st10" width="8.3" height="6.8"/>
		</g>
		<g>
			<rect x="135.7" y="116.9" class="st9" width="8.3" height="6.8"/>
			<rect x="135.7" y="116.9" class="st10" width="8.3" height="6.8"/>
		</g>
		<g>
			<rect x="173.9" y="116.9" class="st7" width="8.3" height="6.8"/>
			<rect x="173.9" y="116.9" class="st9" width="8.3" height="6.8"/>
		</g>
	</g>
	<g>
		<rect x="143.9" y="98.7" class="st12" width="30" height="30"/>
		<rect x="145.3" y="100" class="st7" width="27.3" height="27.3"/>
		<path class="st7" d="M150.8,105.6h-6.9v-6.4c0-0.3,0.2-0.5,0.5-0.5h6.4V105.6z"/>
		<path class="st7" d="M173.9,105.6H167v-6.9h6.4c0.3,0,0.5,0.2,0.5,0.5V105.6z"/>
		<path class="st7" d="M150.8,128.6h-6.4c-0.3,0-0.5-0.2-0.5-0.5v-6.4h6.9V128.6z"/>
		<path class="st7" d="M173.4,128.6H167v-6.9h6.9v6.4C173.9,128.4,173.7,128.6,173.4,128.6z"/>
		<circle class="st12" cx="147.4" cy="102.1" r="2.4"/>
		<circle class="st12" cx="170.5" cy="102.1" r="2.4"/>
		<circle class="st12" cx="147.4" cy="125.2" r="2.4"/>
		<circle class="st13" cx="158.9" cy="113.6" r="8.6"/>
		<circle class="st12" cx="170.5" cy="125.2" r="2.4"/>
		<circle class="st12" cx="158.9" cy="113.6" r="8.1"/>
		<circle class="st14" cx="158.9" cy="113.6" r="7.6"/>
	</g>
	<g>
		<rect x="136.7" y="102.5" class="st11" width="7.2" height="5.5"/>
	</g>
	<g>
		<rect x="173.9" y="102.5" class="st11" width="7.3" height="5.5"/>
	</g>
	<g>
		<rect x="136.7" y="117.5" class="st11" width="7.2" height="5.5"/>
	</g>
	<g>
		<rect x="173.9" y="117.5" class="st11" width="7.3" height="5.5"/>
	</g>
</g>
<g>
	<g>
		<g>
			<rect x="188.5" y="103.8" class="st7" width="5.4" height="4.4"/>
			<rect x="188.5" y="103.8" class="st9" width="5.4" height="4.4"/>
		</g>
		<g>
			<rect x="213.5" y="103.8" class="st7" width="5.4" height="4.4"/>
			<rect x="213.5" y="103.8" class="st9" width="5.4" height="4.4"/>
		</g>
		<g>
			<rect x="188.5" y="116.7" class="st7" width="5.4" height="4.4"/>
			<rect x="188.5" y="116.7" class="st9" width="5.4" height="4.4"/>
		</g>
		<g>
			<rect x="213.5" y="116.7" class="st9" width="5.4" height="4.4"/>
			<rect x="213.5" y="116.7" class="st10" width="5.4" height="4.4"/>
		</g>
	</g>
	<g>
		<path class="st12" d="M213.1,122.3h-18.7c-0.3,0-0.5-0.2-0.5-0.5v-18.7c0-0.3,0.2-0.5,0.5-0.5h18.7c0.3,0,0.5,0.2,0.5,0.5v18.7
			C213.5,122.1,213.3,122.3,213.1,122.3z"/>
		<rect x="194.8" y="103.5" class="st7" width="17.9" height="17.9"/>
		<path class="st7" d="M198.5,107.2h-4.6v-4.1c0-0.3,0.2-0.5,0.5-0.5h4.1V107.2z"/>
		<path class="st7" d="M213.5,107.2H209v-4.6h4.1c0.3,0,0.5,0.2,0.5,0.5V107.2z"/>
		<path class="st7" d="M198.5,122.3h-4.1c-0.3,0-0.5-0.2-0.5-0.5v-4.1h4.6V122.3z"/>
		<path class="st7" d="M213.1,122.3H209v-4.6h4.6v4.1C213.5,122.1,213.3,122.3,213.1,122.3z"/>
		<circle class="st12" cx="196.2" cy="105" r="1.5"/>
		<circle class="st12" cx="211.2" cy="105" r="1.5"/>
		<circle class="st12" cx="196.2" cy="120.1" r="1.5"/>
		<circle class="st13" cx="203.7" cy="112.5" r="5.6"/>
		<circle class="st12" cx="211.2" cy="120.1" r="1.5"/>
		<circle class="st12" cx="203.7" cy="112.5" r="5.3"/>
		<circle class="st14" cx="203.7" cy="112.5" r="5"/>
	</g>
	<rect x="189.2" y="104.5" class="st11" width="4.7" height="3"/>
	<rect x="213.5" y="104.5" class="st11" width="4.8" height="3"/>
	<rect x="189.2" y="117.4" class="st11" width="4.7" height="3"/>
	<rect x="213.5" y="117.4" class="st11" width="4.8" height="3"/>
</g>
<g id="micro_usb">
	<g>
		<rect x="215.9" y="17.3" class="st15" width="1" height="1.8"/>
		<rect x="215.9" y="19.1" class="st9" width="1" height="0.8"/>
	</g>
	<g>
		<path class="st3" d="M213.2,15.4c0.6,0,1.1-0.5,1.1-1.1c0-0.6-0.5-1.1-1.1-1.1h-1.6v-0.9h14.6v0.9h-1.6c-0.6,0-1.1,0.5-1.1,1.1
			c0,0.6,0.5,1.1,1.1,1.1h3.7c0.8,0,1.5-0.7,1.5-1.5v-1.6V2.2h-21.8v10.1v1.6c0,0.8,0.7,1.5,1.5,1.5H213.2z"/>
		<rect x="209.3" class="st7" width="19" height="1.3"/>
		<rect x="215.3" y="12.3" class="st3" width="7.1" height="3.8"/>
		<polygon class="st7" points="227.4,17.3 227.4,16.7 222.4,16.7 222.4,16.1 215.3,16.1 215.3,16.7 210.4,16.7 210.4,17.3 		"/>
		<polygon class="st16" points="208,2.2 208,2.2 229.8,2.2 230.6,1.4 230,0.8 229.5,1.2 208.3,1.2 207.7,0.8 207.1,1.4 		"/>
		<path class="st7" d="M224.6,5.3h0.5v3.2c0,0.3,0.2,0.5,0.5,0.5h1c0.3,0,0.5-0.2,0.5-0.5V5.3h0.5c0.2,0,0.4-0.2,0.4-0.4
			s-0.2-0.4-0.4-0.4h-3.1c-0.2,0-0.4,0.2-0.4,0.4C224.2,5.1,224.4,5.3,224.6,5.3z"/>
		<rect x="225.4" y="6.4" class="st17" width="1.4" height="0.7"/>
		<rect x="218.2" y="12.3" class="st17" width="1.4" height="0.7"/>
		<polyline class="st18" points="227,4.4 227,3.4 225.3,3.4 225.3,4.4 		"/>
		<path class="st7" d="M210.2,5.3h0.5v3.2c0,0.3,0.2,0.5,0.5,0.5h1c0.3,0,0.5-0.2,0.5-0.5V5.3h0.5c0.2,0,0.4-0.2,0.4-0.4
			s-0.2-0.4-0.4-0.4h-3.1c-0.2,0-0.4,0.2-0.4,0.4C209.8,5.1,209.9,5.3,210.2,5.3z"/>
		<rect x="211" y="6.4" class="st17" width="1.4" height="0.7"/>
		<polyline class="st18" points="212.6,4.4 212.6,3.4 210.9,3.4 210.9,4.4 		"/>
	</g>
	<g>
		<rect x="221.7" y="17.3" class="st15" width="1" height="1.8"/>
		<rect x="221.7" y="19.1" class="st9" width="1" height="0.8"/>
	</g>
	<g>
		<rect x="219.7" y="17.3" class="st15" width="1" height="1.8"/>
		<rect x="219.7" y="19.1" class="st9" width="1" height="0.8"/>
	</g>
	<g>
		<rect x="217.8" y="17.3" class="st15" width="1" height="1.8"/>
		<rect x="217.8" y="19.1" class="st9" width="1" height="0.8"/>
	</g>
	<g>
		<rect x="214" y="17.3" class="st15" width="1" height="1.8"/>
		<rect x="214" y="19.1" class="st9" width="1" height="0.8"/>
	</g>
	<rect x="222.4" y="16.1" class="st16" width="4.9" height="0.6"/>
	<rect x="210.4" y="16.1" class="st16" width="4.9" height="0.6"/>
</g>
<circle class="st19" cx="62" cy="29" r="2"/>
<text transform="matrix(1 0 0 1 65.9169 30.5869)" class="st3 st4 st20">3V3</text>
<circle class="st19" cx="178.3" cy="86.5" r="2"/>
<g>
	<text transform="matrix(1 0 0 1 190.7406 92.0256)" class="st3 st4 st21">IO0</text>
</g>
<circle class="st19" cx="185.6" cy="86.5" r="2"/>
<g>
	<text transform="matrix(1 0 0 1 189.8588 87.9687)" class="st3 st4 st21">GND</text>
</g>
<circle class="st19" cx="62" cy="36.2" r="2"/>
<text transform="matrix(1 0 0 1 65.9169 37.8019)" class="st3 st4 st20">GND</text>
<circle class="st19" cx="62" cy="43.4" r="2"/>
<text transform="matrix(1 0 0 1 65.9169 45.0174)" class="st3 st4 st20">IO23</text>
<circle class="st19" cx="62" cy="50.6" r="2"/>
<text transform="matrix(1 0 0 1 65.9169 52.2324)" class="st3 st4 st20">IO19</text>
<circle class="st19" cx="62" cy="57.8" r="2"/>
<text transform="matrix(1 0 0 1 65.9169 59.4474)" class="st3 st4 st20">IO18</text>
<circle class="st19" cx="62" cy="65" r="2"/>
<text transform="matrix(1 0 0 1 65.9169 66.6629)" class="st3 st4 st20">SDA0</text>
<circle class="st19" cx="62" cy="72.2" r="2"/>
<text transform="matrix(1 0 0 1 65.9169 73.8779)" class="st3 st4 st20">SCL0</text>
<text transform="matrix(1 0 0 1 65.9169 81.0934)" class="st3 st4 st20">3V3</text>
<text transform="matrix(1 0 0 1 65.9169 88.3084)" class="st3 st4 st20">GND</text>
<text transform="matrix(1 0 0 1 65.9169 95.5234)" class="st3 st4 st20">VIN</text>
<text transform="matrix(1 0 0 1 238.6376 137.0693)" class="st3 st4 st20">IN</text>
<text transform="matrix(1 0 0 1 215.537 128.6396)" class="st3 st4 st20">Servo</text>
<text transform="matrix(1 0 0 1 207.9091 148.374)" class="st3 st4 st20">5V</text>
<text transform="matrix(1 0 0 1 209.039 155.4549)" class="st3 st4 st20">G</text>
<text transform="matrix(6.123234e-17 -1 1 6.123234e-17 207.3202 155.0185)" class="st3 st4 st20">Out</text>
<text transform="matrix(1 0 0 1 222.7978 133.9092)" class="st3 st4 st20">1</text>
<text transform="matrix(1 0 0 1 234.4667 137.0693)" class="st3 st4 st22">-</text>
<circle class="st19" cx="62" cy="79.4" r="2"/>
<circle class="st19" cx="62" cy="86.6" r="2"/>
<text transform="matrix(1 0 0 1 13.5995 122.8535)" class="st3 st4 st20">I1</text>
<text transform="matrix(1 0 0 1 36.9736 122.8535)" class="st3 st4 st20">I2</text>
<text transform="matrix(1 0 0 1 13.5995 141.6406)" class="st3 st4 st20">I3</text>
<text transform="matrix(1 0 0 1 36.9736 141.6406)" class="st3 st4 st20">I4</text>
<text transform="matrix(1 0 0 1 59.3359 122.8535)" class="st3 st4 st20">O1</text>
<text transform="matrix(1 0 0 1 59.3359 141.6406)" class="st3 st4 st20">O2</text>
<circle class="st19" cx="62" cy="93.8" r="2"/>
<line class="st23" x1="250.3" y1="42.4" x2="245.2" y2="42.4"/>
<line class="st23" x1="250.3" y1="49.4" x2="245.2" y2="49.4"/>
<line class="st23" x1="250.3" y1="56.4" x2="245.2" y2="56.4"/>
<line class="st23" x1="250.3" y1="63.4" x2="245.2" y2="63.4"/>
<line class="st23" x1="250.3" y1="70.5" x2="245.2" y2="70.5"/>
<g>
	<circle class="st6" cx="214.1" cy="68.4" r="15.7"/>
	<circle class="st14" cx="214.1" cy="68.4" r="4.3"/>
</g>
<g>
	<rect x="155.9" y="10.5" class="st16" width="3.9" height="2.6"/>
	<rect x="155.9" y="10.5" class="st24" width="3.9" height="2.6"/>
</g>
<g>
	<rect x="155.9" y="16.3" class="st16" width="3.9" height="2.6"/>
	<rect x="155.9" y="16.3" class="st24" width="3.9" height="2.6"/>
</g>
<g>
	<rect x="156.6" y="13" class="st3" width="2.5" height="3.3"/>
	<rect x="156.6" y="11.9" class="st25" width="2.5" height="1.2"/>
	<rect x="156.6" y="16.3" class="st25" width="2.5" height="1.2"/>
</g>
<text transform="matrix(1 0 0 1 154.7011 8.1533)" class="st3 st26 st27">IOT</text>
<g>
	<g>
		<rect x="170.1" y="10.5" class="st16" width="3.9" height="2.6"/>
		<rect x="170.1" y="10.5" class="st24" width="3.9" height="2.6"/>
	</g>
	<g>
		<rect x="170.1" y="16.3" class="st16" width="3.9" height="2.6"/>
		<rect x="170.1" y="16.3" class="st24" width="3.9" height="2.6"/>
	</g>
	<g>
		<rect x="170.7" y="13.1" class="st3" width="2.5" height="3.3"/>
		<rect x="170.7" y="11.9" class="st25" width="2.5" height="1.2"/>
		<rect x="170.7" y="16.3" class="st25" width="2.5" height="1.2"/>
	</g>
</g>
<text transform="matrix(1 0 0 1 167.6775 8.1533)" class="st3 st26 st27">WIFI</text>
<path class="st28" d="M127.2,9.9c0,2-1.6,3.6-3.6,3.6c-2,0-3.6-1.6-3.6-3.6H127.2z"/>
<line class="st28" x1="115.5" y1="9.9" x2="118.7" y2="9.9"/>
<line class="st28" x1="123.6" y1="18.2" x2="123.6" y2="15"/>
<line class="st28" x1="128.4" y1="9.9" x2="131.6" y2="9.9"/>
<line class="st28" x1="127.6" y1="13.9" x2="129.9" y2="16.2"/>
<line class="st28" x1="117.7" y1="16.2" x2="120" y2="13.9"/>
<g>
	<line class="st28" x1="93.9" y1="87.4" x2="107" y2="87.4"/>
	<line class="st28" x1="100.5" y1="87.4" x2="100.5" y2="83.9"/>
	<g>
		<line class="st28" x1="95" y1="90.5" x2="91.1" y2="90.5"/>
		<circle class="st28" cx="96.2" cy="90.5" r="1.2"/>
	</g>
	<g>
		<line class="st28" x1="105.9" y1="90.5" x2="109.8" y2="90.5"/>
		<circle class="st28" cx="104.7" cy="90.5" r="1.2"/>
	</g>
</g>
<g>
	<line class="st28" x1="152.1" y1="87.4" x2="165.2" y2="87.4"/>
	<line class="st28" x1="158.6" y1="87.4" x2="158.6" y2="83.9"/>
	<g>
		<line class="st28" x1="153.2" y1="90.5" x2="149.2" y2="90.5"/>
		<circle class="st28" cx="154.3" cy="90.5" r="1.2"/>
	</g>
	<g>
		<line class="st28" x1="164.1" y1="90.5" x2="168" y2="90.5"/>
		<circle class="st28" cx="162.9" cy="90.5" r="1.2"/>
	</g>
</g>
<g>
	<line class="st28" x1="196.9" y1="128.1" x2="210" y2="128.1"/>
	<line class="st28" x1="203.4" y1="128.1" x2="203.4" y2="124.7"/>
	<g>
		<line class="st28" x1="197.9" y1="131.3" x2="194" y2="131.3"/>
		<circle class="st28" cx="199.1" cy="131.3" r="1.2"/>
	</g>
	<g>
		<line class="st28" x1="208.8" y1="131.3" x2="212.8" y2="131.3"/>
		<circle class="st28" cx="207.7" cy="131.3" r="1.2"/>
	</g>
</g>
<rect x="112.3" y="83.9" class="st3" width="10" height="9.3"/>
<text transform="matrix(1 0 0 1 114.332 90.1836)" class="st0 st4 st29">S1</text>
<rect x="135.9" y="83.9" class="st3" width="10" height="9.3"/>
<text transform="matrix(1 0 0 1 137.8564 90.1836)" class="st0 st4 st29">S2</text>
<g>
	<rect x="262" y="79.4" class="st3" width="6.9" height="6.4"/>
	<text transform="matrix(1 0 0 1 263.122 83.7021)" class="st0 st4 st30">U1</text>
</g>
<g>
	<rect x="245.9" y="8.6" class="st3" width="6.4" height="6.9"/>
	<text transform="matrix(0 -1 1 0 250.2509 14.4541)" class="st0 st4 st30">U2</text>
</g>
<circle class="st19" cx="243.2" cy="42.3" r="2"/>
<g>
	<text transform="matrix(1 0 0 1 228.2206 44.4873)" class="st3 st4 st31">GND</text>
</g>
<circle class="st19" cx="243.2" cy="49.3" r="2"/>
<g>
	<text transform="matrix(1 0 0 1 226.5595 51.5137)" class="st3 st4 st31">SDA1</text>
</g>
<circle class="st19" cx="243.2" cy="56.3" r="2"/>
<g>
	<text transform="matrix(1 0 0 1 228.0605 58.54)" class="st3 st4 st31">SCL1</text>
</g>
<circle class="st19" cx="243.2" cy="63.3" r="2"/>
<g>
	<text transform="matrix(1 0 0 1 230.29 65.5664)" class="st3 st4 st31">3V3</text>
</g>
<circle class="st19" cx="243.2" cy="70.4" r="2"/>
<g>
	<text transform="matrix(1 0 0 1 233.1191 72.5928)" class="st3 st4 st31">5V</text>
</g>
<g>
	<ellipse class="st7" cx="140.9" cy="13.5" rx="7.4" ry="6.4"/>
	<polyline class="st32" points="137,16.8 145.3,16.8 145.3,14.5 137,14.5 137,12.6 145.3,12.6 145.3,10.2 137,10.2 136.4,9.7 	"/>
</g>
<g>
	<g>
		<g>
			<rect x="61.7" y="5" class="st33" width="3" height="3.2"/>
			<rect x="61.7" y="5" class="st24" width="3" height="3.2"/>
		</g>
		<g>
			<rect x="58.6" y="11.6" class="st33" width="3" height="3.2"/>
			<rect x="58.6" y="11.6" class="st24" width="3" height="3.2"/>
		</g>
		<g>
			<rect x="64.7" y="11.6" class="st33" width="3" height="3.2"/>
			<rect x="64.7" y="11.6" class="st24" width="3" height="3.2"/>
		</g>
		<rect x="62.7" y="6" class="st3" width="0.9" height="1.8"/>
		<g>
			<rect x="61.7" y="11.6" class="st33" width="3" height="3.2"/>
			<rect x="61.7" y="11.6" class="st24" width="3" height="3.2"/>
		</g>
		<rect x="62.7" y="12" class="st3" width="0.9" height="1.8"/>
		<g>
			<rect x="58.6" y="5" class="st33" width="3" height="3.2"/>
			<rect x="58.6" y="5" class="st24" width="3" height="3.2"/>
		</g>
		<rect x="59.7" y="6" class="st3" width="0.9" height="1.8"/>
		<g>
			<rect x="64.7" y="5" class="st33" width="3" height="3.2"/>
			<rect x="64.7" y="5" class="st24" width="3" height="3.2"/>
		</g>
		<rect x="65.7" y="6" class="st3" width="0.9" height="1.8"/>
		<rect x="59.7" y="12" class="st3" width="0.9" height="1.8"/>
		<rect x="65.7" y="12" class="st3" width="0.9" height="1.8"/>
		<rect x="58.1" y="7.8" class="st12" width="10.1" height="4.3"/>
	</g>
</g>
<polyline class="st28" points="66.9,19.1 70.1,22.3 90.7,22.3 94.7,18.4 98.1,18.4 "/>
<path class="st8" d="M104.1,17.5V6.7c0-0.9-0.8-1.6-1.6-1.6c-0.9,0-1.6,0.8-1.6,1.6v10.8c-0.5,0.5-0.9,1.2-0.9,1.9
	c0,1.4,1.2,2.5,2.5,2.5c1.4,0,2.5-1.2,2.5-2.5C104.9,18.7,104.6,18,104.1,17.5z"/>
<path class="st3" d="M103.2,18v-7.1c0-0.4-0.3-0.8-0.8-0.8c-0.4,0-0.8,0.3-0.8,0.8V18c-0.5,0.3-0.9,0.8-0.9,1.5
	c0,0.9,0.8,1.6,1.6,1.6c0.9,0,1.6-0.8,1.6-1.6C104.1,18.8,103.7,18.2,103.2,18z"/>
<g>
	<circle class="st28" cx="85.1" cy="12" r="8.2"/>
	<path class="st34" d="M85.1,4.9c-4,0-7.2,3.2-7.2,7.2s3.2,7.2,7.2,7.2s7.2-3.2,7.2-7.2S89.1,4.9,85.1,4.9z M85.1,15.9
		c-2.1,0-3.8-1.7-3.8-3.8s1.7-3.8,3.8-3.8S89,10,89,12.1C89,14.2,87.3,15.9,85.1,15.9z"/>
</g>
<g>
	<circle class="st28" cx="85.1" cy="148" r="8.2"/>
	<path class="st34" d="M85.1,140.8c-4,0-7.2,3.2-7.2,7.2c0,4,3.2,7.2,7.2,7.2s7.2-3.2,7.2-7.2S89.1,140.8,85.1,140.8z M85.1,151.9
		c-2.1,0-3.8-1.7-3.8-3.8c0-2.1,1.7-3.8,3.8-3.8s3.8,1.7,3.8,3.8C89,150.2,87.3,151.9,85.1,151.9z"/>
</g>
<g>
	<circle class="st28" cx="261.8" cy="12" r="8.2"/>
	<path class="st34" d="M261.8,4.9c-4,0-7.2,3.2-7.2,7.2s3.2,7.2,7.2,7.2c4,0,7.2-3.2,7.2-7.2S265.8,4.9,261.8,4.9z M261.8,15.9
		c-2.1,0-3.8-1.7-3.8-3.8s1.7-3.8,3.8-3.8c2.1,0,3.8,1.7,3.8,3.8C265.7,14.2,263.9,15.9,261.8,15.9z"/>
</g>
<g>
	<circle class="st28" cx="261.8" cy="148" r="8.2"/>
	<path class="st34" d="M261.8,140.8c-4,0-7.2,3.2-7.2,7.2c0,4,3.2,7.2,7.2,7.2c4,0,7.2-3.2,7.2-7.2
		C269,144.1,265.8,140.8,261.8,140.8z M261.8,151.9c-2.1,0-3.8-1.7-3.8-3.8c0-2.1,1.7-3.8,3.8-3.8c2.1,0,3.8,1.7,3.8,3.8
		C265.7,150.2,263.9,151.9,261.8,151.9z"/>
</g>
<text transform="matrix(1 0 0 1 231.954 122.2109)" class="st3 st4 st31">1</text>
<text transform="matrix(1 0 0 1 231.954 115.2783)" class="st3 st4 st31">2</text>
<text transform="matrix(1 0 0 1 231.954 108.3447)" class="st3 st4 st31">3</text>
<text transform="matrix(1 0 0 1 231.954 101.4111)" class="st3 st4 st31">4</text>
<g>
	<g>
		<rect x="249.3" y="34.8" class="st7" width="2.2" height="43"/>
		<rect x="251.5" y="34.8" class="st3" width="16" height="43"/>
		<rect x="251.5" y="34.8" class="st3" width="19.3" height="6.8"/>
		<rect x="251.5" y="71" class="st3" width="19.3" height="6.8"/>
		<rect x="251.5" y="44" class="st3" width="19.3" height="24.5"/>
		<rect x="236.2" y="34.8" class="st3" width="15.3" height="2.7"/>
		<rect x="236.2" y="75" class="st3" width="15.3" height="2.7"/>
	</g>
	<rect x="262" y="41.6" class="st7" width="8.8" height="2.5"/>
	<rect x="261.8" y="68.5" class="st7" width="9" height="2.5"/>
</g>
<g>
	<rect x="230.4" y="89.6" class="st28" width="41.8" height="41.1"/>
	<g>
		<circle class="st35" cx="245.4" cy="89.4" r="2.9"/>
	</g>
	<g>
		<circle class="st35" cx="245.4" cy="130.4" r="2.9"/>
	</g>
	<path class="st3" d="M276.8,130.2H237c-0.6,0-1-0.5-1-1V91c0-0.6,0.5-1,1-1h39.8V130.2z"/>
	<g>
		<path class="st7" d="M273.3,104.5l-15.2,0.3v-6.7l15.2,0.3c0.4,0,0.7,0.3,0.7,0.7v4.7C273.9,104.3,273.7,104.5,273.3,104.5z"/>
		<path class="st3" d="M269.8,102.7l-11.7,0.3v-3l11.7,0.3c0.5,0,0.9,0.4,0.9,0.9v0.4C270.6,102.3,270.3,102.7,269.8,102.7z"/>
	</g>
	<g>
		<path class="st7" d="M273.3,121.6l-15.2,0.3v-6.7l15.2,0.3c0.4,0,0.7,0.3,0.7,0.7v4.7C273.9,121.3,273.7,121.6,273.3,121.6z"/>
		<path class="st3" d="M269.8,119.8l-11.7,0.3v-3l11.7,0.3c0.5,0,0.9,0.4,0.9,0.9v0.4C270.6,119.3,270.3,119.7,269.8,119.8z"/>
	</g>
	<g>
		<polygon class="st16" points="277.8,132.1 275.9,130.2 275.9,89.9 277.9,87.9 279.2,89.1 277.7,90.7 277.7,129.5 279,130.8 		"/>
	</g>
	<path class="st16" d="M278.8,128.8l-1.2,0.8v-39l1.2,0.8c0.3,0.2,0.4,0.5,0.4,0.8V128C279.2,128.3,279,128.6,278.8,128.8z"/>
	<rect x="236.4" y="97.3" class="st7" width="0.9" height="8.4"/>
	<rect x="236.4" y="114.4" class="st7" width="0.9" height="8.4"/>
</g>
<text transform="matrix(1 0 0 1 210.622 99.8789)" class="st3 st36 st37"></text>
<g>
	<g>
		<g>
			<path class="st3" d="M257.6,82.7c0,0.4-0.3,0.8-0.8,0.8s-0.8-0.3-0.8-0.8s0.3-0.8,0.8-0.8S257.6,82.3,257.6,82.7z M256.4,82.7
				c0,0.2,0.2,0.4,0.4,0.4c0.2,0,0.4-0.2,0.4-0.4c0-0.2-0.2-0.4-0.4-0.4C256.6,82.3,256.4,82.5,256.4,82.7z"/>
		</g>
		<g>
			<path class="st3" d="M252.5,84c0,0.3-0.3,0.6-0.6,0.6c-0.3,0-0.6-0.3-0.6-0.6s0.3-0.6,0.6-0.6C252.3,83.4,252.5,83.7,252.5,84z
				 M251.7,84c0,0.2,0.1,0.3,0.3,0.3c0.2,0,0.3-0.1,0.3-0.3c0-0.2-0.1-0.3-0.3-0.3C251.8,83.7,251.7,83.9,251.7,84z"/>
		</g>
		<g>
			<rect x="250.2" y="82.5" class="st3" width="6.1" height="0.3"/>
		</g>
		<g>
			<path class="st3" d="M250.5,82v1.5c0,0.1-0.1,0.1-0.1,0.1c-0.1,0.1-0.1,0.1-0.2,0l-1.3-0.8c-0.1-0.1-0.1-0.1-0.1-0.1
				s0.1-0.1,0.1-0.1l1.3-0.8c0.1-0.1,0.1-0.1,0.2,0C250.5,81.9,250.5,81.9,250.5,82z M250.1,83.2v-0.9l-0.8,0.5L250.1,83.2z"/>
		</g>
		<g>
			<path class="st3" d="M255.4,82.7c0,0.1,0,0.1-0.1,0.1l-1.3,1.3c-0.1,0.1-0.1,0.1-0.1,0.1h-1.5c-0.1,0-0.2-0.1-0.2-0.2
				c0-0.1,0.1-0.2,0.2-0.2h1.5l1.3-1.3c0.1-0.1,0.2-0.1,0.2,0C255.3,82.6,255.4,82.7,255.4,82.7z"/>
		</g>
		<g>
			<path class="st3" d="M254.5,82.7c0,0.1,0,0.1-0.1,0.1c-0.1,0.1-0.2,0.1-0.2,0l-1.3-1.3h-1.5c-0.1,0-0.2-0.1-0.2-0.2
				c0-0.1,0.1-0.2,0.2-0.2h1.5c0.1,0,0.1,0,0.1,0.1l1.4,1.4C254.5,82.6,254.5,82.7,254.5,82.7z"/>
		</g>
		<g>
			<path class="st3" d="M251.6,81v0.8c0,0.1-0.1,0.2-0.2,0.2h-0.8c-0.1,0-0.2-0.1-0.2-0.2V81c0-0.1,0.1-0.2,0.2-0.2h0.8
				C251.5,80.8,251.6,80.9,251.6,81z M251.3,81.5v-0.4h-0.4v0.4L251.3,81.5L251.3,81.5z"/>
		</g>
	</g>
	<rect x="247.6" y="79.8" class="st8" width="10.6" height="5.5"/>
	<rect x="245.1" y="80.8" class="st8" width="2.5" height="3.6"/>
	<rect x="246.1" y="81.5" class="st3" width="0.6" height="0.6"/>
	<rect x="246.1" y="83.1" class="st3" width="0.6" height="0.6"/>
	<path class="st8" d="M258.3,82.7c0,0,2.1,0.2,2.1-2.1"/>
</g>
<g>
	<g>
		<g>
			<path class="st3" d="M241.9,6.9c0.4,0,0.8,0.3,0.8,0.8c0,0.4-0.3,0.8-0.8,0.8s-0.8-0.3-0.8-0.8C241.1,7.2,241.5,6.9,241.9,6.9z
				 M241.9,8.1c0.2,0,0.4-0.2,0.4-0.4s-0.2-0.4-0.4-0.4s-0.4,0.2-0.4,0.4C241.5,7.9,241.7,8.1,241.9,8.1z"/>
		</g>
		<g>
			<path class="st3" d="M243.2,11.9c0.3,0,0.6,0.3,0.6,0.6c0,0.3-0.3,0.6-0.6,0.6c-0.3,0-0.6-0.3-0.6-0.6
				C242.6,12.2,242.9,11.9,243.2,11.9z M243.2,12.8c0.2,0,0.3-0.1,0.3-0.3c0-0.2-0.1-0.3-0.3-0.3s-0.3,0.1-0.3,0.3
				C242.9,12.7,243.1,12.8,243.2,12.8z"/>
		</g>
		<g>
			<rect x="241.7" y="8.3" class="st3" width="0.3" height="6.1"/>
		</g>
		<g>
			<path class="st3" d="M241.2,14h1.5c0.1,0,0.1,0.1,0.1,0.1c0.1,0.1,0.1,0.1,0,0.2l-0.8,1.3c-0.1,0.1-0.1,0.1-0.1,0.1
				s-0.1-0.1-0.1-0.1l-0.8-1.3c-0.1-0.1-0.1-0.1,0-0.2C241.1,14.1,241.1,14,241.2,14z M242.4,14.4h-0.9l0.5,0.8L242.4,14.4z"/>
		</g>
		<g>
			<path class="st3" d="M241.9,9.1c0.1,0,0.1,0,0.1,0.1l1.3,1.3c0.1,0.1,0.1,0.1,0.1,0.1v1.5c0,0.1-0.1,0.2-0.2,0.2
				s-0.2-0.1-0.2-0.2v-1.5l-1.3-1.3c-0.1-0.1-0.1-0.2,0-0.2C241.8,9.1,241.8,9.1,241.9,9.1z"/>
		</g>
		<g>
			<path class="st3" d="M241.9,10c0.1,0,0.1,0,0.1,0.1c0.1,0.1,0.1,0.2,0,0.2l-1.3,1.3v1.5c0,0.1-0.1,0.2-0.2,0.2s-0.2-0.1-0.2-0.2
				v-1.5c0-0.1,0-0.1,0.1-0.1l1.4-1.4C241.8,10,241.8,10,241.9,10z"/>
		</g>
		<g>
			<path class="st3" d="M240.2,12.9h0.8c0.1,0,0.2,0.1,0.2,0.2v0.8c0,0.1-0.1,0.2-0.2,0.2h-0.8c-0.1,0-0.2-0.1-0.2-0.2v-0.8
				C240,13,240.1,12.9,240.2,12.9z M240.8,13.2h-0.4v0.4h0.4V13.2z"/>
		</g>
	</g>
	<rect x="239.1" y="6.3" class="st8" width="5.5" height="10.6"/>
	<rect x="240" y="16.9" class="st8" width="3.6" height="2.5"/>
	<rect x="240.7" y="17.8" class="st3" width="0.6" height="0.6"/>
	<rect x="242.3" y="17.8" class="st3" width="0.6" height="0.6"/>
	<path class="st8" d="M241.9,6.3c0,0,0.2-2.1-2.1-2.1"/>
</g>
<g>
	<g>
		<rect x="244.1" y="24" class="st28" width="7.2" height="7.2"/>
		<circle class="st28" cx="247.7" cy="27.6" r="0.9"/>
	</g>
	<g>
		<rect x="256.3" y="24" class="st28" width="7.2" height="7.2"/>
		<circle class="st28" cx="260" cy="27.6" r="0.9"/>
	</g>
	<line class="st28" x1="252.3" y1="27.6" x2="255.5" y2="27.6"/>
	<polyline class="st28" points="249.7,26.4 249.7,25.7 253,25.7 253,26.4 	"/>
	<polyline class="st28" points="254.7,26.4 254.7,25.7 257.9,25.7 257.9,26.4 	"/>
	<polyline class="st28" points="249.7,28.7 249.7,29.4 253,29.4 253,28.7 	"/>
	<polyline class="st28" points="254.7,28.7 254.7,29.4 257.9,29.4 257.9,28.7 	"/>
</g>
<g>
	<text transform="matrix(1 0 0 1 147.2908 141.2122)" class="st3 st4 st38">KidBright  32</text>
</g>
<g>
	<text transform="matrix(1 0 0 1 188.9027 100.0827)" class="st3 st4 st38">Reset</text>
</g>
<g>
	<path class="st39" d="M201,137.5l0.3-0.1c0.1,0.2,0.1,0.5,0.2,0.7c0.1,0.2,0.2,0.4,0.4,0.5c0.2,0.2,0.3,0.3,0.5,0.4
		c0.2,0.1,0.4,0.2,0.7,0.2c0.2,0,0.4,0,0.6,0c0.2,0,0.4-0.1,0.5-0.2c0.2-0.1,0.3-0.2,0.5-0.3c0.2-0.1,0.3-0.2,0.4-0.4
		c0.1-0.2,0.2-0.3,0.3-0.5c0.1-0.2,0.1-0.4,0.2-0.5c0-0.2,0.1-0.4,0-0.6c0-0.2-0.1-0.4-0.2-0.5c-0.1-0.2-0.2-0.3-0.3-0.5
		c-0.1-0.2-0.2-0.3-0.4-0.4c-0.2-0.1-0.3-0.2-0.5-0.3c-0.2-0.1-0.4-0.1-0.5-0.2c-0.2-0.1-0.4,0-0.6,0c-0.2,0.1-0.4,0.1-0.6,0.2
		c-0.2,0.1-0.3,0.2-0.5,0.3s-0.3,0.3-0.4,0.4l0.7,0.1l-0.1,0.3l-1.2-0.2l0.2-1.3l0.3,0.1l-0.1,0.7c0.1-0.2,0.3-0.3,0.4-0.5
		c0.2-0.2,0.4-0.3,0.5-0.3c0.2-0.1,0.4-0.2,0.6-0.2c0.2-0.1,0.4-0.1,0.7,0c0.2,0.1,0.4,0.1,0.7,0.2c0.2,0.1,0.4,0.2,0.5,0.3
		c0.2,0.1,0.3,0.3,0.4,0.4c0.1,0.2,0.2,0.3,0.3,0.5c0.1,0.2,0.1,0.4,0.2,0.6c0.1,0.2,0.1,0.4,0,0.7s-0.1,0.4-0.2,0.7
		c-0.1,0.2-0.2,0.4-0.3,0.5c-0.1,0.2-0.3,0.3-0.4,0.4c-0.2,0.1-0.3,0.2-0.5,0.3c-0.2,0.1-0.4,0.2-0.6,0.2c-0.2,0.1-0.4,0.1-0.7,0
		c-0.3-0.1-0.5-0.1-0.8-0.2c-0.2-0.1-0.4-0.3-0.7-0.5c-0.2-0.2-0.3-0.4-0.4-0.7C201.1,138,201,137.8,201,137.5z"/>
</g>
<g>
	<g>
		<g>
			<polygon class="st3" points="4.3,137.2 4.3,124.1 26.3,124.1 26.3,137.2 25.9,137.2 25.9,124.4 4.7,124.4 4.7,137.2 			"/>
		</g>
	</g>
	<g>
		<g>
			<g>
				<g>
					<polygon class="st40" points="5.6,125.3 24.9,125.3 24.9,137.1 18.5,137.1 18.5,134.3 11.9,134.3 11.9,137.1 5.6,137.1 					
						"/>
				</g>
			</g>
			<g>
				<g>
					<path class="st3" d="M24.2,136.5H19v-1.7v-1.1h-1.1h-5.4h-1.1v1.1v1.7H6.4V126h17.9L24.2,136.5 M25.5,137.6v-12.8H5.1v12.8h7.5
						v-2.8h5.4v2.8H25.5L25.5,137.6z"/>
				</g>
			</g>
		</g>
		<g>
			<g>
				<g>
					<circle class="st41" cx="20.8" cy="129.8" r="0.7"/>
				</g>
				<g>
					<path class="st42" d="M19.9,129.8c0-0.4,0.4-0.8,0.8-0.8c0.4,0,0.8,0.4,0.8,0.8s-0.4,0.8-0.8,0.8
						C20.2,130.6,19.9,130.3,19.9,129.8z M21.3,129.8c0-0.3-0.2-0.4-0.4-0.4c-0.3,0-0.4,0.2-0.4,0.4c0,0.3,0.2,0.4,0.4,0.4
						C21.1,130.3,21.3,130.1,21.3,129.8z"/>
				</g>
			</g>
			<g>
				<g>
					<circle class="st41" cx="15.3" cy="129.8" r="0.7"/>
				</g>
				<g>
					<path class="st42" d="M14.5,129.8c0-0.4,0.4-0.8,0.8-0.8s0.8,0.4,0.8,0.8s-0.4,0.8-0.8,0.8S14.5,130.3,14.5,129.8z M15.9,129.8
						c0-0.3-0.2-0.4-0.4-0.4s-0.4,0.2-0.4,0.4c0,0.3,0.2,0.4,0.4,0.4S15.9,130.1,15.9,129.8z"/>
				</g>
			</g>
			<g>
				<g>
					<circle class="st41" cx="9.8" cy="129.8" r="0.7"/>
				</g>
				<g>
					<path class="st42" d="M8.8,129.8c0-0.4,0.4-0.8,0.8-0.8c0.4,0,0.8,0.4,0.8,0.8s-0.4,0.8-0.8,0.8C9.3,130.6,8.8,130.3,8.8,129.8
						z M10.2,129.8c0-0.3-0.2-0.4-0.4-0.4s-0.4,0.2-0.4,0.4c0,0.3,0.2,0.4,0.4,0.4C10,130.3,10.2,130.1,10.2,129.8z"/>
				</g>
			</g>
		</g>
	</g>
</g>
<g>
	<g>
		<g>
			<polygon class="st3" points="27.4,137.2 27.4,124.1 49.3,124.1 49.3,137.2 49,137.2 49,124.4 27.8,124.4 27.8,137.2 			"/>
		</g>
	</g>
	<g>
		<g>
			<g>
				<g>
					<polygon class="st40" points="28.7,125.3 47.9,125.3 47.9,137.1 41.5,137.1 41.5,134.3 34.9,134.3 34.9,137.1 28.7,137.1 					
						"/>
				</g>
			</g>
			<g>
				<g>
					<path class="st3" d="M47.3,136.5l-5.2,0l0-1.7l0-1.1H41l-5.4,0h-1.1l0,1.1l0,1.7l-5.1,0l0-10.5l17.9,0L47.3,136.5 M48.5,137.6
						l0-12.8l-20.4,0l0,12.8l7.5,0l0-2.8l5.4,0l0,2.8L48.5,137.6L48.5,137.6z"/>
				</g>
			</g>
		</g>
		<g>
			<g>
				<g>
					<circle class="st41" cx="43.8" cy="129.8" r="0.7"/>
				</g>
				<g>
					<path class="st42" d="M42.9,129.8c0-0.4,0.4-0.8,0.8-0.8c0.4,0,0.8,0.4,0.8,0.8c0,0.4-0.4,0.8-0.8,0.8
						C43.3,130.6,42.9,130.3,42.9,129.8z M44.3,129.8c0-0.3-0.2-0.4-0.4-0.4s-0.4,0.2-0.4,0.4c0,0.3,0.2,0.4,0.4,0.4
						S44.3,130.1,44.3,129.8z"/>
				</g>
			</g>
			<g>
				<g>
					<circle class="st41" cx="38.3" cy="129.8" r="0.7"/>
				</g>
				<g>
					<path class="st42" d="M37.5,129.8c0-0.4,0.4-0.8,0.8-0.8c0.4,0,0.8,0.4,0.8,0.8c0,0.4-0.4,0.8-0.8,0.8
						C37.9,130.6,37.5,130.3,37.5,129.8z M38.9,129.8c0-0.3-0.2-0.4-0.4-0.4s-0.4,0.2-0.4,0.4c0,0.3,0.2,0.4,0.4,0.4
						C38.7,130.3,38.9,130.1,38.9,129.8z"/>
				</g>
			</g>
			<g>
				<g>
					<circle class="st41" cx="32.8" cy="129.8" r="0.7"/>
				</g>
				<g>
					<path class="st42" d="M31.9,129.8c0-0.4,0.4-0.8,0.8-0.8c0.4,0,0.8,0.4,0.8,0.8c0,0.4-0.4,0.8-0.8,0.8
						C32.3,130.6,31.9,130.3,31.9,129.8z M33.2,129.8c0-0.3-0.2-0.4-0.4-0.4s-0.4,0.2-0.4,0.4c0,0.3,0.2,0.4,0.4,0.4
						C33.1,130.3,33.2,130.1,33.2,129.8z"/>
				</g>
			</g>
		</g>
	</g>
</g>
<g>
	<g>
		<g>
			<polygon class="st3" points="4.3,155.3 4.3,142.2 26.2,142.2 26.2,155.3 25.8,155.3 25.8,142.6 4.6,142.6 4.6,155.3 			"/>
		</g>
	</g>
	<g>
		<g>
			<g>
				<g>
					<polygon class="st40" points="5.5,143.5 24.8,143.5 24.8,155.2 18.4,155.2 18.4,152.4 11.8,152.4 11.8,155.2 5.5,155.2 					
						"/>
				</g>
			</g>
			<g>
				<g>
					<path class="st3" d="M24.1,154.7h-5.2V153v-1.1h-1.1h-5.4h-1.1v1.1v1.7H6.3v-10.5h17.9V154.7 M25.3,155.8v-12.8H5v12.8h7.5V153
						h5.4v2.8L25.3,155.8L25.3,155.8z"/>
				</g>
			</g>
		</g>
		<g>
			<g>
				<g>
					<circle class="st41" cx="20.7" cy="148" r="0.7"/>
				</g>
				<g>
					<path class="st42" d="M19.8,148c0-0.4,0.4-0.8,0.8-0.8c0.4,0,0.8,0.4,0.8,0.8c0,0.4-0.4,0.8-0.8,0.8
						C20.1,148.8,19.8,148.5,19.8,148z M21.2,148c0-0.3-0.2-0.4-0.4-0.4c-0.3,0-0.4,0.2-0.4,0.4c0,0.3,0.2,0.4,0.4,0.4
						C21,148.4,21.2,148.2,21.2,148z"/>
				</g>
			</g>
			<g>
				<g>
					<circle class="st41" cx="15.2" cy="148" r="0.7"/>
				</g>
				<g>
					<path class="st42" d="M14.4,148c0-0.4,0.4-0.8,0.8-0.8s0.8,0.4,0.8,0.8c0,0.4-0.4,0.8-0.8,0.8C14.8,148.8,14.4,148.5,14.4,148z
						 M15.8,148c0-0.3-0.2-0.4-0.4-0.4s-0.4,0.2-0.4,0.4c0,0.3,0.2,0.4,0.4,0.4S15.8,148.2,15.8,148z"/>
				</g>
			</g>
			<g>
				<g>
					<circle class="st41" cx="9.7" cy="148" r="0.7"/>
				</g>
				<g>
					<path class="st42" d="M8.7,148c0-0.4,0.4-0.8,0.8-0.8c0.4,0,0.8,0.4,0.8,0.8c0,0.4-0.4,0.8-0.8,0.8
						C9.2,148.8,8.7,148.5,8.7,148z M10.1,148c0-0.3-0.2-0.4-0.4-0.4c-0.3,0-0.4,0.2-0.4,0.4c0,0.3,0.2,0.4,0.4,0.4
						C9.9,148.5,10.1,148.2,10.1,148z"/>
				</g>
			</g>
		</g>
	</g>
</g>
<g>
	<g>
		<g>
			<polygon class="st3" points="50.6,137.2 50.6,124.1 72.5,124.1 72.5,137.2 72.1,137.2 72.1,124.4 50.9,124.4 50.9,137.2 			"/>
		</g>
	</g>
	<g>
		<g>
			<g>
				<g>
					<polygon class="st43" points="51.9,125.3 71.1,125.3 71.1,137.1 64.8,137.1 64.8,134.3 58.2,134.3 58.2,137.1 51.9,137.1 					
						"/>
				</g>
			</g>
			<g>
				<g>
					<g>
						<path class="st44" d="M70.5,136.5h-5.2v-1.7v-1.1h-1.1h-5.4h-1.1v1.1v1.7h-5.1V126h17.9L70.5,136.5 M71.6,137.6v-12.8H51.3
							v12.8h7.5v-2.8h5.4v2.8H71.6L71.6,137.6z"/>
					</g>
				</g>
			</g>
		</g>
		<g>
			<g>
				<g>
					<circle class="st41" cx="67" cy="129.8" r="0.7"/>
				</g>
				<g>
					<path class="st42" d="M66.2,129.8c0-0.4,0.4-0.8,0.8-0.8s0.8,0.4,0.8,0.8s-0.4,0.8-0.8,0.8S66.2,130.3,66.2,129.8z M67.5,129.8
						c0-0.3-0.2-0.4-0.4-0.4s-0.4,0.2-0.4,0.4c0,0.3,0.2,0.4,0.4,0.4S67.5,130.1,67.5,129.8z"/>
				</g>
			</g>
			<g>
				<g>
					<circle class="st41" cx="61.6" cy="129.8" r="0.7"/>
				</g>
				<g>
					<path class="st42" d="M60.7,129.8c0-0.4,0.4-0.8,0.8-0.8c0.4,0,0.8,0.4,0.8,0.8s-0.4,0.8-0.8,0.8
						C61.1,130.6,60.7,130.3,60.7,129.8z M62.1,129.8c0-0.3-0.2-0.4-0.4-0.4c-0.3,0-0.4,0.2-0.4,0.4c0,0.3,0.2,0.4,0.4,0.4
						C61.9,130.3,62.1,130.1,62.1,129.8z"/>
				</g>
			</g>
			<g>
				<g>
					<circle class="st41" cx="56" cy="129.8" r="0.7"/>
				</g>
				<g>
					<path class="st42" d="M55.1,129.8c0-0.4,0.4-0.8,0.8-0.8s0.8,0.4,0.8,0.8s-0.4,0.8-0.8,0.8S55.1,130.3,55.1,129.8z M56.5,129.8
						c0-0.3-0.2-0.4-0.4-0.4c-0.3,0-0.4,0.2-0.4,0.4c0,0.3,0.2,0.4,0.4,0.4C56.3,130.3,56.5,130.1,56.5,129.8z"/>
				</g>
			</g>
		</g>
	</g>
</g>
<g>
	<g>
		<g>
			<polygon class="st3" points="27.4,155.3 27.4,142.2 49.3,142.2 49.3,155.3 49,155.3 49,142.6 27.8,142.6 27.8,155.3 			"/>
		</g>
	</g>
	<g>
		<g>
			<g>
				<g>
					<polygon class="st40" points="28.7,143.5 47.9,143.5 47.9,155.2 41.5,155.2 41.5,152.4 34.9,152.4 34.9,155.2 28.7,155.2 					
						"/>
				</g>
			</g>
			<g>
				<g>
					<path class="st3" d="M47.3,154.7h-5.2V153v-1.1H41h-5.4h-1.1v1.1v1.7h-5.1v-10.5h17.9L47.3,154.7 M48.5,155.8v-12.8H28.1v12.8
						h7.5V153H41v2.8L48.5,155.8L48.5,155.8z"/>
				</g>
			</g>
		</g>
		<g>
			<g>
				<g>
					<circle class="st41" cx="43.8" cy="148" r="0.7"/>
				</g>
				<g>
					<path class="st42" d="M42.9,148c0-0.4,0.4-0.8,0.8-0.8s0.8,0.4,0.8,0.8c0,0.4-0.4,0.8-0.8,0.8S42.9,148.5,42.9,148z M44.3,148
						c0-0.3-0.2-0.4-0.4-0.4c-0.3,0-0.4,0.2-0.4,0.4c0,0.3,0.2,0.4,0.4,0.4C44.1,148.5,44.3,148.2,44.3,148z"/>
				</g>
			</g>
			<g>
				<g>
					<circle class="st41" cx="38.3" cy="148" r="0.7"/>
				</g>
				<g>
					<path class="st42" d="M37.5,148c0-0.4,0.4-0.8,0.8-0.8s0.8,0.4,0.8,0.8c0,0.4-0.4,0.8-0.8,0.8S37.5,148.5,37.5,148z M38.9,148
						c0-0.3-0.2-0.4-0.4-0.4c-0.3,0-0.4,0.2-0.4,0.4c0,0.3,0.2,0.4,0.4,0.4C38.7,148.5,38.9,148.2,38.9,148z"/>
				</g>
			</g>
			<g>
				<g>
					<circle class="st41" cx="32.8" cy="148" r="0.7"/>
				</g>
				<g>
					<path class="st42" d="M31.9,148c0-0.4,0.4-0.8,0.8-0.8c0.4,0,0.8,0.4,0.8,0.8c0,0.4-0.4,0.8-0.8,0.8
						C32.3,148.8,31.9,148.5,31.9,148z M33.2,148c0-0.3-0.2-0.4-0.4-0.4c-0.3,0-0.4,0.2-0.4,0.4c0,0.3,0.2,0.4,0.4,0.4
						C33.1,148.5,33.2,148.2,33.2,148z"/>
				</g>
			</g>
		</g>
	</g>
</g>
<g>
	<g>
		<g>
			<polygon class="st3" points="50.6,155.3 50.6,142.2 72.5,142.2 72.5,155.3 72.1,155.3 72.1,142.6 50.9,142.6 50.9,155.3 			"/>
		</g>
	</g>
	<g>
		<g>
			<g>
				<g>
					<polygon class="st43" points="51.9,143.5 71.1,143.5 71.1,155.2 64.8,155.2 64.8,152.4 58.2,152.4 58.2,155.2 51.9,155.2 					
						"/>
				</g>
			</g>
			<g>
				<g>
					<g>
						<path class="st44" d="M70.5,154.7h-5.2V153v-1.1h-1.1h-5.4h-1.1v1.1v1.7h-5.1v-10.5h17.9L70.5,154.7 M71.6,155.8v-12.8H51.3
							v12.8h7.5V153h5.4v2.8L71.6,155.8L71.6,155.8z"/>
					</g>
				</g>
			</g>
		</g>
		<g>
			<g>
				<g>
					<circle class="st41" cx="67" cy="148" r="0.7"/>
				</g>
				<g>
					<path class="st42" d="M66.2,148c0-0.4,0.4-0.8,0.8-0.8s0.8,0.4,0.8,0.8c0,0.4-0.4,0.8-0.8,0.8S66.2,148.5,66.2,148z M67.5,148
						c0-0.3-0.2-0.4-0.4-0.4s-0.4,0.2-0.4,0.4c0,0.3,0.2,0.4,0.4,0.4C67.3,148.5,67.5,148.2,67.5,148z"/>
				</g>
			</g>
			<g>
				<g>
					<circle class="st41" cx="61.6" cy="148" r="0.7"/>
				</g>
				<g>
					<path class="st42" d="M60.7,148c0-0.4,0.4-0.8,0.8-0.8c0.4,0,0.8,0.4,0.8,0.8c0,0.4-0.4,0.8-0.8,0.8
						C61.1,148.8,60.7,148.5,60.7,148z M62.1,148c0-0.3-0.2-0.4-0.4-0.4c-0.3,0-0.4,0.2-0.4,0.4c0,0.3,0.2,0.4,0.4,0.4
						C61.9,148.5,62.1,148.2,62.1,148z"/>
				</g>
			</g>
			<g>
				<g>
					<circle class="st41" cx="56" cy="148" r="0.7"/>
				</g>
				<g>
					<path class="st42" d="M55.1,148c0-0.4,0.4-0.8,0.8-0.8s0.8,0.4,0.8,0.8c0,0.4-0.4,0.8-0.8,0.8S55.1,148.5,55.1,148z M56.5,148
						c0-0.3-0.2-0.4-0.4-0.4c-0.3,0-0.4,0.2-0.4,0.4c0,0.3,0.2,0.4,0.4,0.4C56.3,148.5,56.5,148.2,56.5,148z"/>
				</g>
			</g>
		</g>
	</g>
</g>
<g>
	<g>
		<path class="st45" d="M219.4,150.2h-5c-0.4-0.4-0.7-0.7-1.1-1.1v-5c0.4-0.4,0.7-0.7,1.1-1.1h5c0.4,0.4,0.7,0.7,1.1,1.1v5
			C220.1,149.5,219.9,149.7,219.4,150.2z"/>
		<g>
			<rect x="216" y="145.8" class="st46" width="1.7" height="1.7"/>
			<polygon class="st47" points="216.9,146.6 216,147.5 217.8,147.5 			"/>
			<polygon class="st48" points="216,145.8 216.9,146.6 216,147.5 			"/>
			<polygon class="st47" points="217.8,145.8 216.9,146.6 216,145.8 			"/>
		</g>
	</g>
	<g>
		<path class="st45" d="M219.4,143h-5c-0.4-0.4-0.7-0.7-1.1-1.1v-5c0.4-0.4,0.7-0.7,1.1-1.1h5c0.4,0.4,0.7,0.7,1.1,1.1v5
			C220.1,142.3,219.9,142.5,219.4,143z"/>
		<g>
			<rect x="216" y="138.5" class="st46" width="1.7" height="1.7"/>
			<polygon class="st47" points="216.9,139.4 216,140.3 217.8,140.3 			"/>
			<polygon class="st48" points="216,138.5 216.9,139.4 216,140.3 			"/>
			<polygon class="st47" points="217.8,138.5 216.9,139.4 216,138.5 			"/>
		</g>
	</g>
	<g>
		<path class="st45" d="M219.4,157.4h-5c-0.4-0.4-0.7-0.7-1.1-1.1v-5c0.4-0.4,0.7-0.7,1.1-1.1h5c0.4,0.4,0.7,0.7,1.1,1.1v5
			C220.1,156.8,219.9,156.9,219.4,157.4z"/>
		<g>
			<rect x="216" y="152.9" class="st46" width="1.7" height="1.7"/>
			<polygon class="st47" points="216.9,153.8 216,154.6 217.8,154.6 			"/>
			<polygon class="st48" points="216,152.9 216.9,153.8 216,154.6 			"/>
			<polygon class="st47" points="217.8,152.9 216.9,153.8 216,152.9 			"/>
		</g>
	</g>
	<g>
		<path class="st45" d="M226.5,150.2h-5c-0.4-0.4-0.7-0.7-1.1-1.1v-5c0.4-0.4,0.7-0.7,1.1-1.1h5c0.4,0.4,0.7,0.7,1.1,1.1v5
			C227.2,149.5,226.9,149.7,226.5,150.2z"/>
		<g>
			<rect x="223.1" y="145.8" class="st46" width="1.7" height="1.7"/>
			<polygon class="st47" points="224,146.6 223.1,147.5 224.8,147.5 			"/>
			<polygon class="st48" points="223.1,145.8 224,146.6 223.1,147.5 			"/>
			<polygon class="st47" points="224.8,145.8 224,146.6 223.1,145.8 			"/>
		</g>
	</g>
	<g>
		<path class="st45" d="M226.5,143h-5c-0.4-0.4-0.7-0.7-1.1-1.1v-5c0.4-0.4,0.7-0.7,1.1-1.1h5c0.4,0.4,0.7,0.7,1.1,1.1v5
			C227.2,142.3,226.9,142.5,226.5,143z"/>
		<g>
			<rect x="223.1" y="138.5" class="st46" width="1.7" height="1.7"/>
			<polygon class="st47" points="224,139.4 223.1,140.3 224.8,140.3 			"/>
			<polygon class="st48" points="223.1,138.5 224,139.4 223.1,140.3 			"/>
			<polygon class="st47" points="224.8,138.5 224,139.4 223.1,138.5 			"/>
		</g>
	</g>
	<g>
		<path class="st45" d="M226.5,157.4h-5c-0.4-0.4-0.7-0.7-1.1-1.1v-5c0.4-0.4,0.7-0.7,1.1-1.1h5c0.4,0.4,0.7,0.7,1.1,1.1v5
			C227.2,156.8,226.9,156.9,226.5,157.4z"/>
		<g>
			<rect x="223.1" y="152.9" class="st46" width="1.7" height="1.7"/>
			<polygon class="st47" points="224,153.8 223.1,154.6 224.8,154.6 			"/>
			<polygon class="st48" points="223.1,152.9 224,153.8 223.1,154.6 			"/>
			<polygon class="st47" points="224.8,152.9 224,153.8 223.1,152.9 			"/>
		</g>
	</g>
</g>
<g>
	<rect x="228.8" y="137.9" class="st49" width="23.6" height="19.2"/>
	<rect x="228.8" y="142.4" class="st50" width="23.6" height="10.2"/>
	<g>
		<g>
			<g>
				<defs>
					<circle id="SVGID_1_" cx="235.7" cy="147" r="3.2"/>
				</defs>
				<clipPath id="SVGID_2_">
					<use xlink:href="#SVGID_1_"  style="overflow:visible;"/>
				</clipPath>
				<g class="st51">
					<circle class="st16" cx="235.7" cy="147" r="3.2"/>
					
						<rect x="234.6" y="143.2" transform="matrix(0.7071 -0.7071 0.7071 0.7071 -34.978 209.6636)" class="st52" width="2.1" height="7.7"/>
				</g>
			</g>
		</g>
	</g>
	<g>
		<g>
			<g>
				<defs>
					<circle id="SVGID_3_" cx="245.8" cy="147" r="3.2"/>
				</defs>
				<clipPath id="SVGID_4_">
					<use xlink:href="#SVGID_3_"  style="overflow:visible;"/>
				</clipPath>
				<g class="st53">
					<circle class="st16" cx="245.8" cy="147" r="3.2"/>
					
						<rect x="244.6" y="143.2" transform="matrix(0.7071 -0.7071 0.7071 0.7071 -32.0237 216.7996)" class="st52" width="2.1" height="7.7"/>
				</g>
			</g>
		</g>
	</g>
</g>
<text transform="matrix(1 0 0 1 244.0712 137.168)" class="st3 st4 st22">+</text>
<path class="st54" d="M224.5,134.9h-1.3c-0.6,0-1.1-0.5-1.1-1.1v-2.5c0-0.6,0.5-1.1,1.1-1.1h1.3c0.6,0,1.1,0.5,1.1,1.1v2.5
	C225.6,134.4,225.1,134.9,224.5,134.9z"/>
<path class="st55" d="M224.8,124.6h-1.4c-0.9,0-1.6-0.7-1.6-1.6v-4.6c0-0.9,0.7-1.6,1.6-1.6h1.4c0.9,0,1.6,0.7,1.6,1.6v4.6
	C226.4,123.8,225.7,124.6,224.8,124.6z"/>
<text transform="matrix(1 0 0 1 215.9911 133.9092)" class="st3 st4 st20">2</text>
<path class="st54" d="M217.7,134.9h-1.3c-0.6,0-1.1-0.5-1.1-1.1v-2.5c0-0.6,0.5-1.1,1.1-1.1h1.3c0.6,0,1.1,0.5,1.1,1.1v2.5
	C218.8,134.4,218.3,134.9,217.7,134.9z"/>
<polyline class="st56" points="223.2,118.3 226.2,115.8 225.1,119.6 "/>
<circle class="st57" cx="224.1" cy="119" r="1.2"/>
<circle class="st58" cx="224.1" cy="119" r="0.3"/>
<g id="Layer_3" class="st1">
	
		<image style="display:inline;overflow:visible;opacity:0.5;enable-background:new    ;" width="566" height="419" xlink:href="../../../../../../Desktop/F4BC07A4D2C81C1B.jpg"  transform="matrix(0.6137 0 0 0.6137 -320.3396 322.4883)">
	</image>
	<g class="st59">
		<path class="st60" d="M-146.6,347c0,0-20,2.3-26.6,12c-6.7,9.7-12,34-5,46.3s20.7,19,33.3,19c12.6,0,29.3-7.7,35.3-19
			s2.7-28.3-1.7-41.3c-4.4-13-27.3-17-31.3-17l2-4.7L-146.6,347z"/>
		<g>
			<path class="st60" d="M-179,372.4c0,0-2.6-5.6-9.2,0c0,0,2.7,2.3,2,4.3s-5.3,14.7,4.9,17.3"/>
			<path class="st60" d="M-179.7,374.9c0,0-3.4-2.1-4.9,1.4s-3,12.1,3,14.3"/>
		</g>
		<g>
			<path class="st60" d="M-108.9,372.4c0,0,2.6-5.6,9.2,0c0,0-2.7,2.3-2,4.3c0.7,2,5.3,14.7-4.9,17.3"/>
			<path class="st60" d="M-108.3,374.9c0,0,3.4-2.1,4.9,1.4s3,12.1-3,14.3"/>
		</g>
		<path class="st60" d="M-144,373.7c0,0-3.6-11.1-13.9-11.1s-17.8,11.6-19.4,22.2c-1.6,10.6,5.5,35.5,33.3,35.5s34.9-25.8,33.1-36.9
			s-10-20.1-20.1-20.1S-144,373.7-144,373.7z"/>
		<path class="st60" d="M-177.5,375.4c0,0,6.6-1.6,15.1-1.2s14.5,2.4,18.4,2.4c3.9,0,12.2-2.3,19.1-2.5c6.9-0.2,14.4,1.2,14.4,1.2
			l1,3.9c0,0-2.8,1.4-3.2,5.1s-2.4,13.2-14.8,13.2s-13.4-13.2-13.4-13.2s-0.2-3-2.6-3c-2.4,0-3.1,1.6-3.1,3.5s-4,12.8-13.9,12.8
			c-9.9,0-14.1-9.3-14.6-14.3s-2.9-5.5-2.9-5.5L-177.5,375.4z"/>
		<path class="st60" d="M-173,379.5c0,0-0.4-2,4-2.9c4.4-0.9,18.1-2.2,20,4.2c1.9,6.4-3.3,15.5-12,15.1
			C-169.7,395.5-172.8,388.3-173,379.5z"/>
		<path class="st60" d="M-114.4,379.5c0,0,0.4-2-4-2.9s-18.1-2.2-20,4.2s3.3,15.5,12,15.1S-114.7,388.3-114.4,379.5z"/>
		<g>
			<circle class="st60" cx="-158.1" cy="385" r="5.8"/>
			<circle class="st60" cx="-156.8" cy="387.2" r="2.9"/>
			<circle class="st60" cx="-160.5" cy="382.4" r="1.3"/>
		</g>
		<g>
			<circle class="st60" cx="-129.1" cy="385" r="5.8"/>
			<circle class="st60" cx="-130.5" cy="387.2" r="2.9"/>
			<circle class="st60" cx="-126.8" cy="382.4" r="1.3"/>
		</g>
		<path class="st61" d="M-146.1,399c0,0-2.2-2.3-0.5-3.7C-144.9,394-146.1,399-146.1,399z"/>
		<path class="st61" d="M-143.4,399c0,0,2.2-2.3,0.5-3.7S-143.4,399-143.4,399z"/>
		<g>
			<path class="st14" d="M-144,408.3c-12.1,0-18.7-3.6-18.9-3.8c-1-0.6-1.4-1.9-0.8-2.9s1.9-1.4,2.9-0.8c0.1,0,6,3.2,16.9,3.2
				s17.1-3.2,17.2-3.2c1-0.6,2.3-0.2,2.9,0.9c0.6,1,0.2,2.3-0.9,2.9C-125.1,404.7-131.9,408.3-144,408.3z"/>
		</g>
	</g>
</g>
<text transform="matrix(1 0 0 1 96.4059 154.5775)" class="st3 st4 st27">http://www.kidbright.io</text>
<text transform="matrix(1 0 0 1 147.3985 147.4844)" class="st3 st4 st38">V1.5 Rev.3.1</text>
<polyline class="st62" points="179.4,89.6 180.8,91.3 189.2,91.3 "/>
</svg>
