<?xml version="1.0" encoding="utf-8"?>
<!-- Generator: Adobe Illustrator 24.3.0, SVG Export Plug-In . SVG Version: 6.00 Build 0)  -->
<svg version="1.1" id="Layer_1" xmlns="http://www.w3.org/2000/svg" xmlns:xlink="http://www.w3.org/1999/xlink" x="0px" y="0px"
	 viewBox="0 0 100 122" style="enable-background:new 0 0 100 122;" xml:space="preserve">
<style type="text/css">
	.st0{fill:#3B0D3E;}
	.st1{fill:#C6C4C3;}
	.st2{fill:#FFFFFF;}
	.st3{fill:#DEB37F;}
	.st4{fill:none;stroke:#FFFFFF;stroke-width:0.3175;stroke-miterlimit:10;}
	.st5{fill:none;stroke:#FFFFFF;stroke-width:0.4443;stroke-miterlimit:10;}
	.st6{fill:#484748;}
	.st7{fill:none;stroke:#FFFFFF;stroke-width:0.2485;stroke-miterlimit:10;}
	.st8{fill:#BE934B;}
	.st9{fill:#E4E4EB;}
	.st10{fill:#29292B;}
	.st11{fill:#5D5756;}
	.st12{fill:#4D4C4D;}
	.st13{fill:#C3C3C3;}
	.st14{fill:#3D3C3A;}
	.st15{fill:#F3C026;}
	.st16{fill:#B6B6B7;}
	.st17{fill:#FFFFFF;stroke:#B6B6B7;stroke-width:9.939643e-02;stroke-miterlimit:10;}
	.st18{fill:#C6C5C4;}
	.st19{fill:#ECEBF0;}
	.st20{fill:#282827;}
	.st21{fill:#5BAE66;}
	.st22{fill:#76C17C;}
	.st23{clip-path:url(#SVGID_2_);}
	.st24{fill:#BABABA;}
	.st25{clip-path:url(#SVGID_4_);}
	.st26{clip-path:url(#SVGID_6_);}
	.st27{clip-path:url(#SVGID_8_);}
	.st28{clip-path:url(#SVGID_10_);}
	.st29{clip-path:url(#SVGID_12_);}
	.st30{fill:none;stroke:#3F4040;stroke-width:9.939643e-02;stroke-miterlimit:10;}
	.st31{fill:#302F2F;}
	.st32{fill:#FDC26B;}
	.st33{fill:#FDD29B;}
	.st34{font-family:'Arial-BoldMT';}
	.st35{font-size:3.9759px;}
	.st36{font-size:4.4728px;}
</style>
<g>
	<path class="st0" d="M92,0.2H8c-4.4,0-8,3.6-8,8v105.8c0,4.4,3.6,8,8,8H92c4.4,0,8-3.6,8-8V8.1C100,3.7,96.4,0.2,92,0.2z
		 M7.1,118.8c-2.3,0-4.1-1.9-4.1-4.1c0-2.3,1.9-4.1,4.1-4.1s4.1,1.9,4.1,4.1C11.3,116.9,9.4,118.8,7.1,118.8z M7.1,11.7
		C4.8,11.7,3,9.9,3,7.6s1.9-4.1,4.1-4.1s4.1,1.9,4.1,4.1S9.4,11.7,7.1,11.7z M93.1,3.4c2.3,0,4.1,1.9,4.1,4.1s-1.9,4.1-4.1,4.1
		c-2.3,0-4.1-1.9-4.1-4.1S90.8,3.4,93.1,3.4z M93.1,118.8c-2.3,0-4.1-1.9-4.1-4.1c0-2.3,1.9-4.1,4.1-4.1c2.3,0,4.1,1.9,4.1,4.1
		C97.2,116.9,95.4,118.8,93.1,118.8z"/>
	<path class="st1" d="M72.5,58.9H57.4c-0.5,0-1-0.4-1-1V44.4c0-0.5,0.4-1,1-1h15.1c0.5,0,1,0.4,1,1v13.4
		C73.5,58.4,73,58.9,72.5,58.9z"/>
	<g>
		<g>
			<rect x="37.5" y="78.6" class="st1" width="2.4" height="3.4"/>
		</g>
		<g>
			<rect x="43.6" y="78.6" class="st1" width="2.4" height="3.4"/>
		</g>
		<g>
			<rect x="39" y="79" class="st2" width="0.9" height="2.7"/>
			<rect x="43.5" y="79" class="st2" width="0.9" height="2.7"/>
			<rect x="39.9" y="79" class="st3" width="3.6" height="2.7"/>
		</g>
		<line class="st4" x1="40.8" y1="78.6" x2="42.7" y2="78.6"/>
		<line class="st4" x1="40.8" y1="82.2" x2="42.7" y2="82.2"/>
	</g>
	<g>
		<g>
			<rect x="57.7" y="61.6" class="st1" width="3.4" height="4.8"/>
		</g>
		<g>
			<rect x="66.2" y="61.6" class="st1" width="3.4" height="4.8"/>
		</g>
		<g>
			<rect x="59.8" y="62.2" class="st2" width="1.2" height="3.7"/>
			<rect x="66" y="62.2" class="st2" width="1.2" height="3.7"/>
			<rect x="61" y="62.2" class="st3" width="5" height="3.7"/>
		</g>
		<line class="st5" x1="62.3" y1="61.6" x2="65" y2="61.6"/>
		<line class="st5" x1="62.3" y1="66.6" x2="65" y2="66.6"/>
	</g>
	<g>
		<g>
			<rect x="50.8" y="76.8" class="st1" width="3.4" height="2.4"/>
		</g>
		<g>
			<rect x="50.8" y="82.9" class="st1" width="3.4" height="2.4"/>
		</g>
		<g>
			<rect x="51.2" y="78.3" class="st2" width="2.7" height="0.9"/>
			<rect x="51.2" y="82.7" class="st2" width="2.7" height="0.9"/>
			<rect x="51.2" y="79.2" class="st3" width="2.7" height="3.6"/>
		</g>
		<line class="st4" x1="54.2" y1="80.1" x2="54.2" y2="82"/>
		<line class="st4" x1="50.7" y1="80.1" x2="50.7" y2="82"/>
	</g>
	<g>
		<g>
			<rect x="67.1" y="27.7" class="st1" width="1.9" height="2.7"/>
		</g>
		<g>
			<rect x="71.8" y="27.7" class="st1" width="1.9" height="2.7"/>
		</g>
		<g>
			<rect x="68.3" y="28" class="st2" width="0.7" height="2.1"/>
			<rect x="71.7" y="28" class="st2" width="0.7" height="2.1"/>
			<rect x="69" y="28" class="st6" width="2.8" height="2.1"/>
		</g>
		<line class="st7" x1="69.7" y1="27.7" x2="71.1" y2="27.7"/>
		<line class="st7" x1="69.7" y1="30.4" x2="71.1" y2="30.4"/>
	</g>
	<g>
		<g>
			<rect x="58" y="13.3" class="st1" width="1.9" height="2.7"/>
		</g>
		<g>
			<rect x="62.8" y="13.3" class="st1" width="1.9" height="2.7"/>
		</g>
		<g>
			<rect x="59.2" y="13.6" class="st2" width="0.7" height="2.1"/>
			<rect x="62.7" y="13.6" class="st2" width="0.7" height="2.1"/>
			<rect x="59.9" y="13.6" class="st6" width="2.8" height="2.1"/>
		</g>
		<line class="st7" x1="60.6" y1="13.3" x2="62.1" y2="13.3"/>
		<line class="st7" x1="60.6" y1="16.1" x2="62.1" y2="16.1"/>
	</g>
	<g>
		<g>
			<rect x="58" y="18.4" class="st1" width="1.9" height="2.7"/>
		</g>
		<g>
			<rect x="62.8" y="18.4" class="st1" width="1.9" height="2.7"/>
		</g>
		<g>
			<rect x="59.2" y="18.6" class="st2" width="0.7" height="2.1"/>
			<rect x="62.7" y="18.6" class="st2" width="0.7" height="2.1"/>
			<rect x="59.9" y="18.6" class="st6" width="2.8" height="2.1"/>
		</g>
		<line class="st7" x1="60.6" y1="18.4" x2="62.1" y2="18.4"/>
		<line class="st7" x1="60.6" y1="21.1" x2="62.1" y2="21.1"/>
	</g>
	<g>
		<g>
			<rect x="48.7" y="18.4" class="st1" width="1.9" height="2.7"/>
		</g>
		<g>
			<rect x="53.4" y="18.4" class="st1" width="1.9" height="2.7"/>
		</g>
		<g>
			<rect x="49.8" y="18.6" class="st2" width="0.7" height="2.1"/>
			<rect x="53.3" y="18.6" class="st2" width="0.7" height="2.1"/>
			<rect x="50.5" y="18.6" class="st6" width="2.8" height="2.1"/>
		</g>
		<line class="st7" x1="51.2" y1="18.4" x2="52.7" y2="18.4"/>
		<line class="st7" x1="51.2" y1="21.1" x2="52.7" y2="21.1"/>
	</g>
	<g>
		<g>
			<rect x="48.7" y="13.3" class="st1" width="1.9" height="2.7"/>
		</g>
		<g>
			<rect x="53.4" y="13.3" class="st1" width="1.9" height="2.7"/>
		</g>
		<g>
			<rect x="49.8" y="13.6" class="st2" width="0.7" height="2.1"/>
			<rect x="53.3" y="13.6" class="st2" width="0.7" height="2.1"/>
			<rect x="50.5" y="13.6" class="st6" width="2.8" height="2.1"/>
		</g>
		<line class="st7" x1="51.2" y1="13.3" x2="52.7" y2="13.3"/>
		<line class="st7" x1="51.2" y1="16.1" x2="52.7" y2="16.1"/>
	</g>
	<g>
		<g>
			<rect x="26.5" y="2.2" class="st1" width="2.7" height="1.9"/>
		</g>
		<g>
			<rect x="26.5" y="7" class="st1" width="2.7" height="1.9"/>
		</g>
		<g>
			<rect x="26.8" y="3.4" class="st2" width="2.1" height="0.7"/>
			<rect x="26.8" y="6.9" class="st2" width="2.1" height="0.7"/>
			<rect x="26.8" y="4.1" class="st6" width="2.1" height="2.8"/>
		</g>
		<line class="st7" x1="29.2" y1="4.8" x2="29.2" y2="6.3"/>
		<line class="st7" x1="26.4" y1="4.8" x2="26.4" y2="6.3"/>
	</g>
	<g>
		<g>
			<rect x="34.3" y="13.6" class="st1" width="2.7" height="1.9"/>
		</g>
		<g>
			<rect x="34.3" y="18.4" class="st1" width="2.7" height="1.9"/>
		</g>
		<g>
			<rect x="34.6" y="14.8" class="st2" width="2.1" height="0.7"/>
			<rect x="34.6" y="18.3" class="st2" width="2.1" height="0.7"/>
			<rect x="34.6" y="15.5" class="st6" width="2.1" height="2.8"/>
		</g>
		<line class="st7" x1="37" y1="16.2" x2="37" y2="17.7"/>
		<line class="st7" x1="34.2" y1="16.2" x2="34.2" y2="17.7"/>
	</g>
	<g>
		<g>
			<rect x="81.2" y="28" class="st1" width="2.7" height="1.9"/>
		</g>
		<g>
			<rect x="81.2" y="32.7" class="st1" width="2.7" height="1.9"/>
		</g>
		<g>
			<rect x="81.5" y="29.2" class="st2" width="2.1" height="0.7"/>
			<rect x="81.5" y="32.6" class="st2" width="2.1" height="0.7"/>
			<rect x="81.5" y="29.8" class="st6" width="2.1" height="2.8"/>
		</g>
		<line class="st7" x1="83.9" y1="30.5" x2="83.9" y2="32"/>
		<line class="st7" x1="81.1" y1="30.5" x2="81.1" y2="32"/>
	</g>
	<g>
		<g>
			<rect x="71.1" y="33.3" class="st1" width="2.7" height="1.9"/>
		</g>
		<g>
			<rect x="71.1" y="38.1" class="st1" width="2.7" height="1.9"/>
		</g>
		<g>
			<rect x="71.4" y="34.5" class="st2" width="2.1" height="0.7"/>
			<rect x="71.4" y="38" class="st2" width="2.1" height="0.7"/>
			<rect x="71.4" y="35.2" class="st6" width="2.1" height="2.8"/>
		</g>
		<line class="st7" x1="73.8" y1="35.9" x2="73.8" y2="37.4"/>
		<line class="st7" x1="71" y1="35.9" x2="71" y2="37.4"/>
	</g>
	<g>
		<g>
			<rect x="58" y="27.7" class="st1" width="1.9" height="2.7"/>
		</g>
		<g>
			<rect x="62.8" y="27.7" class="st1" width="1.9" height="2.7"/>
		</g>
		<g>
			<rect x="59.2" y="28" class="st2" width="0.7" height="2.1"/>
			<rect x="62.7" y="28" class="st2" width="0.7" height="2.1"/>
			<rect x="59.9" y="28" class="st3" width="2.8" height="2.1"/>
		</g>
		<line class="st7" x1="60.6" y1="27.7" x2="62.1" y2="27.7"/>
		<line class="st7" x1="60.6" y1="30.4" x2="62.1" y2="30.4"/>
	</g>
	<g>
		<line class="st7" x1="61.1" y1="40.6" x2="66.1" y2="40.6"/>
		<line class="st7" x1="59.1" y1="31.6" x2="66.1" y2="31.6"/>
		<g>
			<rect x="58.9" y="38" class="st8" width="2.7" height="2.1"/>
			<rect x="59.1" y="38.3" class="st9" width="2.3" height="1.6"/>
		</g>
		<g>
			<rect x="58.9" y="35.3" class="st8" width="2.7" height="2.1"/>
			<rect x="59.1" y="35.6" class="st9" width="2.3" height="1.6"/>
		</g>
		<g>
			<rect x="58.9" y="32.6" class="st8" width="2.7" height="2.1"/>
			<rect x="59.1" y="32.9" class="st9" width="2.3" height="1.6"/>
		</g>
		<g>
			<rect x="65.4" y="38" class="st8" width="2.7" height="2.1"/>
			<rect x="65.7" y="38.3" class="st9" width="2.3" height="1.6"/>
		</g>
		<g>
			<rect x="65.4" y="32.6" class="st8" width="2.7" height="2.1"/>
			<rect x="65.7" y="32.9" class="st9" width="2.3" height="1.6"/>
		</g>
		<g>
			<rect x="65.4" y="35.4" class="st8" width="2.7" height="2.1"/>
			<rect x="65.7" y="35.7" class="st9" width="2.3" height="1.6"/>
		</g>
		<g id="_x3C_Group_x3E__IC_2_">
			<rect x="60.2" y="38.3" class="st2" width="1.1" height="1.5"/>
			<rect x="60.1" y="35.6" class="st2" width="1.1" height="1.5"/>
			<rect x="60.1" y="32.9" class="st2" width="1.1" height="1.5"/>
			<rect x="65.5" y="38.3" class="st2" width="1.1" height="1.5"/>
			<rect x="65.5" y="33" class="st2" width="1.1" height="1.5"/>
			<rect x="65.5" y="35.7" class="st2" width="1.1" height="1.5"/>
			<g>
				<rect x="61" y="32.3" class="st10" width="4.8" height="8.2"/>
				<rect x="61.2" y="32.5" class="st11" width="4.4" height="7.7"/>
			</g>
		</g>
	</g>
	<g>
		<g>
			<rect x="86.5" y="35" class="st1" width="3.6" height="1.5"/>
		</g>
		<g>
			<rect x="86.5" y="26.1" class="st1" width="3.6" height="1.5"/>
		</g>
		<g>
			<g>
				<rect x="86" y="27.6" class="st12" width="4.5" height="7.5"/>
				<rect x="86" y="28.5" class="st13" width="4.5" height="1.2"/>
			</g>
			<rect x="87" y="27.1" class="st2" width="2.5" height="0.4"/>
			<rect x="87" y="35" class="st2" width="2.5" height="0.4"/>
		</g>
	</g>
	<g>
		<g>
			<rect x="69" y="69.9" class="st1" width="2.2" height="5.2"/>
		</g>
		<g>
			<rect x="56" y="69.9" class="st1" width="2.2" height="5.2"/>
		</g>
		<g>
			<g>
				<rect x="58.2" y="69.3" class="st12" width="10.9" height="6.5"/>
			</g>
			<rect x="57.6" y="70.8" class="st2" width="0.6" height="3.6"/>
			<rect x="69" y="70.8" class="st2" width="0.6" height="3.6"/>
		</g>
	</g>
	<g>
		<g>
			<rect x="46.6" y="84.8" class="st1" width="1.5" height="3.6"/>
		</g>
		<g>
			<rect x="37.6" y="84.8" class="st1" width="1.5" height="3.6"/>
		</g>
		<g>
			<g>
				<rect x="39.1" y="84.3" class="st12" width="7.5" height="4.5"/>
				<rect x="40.1" y="84.3" class="st13" width="1.2" height="4.5"/>
			</g>
			<rect x="38.7" y="85.4" class="st2" width="0.4" height="2.5"/>
			<rect x="46.6" y="85.4" class="st2" width="0.4" height="2.5"/>
		</g>
	</g>
	<g>
		<g>
			<rect x="86.4" y="85.3" class="st1" width="3.6" height="1.5"/>
		</g>
		<g>
			<rect x="86.4" y="94.3" class="st1" width="3.6" height="1.5"/>
		</g>
		<g>
			<g>
				<rect x="86" y="86.8" class="st12" width="4.5" height="7.5"/>
				<rect x="86" y="92.1" class="st13" width="4.5" height="1.2"/>
			</g>
			<rect x="87" y="94.3" class="st2" width="2.5" height="0.4"/>
			<rect x="87" y="86.4" class="st2" width="2.5" height="0.4"/>
		</g>
	</g>
	<g>
		<g>
			<rect x="93.5" y="85.3" class="st1" width="3.6" height="1.5"/>
		</g>
		<g>
			<rect x="93.5" y="94.3" class="st1" width="3.6" height="1.5"/>
		</g>
		<g>
			<g>
				<rect x="93.1" y="86.8" class="st12" width="4.5" height="7.5"/>
				<rect x="93.1" y="92.1" class="st13" width="4.5" height="1.2"/>
			</g>
			<rect x="94.2" y="94.3" class="st2" width="2.5" height="0.4"/>
			<rect x="94.2" y="86.4" class="st2" width="2.5" height="0.4"/>
		</g>
	</g>
	<g>
		<g>
			<rect x="93.5" y="35" class="st1" width="3.6" height="1.5"/>
		</g>
		<g>
			<rect x="93.5" y="26.1" class="st1" width="3.6" height="1.5"/>
		</g>
		<g>
			<g>
				<rect x="93.1" y="27.6" class="st12" width="4.5" height="7.5"/>
				<rect x="93.1" y="28.5" class="st13" width="4.5" height="1.2"/>
			</g>
			<rect x="94.1" y="27.1" class="st2" width="2.5" height="0.4"/>
			<rect x="94.1" y="35" class="st2" width="2.5" height="0.4"/>
		</g>
	</g>
	<g>
		<g>
			<rect x="44" y="13.7" class="st1" width="2.8" height="2"/>
		</g>
		<g>
			<rect x="44" y="18.6" class="st1" width="2.8" height="2"/>
		</g>
		<g>
			<rect x="38.9" y="16" class="st1" width="2.8" height="2"/>
		</g>
		<rect x="41.1" y="13" class="st14" width="3.8" height="8.2"/>
		<rect x="44.9" y="14.2" class="st2" width="0.9" height="0.9"/>
		<rect x="44.9" y="19.2" class="st2" width="0.9" height="0.9"/>
		<rect x="40.2" y="16.6" class="st2" width="0.9" height="0.9"/>
	</g>
	<g>
		<g>
			<rect x="66.5" y="18.6" class="st1" width="2.8" height="2"/>
		</g>
		<g>
			<rect x="66.5" y="13.6" class="st1" width="2.8" height="2"/>
		</g>
		<g>
			<rect x="71.5" y="16.2" class="st1" width="2.8" height="2"/>
		</g>
		<rect x="68.4" y="13" class="st14" width="3.8" height="8.2"/>
		<rect x="67.5" y="19.1" class="st2" width="0.9" height="0.9"/>
		<rect x="67.5" y="14.1" class="st2" width="0.9" height="0.9"/>
		<rect x="72.2" y="16.7" class="st2" width="0.9" height="0.9"/>
	</g>
	<g>
		<g>
			<rect x="58.1" y="101" class="st1" width="1.9" height="2.7"/>
		</g>
		<g>
			<rect x="62.9" y="101" class="st1" width="1.9" height="2.7"/>
		</g>
		<g>
			<rect x="59.3" y="101.3" class="st2" width="0.7" height="2.1"/>
			<rect x="62.8" y="101.3" class="st2" width="0.7" height="2.1"/>
			<rect x="60" y="101.3" class="st6" width="2.8" height="2.1"/>
		</g>
		<line class="st7" x1="60.7" y1="101" x2="62.2" y2="101"/>
		<line class="st7" x1="60.7" y1="103.8" x2="62.2" y2="103.8"/>
	</g>
	<g>
		<g>
			<rect x="58.1" y="106.1" class="st1" width="1.9" height="2.7"/>
		</g>
		<g>
			<rect x="62.9" y="106.1" class="st1" width="1.9" height="2.7"/>
		</g>
		<g>
			<rect x="59.3" y="106.4" class="st2" width="0.7" height="2.1"/>
			<rect x="62.8" y="106.4" class="st2" width="0.7" height="2.1"/>
			<rect x="60" y="106.4" class="st6" width="2.8" height="2.1"/>
		</g>
		<line class="st7" x1="60.7" y1="106.1" x2="62.2" y2="106.1"/>
		<line class="st7" x1="60.7" y1="108.8" x2="62.2" y2="108.8"/>
	</g>
	<g>
		<g>
			<rect x="48.7" y="106.1" class="st1" width="1.9" height="2.7"/>
		</g>
		<g>
			<rect x="53.5" y="106.1" class="st1" width="1.9" height="2.7"/>
		</g>
		<g>
			<rect x="49.9" y="106.4" class="st2" width="0.7" height="2.1"/>
			<rect x="53.4" y="106.4" class="st2" width="0.7" height="2.1"/>
			<rect x="50.6" y="106.4" class="st6" width="2.8" height="2.1"/>
		</g>
		<line class="st7" x1="51.3" y1="106.1" x2="52.8" y2="106.1"/>
		<line class="st7" x1="51.3" y1="108.8" x2="52.8" y2="108.8"/>
	</g>
	<g>
		<g>
			<rect x="48.7" y="101" class="st1" width="1.9" height="2.7"/>
		</g>
		<g>
			<rect x="53.5" y="101" class="st1" width="1.9" height="2.7"/>
		</g>
		<g>
			<rect x="49.9" y="101.3" class="st2" width="0.7" height="2.1"/>
			<rect x="53.4" y="101.3" class="st2" width="0.7" height="2.1"/>
			<rect x="50.6" y="101.3" class="st6" width="2.8" height="2.1"/>
		</g>
		<line class="st7" x1="51.3" y1="101" x2="52.8" y2="101"/>
		<line class="st7" x1="51.3" y1="103.8" x2="52.8" y2="103.8"/>
	</g>
	<g>
		<g>
			<rect x="34.4" y="101.3" class="st1" width="2.7" height="1.9"/>
		</g>
		<g>
			<rect x="34.4" y="106.1" class="st1" width="2.7" height="1.9"/>
		</g>
		<g>
			<rect x="34.7" y="102.5" class="st2" width="2.1" height="0.7"/>
			<rect x="34.7" y="106" class="st2" width="2.1" height="0.7"/>
			<rect x="34.7" y="103.2" class="st6" width="2.1" height="2.8"/>
		</g>
		<line class="st7" x1="37.1" y1="103.9" x2="37.1" y2="105.4"/>
		<line class="st7" x1="34.3" y1="103.9" x2="34.3" y2="105.4"/>
	</g>
	<g>
		<g>
			<rect x="26.5" y="113.1" class="st1" width="2.7" height="1.9"/>
		</g>
		<g>
			<rect x="26.5" y="117.8" class="st1" width="2.7" height="1.9"/>
		</g>
		<g>
			<rect x="26.8" y="114.3" class="st2" width="2.1" height="0.7"/>
			<rect x="26.8" y="117.7" class="st2" width="2.1" height="0.7"/>
			<rect x="26.8" y="115" class="st6" width="2.1" height="2.8"/>
		</g>
		<line class="st7" x1="29.1" y1="115.7" x2="29.1" y2="117.2"/>
		<line class="st7" x1="26.4" y1="115.7" x2="26.4" y2="117.2"/>
	</g>
	<g>
		<g>
			<rect x="76.8" y="101.3" class="st1" width="2.7" height="1.9"/>
		</g>
		<g>
			<rect x="76.8" y="106.1" class="st1" width="2.7" height="1.9"/>
		</g>
		<g>
			<rect x="77.1" y="102.5" class="st2" width="2.1" height="0.7"/>
			<rect x="77.1" y="106" class="st2" width="2.1" height="0.7"/>
			<rect x="77.1" y="103.2" class="st6" width="2.1" height="2.8"/>
		</g>
		<line class="st7" x1="79.5" y1="103.9" x2="79.5" y2="105.4"/>
		<line class="st7" x1="76.7" y1="103.9" x2="76.7" y2="105.4"/>
	</g>
	<g>
		<g>
			<rect x="94" y="98.5" class="st1" width="2.7" height="1.9"/>
		</g>
		<g>
			<rect x="94" y="103.3" class="st1" width="2.7" height="1.9"/>
		</g>
		<g>
			<rect x="94.3" y="99.7" class="st2" width="2.1" height="0.7"/>
			<rect x="94.3" y="103.2" class="st2" width="2.1" height="0.7"/>
			<rect x="94.3" y="100.4" class="st6" width="2.1" height="2.8"/>
		</g>
		<line class="st7" x1="96.7" y1="101.1" x2="96.7" y2="102.6"/>
		<line class="st7" x1="93.9" y1="101.1" x2="93.9" y2="102.6"/>
	</g>
	<g>
		<g>
			<rect x="44.1" y="101.4" class="st1" width="2.8" height="2"/>
		</g>
		<g>
			<rect x="44.1" y="106.3" class="st1" width="2.8" height="2"/>
		</g>
		<g>
			<rect x="39" y="103.8" class="st1" width="2.8" height="2"/>
		</g>
		<rect x="41.2" y="100.7" class="st14" width="3.8" height="8.2"/>
		<rect x="45" y="101.9" class="st2" width="0.9" height="0.9"/>
		<rect x="45" y="106.9" class="st2" width="0.9" height="0.9"/>
		<rect x="40.3" y="104.3" class="st2" width="0.9" height="0.9"/>
	</g>
	<g>
		<g>
			<rect x="66.6" y="106.3" class="st1" width="2.8" height="2"/>
		</g>
		<g>
			<rect x="66.6" y="101.3" class="st1" width="2.8" height="2"/>
		</g>
		<g>
			<rect x="71.6" y="103.9" class="st1" width="2.8" height="2"/>
		</g>
		<rect x="68.5" y="100.7" class="st14" width="3.8" height="8.2"/>
		<rect x="67.6" y="106.9" class="st2" width="0.9" height="0.9"/>
		<rect x="67.6" y="101.8" class="st2" width="0.9" height="0.9"/>
		<rect x="72.2" y="104.4" class="st2" width="0.9" height="0.9"/>
	</g>
	<g>
		<g>
			<rect x="47.2" y="91.6" class="st1" width="2.8" height="2"/>
		</g>
		<g>
			<rect x="47.2" y="96.5" class="st1" width="2.8" height="2"/>
		</g>
		<g>
			<rect x="42.1" y="93.9" class="st1" width="2.8" height="2"/>
		</g>
		<rect x="44.3" y="90.9" class="st14" width="3.8" height="8.2"/>
		<rect x="48" y="92.1" class="st2" width="0.9" height="0.9"/>
		<rect x="48" y="97.1" class="st2" width="0.9" height="0.9"/>
		<rect x="43.4" y="94.5" class="st2" width="0.9" height="0.9"/>
	</g>
	<g>
		<g>
			<rect x="16" y="10.3" class="st1" width="2" height="2.9"/>
		</g>
		<g>
			<rect x="20.6" y="10.3" class="st1" width="2" height="2.9"/>
		</g>
		<g>
			<rect x="17.9" y="10.7" class="st2" width="2.8" height="2.1"/>
			<rect x="16.9" y="10.7" class="st15" width="1" height="2.1"/>
			<rect x="20.7" y="10.7" class="st15" width="1" height="2.1"/>
		</g>
	</g>
	<g>
		<g>
			<rect x="16" y="1.9" class="st1" width="2" height="2.9"/>
		</g>
		<g>
			<rect x="20.6" y="1.9" class="st1" width="2" height="2.9"/>
		</g>
		<g>
			<rect x="17.9" y="2.3" class="st2" width="2.8" height="2.1"/>
			<rect x="16.9" y="2.3" class="st15" width="1" height="2.1"/>
			<rect x="20.7" y="2.3" class="st15" width="1" height="2.1"/>
		</g>
	</g>
	<g>
		<g>
			<rect x="16" y="117.4" class="st1" width="2" height="2.9"/>
		</g>
		<g>
			<rect x="20.6" y="117.4" class="st1" width="2" height="2.9"/>
		</g>
		<g>
			<rect x="17.9" y="117.8" class="st2" width="2.8" height="2.1"/>
			<rect x="16.9" y="117.8" class="st15" width="1" height="2.1"/>
			<rect x="20.7" y="117.8" class="st15" width="1" height="2.1"/>
		</g>
	</g>
	<g>
		<g>
			<rect x="16" y="109" class="st1" width="2" height="2.9"/>
		</g>
		<g>
			<rect x="20.6" y="109" class="st1" width="2" height="2.9"/>
		</g>
		<g>
			<rect x="17.9" y="109.4" class="st2" width="2.8" height="2.1"/>
			<rect x="16.9" y="109.4" class="st15" width="1" height="2.1"/>
			<rect x="20.7" y="109.4" class="st15" width="1" height="2.1"/>
		</g>
	</g>
	<g>
		<g>
			<rect x="86.8" y="98.5" class="st1" width="2.9" height="2"/>
		</g>
		<g>
			<rect x="86.8" y="103.1" class="st1" width="2.9" height="2"/>
		</g>
		<g>
			<rect x="87.2" y="100.4" class="st2" width="2.1" height="2.8"/>
			<rect x="87.2" y="99.4" class="st15" width="2.1" height="1"/>
			<rect x="87.2" y="103.2" class="st15" width="2.1" height="1"/>
		</g>
	</g>
	<g>
		<g>
			<rect x="50.5" y="2.4" class="st1" width="2.8" height="2"/>
		</g>
		<rect x="51.4" y="2.9" class="st2" width="0.9" height="0.9"/>
		<g>
			<rect x="50.5" y="8.5" class="st1" width="2.8" height="2"/>
		</g>
		<rect x="51.4" y="9" class="st2" width="0.9" height="0.9"/>
		<g>
			<rect x="38.2" y="8.5" class="st1" width="2.8" height="2"/>
		</g>
		<rect x="39.1" y="9" class="st2" width="0.9" height="0.9"/>
		<g>
			<rect x="38.1" y="2.4" class="st1" width="2.8" height="2"/>
		</g>
		<rect x="39" y="2.9" class="st2" width="0.9" height="0.9"/>
		<rect x="39.9" y="1.7" class="st16" width="11.6" height="9.3"/>
		<polygon class="st2" points="39.9,1.8 39.9,4 42.2,1.7 		"/>
		<polygon class="st2" points="51.6,1.7 49.3,1.7 51.6,4 		"/>
		<polygon class="st2" points="39.9,11.1 42.2,11.1 39.9,8.8 		"/>
		<polygon class="st2" points="51.6,11 51.6,8.8 49.3,11.1 		"/>
		<path class="st17" d="M47.7,3.4L47.7,3.4C47.7,3.4,47.6,3.4,47.7,3.4c-0.3,0-2.6,0-3.8,0c0,0,0,0,0,0v0c-1.2,0-2.1,1.4-2.1,2.3
			c0,1,0,0.9,0,1.6c0,0.7,1.2,2,2.1,2v0c0,0,0,0,0,0c0.9,0,3.4,0,3.7,0c0,0,0,0,0,0v0c0.9,0,2.1-1.4,2.1-2c0-0.7,0-0.6,0-1.6
			C49.8,4.8,48.9,3.5,47.7,3.4z"/>
		<path class="st17" d="M47.6,3.6L47.6,3.6C47.6,3.6,47.5,3.6,47.6,3.6c-0.3,0-2.4,0-3.5,0c0,0,0,0,0,0v0c-1.2,0-2,1.3-2,2.2
			c0,0.9,0,0.8,0,1.5c0,0.6,1.1,1.9,2,1.9v0c0,0,0,0,0,0c0.8,0,3.2,0,3.5,0c0,0,0,0,0,0v0c0.9,0,2-1.3,2-1.9c0-0.6,0-0.6,0-1.5
			C49.6,4.9,48.7,3.7,47.6,3.6z"/>
	</g>
	<g>
		<g>
			<rect x="79.1" y="2.4" class="st1" width="2.8" height="2"/>
		</g>
		<rect x="80" y="2.9" class="st2" width="0.9" height="0.9"/>
		<g>
			<rect x="79.1" y="8.5" class="st1" width="2.8" height="2"/>
		</g>
		<rect x="80" y="9" class="st2" width="0.9" height="0.9"/>
		<g>
			<rect x="66.7" y="8.5" class="st1" width="2.8" height="2"/>
		</g>
		<rect x="67.6" y="9" class="st2" width="0.9" height="0.9"/>
		<g>
			<rect x="66.7" y="2.4" class="st1" width="2.8" height="2"/>
		</g>
		<rect x="67.6" y="2.9" class="st2" width="0.9" height="0.9"/>
		<rect x="68.5" y="1.7" class="st16" width="11.6" height="9.3"/>
		<polygon class="st2" points="68.5,1.8 68.5,4 70.8,1.7 		"/>
		<polygon class="st2" points="80.2,1.7 77.9,1.7 80.2,4 		"/>
		<polygon class="st2" points="68.5,11.1 70.8,11.1 68.5,8.8 		"/>
		<polygon class="st2" points="80.2,11 80.2,8.8 77.9,11.1 		"/>
		<path class="st17" d="M76.2,3.4L76.2,3.4C76.2,3.4,76.2,3.4,76.2,3.4c-0.3,0-2.6,0-3.8,0c0,0,0,0,0,0v0c-1.2,0-2.1,1.4-2.1,2.3
			c0,1,0,0.9,0,1.6c0,0.7,1.2,2,2.1,2v0c0,0,0,0,0,0c0.9,0,3.4,0,3.7,0c0,0,0,0,0,0v0c0.9,0,2.1-1.4,2.1-2c0-0.7,0-0.6,0-1.6
			C78.4,4.8,77.5,3.5,76.2,3.4z"/>
		<path class="st17" d="M76.1,3.6L76.1,3.6C76.1,3.6,76.1,3.6,76.1,3.6c-0.3,0-2.4,0-3.5,0c0,0,0,0,0,0v0c-1.2,0-2,1.3-2,2.2
			c0,0.9,0,0.8,0,1.5c0,0.6,1.1,1.9,2,1.9v0c0,0,0,0,0,0c0.8,0,3.2,0,3.5,0c0,0,0,0,0,0v0c0.9,0,2-1.3,2-1.9c0-0.6,0-0.6,0-1.5
			C78.2,4.9,77.3,3.7,76.1,3.6z"/>
	</g>
	<g>
		<g>
			<rect x="50.5" y="111.7" class="st1" width="2.8" height="2"/>
		</g>
		<rect x="51.4" y="112.2" class="st2" width="0.9" height="0.9"/>
		<g>
			<rect x="50.5" y="117.8" class="st1" width="2.8" height="2"/>
		</g>
		<rect x="51.4" y="118.3" class="st2" width="0.9" height="0.9"/>
		<g>
			<rect x="38.2" y="117.8" class="st1" width="2.8" height="2"/>
		</g>
		<rect x="39.1" y="118.3" class="st2" width="0.9" height="0.9"/>
		<g>
			<rect x="38.1" y="111.7" class="st1" width="2.8" height="2"/>
		</g>
		<rect x="39" y="112.2" class="st2" width="0.9" height="0.9"/>
		<rect x="39.9" y="111" class="st16" width="11.6" height="9.3"/>
		<polygon class="st2" points="39.9,111 39.9,113.3 42.2,111 		"/>
		<polygon class="st2" points="51.6,111 49.3,111 51.6,113.3 		"/>
		<polygon class="st2" points="39.9,120.3 42.2,120.3 39.9,118 		"/>
		<polygon class="st2" points="51.6,120.3 51.6,118 49.3,120.3 		"/>
		<path class="st17" d="M47.7,112.7L47.7,112.7C47.7,112.7,47.6,112.7,47.7,112.7c-0.3,0-2.6,0-3.8,0c0,0,0,0,0,0v0
			c-1.2,0-2.1,1.4-2.1,2.3c0,1,0,0.9,0,1.6c0,0.7,1.2,2,2.1,2v0c0,0,0,0,0,0c0.9,0,3.4,0,3.7,0c0,0,0,0,0,0v0c0.9,0,2.1-1.4,2.1-2
			c0-0.7,0-0.6,0-1.6C49.8,114.1,48.9,112.7,47.7,112.7z"/>
		<path class="st17" d="M47.6,112.9L47.6,112.9C47.6,112.9,47.5,112.9,47.6,112.9c-0.3,0-2.4,0-3.5,0c0,0,0,0,0,0v0
			c-1.2,0-2,1.3-2,2.2c0,0.9,0,0.8,0,1.5c0,0.6,1.1,1.9,2,1.9v0c0,0,0,0,0,0c0.8,0,3.2,0,3.5,0c0,0,0,0,0,0v0c0.9,0,2-1.3,2-1.9
			c0-0.6,0-0.6,0-1.5C49.6,114.2,48.7,112.9,47.6,112.9z"/>
	</g>
	<g>
		<g>
			<rect x="79.1" y="111.7" class="st1" width="2.8" height="2"/>
		</g>
		<rect x="80" y="112.2" class="st2" width="0.9" height="0.9"/>
		<g>
			<rect x="79.1" y="117.8" class="st1" width="2.8" height="2"/>
		</g>
		<rect x="80" y="118.3" class="st2" width="0.9" height="0.9"/>
		<g>
			<rect x="66.7" y="117.8" class="st1" width="2.8" height="2"/>
		</g>
		<rect x="67.6" y="118.3" class="st2" width="0.9" height="0.9"/>
		<g>
			<rect x="66.7" y="111.7" class="st1" width="2.8" height="2"/>
		</g>
		<rect x="67.6" y="112.2" class="st2" width="0.9" height="0.9"/>
		<rect x="68.5" y="111" class="st16" width="11.6" height="9.3"/>
		<polygon class="st2" points="68.5,111 68.5,113.3 70.8,111 		"/>
		<polygon class="st2" points="80.2,111 77.9,111 80.2,113.3 		"/>
		<polygon class="st2" points="68.5,120.3 70.8,120.3 68.5,118 		"/>
		<polygon class="st2" points="80.2,120.3 80.2,118 77.9,120.3 		"/>
		<path class="st17" d="M76.2,112.7L76.2,112.7C76.2,112.7,76.2,112.7,76.2,112.7c-0.3,0-2.6,0-3.8,0c0,0,0,0,0,0v0
			c-1.2,0-2.1,1.4-2.1,2.3c0,1,0,0.9,0,1.6c0,0.7,1.2,2,2.1,2v0c0,0,0,0,0,0c0.9,0,3.4,0,3.7,0c0,0,0,0,0,0v0c0.9,0,2.1-1.4,2.1-2
			c0-0.7,0-0.6,0-1.6C78.4,114.1,77.5,112.7,76.2,112.7z"/>
		<path class="st17" d="M76.1,112.9L76.1,112.9C76.1,112.9,76.1,112.9,76.1,112.9c-0.3,0-2.4,0-3.5,0c0,0,0,0,0,0v0
			c-1.2,0-2,1.3-2,2.2c0,0.9,0,0.8,0,1.5c0,0.6,1.1,1.9,2,1.9v0c0,0,0,0,0,0c0.8,0,3.2,0,3.5,0c0,0,0,0,0,0v0c0.9,0,2-1.3,2-1.9
			c0-0.6,0-0.6,0-1.5C78.2,114.2,77.3,112.9,76.1,112.9z"/>
	</g>
	<g>
		<polygon class="st14" points="34.2,26.9 34.2,45 50.8,45 52.3,43.4 52.3,28.4 50.8,26.9 		"/>
		<g>
			<rect x="32.7" y="33.4" class="st1" width="21.4" height="5.2"/>
		</g>
		<g>
			<g>
				<path class="st18" d="M34.3,36c0-4.9,3.9-8.8,8.8-8.8S52,31.1,52,36s-3.9,8.8-8.7,8.8S34.3,40.8,34.3,36z M51.8,36
					c0-4.7-3.9-8.6-8.6-8.6s-8.6,3.9-8.6,8.6s3.9,8.6,8.6,8.6S51.8,40.7,51.8,36z"/>
			</g>
			<g>
				<g>
					<path class="st19" d="M43.2,44.6c4.8,0,8.7-3.9,8.7-8.7s-3.9-8.7-8.7-8.7c-1.4,0-2.7,0.3-3.9,0.9v15.8
						C40.6,44.4,41.9,44.6,43.2,44.6z"/>
				</g>
				<g>
					<path class="st20" d="M34.5,36c0,3.4,2,6.4,4.9,7.8V28.1C36.5,29.5,34.5,32.4,34.5,36z"/>
				</g>
			</g>
		</g>
	</g>
	<g>
		<g>
			<rect x="1.9" y="46.5" class="st21" width="23" height="28.2"/>
		</g>
		<g>
			<rect x="7.1" y="46.5" class="st22" width="12.2" height="28.2"/>
		</g>
		<g>
			<g>
				<defs>
					<circle id="SVGID_1_" cx="13.8" cy="54.8" r="3.8"/>
				</defs>
				<clipPath id="SVGID_2_">
					<use xlink:href="#SVGID_1_"  style="overflow:visible;"/>
				</clipPath>
				<g class="st23">
					<g>
						<circle class="st19" cx="13.8" cy="54.8" r="3.8"/>
					</g>
					<g>
						
							<rect x="9.2" y="53.5" transform="matrix(0.7071 -0.7071 0.7071 0.7071 -34.6871 25.8049)" class="st24" width="9.2" height="2.5"/>
					</g>
				</g>
			</g>
		</g>
		<g>
			<g>
				<defs>
					<circle id="SVGID_3_" cx="13.8" cy="66.9" r="3.8"/>
				</defs>
				<clipPath id="SVGID_4_">
					<use xlink:href="#SVGID_3_"  style="overflow:visible;"/>
				</clipPath>
				<g class="st25">
					<g>
						<circle class="st19" cx="13.8" cy="66.9" r="3.8"/>
					</g>
					<g>
						
							<rect x="9.2" y="65.6" transform="matrix(0.7071 -0.7071 0.7071 0.7071 -43.2278 29.3457)" class="st24" width="9.2" height="2.5"/>
					</g>
				</g>
			</g>
		</g>
	</g>
	<g>
		<g>
			<rect x="1.9" y="18.3" class="st20" width="23" height="28.2"/>
		</g>
		<g>
			<rect x="7.1" y="18.3" class="st14" width="12.2" height="28.2"/>
		</g>
		<g>
			<g>
				<defs>
					<circle id="SVGID_5_" cx="13.8" cy="26.6" r="3.8"/>
				</defs>
				<clipPath id="SVGID_6_">
					<use xlink:href="#SVGID_5_"  style="overflow:visible;"/>
				</clipPath>
				<g class="st26">
					<g>
						<circle class="st19" cx="13.8" cy="26.6" r="3.8"/>
					</g>
					<g>
						
							<rect x="9.2" y="25.3" transform="matrix(0.7071 -0.7071 0.7071 0.7071 -14.7278 17.5375)" class="st24" width="9.2" height="2.5"/>
					</g>
				</g>
			</g>
		</g>
		<g>
			<g>
				<defs>
					<circle id="SVGID_7_" cx="13.8" cy="38.7" r="3.8"/>
				</defs>
				<clipPath id="SVGID_8_">
					<use xlink:href="#SVGID_7_"  style="overflow:visible;"/>
				</clipPath>
				<g class="st27">
					<g>
						<circle class="st19" cx="13.8" cy="38.7" r="3.8"/>
					</g>
					<g>
						
							<rect x="9.2" y="37.4" transform="matrix(0.7071 -0.7071 0.7071 0.7071 -23.2684 21.0783)" class="st24" width="9.2" height="2.5"/>
					</g>
				</g>
			</g>
		</g>
	</g>
	<g>
		<g>
			<rect x="1.9" y="74.7" class="st20" width="23" height="28.2"/>
		</g>
		<g>
			<rect x="7.1" y="74.7" class="st14" width="12.2" height="28.2"/>
		</g>
		<g>
			<g>
				<defs>
					<circle id="SVGID_9_" cx="13.8" cy="83" r="3.8"/>
				</defs>
				<clipPath id="SVGID_10_">
					<use xlink:href="#SVGID_9_"  style="overflow:visible;"/>
				</clipPath>
				<g class="st28">
					<g>
						<circle class="st19" cx="13.8" cy="83" r="3.8"/>
					</g>
					<g>
						
							<rect x="9.2" y="81.7" transform="matrix(0.7071 -0.7071 0.7071 0.7071 -54.5938 34.0506)" class="st24" width="9.2" height="2.5"/>
					</g>
				</g>
			</g>
		</g>
		<g>
			<g>
				<defs>
					<circle id="SVGID_11_" cx="13.8" cy="95" r="3.8"/>
				</defs>
				<clipPath id="SVGID_12_">
					<use xlink:href="#SVGID_11_"  style="overflow:visible;"/>
				</clipPath>
				<g class="st29">
					<g>
						<circle class="st19" cx="13.8" cy="95" r="3.8"/>
					</g>
					<g>
						
							<rect x="9.2" y="93.8" transform="matrix(0.7071 -0.7071 0.7071 0.7071 -63.1344 37.5914)" class="st24" width="9.2" height="2.5"/>
					</g>
				</g>
			</g>
		</g>
	</g>
	<g>
		<rect x="36.5" y="47.5" class="st10" width="10.7" height="27.3"/>
		<rect x="36.7" y="47.6" class="st11" width="10.4" height="26.9"/>
	</g>
	<rect x="47.2" y="47.9" class="st9" width="2.3" height="1.6"/>
	<rect x="47.2" y="47.9" class="st2" width="1.1" height="1.5"/>
	<rect x="47.2" y="51.4" class="st9" width="2.3" height="1.6"/>
	<rect x="47.2" y="51.5" class="st2" width="1.1" height="1.5"/>
	<rect x="47.2" y="55" class="st9" width="2.3" height="1.6"/>
	<rect x="47.2" y="55" class="st2" width="1.1" height="1.5"/>
	<rect x="47.2" y="58.6" class="st9" width="2.3" height="1.6"/>
	<rect x="47.2" y="58.6" class="st2" width="1.1" height="1.5"/>
	<rect x="47.2" y="62.2" class="st9" width="2.3" height="1.6"/>
	<rect x="47.2" y="62.2" class="st2" width="1.1" height="1.5"/>
	<rect x="47.2" y="65.8" class="st9" width="2.3" height="1.6"/>
	<rect x="47.2" y="65.8" class="st2" width="1.1" height="1.5"/>
	<rect x="47.2" y="69.4" class="st9" width="2.3" height="1.6"/>
	<rect x="47.2" y="69.4" class="st2" width="1.1" height="1.5"/>
	<rect x="47.2" y="73" class="st9" width="2.3" height="1.6"/>
	<rect x="47.2" y="73.1" class="st2" width="1.1" height="1.5"/>
	<rect x="34.2" y="47.9" class="st9" width="2.3" height="1.6"/>
	<rect x="35.4" y="47.9" class="st2" width="1.1" height="1.5"/>
	<rect x="34.2" y="51.4" class="st9" width="2.3" height="1.6"/>
	<rect x="35.4" y="51.5" class="st2" width="1.1" height="1.5"/>
	<rect x="34.2" y="55" class="st9" width="2.3" height="1.6"/>
	<rect x="35.4" y="55" class="st2" width="1.1" height="1.5"/>
	<rect x="34.2" y="58.6" class="st9" width="2.3" height="1.6"/>
	<rect x="35.4" y="58.6" class="st2" width="1.1" height="1.5"/>
	<rect x="34.2" y="62.2" class="st9" width="2.3" height="1.6"/>
	<rect x="35.4" y="62.2" class="st2" width="1.1" height="1.5"/>
	<rect x="34.2" y="65.8" class="st9" width="2.3" height="1.6"/>
	<rect x="35.4" y="65.8" class="st2" width="1.1" height="1.5"/>
	<rect x="34.2" y="69.4" class="st9" width="2.3" height="1.6"/>
	<rect x="35.4" y="69.4" class="st2" width="1.1" height="1.5"/>
	<rect x="34.2" y="73" class="st9" width="2.3" height="1.6"/>
	<rect x="35.4" y="73.1" class="st2" width="1.1" height="1.5"/>
	<g>
		<path class="st11" d="M72,59.1H57.9c-0.5,0-1-0.4-1-1V44.1c0-0.5,0.4-1,1-1H72c0.5,0,1,0.4,1,1v14.1C73,58.7,72.5,59.1,72,59.1z"
			/>
		<circle class="st30" cx="65" cy="51.1" r="8"/>
	</g>
	<path class="st1" d="M72.5,93.8H57.4c-0.5,0-1-0.4-1-1V79.4c0-0.5,0.4-1,1-1h15.1c0.5,0,1,0.4,1,1v13.4
		C73.5,93.4,73,93.8,72.5,93.8z"/>
	<g>
		<path class="st11" d="M72,94.1H57.9c-0.5,0-1-0.4-1-1V79c0-0.5,0.4-1,1-1H72c0.5,0,1,0.4,1,1v14.1C73,93.7,72.5,94.1,72,94.1z"/>
		<circle class="st30" cx="65" cy="86.1" r="8"/>
	</g>
	<g>
		<path class="st31" d="M93.6,46.6h-5c-0.4-0.4-0.6-0.6-1.1-1.1v-5c0.4-0.4,0.6-0.6,1.1-1.1h5c0.4,0.4,0.6,0.6,1.1,1.1v5
			C94.2,46,94,46.2,93.6,46.6z"/>
		<g>
			<rect x="90.2" y="42.2" class="st8" width="1.7" height="1.7"/>
			<polygon class="st32" points="91.1,43.1 90.2,43.9 91.9,43.9 			"/>
			<polygon class="st33" points="90.2,42.2 91.1,43.1 90.2,43.9 			"/>
			<polygon class="st32" points="91.9,42.2 91.1,43.1 90.2,42.2 			"/>
		</g>
	</g>
	<g>
		<path class="st31" d="M93.6,53.8h-5c-0.4-0.4-0.6-0.6-1.1-1.1v-5c0.4-0.4,0.6-0.6,1.1-1.1h5c0.4,0.4,0.6,0.6,1.1,1.1v5
			C94.2,53.1,94,53.4,93.6,53.8z"/>
		<g>
			<rect x="90.2" y="49.4" class="st8" width="1.7" height="1.7"/>
			<polygon class="st32" points="91.1,50.2 90.2,51.1 91.9,51.1 			"/>
			<polygon class="st33" points="90.2,49.4 91.1,50.2 90.2,51.1 			"/>
			<polygon class="st32" points="91.9,49.4 91.1,50.2 90.2,49.4 			"/>
		</g>
	</g>
	<g>
		<path class="st31" d="M93.6,61h-5c-0.4-0.4-0.6-0.6-1.1-1.1v-5c0.4-0.4,0.6-0.6,1.1-1.1h5c0.4,0.4,0.6,0.6,1.1,1.1v5
			C94.2,60.3,94,60.5,93.6,61z"/>
		<g>
			<rect x="90.2" y="56.5" class="st8" width="1.7" height="1.7"/>
			<polygon class="st32" points="91.1,57.4 90.2,58.2 91.9,58.2 			"/>
			<polygon class="st33" points="90.2,56.5 91.1,57.4 90.2,58.2 			"/>
			<polygon class="st32" points="91.9,56.5 91.1,57.4 90.2,56.5 			"/>
		</g>
	</g>
	<g>
		<path class="st31" d="M93.6,68.1h-5c-0.4-0.4-0.6-0.6-1.1-1.1v-5c0.4-0.4,0.6-0.6,1.1-1.1h5c0.4,0.4,0.6,0.6,1.1,1.1v5
			C94.2,67.5,94,67.7,93.6,68.1z"/>
		<g>
			<rect x="90.2" y="63.7" class="st8" width="1.7" height="1.7"/>
			<polygon class="st32" points="91.1,64.5 90.2,65.4 91.9,65.4 			"/>
			<polygon class="st33" points="90.2,63.7 91.1,64.5 90.2,65.4 			"/>
			<polygon class="st32" points="91.9,63.7 91.1,64.5 90.2,63.7 			"/>
		</g>
	</g>
	<g>
		<path class="st31" d="M93.6,75.3h-5c-0.4-0.4-0.6-0.6-1.1-1.1v-5c0.4-0.4,0.6-0.6,1.1-1.1h5c0.4,0.4,0.6,0.6,1.1,1.1v5
			C94.2,74.6,94,74.8,93.6,75.3z"/>
		<g>
			<rect x="90.2" y="70.8" class="st8" width="1.7" height="1.7"/>
			<polygon class="st32" points="91.1,71.7 90.2,72.6 91.9,72.6 			"/>
			<polygon class="st33" points="90.2,70.8 91.1,71.7 90.2,72.6 			"/>
			<polygon class="st32" points="91.9,70.8 91.1,71.7 90.2,70.8 			"/>
		</g>
	</g>
	<g>
		<path class="st31" d="M93.6,82.4h-5c-0.4-0.4-0.6-0.6-1.1-1.1v-5c0.4-0.4,0.6-0.6,1.1-1.1h5c0.4,0.4,0.6,0.6,1.1,1.1v5
			C94.2,81.8,94,82,93.6,82.4z"/>
		<g>
			<rect x="90.2" y="78" class="st8" width="1.7" height="1.7"/>
			<polygon class="st32" points="91.1,78.9 90.2,79.7 91.9,79.7 			"/>
			<polygon class="st33" points="90.2,78 91.1,78.9 90.2,79.7 			"/>
			<polygon class="st32" points="91.9,78 91.1,78.9 90.2,78 			"/>
		</g>
	</g>
	<polygon class="st32" points="87.5,43.9 84.6,43.9 84.2,43.4 84.2,42.8 84.6,42.3 87.5,42.3 	"/>
	<polygon class="st32" points="94.7,49.4 97.5,49.4 97.9,49.9 97.9,50.5 97.5,51 94.7,51 	"/>
	<polygon class="st32" points="94.7,63.7 97.5,63.7 97.9,64.3 97.9,64.8 97.5,65.3 94.7,65.3 	"/>
	<polygon class="st32" points="94.7,78.1 97.5,78.1 97.9,78.6 97.9,79.1 97.5,79.6 94.7,79.6 	"/>
	<polygon class="st32" points="87.5,58.2 84.6,58.2 84.2,57.7 84.2,57.1 84.6,56.6 87.5,56.6 	"/>
	<polygon class="st32" points="87.5,72.5 84.6,72.5 84.2,72 84.2,71.4 84.6,70.9 87.5,70.9 	"/>
	<text transform="matrix(1 0 0 1 15.0669 8.7627)" class="st2 st34 st35">M1A</text>
	<text transform="matrix(0 1 -1 0 26.3618 20.5898)" class="st2 st34 st36">M1A</text>
	<text transform="matrix(0 1 -1 0 26.3618 34.7177)" class="st2 st34 st36">M1B</text>
	<text transform="matrix(0 1 -1 0 26.3618 49.3593)" class="st2 st34 st36">VB+</text>
	<text transform="matrix(0 1 -1 0 26.3618 63.6714)" class="st2 st34 st36">VB-</text>
	<text transform="matrix(0 1 -1 0 26.3618 78.0307)" class="st2 st34 st36">M2A</text>
	<text transform="matrix(1 0 0 1 15.0669 107.7983)" class="st2 st34 st35">M2A</text>
	<text transform="matrix(0 -1 1 0 36.4448 119.8374)" class="st2 st34 st35">M2A</text>
	<text transform="matrix(0 -1 1 0 65.4199 119.8374)" class="st2 st34 st35">M2B</text>
	<text transform="matrix(0 -1 1 0 36.4448 10.6601)" class="st2 st34 st35">M1A</text>
	<text transform="matrix(1 0 0 1 74.3105 44.7822)" class="st2 st34 st35">M1A</text>
	<text transform="matrix(1 0 0 1 74.3105 52.2031)" class="st2 st34 st35">M1B</text>
	<text transform="matrix(1 0 0 1 74.3105 58.8847)" class="st2 st34 st35">5VO</text>
	<text transform="matrix(1 0 0 1 74.3105 65.8823)" class="st2 st34 st35">GND</text>
	<text transform="matrix(1 0 0 1 74.3105 73.0874)" class="st2 st34 st35">M2A</text>
	<text transform="matrix(1 0 0 1 74.3105 80.3217)" class="st2 st34 st35">M2B</text>
	<text transform="matrix(0 -1 1 0 65.4199 10.6601)" class="st2 st34 st35">M1B</text>
	<text transform="matrix(0 -1 1 0 85.873 106.6811)" class="st2 st34 st35">PWR</text>
	<text transform="matrix(1 0 0 1 15.0669 116.4038)" class="st2 st34 st35">M2B</text>
	<text transform="matrix(0 1 -1 0 26.3618 91.5757)" class="st2 st34 st36">M2B</text>
	<text transform="matrix(1 0 0 1 15.0669 17.1045)" class="st2 st34 st35">M1B</text>
</g>
</svg>
