<?xml version="1.0" encoding="utf-8"?>
<!-- Generator: Adobe Illustrator 24.3.0, SVG Export Plug-In . SVG Version: 6.00 Build 0)  -->
<svg version="1.1" id="Layer_1" xmlns="http://www.w3.org/2000/svg" xmlns:xlink="http://www.w3.org/1999/xlink" x="0px" y="0px"
	 viewBox="0 0 56.8 65.6" style="enable-background:new 0 0 56.8 65.6;" xml:space="preserve">
<style type="text/css">
	.st0{fill:#274A88;}
	.st1{fill:#EDEDF2;}
	.st2{fill:#FFFFFF;}
	.st3{fill:none;stroke:#000000;stroke-width:0.1721;stroke-miterlimit:19.5312;}
	.st4{fill:#DDDDDC;}
	.st5{fill:#C9B55E;}
	.st6{fill:none;stroke:#FFFFFF;stroke-width:0.5;stroke-linecap:round;stroke-miterlimit:10;}
	.st7{fill:#274A88;stroke:#FFFFFF;stroke-width:0.5;stroke-miterlimit:10;}
	.st8{fill:none;stroke:#0049FF;stroke-linecap:round;stroke-miterlimit:10;}
	.st9{fill:none;stroke:#FF0000;stroke-linecap:round;stroke-miterlimit:10;}
	.st10{fill:#B7B4B2;}
	.st11{fill:#242221;}
	.st12{font-family:'ArialMT';}
	.st13{font-size:3px;}
</style>
<path class="st0" d="M56.8,28.3V6.7c0-1.3-1-2.3-2.3-2.3H32.8c0-2.4-2-4.4-4.4-4.4c-2.5,0-4.5,2-4.5,4.5H2.3C1,4.5,0,5.5,0,6.7v21.6
	c2.5,0,4.5,2,4.5,4.5s-2,4.5-4.5,4.5v21.6c0,1.3,1,2.3,2.3,2.3h21.6c0,2.5,2,4.5,4.5,4.5s4.5-2,4.5-4.5h21.6c1.3,0,2.3-1,2.3-2.3
	V37.3c-2.5,0-4.5-2-4.5-4.5S54.3,28.3,56.8,28.3z M10.7,28.1c-0.7,0-1.2-0.5-1.2-1.2c0-0.7,0.5-1.2,1.2-1.2s1.2,0.5,1.2,1.2
	C11.9,27.6,11.4,28.1,10.7,28.1z M10.7,23.8c-0.7,0-1.2-0.5-1.2-1.2s0.5-1.2,1.2-1.2s1.2,0.5,1.2,1.2S11.4,23.8,10.7,23.8z
	 M28.4,63.8c-1.4,0-2.6-1.2-2.6-2.6c0-1.4,1.1-2.6,2.6-2.6c1.4,0,2.6,1.1,2.6,2.6C31,62.7,29.8,63.8,28.4,63.8z M28.4,7.1
	c-1.4,0-2.6-1.2-2.6-2.6c0-1.4,1.1-2.6,2.6-2.6c1.4,0,2.6,1.2,2.6,2.6C31,5.9,29.8,7.1,28.4,7.1z"/>
<g id="XMLID_98_">
	<g id="g3109_1_" transform="matrix(0 1.2499976 -1.2499976 0 1338.60444 1003.15358)">
		<g id="g33658-1_1_" transform="translate(-1.6000031,0)">
			<path id="path16826-7_1_" class="st1" d="M-765.9,1059.5v-3.6h1.2v2.4h7.2v-3.9h1.2v1.3h1.8v3.8L-765.9,1059.5L-765.9,1059.5z"/>
			<path id="path16828-7_1_" class="st1" d="M-765.9,1040.5v-3.6h11.4v3.8h-1.8v1.3h-1.2v-3.9h-7.2v2.4L-765.9,1040.5L-765.9,1040.5
				z"/>
			<path id="path16832-7_1_" class="st2" d="M-765.9,1040.5h1.2v15.4h-1.2V1040.5z"/>
			<path id="path16834-3_1_" class="st2" d="M-756.3,1052.2v2.2h-1.2V1042h1.2v2.2V1052.2L-756.3,1052.2z"/>
			<path id="path16836-3_1_" class="st1" d="M-754.4,1052.1h-1.9v-7.8h1.9V1052.1z"/>
			<path id="path22220-2_4_" class="st3" d="M-765.9,1055.9"/>
			<path id="path22220-2_3_" class="st3" d="M-765.9,1040.5"/>
			<path id="path22246-8_4_" class="st3" d="M-757.5,1038.2"/>
			<path id="path22246-8_3_" class="st3" d="M-764.7,1038.2"/>
			<path id="path22248-0_4_" class="st3" d="M-764.7,1038.2"/>
			<path id="path22248-0_3_" class="st3" d="M-764.7,1040.5"/>
			<path id="path22250-1_4_" class="st3" d="M-764.7,1040.5"/>
			<path id="path22250-1_3_" class="st3" d="M-765.9,1040.5"/>
			<path id="path22252-2_4_" class="st3" d="M-765.9,1036.9"/>
			<path id="path22252-2_3_" class="st3" d="M-765.9,1040.5"/>
			<path id="path22276-4_4_" class="st3" d="M-754.5,1040.7"/>
			<path id="path22276-4_3_" class="st3" d="M-754.5,1036.9"/>
			<path id="path29510-1_4_" class="st3" d="M-754.5,1036.9"/>
			<path id="path29510-1_3_" class="st3" d="M-765.9,1036.9"/>
			<rect x="-773.7" y="1043.7" class="st4" width="25.2" height="9"/>
		</g>
		<path id="connector3pin_1_" class="st5" d="M-762.1,1054.4v1.1h-1.1v-1.1H-762.1z"/>
		<path id="connector2pin_1_" class="st5" d="M-763.3,1051v-1.1h1.1v1.1H-763.3z"/>
		<path id="connector1pin_1_" class="st5" d="M-762.1,1046.5h-1.1v-1.1h1.1V1046.5z"/>
		<path id="connector0pin_1_" class="st5" d="M-762.1,1042h-1.1v-1.1h1.1V1042z"/>
	</g>
</g>
<g>
	<rect x="13.9" y="15" class="st6" width="8.5" height="19.7"/>
	<circle class="st7" cx="36.1" cy="24.8" r="16.8"/>
	<path class="st8" d="M20.6,24.1c0,0-6.7,0.7-9.9-1.6"/>
	<line class="st9" x1="20.6" y1="26.9" x2="10.7" y2="26.9"/>
	<circle class="st10" cx="36.1" cy="24.8" r="15.5"/>
	<circle class="st11" cx="36.1" cy="24.8" r="14.8"/>
</g>
<text transform="matrix(1 0 0 1 13.6561 13.8113)" class="st2 st12 st13">M1</text>
</svg>
