<?xml version="1.0" encoding="utf-8"?>
<!-- Generator: Adobe Illustrator 23.0.1, SVG Export Plug-In . SVG Version: 6.00 Build 0)  -->
<svg version="1.1" id="Layer_1" xmlns="http://www.w3.org/2000/svg" xmlns:xlink="http://www.w3.org/1999/xlink" x="0px" y="0px"
	 viewBox="0 0 39.7 143.6" style="enable-background:new 0 0 39.7 143.6;" xml:space="preserve">
<style type="text/css">
	.st0{fill:#1D2856;}
	.st1{fill:#FFFFFF;}
	.st2{fill:#BE9349;}
	.st3{fill:#E5E5EC;}
	.st4{fill:#4677BA;}
	.st5{fill:#2E5F9C;}
	.st6{fill:#BDBFCB;}
	.st7{fill:#58585B;}
	.st8{fill:#29292B;}
	.st9{fill:#ADADAD;}
	.st10{fill:#FDC26B;}
	.st11{fill:#35215B;}
	.st12{fill:#1F1239;}
	.st13{fill:#EDECEE;}
	.st14{opacity:0.3;}
	.st15{fill:#3F4040;}
	.st16{fill:#231F20;}
	.st17{fill:#FDE500;}
	.st18{fill:#EA2227;}
	.st19{fill:none;stroke:#FFFFFF;stroke-miterlimit:10;}
	.st20{fill:#302F2F;}
	.st21{fill:#1D1D1D;}
	.st22{fill:#C0944C;}
	.st23{fill:#FFD39B;}
	.st24{enable-background:new    ;}
</style>
<path class="st0" d="M0,20.8v91.7h39.7V20.8H0z M20.2,94.5c-2.5,0-4.6-2-4.6-4.6s2-4.6,4.6-4.6s4.6,2,4.6,4.6S22.7,94.5,20.2,94.5z"
	/>
<g>
	<path class="st1" d="M12.9,29.3v-7.4h15v7.4H12.9z M13.2,22.2V29h14.4v-6.8H13.2z"/>
</g>
<g>
	<g>
		<path class="st1" d="M29.9,39v-3.5c0-1.9,1.6-3.5,3.5-3.5s3.5,1.6,3.5,3.5V39h-0.3v-3.5c0-1.7-1.4-3.1-3.1-3.1s-3.1,1.4-3.1,3.1
			V39H29.9z"/>
	</g>
	<g>
		<path class="st1" d="M29.9,44.3v-3.5h0.3v3.5c0,1.7,1.4,3.1,3.1,3.1s3.1-1.4,3.1-3.1v-3.5h0.3v3.5c0,1.9-1.6,3.5-3.5,3.5
			S29.9,46.3,29.9,44.3z"/>
	</g>
</g>
<g>
	<g>
		<path class="st1" d="M21.2,39v-3.5c0-1.9,1.6-3.5,3.5-3.5s3.5,1.6,3.5,3.5V39h-0.3v-3.5c0-1.7-1.4-3.1-3.1-3.1s-3.1,1.4-3.1,3.1
			V39H21.2z"/>
	</g>
	<g>
		<path class="st1" d="M21.2,44.3v-3.5h0.3v3.5c0,1.7,1.4,3.1,3.1,3.1s3.1-1.4,3.1-3.1v-3.5h0.3v3.5c0,1.9-1.6,3.5-3.5,3.5
			S21.2,46.3,21.2,44.3z"/>
	</g>
</g>
<g>
	<g>
		<polygon class="st1" points="12.9,39 12.9,32 19.8,32 19.8,39 19.5,39 19.5,32.3 13.2,32.3 13.2,39 		"/>
	</g>
	<g>
		<polygon class="st1" points="12.9,47.8 12.9,40.8 13.2,40.8 13.2,47.5 19.5,47.5 19.5,40.8 19.8,40.8 19.8,47.8 		"/>
	</g>
</g>
<g>
	<g>
		<polygon class="st1" points="10.5,81.3 10.5,81 16.4,81 16.4,74.7 10.5,74.7 10.5,74.3 16.7,74.3 16.7,81.3 		"/>
	</g>
	<g>
		<polygon class="st1" points="2.7,81.3 2.7,74.3 8.9,74.3 8.9,74.7 3.1,74.7 3.1,81 8.9,81 8.9,81.3 		"/>
	</g>
</g>
<g>
	<g>
		<polygon class="st1" points="32.3,81.3 32.3,81 38.1,81 38.1,74.7 32.3,74.7 32.3,74.3 38.4,74.3 38.4,81.3 		"/>
	</g>
	<g>
		<polygon class="st1" points="24.5,81.3 24.5,74.3 30.6,74.3 30.6,74.7 24.8,74.7 24.8,81 30.6,81 30.6,81.3 		"/>
	</g>
</g>
<g>
	<g>
		<polygon class="st1" points="4.5,39 4.5,32 11.5,32 11.5,39 11.2,39 11.2,32.3 4.9,32.3 4.9,39 		"/>
	</g>
	<g>
		<polygon class="st1" points="4.5,47.8 4.5,40.8 4.9,40.8 4.9,47.5 11.2,47.5 11.2,40.8 11.5,40.8 11.5,47.8 		"/>
	</g>
</g>
<g>
	<path class="st1" d="M30.3,24.4v2.1h-0.5v-2.1H30.3z M29,25.2h2.1v0.5H29V25.2z"/>
</g>
<g>
	<path class="st1" d="M9.2,25.2h1.7v0.5H9.2V25.2z"/>
</g>
<g>
	<path class="st1" d="M18.8,72.1V50.2h20.8v21.9H18.8z M19.1,50.5v21.3h20.2V50.5H19.1z"/>
</g>
<g>
	<g>
		
			<rect x="13.3" y="50.9" transform="matrix(-1 -1.224647e-16 1.224647e-16 -1 29.5963 105.5286)" class="st2" width="3" height="3.7"/>
	</g>
	<g>
		<rect x="13.7" y="51.2" class="st3" width="2.2" height="3.1"/>
	</g>
</g>
<g>
	<g>
		
			<rect x="9.8" y="50.9" transform="matrix(-1 -1.224647e-16 1.224647e-16 -1 22.6244 105.5286)" class="st2" width="3" height="3.7"/>
	</g>
	<g>
		<rect x="10.2" y="51.2" class="st3" width="2.2" height="3.1"/>
	</g>
</g>
<g>
	<g>
		
			<rect x="6.3" y="50.9" transform="matrix(-1 -1.224647e-16 1.224647e-16 -1 15.6524 105.5286)" class="st2" width="3" height="3.7"/>
	</g>
	<g>
		<rect x="6.7" y="51.2" class="st3" width="2.2" height="3.1"/>
	</g>
</g>
<g>
	<g>
		
			<rect x="2.9" y="50.9" transform="matrix(-1 -1.224647e-16 1.224647e-16 -1 8.6805 105.5286)" class="st2" width="3" height="3.7"/>
	</g>
	<g>
		<rect x="3.2" y="51.2" class="st3" width="2.2" height="3.1"/>
	</g>
</g>
<g>
	<g>
		
			<rect x="13.3" y="65.9" transform="matrix(-1 -1.224647e-16 1.224647e-16 -1 29.5963 135.538)" class="st2" width="3" height="3.7"/>
	</g>
	<g>
		<rect x="13.7" y="66.2" class="st3" width="2.2" height="3.1"/>
	</g>
</g>
<g>
	<g>
		
			<rect x="9.8" y="65.9" transform="matrix(-1 -1.224647e-16 1.224647e-16 -1 22.6244 135.538)" class="st2" width="3" height="3.7"/>
	</g>
	<g>
		<rect x="10.2" y="66.2" class="st3" width="2.2" height="3.1"/>
	</g>
</g>
<g>
	<g>
		
			<rect x="6.3" y="65.9" transform="matrix(-1 -1.224647e-16 1.224647e-16 -1 15.6524 135.538)" class="st2" width="3" height="3.7"/>
	</g>
	<g>
		<rect x="6.7" y="66.2" class="st3" width="2.2" height="3.1"/>
	</g>
</g>
<g>
	<g>
		
			<rect x="2.9" y="65.9" transform="matrix(-1 -1.224647e-16 1.224647e-16 -1 8.6805 135.538)" class="st2" width="3" height="3.7"/>
	</g>
	<g>
		<rect x="3.2" y="66.2" class="st3" width="2.2" height="3.1"/>
	</g>
</g>
<g>
	<path class="st4" d="M19.3,68.1V54c0-1.6,1.3-2.8,2.8-2.8h14.2c1.6,0,2.8,1.3,2.8,2.8v14.2c0,1.6-1.3,2.8-2.8,2.8H22.1
		C20.6,71,19.3,69.7,19.3,68.1z"/>
</g>
<g>
	<circle class="st5" cx="29.2" cy="61" r="5.4"/>
</g>
<g>
	<g>
		<path class="st6" d="M33.6,59.7c-0.4-1.5-1.6-2.6-3.1-3.1v3.1H33.6z"/>
	</g>
	<g>
		<path class="st6" d="M24.8,62.4c0.4,1.5,1.6,2.6,3.1,3.1v-3.1H24.8z"/>
	</g>
	<g>
		<path class="st6" d="M27.9,56.7c-1.5,0.4-2.6,1.6-3.1,3.1h3.1V56.7z"/>
	</g>
	<g>
		<path class="st6" d="M30.5,65.4c1.5-0.4,2.6-1.6,3.1-3.1h-3.1V65.4z"/>
	</g>
	<g>
		<path class="st7" d="M30.5,65.4v-3.1h3.1c0.1-0.4,0.2-0.9,0.2-1.3c0-0.5-0.1-0.9-0.2-1.3h-3.1v-3.1c-0.4-0.1-0.9-0.2-1.3-0.2
			c-0.5,0-0.9,0.1-1.3,0.2v3.1h-3.1c-0.1,0.4-0.2,0.9-0.2,1.3c0,0.5,0.1,0.9,0.2,1.3h3.1v3.1c0.4,0.1,0.9,0.2,1.3,0.2
			C29.7,65.6,30.1,65.6,30.5,65.4z"/>
	</g>
</g>
<g id="_x3C_Group_x3E__Capacitor_74_">
	<g>
		
			<rect x="15.1" y="33.4" transform="matrix(-1.836970e-16 1 -1 -1.836970e-16 52.1828 19.5383)" class="st1" width="2.4" height="4.9"/>
	</g>
	<g>
		
			<rect x="15.1" y="41.4" transform="matrix(-1.836970e-16 1 -1 -1.836970e-16 60.2002 27.5557)" class="st1" width="2.4" height="4.9"/>
	</g>
	<g>
		
			<rect x="13.5" y="37.4" transform="matrix(-1.836970e-16 1 -1 -1.836970e-16 56.1915 23.547)" class="st8" width="5.6" height="4.9"/>
	</g>
</g>
<g id="_x3C_Group_x3E__Capacitor_3_">
	<g>
		
			<rect x="6.8" y="33.4" transform="matrix(-1.836970e-16 1 -1 -1.836970e-16 43.917 27.8042)" class="st1" width="2.4" height="4.9"/>
	</g>
	<g>
		
			<rect x="6.8" y="41.4" transform="matrix(-1.836970e-16 1 -1 -1.836970e-16 51.9343 35.8216)" class="st1" width="2.4" height="4.9"/>
	</g>
	<g>
		
			<rect x="5.3" y="37.4" transform="matrix(-1.836970e-16 1 -1 -1.836970e-16 47.9256 31.8129)" class="st8" width="5.6" height="4.9"/>
	</g>
</g>
<g id="_x3C_Group_x3E__Capacitor_4_">
	<g>
		
			<rect x="34.2" y="75.3" transform="matrix(-1 -1.224647e-16 1.224647e-16 -1 70.8924 155.6079)" class="st1" width="2.4" height="4.9"/>
	</g>
	<g>
		
			<rect x="26.2" y="75.3" transform="matrix(-1 -1.224647e-16 1.224647e-16 -1 54.8577 155.6079)" class="st1" width="2.4" height="4.9"/>
	</g>
	<g>
		
			<rect x="28.6" y="75.3" transform="matrix(-1 -1.224647e-16 1.224647e-16 -1 62.8751 155.6079)" class="st8" width="5.6" height="4.9"/>
	</g>
</g>
<g id="_x3C_Group_x3E__Capacitor_5_">
	<g>
		
			<rect x="12.3" y="75.3" transform="matrix(-1 -1.224647e-16 1.224647e-16 -1 27.0732 155.6079)" class="st1" width="2.4" height="4.9"/>
	</g>
	<g>
		
			<rect x="4.3" y="75.3" transform="matrix(-1 -1.224647e-16 1.224647e-16 -1 11.0384 155.6079)" class="st1" width="2.4" height="4.9"/>
	</g>
	<g>
		
			<rect x="6.7" y="75.3" transform="matrix(-1 -1.224647e-16 1.224647e-16 -1 19.0558 155.6079)" class="st8" width="5.6" height="4.9"/>
	</g>
</g>
<g>
	<g>
		<g>
			<path class="st1" d="M2.8,88.7v-3c0-1.7,1.4-3,3-3c1.7,0,3,1.4,3,3v3H8.5v-3c0-1.5-1.2-2.7-2.7-2.7S3,84.1,3,85.6v3H2.8z"/>
		</g>
		<g>
			<polygon class="st1" points="2.8,96.3 2.8,90.3 3,90.3 3,96.1 8.5,96.1 8.5,90.3 8.8,90.3 8.8,96.3 			"/>
		</g>
	</g>
	<g id="_x3C_Group_x3E__Capacitor_6_">
		<g>
			
				<rect x="4.7" y="91" transform="matrix(6.123234e-17 -1 1 6.123234e-17 -87.3624 98.8889)" class="st1" width="2.1" height="4.3"/>
		</g>
		<g>
			
				<rect x="4.7" y="84" transform="matrix(6.123234e-17 -1 1 6.123234e-17 -80.402 91.9285)" class="st1" width="2.1" height="4.3"/>
		</g>
		<g>
			
				<rect x="3.3" y="87.5" transform="matrix(6.123234e-17 -1 1 6.123234e-17 -83.8822 95.4087)" class="st9" width="4.9" height="4.3"/>
		</g>
	</g>
</g>
<g>
	<g>
		<g>
			<path class="st1" d="M32.6,88.7v-3c0-1.7,1.4-3,3-3c1.7,0,3,1.4,3,3v3h-0.3v-3c0-1.5-1.2-2.7-2.7-2.7c-1.5,0-2.7,1.2-2.7,2.7v3
				H32.6z"/>
		</g>
		<g>
			<polygon class="st1" points="32.6,96.3 32.6,90.3 32.9,90.3 32.9,96.1 38.4,96.1 38.4,90.3 38.7,90.3 38.7,96.3 			"/>
		</g>
	</g>
	<g id="_x3C_Group_x3E__Capacitor_7_">
		<g>
			
				<rect x="34.6" y="91" transform="matrix(6.123234e-17 -1 1 6.123234e-17 -57.4677 128.7836)" class="st1" width="2.1" height="4.3"/>
		</g>
		<g>
			
				<rect x="34.6" y="84" transform="matrix(6.123234e-17 -1 1 6.123234e-17 -50.5073 121.8232)" class="st1" width="2.1" height="4.3"/>
		</g>
		<g>
			
				<rect x="33.2" y="87.5" transform="matrix(6.123234e-17 -1 1 6.123234e-17 -53.9875 125.3034)" class="st9" width="4.9" height="4.3"/>
		</g>
	</g>
</g>
<g id="_x3C_Group_x3E__Capacitor_1_">
	<g>
		
			<rect x="23.6" y="33.4" transform="matrix(-1.836970e-16 1 -1 -1.836970e-16 60.6964 11.0248)" class="st1" width="2.4" height="4.9"/>
	</g>
	<g>
		
			<rect x="23.6" y="41.4" transform="matrix(-1.836970e-16 1 -1 -1.836970e-16 68.7137 19.0422)" class="st1" width="2.4" height="4.9"/>
	</g>
	<g>
		
			<rect x="22" y="37.4" transform="matrix(-1.836970e-16 1 -1 -1.836970e-16 64.705 15.0335)" class="st10" width="5.6" height="4.9"/>
	</g>
</g>
<g id="_x3C_Group_x3E__Capacitor_2_">
	<g>
		
			<rect x="32.4" y="33.4" transform="matrix(-1.836970e-16 1 -1 -1.836970e-16 69.4536 2.2675)" class="st1" width="2.4" height="4.9"/>
	</g>
	<g>
		
			<rect x="32.4" y="41.4" transform="matrix(-1.836970e-16 1 -1 -1.836970e-16 77.471 10.2849)" class="st1" width="2.4" height="4.9"/>
	</g>
	<g>
		
			<rect x="30.8" y="37.4" transform="matrix(-1.836970e-16 1 -1 -1.836970e-16 73.4623 6.2762)" class="st10" width="5.6" height="4.9"/>
	</g>
</g>
<g>
	<g>
		<rect x="13.5" y="14.1" class="st11" width="13.9" height="2.5"/>
	</g>
	<g>
		<path class="st12" d="M14.2,1.8v12.3h12.6V1.8c0-1-0.8-1.8-1.8-1.8l-9,0C15,0,14.2,0.8,14.2,1.8z"/>
	</g>
	<g>
		
			<rect x="19.8" y="20.3" transform="matrix(-1.836970e-16 1 -1 -1.836970e-16 44.9434 -3.1691)" class="st13" width="8.5" height="1.2"/>
	</g>
	<g>
		
			<rect x="12.6" y="20.3" transform="matrix(-1.836970e-16 1 -1 -1.836970e-16 37.7931 3.9812)" class="st13" width="8.5" height="1.2"/>
	</g>
</g>
<g class="st14">
	<circle class="st1" cx="20.2" cy="89.9" r="6.6"/>
</g>
<g>
	<g>
		<g>
			<g>
				
					<rect x="12.6" y="53.7" transform="matrix(-1.836970e-16 1 -1 -1.836970e-16 69.434 39.8377)" class="st1" width="4.5" height="1.9"/>
			</g>
			<g>
				
					<rect x="9.1" y="53.7" transform="matrix(-1.836970e-16 1 -1 -1.836970e-16 65.948 43.3236)" class="st1" width="4.5" height="1.9"/>
			</g>
			<g>
				
					<rect x="5.6" y="53.7" transform="matrix(-1.836970e-16 1 -1 -1.836970e-16 62.462 46.8096)" class="st1" width="4.5" height="1.9"/>
			</g>
			<g>
				
					<rect x="2.1" y="53.7" transform="matrix(-1.836970e-16 1 -1 -1.836970e-16 58.9761 50.2956)" class="st1" width="4.5" height="1.9"/>
			</g>
		</g>
		<g>
			<g>
				
					<rect x="12.6" y="64.6" transform="matrix(-1.836970e-16 1 -1 -1.836970e-16 80.3297 50.7333)" class="st1" width="4.5" height="1.9"/>
			</g>
			<g>
				
					<rect x="9.1" y="64.6" transform="matrix(-1.836970e-16 1 -1 -1.836970e-16 76.8437 54.2193)" class="st1" width="4.5" height="1.9"/>
			</g>
			<g>
				
					<rect x="5.6" y="64.6" transform="matrix(-1.836970e-16 1 -1 -1.836970e-16 73.3577 57.7053)" class="st1" width="4.5" height="1.9"/>
			</g>
			<g>
				
					<rect x="2.1" y="64.6" transform="matrix(-1.836970e-16 1 -1 -1.836970e-16 69.8717 61.1913)" class="st1" width="4.5" height="1.9"/>
			</g>
		</g>
	</g>
	<g>
		<g>
			
				<rect x="4.3" y="52.7" transform="matrix(-1.836970e-16 1 -1 -1.836970e-16 69.8758 50.2915)" class="st8" width="10.9" height="14.8"/>
		</g>
		<g>
			
				<rect x="4.7" y="53" transform="matrix(-1.836970e-16 1 -1 -1.836970e-16 69.8758 50.2915)" class="st15" width="10.1" height="14.1"/>
		</g>
	</g>
</g>
<rect x="21.8" y="122.6" class="st16" width="3" height="17.2"/>
<g>
	<rect x="14.8" y="122.6" class="st1" width="3" height="13.4"/>
</g>
<g>
	<rect x="7.7" y="122.6" class="st17" width="3" height="13.4"/>
</g>
<rect x="28.8" y="122.6" class="st18" width="3" height="17.2"/>
<polyline class="st19" points="6.4,136.6 22,136.6 18.2,140.4 34.6,140.4 "/>
<polyline class="st19" points="6.4,139.9 15.3,139.9 12.1,143.1 34.6,143.1 "/>
<g>
	<rect x="22.1" y="100.4" class="st1" width="2.4" height="0.3"/>
</g>
<g>
	<rect x="22.7" y="99.3" class="st1" width="1.2" height="0.3"/>
</g>
<g>
	<path class="st1" d="M5,111.7v-8.2h29.6v8.2H5z M5.4,103.8v7.6h28.8v-7.6H5.4z"/>
</g>
<g>
	<rect x="23.1" y="101.7" class="st1" width="0.3" height="2"/>
</g>
<g>
	<rect x="21.5" y="101.5" class="st1" width="3.6" height="0.3"/>
</g>
<g>
	<g>
		<path class="st20" d="M13.8,104.3h5c0.4,0.4,0.6,0.6,1,1v5c-0.4,0.4-0.6,0.6-1,1h-5c-0.4-0.4-0.6-0.6-1-1v-5
			C13.2,104.9,13.5,104.7,13.8,104.3z"/>
		<path class="st21" d="M12.4,110.5v-5.3l1.3-1.3H19l1.3,1.3v5.3l-1.3,1.3h-5.3L12.4,110.5z M13.3,105.6v4.5l0.8,0.8h4.5l0.8-0.8
			v-4.5l-0.8-0.8h-4.5L13.3,105.6z"/>
	</g>
</g>
<g>
	<g>
		<path class="st20" d="M6.8,104.3h5c0.4,0.4,0.6,0.6,1,1v5c-0.4,0.4-0.6,0.6-1,1h-5c-0.4-0.4-0.6-0.6-1-1v-5
			C6.2,104.9,6.4,104.7,6.8,104.3z"/>
		<path class="st21" d="M5.4,110.5v-5.3l1.3-1.3H12l1.3,1.3v5.3l-1.3,1.3H6.7L5.4,110.5z M6.3,105.6v4.5l0.8,0.8h4.5l0.8-0.8v-4.5
			l-0.8-0.8H7.1L6.3,105.6z"/>
	</g>
</g>
<g>
	<g>
		
			<rect x="9.1" y="113.4" transform="matrix(6.123234e-17 -1 1 6.123234e-17 -97.8799 130.5643)" class="st22" width="14.5" height="1.7"/>
	</g>
	<g>
		
			<rect x="9.1" y="113.5" transform="matrix(6.123234e-17 -1 1 6.123234e-17 -97.8799 130.5643)" class="st10" width="14.5" height="1.4"/>
	</g>
	<g>
		<polygon class="st10" points="16.8,122.2 17.2,121.5 15.5,121.5 15.8,122.2 		"/>
	</g>
	<g>
		<polygon class="st23" points="16.8,122.2 17,121.5 15.7,121.5 15.8,122.2 		"/>
	</g>
</g>
<g>
	<g>
		
			<rect x="2" y="113.4" transform="matrix(6.123234e-17 -1 1 6.123234e-17 -104.9851 123.4591)" class="st22" width="14.5" height="1.7"/>
	</g>
	<g>
		
			<rect x="2" y="113.5" transform="matrix(6.123234e-17 -1 1 6.123234e-17 -104.9851 123.4591)" class="st10" width="14.5" height="1.4"/>
	</g>
	<g>
		<polygon class="st10" points="9.7,122.2 10.1,121.5 8.4,121.5 8.7,122.2 		"/>
	</g>
	<g>
		<polygon class="st23" points="9.7,122.2 9.9,121.5 8.6,121.5 8.7,122.2 		"/>
	</g>
</g>
<g>
	<g>
		<path class="st20" d="M20.8,104.3h5c0.4,0.4,0.6,0.6,1,1v5c-0.4,0.4-0.6,0.6-1,1h-5c-0.4-0.4-0.6-0.6-1-1v-5
			C20.2,104.9,20.4,104.7,20.8,104.3z"/>
		<path class="st21" d="M19.4,110.5v-5.3l1.3-1.3H26l1.3,1.3v5.3l-1.3,1.3h-5.3L19.4,110.5z M20.3,105.6v4.5l0.8,0.8h4.5l0.8-0.8
			v-4.5l-0.8-0.8h-4.5L20.3,105.6z"/>
	</g>
</g>
<g>
	<g>
		
			<rect x="16.1" y="113.4" transform="matrix(6.123234e-17 -1 1 6.123234e-17 -90.8984 137.5458)" class="st22" width="14.5" height="1.7"/>
	</g>
	<g>
		
			<rect x="16.1" y="113.5" transform="matrix(6.123234e-17 -1 1 6.123234e-17 -90.8984 137.5458)" class="st10" width="14.5" height="1.4"/>
	</g>
	<g>
		<polygon class="st10" points="23.8,122.2 24.2,121.5 22.5,121.5 22.8,122.2 		"/>
	</g>
	<g>
		<polygon class="st23" points="23.8,122.2 24,121.5 22.6,121.5 22.8,122.2 		"/>
	</g>
</g>
<g>
	<g>
		<path class="st20" d="M27.8,104.3h5c0.4,0.4,0.6,0.6,1,1v5c-0.4,0.4-0.6,0.6-1,1h-5c-0.4-0.4-0.6-0.6-1-1v-5
			C27.2,104.9,27.4,104.7,27.8,104.3z"/>
		<path class="st21" d="M26.3,110.5v-5.3l1.3-1.3h5.3l1.3,1.3v5.3l-1.3,1.3h-5.3L26.3,110.5z M27.3,105.6v4.5l0.8,0.8h4.5l0.8-0.8
			v-4.5l-0.8-0.8h-4.5L27.3,105.6z"/>
	</g>
</g>
<g>
	<g>
		
			<rect x="23.1" y="113.4" transform="matrix(6.123234e-17 -1 1 6.123234e-17 -83.9169 144.5273)" class="st22" width="14.5" height="1.7"/>
	</g>
	<g>
		
			<rect x="23.1" y="113.5" transform="matrix(6.123234e-17 -1 1 6.123234e-17 -83.9169 144.5273)" class="st10" width="14.5" height="1.4"/>
	</g>
	<g>
		<polygon class="st10" points="30.8,122.2 31.1,121.5 29.5,121.5 29.8,122.2 		"/>
	</g>
	<g>
		<polygon class="st23" points="30.8,122.2 31,121.5 29.6,121.5 29.8,122.2 		"/>
	</g>
</g>
<g>
	<g class="st24">
		<path class="st1" d="M28.8,95.9l3.4-1.1v0.5l-2.7,0.8l2.7,0.8v0.5l-3.4-1.1V95.9z"/>
		<path class="st1" d="M28.7,99c0-0.2,0.1-0.4,0.2-0.6c0.1-0.2,0.3-0.3,0.4-0.4c0.2-0.1,0.4-0.1,0.7-0.1h0.9c0.3,0,0.5,0,0.7,0.1
			c0.2,0.1,0.3,0.2,0.4,0.4c0.1,0.2,0.2,0.4,0.2,0.6c0,0.2,0,0.4-0.1,0.5c-0.1,0.2-0.2,0.3-0.4,0.4s-0.3,0.2-0.5,0.2v-0.5
			c0.1,0,0.2-0.1,0.3-0.1c0.1-0.1,0.1-0.2,0.2-0.2c0-0.1,0.1-0.2,0.1-0.3c0-0.2-0.1-0.4-0.2-0.5c-0.1-0.1-0.3-0.2-0.6-0.2H30
			c-0.2,0-0.4,0.1-0.6,0.2c-0.1,0.1-0.2,0.3-0.2,0.5c0,0.1,0,0.3,0.1,0.4c0.1,0.1,0.2,0.2,0.4,0.3v0.5c-0.2,0-0.4-0.1-0.5-0.2
			s-0.3-0.2-0.3-0.4S28.7,99.2,28.7,99z"/>
		<path class="st1" d="M28.7,102c0-0.2,0.1-0.4,0.2-0.6s0.3-0.3,0.4-0.4c0.2-0.1,0.4-0.1,0.7-0.1h0.9c0.3,0,0.5,0,0.7,0.1
			c0.2,0.1,0.3,0.2,0.4,0.4s0.2,0.4,0.2,0.6c0,0.2,0,0.4-0.1,0.5c-0.1,0.2-0.2,0.3-0.4,0.4s-0.3,0.2-0.5,0.2v-0.5
			c0.1,0,0.2-0.1,0.3-0.1c0.1-0.1,0.1-0.2,0.2-0.2s0.1-0.2,0.1-0.3c0-0.2-0.1-0.4-0.2-0.5c-0.1-0.1-0.3-0.2-0.6-0.2H30
			c-0.2,0-0.4,0.1-0.6,0.2c-0.1,0.1-0.2,0.3-0.2,0.5c0,0.1,0,0.3,0.1,0.4c0.1,0.1,0.2,0.2,0.4,0.3v0.5c-0.2,0-0.4-0.1-0.5-0.2
			c-0.1-0.1-0.3-0.2-0.3-0.4S28.7,102.1,28.7,102z"/>
	</g>
</g>
<g>
	<g class="st24">
		<path class="st1" d="M14.8,97.5h3.4V98h-3.4V97.5z M14.8,97.8h0.5v0.8c0,0.2,0.1,0.4,0.2,0.6c0.1,0.1,0.3,0.2,0.5,0.2h1
			c0.2,0,0.4-0.1,0.5-0.2c0.1-0.1,0.2-0.3,0.2-0.6v-0.8h0.5v0.8c0,0.4-0.1,0.7-0.3,1c-0.2,0.2-0.5,0.3-0.9,0.3h-1
			c-0.4,0-0.7-0.1-0.9-0.3c-0.2-0.2-0.3-0.5-0.3-1V97.8z"/>
		<path class="st1" d="M14.8,101.7c0-0.2,0.1-0.4,0.2-0.6c0.1-0.2,0.2-0.3,0.4-0.4c0.2-0.1,0.4-0.1,0.7-0.1h1c0.2,0,0.5,0,0.7,0.1
			s0.3,0.2,0.4,0.4c0.1,0.2,0.2,0.4,0.2,0.6c0,0.2-0.1,0.4-0.2,0.6c-0.1,0.2-0.2,0.3-0.4,0.4s-0.4,0.1-0.7,0.1h-1
			c-0.2,0-0.5,0-0.7-0.1c-0.2-0.1-0.3-0.2-0.4-0.4C14.8,102.2,14.8,102,14.8,101.7z M15.2,101.7c0,0.2,0.1,0.4,0.2,0.5
			s0.3,0.2,0.6,0.2h1c0.2,0,0.4-0.1,0.6-0.2s0.2-0.3,0.2-0.5c0-0.2-0.1-0.4-0.2-0.5S17.2,101,17,101h-1c-0.2,0-0.4,0.1-0.6,0.2
			S15.2,101.5,15.2,101.7z"/>
	</g>
</g>
<g>
	<g class="st24">
		<path class="st1" d="M7.7,97.3l3.4,1.2v0.4l-3.4,1.2v-0.5l2.7-0.9l-2.7-0.9V97.3z M8.4,97.9h0.5v1.8H8.4V97.9z"/>
		<path class="st1" d="M7.7,101.8c0-0.2,0.1-0.4,0.2-0.6c0.1-0.2,0.2-0.3,0.4-0.4c0.2-0.1,0.4-0.1,0.7-0.1h1c0.2,0,0.5,0,0.7,0.1
			s0.3,0.2,0.4,0.4c0.1,0.2,0.2,0.4,0.2,0.6c0,0.2-0.1,0.4-0.2,0.6c-0.1,0.2-0.2,0.3-0.4,0.4s-0.4,0.1-0.7,0.1h-1
			c-0.2,0-0.5,0-0.7-0.1c-0.2-0.1-0.3-0.2-0.4-0.4C7.7,102.3,7.7,102.1,7.7,101.8z M8.1,101.8c0,0.2,0.1,0.4,0.2,0.5
			s0.3,0.2,0.6,0.2h1c0.2,0,0.4-0.1,0.6-0.2s0.2-0.3,0.2-0.5c0-0.2-0.1-0.4-0.2-0.5s-0.3-0.2-0.6-0.2h-1c-0.2,0-0.4,0.1-0.6,0.2
			S8.1,101.6,8.1,101.8z"/>
	</g>
</g>
</svg>
