<?xml version="1.0" encoding="utf-8"?>
<!-- Generator: Adobe Illustrator 23.0.1, SVG Export Plug-In . SVG Version: 6.00 Build 0)  -->
<svg version="1.1" id="Layer_1" xmlns="http://www.w3.org/2000/svg" xmlns:xlink="http://www.w3.org/1999/xlink" x="0px" y="0px"
	 viewBox="0 0 36.9 73.7" style="enable-background:new 0 0 36.9 73.7;" xml:space="preserve">
<style type="text/css">
	.st0{fill:#FFFFFF;}
	.st1{fill:#0A783D;}
	.st2{fill:#FFD39B;}
	.st3{fill:#B54C26;}
	.st4{fill:#FFE5C6;}
	.st5{fill:#F2F1F0;}
	.st6{fill:#BF934A;}
	.st7{fill:#C0944C;}
	.st8{fill:#FDC26B;}
	.st9{fill:#EA2227;}
	.st10{fill:#FDE500;}
	.st11{fill:none;stroke:#FFFFFF;stroke-miterlimit:10;}
</style>
<g>
	<g>
		<g>
			<path d="M0,1.6v42.8c0.6,0.6,1,1,1.6,1.6h33.6c0.6-0.6,1-1,1.6-1.6V1.6c-0.6-0.6-1-1-1.6-1.6H1.6C1,0.6,0.6,1,0,1.6z M33.7,41.5
				c0,0.8-0.7,1.5-1.5,1.5c-0.8,0-1.5-0.7-1.5-1.5s0.7-1.5,1.5-1.5C33,39.9,33.7,40.6,33.7,41.5z M26.3,41.3c0,0.8-0.7,1.5-1.5,1.5
				c-0.8,0-1.5-0.7-1.5-1.5c0-0.8,0.7-1.5,1.5-1.5C25.6,39.8,26.3,40.5,26.3,41.3z M19.3,41.3c0,0.8-0.7,1.5-1.5,1.5
				s-1.5-0.7-1.5-1.5c0-0.8,0.7-1.5,1.5-1.5S19.3,40.5,19.3,41.3z M12.2,41.3c0,0.8-0.7,1.5-1.5,1.5s-1.5-0.7-1.5-1.5
				c0-0.8,0.7-1.5,1.5-1.5S12.2,40.5,12.2,41.3z M5.2,41.3c0,0.8-0.7,1.5-1.5,1.5s-1.5-0.7-1.5-1.5c0-0.8,0.7-1.5,1.5-1.5
				S5.2,40.5,5.2,41.3z"/>
		</g>
		<g>
			<ellipse transform="matrix(0.9871 -0.1602 0.1602 0.9871 -6.2296 5.692)" class="st0" cx="32.2" cy="41.5" rx="1.5" ry="1.5"/>
		</g>
	</g>
	<g>
		<path class="st0" d="M1.7,38l-0.8-2.3h0.4l0.6,1.8l0.6-1.8h0.4L2,38H1.7z"/>
		<path class="st0" d="M3.8,38c-0.2,0-0.3,0-0.4-0.1c-0.1-0.1-0.2-0.2-0.3-0.3C3,37.4,3,37.3,3,37.1v-0.6c0-0.2,0-0.3,0.1-0.5
			c0.1-0.1,0.2-0.2,0.3-0.3c0.1-0.1,0.3-0.1,0.4-0.1c0.1,0,0.3,0,0.4,0.1c0.1,0.1,0.2,0.1,0.3,0.2c0.1,0.1,0.1,0.2,0.2,0.4H4.2
			c0-0.1-0.1-0.1-0.1-0.2C4.1,36,4,36,4,36c-0.1,0-0.1,0-0.2,0c-0.1,0-0.3,0.1-0.3,0.2c-0.1,0.1-0.1,0.2-0.1,0.4v0.6
			c0,0.2,0,0.3,0.1,0.4c0.1,0.1,0.2,0.1,0.3,0.1c0.1,0,0.2,0,0.3-0.1c0.1-0.1,0.1-0.1,0.2-0.3h0.3c0,0.1-0.1,0.2-0.2,0.3
			c-0.1,0.1-0.2,0.2-0.3,0.2C4,37.9,3.9,38,3.8,38z"/>
		<path class="st0" d="M5.8,38c-0.2,0-0.3,0-0.4-0.1c-0.1-0.1-0.2-0.2-0.3-0.3C5,37.4,5,37.3,5,37.1v-0.6c0-0.2,0-0.3,0.1-0.5
			c0.1-0.1,0.2-0.2,0.3-0.3c0.1-0.1,0.3-0.1,0.4-0.1c0.1,0,0.3,0,0.4,0.1c0.1,0.1,0.2,0.1,0.3,0.2s0.1,0.2,0.2,0.4H6.2
			c0-0.1-0.1-0.1-0.1-0.2C6.1,36,6,36,6,36c-0.1,0-0.1,0-0.2,0c-0.1,0-0.3,0.1-0.3,0.2c-0.1,0.1-0.1,0.2-0.1,0.4v0.6
			c0,0.2,0,0.3,0.1,0.4c0.1,0.1,0.2,0.1,0.3,0.1c0.1,0,0.2,0,0.3-0.1c0.1-0.1,0.1-0.1,0.2-0.3h0.3c0,0.1-0.1,0.2-0.2,0.3
			c-0.1,0.1-0.2,0.2-0.3,0.2C6,37.9,5.9,38,5.8,38z"/>
	</g>
	<g>
		<path class="st0" d="M1.7,31.9v-0.8h0.4c0.2,0,0.3,0,0.5,0.1c0.1,0.1,0.2,0.2,0.3,0.3C2.9,31.6,3,31.8,3,31.9c0,0.2,0,0.3-0.1,0.4
			c-0.1,0.1-0.2,0.2-0.3,0.3c-0.1,0.1-0.3,0.1-0.4,0.1H1.5c-0.2,0-0.3,0-0.5-0.1c-0.1-0.1-0.2-0.2-0.3-0.3c-0.1-0.1-0.1-0.3-0.1-0.4
			c0-0.1,0-0.3,0.1-0.4c0.1-0.1,0.1-0.2,0.2-0.3c0.1-0.1,0.2-0.1,0.4-0.2v0.4c-0.1,0-0.2,0.1-0.3,0.2c-0.1,0.1-0.1,0.2-0.1,0.3
			c0,0.1,0.1,0.3,0.2,0.3c0.1,0.1,0.2,0.1,0.4,0.1h0.7c0.2,0,0.3,0,0.4-0.1c0.1-0.1,0.1-0.2,0.1-0.4c0-0.1,0-0.3-0.1-0.3
			c-0.1-0.1-0.2-0.1-0.4-0.1H2l0,0.5H1.7z"/>
		<path class="st0" d="M3,29.8c0,0.2,0,0.3-0.1,0.4c-0.1,0.1-0.2,0.2-0.3,0.3c-0.1,0.1-0.3,0.1-0.4,0.1H1.5c-0.2,0-0.3,0-0.4-0.1
			c-0.1-0.1-0.2-0.2-0.3-0.3c-0.1-0.1-0.1-0.3-0.1-0.4c0-0.2,0-0.3,0.1-0.4c0.1-0.1,0.2-0.2,0.3-0.3C1.1,29,1.3,29,1.5,29h0.7
			c0.2,0,0.3,0,0.4,0.1c0.1,0.1,0.2,0.2,0.3,0.3C2.9,29.5,3,29.7,3,29.8z M2.6,29.8c0-0.1,0-0.3-0.1-0.3c-0.1-0.1-0.2-0.1-0.4-0.1
			H1.4c-0.2,0-0.3,0-0.4,0.1s-0.1,0.2-0.1,0.3c0,0.1,0,0.3,0.1,0.3c0.1,0.1,0.2,0.1,0.4,0.1h0.7c0.2,0,0.3,0,0.4-0.1
			C2.6,30.1,2.6,30,2.6,29.8z"/>
		<path class="st0" d="M3,27.7c0,0.2,0,0.3-0.1,0.4c-0.1,0.1-0.2,0.2-0.3,0.3c-0.1,0.1-0.3,0.1-0.4,0.1H1.5c-0.2,0-0.3,0-0.4-0.1
			c-0.1-0.1-0.2-0.2-0.3-0.3c-0.1-0.1-0.1-0.3-0.1-0.4c0-0.2,0-0.3,0.1-0.4C0.8,27.2,0.9,27.1,1,27c0.1-0.1,0.3-0.1,0.4-0.1h0.7
			c0.2,0,0.3,0,0.4,0.1c0.1,0.1,0.2,0.2,0.3,0.3C2.9,27.4,3,27.5,3,27.7z M2.6,27.7c0-0.1,0-0.3-0.1-0.3c-0.1-0.1-0.2-0.1-0.4-0.1
			H1.4c-0.2,0-0.3,0-0.4,0.1s-0.1,0.2-0.1,0.3c0,0.1,0,0.3,0.1,0.3s0.2,0.1,0.4,0.1h0.7c0.2,0,0.3,0,0.4-0.1
			C2.6,28,2.6,27.9,2.6,27.7z"/>
		<path class="st0" d="M3,25.6c0,0.3-0.1,0.5-0.2,0.6c-0.2,0.1-0.4,0.2-0.6,0.2H0.6v-0.3h1.5c0.2,0,0.3,0,0.4-0.1
			c0.1-0.1,0.1-0.2,0.1-0.4c0-0.2,0-0.3-0.1-0.4c-0.1-0.1-0.2-0.1-0.4-0.1H0.6v-0.3h1.5c0.3,0,0.5,0.1,0.6,0.2
			C2.9,25.1,3,25.3,3,25.6z"/>
		<path class="st0" d="M3,23.5c0,0.3-0.1,0.5-0.2,0.6c-0.2,0.1-0.4,0.2-0.6,0.2H0.6v-0.3h1.5c0.2,0,0.3,0,0.4-0.1s0.1-0.2,0.1-0.4
			c0-0.2,0-0.3-0.1-0.4C2.4,23,2.3,23,2.1,23H0.6v-0.3h1.5c0.3,0,0.5,0.1,0.6,0.2C2.9,23,3,23.2,3,23.5z"/>
		<path class="st0" d="M3,21.3c0,0.3-0.1,0.5-0.2,0.6c-0.2,0.1-0.4,0.2-0.6,0.2H0.6v-0.3h1.5c0.2,0,0.3,0,0.4-0.1
			c0.1-0.1,0.1-0.2,0.1-0.4c0-0.2,0-0.3-0.1-0.4c-0.1-0.1-0.2-0.1-0.4-0.1H0.6v-0.3h1.5c0.3,0,0.5,0.1,0.6,0.2
			C2.9,20.9,3,21.1,3,21.3z"/>
		<path class="st0" d="M2,20v-1.1h0.3V20H2z"/>
		<path class="st0" d="M1.7,17.6v-0.8h0.4c0.2,0,0.3,0,0.5,0.1c0.1,0.1,0.2,0.2,0.3,0.3C2.9,17.3,3,17.5,3,17.6c0,0.2,0,0.3-0.1,0.4
			c-0.1,0.1-0.2,0.2-0.3,0.3c-0.1,0.1-0.3,0.1-0.4,0.1H1.5c-0.2,0-0.3,0-0.5-0.1c-0.1-0.1-0.2-0.2-0.3-0.3c-0.1-0.1-0.1-0.3-0.1-0.4
			c0-0.1,0-0.3,0.1-0.4c0.1-0.1,0.1-0.2,0.2-0.3s0.2-0.1,0.4-0.2v0.4c-0.1,0-0.2,0.1-0.3,0.2c-0.1,0.1-0.1,0.2-0.1,0.3
			c0,0.1,0.1,0.3,0.2,0.3s0.2,0.1,0.4,0.1h0.7c0.2,0,0.3,0,0.4-0.1c0.1-0.1,0.1-0.2,0.1-0.4c0-0.1,0-0.3-0.1-0.3
			c-0.1-0.1-0.2-0.1-0.4-0.1H2l0,0.5H1.7z"/>
		<path class="st0" d="M2.9,16.3H0.6V16h2.3V16.3z M2,16.1H1.7v-0.7c0-0.1,0-0.2-0.1-0.3C1.5,15.1,1.5,15,1.3,15
			c-0.1,0-0.2,0-0.3,0.1s-0.1,0.1-0.1,0.3v0.7H0.6v-0.7c0-0.1,0-0.3,0.1-0.4c0.1-0.1,0.1-0.2,0.2-0.2s0.2-0.1,0.4-0.1s0.3,0,0.4,0.1
			S1.9,14.9,2,15C2,15.1,2,15.3,2,15.4V16.1z"/>
		<path class="st0" d="M3,13.6c0,0.2,0,0.3-0.1,0.5c0,0.1-0.1,0.3-0.2,0.4l-0.2-0.2c0.1-0.1,0.1-0.2,0.2-0.3c0-0.1,0.1-0.2,0.1-0.3
			c0-0.2,0-0.3-0.1-0.4c-0.1-0.1-0.1-0.1-0.3-0.1h0c-0.1,0-0.2,0-0.2,0.1c0,0-0.1,0.1-0.1,0.2c0,0.1,0,0.2-0.1,0.2
			c0,0.1,0,0.2-0.1,0.3c0,0.1-0.1,0.2-0.1,0.2c0,0.1-0.1,0.1-0.2,0.2c-0.1,0-0.2,0.1-0.3,0.1h0c-0.2,0-0.4-0.1-0.5-0.2
			c-0.1-0.1-0.2-0.3-0.2-0.6c0-0.1,0-0.2,0.1-0.4c0-0.1,0.1-0.2,0.2-0.3L1.1,13c-0.1,0.2-0.2,0.4-0.2,0.5c0,0.2,0,0.3,0.1,0.4
			C1.1,14,1.2,14,1.3,14h0c0.1,0,0.2,0,0.2-0.1c0-0.1,0.1-0.1,0.1-0.2c0-0.1,0-0.2,0.1-0.3c0-0.1,0-0.2,0.1-0.3
			c0-0.1,0.1-0.2,0.1-0.2c0-0.1,0.1-0.1,0.2-0.2c0.1,0,0.2-0.1,0.3-0.1h0c0.2,0,0.4,0.1,0.5,0.2S3,13.3,3,13.6z"/>
		<path class="st0" d="M1.7,12.3V11H2v1.3H1.7z M1.2,11.5h1.3v0.3H1.2V11.5z"/>
		<path class="st0" d="M2.9,10.6H0.6v-0.3h2.3V10.6z M2.9,10.4H2.6V9.7c0-0.2,0-0.3-0.1-0.4C2.5,9.3,2.4,9.3,2.3,9.3h0
			c-0.1,0-0.2,0-0.3,0.1C1.9,9.4,1.9,9.5,1.9,9.7v0.7H1.6V9.7c0-0.2-0.1-0.4-0.3-0.4C1,9.3,0.9,9.4,0.9,9.7v0.7H0.6V9.6
			c0-0.2,0.1-0.4,0.2-0.5C0.9,9,1.1,9,1.3,9c0.1,0,0.2,0,0.3,0.1c0.1,0.1,0.2,0.2,0.2,0.3c0-0.1,0.1-0.3,0.2-0.3
			C2,9,2.2,8.9,2.3,8.9h0c0.2,0,0.3,0.1,0.5,0.2c0.1,0.1,0.2,0.3,0.2,0.5V10.4z"/>
		<path class="st0" d="M2.9,8.5H0.6V8.1h2.3V8.5z M2.9,8.3H2.6V7.7c0-0.2,0-0.3-0.1-0.4C2.4,7.2,2.3,7.2,2.1,7.2H1.4
			c-0.2,0-0.3,0-0.4,0.1C1,7.4,0.9,7.6,0.9,7.7v0.5H0.6V7.7c0-0.3,0.1-0.5,0.2-0.7C1,6.9,1.2,6.9,1.5,6.9h0.7c0.3,0,0.5,0.1,0.6,0.2
			c0.1,0.2,0.2,0.4,0.2,0.7V8.3z"/>
	</g>
	<g>
		<path class="st0" d="M8.6,36.7h0.8v0.4c0,0.2,0,0.3-0.1,0.5c-0.1,0.1-0.2,0.2-0.3,0.3C8.9,37.9,8.8,38,8.6,38
			c-0.2,0-0.3,0-0.4-0.1c-0.1-0.1-0.2-0.2-0.3-0.3c-0.1-0.1-0.1-0.3-0.1-0.4v-0.7c0-0.2,0-0.3,0.1-0.5c0.1-0.1,0.2-0.2,0.3-0.3
			c0.1-0.1,0.3-0.1,0.4-0.1c0.1,0,0.3,0,0.4,0.1c0.1,0.1,0.2,0.1,0.3,0.2c0.1,0.1,0.1,0.2,0.2,0.4H9.1C9,36.2,9,36.1,8.9,36
			s-0.2-0.1-0.3-0.1c-0.1,0-0.3,0.1-0.3,0.2c-0.1,0.1-0.1,0.2-0.1,0.4v0.7c0,0.2,0,0.3,0.1,0.4c0.1,0.1,0.2,0.1,0.4,0.1
			c0.1,0,0.3,0,0.3-0.1c0.1-0.1,0.1-0.2,0.1-0.4V37l-0.5,0V36.7z"/>
		<path class="st0" d="M10,37.9v-2.3h0.3l1.1,1.8l0,0v-1.8h0.3v2.3h-0.3l-1.1-1.7l0,0v1.8H10z"/>
		<path class="st0" d="M12.3,38v-2.3h0.3V38H12.3z M12.5,38v-0.3H13c0.2,0,0.3,0,0.4-0.1c0.1-0.1,0.1-0.2,0.1-0.4v-0.7
			c0-0.2,0-0.3-0.1-0.4c-0.1-0.1-0.2-0.1-0.4-0.1h-0.5v-0.3H13c0.3,0,0.5,0.1,0.7,0.2c0.2,0.1,0.2,0.3,0.2,0.6v0.7
			c0,0.3-0.1,0.5-0.2,0.6C13.5,37.9,13.3,38,13,38H12.5z"/>
	</g>
	<g>
		<path class="st0" d="M16.6,38v-2.1h0.3V38H16.6z M16,35.9v-0.3h1.6v0.3H16z"/>
		<path class="st0" d="M17.6,38l0.8-1.3l0.6-1h0.4l-0.8,1.3L18,38H17.6z M19,38l-0.6-1l0-0.1l-0.8-1.2H18l0.6,0.9l0.1,0.1l0.8,1.3
			H19z"/>
	</g>
	<g>
		<path class="st0" d="M23,38v-2.3h0.3V38H23z M24.3,38l-0.5-1.1l0.3-0.1l0.6,1.1H24.3z M23.1,37v-0.3H24c0.1,0,0.1,0,0.2-0.1
			c0-0.1,0.1-0.2,0.1-0.3c0-0.1,0-0.2-0.1-0.3c0-0.1-0.1-0.1-0.2-0.1h-0.9v-0.3H24c0.1,0,0.2,0,0.3,0.1c0.1,0.1,0.2,0.1,0.2,0.2
			c0.1,0.1,0.1,0.2,0.1,0.4s0,0.3-0.1,0.4c-0.1,0.1-0.1,0.2-0.2,0.2C24.2,36.9,24.1,37,24,37H23.1z"/>
		<path class="st0" d="M24.8,38l0.8-1.3l0.6-1h0.4l-0.8,1.3L25.2,38H24.8z M26.3,38l-0.6-1l0-0.1l-0.8-1.2h0.4l0.6,0.9l0.1,0.1
			l0.8,1.3H26.3z"/>
	</g>
	<g>
		<path class="st0" d="M29.5,38v-2.3h0.3V38H29.5z M29.7,37.1v-0.3h0.7c0.1,0,0.2,0,0.3-0.1c0.1-0.1,0.1-0.2,0.1-0.3
			c0-0.1,0-0.2-0.1-0.3c-0.1-0.1-0.1-0.1-0.3-0.1h-0.7v-0.3h0.7c0.1,0,0.3,0,0.4,0.1c0.1,0.1,0.2,0.1,0.2,0.2
			c0.1,0.1,0.1,0.2,0.1,0.4s0,0.3-0.1,0.4c-0.1,0.1-0.1,0.2-0.2,0.2c-0.1,0.1-0.2,0.1-0.4,0.1H29.7z"/>
		<path class="st0" d="M31.5,38v-2.3h0.3V38H31.5z M31.7,37.1v-0.3h0.7c0.1,0,0.2,0,0.3-0.1c0.1-0.1,0.1-0.2,0.1-0.3
			c0-0.1,0-0.2-0.1-0.3c-0.1-0.1-0.1-0.1-0.3-0.1h-0.7v-0.3h0.7c0.1,0,0.3,0,0.4,0.1c0.1,0.1,0.2,0.1,0.2,0.2
			c0.1,0.1,0.1,0.2,0.1,0.4s0,0.3-0.1,0.4c-0.1,0.1-0.1,0.2-0.2,0.2c-0.1,0.1-0.2,0.1-0.4,0.1H31.7z"/>
		<path class="st0" d="M34.2,38c-0.2,0-0.3,0-0.5-0.1c-0.1,0-0.3-0.1-0.4-0.2l0.2-0.2c0.1,0.1,0.2,0.1,0.3,0.2
			c0.1,0,0.2,0.1,0.3,0.1c0.2,0,0.3,0,0.4-0.1c0.1-0.1,0.1-0.1,0.1-0.3v0c0-0.1,0-0.2-0.1-0.2c0,0-0.1-0.1-0.2-0.1
			c-0.1,0-0.2,0-0.2-0.1c-0.1,0-0.2,0-0.3-0.1c-0.1,0-0.2-0.1-0.2-0.1c-0.1,0-0.1-0.1-0.2-0.2c0-0.1-0.1-0.2-0.1-0.3v0
			c0-0.2,0.1-0.4,0.2-0.5c0.1-0.1,0.3-0.2,0.6-0.2c0.1,0,0.2,0,0.4,0.1c0.1,0,0.2,0.1,0.3,0.2l-0.2,0.3c-0.2-0.1-0.4-0.2-0.5-0.2
			c-0.2,0-0.3,0-0.4,0.1c-0.1,0.1-0.1,0.2-0.1,0.3v0c0,0.1,0,0.2,0.1,0.2c0.1,0,0.1,0.1,0.2,0.1c0.1,0,0.2,0,0.3,0.1
			c0.1,0,0.2,0,0.3,0.1c0.1,0,0.2,0.1,0.2,0.1c0.1,0,0.1,0.1,0.2,0.2s0.1,0.2,0.1,0.3v0c0,0.2-0.1,0.4-0.2,0.5
			C34.7,37.9,34.5,38,34.2,38z"/>
	</g>
	<g>
		<g>
			<g>
				
					<rect x="5.2" y="32.1" transform="matrix(-1 -1.224647e-16 1.224647e-16 -1 12.4474 66.5129)" class="st0" width="2" height="2.3"/>
			</g>
		</g>
		<g>
			<g>
				
					<rect x="8.3" y="32.1" transform="matrix(-1 -1.224647e-16 1.224647e-16 -1 18.5912 66.5129)" class="st0" width="2" height="2.3"/>
			</g>
		</g>
		<g>
			<g>
				
					<rect x="11.4" y="32.1" transform="matrix(-1 -1.224647e-16 1.224647e-16 -1 24.735 66.5129)" class="st0" width="2" height="2.3"/>
			</g>
		</g>
		<g>
			<g>
				
					<rect x="14.4" y="32.1" transform="matrix(-1 -1.224647e-16 1.224647e-16 -1 30.8788 66.5129)" class="st0" width="2" height="2.3"/>
			</g>
		</g>
		<g>
			<g>
				
					<rect x="17.5" y="32.1" transform="matrix(-1 -1.224647e-16 1.224647e-16 -1 37.0226 66.5129)" class="st0" width="2" height="2.3"/>
			</g>
		</g>
		<g>
			<g>
				
					<rect x="20.6" y="32.1" transform="matrix(-1 -1.224647e-16 1.224647e-16 -1 43.1664 66.5129)" class="st0" width="2" height="2.3"/>
			</g>
		</g>
		<g>
			<g>
				
					<rect x="23.7" y="32.1" transform="matrix(-1 -1.224647e-16 1.224647e-16 -1 49.3102 66.5129)" class="st0" width="2" height="2.3"/>
			</g>
		</g>
		<g>
			<g>
				
					<rect x="26.7" y="32.1" transform="matrix(-1 -1.224647e-16 1.224647e-16 -1 55.4541 66.5129)" class="st0" width="2" height="2.3"/>
			</g>
		</g>
		<g>
			<g>
				
					<rect x="29.8" y="32.1" transform="matrix(-1 -1.224647e-16 1.224647e-16 -1 61.5979 66.5129)" class="st0" width="2" height="2.3"/>
			</g>
		</g>
		<g>
			<g>
				
					<rect x="5.2" y="2.2" transform="matrix(-1 -1.224647e-16 1.224647e-16 -1 12.4474 6.7086)" class="st0" width="2" height="2.3"/>
			</g>
		</g>
		<g>
			<g>
				
					<rect x="8.3" y="2.2" transform="matrix(-1 -1.224647e-16 1.224647e-16 -1 18.5912 6.7086)" class="st0" width="2" height="2.3"/>
			</g>
		</g>
		<g>
			<g>
				
					<rect x="11.4" y="2.2" transform="matrix(-1 -1.224647e-16 1.224647e-16 -1 24.735 6.7086)" class="st0" width="2" height="2.3"/>
			</g>
		</g>
		<g>
			<g>
				
					<rect x="14.4" y="2.2" transform="matrix(-1 -1.224647e-16 1.224647e-16 -1 30.8788 6.7086)" class="st0" width="2" height="2.3"/>
			</g>
		</g>
		<g>
			<g>
				
					<rect x="17.5" y="2.2" transform="matrix(-1 -1.224647e-16 1.224647e-16 -1 37.0226 6.7086)" class="st0" width="2" height="2.3"/>
			</g>
		</g>
		<g>
			<g>
				
					<rect x="20.6" y="2.2" transform="matrix(-1 -1.224647e-16 1.224647e-16 -1 43.1664 6.7086)" class="st0" width="2" height="2.3"/>
			</g>
		</g>
		<g>
			<g>
				
					<rect x="23.7" y="2.2" transform="matrix(-1 -1.224647e-16 1.224647e-16 -1 49.3102 6.7086)" class="st0" width="2" height="2.3"/>
			</g>
		</g>
		<g>
			<g>
				
					<rect x="26.7" y="2.2" transform="matrix(-1 -1.224647e-16 1.224647e-16 -1 55.4541 6.7086)" class="st0" width="2" height="2.3"/>
			</g>
		</g>
		<g>
			<g>
				
					<rect x="29.8" y="2.2" transform="matrix(-1 -1.224647e-16 1.224647e-16 -1 61.5979 6.7086)" class="st0" width="2" height="2.3"/>
			</g>
		</g>
	</g>
	<g>
		<g>
			
				<rect x="4.7" y="4.6" transform="matrix(6.123234e-17 -1 1 6.123234e-17 8.964159e-02 36.7607)" class="st1" width="27.5" height="27.5"/>
		</g>
		<g>
			<g>
				<path class="st2" d="M5.1,32.1h0.3c0.1-0.3,0.5-0.6,0.8-0.6V31H5.1V32.1z"/>
				<path class="st3" d="M6.3,30.9v0.7h0c-0.3,0-0.7,0.2-0.8,0.5l0,0H5.1v-1.2H6.3z M6.2,31.5V31h-1v1h0.2
					C5.5,31.7,5.8,31.5,6.2,31.5z"/>
			</g>
			<g>
				<path class="st2" d="M7.1,32.1h0.3V31H6.2v0.6C6.6,31.5,6.9,31.8,7.1,32.1z"/>
				<path class="st3" d="M7.4,30.9v1.2H7l0,0c-0.1-0.3-0.4-0.5-0.8-0.5h0v-0.7H7.4z M7.3,32.1v-1h-1v0.5c0.4,0,0.7,0.2,0.8,0.6H7.3z
					"/>
			</g>
		</g>
		<g>
			<g>
				<path class="st2" d="M8.2,32.1h0.3c0.1-0.3,0.5-0.6,0.8-0.6V31H8.2V32.1z"/>
				<path class="st3" d="M9.3,30.9v0.7h0c-0.3,0-0.7,0.2-0.8,0.5l0,0H8.1v-1.2H9.3z M9.2,31.5V31h-1v1h0.2
					C8.6,31.7,8.9,31.5,9.2,31.5z"/>
			</g>
			<g>
				<path class="st2" d="M10.1,32.1h0.3V31H9.3v0.6C9.7,31.5,10,31.8,10.1,32.1z"/>
				<path class="st3" d="M10.5,30.9v1.2h-0.4l0,0c-0.1-0.3-0.4-0.5-0.8-0.5h0v-0.7H10.5z M10.4,32.1v-1h-1v0.5
					c0.4,0,0.7,0.2,0.8,0.6H10.4z"/>
			</g>
		</g>
		<g>
			<g>
				<path class="st2" d="M11.2,32.1h0.3c0.1-0.3,0.5-0.6,0.8-0.6V31h-1.1V32.1z"/>
				<path class="st3" d="M12.4,30.9v0.7h0c-0.3,0-0.7,0.2-0.8,0.5l0,0h-0.4v-1.2H12.4z M12.3,31.5V31h-1v1h0.2
					C11.7,31.7,12,31.5,12.3,31.5z"/>
			</g>
			<g>
				<path class="st2" d="M13.2,32.1h0.3V31h-1.1v0.6C12.7,31.5,13.1,31.8,13.2,32.1z"/>
				<path class="st3" d="M13.5,30.9v1.2h-0.4l0,0c-0.1-0.3-0.4-0.5-0.8-0.5h0v-0.7H13.5z M13.4,32.1v-1h-1v0.5
					c0.4,0,0.7,0.2,0.8,0.6H13.4z"/>
			</g>
		</g>
		<g>
			<g>
				<path class="st2" d="M14.3,32.1h0.3c0.1-0.3,0.5-0.6,0.8-0.6V31h-1.1V32.1z"/>
				<path class="st3" d="M15.5,30.9v0.7h0c-0.3,0-0.7,0.2-0.8,0.5l0,0h-0.4v-1.2H15.5z M15.4,31.5V31h-1v1h0.2
					C14.7,31.7,15,31.5,15.4,31.5z"/>
			</g>
			<g>
				<path class="st2" d="M16.3,32.1h0.3V31h-1.1v0.6C15.8,31.5,16.1,31.8,16.3,32.1z"/>
				<path class="st3" d="M16.6,30.9v1.2h-0.4l0,0c-0.1-0.3-0.4-0.5-0.8-0.5h0v-0.7H16.6z M16.5,32.1v-1h-1v0.5
					c0.4,0,0.7,0.2,0.8,0.6H16.5z"/>
			</g>
		</g>
		<g>
			<g>
				<path class="st2" d="M17.4,32.1h0.3c0.1-0.3,0.5-0.6,0.8-0.6V31h-1.1V32.1z"/>
				<path class="st3" d="M18.6,30.9v0.7h0c-0.3,0-0.7,0.2-0.8,0.5l0,0h-0.4v-1.2H18.6z M18.5,31.5V31h-1v1h0.2
					C17.8,31.7,18.1,31.5,18.5,31.5z"/>
			</g>
			<g>
				<path class="st2" d="M19.3,32.1h0.3V31h-1.1v0.6C18.9,31.5,19.2,31.8,19.3,32.1z"/>
				<path class="st3" d="M19.7,30.9v1.2h-0.4l0,0c-0.1-0.3-0.4-0.5-0.8-0.5h0v-0.7H19.7z M19.6,32.1v-1h-1v0.5
					c0.4,0,0.7,0.2,0.8,0.6H19.6z"/>
			</g>
		</g>
		<g>
			<g>
				<path class="st2" d="M20.5,32.1h0.3c0.1-0.3,0.5-0.6,0.8-0.6V31h-1.1V32.1z"/>
				<path class="st3" d="M21.6,30.9v0.7h0c-0.3,0-0.7,0.2-0.8,0.5l0,0h-0.4v-1.2H21.6z M21.5,31.5V31h-1v1h0.2
					C20.9,31.7,21.2,31.5,21.5,31.5z"/>
			</g>
			<g>
				<path class="st2" d="M22.4,32.1h0.3V31h-1.1v0.6C22,31.5,22.3,31.8,22.4,32.1z"/>
				<path class="st3" d="M22.8,30.9v1.2h-0.4l0,0c-0.1-0.3-0.4-0.5-0.8-0.5h0v-0.7H22.8z M22.7,32.1v-1h-1v0.5
					c0.4,0,0.7,0.2,0.8,0.6H22.7z"/>
			</g>
		</g>
		<g>
			<g>
				<path class="st2" d="M23.5,32.1h0.3c0.1-0.3,0.5-0.6,0.8-0.6V31h-1.1V32.1z"/>
				<path class="st3" d="M24.7,30.9v0.7h0c-0.3,0-0.7,0.2-0.8,0.5l0,0h-0.4v-1.2H24.7z M24.6,31.5V31h-1v1h0.2
					C23.9,31.7,24.3,31.5,24.6,31.5z"/>
			</g>
			<g>
				<path class="st2" d="M25.5,32.1h0.3V31h-1.1v0.6C25,31.5,25.4,31.8,25.5,32.1z"/>
				<path class="st3" d="M25.8,30.9v1.2h-0.4l0,0c-0.1-0.3-0.4-0.5-0.8-0.5h0v-0.7H25.8z M25.7,32.1v-1h-1v0.5
					c0.4,0,0.7,0.2,0.8,0.6H25.7z"/>
			</g>
		</g>
		<g>
			<g>
				<path class="st2" d="M26.6,32.1h0.3c0.1-0.3,0.5-0.6,0.8-0.6V31h-1.1V32.1z"/>
				<path class="st3" d="M27.8,30.9v0.7h0c-0.3,0-0.7,0.2-0.8,0.5l0,0h-0.4v-1.2H27.8z M27.7,31.5V31h-1v1h0.2
					C27,31.7,27.3,31.5,27.7,31.5z"/>
			</g>
			<g>
				<path class="st2" d="M28.6,32.1h0.3V31h-1.1v0.6C28.1,31.5,28.4,31.8,28.6,32.1z"/>
				<path class="st3" d="M28.9,30.9v1.2h-0.4l0,0c-0.1-0.3-0.4-0.5-0.8-0.5h0v-0.7H28.9z M28.8,32.1v-1h-1v0.5
					c0.4,0,0.7,0.2,0.8,0.6H28.8z"/>
			</g>
		</g>
		<g>
			<g>
				<path class="st2" d="M29.7,32.1H30c0.1-0.3,0.5-0.6,0.8-0.6V31h-1.1V32.1z"/>
				<path class="st3" d="M30.8,30.9v0.7h0c-0.3,0-0.7,0.2-0.8,0.5l0,0h-0.4v-1.2H30.8z M30.8,31.5V31h-1v1h0.2
					C30.1,31.7,30.4,31.5,30.8,31.5z"/>
			</g>
			<g>
				<path class="st2" d="M31.6,32.1h0.3V31h-1.1v0.6C31.2,31.5,31.5,31.8,31.6,32.1z"/>
				<path class="st3" d="M32,30.9v1.2h-0.4l0,0c-0.1-0.3-0.4-0.5-0.8-0.5h0v-0.7H32z M31.9,32.1v-1h-1v0.5c0.4,0,0.7,0.2,0.8,0.6
					H31.9z"/>
			</g>
		</g>
		<g>
			<g>
				<path class="st2" d="M5.1,4.6h0.3c0.1,0.3,0.5,0.6,0.8,0.6v0.6H5.1V4.6z"/>
				<path class="st3" d="M6.3,5.1v0.7H5.1V4.5h0.4l0,0C5.6,4.9,5.9,5.1,6.3,5.1L6.3,5.1z M6.2,5.6V5.2c-0.4,0-0.7-0.2-0.8-0.6H5.2v1
					H6.2z"/>
			</g>
			<g>
				<path class="st2" d="M7.1,4.6h0.3v1.1H6.2V5.1C6.6,5.1,6.9,4.9,7.1,4.6z"/>
				<path class="st3" d="M7.4,4.5v1.2H6.2V5.1h0c0.3,0,0.7-0.2,0.8-0.5l0,0H7.4z M7.3,5.6v-1H7.1C6.9,4.9,6.6,5.2,6.3,5.2v0.5H7.3z"
					/>
			</g>
		</g>
		<g>
			<g>
				<path class="st2" d="M8.2,4.6h0.3c0.1,0.3,0.5,0.6,0.8,0.6v0.6H8.2V4.6z"/>
				<path class="st3" d="M9.3,5.1v0.7H8.1V4.5h0.4l0,0C8.6,4.9,8.9,5.1,9.3,5.1L9.3,5.1z M9.2,5.6V5.2c-0.4,0-0.7-0.2-0.8-0.6H8.2v1
					H9.2z"/>
			</g>
			<g>
				<path class="st2" d="M10.1,4.6h0.3v1.1H9.3V5.1C9.7,5.1,10,4.9,10.1,4.6z"/>
				<path class="st3" d="M10.5,4.5v1.2H9.2V5.1h0c0.3,0,0.7-0.2,0.8-0.5l0,0H10.5z M10.4,5.6v-1h-0.2C10,4.9,9.7,5.2,9.3,5.2v0.5
					H10.4z"/>
			</g>
		</g>
		<g>
			<g>
				<path class="st2" d="M11.2,4.6h0.3c0.1,0.3,0.5,0.6,0.8,0.6v0.6h-1.1V4.6z"/>
				<path class="st3" d="M12.4,5.1v0.7h-1.2V4.5h0.4l0,0C11.7,4.9,12,5.1,12.4,5.1L12.4,5.1z M12.3,5.6V5.2c-0.4,0-0.7-0.2-0.8-0.6
					h-0.2v1H12.3z"/>
			</g>
			<g>
				<path class="st2" d="M13.2,4.6h0.3v1.1h-1.1V5.1C12.7,5.1,13.1,4.9,13.2,4.6z"/>
				<path class="st3" d="M13.5,4.5v1.2h-1.2V5.1h0c0.3,0,0.7-0.2,0.8-0.5l0,0H13.5z M13.4,5.6v-1h-0.2c-0.1,0.3-0.5,0.5-0.8,0.6v0.5
					H13.4z"/>
			</g>
		</g>
		<g>
			<g>
				<path class="st2" d="M14.3,4.6h0.3c0.1,0.3,0.5,0.6,0.8,0.6v0.6h-1.1V4.6z"/>
				<path class="st3" d="M15.5,5.1v0.7h-1.2V4.5h0.4l0,0C14.8,4.9,15.1,5.1,15.5,5.1L15.5,5.1z M15.4,5.6V5.2
					c-0.4,0-0.7-0.2-0.8-0.6h-0.2v1H15.4z"/>
			</g>
			<g>
				<path class="st2" d="M16.3,4.6h0.3v1.1h-1.1V5.1C15.8,5.1,16.1,4.9,16.3,4.6z"/>
				<path class="st3" d="M16.6,4.5v1.2h-1.2V5.1h0c0.3,0,0.7-0.2,0.8-0.5l0,0H16.6z M16.5,5.6v-1h-0.2c-0.1,0.3-0.5,0.5-0.8,0.6v0.5
					H16.5z"/>
			</g>
		</g>
		<g>
			<g>
				<path class="st2" d="M17.4,4.6h0.3c0.1,0.3,0.5,0.6,0.8,0.6v0.6h-1.1V4.6z"/>
				<path class="st3" d="M18.6,5.1v0.7h-1.2V4.5h0.4l0,0C17.9,4.9,18.2,5.1,18.6,5.1L18.6,5.1z M18.5,5.6V5.2
					c-0.4,0-0.7-0.2-0.8-0.6h-0.2v1H18.5z"/>
			</g>
			<g>
				<path class="st2" d="M19.3,4.6h0.3v1.1h-1.1V5.1C18.9,5.1,19.2,4.9,19.3,4.6z"/>
				<path class="st3" d="M19.7,4.5v1.2h-1.2V5.1h0c0.3,0,0.7-0.2,0.8-0.5l0,0H19.7z M19.6,5.6v-1h-0.2c-0.1,0.3-0.5,0.5-0.8,0.6v0.5
					H19.6z"/>
			</g>
		</g>
		<g>
			<g>
				<path class="st2" d="M20.5,4.6h0.3c0.1,0.3,0.5,0.6,0.8,0.6v0.6h-1.1V4.6z"/>
				<path class="st3" d="M21.6,5.1v0.7h-1.2V4.5h0.4l0,0C20.9,4.9,21.2,5.1,21.6,5.1L21.6,5.1z M21.5,5.6V5.2
					c-0.4,0-0.7-0.2-0.8-0.6h-0.2v1H21.5z"/>
			</g>
			<g>
				<path class="st2" d="M22.4,4.6h0.3v1.1h-1.1V5.1C22,5.1,22.3,4.9,22.4,4.6z"/>
				<path class="st3" d="M22.8,4.5v1.2h-1.2V5.1h0c0.3,0,0.7-0.2,0.8-0.5l0,0H22.8z M22.7,5.6v-1h-0.2c-0.1,0.3-0.5,0.5-0.8,0.6v0.5
					H22.7z"/>
			</g>
		</g>
		<g>
			<g>
				<path class="st2" d="M23.5,4.6h0.3c0.1,0.3,0.5,0.6,0.8,0.6v0.6h-1.1V4.6z"/>
				<path class="st3" d="M24.7,5.1v0.7h-1.2V4.5h0.4l0,0C24,4.9,24.3,5.1,24.7,5.1L24.7,5.1z M24.6,5.6V5.2c-0.4,0-0.7-0.2-0.8-0.6
					h-0.2v1H24.6z"/>
			</g>
			<g>
				<path class="st2" d="M25.5,4.6h0.3v1.1h-1.1V5.1C25,5.1,25.4,4.9,25.5,4.6z"/>
				<path class="st3" d="M25.8,4.5v1.2h-1.2V5.1h0c0.3,0,0.7-0.2,0.8-0.5l0,0H25.8z M25.7,5.6v-1h-0.2c-0.1,0.3-0.5,0.5-0.8,0.6v0.5
					H25.7z"/>
			</g>
		</g>
		<g>
			<g>
				<path class="st2" d="M26.6,4.6h0.3c0.1,0.3,0.5,0.6,0.8,0.6v0.6h-1.1V4.6z"/>
				<path class="st3" d="M27.8,5.1v0.7h-1.2V4.5h0.4l0,0C27.1,4.9,27.4,5.1,27.8,5.1L27.8,5.1z M27.7,5.6V5.2
					c-0.4,0-0.7-0.2-0.8-0.6h-0.2v1H27.7z"/>
			</g>
			<g>
				<path class="st2" d="M28.6,4.6h0.3v1.1h-1.1V5.1C28.1,5.1,28.4,4.9,28.6,4.6z"/>
				<path class="st3" d="M28.9,4.5v1.2h-1.2V5.1h0c0.3,0,0.7-0.2,0.8-0.5l0,0H28.9z M28.8,5.6v-1h-0.2c-0.1,0.3-0.5,0.5-0.8,0.6v0.5
					H28.8z"/>
			</g>
		</g>
		<g>
			<g>
				<path class="st2" d="M29.7,4.6H30c0.1,0.3,0.5,0.6,0.8,0.6v0.6h-1.1V4.6z"/>
				<path class="st3" d="M30.8,5.1v0.7h-1.2V4.5H30l0,0C30.1,4.9,30.5,5.1,30.8,5.1L30.8,5.1z M30.8,5.6V5.2c-0.4,0-0.7-0.2-0.8-0.6
					h-0.2v1H30.8z"/>
			</g>
			<g>
				<path class="st2" d="M31.6,4.6h0.3v1.1h-1.1V5.1C31.2,5.1,31.5,4.9,31.6,4.6z"/>
				<path class="st3" d="M32,4.5v1.2h-1.2V5.1h0c0.3,0,0.7-0.2,0.8-0.5l0,0H32z M31.9,5.6v-1h-0.2c-0.1,0.3-0.5,0.5-0.8,0.6v0.5
					H31.9z"/>
			</g>
		</g>
		<g>
			<path class="st4" d="M31.4,9.5v17.6c0,2.3-1.8,4.1-4.1,4.1H9.6c-2.3,0-4.1-1.8-4.1-4.1V9.5c0-2.3,1.8-4.1,4.1-4.1h17.6
				C29.5,5.4,31.4,7.2,31.4,9.5z"/>
		</g>
		<g>
			<path class="st5" d="M30.3,12.1v12.5c0,3.1-2.5,5.5-5.5,5.5H12.2c-3.1,0-5.5-2.5-5.5-5.5V12.1c0-3.1,2.5-5.5,5.5-5.5h12.5
				C27.8,6.5,30.3,9,30.3,12.1z"/>
		</g>
	</g>
	<g>
		<g>
			<path class="st6" d="M5.7,41.3c0-1.1-0.9-2-2-2s-2,0.9-2,2c0,1.1,0.9,2,2,2S5.7,42.4,5.7,41.3z M2.2,41.3c0-0.8,0.7-1.5,1.5-1.5
				s1.5,0.7,1.5,1.5c0,0.8-0.7,1.5-1.5,1.5S2.2,42.2,2.2,41.3z"/>
		</g>
		<g>
			<path class="st6" d="M8.7,41.3c0,1.1,0.9,2,2,2s2-0.9,2-2c0-1.1-0.9-2-2-2S8.7,40.2,8.7,41.3z M12.2,41.3c0,0.8-0.7,1.5-1.5,1.5
				s-1.5-0.7-1.5-1.5c0-0.8,0.7-1.5,1.5-1.5S12.2,40.5,12.2,41.3z"/>
		</g>
		<g>
			<path class="st6" d="M15.7,41.3c0,1.1,0.9,2,2,2c1.1,0,2-0.9,2-2c0-1.1-0.9-2-2-2C16.6,39.4,15.7,40.2,15.7,41.3z M19.3,41.3
				c0,0.8-0.7,1.5-1.5,1.5s-1.5-0.7-1.5-1.5c0-0.8,0.7-1.5,1.5-1.5S19.3,40.5,19.3,41.3z"/>
		</g>
		<g>
			<path class="st6" d="M22.8,41.3c0,1.1,0.9,2,2,2c1.1,0,2-0.9,2-2c0-1.1-0.9-2-2-2C23.6,39.4,22.8,40.2,22.8,41.3z M26.3,41.3
				c0,0.8-0.7,1.5-1.5,1.5c-0.8,0-1.5-0.7-1.5-1.5c0-0.8,0.7-1.5,1.5-1.5C25.6,39.8,26.3,40.5,26.3,41.3z"/>
		</g>
		<g>
			<path class="st6" d="M34.3,43.6v-4.2h-4.2v4.2H34.3z M30.7,41.5c0-0.8,0.7-1.5,1.5-1.5c0.8,0,1.5,0.7,1.5,1.5S33,43,32.2,43
				C31.3,43,30.7,42.3,30.7,41.5z"/>
		</g>
	</g>
</g>
<g>
	<rect x="3.1" y="46.3" class="st7" width="1.4" height="8"/>
	<rect x="3.2" y="46.3" class="st8" width="1.1" height="8"/>
	<polygon class="st8" points="4.2,54.9 4.4,54.4 3,54.4 3.3,54.9 	"/>
	<polygon class="st2" points="4.2,54.9 4.3,54.4 3.2,54.4 3.3,54.9 	"/>
</g>
<g>
	<rect x="10.2" y="46.4" class="st7" width="1.4" height="8"/>
	<rect x="10.3" y="46.4" class="st8" width="1.1" height="8"/>
	<polygon class="st8" points="11.3,54.9 11.6,54.4 10.2,54.4 10.5,54.9 	"/>
	<polygon class="st2" points="11.3,54.9 11.5,54.4 10.3,54.4 10.5,54.9 	"/>
</g>
<g>
	<rect x="17.3" y="46.4" class="st7" width="1.4" height="8"/>
	<rect x="17.4" y="46.4" class="st8" width="1.1" height="8"/>
	<polygon class="st8" points="18.4,54.9 18.7,54.4 17.3,54.4 17.6,54.9 	"/>
	<polygon class="st2" points="18.4,54.9 18.6,54.4 17.4,54.4 17.6,54.9 	"/>
</g>
<g>
	<rect x="24.5" y="46.3" class="st7" width="1.4" height="8"/>
	<rect x="24.6" y="46.3" class="st8" width="1.1" height="8"/>
	<polygon class="st8" points="25.6,54.9 25.9,54.4 24.5,54.4 24.7,54.9 	"/>
	<polygon class="st2" points="25.6,54.9 25.7,54.4 24.6,54.4 24.7,54.9 	"/>
</g>
<g>
	<rect x="16.5" y="53.3" class="st0" width="3" height="17.2"/>
</g>
<g>
	<rect x="9.4" y="53.3" width="3" height="13.4"/>
</g>
<g>
	<rect x="2.2" y="53.3" class="st9" width="3" height="13.4"/>
</g>
<g>
	<rect x="23.7" y="53.3" class="st10" width="3" height="17.2"/>
</g>
<polyline class="st11" points="0.3,66.7 15.6,66.7 11.9,70.5 27.9,70.5 "/>
<polyline class="st11" points="0.3,70 9,70 5.9,73.2 27.9,73.2 "/>
</svg>
