<?xml version="1.0" encoding="utf-8"?>
<!-- Generator: Adobe Illustrator 20.1.0, SVG Export Plug-In . SVG Version: 6.00 Build 0)  -->
<svg version="1.1" id="Layer_1" xmlns="http://www.w3.org/2000/svg" xmlns:xlink="http://www.w3.org/1999/xlink" x="0px" y="0px"
	 viewBox="0 0 395 305" style="enable-background:new 0 0 395 305;" xml:space="preserve">
<style type="text/css">
	.st0{fill:#D20F0D;}
	.st1{fill:#EDEDF2;}
	.st2{fill:none;stroke:#C9B55E;stroke-width:0.5;stroke-miterlimit:10;}
	.st3{fill:#FFFFFF;}
	.st4{fill:#DDDDDC;}
	.st5{fill:#6D6E6E;}
	.st6{fill:none;stroke:#6D6E6E;stroke-width:5.000000e-02;stroke-miterlimit:10;}
	.st7{fill:#C8C8C8;}
	.st8{fill:#C9B55E;}
	.st9{fill:none;stroke:#FFFFFF;stroke-miterlimit:10;}
	.st10{fill:#EDEDF2;stroke:#FFFFFF;stroke-miterlimit:10;}
	.st11{fill:#474748;}
	.st12{font-family:'ArialRoundedMTBold';}
	.st13{font-size:6.2557px;}
	.st14{fill:none;stroke:#FFFFFF;stroke-width:0.25;stroke-miterlimit:10;}
	.st15{fill:#FDE74A;}
	.st16{fill:#665500;}
	.st17{font-size:10.9475px;}
	.st18{fill:#7C6B2B;stroke:#C9B55E;stroke-miterlimit:10;}
	.st19{fill:#E5D48B;}
	.st20{fill:#D3C17E;}
	.st21{fill:#B59D38;}
	.st22{fill:#232323;}
	.st23{fill:#E79D2E;}
	.st24{fill:#FFCA38;}
</style>
<g>
	<g>
		<path class="st0" d="M381.2,74.3V14.1c0-7.8-6.3-14.1-14.1-14.1H19.9C12.1,0,5.8,6.3,5.8,14.1v276c0,7.8,6.3,14.1,14.1,14.1h347.2
			c7.8,0,14.1-6.3,14.1-14.1v-1.6l14.1-14.1V89.9L381.2,74.3z M91.7,23.7c-5.4,0-9.9-4.4-9.9-9.9S86.3,4,91.7,4
			c5.4,0,9.9,4.4,9.9,9.9S97.1,23.7,91.7,23.7z M381.1,271.8c-5.4,0-9.9-4.4-9.9-9.9s4.4-9.9,9.9-9.9s9.9,4.4,9.9,9.9
			S386.6,271.8,381.1,271.8z M381.1,111.7c-5.4,0-9.9-4.4-9.9-9.9s4.4-9.9,9.9-9.9s9.9,4.4,9.9,9.9S386.6,111.7,381.1,111.7z"/>
	</g>
	<g>
		
			<rect x="19.8" y="109.1" transform="matrix(-1.836970e-16 1 -1 -1.836970e-16 138.4855 88.2542)" class="st1" width="10.6" height="8.6"/>
		
			<rect x="19.8" y="109.1" transform="matrix(-1.836970e-16 1 -1 -1.836970e-16 138.4855 88.2542)" class="st2" width="10.6" height="8.6"/>
	</g>
	<g>
		
			<rect x="6.8" y="118.5" transform="matrix(-1.836970e-16 1 -1 -1.836970e-16 136.2728 111.8194)" class="st1" width="10.9" height="11"/>
		
			<rect x="6.8" y="118.5" transform="matrix(-1.836970e-16 1 -1 -1.836970e-16 136.2728 111.8194)" class="st2" width="10.9" height="11"/>
	</g>
	<g>
		
			<rect x="6.8" y="131.5" transform="matrix(-1.836970e-16 1 -1 -1.836970e-16 149.2471 124.7937)" class="st1" width="10.9" height="11"/>
		
			<rect x="6.8" y="131.5" transform="matrix(-1.836970e-16 1 -1 -1.836970e-16 149.2471 124.7937)" class="st2" width="10.9" height="11"/>
	</g>
	<g>
		
			<rect x="19.8" y="143.9" transform="matrix(-1.836970e-16 1 -1 -1.836970e-16 173.2662 123.035)" class="st1" width="10.6" height="8.6"/>
		
			<rect x="19.8" y="143.9" transform="matrix(-1.836970e-16 1 -1 -1.836970e-16 173.2662 123.035)" class="st2" width="10.6" height="8.6"/>
	</g>
	<g id="micro_usb_1_">
		<g>
			<path class="st3" d="M28.1,141.4c0-1.1-0.9-2-2-2c-1.1,0-2,0.9-2,2v3h-1.6v-26.8h1.6v3c0,1.1,0.9,2,2,2c1.1,0,2-0.9,2-2v-6.8
				c0-1.5-1.2-2.7-2.7-2.7h-2.9H4.1V151h18.4h2.9c1.5,0,2.7-1.2,2.7-2.7V141.4z"/>
			
				<rect x="-16.2" y="129.8" transform="matrix(-1.836970e-16 1 -1 -1.836970e-16 132.1897 129.8492)" class="st4" width="34.7" height="2.3"/>
			
				<rect x="19.4" y="127.5" transform="matrix(-1.836970e-16 1 -1 -1.836970e-16 156.9319 105.1069)" class="st3" width="13" height="7"/>
			<polygon class="st4" points="31.6,115.5 30.5,115.5 30.5,124.5 29.4,124.5 29.4,137.5 30.5,137.5 30.5,146.5 31.6,146.5 			"/>
			<polygon class="st1" points="4.1,151 4.1,151 4.1,111.1 2.6,109.6 1.5,110.7 2.3,111.7 2.3,150.3 1.5,151.3 2.6,152.5 			"/>
			<path class="st4" d="M9.7,120.5v-1h5.9c0.5,0,0.9-0.4,0.9-0.9v-1.9c0-0.5-0.4-0.9-0.9-0.9H9.7v-1c0-0.4-0.4-0.8-0.8-0.8
				c-0.4,0-0.8,0.4-0.8,0.8v5.6c0,0.4,0.4,0.8,0.8,0.8C9.3,121.3,9.7,121,9.7,120.5z"/>
			
				<rect x="11" y="117.1" transform="matrix(-1.836970e-16 1 -1 -1.836970e-16 130.0123 105.4427)" class="st5" width="2.6" height="1.3"/>
			
				<rect x="21.7" y="130.4" transform="matrix(-1.836970e-16 1 -1 -1.836970e-16 154.0879 107.9509)" class="st5" width="2.6" height="1.3"/>
			<polyline class="st6" points="8.1,116.2 6.3,116.2 6.3,119.3 8.1,119.3 			"/>
			<path class="st4" d="M9.7,146.9v-1h5.9c0.5,0,0.9-0.4,0.9-0.9v-1.9c0-0.5-0.4-0.9-0.9-0.9H9.7v-1c0-0.4-0.4-0.8-0.8-0.8
				c-0.4,0-0.8,0.4-0.8,0.8v5.6c0,0.4,0.4,0.8,0.8,0.8C9.3,147.7,9.7,147.3,9.7,146.9z"/>
			
				<rect x="11" y="143.4" transform="matrix(-1.836970e-16 1 -1 -1.836970e-16 156.3444 131.7748)" class="st5" width="2.6" height="1.3"/>
			<polyline class="st6" points="8.1,142.5 6.3,142.5 6.3,145.6 8.1,145.6 			"/>
		</g>
		<g>
			
				<rect x="32.3" y="123.4" transform="matrix(6.123234e-17 -1 1 6.123234e-17 -91.8261 158.2441)" class="st7" width="1.8" height="3.2"/>
			
				<rect x="34.7" y="124.3" transform="matrix(6.123234e-17 -1 1 6.123234e-17 -89.4657 160.6045)" class="st8" width="1.8" height="1.5"/>
		</g>
		<g>
			
				<rect x="32.3" y="126.9" transform="matrix(6.123234e-17 -1 1 6.123234e-17 -95.3219 161.7399)" class="st7" width="1.8" height="3.2"/>
			
				<rect x="34.7" y="127.8" transform="matrix(6.123234e-17 -1 1 6.123234e-17 -92.9615 164.1003)" class="st8" width="1.8" height="1.5"/>
		</g>
		<g>
			
				<rect x="32.3" y="130.4" transform="matrix(6.123234e-17 -1 1 6.123234e-17 -98.8177 165.2357)" class="st7" width="1.8" height="3.2"/>
			
				<rect x="34.7" y="131.3" transform="matrix(6.123234e-17 -1 1 6.123234e-17 -96.4573 167.5961)" class="st8" width="1.8" height="1.5"/>
		</g>
		<g>
			
				<rect x="32.3" y="133.9" transform="matrix(6.123234e-17 -1 1 6.123234e-17 -102.3135 168.7315)" class="st7" width="1.8" height="3.2"/>
		</g>
		<g>
			
				<rect x="32.3" y="137.4" transform="matrix(6.123234e-17 -1 1 6.123234e-17 -105.8093 172.2273)" class="st7" width="1.8" height="3.2"/>
			
				<rect x="34.7" y="138.3" transform="matrix(6.123234e-17 -1 1 6.123234e-17 -103.4489 174.5877)" class="st8" width="1.8" height="1.5"/>
		</g>
		
			<rect x="25.5" y="119.5" transform="matrix(-1.836970e-16 1 -1 -1.836970e-16 149.9601 90.077)" class="st1" width="9" height="1.1"/>
		
			<rect x="25.5" y="141.5" transform="matrix(-1.836970e-16 1 -1 -1.836970e-16 171.962 112.0788)" class="st1" width="9" height="1.1"/>
	</g>
	<g>
		<rect x="16.1" y="160.3" class="st9" width="18.7" height="29"/>
		<g>
			<rect x="33.2" y="163.4" class="st1" width="7.6" height="3.8"/>
			<rect x="33.2" y="172.3" class="st1" width="7.6" height="3.8"/>
			<rect x="33.2" y="181.2" class="st1" width="7.6" height="3.8"/>
		</g>
		<circle class="st10" cx="17.3" cy="174.9" r="6"/>
		<rect x="20.5" y="161.3" class="st11" width="13" height="25.8"/>
	</g>
	<g>
		<text transform="matrix(1 0 0 1 10.2235 197.8978)" class="st3 st12 st13">U1</text>
	</g>
	<g>
		<text transform="matrix(1 0 0 1 16.4784 105.8206)" class="st3 st12 st13">J1</text>
	</g>
	<g>
		<text transform="matrix(1 0 0 1 74.3925 162.7083)" class="st3 st12 st13">C8</text>
	</g>
	<g>
		<text transform="matrix(1 0 0 1 74.3925 173.3519)" class="st3 st12 st13">C3</text>
	</g>
	<g>
		<text transform="matrix(0 -1 1 0 98.8895 149.5726)" class="st3 st12 st13">C15</text>
	</g>
	<g>
		<text transform="matrix(0 -1 1 0 105.1464 149.5726)" class="st3 st12 st13">C1</text>
	</g>
	<g>
		<text transform="matrix(0 -1 1 0 110.5214 122.7908)" class="st3 st12 st13">C6</text>
	</g>
	<g>
		<text transform="matrix(0 -1 1 0 111.1093 149.5726)" class="st3 st12 st13">A11</text>
	</g>
	<g>
		<text transform="matrix(1 0 0 1 44.83 137.2083)" class="st3 st12 st13">F1</text>
	</g>
	<g>
		<text transform="matrix(0 -1 1 0 47.455 113.3699)" class="st3 st12 st13">U2</text>
	</g>
	<g>
		<text transform="matrix(1 0 0 1 19.3817 65.3885)" class="st3 st12 st13">X1</text>
	</g>
	<g>
		<text transform="matrix(1 0 0 1 24.0721 27.2679)" class="st3 st12 st13">L</text>
	</g>
	<g>
		<text transform="matrix(1 0 0 1 45.6581 27.2679)" class="st3 st12 st13">R12</text>
	</g>
	<g>
		<text transform="matrix(0 -1 1 0 83.1356 56.619)" class="st3 st12 st13">C1</text>
	</g>
	<g>
		<text transform="matrix(0 -1 1 0 91.0594 56.619)" class="st3 st12 st13">R3</text>
	</g>
	<g>
		<text transform="matrix(0 -1 1 0 98.8905 56.619)" class="st3 st12 st13">R2</text>
	</g>
	<g>
		<text transform="matrix(1 0 0 1 12.2264 75.2611)" class="st3 st12 st13">C11C10</text>
	</g>
	<g>
		<text transform="matrix(1 0 0 1 48.0184 206.6361)" class="st3 st12 st13">U4</text>
	</g>
	<text transform="matrix(0 -1 1 0 13.2909 230.6234)" class="st3 st12 st13">C5</text>
	<text transform="matrix(0 -1 1 0 13.2909 221.6302)" class="st3 st12 st13">C9</text>
	<text transform="matrix(0 -1 1 0 13.2909 211.8558)" class="st3 st12 st13">C7</text>
	<g>
		<text transform="matrix(0 -1 1 0 81.0614 197.5199)" class="st3 st12 st13">C13</text>
	</g>
	<g>
		<text transform="matrix(0 -1 1 0 92.8885 197.5452)" class="st3 st12 st13">X2</text>
	</g>
	<g>
		<text transform="matrix(0 -1 1 0 81.0614 245.3499)" class="st3 st12 st13">C12</text>
	</g>
	<g>
		<rect x="14.9" y="204.5" class="st9" width="17.2" height="8.5"/>
		<g>
			<rect x="16.8" y="206.6" class="st1" width="3.8" height="3.8"/>
			<rect x="20.5" y="206.6" class="st8" width="4.5" height="3.8"/>
			<rect x="25.1" y="206.6" class="st1" width="3.8" height="3.8"/>
		</g>
	</g>
	<g>
		
			<rect x="69.4" y="203.8" transform="matrix(6.123234e-17 -1 1 6.123234e-17 -130.0367 285.97)" class="st9" width="17.2" height="8.5"/>
		<g>
			
				<rect x="75.9" y="211" transform="matrix(6.123234e-17 -1 1 6.123234e-17 -135.1124 290.6292)" class="st1" width="3.8" height="3.8"/>
			
				<rect x="75.5" y="206.8" transform="matrix(6.123234e-17 -1 1 6.123234e-17 -130.9673 286.4842)" class="st8" width="4.5" height="3.8"/>
			
				<rect x="75.9" y="202.7" transform="matrix(6.123234e-17 -1 1 6.123234e-17 -126.8223 282.3392)" class="st1" width="3.8" height="3.8"/>
		</g>
	</g>
	<g>
		
			<rect x="64.9" y="138.5" transform="matrix(6.123234e-17 -1 1 6.123234e-17 -69.757 215.1608)" class="st9" width="15.7" height="8"/>
		<g>
			
				<rect x="70.6" y="144.7" transform="matrix(6.123234e-17 -1 1 6.123234e-17 -74.0483 219.0809)" class="st1" width="3.8" height="3.8"/>
			
				<rect x="70.2" y="140.5" transform="matrix(6.123234e-17 -1 1 6.123234e-17 -69.9033 214.9359)" class="st8" width="4.5" height="3.8"/>
			
				<rect x="70.6" y="136.4" transform="matrix(6.123234e-17 -1 1 6.123234e-17 -65.7583 210.7908)" class="st1" width="3.8" height="3.8"/>
		</g>
	</g>
	<g>
		
			<rect x="72.8" y="138.5" transform="matrix(6.123234e-17 -1 1 6.123234e-17 -61.7801 223.1377)" class="st9" width="15.7" height="8"/>
		<g>
			
				<rect x="78.6" y="144.7" transform="matrix(6.123234e-17 -1 1 6.123234e-17 -66.0713 227.0578)" class="st1" width="3.8" height="3.8"/>
			
				<rect x="78.2" y="140.5" transform="matrix(6.123234e-17 -1 1 6.123234e-17 -61.9263 222.9128)" class="st8" width="4.5" height="3.8"/>
			
				<rect x="78.6" y="136.4" transform="matrix(6.123234e-17 -1 1 6.123234e-17 -57.7813 218.7678)" class="st1" width="3.8" height="3.8"/>
		</g>
	</g>
	<g>
		
			<rect x="80.8" y="138.5" transform="matrix(6.123234e-17 -1 1 6.123234e-17 -53.8031 231.1146)" class="st9" width="15.7" height="8"/>
		<g>
			
				<rect x="86.6" y="144.7" transform="matrix(6.123234e-17 -1 1 6.123234e-17 -58.0944 235.0347)" class="st1" width="3.8" height="3.8"/>
			
				<rect x="86.2" y="140.5" transform="matrix(6.123234e-17 -1 1 6.123234e-17 -53.9494 230.8897)" class="st8" width="4.5" height="3.8"/>
			
				<rect x="86.6" y="136.4" transform="matrix(6.123234e-17 -1 1 6.123234e-17 -49.8044 226.7447)" class="st1" width="3.8" height="3.8"/>
		</g>
	</g>
	<g>
		
			<rect x="92.3" y="113.8" transform="matrix(6.123234e-17 -1 1 6.123234e-17 -17.6552 217.8393)" class="st9" width="15.7" height="8"/>
		<g>
			
				<rect x="98" y="120" transform="matrix(6.123234e-17 -1 1 6.123234e-17 -21.9465 221.7594)" class="st1" width="3.8" height="3.8"/>
			
				<rect x="97.6" y="115.8" transform="matrix(6.123234e-17 -1 1 6.123234e-17 -17.8014 217.6143)" class="st8" width="4.5" height="3.8"/>
			
				<rect x="98" y="111.7" transform="matrix(6.123234e-17 -1 1 6.123234e-17 -13.6564 213.4693)" class="st1" width="3.8" height="3.8"/>
		</g>
	</g>
	<g>
		<rect x="39.6" y="69.2" class="st9" width="15.7" height="8"/>
		<g>
			<rect x="41.5" y="71.2" class="st1" width="3.8" height="3.8"/>
			<rect x="45.2" y="71.2" class="st8" width="4.5" height="3.8"/>
			<rect x="49.8" y="71.2" class="st1" width="3.8" height="3.8"/>
		</g>
	</g>
	<g>
		<rect x="19.4" y="28.6" class="st9" width="15.7" height="8"/>
		<g>
			<rect x="21.2" y="30.5" class="st1" width="3.8" height="3.8"/>
			<rect x="25" y="30.5" class="st8" width="4.5" height="3.8"/>
			<rect x="29.5" y="30.5" class="st1" width="3.8" height="3.8"/>
		</g>
	</g>
	<g>
		<rect x="43.8" y="28.6" class="st9" width="15.7" height="8"/>
		<g>
			<rect x="45.7" y="30.5" class="st1" width="3.8" height="3.8"/>
			<rect x="49.4" y="30.5" class="st11" width="4.5" height="3.8"/>
			<rect x="53.9" y="30.5" class="st1" width="3.8" height="3.8"/>
		</g>
	</g>
	<g>
		<rect x="58.1" y="69.2" class="st9" width="15.7" height="8"/>
		<g>
			<rect x="60" y="71.2" class="st1" width="3.8" height="3.8"/>
			<rect x="63.7" y="71.2" class="st8" width="4.5" height="3.8"/>
			<rect x="68.3" y="71.2" class="st1" width="3.8" height="3.8"/>
		</g>
	</g>
	<g>
		
			<rect x="73.2" y="61.6" transform="matrix(6.123234e-17 -1 1 6.123234e-17 15.4935 146.6281)" class="st9" width="15.7" height="8"/>
		<g>
			
				<rect x="79" y="67.8" transform="matrix(6.123234e-17 -1 1 6.123234e-17 11.2022 150.5482)" class="st1" width="3.8" height="3.8"/>
			
				<rect x="78.6" y="63.7" transform="matrix(6.123234e-17 -1 1 6.123234e-17 15.3472 146.4032)" class="st8" width="4.5" height="3.8"/>
			
				<rect x="79" y="59.5" transform="matrix(6.123234e-17 -1 1 6.123234e-17 19.4923 142.2581)" class="st1" width="3.8" height="3.8"/>
		</g>
	</g>
	<g>
		
			<rect x="81.6" y="61.6" transform="matrix(6.123234e-17 -1 1 6.123234e-17 23.9086 155.0432)" class="st9" width="15.7" height="8"/>
		<g>
			
				<rect x="87.4" y="67.8" transform="matrix(6.123234e-17 -1 1 6.123234e-17 19.6174 158.9633)" class="st1" width="3.8" height="3.8"/>
			
				<rect x="87" y="63.7" transform="matrix(6.123234e-17 -1 1 6.123234e-17 23.7624 154.8183)" class="st11" width="4.5" height="3.8"/>
			
				<rect x="87.4" y="59.5" transform="matrix(6.123234e-17 -1 1 6.123234e-17 27.9074 150.6733)" class="st1" width="3.8" height="3.8"/>
		</g>
	</g>
	<g>
		
			<rect x="90.1" y="61.6" transform="matrix(6.123234e-17 -1 1 6.123234e-17 32.3238 163.4584)" class="st9" width="15.7" height="8"/>
		<g>
			
				<rect x="95.8" y="67.8" transform="matrix(6.123234e-17 -1 1 6.123234e-17 28.0326 167.3785)" class="st1" width="3.8" height="3.8"/>
			
				<rect x="95.4" y="63.7" transform="matrix(6.123234e-17 -1 1 6.123234e-17 32.1776 163.2335)" class="st11" width="4.5" height="3.8"/>
			
				<rect x="95.8" y="59.5" transform="matrix(6.123234e-17 -1 1 6.123234e-17 36.3226 159.0885)" class="st1" width="3.8" height="3.8"/>
		</g>
	</g>
	<g>
		<text transform="matrix(0 -1 1 0 53.6219 281.973)" class="st3 st12 st13">PWR</text>
	</g>
	<g>
		
			<rect x="44.1" y="287.5" transform="matrix(6.123234e-17 -1 1 6.123234e-17 -239.6318 343.8137)" class="st9" width="15.9" height="8.5"/>
		<g>
			
				<rect x="50" y="294.1" transform="matrix(6.123234e-17 -1 1 6.123234e-17 -244.0721 347.8376)" class="st1" width="3.8" height="3.8"/>
			
				<rect x="49.6" y="289.9" transform="matrix(6.123234e-17 -1 1 6.123234e-17 -239.9271 343.6925)" class="st8" width="4.5" height="3.8"/>
			
				<rect x="50" y="285.8" transform="matrix(6.123234e-17 -1 1 6.123234e-17 -235.7821 339.5475)" class="st1" width="3.8" height="3.8"/>
		</g>
	</g>
	<g>
		<text transform="matrix(0 -1 1 0 64.08 281.973)" class="st3 st12 st13">A9</text>
	</g>
	<g>
		
			<rect x="54.6" y="287.5" transform="matrix(6.123234e-17 -1 1 6.123234e-17 -229.173 354.2725)" class="st9" width="15.9" height="8.5"/>
		<g>
			
				<rect x="60.5" y="294.1" transform="matrix(6.123234e-17 -1 1 6.123234e-17 -233.6133 358.2964)" class="st1" width="3.8" height="3.8"/>
			
				<rect x="60.1" y="289.9" transform="matrix(6.123234e-17 -1 1 6.123234e-17 -229.4683 354.1513)" class="st11" width="4.5" height="3.8"/>
			
				<rect x="60.5" y="285.8" transform="matrix(6.123234e-17 -1 1 6.123234e-17 -225.3233 350.0063)" class="st1" width="3.8" height="3.8"/>
		</g>
	</g>
	<g>
		<text transform="matrix(0 -1 1 0 74.5389 281.973)" class="st3 st12 st13">A10</text>
	</g>
	<g>
		
			<rect x="65" y="287.5" transform="matrix(6.123234e-17 -1 1 6.123234e-17 -218.7142 364.7313)" class="st9" width="15.9" height="8.5"/>
		<g>
			
				<rect x="70.9" y="294.1" transform="matrix(6.123234e-17 -1 1 6.123234e-17 -223.1545 368.7552)" class="st1" width="3.8" height="3.8"/>
			
				<rect x="70.5" y="289.9" transform="matrix(6.123234e-17 -1 1 6.123234e-17 -219.0095 364.6102)" class="st11" width="4.5" height="3.8"/>
			
				<rect x="70.9" y="285.8" transform="matrix(6.123234e-17 -1 1 6.123234e-17 -214.8645 360.4651)" class="st1" width="3.8" height="3.8"/>
		</g>
	</g>
	<g>
		<text transform="matrix(0 -1 1 0 84.9969 281.973)" class="st3 st12 st13">RST</text>
	</g>
	<text transform="matrix(1 0 0 1 107.5546 276.5521)" class="st1 st12 st13">RESET</text>
	<g>
		
			<rect x="75.5" y="287.5" transform="matrix(6.123234e-17 -1 1 6.123234e-17 -208.2553 375.1901)" class="st9" width="15.9" height="8.5"/>
		<g>
			
				<rect x="81.4" y="294.1" transform="matrix(6.123234e-17 -1 1 6.123234e-17 -212.6957 379.214)" class="st1" width="3.8" height="3.8"/>
			
				<rect x="81" y="289.9" transform="matrix(6.123234e-17 -1 1 6.123234e-17 -208.5507 375.069)" class="st8" width="4.5" height="3.8"/>
			
				<rect x="81.4" y="285.8" transform="matrix(6.123234e-17 -1 1 6.123234e-17 -204.4057 370.924)" class="st1" width="3.8" height="3.8"/>
		</g>
	</g>
	<g>
		
			<rect x="69.4" y="220.8" transform="matrix(6.123234e-17 -1 1 6.123234e-17 -147.0907 303.0241)" class="st9" width="17.2" height="8.5"/>
		<g>
			
				<rect x="75.9" y="228" transform="matrix(6.123234e-17 -1 1 6.123234e-17 -152.1664 307.6833)" class="st1" width="3.8" height="3.8"/>
			
				<rect x="75.5" y="223.9" transform="matrix(6.123234e-17 -1 1 6.123234e-17 -148.0214 303.5383)" class="st8" width="4.5" height="3.8"/>
			
				<rect x="75.9" y="219.8" transform="matrix(6.123234e-17 -1 1 6.123234e-17 -143.8764 299.3933)" class="st1" width="3.8" height="3.8"/>
		</g>
	</g>
	<g>
		<rect x="14.9" y="213" class="st9" width="17.2" height="8.5"/>
		<g>
			<rect x="16.8" y="215.3" class="st1" width="3.8" height="3.8"/>
			<rect x="20.5" y="215.3" class="st8" width="4.5" height="3.8"/>
			<rect x="25.1" y="215.3" class="st1" width="3.8" height="3.8"/>
		</g>
	</g>
	<g>
		<rect x="14.9" y="221.4" class="st9" width="17.2" height="8.5"/>
		<g>
			<rect x="16.8" y="224" class="st1" width="3.8" height="3.8"/>
			<rect x="20.5" y="224" class="st8" width="4.5" height="3.8"/>
			<rect x="25.1" y="224" class="st1" width="3.8" height="3.8"/>
		</g>
	</g>
	<g>
		<g id="Atmega_1_">
			<g>
				<g>
					<rect x="41.7" y="238.1" class="st7" width="1" height="1.9"/>
					<rect x="41.7" y="239.9" class="st8" width="1" height="0.9"/>
				</g>
				<g>
					<rect x="44.3" y="238.1" class="st7" width="1" height="1.9"/>
					<rect x="44.3" y="239.9" class="st8" width="1" height="0.9"/>
				</g>
				<g>
					<rect x="47" y="238.1" class="st7" width="1" height="1.9"/>
					<rect x="47" y="239.9" class="st8" width="1" height="0.9"/>
				</g>
				<g>
					<rect x="49.6" y="238.1" class="st7" width="1" height="1.9"/>
				</g>
				<g>
					<rect x="52.3" y="238.1" class="st7" width="1" height="1.9"/>
					<rect x="52.3" y="239.9" class="st8" width="1" height="0.9"/>
				</g>
				<g>
					<rect x="54.9" y="238.1" class="st7" width="1" height="1.9"/>
					<rect x="54.9" y="239.9" class="st8" width="1" height="0.9"/>
				</g>
				<g>
					<rect x="57.6" y="238.1" class="st7" width="1" height="1.9"/>
					<rect x="57.6" y="239.9" class="st8" width="1" height="0.9"/>
				</g>
				<g>
					<rect x="60.2" y="238.1" class="st7" width="1" height="1.9"/>
					<rect x="60.2" y="239.9" class="st8" width="1" height="0.9"/>
				</g>
				<g>
					
						<rect x="64.7" y="233.6" transform="matrix(6.123234e-17 -1 1 6.123234e-17 -169.3047 299.8403)" class="st7" width="1" height="1.9"/>
					
						<rect x="66.1" y="234.1" transform="matrix(6.123234e-17 -1 1 6.123234e-17 -167.9382 301.2068)" class="st8" width="1" height="0.9"/>
				</g>
				<g>
					
						<rect x="64.7" y="231" transform="matrix(6.123234e-17 -1 1 6.123234e-17 -166.7011 297.2367)" class="st7" width="1" height="1.9"/>
					
						<rect x="66.1" y="231.5" transform="matrix(6.123234e-17 -1 1 6.123234e-17 -165.3347 298.6032)" class="st8" width="1" height="0.9"/>
				</g>
				<g>
					
						<rect x="64.7" y="228.4" transform="matrix(6.123234e-17 -1 1 6.123234e-17 -164.0975 294.6331)" class="st7" width="1" height="1.9"/>
				</g>
				<g>
					
						<rect x="64.7" y="225.8" transform="matrix(6.123234e-17 -1 1 6.123234e-17 -161.494 292.0295)" class="st7" width="1" height="1.9"/>
					
						<rect x="66.1" y="226.3" transform="matrix(6.123234e-17 -1 1 6.123234e-17 -160.1275 293.396)" class="st8" width="1" height="0.9"/>
				</g>
				<g>
					
						<rect x="64.7" y="223.2" transform="matrix(6.123234e-17 -1 1 6.123234e-17 -158.8904 289.426)" class="st7" width="1" height="1.9"/>
					
						<rect x="66.1" y="223.7" transform="matrix(6.123234e-17 -1 1 6.123234e-17 -157.5239 290.7924)" class="st8" width="1" height="0.9"/>
				</g>
				<g>
					
						<rect x="64.7" y="220.6" transform="matrix(6.123234e-17 -1 1 6.123234e-17 -156.2868 286.8224)" class="st7" width="1" height="1.9"/>
				</g>
				<g>
					
						<rect x="64.7" y="218" transform="matrix(6.123234e-17 -1 1 6.123234e-17 -153.6832 284.2188)" class="st7" width="1" height="1.9"/>
					
						<rect x="66.1" y="218.5" transform="matrix(6.123234e-17 -1 1 6.123234e-17 -152.3167 285.5853)" class="st8" width="1" height="0.9"/>
				</g>
				<g>
					
						<rect x="64.7" y="215.4" transform="matrix(6.123234e-17 -1 1 6.123234e-17 -151.0797 281.6152)" class="st7" width="1" height="1.9"/>
					
						<rect x="66.1" y="215.9" transform="matrix(6.123234e-17 -1 1 6.123234e-17 -149.7132 282.9817)" class="st8" width="1" height="0.9"/>
				</g>
				<g>
					
						<rect x="60.1" y="210.2" transform="matrix(-1 -1.224647e-16 1.224647e-16 -1 121.1668 422.1972)" class="st7" width="1" height="1.9"/>
					
						<rect x="60.1" y="209.3" transform="matrix(-1 -1.224647e-16 1.224647e-16 -1 121.1668 419.4642)" class="st8" width="1" height="0.9"/>
				</g>
				<g>
					
						<rect x="57.4" y="210.2" transform="matrix(-1 -1.224647e-16 1.224647e-16 -1 115.9159 422.1972)" class="st7" width="1" height="1.9"/>
					
						<rect x="57.4" y="209.3" transform="matrix(-1 -1.224647e-16 1.224647e-16 -1 115.9159 419.4642)" class="st8" width="1" height="0.9"/>
				</g>
				<g>
					
						<rect x="54.8" y="210.2" transform="matrix(-1 -1.224647e-16 1.224647e-16 -1 110.665 422.1972)" class="st7" width="1" height="1.9"/>
					
						<rect x="54.8" y="209.3" transform="matrix(-1 -1.224647e-16 1.224647e-16 -1 110.665 419.4642)" class="st8" width="1" height="0.9"/>
				</g>
				<g>
					
						<rect x="52.2" y="210.2" transform="matrix(-1 -1.224647e-16 1.224647e-16 -1 105.414 422.1972)" class="st7" width="1" height="1.9"/>
					
						<rect x="52.2" y="209.3" transform="matrix(-1 -1.224647e-16 1.224647e-16 -1 105.414 419.4642)" class="st8" width="1" height="0.9"/>
				</g>
				<g>
					
						<rect x="49.6" y="210.2" transform="matrix(-1 -1.224647e-16 1.224647e-16 -1 100.1631 422.1972)" class="st7" width="1" height="1.9"/>
					
						<rect x="49.6" y="209.3" transform="matrix(-1 -1.224647e-16 1.224647e-16 -1 100.1631 419.4642)" class="st8" width="1" height="0.9"/>
				</g>
				<g>
					
						<rect x="46.9" y="210.2" transform="matrix(-1 -1.224647e-16 1.224647e-16 -1 94.9122 422.1972)" class="st7" width="1" height="1.9"/>
					
						<rect x="46.9" y="209.3" transform="matrix(-1 -1.224647e-16 1.224647e-16 -1 94.9122 419.4642)" class="st8" width="1" height="0.9"/>
				</g>
				<g>
					
						<rect x="44.3" y="210.2" transform="matrix(-1 -1.224647e-16 1.224647e-16 -1 89.6613 422.1972)" class="st7" width="1" height="1.9"/>
					
						<rect x="44.3" y="209.3" transform="matrix(-1 -1.224647e-16 1.224647e-16 -1 89.6613 419.4642)" class="st8" width="1" height="0.9"/>
				</g>
				<g>
					
						<rect x="36.8" y="215.3" transform="matrix(-1.836970e-16 1 -1 -1.836970e-16 253.5564 178.856)" class="st7" width="1" height="1.9"/>
					
						<rect x="35.5" y="215.8" transform="matrix(-1.836970e-16 1 -1 -1.836970e-16 252.1899 180.2225)" class="st8" width="1" height="0.9"/>
				</g>
				<g>
					
						<rect x="36.8" y="217.9" transform="matrix(-1.836970e-16 1 -1 -1.836970e-16 256.1849 181.4846)" class="st7" width="1" height="1.9"/>
					
						<rect x="35.5" y="218.4" transform="matrix(-1.836970e-16 1 -1 -1.836970e-16 254.8185 182.8511)" class="st8" width="1" height="0.9"/>
				</g>
				<g>
					
						<rect x="36.8" y="220.5" transform="matrix(-1.836970e-16 1 -1 -1.836970e-16 258.8135 184.1132)" class="st7" width="1" height="1.9"/>
					
						<rect x="35.5" y="221" transform="matrix(-1.836970e-16 1 -1 -1.836970e-16 257.447 185.4797)" class="st8" width="1" height="0.9"/>
				</g>
				<g>
					
						<rect x="36.8" y="223.2" transform="matrix(-1.836970e-16 1 -1 -1.836970e-16 261.4421 186.7418)" class="st7" width="1" height="1.9"/>
					
						<rect x="35.5" y="223.7" transform="matrix(-1.836970e-16 1 -1 -1.836970e-16 260.0756 188.1083)" class="st8" width="1" height="0.9"/>
				</g>
				<g>
					
						<rect x="36.8" y="225.8" transform="matrix(-1.836970e-16 1 -1 -1.836970e-16 264.0707 189.3704)" class="st7" width="1" height="1.9"/>
					
						<rect x="35.5" y="226.3" transform="matrix(-1.836970e-16 1 -1 -1.836970e-16 262.7042 190.7368)" class="st8" width="1" height="0.9"/>
				</g>
				<g>
					
						<rect x="36.8" y="228.4" transform="matrix(-1.836970e-16 1 -1 -1.836970e-16 266.6993 191.9989)" class="st7" width="1" height="1.9"/>
				</g>
				<g>
					
						<rect x="36.8" y="231" transform="matrix(-1.836970e-16 1 -1 -1.836970e-16 269.3279 194.6275)" class="st7" width="1" height="1.9"/>
					
						<rect x="35.5" y="231.5" transform="matrix(-1.836970e-16 1 -1 -1.836970e-16 267.9614 195.994)" class="st8" width="1" height="0.9"/>
				</g>
				<g>
					
						<rect x="36.8" y="233.7" transform="matrix(-1.836970e-16 1 -1 -1.836970e-16 271.9565 197.2561)" class="st7" width="1" height="1.9"/>
					
						<rect x="35.5" y="234.2" transform="matrix(-1.836970e-16 1 -1 -1.836970e-16 270.59 198.6226)" class="st8" width="1" height="0.9"/>
				</g>
				<g>
					
						<rect x="41.7" y="210.2" transform="matrix(-1 -1.224647e-16 1.224647e-16 -1 84.4104 422.1972)" class="st7" width="1" height="1.9"/>
				</g>
			</g>
			<g>
				<rect x="38.3" y="212" width="26.1" height="26.1"/>
				<rect x="38.8" y="212.6" class="st11" width="25" height="25"/>
				<circle class="st8" cx="41.3" cy="215.2" r="1.4"/>
			</g>
			<polyline class="st14" points="40.8,239.2 37.2,239.2 37.2,236.1 			"/>
			<polyline class="st14" points="65.4,236.4 65.4,239.2 62.1,239.2 			"/>
			<polyline class="st14" points="62.1,210.9 65.4,210.9 65.4,214.5 			"/>
			<line class="st14" x1="37.2" y1="210.9" x2="40.7" y2="210.9"/>
		</g>
		<circle class="st3" cx="67.1" cy="240.5" r="1.3"/>
	</g>
	<g>
		<g>
			<g>
				<rect x="107.5" y="7.6" class="st15" width="14.3" height="14.3"/>
			</g>
			<path class="st16" d="M115.9,17h-2.4c-0.6,0-1.1-0.5-1.1-1.1v-2.4c0-0.6,0.5-1.1,1.1-1.1h2.4c0.6,0,1.1,0.5,1.1,1.1v2.4
				C116.9,16.5,116.5,17,115.9,17z"/>
		</g>
		<g>
			<g>
				<rect x="121.8" y="7.6" class="st15" width="14.3" height="14.3"/>
			</g>
			<path class="st16" d="M130.2,17h-2.4c-0.6,0-1.1-0.5-1.1-1.1v-2.4c0-0.6,0.5-1.1,1.1-1.1h2.4c0.6,0,1.1,0.5,1.1,1.1v2.4
				C131.3,16.5,130.8,17,130.2,17z"/>
		</g>
		<g>
			<g>
				<rect x="136.2" y="7.6" class="st15" width="14.3" height="14.3"/>
			</g>
			<path class="st16" d="M144.5,17h-2.4c-0.6,0-1.1-0.5-1.1-1.1v-2.4c0-0.6,0.5-1.1,1.1-1.1h2.4c0.6,0,1.1,0.5,1.1,1.1v2.4
				C145.6,16.5,145.1,17,144.5,17z"/>
		</g>
		<g>
			<g>
				<rect x="150.5" y="7.6" class="st15" width="14.3" height="14.3"/>
			</g>
			<path class="st16" d="M158.9,17h-2.4c-0.6,0-1.1-0.5-1.1-1.1v-2.4c0-0.6,0.5-1.1,1.1-1.1h2.4c0.6,0,1.1,0.5,1.1,1.1v2.4
				C160,16.5,159.5,17,158.9,17z"/>
		</g>
		<g>
			<g>
				<rect x="164.8" y="7.6" class="st15" width="14.3" height="14.3"/>
			</g>
			<path class="st16" d="M173.2,17h-2.4c-0.6,0-1.1-0.5-1.1-1.1v-2.4c0-0.6,0.5-1.1,1.1-1.1h2.4c0.6,0,1.1,0.5,1.1,1.1v2.4
				C174.3,16.5,173.8,17,173.2,17z"/>
		</g>
		<g>
			<g>
				<rect x="179.2" y="7.6" class="st15" width="14.3" height="14.3"/>
			</g>
			<path class="st16" d="M187.5,17h-2.4c-0.6,0-1.1-0.5-1.1-1.1v-2.4c0-0.6,0.5-1.1,1.1-1.1h2.4c0.6,0,1.1,0.5,1.1,1.1v2.4
				C188.6,16.5,188.1,17,187.5,17z"/>
		</g>
		<g>
			<g>
				<rect x="193.5" y="7.6" class="st15" width="14.3" height="14.3"/>
			</g>
			<path class="st16" d="M201.9,17h-2.4c-0.6,0-1.1-0.5-1.1-1.1v-2.4c0-0.6,0.5-1.1,1.1-1.1h2.4c0.6,0,1.1,0.5,1.1,1.1v2.4
				C203,16.5,202.5,17,201.9,17z"/>
		</g>
		<g>
			<g>
				<rect x="207.8" y="7.6" class="st15" width="14.3" height="14.3"/>
			</g>
			<path class="st16" d="M216.2,17h-2.4c-0.6,0-1.1-0.5-1.1-1.1v-2.4c0-0.6,0.5-1.1,1.1-1.1h2.4c0.6,0,1.1,0.5,1.1,1.1v2.4
				C217.3,16.5,216.8,17,216.2,17z"/>
		</g>
		<g>
			<g>
				<rect x="222.2" y="7.6" class="st15" width="14.3" height="14.3"/>
			</g>
			<path class="st16" d="M230.6,17h-2.4c-0.6,0-1.1-0.5-1.1-1.1v-2.4c0-0.6,0.5-1.1,1.1-1.1h2.4c0.6,0,1.1,0.5,1.1,1.1v2.4
				C231.6,16.5,231.2,17,230.6,17z"/>
		</g>
		<g>
			<g>
				<rect x="236.5" y="7.6" class="st15" width="14.3" height="14.3"/>
			</g>
			<path class="st16" d="M244.9,17h-2.4c-0.6,0-1.1-0.5-1.1-1.1v-2.4c0-0.6,0.5-1.1,1.1-1.1h2.4c0.6,0,1.1,0.5,1.1,1.1v2.4
				C246,16.5,245.5,17,244.9,17z"/>
		</g>
	</g>
	<g>
		<g>
			<g>
				<rect x="259.5" y="7.6" class="st15" width="14.3" height="14.3"/>
			</g>
			<path class="st16" d="M267.8,17h-2.4c-0.6,0-1.1-0.5-1.1-1.1v-2.4c0-0.6,0.5-1.1,1.1-1.1h2.4c0.6,0,1.1,0.5,1.1,1.1v2.4
				C268.9,16.5,268.4,17,267.8,17z"/>
		</g>
		<g>
			<g>
				<rect x="273.8" y="7.6" class="st15" width="14.3" height="14.3"/>
			</g>
			<path class="st16" d="M282.2,17h-2.4c-0.6,0-1.1-0.5-1.1-1.1v-2.4c0-0.6,0.5-1.1,1.1-1.1h2.4c0.6,0,1.1,0.5,1.1,1.1v2.4
				C283.3,16.5,282.8,17,282.2,17z"/>
		</g>
		<g>
			<g>
				<rect x="288.1" y="7.6" class="st15" width="14.3" height="14.3"/>
			</g>
			<path class="st16" d="M296.5,17h-2.4c-0.6,0-1.1-0.5-1.1-1.1v-2.4c0-0.6,0.5-1.1,1.1-1.1h2.4c0.6,0,1.1,0.5,1.1,1.1v2.4
				C297.6,16.5,297.1,17,296.5,17z"/>
		</g>
		<g>
			<g>
				<rect x="302.5" y="7.6" class="st15" width="14.3" height="14.3"/>
			</g>
			<path class="st16" d="M310.9,17h-2.4c-0.6,0-1.1-0.5-1.1-1.1v-2.4c0-0.6,0.5-1.1,1.1-1.1h2.4c0.6,0,1.1,0.5,1.1,1.1v2.4
				C311.9,16.5,311.5,17,310.9,17z"/>
		</g>
		<g>
			<g>
				<rect x="316.8" y="7.6" class="st15" width="14.3" height="14.3"/>
			</g>
			<path class="st16" d="M325.2,17h-2.4c-0.6,0-1.1-0.5-1.1-1.1v-2.4c0-0.6,0.5-1.1,1.1-1.1h2.4c0.6,0,1.1,0.5,1.1,1.1v2.4
				C326.3,16.5,325.8,17,325.2,17z"/>
		</g>
		<g>
			<g>
				<rect x="331.1" y="7.6" class="st15" width="14.3" height="14.3"/>
			</g>
			<path class="st16" d="M339.5,17h-2.4c-0.6,0-1.1-0.5-1.1-1.1v-2.4c0-0.6,0.5-1.1,1.1-1.1h2.4c0.6,0,1.1,0.5,1.1,1.1v2.4
				C340.6,16.5,340.1,17,339.5,17z"/>
		</g>
		<g>
			<g>
				<rect x="345.5" y="7.6" class="st15" width="14.3" height="14.3"/>
			</g>
			<path class="st16" d="M353.9,17h-2.4c-0.6,0-1.1-0.5-1.1-1.1v-2.4c0-0.6,0.5-1.1,1.1-1.1h2.4c0.6,0,1.1,0.5,1.1,1.1v2.4
				C354.9,16.5,354.5,17,353.9,17z"/>
		</g>
		<g>
			<g>
				<rect x="359.8" y="7.6" class="st15" width="14.3" height="14.3"/>
			</g>
			<path class="st16" d="M368.2,17h-2.4c-0.6,0-1.1-0.5-1.1-1.1v-2.4c0-0.6,0.5-1.1,1.1-1.1h2.4c0.6,0,1.1,0.5,1.1,1.1v2.4
				C369.3,16.5,368.8,17,368.2,17z"/>
		</g>
	</g>
	<g>
		<g>
			<g>
				<rect x="158.3" y="282.5" class="st15" width="14.3" height="14.3"/>
			</g>
			<path class="st16" d="M166.7,292h-2.4c-0.6,0-1.1-0.5-1.1-1.1v-2.4c0-0.6,0.5-1.1,1.1-1.1h2.4c0.6,0,1.1,0.5,1.1,1.1v2.4
				C167.8,291.5,167.3,292,166.7,292z"/>
		</g>
		<g>
			<g>
				<rect x="172.7" y="282.5" class="st15" width="14.3" height="14.3"/>
			</g>
			<path class="st16" d="M181.1,292h-2.4c-0.6,0-1.1-0.5-1.1-1.1v-2.4c0-0.6,0.5-1.1,1.1-1.1h2.4c0.6,0,1.1,0.5,1.1,1.1v2.4
				C182.1,291.5,181.7,292,181.1,292z"/>
		</g>
		<g>
			<g>
				<rect x="187" y="282.5" class="st15" width="14.3" height="14.3"/>
			</g>
			<path class="st16" d="M195.4,292H193c-0.6,0-1.1-0.5-1.1-1.1v-2.4c0-0.6,0.5-1.1,1.1-1.1h2.4c0.6,0,1.1,0.5,1.1,1.1v2.4
				C196.5,291.5,196,292,195.4,292z"/>
		</g>
		<g>
			<g>
				<rect x="201.4" y="282.5" class="st15" width="14.3" height="14.3"/>
			</g>
			<path class="st16" d="M209.7,292h-2.4c-0.6,0-1.1-0.5-1.1-1.1v-2.4c0-0.6,0.5-1.1,1.1-1.1h2.4c0.6,0,1.1,0.5,1.1,1.1v2.4
				C210.8,291.5,210.3,292,209.7,292z"/>
		</g>
		<g>
			<g>
				<rect x="215.7" y="282.5" class="st15" width="14.3" height="14.3"/>
			</g>
			<path class="st16" d="M224.1,292h-2.4c-0.6,0-1.1-0.5-1.1-1.1v-2.4c0-0.6,0.5-1.1,1.1-1.1h2.4c0.6,0,1.1,0.5,1.1,1.1v2.4
				C225.2,291.5,224.7,292,224.1,292z"/>
		</g>
		<g>
			<g>
				<rect x="230" y="282.5" class="st15" width="14.3" height="14.3"/>
			</g>
			<path class="st16" d="M238.4,292H236c-0.6,0-1.1-0.5-1.1-1.1v-2.4c0-0.6,0.5-1.1,1.1-1.1h2.4c0.6,0,1.1,0.5,1.1,1.1v2.4
				C239.5,291.5,239,292,238.4,292z"/>
		</g>
		<g>
			<g>
				<rect x="244.4" y="282.5" class="st15" width="14.3" height="14.3"/>
			</g>
			<path class="st16" d="M252.7,292h-2.4c-0.6,0-1.1-0.5-1.1-1.1v-2.4c0-0.6,0.5-1.1,1.1-1.1h2.4c0.6,0,1.1,0.5,1.1,1.1v2.4
				C253.8,291.5,253.3,292,252.7,292z"/>
		</g>
		<g>
			<g>
				<rect x="258.7" y="282.5" class="st15" width="14.3" height="14.3"/>
			</g>
			<path class="st16" d="M267.1,292h-2.4c-0.6,0-1.1-0.5-1.1-1.1v-2.4c0-0.6,0.5-1.1,1.1-1.1h2.4c0.6,0,1.1,0.5,1.1,1.1v2.4
				C268.2,291.5,267.7,292,267.1,292z"/>
		</g>
	</g>
	<g>
		<g>
			<g>
				<rect x="288.2" y="282.5" class="st15" width="14.3" height="14.3"/>
			</g>
			<path class="st16" d="M296.5,292h-2.4c-0.6,0-1.1-0.5-1.1-1.1v-2.4c0-0.6,0.5-1.1,1.1-1.1h2.4c0.6,0,1.1,0.5,1.1,1.1v2.4
				C297.6,291.5,297.1,292,296.5,292z"/>
		</g>
		<g>
			<g>
				<rect x="302.5" y="282.5" class="st15" width="14.3" height="14.3"/>
			</g>
			<path class="st16" d="M310.9,292h-2.4c-0.6,0-1.1-0.5-1.1-1.1v-2.4c0-0.6,0.5-1.1,1.1-1.1h2.4c0.6,0,1.1,0.5,1.1,1.1v2.4
				C312,291.5,311.5,292,310.9,292z"/>
		</g>
		<g>
			<g>
				<rect x="316.8" y="282.5" class="st15" width="14.3" height="14.3"/>
			</g>
			<path class="st16" d="M325.2,292h-2.4c-0.6,0-1.1-0.5-1.1-1.1v-2.4c0-0.6,0.5-1.1,1.1-1.1h2.4c0.6,0,1.1,0.5,1.1,1.1v2.4
				C326.3,291.5,325.8,292,325.2,292z"/>
		</g>
		<g>
			<g>
				<rect x="331.2" y="282.5" class="st15" width="14.3" height="14.3"/>
			</g>
			<path class="st16" d="M339.6,292h-2.4c-0.6,0-1.1-0.5-1.1-1.1v-2.4c0-0.6,0.5-1.1,1.1-1.1h2.4c0.6,0,1.1,0.5,1.1,1.1v2.4
				C340.6,291.5,340.1,292,339.6,292z"/>
		</g>
		<g>
			<g>
				<rect x="345.5" y="282.5" class="st15" width="14.3" height="14.3"/>
			</g>
			<path class="st16" d="M353.9,292h-2.4c-0.6,0-1.1-0.5-1.1-1.1v-2.4c0-0.6,0.5-1.1,1.1-1.1h2.4c0.6,0,1.1,0.5,1.1,1.1v2.4
				C355,291.5,354.5,292,353.9,292z"/>
		</g>
		<g>
			<g>
				<rect x="359.8" y="282.5" class="st15" width="14.3" height="14.3"/>
			</g>
			<path class="st16" d="M368.2,292h-2.4c-0.6,0-1.1-0.5-1.1-1.1v-2.4c0-0.6,0.5-1.1,1.1-1.1h2.4c0.6,0,1.1,0.5,1.1,1.1v2.4
				C369.3,291.5,368.8,292,368.2,292z"/>
		</g>
	</g>
	<g>
		<text transform="matrix(0 -1 1 0 116.9462 38.5404)" class="st3 st12 st13">SCL</text>
	</g>
	<g>
		<text transform="matrix(0 -1 1 0 165.5135 279.5296)" class="st3 st12 st13">ADCC6</text>
	</g>
	<g>
		<text transform="matrix(0 -1 1 0 179.8495 279.5296)" class="st3 st12 st13">AOR</text>
	</g>
	<g>
		<text transform="matrix(0 -1 1 0 194.1864 279.5296)" class="st3 st12 st13">RST</text>
	</g>
	<g>
		<text transform="matrix(0 -1 1 0 208.5214 279.5296)" class="st3 st12 st13">3V3</text>
	</g>
	<g>
		<text transform="matrix(0 -1 1 0 222.8583 279.5296)" class="st3 st12 st13">5V</text>
	</g>
	<g>
		<text transform="matrix(0 -1 1 0 237.1942 279.5296)" class="st3 st12 st13">GND</text>
	</g>
	<g>
		<text transform="matrix(0 -1 1 0 251.5311 279.5296)" class="st3 st12 st13">GND</text>
	</g>
	<g>
		<text transform="matrix(0 -1 1 0 265.8661 279.5296)" class="st3 st12 st13">NC</text>
	</g>
	<g>
		<text transform="matrix(0 -1 1 0 297.7118 279.5296)" class="st3 st12 st13">0</text>
	</g>
	<g>
		<text transform="matrix(0 -1 1 0 312.0477 279.5296)" class="st3 st12 st13">1</text>
	</g>
	<g>
		<text transform="matrix(0 -1 1 0 326.3817 279.5296)" class="st3 st12 st13">2</text>
	</g>
	<g>
		<text transform="matrix(0 -1 1 0 340.7186 279.5296)" class="st3 st12 st13">3</text>
	</g>
	<g>
		<text transform="matrix(0 -1 1 0 355.0546 279.5296)" class="st3 st12 st13">4</text>
	</g>
	<g>
		<text transform="matrix(1 0 0 1 301.7509 272.3987)" class="st3 st12 st13">ANALOG</text>
	</g>
	<g>
		<text transform="matrix(1 0 0 1 349.6298 272.3987)" class="st3 st12 st13">IN</text>
	</g>
	<g>
		<text transform="matrix(0 -1 1 0 369.3905 279.5296)" class="st3 st12 st13">5</text>
	</g>
	<g>
		<g>
			<text transform="matrix(1 0 0 1 143.3212 58.6868)" class="st3 st12 st13">GND</text>
		</g>
		<g>
			<text transform="matrix(1 0 0 1 143.3212 69.8299)" class="st3 st12 st13">VCC</text>
		</g>
		<g>
			<text transform="matrix(1 0 0 1 143.3212 80.9735)" class="st3 st12 st13">D5</text>
		</g>
		<g>
			<text transform="matrix(1 0 0 1 143.3212 92.116)" class="st3 st12 st13">D4</text>
		</g>
	</g>
	<g>
		<g>
			<text transform="matrix(1 0 0 1 212.705 58.6868)" class="st3 st12 st13">GND</text>
		</g>
		<g>
			<text transform="matrix(1 0 0 1 212.705 69.8299)" class="st3 st12 st13">VCC</text>
		</g>
		<g>
			<text transform="matrix(1 0 0 1 212.705 80.9735)" class="st3 st12 st13">D4</text>
		</g>
		<g>
			<text transform="matrix(1 0 0 1 212.705 92.116)" class="st3 st12 st13">D3</text>
		</g>
	</g>
	<g>
		<g>
			<text transform="matrix(1 0 0 1 282.9667 58.6868)" class="st3 st12 st13">GND</text>
		</g>
		<g>
			<text transform="matrix(1 0 0 1 282.9667 69.8299)" class="st3 st12 st13">VCC</text>
		</g>
		<g>
			<text transform="matrix(1 0 0 1 282.9667 80.9735)" class="st3 st12 st13">D3</text>
		</g>
		<g>
			<text transform="matrix(1 0 0 1 282.9667 92.116)" class="st3 st12 st13">D2</text>
		</g>
	</g>
	<g>
		<g>
			<text transform="matrix(1 0 0 1 351.3885 58.6868)" class="st3 st12 st13">GND</text>
		</g>
		<g>
			<text transform="matrix(1 0 0 1 351.3885 69.8299)" class="st3 st12 st13">VCC</text>
		</g>
		<g>
			<text transform="matrix(1 0 0 1 351.3885 80.9735)" class="st3 st12 st13">TX</text>
		</g>
		<g>
			<text transform="matrix(1 0 0 1 351.3885 92.116)" class="st3 st12 st13">RX</text>
		</g>
	</g>
	<g>
		<g>
			<text transform="matrix(1 0 0 1 143.3212 139.9222)" class="st3 st12 st13">GND</text>
		</g>
		<g>
			<text transform="matrix(1 0 0 1 143.3212 151.0653)" class="st3 st12 st13">VCC</text>
		</g>
		<g>
			<text transform="matrix(1 0 0 1 143.3212 162.2093)" class="st3 st12 st13">A7</text>
		</g>
		<g>
			<text transform="matrix(1 0 0 1 143.3212 173.3519)" class="st3 st12 st13">A6</text>
		</g>
	</g>
	<g>
		<g>
			<text transform="matrix(1 0 0 1 212.705 139.9222)" class="st3 st12 st13">GND</text>
		</g>
		<g>
			<text transform="matrix(1 0 0 1 212.705 151.0653)" class="st3 st12 st13">VCC</text>
		</g>
		<g>
			<text transform="matrix(1 0 0 1 212.705 162.2093)" class="st3 st12 st13">D8</text>
		</g>
		<g>
			<text transform="matrix(1 0 0 1 212.705 173.3519)" class="st3 st12 st13">D7</text>
		</g>
	</g>
	<g>
		<g>
			<text transform="matrix(1 0 0 1 282.9667 139.9222)" class="st3 st12 st13">GND</text>
		</g>
		<g>
			<text transform="matrix(1 0 0 1 282.9667 151.0653)" class="st3 st12 st13">VCC</text>
		</g>
		<g>
			<text transform="matrix(1 0 0 1 282.9667 162.2093)" class="st3 st12 st13">D7</text>
		</g>
		<g>
			<text transform="matrix(1 0 0 1 282.9667 173.3519)" class="st3 st12 st13">D6</text>
		</g>
	</g>
	<g>
		<g>
			<text transform="matrix(1 0 0 1 143.3212 217.8597)" class="st3 st12 st13">GND</text>
		</g>
		<g>
			<text transform="matrix(1 0 0 1 143.3212 229.0023)" class="st3 st12 st13">VCC</text>
		</g>
		<g>
			<text transform="matrix(1 0 0 1 143.3212 240.1449)" class="st3 st12 st13">A3</text>
		</g>
		<g>
			<text transform="matrix(1 0 0 1 143.3212 251.2874)" class="st3 st12 st13">A2</text>
		</g>
	</g>
	<g>
		<g>
			<text transform="matrix(1 0 0 1 212.705 217.8597)" class="st3 st12 st13">GND</text>
		</g>
		<g>
			<text transform="matrix(1 0 0 1 212.705 229.0023)" class="st3 st12 st13">VCC</text>
		</g>
		<g>
			<text transform="matrix(1 0 0 1 212.705 240.1449)" class="st3 st12 st13">A1</text>
		</g>
		<g>
			<text transform="matrix(1 0 0 1 212.705 251.2874)" class="st3 st12 st13">A0</text>
		</g>
	</g>
	<g>
		<g>
			<text transform="matrix(1 0 0 1 282.9667 217.8597)" class="st3 st12 st13">GND</text>
		</g>
		<g>
			<text transform="matrix(1 0 0 1 282.9667 229.0023)" class="st3 st12 st13">VCC</text>
		</g>
		<g>
			<text transform="matrix(1 0 0 1 282.9667 240.1449)" class="st3 st12 st13">SDA</text>
		</g>
		<g>
			<text transform="matrix(1 0 0 1 282.9667 251.2874)" class="st3 st12 st13">SCL</text>
		</g>
	</g>
	<g>
		<g>
			<text transform="matrix(1 0 0 1 351.3885 217.8597)" class="st3 st12 st13">GND</text>
		</g>
		<g>
			<text transform="matrix(1 0 0 1 351.3885 229.0023)" class="st3 st12 st13">VCC</text>
		</g>
		<g>
			<text transform="matrix(1 0 0 1 351.3885 240.1449)" class="st3 st12 st13">SDA</text>
		</g>
		<g>
			<text transform="matrix(1 0 0 1 351.3885 251.2874)" class="st3 st12 st13">SCL</text>
		</g>
	</g>
	<g>
		<text transform="matrix(0 -1 1 0 109.827 95.1629)" class="st3 st12 st17">D4</text>
	</g>
	<g>
		<text transform="matrix(0 -1 1 0 179.16 95.1629)" class="st3 st12 st17">D3</text>
	</g>
	<g>
		<text transform="matrix(0 -1 1 0 248.495 95.1629)" class="st3 st12 st17">D2</text>
	</g>
	<g>
		<text transform="matrix(0 -1 1 0 317.83 95.1629)" class="st3 st12 st17">UART</text>
	</g>
	<g>
		<text transform="matrix(0 -1 1 0 109.827 174.8665)" class="st3 st12 st17">A6</text>
	</g>
	<g>
		<text transform="matrix(0 -1 1 0 179.16 174.8665)" class="st3 st12 st17">D7</text>
	</g>
	<g>
		<text transform="matrix(0 -1 1 0 248.495 174.8665)" class="st3 st12 st17">D6</text>
	</g>
	<g>
		<text transform="matrix(0 -1 1 0 317.83 174.8665)" class="st3 st12 st17">D5</text>
	</g>
	<g>
		<text transform="matrix(0 -1 1 0 109.827 254.7659)" class="st3 st12 st17">A2</text>
	</g>
	<g>
		<text transform="matrix(0 -1 1 0 179.16 254.7659)" class="st3 st12 st17">A0</text>
	</g>
	<g>
		<text transform="matrix(0 -1 1 0 248.495 254.7659)" class="st3 st12 st17">I2C</text>
	</g>
	<g>
		<text transform="matrix(0 -1 1 0 317.83 254.7659)" class="st3 st12 st17">I2C</text>
	</g>
	<g>
		<text transform="matrix(0 -1 1 0 131.1962 38.8031)" class="st3 st12 st13">SSA</text>
	</g>
	<g>
		<text transform="matrix(0 -1 1 0 145.4442 42.9085)" class="st3 st12 st13">AREF</text>
	</g>
	<g>
		<text transform="matrix(0 -1 1 0 159.6942 40.2967)" class="st3 st12 st13">GND</text>
	</g>
	<g>
		<text transform="matrix(0 -1 1 0 173.9423 33.3934)" class="st3 st12 st13">13</text>
	</g>
	<g>
		<text transform="matrix(0 -1 1 0 188.1923 33.3934)" class="st3 st12 st13">12</text>
	</g>
	<g>
		<text transform="matrix(0 -1 1 0 202.4413 33.3934)" class="st3 st12 st13">11</text>
	</g>
	<g>
		<text transform="matrix(0 -1 1 0 216.6913 33.3934)" class="st3 st12 st13">10</text>
	</g>
	<g>
		<text transform="matrix(0 -1 1 0 268.4989 29.6761)" class="st3 st12 st13">7</text>
	</g>
	<g>
		<text transform="matrix(0 -1 1 0 282.7489 29.6761)" class="st3 st12 st13">6</text>
	</g>
	<g>
		<text transform="matrix(0 -1 1 0 296.9969 29.6761)" class="st3 st12 st13">5</text>
	</g>
	<g>
		<text transform="matrix(0 -1 1 0 311.246 29.6761)" class="st3 st12 st13">4</text>
	</g>
	<g>
		<text transform="matrix(0 -1 1 0 325.496 29.6761)" class="st3 st12 st13">3</text>
	</g>
	<g>
		<text transform="matrix(0 -1 1 0 339.745 29.6761)" class="st3 st12 st13">2</text>
	</g>
	<g>
		<text transform="matrix(0 -1 1 0 353.994 29.6761)" class="st3 st12 st13">1</text>
	</g>
	<g>
		<text transform="matrix(0 -1 1 0 355.994 44.9866)" class="st3 st12 st13">TX</text>
	</g>
	<g>
		<text transform="matrix(0 -1 1 0 370.244 44.9866)" class="st3 st12 st13">RX</text>
	</g>
	<g>
		<text transform="matrix(0 -1 1 0 368.244 29.6761)" class="st3 st12 st13">0</text>
	</g>
	<g>
		<text transform="matrix(0 -1 1 0 230.9393 29.6761)" class="st3 st12 st13">9</text>
	</g>
	<g>
		<text transform="matrix(0 -1 1 0 245.1884 29.6761)" class="st3 st12 st13">8</text>
	</g>
	<g>
		<g>
			<text transform="matrix(1 0 0 1 352.8534 174.8685)" class="st3 st12 st13">MISO</text>
		</g>
		<g>
			<text transform="matrix(1 0 0 1 352.8534 186.2064)" class="st3 st12 st13">SCK</text>
		</g>
		<g>
			<text transform="matrix(1 0 0 1 352.8534 197.5462)" class="st3 st12 st13">RST</text>
		</g>
		<g>
			<text transform="matrix(1 0 0 1 374.5116 174.8685)" class="st3 st12 st13">VCC</text>
		</g>
		<g>
			<text transform="matrix(1 0 0 1 371.7811 186.2064)" class="st3 st12 st13">MOSI</text>
		</g>
		<g>
			<text transform="matrix(1 0 0 1 373.7391 197.5462)" class="st3 st12 st13">GND</text>
		</g>
		<rect x="349.6" y="167.3" class="st9" width="40.4" height="33"/>
	</g>
	<g id="Pin_Connector_1_">
		<g>
			<g>
				<polygon class="st1" points="117.6,99.9 117.6,48.4 140.9,48.4 140.9,52.5 135.2,52.5 135.2,96.1 140.9,96.1 140.9,99.9 				"/>
				<path class="st3" d="M139.4,49.9v1h-2.7h-3v3v40.7v3h3h2.7v0.8h-20.3V49.9H139.4 M142.4,46.9h-26.3v54.5h26.3v-6.8h-5.7V54h5.7
					V46.9L142.4,46.9z"/>
			</g>
			<rect x="136.7" y="63.9" class="st3" width="5.7" height="20.6"/>
			<circle class="st18" cx="125.9" cy="57.3" r="1.4"/>
			<circle class="st18" cx="125.9" cy="68.4" r="1.4"/>
			<circle class="st18" cx="125.9" cy="80" r="1.4"/>
			<circle class="st18" cx="125.9" cy="90.7" r="1.4"/>
		</g>
		<g>
			<g>
				<polygon class="st1" points="186.7,99.9 186.7,48.4 210,48.4 210,52.5 204.2,52.5 204.2,96.1 210,96.1 210,99.9 				"/>
				<path class="st3" d="M208.5,49.9v1h-2.7h-3v3v40.7v3h3h2.7v0.8h-20.3V49.9H208.5 M211.5,46.9h-26.3v54.5h26.3v-6.8h-5.7V54h5.7
					V46.9L211.5,46.9z"/>
			</g>
			<rect x="205.7" y="63.9" class="st3" width="5.7" height="20.6"/>
			<circle class="st18" cx="195" cy="57.3" r="1.4"/>
			<circle class="st18" cx="195" cy="68.4" r="1.4"/>
			<circle class="st18" cx="195" cy="80" r="1.4"/>
			<circle class="st18" cx="195" cy="90.7" r="1.4"/>
		</g>
		<g>
			<g>
				<polygon class="st1" points="255.7,99.9 255.7,48.4 279.1,48.4 279.1,52.5 273.3,52.5 273.3,96.1 279.1,96.1 279.1,99.9 				"/>
				<path class="st3" d="M277.6,49.9v1h-2.7h-3v3v40.7v3h3h2.7v0.8h-20.3V49.9H277.6 M280.6,46.9h-26.3v54.5h26.3v-6.8h-5.7V54h5.7
					V46.9L280.6,46.9z"/>
			</g>
			<rect x="274.8" y="63.9" class="st3" width="5.7" height="20.6"/>
			<circle class="st18" cx="264.1" cy="57.3" r="1.4"/>
			<circle class="st18" cx="264.1" cy="68.4" r="1.4"/>
			<circle class="st18" cx="264.1" cy="80" r="1.4"/>
			<circle class="st18" cx="264.1" cy="90.7" r="1.4"/>
		</g>
		<g>
			<g>
				<polygon class="st1" points="324.8,99.9 324.8,48.4 348.1,48.4 348.1,52.5 342.4,52.5 342.4,96.1 348.1,96.1 348.1,99.9 				"/>
				<path class="st3" d="M346.6,49.9v1h-2.7h-3v3v40.7v3h3h2.7v0.8h-20.3V49.9H346.6 M349.6,46.9h-26.3v54.5h26.3v-6.8h-5.7V54h5.7
					V46.9L349.6,46.9z"/>
			</g>
			<rect x="343.9" y="63.9" class="st3" width="5.7" height="20.6"/>
			<circle class="st18" cx="333.1" cy="57.3" r="1.4"/>
			<circle class="st18" cx="333.1" cy="68.4" r="1.4"/>
			<circle class="st18" cx="333.1" cy="80" r="1.4"/>
			<circle class="st18" cx="333.1" cy="90.7" r="1.4"/>
		</g>
		<g>
			<g>
				<polygon class="st1" points="117.6,180.4 117.6,129 140.9,129 140.9,133 135.2,133 135.2,176.7 140.9,176.7 140.9,180.4 				"/>
				<path class="st3" d="M139.4,130.5v1h-2.7h-3v3v40.7v3h3h2.7v0.8h-20.3v-48.5H139.4 M142.4,127.5h-26.3v54.5h26.3v-6.8h-5.7
					v-40.7h5.7V127.5L142.4,127.5z"/>
			</g>
			<rect x="136.7" y="144.4" class="st3" width="5.7" height="20.6"/>
			<circle class="st18" cx="125.9" cy="137.8" r="1.4"/>
			<circle class="st18" cx="125.9" cy="149" r="1.4"/>
			<circle class="st18" cx="125.9" cy="160.5" r="1.4"/>
			<circle class="st18" cx="125.9" cy="171.3" r="1.4"/>
		</g>
		<g>
			<g>
				<polygon class="st1" points="186.7,180.4 186.7,129 210,129 210,133 204.2,133 204.2,176.7 210,176.7 210,180.4 				"/>
				<path class="st3" d="M208.5,130.5v1h-2.7h-3v3v40.7v3h3h2.7v0.8h-20.3v-48.5H208.5 M211.5,127.5h-26.3v54.5h26.3v-6.8h-5.7
					v-40.7h5.7V127.5L211.5,127.5z"/>
			</g>
			<rect x="205.7" y="144.4" class="st3" width="5.7" height="20.6"/>
			<circle class="st18" cx="195" cy="137.8" r="1.4"/>
			<circle class="st18" cx="195" cy="149" r="1.4"/>
			<circle class="st18" cx="195" cy="160.5" r="1.4"/>
			<circle class="st18" cx="195" cy="171.3" r="1.4"/>
		</g>
		<g>
			<g>
				<polygon class="st1" points="255.7,180.4 255.7,129 279.1,129 279.1,133 273.3,133 273.3,176.7 279.1,176.7 279.1,180.4 				"/>
				<path class="st3" d="M277.6,130.5v1h-2.7h-3v3v40.7v3h3h2.7v0.8h-20.3v-48.5H277.6 M280.6,127.5h-26.3v54.5h26.3v-6.8h-5.7
					v-40.7h5.7V127.5L280.6,127.5z"/>
			</g>
			<rect x="274.8" y="144.4" class="st3" width="5.7" height="20.6"/>
			<circle class="st18" cx="264.1" cy="137.8" r="1.4"/>
			<circle class="st18" cx="264.1" cy="149" r="1.4"/>
			<circle class="st18" cx="264.1" cy="160.5" r="1.4"/>
			<circle class="st18" cx="264.1" cy="171.3" r="1.4"/>
		</g>
		<g>
			<g>
				<polygon class="st1" points="324.8,180.4 324.8,129 348.1,129 348.1,133 342.4,133 342.4,176.7 348.1,176.7 348.1,180.4 				"/>
				<path class="st3" d="M346.6,130.5v1h-2.7h-3v3v40.7v3h3h2.7v0.8h-20.3v-48.5H346.6 M349.6,127.5h-26.3v54.5h26.3v-6.8h-5.7
					v-40.7h5.7V127.5L349.6,127.5z"/>
			</g>
			<rect x="343.9" y="144.4" class="st3" width="5.7" height="20.6"/>
			<circle class="st18" cx="333.1" cy="137.8" r="1.4"/>
			<circle class="st18" cx="333.1" cy="149" r="1.4"/>
			<circle class="st18" cx="333.1" cy="160.5" r="1.4"/>
			<circle class="st18" cx="333.1" cy="171.3" r="1.4"/>
		</g>
		<g>
			<g>
				<polygon class="st1" points="117.6,261 117.6,209.5 140.9,209.5 140.9,213.5 135.2,213.5 135.2,257.2 140.9,257.2 140.9,261 
									"/>
				<path class="st3" d="M139.4,211v1h-2.7h-3v3v40.7v3h3h2.7v0.8h-20.3V211H139.4 M142.4,208h-26.3v54.5h26.3v-6.8h-5.7V215h5.7
					V208L142.4,208z"/>
			</g>
			<rect x="136.7" y="224.9" class="st3" width="5.7" height="20.6"/>
			<circle class="st18" cx="125.9" cy="218.4" r="1.4"/>
			<circle class="st18" cx="125.9" cy="229.5" r="1.4"/>
			<circle class="st18" cx="125.9" cy="241" r="1.4"/>
			<circle class="st18" cx="125.9" cy="251.8" r="1.4"/>
		</g>
		<g>
			<g>
				<polygon class="st1" points="186.7,261 186.7,209.5 210,209.5 210,213.5 204.2,213.5 204.2,257.2 210,257.2 210,261 				"/>
				<path class="st3" d="M208.5,211v1h-2.7h-3v3v40.7v3h3h2.7v0.8h-20.3V211H208.5 M211.5,208h-26.3v54.5h26.3v-6.8h-5.7V215h5.7
					V208L211.5,208z"/>
			</g>
			<rect x="205.7" y="224.9" class="st3" width="5.7" height="20.6"/>
			<circle class="st18" cx="195" cy="218.4" r="1.4"/>
			<circle class="st18" cx="195" cy="229.5" r="1.4"/>
			<circle class="st18" cx="195" cy="241" r="1.4"/>
			<circle class="st18" cx="195" cy="251.8" r="1.4"/>
		</g>
		<g>
			<g>
				<polygon class="st1" points="255.7,261 255.7,209.5 279.1,209.5 279.1,213.5 273.3,213.5 273.3,257.2 279.1,257.2 279.1,261 
									"/>
				<path class="st3" d="M277.6,211v1h-2.7h-3v3v40.7v3h3h2.7v0.8h-20.3V211H277.6 M280.6,208h-26.3v54.5h26.3v-6.8h-5.7V215h5.7
					V208L280.6,208z"/>
			</g>
			<rect x="274.8" y="224.9" class="st3" width="5.7" height="20.6"/>
			<circle class="st18" cx="264.1" cy="218.4" r="1.4"/>
			<circle class="st18" cx="264.1" cy="229.5" r="1.4"/>
			<circle class="st18" cx="264.1" cy="241" r="1.4"/>
			<circle class="st18" cx="264.1" cy="251.8" r="1.4"/>
		</g>
		<g>
			<g>
				<polygon class="st1" points="324.8,261 324.8,209.5 348.1,209.5 348.1,213.5 342.4,213.5 342.4,257.2 348.1,257.2 348.1,261 
									"/>
				<path class="st3" d="M346.6,211v1h-2.7h-3v3v40.7v3h3h2.7v0.8h-20.3V211H346.6 M349.6,208h-26.3v54.5h26.3v-6.8h-5.7V215h5.7
					V208L349.6,208z"/>
			</g>
			<rect x="343.9" y="224.9" class="st3" width="5.7" height="20.6"/>
			<circle class="st18" cx="333.1" cy="218.4" r="1.4"/>
			<circle class="st18" cx="333.1" cy="229.5" r="1.4"/>
			<circle class="st18" cx="333.1" cy="241" r="1.4"/>
			<circle class="st18" cx="333.1" cy="251.8" r="1.4"/>
		</g>
	</g>
	<g>
		<rect x="360.7" y="124.7" class="st9" width="29.3" height="42.7"/>
		<g>
			<polygon class="st15" points="371.6,124.7 365.9,124.7 361.9,128.7 361.9,134.4 365.9,138.4 371.6,138.4 375.6,134.4 
				375.6,128.7 			"/>
			<polygon class="st15" points="385.4,124.7 379.7,124.7 375.6,128.7 375.6,134.4 379.7,138.4 385.4,138.4 389.4,134.4 
				389.4,128.7 			"/>
			<g>
				<g>
					<rect x="367.7" y="130.5" class="st8" width="2.2" height="2.2"/>
				</g>
				<polygon class="st19" points="367.7,130.5 368.8,131.6 367.7,132.7 				"/>
				<polygon class="st20" points="369.9,132.7 368.8,131.6 367.7,132.7 				"/>
				<polygon class="st21" points="369.9,130.5 368.8,131.6 369.9,132.7 				"/>
			</g>
			<g>
				<g>
					<rect x="381.5" y="130.5" class="st8" width="2.2" height="2.2"/>
				</g>
				<polygon class="st19" points="381.5,130.5 382.6,131.6 381.5,132.7 				"/>
				<polygon class="st20" points="383.7,132.7 382.6,131.6 381.5,132.7 				"/>
				<polygon class="st21" points="383.7,130.5 382.6,131.6 383.7,132.7 				"/>
			</g>
		</g>
		<g>
			<polygon class="st15" points="371.6,139.7 365.9,139.7 361.9,143.8 361.9,149.5 365.9,153.5 371.6,153.5 375.6,149.5 
				375.6,143.8 			"/>
			<polygon class="st15" points="385.4,139.7 379.7,139.7 375.6,143.8 375.6,149.5 379.7,153.5 385.4,153.5 389.4,149.5 
				389.4,143.8 			"/>
			<g>
				<g>
					<rect x="367.7" y="145.5" class="st8" width="2.2" height="2.2"/>
				</g>
				<polygon class="st19" points="367.7,145.5 368.8,146.6 367.7,147.7 				"/>
				<polygon class="st20" points="369.9,147.7 368.8,146.6 367.7,147.7 				"/>
				<polygon class="st21" points="369.9,145.5 368.8,146.6 369.9,147.7 				"/>
			</g>
			<g>
				<g>
					<rect x="381.5" y="145.5" class="st8" width="2.2" height="2.2"/>
				</g>
				<polygon class="st19" points="381.5,145.5 382.6,146.6 381.5,147.7 				"/>
				<polygon class="st20" points="383.7,147.7 382.6,146.6 381.5,147.7 				"/>
				<polygon class="st21" points="383.7,145.5 382.6,146.6 383.7,147.7 				"/>
			</g>
		</g>
		<g>
			<polygon class="st15" points="371.6,154.8 365.9,154.8 361.9,158.8 361.9,164.5 365.9,168.5 371.6,168.5 375.6,164.5 
				375.6,158.8 			"/>
			<polygon class="st15" points="385.4,154.8 379.7,154.8 375.6,158.8 375.6,164.5 379.7,168.5 385.4,168.5 389.4,164.5 
				389.4,158.8 			"/>
			<g>
				<g>
					<rect x="367.7" y="160.6" class="st8" width="2.2" height="2.2"/>
				</g>
				<polygon class="st19" points="367.7,160.6 368.8,161.7 367.7,162.8 				"/>
				<polygon class="st20" points="369.9,162.8 368.8,161.7 367.7,162.8 				"/>
				<polygon class="st21" points="369.9,160.6 368.8,161.7 369.9,162.8 				"/>
			</g>
			<g>
				<g>
					<rect x="381.5" y="160.6" class="st8" width="2.2" height="2.2"/>
				</g>
				<polygon class="st19" points="381.5,160.6 382.6,161.7 381.5,162.8 				"/>
				<polygon class="st20" points="383.7,162.8 382.6,161.7 381.5,162.8 				"/>
				<polygon class="st21" points="383.7,160.6 382.6,161.7 383.7,162.8 				"/>
			</g>
		</g>
	</g>
	<rect x="49.2" y="92.1" class="st9" width="43.4" height="30.3"/>
	<g>
		<g>
			<rect x="50.6" y="92.9" class="st11" width="40.5" height="28.5"/>
			<circle class="st22" cx="86.2" cy="96.4" r="2"/>
		</g>
		<g>
			<rect x="53" y="82.4" class="st7" width="1.7" height="9.7"/>
			<rect x="56.5" y="82.4" class="st7" width="1.7" height="9.7"/>
			<rect x="59.9" y="82.4" class="st7" width="1.7" height="9.7"/>
			<rect x="63.3" y="82.4" class="st7" width="1.7" height="9.7"/>
			<rect x="66.7" y="82.4" class="st7" width="1.7" height="9.7"/>
			<rect x="70.1" y="82.4" class="st7" width="1.7" height="9.7"/>
			<rect x="73.6" y="82.4" class="st7" width="1.7" height="9.7"/>
			<rect x="77" y="82.4" class="st7" width="1.7" height="9.7"/>
			<rect x="80.4" y="82.4" class="st7" width="1.7" height="9.7"/>
			<rect x="83.8" y="82.4" class="st7" width="1.7" height="9.7"/>
			<rect x="87.2" y="82.4" class="st7" width="1.7" height="9.7"/>
		</g>
		<g>
			<rect x="53" y="121.1" class="st7" width="1.7" height="9.7"/>
			<rect x="56.5" y="121.1" class="st7" width="1.7" height="9.7"/>
			<rect x="59.9" y="121.1" class="st7" width="1.7" height="9.7"/>
			<rect x="63.3" y="121.1" class="st7" width="1.7" height="9.7"/>
			<rect x="66.7" y="121.1" class="st7" width="1.7" height="9.7"/>
			<rect x="70.1" y="121.1" class="st7" width="1.7" height="9.7"/>
			<rect x="73.6" y="121.1" class="st7" width="1.7" height="9.7"/>
			<rect x="77" y="121.1" class="st7" width="1.7" height="9.7"/>
			<rect x="80.4" y="121.1" class="st7" width="1.7" height="9.7"/>
			<rect x="83.8" y="121.1" class="st7" width="1.7" height="9.7"/>
			<rect x="87.2" y="121.1" class="st7" width="1.7" height="9.7"/>
		</g>
	</g>
	<g>
		<g>
			<rect x="46.2" y="139.9" class="st1" width="2.6" height="8.2"/>
			<rect x="61.5" y="139.9" class="st1" width="2.6" height="8.2"/>
			<rect x="49.1" y="139.9" class="st11" width="12.3" height="8.2"/>
		</g>
		<polyline class="st9" points="48,149 44.3,149 44.3,139.1 48,139.1 		"/>
		<polyline class="st9" points="62.3,139.1 66,139.1 66,149 62.3,149 		"/>
		<line class="st9" x1="52.4" y1="149" x2="58.8" y2="149"/>
		<line class="st9" x1="52.4" y1="139" x2="58.8" y2="139"/>
	</g>
	<rect x="48.4" y="155.6" class="st9" width="23.4" height="9.7"/>
	<g>
		<rect x="50.6" y="155.8" class="st23" width="4.6" height="9.4"/>
		<rect x="55.2" y="155.8" class="st24" width="13.4" height="9.4"/>
	</g>
	<rect x="48.4" y="166.4" class="st9" width="23.4" height="9.7"/>
	<g>
		<rect x="50.6" y="166.6" class="st23" width="4.6" height="9.4"/>
		<rect x="55.2" y="166.6" class="st24" width="13.4" height="9.4"/>
	</g>
	<rect x="82.1" y="202.7" class="st9" width="20.3" height="28.2"/>
	<rect x="83.5" y="203.7" class="st11" width="17.4" height="26.1"/>
	<g>
		<rect x="126.3" y="281.5" class="st10" width="5.2" height="5.7"/>
		<rect x="102.1" y="281.5" class="st10" width="5.2" height="5.7"/>
		<rect x="98.1" y="287.7" class="st1" width="38.6" height="12.8"/>
		<rect x="108.9" y="300.5" class="st11" width="17" height="4.6"/>
		<rect x="99.5" y="285.1" class="st7" width="35.8" height="2.6"/>
		<path class="st3" d="M98.1,299.9h-4.8c-0.9,0-1.5-0.7-1.5-1.5v-3.5c0-0.9,0.7-1.5,1.5-1.5h1c0.9,0,1.5,0.7,1.5,1.5v3.2h2.2V299.9z
			"/>
		<path class="st3" d="M136.7,299.9h4.8c0.9,0,1.5-0.7,1.5-1.5v-3.5c0-0.9-0.7-1.5-1.5-1.5h-1c-0.9,0-1.5,0.7-1.5,1.5v3.2h-2.2
			V299.9z"/>
	</g>
	<g>
		<rect x="41.7" y="49.6" class="st9" width="28.4" height="18.2"/>
		<rect x="39.1" y="53.5" class="st10" width="6.5" height="10.9"/>
		<rect x="66.4" y="53.5" class="st10" width="6.5" height="10.9"/>
		<rect x="42.3" y="50.2" class="st11" width="27.4" height="16.9"/>
	</g>
	<g>
		<path class="st15" d="M10.2,279.9c0,0-5.4,13.4,12.6,20.5C22.8,300.5,10.5,292.8,10.2,279.9z"/>
		<path class="st15" d="M21.9,275.3c0,0-3.8,3.9-3.2,11.1c0.6,7.3,5.4,10.2,5.4,10.2S17.9,287.5,21.9,275.3z"/>
		<path class="st15" d="M42.2,279.9c0,0,5.4,13.4-12.6,20.5C29.7,300.5,42,292.8,42.2,279.9z"/>
		<path class="st15" d="M30.6,275.3c0,0,3.8,3.9,3.2,11.1c-0.6,7.3-5.4,10.2-5.4,10.2S34.5,287.5,30.6,275.3z"/>
	</g>
</g>
</svg>
