<?xml version="1.0" encoding="utf-8"?>
<!-- Generator: Adobe Illustrator 24.0.1, SVG Export Plug-In . SVG Version: 6.00 Build 0)  -->
<svg version="1.1" id="Layer_3_1_" xmlns="http://www.w3.org/2000/svg" xmlns:xlink="http://www.w3.org/1999/xlink" x="0px" y="0px"
	 viewBox="0 0 172.5 368.3" style="enable-background:new 0 0 172.5 368.3;" xml:space="preserve">
<style type="text/css">
	.st0{fill:#0A783D;}
	.st1{fill:#272626;}
	.st2{fill:#010101;}
	.st3{fill:#D6C474;}
	.st4{fill:#AE9C4F;}
	.st5{fill:#9F8F47;}
	.st6{fill:#CAB65E;}
	.st7{fill:#BB8C2D;}
	.st8{fill:#FED401;}
	.st9{fill:#EDEEF3;}
	.st10{fill:#C7C5C5;}
	.st11{fill:#7C6C2C;}
	.st12{fill:#FFFFFF;}
	.st13{fill:#FFF8F0;}
	.st14{fill:none;stroke:#FFFFFF;stroke-width:0.17;stroke-miterlimit:10;}
	.st15{fill:#484849;}
	.st16{fill:#CFB18D;}
	.st17{fill:#C8C8C8;}
	.st18{fill:#282828;}
	.st19{fill:none;stroke:#FFFFFF;stroke-width:0.5;stroke-miterlimit:10;}
	.st20{fill:none;stroke:#7C6C2C;stroke-width:0.35;stroke-miterlimit:10;}
	.st21{fill:none;stroke:#FFFFFF;stroke-width:0.69;stroke-miterlimit:10;}
	.st22{fill:#DDDDDC;}
	.st23{fill:#EDECF1;}
	.st24{fill:#6E6F6F;}
	.st25{fill:none;stroke:#6E6F6F;stroke-width:4.571702e-02;stroke-miterlimit:10;}
	.st26{fill:#434343;}
	.st27{fill:#1B1B1B;}
	.st28{fill:#EDEEF2;}
	.st29{fill:#E5E5E5;}
	.st30{fill:#DFDEE2;}
	.st31{fill:#FDFAD6;}
</style>
<path class="st0" d="M149.9,0H25.1C12.6,0,2.5,10.2,2.5,22.7v322.2c0,12.5,10.2,22.7,22.7,22.7h124.7c12.5,0,22.7-10.2,22.7-22.7
	V22.7C172.5,10.2,162.4,0,149.9,0z M22.3,355.7c-3.9,0-7.1-3.2-7.1-7.1c0-3.9,3.2-7.1,7.1-7.1c3.9,0,7.1,3.2,7.1,7.1
	C29.4,352.6,26.2,355.7,22.3,355.7z M22.3,26.9c-3.9,0-7.1-3.2-7.1-7.1s3.2-7.1,7.1-7.1c3.9,0,7.1,3.2,7.1,7.1S26.2,26.9,22.3,26.9z
	 M152.7,355.7c-3.9,0-7.1-3.2-7.1-7.1c0-3.9,3.2-7.1,7.1-7.1s7.1,3.2,7.1,7.1C159.8,352.6,156.6,355.7,152.7,355.7z M152.7,26.9
	c-3.9,0-7.1-3.2-7.1-7.1s3.2-7.1,7.1-7.1s7.1,3.2,7.1,7.1S156.6,26.9,152.7,26.9z"/>
<g>
	<path class="st1" d="M154.5,57.5h-12.1l-2.3-2.4v-9.7l2.3-2.4h12L154.5,57.5z"/>
	<rect x="143.9" y="46.9" class="st2" width="6.8" height="6.8"/>
	<polygon class="st3" points="143.9,46.9 147.3,50.3 143.9,53.7 	"/>
	<polygon class="st4" points="150.8,53.7 147.3,50.3 150.8,46.9 	"/>
	<polygon class="st5" points="143.9,53.7 147.3,50.3 150.8,53.7 	"/>
	<polygon class="st6" points="150.8,46.9 147.3,50.3 143.9,46.9 	"/>
	<path class="st1" d="M166.6,57.5h-12V43.1h12l2.4,2.4v9.7L166.6,57.5z"/>
	<rect x="158.3" y="46.9" class="st2" width="6.8" height="6.8"/>
	<polygon class="st3" points="158.3,46.9 161.7,50.3 158.3,53.7 	"/>
	<polygon class="st4" points="165.2,53.7 161.7,50.3 165.2,46.9 	"/>
	<polygon class="st5" points="158.3,53.7 161.7,50.3 165.2,53.7 	"/>
	<polygon class="st6" points="165.2,46.9 161.7,50.3 158.3,46.9 	"/>
	<path class="st1" d="M154.5,71.9h-12.1l-2.3-2.4v-9.7l2.3-2.4h12L154.5,71.9z"/>
	<rect x="143.9" y="61.3" class="st2" width="6.8" height="6.8"/>
	<polygon class="st3" points="143.9,61.3 147.3,64.7 143.9,68.1 	"/>
	<polygon class="st4" points="150.8,68.1 147.3,64.7 150.8,61.3 	"/>
	<polygon class="st5" points="143.9,68.1 147.3,64.7 150.8,68.1 	"/>
	<polygon class="st6" points="150.8,61.3 147.3,64.7 143.9,61.3 	"/>
	<path class="st1" d="M166.6,71.9h-12V57.5h12l2.4,2.4v9.7L166.6,71.9z"/>
	<rect x="158.3" y="61.3" class="st2" width="6.8" height="6.8"/>
	<polygon class="st3" points="158.3,61.3 161.7,64.7 158.3,68.1 	"/>
	<polygon class="st4" points="165.2,68.1 161.7,64.7 165.2,61.3 	"/>
	<polygon class="st5" points="158.3,68.1 161.7,64.7 165.2,68.1 	"/>
	<polygon class="st6" points="165.2,61.3 161.7,64.7 158.3,61.3 	"/>
	<path class="st1" d="M154.5,86.3h-12.1l-2.3-2.4v-9.7l2.3-2.4h12L154.5,86.3z"/>
	<rect x="143.9" y="75.7" class="st2" width="6.8" height="6.8"/>
	<polygon class="st3" points="143.9,75.7 147.3,79.1 143.9,82.5 	"/>
	<polygon class="st4" points="150.8,82.5 147.3,79.1 150.8,75.7 	"/>
	<polygon class="st5" points="143.9,82.5 147.3,79.1 150.8,82.5 	"/>
	<polygon class="st6" points="150.8,75.7 147.3,79.1 143.9,75.7 	"/>
	<path class="st1" d="M166.6,86.3h-12V71.9h12l2.4,2.4v9.7L166.6,86.3z"/>
	<rect x="158.3" y="75.7" class="st2" width="6.8" height="6.8"/>
	<polygon class="st3" points="158.3,75.7 161.7,79.1 158.3,82.5 	"/>
	<polygon class="st4" points="165.2,82.5 161.7,79.1 165.2,75.7 	"/>
	<polygon class="st5" points="158.3,82.5 161.7,79.1 165.2,82.5 	"/>
	<polygon class="st6" points="165.2,75.7 161.7,79.1 158.3,75.7 	"/>
	<path class="st1" d="M154.5,100.7h-12.1l-2.3-2.4v-9.7l2.3-2.4h12L154.5,100.7z"/>
	<rect x="143.9" y="90.1" class="st2" width="6.8" height="6.8"/>
	<polygon class="st3" points="143.9,90.1 147.3,93.5 143.9,96.9 	"/>
	<polygon class="st4" points="150.8,96.9 147.3,93.5 150.8,90.1 	"/>
	<polygon class="st5" points="143.9,96.9 147.3,93.5 150.8,96.9 	"/>
	<polygon class="st6" points="150.8,90.1 147.3,93.5 143.9,90.1 	"/>
	<path class="st1" d="M166.6,100.7h-12V86.3h12l2.4,2.4v9.7L166.6,100.7z"/>
	<rect x="158.3" y="90.1" class="st2" width="6.8" height="6.8"/>
	<polygon class="st3" points="158.3,90.1 161.7,93.5 158.3,96.9 	"/>
	<polygon class="st4" points="165.2,96.9 161.7,93.5 165.2,90.1 	"/>
	<polygon class="st5" points="158.3,96.9 161.7,93.5 165.2,96.9 	"/>
	<polygon class="st6" points="165.2,90.1 161.7,93.5 158.3,90.1 	"/>
	<path class="st1" d="M154.5,115.1h-12.1l-2.4-2.4V103l2.4-2.3h12L154.5,115.1z"/>
	<rect x="143.9" y="104.5" class="st2" width="6.8" height="6.8"/>
	<polygon class="st3" points="143.9,104.5 147.3,107.9 143.9,111.3 	"/>
	<polygon class="st4" points="150.8,111.3 147.3,107.9 150.8,104.5 	"/>
	<polygon class="st5" points="143.9,111.3 147.3,107.9 150.8,111.3 	"/>
	<polygon class="st6" points="150.8,104.5 147.3,107.9 143.9,104.5 	"/>
	<path class="st1" d="M166.6,115.1h-12v-14.4h12l2.4,2.3v9.7L166.6,115.1z"/>
	<rect x="158.3" y="104.5" class="st2" width="6.8" height="6.8"/>
	<polygon class="st3" points="158.3,104.5 161.7,107.9 158.3,111.3 	"/>
	<polygon class="st4" points="165.2,111.3 161.7,107.9 165.2,104.5 	"/>
	<polygon class="st5" points="158.3,111.3 161.7,107.9 165.2,111.3 	"/>
	<polygon class="st6" points="165.2,104.5 161.7,107.9 158.3,104.5 	"/>
	<path class="st1" d="M154.5,129.5h-12.1l-2.4-2.4v-9.7l2.4-2.4h12L154.5,129.5z"/>
	<rect x="143.9" y="118.9" class="st2" width="6.8" height="6.8"/>
	<polygon class="st3" points="143.9,118.9 147.3,122.3 143.9,125.7 	"/>
	<polygon class="st4" points="150.8,125.7 147.3,122.3 150.8,118.9 	"/>
	<polygon class="st5" points="143.9,125.7 147.3,122.3 150.8,125.7 	"/>
	<polygon class="st6" points="150.8,118.9 147.3,122.3 143.9,118.9 	"/>
	<path class="st1" d="M166.6,129.5h-12v-14.4h12l2.4,2.4v9.7L166.6,129.5z"/>
	<rect x="158.3" y="118.9" class="st2" width="6.8" height="6.8"/>
	<polygon class="st3" points="158.3,118.9 161.7,122.3 158.3,125.7 	"/>
	<polygon class="st4" points="165.2,125.7 161.7,122.3 165.2,118.9 	"/>
	<polygon class="st5" points="158.3,125.7 161.7,122.3 165.2,125.7 	"/>
	<polygon class="st6" points="165.2,118.9 161.7,122.3 158.3,118.9 	"/>
	<path class="st1" d="M154.5,143.9h-12.1l-2.4-2.4v-9.7l2.4-2.4h12L154.5,143.9z"/>
	<rect x="143.9" y="133.3" class="st2" width="6.8" height="6.8"/>
	<polygon class="st3" points="143.9,133.3 147.3,136.7 143.9,140.1 	"/>
	<polygon class="st4" points="150.8,140.1 147.3,136.7 150.8,133.3 	"/>
	<polygon class="st5" points="143.9,140.1 147.3,136.7 150.8,140.1 	"/>
	<polygon class="st6" points="150.8,133.3 147.3,136.7 143.9,133.3 	"/>
	<path class="st1" d="M166.6,143.9h-12v-14.4h12l2.4,2.4v9.7L166.6,143.9z"/>
	<rect x="158.3" y="133.3" class="st2" width="6.8" height="6.8"/>
	<polygon class="st3" points="158.3,133.3 161.7,136.7 158.3,140.1 	"/>
	<polygon class="st4" points="165.2,140.1 161.7,136.7 165.2,133.3 	"/>
	<polygon class="st5" points="158.3,140.1 161.7,136.7 165.2,140.1 	"/>
	<polygon class="st6" points="165.2,133.3 161.7,136.7 158.3,133.3 	"/>
	<path class="st1" d="M154.5,158.3h-12.1l-2.4-2.4v-9.7l2.4-2.4h12L154.5,158.3z"/>
	<rect x="143.9" y="147.7" class="st2" width="6.8" height="6.8"/>
	<polygon class="st3" points="143.9,147.7 147.3,151.1 143.9,154.5 	"/>
	<polygon class="st4" points="150.8,154.5 147.3,151.1 150.8,147.7 	"/>
	<polygon class="st5" points="143.9,154.5 147.3,151.1 150.8,154.5 	"/>
	<polygon class="st6" points="150.8,147.7 147.3,151.1 143.9,147.7 	"/>
	<path class="st1" d="M166.6,158.3h-12v-14.4h12l2.4,2.4v9.7L166.6,158.3z"/>
	<rect x="158.3" y="147.7" class="st2" width="6.8" height="6.8"/>
	<polygon class="st3" points="158.3,147.7 161.7,151.1 158.3,154.5 	"/>
	<polygon class="st4" points="165.2,154.5 161.7,151.1 165.2,147.7 	"/>
	<polygon class="st5" points="158.3,154.5 161.7,151.1 165.2,154.5 	"/>
	<polygon class="st6" points="165.2,147.7 161.7,151.1 158.3,147.7 	"/>
	<path class="st1" d="M154.5,172.7h-12.1l-2.4-2.4v-9.7l2.4-2.4h12L154.5,172.7z"/>
	<rect x="143.9" y="162.1" class="st2" width="6.8" height="6.8"/>
	<polygon class="st3" points="143.9,162.1 147.3,165.5 143.9,168.9 	"/>
	<polygon class="st4" points="150.8,168.9 147.3,165.5 150.8,162.1 	"/>
	<polygon class="st5" points="143.9,168.9 147.3,165.5 150.8,168.9 	"/>
	<polygon class="st6" points="150.8,162.1 147.3,165.5 143.9,162.1 	"/>
	<path class="st1" d="M166.6,172.7h-12v-14.4h12l2.4,2.4v9.7L166.6,172.7z"/>
	<rect x="158.3" y="162.1" class="st2" width="6.8" height="6.8"/>
	<polygon class="st3" points="158.3,162.1 161.7,165.5 158.3,168.9 	"/>
	<polygon class="st4" points="165.2,168.9 161.7,165.5 165.2,162.1 	"/>
	<polygon class="st5" points="158.3,168.9 161.7,165.5 165.2,168.9 	"/>
	<polygon class="st6" points="165.2,162.1 161.7,165.5 158.3,162.1 	"/>
	<path class="st1" d="M154.5,187.1h-12.1l-2.4-2.4V175l2.4-2.3h12L154.5,187.1z"/>
	<rect x="143.9" y="176.5" class="st2" width="6.8" height="6.8"/>
	<polygon class="st3" points="143.9,176.5 147.3,179.9 143.9,183.3 	"/>
	<polygon class="st4" points="150.8,183.3 147.3,179.9 150.8,176.5 	"/>
	<polygon class="st5" points="143.9,183.3 147.3,179.9 150.8,183.3 	"/>
	<polygon class="st6" points="150.8,176.5 147.3,179.9 143.9,176.5 	"/>
	<path class="st1" d="M166.6,187.1h-12v-14.4h12l2.4,2.3v9.7L166.6,187.1z"/>
	<rect x="158.3" y="176.5" class="st2" width="6.8" height="6.8"/>
	<polygon class="st3" points="158.3,176.5 161.7,179.9 158.3,183.3 	"/>
	<polygon class="st4" points="165.2,183.3 161.7,179.9 165.2,176.5 	"/>
	<polygon class="st5" points="158.3,183.3 161.7,179.9 165.2,183.3 	"/>
	<polygon class="st6" points="165.2,176.5 161.7,179.9 158.3,176.5 	"/>
	<path class="st1" d="M154.5,201.5h-12.1l-2.4-2.4v-9.7l2.4-2.4h12L154.5,201.5z"/>
	<rect x="143.9" y="190.9" class="st2" width="6.8" height="6.8"/>
	<polygon class="st3" points="143.9,190.9 147.3,194.3 143.9,197.7 	"/>
	<polygon class="st4" points="150.8,197.7 147.3,194.3 150.8,190.9 	"/>
	<polygon class="st5" points="143.9,197.7 147.3,194.3 150.8,197.7 	"/>
	<polygon class="st6" points="150.8,190.9 147.3,194.3 143.9,190.9 	"/>
	<path class="st1" d="M166.6,201.5h-12v-14.4h12l2.4,2.4v9.7L166.6,201.5z"/>
	<rect x="158.3" y="190.9" class="st2" width="6.8" height="6.8"/>
	<polygon class="st3" points="158.3,190.9 161.7,194.3 158.3,197.7 	"/>
	<polygon class="st4" points="165.2,197.7 161.7,194.3 165.2,190.9 	"/>
	<polygon class="st5" points="158.3,197.7 161.7,194.3 165.2,197.7 	"/>
	<polygon class="st6" points="165.2,190.9 161.7,194.3 158.3,190.9 	"/>
	<path class="st1" d="M154.5,215.9h-12.1l-2.4-2.4v-9.7l2.4-2.4h12L154.5,215.9z"/>
	<rect x="143.9" y="205.3" class="st2" width="6.8" height="6.8"/>
	<polygon class="st3" points="143.9,205.3 147.3,208.7 143.9,212.1 	"/>
	<polygon class="st4" points="150.8,212.1 147.3,208.7 150.8,205.3 	"/>
	<polygon class="st5" points="143.9,212.1 147.3,208.7 150.8,212.1 	"/>
	<polygon class="st6" points="150.8,205.3 147.3,208.7 143.9,205.3 	"/>
	<path class="st1" d="M166.6,215.9h-12v-14.4h12l2.4,2.4v9.7L166.6,215.9z"/>
	<rect x="158.3" y="205.3" class="st2" width="6.8" height="6.8"/>
	<polygon class="st3" points="158.3,205.3 161.7,208.7 158.3,212.1 	"/>
	<polygon class="st4" points="165.2,212.1 161.7,208.7 165.2,205.3 	"/>
	<polygon class="st5" points="158.3,212.1 161.7,208.7 165.2,212.1 	"/>
	<polygon class="st6" points="165.2,205.3 161.7,208.7 158.3,205.3 	"/>
	<path class="st1" d="M154.5,230.3h-12.1l-2.4-2.4v-9.7l2.4-2.4h12L154.5,230.3z"/>
	<rect x="143.9" y="219.7" class="st2" width="6.8" height="6.8"/>
	<polygon class="st3" points="143.9,219.7 147.3,223.1 143.9,226.5 	"/>
	<polygon class="st4" points="150.8,226.5 147.3,223.1 150.8,219.7 	"/>
	<polygon class="st5" points="143.9,226.5 147.3,223.1 150.8,226.5 	"/>
	<polygon class="st6" points="150.8,219.7 147.3,223.1 143.9,219.7 	"/>
	<path class="st1" d="M166.6,230.3h-12v-14.4h12l2.4,2.4v9.7L166.6,230.3z"/>
	<rect x="158.3" y="219.7" class="st2" width="6.8" height="6.8"/>
	<polygon class="st3" points="158.3,219.7 161.7,223.1 158.3,226.5 	"/>
	<polygon class="st4" points="165.2,226.5 161.7,223.1 165.2,219.7 	"/>
	<polygon class="st5" points="158.3,226.5 161.7,223.1 165.2,226.5 	"/>
	<polygon class="st6" points="165.2,219.7 161.7,223.1 158.3,219.7 	"/>
	<path class="st1" d="M154.5,244.7h-12.1l-2.4-2.4v-9.7l2.4-2.4h12L154.5,244.7z"/>
	<rect x="143.9" y="234.1" class="st2" width="6.8" height="6.8"/>
	<polygon class="st3" points="143.9,234.1 147.3,237.5 143.9,240.9 	"/>
	<polygon class="st4" points="150.8,240.9 147.3,237.5 150.8,234.1 	"/>
	<polygon class="st5" points="143.9,240.9 147.3,237.5 150.8,240.9 	"/>
	<polygon class="st6" points="150.8,234.1 147.3,237.5 143.9,234.1 	"/>
	<path class="st1" d="M166.6,244.7h-12v-14.4h12l2.4,2.4v9.7L166.6,244.7z"/>
	<rect x="158.3" y="234.1" class="st2" width="6.8" height="6.8"/>
	<polygon class="st3" points="158.3,234.1 161.7,237.5 158.3,240.9 	"/>
	<polygon class="st4" points="165.2,240.9 161.7,237.5 165.2,234.1 	"/>
	<polygon class="st5" points="158.3,240.9 161.7,237.5 165.2,240.9 	"/>
	<polygon class="st6" points="165.2,234.1 161.7,237.5 158.3,234.1 	"/>
	<path class="st1" d="M154.5,259.1h-12.1l-2.4-2.4V247l2.4-2.3h12L154.5,259.1z"/>
	<rect x="143.9" y="248.5" class="st2" width="6.8" height="6.8"/>
	<polygon class="st3" points="143.9,248.5 147.3,251.9 143.9,255.3 	"/>
	<polygon class="st4" points="150.8,255.3 147.3,251.9 150.8,248.5 	"/>
	<polygon class="st5" points="143.9,255.3 147.3,251.9 150.8,255.3 	"/>
	<polygon class="st6" points="150.8,248.5 147.3,251.9 143.9,248.5 	"/>
	<path class="st1" d="M166.6,259.1h-12v-14.4h12l2.4,2.3v9.7L166.6,259.1z"/>
	<rect x="158.3" y="248.5" class="st2" width="6.8" height="6.8"/>
	<polygon class="st3" points="158.3,248.5 161.7,251.9 158.3,255.3 	"/>
	<polygon class="st4" points="165.2,255.3 161.7,251.9 165.2,248.5 	"/>
	<polygon class="st5" points="158.3,255.3 161.7,251.9 165.2,255.3 	"/>
	<polygon class="st6" points="165.2,248.5 161.7,251.9 158.3,248.5 	"/>
	<path class="st1" d="M154.5,273.5h-12.1l-2.4-2.4v-9.7l2.4-2.4h12L154.5,273.5z"/>
	<rect x="143.9" y="262.9" class="st2" width="6.8" height="6.8"/>
	<polygon class="st3" points="143.9,262.9 147.3,266.3 143.9,269.7 	"/>
	<polygon class="st4" points="150.8,269.7 147.3,266.3 150.8,262.9 	"/>
	<polygon class="st5" points="143.9,269.7 147.3,266.3 150.8,269.7 	"/>
	<polygon class="st6" points="150.8,262.9 147.3,266.3 143.9,262.9 	"/>
	<path class="st1" d="M166.6,273.5h-12v-14.4h12l2.4,2.4v9.7L166.6,273.5z"/>
	<rect x="158.3" y="262.9" class="st2" width="6.8" height="6.8"/>
	<polygon class="st3" points="158.3,262.9 161.7,266.3 158.3,269.7 	"/>
	<polygon class="st4" points="165.2,269.7 161.7,266.3 165.2,262.9 	"/>
	<polygon class="st5" points="158.3,269.7 161.7,266.3 165.2,269.7 	"/>
	<polygon class="st6" points="165.2,262.9 161.7,266.3 158.3,262.9 	"/>
	<path class="st1" d="M154.5,287.9h-12.1l-2.4-2.4v-9.7l2.4-2.4h12L154.5,287.9z"/>
	<rect x="143.9" y="277.3" class="st2" width="6.8" height="6.8"/>
	<polygon class="st3" points="143.9,277.3 147.3,280.7 143.9,284.1 	"/>
	<polygon class="st4" points="150.8,284.1 147.3,280.7 150.8,277.3 	"/>
	<polygon class="st5" points="143.9,284.1 147.3,280.7 150.8,284.1 	"/>
	<polygon class="st6" points="150.8,277.3 147.3,280.7 143.9,277.3 	"/>
	<path class="st1" d="M166.6,287.9h-12v-14.4h12l2.4,2.4v9.7L166.6,287.9z"/>
	<rect x="158.3" y="277.3" class="st2" width="6.8" height="6.8"/>
	<polygon class="st3" points="158.3,277.3 161.7,280.7 158.3,284.1 	"/>
	<polygon class="st4" points="165.2,284.1 161.7,280.7 165.2,277.3 	"/>
	<polygon class="st5" points="158.3,284.1 161.7,280.7 165.2,284.1 	"/>
	<polygon class="st6" points="165.2,277.3 161.7,280.7 158.3,277.3 	"/>
	<path class="st1" d="M154.5,302.3h-12.1l-2.4-2.4v-9.7l2.4-2.4h12L154.5,302.3z"/>
	<rect x="143.9" y="291.7" class="st2" width="6.8" height="6.8"/>
	<polygon class="st3" points="143.9,291.7 147.3,295.1 143.9,298.5 	"/>
	<polygon class="st4" points="150.8,298.5 147.3,295.1 150.8,291.7 	"/>
	<polygon class="st5" points="143.9,298.5 147.3,295.1 150.8,298.5 	"/>
	<polygon class="st6" points="150.8,291.7 147.3,295.1 143.9,291.7 	"/>
	<path class="st1" d="M166.6,302.3h-12v-14.4h12l2.4,2.4v9.7L166.6,302.3z"/>
	<rect x="158.3" y="291.7" class="st2" width="6.8" height="6.8"/>
	<polygon class="st3" points="158.3,291.7 161.7,295.1 158.3,298.5 	"/>
	<polygon class="st4" points="165.2,298.5 161.7,295.1 165.2,291.7 	"/>
	<polygon class="st5" points="158.3,298.5 161.7,295.1 165.2,298.5 	"/>
	<polygon class="st6" points="165.2,291.7 161.7,295.1 158.3,291.7 	"/>
	<path class="st1" d="M154.5,316.7h-12.1l-2.4-2.4v-9.7l2.4-2.4h12L154.5,316.7z"/>
	<rect x="143.9" y="306.1" class="st2" width="6.8" height="6.8"/>
	<polygon class="st3" points="143.9,306.1 147.3,309.5 143.9,312.9 	"/>
	<polygon class="st4" points="150.8,312.9 147.3,309.5 150.8,306.1 	"/>
	<polygon class="st5" points="143.9,312.9 147.3,309.5 150.8,312.9 	"/>
	<polygon class="st6" points="150.8,306.1 147.3,309.5 143.9,306.1 	"/>
	<path class="st1" d="M166.6,316.7h-12v-14.4h12l2.4,2.4v9.7L166.6,316.7z"/>
	<rect x="158.3" y="306.1" class="st2" width="6.8" height="6.8"/>
	<polygon class="st3" points="158.3,306.1 161.7,309.5 158.3,312.9 	"/>
	<polygon class="st4" points="165.2,312.9 161.7,309.5 165.2,306.1 	"/>
	<polygon class="st5" points="158.3,312.9 161.7,309.5 165.2,312.9 	"/>
	<polygon class="st6" points="165.2,306.1 161.7,309.5 158.3,306.1 	"/>
	<path class="st1" d="M154.5,331.1h-12.1l-2.4-2.4V319l2.4-2.3h12L154.5,331.1z"/>
	<rect x="143.9" y="320.5" class="st2" width="6.8" height="6.8"/>
	<polygon class="st3" points="143.9,320.5 147.3,323.9 143.9,327.3 	"/>
	<polygon class="st4" points="150.8,327.3 147.3,323.9 150.8,320.5 	"/>
	<polygon class="st5" points="143.9,327.3 147.3,323.9 150.8,327.3 	"/>
	<polygon class="st6" points="150.8,320.5 147.3,323.9 143.9,320.5 	"/>
	<path class="st1" d="M166.6,331.1h-12v-14.4h12l2.4,2.3v9.7L166.6,331.1z"/>
	<rect x="158.3" y="320.5" class="st2" width="6.8" height="6.8"/>
	<polygon class="st3" points="158.3,320.5 161.7,323.9 158.3,327.3 	"/>
	<polygon class="st4" points="165.2,327.3 161.7,323.9 165.2,320.5 	"/>
	<polygon class="st5" points="158.3,327.3 161.7,323.9 165.2,327.3 	"/>
	<polygon class="st6" points="165.2,320.5 161.7,323.9 158.3,320.5 	"/>
</g>
<g>
	<rect x="67" y="292.6" class="st7" width="9.5" height="3.9"/>
	<rect x="67" y="296.4" class="st8" width="9.5" height="13.8"/>
	<rect x="68.7" y="289.5" class="st9" width="6.2" height="3"/>
	<rect x="68.7" y="310.2" class="st9" width="6.2" height="3"/>
</g>
<g>
	<rect x="118.7" y="235.6" class="st10" width="5.7" height="4"/>
	<path class="st11" d="M124.4,235.6v4h-5.7v-4H124.4 M124.9,235.2h-6.7v5h6.7C124.9,240.2,124.9,235.2,124.9,235.2z"/>
	<rect x="124.4" y="236.8" class="st6" width="1" height="1.6"/>
	<rect x="118.7" y="225.2" class="st10" width="5.7" height="4"/>
	<path class="st11" d="M124.4,225.2v4h-5.7v-4H124.4 M124.9,224.9h-6.7v5h6.7C124.9,229.9,124.9,224.9,124.9,224.9z"/>
	<rect x="120.9" y="224.3" class="st6" width="1.5" height="1"/>
	<rect x="117.6" y="226.6" class="st6" width="1" height="1.6"/>
	<rect x="119.2" y="235.7" class="st12" width="4.7" height="1.6"/>
	<rect x="119.2" y="228.1" class="st12" width="4.7" height="1.6"/>
	<rect x="119.2" y="229.7" class="st13" width="4.7" height="6"/>
	<line class="st14" x1="118.7" y1="234" x2="118.7" y2="230.9"/>
	<line class="st14" x1="124.7" y1="234" x2="124.7" y2="230.9"/>
</g>
<g>
	<rect x="118.7" y="264.1" class="st10" width="5.7" height="4"/>
	<path class="st11" d="M124.4,264.1v4h-5.7v-4H124.4 M124.9,263.8h-6.7v5h6.7C124.9,268.8,124.9,263.8,124.9,263.8z"/>
	<rect x="124.4" y="265.4" class="st6" width="1" height="1.6"/>
	<rect x="118.7" y="253.8" class="st10" width="5.7" height="4"/>
	<path class="st11" d="M124.4,253.8v4h-5.7v-4H124.4 M124.9,253.5h-6.7v5h6.7C124.9,258.5,124.9,253.5,124.9,253.5z"/>
	<rect x="120.9" y="252.9" class="st6" width="1.5" height="1"/>
	<rect x="117.6" y="255.2" class="st6" width="1" height="1.6"/>
	<rect x="119.2" y="264.3" class="st12" width="4.7" height="1.6"/>
	<rect x="119.2" y="256.7" class="st12" width="4.7" height="1.6"/>
	<rect x="119.2" y="258.3" class="st13" width="4.7" height="6"/>
	<line class="st14" x1="118.7" y1="262.6" x2="118.7" y2="259.5"/>
	<line class="st14" x1="124.7" y1="262.6" x2="124.7" y2="259.5"/>
</g>
<g>
	<rect x="87.7" y="224.3" class="st10" width="4" height="5.7"/>
	<path class="st11" d="M87.7,224.3h4v5.7h-4V224.3 M87.3,223.8v6.7h5v-6.7H87.3z"/>
	<rect x="88.9" y="223.2" class="st6" width="1.6" height="1"/>
	<rect x="77.3" y="224.3" class="st10" width="4" height="5.7"/>
	<path class="st11" d="M77.3,224.3h4v5.7h-4V224.3 M77,223.8v6.7h5v-6.7H77z"/>
	<rect x="76.4" y="226.2" class="st6" width="1" height="1.6"/>
	<rect x="78.7" y="230" class="st6" width="1.6" height="1"/>
	<rect x="87.8" y="224.8" class="st12" width="1.6" height="4.7"/>
	<rect x="80.2" y="224.8" class="st12" width="1.6" height="4.7"/>
	<rect x="81.8" y="224.8" class="st15" width="6" height="4.7"/>
	<line class="st14" x1="86.1" y1="230" x2="83" y2="230"/>
	<line class="st14" x1="86.1" y1="223.9" x2="83" y2="223.9"/>
</g>
<g>
	<rect x="87.7" y="240.4" class="st10" width="4" height="5.7"/>
	<path class="st11" d="M87.7,240.4h4v5.7h-4V240.4 M87.3,239.9v6.7h5v-6.7H87.3z"/>
	<rect x="88.9" y="239.4" class="st6" width="1.6" height="1"/>
	<rect x="77.3" y="240.4" class="st10" width="4" height="5.7"/>
	<path class="st11" d="M77.3,240.4h4v5.7h-4V240.4 M77,239.9v6.7h5v-6.7H77z"/>
	<rect x="76.4" y="242.3" class="st6" width="1" height="1.6"/>
	<rect x="78.7" y="246.1" class="st6" width="1.6" height="1"/>
	<rect x="87.8" y="240.9" class="st12" width="1.6" height="4.7"/>
	<rect x="80.2" y="240.9" class="st12" width="1.6" height="4.7"/>
	<rect x="81.8" y="240.9" class="st15" width="6" height="4.7"/>
	<line class="st14" x1="86.1" y1="246.1" x2="83" y2="246.1"/>
	<line class="st14" x1="86.1" y1="240" x2="83" y2="240"/>
</g>
<g>
	<rect x="76.5" y="264" class="st10" width="5.7" height="4"/>
	<path class="st11" d="M82.1,264v4h-5.7v-4H82.1 M82.7,263.6h-6.7v5h6.7V263.6z"/>
	<rect x="82.1" y="265.2" class="st6" width="1" height="1.6"/>
	<rect x="76.5" y="253.6" class="st10" width="5.7" height="4"/>
	<path class="st11" d="M82.1,253.6v4h-5.7v-4H82.1 M82.7,253.3h-6.7v5h6.7V253.3z"/>
	<rect x="78.7" y="252.8" class="st6" width="1.6" height="1"/>
	<rect x="75.4" y="255" class="st6" width="1" height="1.6"/>
	<rect x="77" y="264.1" class="st12" width="4.7" height="1.6"/>
	<rect x="77" y="256.6" class="st12" width="4.7" height="1.6"/>
	<rect x="77" y="258.1" class="st15" width="4.7" height="6"/>
	<line class="st14" x1="76.5" y1="262.4" x2="76.5" y2="259.3"/>
	<line class="st14" x1="82.5" y1="262.4" x2="82.5" y2="259.3"/>
</g>
<g>
	<rect x="68.8" y="276.6" class="st10" width="5.1" height="5.3"/>
	<rect x="84" y="276.7" class="st10" width="5.1" height="5.3"/>
	<rect x="71.3" y="275.2" class="st15" width="15.4" height="8.3"/>
</g>
<g>
	<rect x="44.2" y="352.1" class="st10" width="5.7" height="4"/>
	<path class="st11" d="M49.9,352.1v4h-5.7v-4H49.9 M50.4,351.8h-6.7v5h6.7V351.8z"/>
	<rect x="49.9" y="353.3" class="st6" width="1" height="1.6"/>
	<rect x="44.2" y="341.8" class="st10" width="5.7" height="4"/>
	<path class="st11" d="M49.9,341.8v4h-5.7v-4H49.9 M50.4,341.4h-6.7v5h6.7V341.4z"/>
	<rect x="46.4" y="340.9" class="st6" width="1.6" height="1"/>
	<rect x="43.1" y="343.1" class="st6" width="1" height="1.6"/>
	<rect x="44.7" y="352.3" class="st12" width="4.7" height="1.6"/>
	<rect x="44.7" y="344.7" class="st12" width="4.7" height="1.6"/>
	<rect x="44.7" y="346.2" class="st15" width="4.7" height="6"/>
	<line class="st14" x1="44.2" y1="350.6" x2="44.2" y2="347.5"/>
	<line class="st14" x1="50.2" y1="350.6" x2="50.2" y2="347.5"/>
</g>
<g>
	<rect x="128.8" y="352.1" class="st10" width="5.7" height="4"/>
	<path class="st11" d="M134.5,352.1v4h-5.7v-4H134.5 M135,351.8h-6.7v5h6.7V351.8z"/>
	<rect x="134.5" y="353.3" class="st6" width="1" height="1.6"/>
	<rect x="128.8" y="341.8" class="st10" width="5.7" height="4"/>
	<path class="st11" d="M134.5,341.8v4h-5.7v-4H134.5 M135,341.4h-6.7v5h6.7V341.4z"/>
	<rect x="131.1" y="340.9" class="st6" width="1.6" height="1"/>
	<rect x="127.8" y="343.1" class="st6" width="1" height="1.6"/>
	<rect x="129.3" y="352.3" class="st12" width="4.7" height="1.6"/>
	<rect x="129.3" y="344.7" class="st12" width="4.7" height="1.6"/>
	<rect x="129.3" y="346.2" class="st15" width="4.7" height="6"/>
	<line class="st14" x1="128.8" y1="350.6" x2="128.8" y2="347.5"/>
	<line class="st14" x1="134.9" y1="350.6" x2="134.9" y2="347.5"/>
</g>
<g>
	<rect x="104.5" y="264" class="st10" width="5.7" height="4"/>
	<path class="st11" d="M110.2,264v4h-5.7v-4H110.2 M110.7,263.6H104v5h6.7V263.6z"/>
	<rect x="110.2" y="265.2" class="st6" width="1" height="1.6"/>
	<rect x="104.5" y="253.6" class="st10" width="5.7" height="4"/>
	<path class="st11" d="M110.2,253.6v4h-5.7v-4H110.2 M110.7,253.3H104v5h6.7V253.3z"/>
	<rect x="106.7" y="252.8" class="st6" width="1.6" height="1"/>
	<rect x="103.4" y="255" class="st6" width="1" height="1.6"/>
	<rect x="105" y="264.1" class="st12" width="4.7" height="1.6"/>
	<rect x="105" y="256.6" class="st12" width="4.7" height="1.6"/>
	<rect x="105" y="258.1" class="st15" width="4.7" height="6"/>
	<line class="st14" x1="104.5" y1="262.4" x2="104.5" y2="259.3"/>
	<line class="st14" x1="110.5" y1="262.4" x2="110.5" y2="259.3"/>
</g>
<g>
	<rect x="104.5" y="235.1" class="st10" width="5.7" height="4"/>
	<path class="st11" d="M110.2,235.1v4h-5.7v-4H110.2 M110.7,234.8H104v5h6.7V234.8z"/>
	<rect x="110.2" y="236.3" class="st6" width="1" height="1.6"/>
	<rect x="104.5" y="224.8" class="st10" width="5.7" height="4"/>
	<path class="st11" d="M110.2,224.8v4h-5.7v-4H110.2 M110.7,224.4H104v5h6.7V224.4z"/>
	<rect x="106.7" y="223.9" class="st6" width="1.6" height="1"/>
	<rect x="103.4" y="226.2" class="st6" width="1" height="1.6"/>
	<rect x="105" y="235.3" class="st12" width="4.7" height="1.6"/>
	<rect x="105" y="227.7" class="st12" width="4.7" height="1.6"/>
	<rect x="105" y="229.3" class="st15" width="4.7" height="6"/>
	<line class="st14" x1="104.5" y1="233.6" x2="104.5" y2="230.5"/>
	<line class="st14" x1="110.5" y1="233.6" x2="110.5" y2="230.5"/>
</g>
<g>
	<rect x="26.1" y="223.7" class="st10" width="4" height="5.7"/>
	<path class="st11" d="M26.1,223.7h4v5.7h-4V223.7 M25.8,223.1v6.7h5v-6.7H25.8z"/>
	<rect x="27.3" y="222.6" class="st6" width="1.6" height="1"/>
	<rect x="15.8" y="223.7" class="st10" width="4" height="5.7"/>
	<path class="st11" d="M15.8,223.7h4v5.7h-4V223.7 M15.4,223.1v6.7h5v-6.7H15.4z"/>
	<rect x="14.9" y="225.6" class="st6" width="1" height="1.6"/>
	<rect x="17.2" y="229.3" class="st6" width="1.6" height="1"/>
	<rect x="26.3" y="224.2" class="st12" width="1.6" height="4.7"/>
	<rect x="18.7" y="224.2" class="st12" width="1.6" height="4.7"/>
	<rect x="20.3" y="224.2" class="st16" width="6" height="4.7"/>
	<line class="st14" x1="24.6" y1="229.3" x2="21.5" y2="229.3"/>
	<line class="st14" x1="24.6" y1="223.3" x2="21.5" y2="223.3"/>
</g>
<g>
	<rect x="26.1" y="240.6" class="st10" width="4" height="5.7"/>
	<path class="st11" d="M26.1,240.6h4v5.7h-4V240.6 M25.8,240v6.7h5V240H25.8z"/>
	<rect x="27.3" y="239.5" class="st6" width="1.6" height="1"/>
	<rect x="15.8" y="240.6" class="st10" width="4" height="5.7"/>
	<path class="st11" d="M15.8,240.6h4v5.7h-4V240.6 M15.4,240v6.7h5V240H15.4z"/>
	<rect x="14.9" y="242.5" class="st6" width="1" height="1.6"/>
	<rect x="17.2" y="246.2" class="st6" width="1.6" height="1"/>
	<rect x="26.3" y="241.1" class="st12" width="1.6" height="4.7"/>
	<rect x="18.7" y="241.1" class="st12" width="1.6" height="4.7"/>
	<rect x="20.3" y="241.1" class="st16" width="6" height="4.7"/>
	<line class="st14" x1="24.6" y1="246.2" x2="21.5" y2="246.2"/>
	<line class="st14" x1="24.6" y1="240.2" x2="21.5" y2="240.2"/>
</g>
<g>
	<rect x="26.1" y="263.1" class="st10" width="4" height="5.7"/>
	<path class="st11" d="M26.1,263.1h4v5.7h-4V263.1 M25.8,262.6v6.7h5v-6.7H25.8z"/>
	<rect x="27.3" y="262.1" class="st6" width="1.6" height="1"/>
	<rect x="15.8" y="263.1" class="st10" width="4" height="5.7"/>
	<path class="st11" d="M15.8,263.1h4v5.7h-4V263.1 M15.4,262.6v6.7h5v-6.7H15.4z"/>
	<rect x="14.9" y="265" class="st6" width="1" height="1.6"/>
	<rect x="17.2" y="268.8" class="st6" width="1.6" height="1"/>
	<rect x="26.3" y="263.6" class="st12" width="1.6" height="4.7"/>
	<rect x="18.7" y="263.6" class="st12" width="1.6" height="4.7"/>
	<rect x="20.3" y="263.6" class="st16" width="6" height="4.7"/>
	<line class="st14" x1="24.6" y1="268.8" x2="21.5" y2="268.8"/>
	<line class="st14" x1="24.6" y1="262.8" x2="21.5" y2="262.8"/>
</g>
<g>
	<rect x="116.4" y="294.7" class="st10" width="5.7" height="4"/>
	<path class="st11" d="M116.4,298.6v-4h5.7v4H116.4 M115.9,299h6.7v-5h-6.7V299z"/>
	<rect x="115.4" y="295.9" class="st6" width="1" height="1.6"/>
	<rect x="116.4" y="305" class="st10" width="5.7" height="4"/>
	<path class="st11" d="M116.4,309v-4h5.7v4H116.4 M115.9,309.3h6.7v-5h-6.7V309.3z"/>
	<rect x="118.3" y="308.8" class="st6" width="1.6" height="1"/>
	<rect x="122.1" y="306" class="st6" width="1" height="1.6"/>
	<rect x="116.9" y="296.9" class="st12" width="4.7" height="1.6"/>
	<rect x="116.9" y="304.5" class="st12" width="4.7" height="1.6"/>
	<rect x="116.9" y="298.4" class="st16" width="4.7" height="6"/>
	<line class="st14" x1="122.1" y1="300.2" x2="122.1" y2="303.3"/>
	<line class="st14" x1="116.1" y1="300.2" x2="116.1" y2="303.3"/>
</g>
<g>
	<rect x="128.8" y="294.7" class="st10" width="5.7" height="4"/>
	<path class="st11" d="M128.8,298.6v-4h5.7v4H128.8 M128.3,299h6.7v-5h-6.7V299z"/>
	<rect x="127.7" y="295.9" class="st6" width="1" height="1.6"/>
	<rect x="128.8" y="305" class="st10" width="5.7" height="4"/>
	<path class="st11" d="M128.8,309v-4h5.7v4H128.8 M128.3,309.3h6.7v-5h-6.7V309.3z"/>
	<rect x="130.7" y="308.8" class="st6" width="1.6" height="1"/>
	<rect x="134.5" y="306" class="st6" width="1" height="1.6"/>
	<rect x="129.3" y="296.9" class="st12" width="4.7" height="1.6"/>
	<rect x="129.3" y="304.5" class="st12" width="4.7" height="1.6"/>
	<rect x="129.3" y="298.4" class="st16" width="4.7" height="6"/>
	<line class="st14" x1="134.5" y1="300.2" x2="134.5" y2="303.3"/>
	<line class="st14" x1="128.4" y1="300.2" x2="128.4" y2="303.3"/>
</g>
<g>
	<rect x="82" y="294.7" class="st10" width="5.7" height="4"/>
	<path class="st11" d="M82,298.6v-4h5.7v4H82 M81.5,299h6.7v-5h-6.7V299z"/>
	<rect x="80.9" y="295.9" class="st6" width="1" height="1.6"/>
	<rect x="82" y="305" class="st10" width="5.7" height="4"/>
	<path class="st11" d="M82,309v-4h5.7v4H82 M81.5,309.3h6.7v-5h-6.7V309.3z"/>
	<rect x="83.9" y="308.8" class="st6" width="1.6" height="1"/>
	<rect x="87.7" y="306" class="st6" width="1" height="1.6"/>
	<rect x="82.5" y="296.9" class="st12" width="4.7" height="1.6"/>
	<rect x="82.5" y="304.5" class="st12" width="4.7" height="1.6"/>
	<rect x="82.5" y="298.4" class="st16" width="4.7" height="6"/>
	<line class="st14" x1="87.7" y1="300.2" x2="87.7" y2="303.3"/>
	<line class="st14" x1="81.6" y1="300.2" x2="81.6" y2="303.3"/>
</g>
<g>
	<rect x="55.5" y="311.3" class="st10" width="4" height="5.7"/>
	<path class="st11" d="M55.5,311.3h4v5.7h-4V311.3 M55.2,310.8v6.7h5v-6.7H55.2z"/>
	<rect x="56.7" y="310.3" class="st6" width="1.6" height="1"/>
	<rect x="45.2" y="311.3" class="st10" width="4" height="5.7"/>
	<path class="st11" d="M45.2,311.3h4v5.7h-4V311.3 M44.8,310.8v6.7h5v-6.7H44.8z"/>
	<rect x="44.3" y="313.2" class="st6" width="1" height="1.6"/>
	<rect x="46.6" y="317" class="st6" width="1.6" height="1"/>
	<rect x="55.7" y="311.9" class="st12" width="1.6" height="4.7"/>
	<rect x="48.1" y="311.9" class="st12" width="1.6" height="4.7"/>
	<rect x="49.7" y="311.9" class="st16" width="6" height="4.7"/>
	<line class="st14" x1="54" y1="317" x2="50.9" y2="317"/>
	<line class="st14" x1="54" y1="311" x2="50.9" y2="311"/>
</g>
<g>
	<rect x="55.5" y="326.6" class="st10" width="4" height="5.7"/>
	<path class="st11" d="M55.5,326.6h4v5.7h-4V326.6 M55.2,326.1v6.7h5v-6.7H55.2z"/>
	<rect x="56.7" y="325.6" class="st6" width="1.6" height="1"/>
	<rect x="45.2" y="326.6" class="st10" width="4" height="5.7"/>
	<path class="st11" d="M45.2,326.6h4v5.7h-4V326.6 M44.8,326.1v6.7h5v-6.7H44.8z"/>
	<rect x="44.3" y="328.5" class="st6" width="1" height="1.6"/>
	<rect x="46.6" y="332.3" class="st6" width="1.6" height="1"/>
	<rect x="55.7" y="327.2" class="st12" width="1.6" height="4.7"/>
	<rect x="48.1" y="327.2" class="st12" width="1.6" height="4.7"/>
	<rect x="49.7" y="327.2" class="st16" width="6" height="4.7"/>
	<line class="st14" x1="54" y1="332.3" x2="50.9" y2="332.3"/>
	<line class="st14" x1="54" y1="326.3" x2="50.9" y2="326.3"/>
</g>
<g>
	<rect x="129.5" y="326.6" class="st10" width="4" height="5.7"/>
	<path class="st11" d="M129.5,326.6h4v5.7h-4V326.6 M129.2,326.1v6.7h5v-6.7H129.2z"/>
	<rect x="130.7" y="325.6" class="st6" width="1.6" height="1"/>
	<rect x="119.2" y="326.6" class="st10" width="4" height="5.7"/>
	<path class="st11" d="M119.2,326.6h4v5.7h-4V326.6 M118.8,326.1v6.7h5v-6.7H118.8z"/>
	<rect x="118.3" y="328.5" class="st6" width="1" height="1.6"/>
	<rect x="120.6" y="332.3" class="st6" width="1.6" height="1"/>
	<rect x="129.7" y="327.2" class="st12" width="1.6" height="4.7"/>
	<rect x="122.1" y="327.2" class="st12" width="1.6" height="4.7"/>
	<rect x="123.7" y="327.2" class="st16" width="6" height="4.7"/>
	<line class="st14" x1="128" y1="332.3" x2="124.9" y2="332.3"/>
	<line class="st14" x1="128" y1="326.3" x2="124.9" y2="326.3"/>
</g>
<g>
	<rect x="56.1" y="263.1" class="st10" width="4" height="5.7"/>
	<path class="st11" d="M56.1,263.1h4v5.7h-4V263.1 M55.8,262.6v6.7h5v-6.7H55.8z"/>
	<rect x="57.3" y="262.1" class="st6" width="1.6" height="1"/>
	<rect x="45.8" y="263.1" class="st10" width="4" height="5.7"/>
	<path class="st11" d="M45.8,263.1h4v5.7h-4V263.1 M45.4,262.6v6.7h5v-6.7H45.4z"/>
	<rect x="44.9" y="265" class="st6" width="1" height="1.6"/>
	<rect x="47.1" y="268.8" class="st6" width="1.6" height="1"/>
	<rect x="56.3" y="263.6" class="st12" width="1.6" height="4.7"/>
	<rect x="48.7" y="263.6" class="st12" width="1.6" height="4.7"/>
	<rect x="50.2" y="263.6" class="st16" width="6" height="4.7"/>
	<line class="st14" x1="54.6" y1="268.8" x2="51.5" y2="268.8"/>
	<line class="st14" x1="54.6" y1="262.8" x2="51.5" y2="262.8"/>
</g>
<g id="Atmega">
	<rect x="44.3" y="250.8" class="st17" width="0.9" height="1.6"/>
	<rect x="44.3" y="252.4" class="st6" width="0.9" height="0.8"/>
	<rect x="46.6" y="250.8" class="st17" width="0.9" height="1.6"/>
	<rect x="46.6" y="252.4" class="st6" width="0.9" height="0.8"/>
	<rect x="49" y="250.8" class="st17" width="0.9" height="1.6"/>
	<rect x="49" y="252.4" class="st6" width="0.9" height="0.8"/>
	<rect x="51.3" y="250.8" class="st17" width="0.9" height="1.6"/>
	<rect x="53.7" y="250.8" class="st17" width="0.9" height="1.6"/>
	<rect x="53.7" y="252.4" class="st6" width="0.9" height="0.8"/>
	<rect x="56" y="250.8" class="st17" width="0.9" height="1.6"/>
	<rect x="56" y="252.4" class="st6" width="0.9" height="0.8"/>
	<rect x="58.4" y="250.8" class="st17" width="0.9" height="1.6"/>
	<rect x="58.4" y="252.4" class="st6" width="0.9" height="0.8"/>
	<rect x="60.7" y="250.8" class="st17" width="0.9" height="1.6"/>
	<rect x="60.7" y="252.4" class="st6" width="0.9" height="0.8"/>
	<rect x="64.4" y="247.2" class="st17" width="1.6" height="0.9"/>
	<rect x="66" y="247.2" class="st6" width="0.8" height="0.9"/>
	<rect x="64.4" y="244.8" class="st17" width="1.6" height="0.9"/>
	<rect x="66" y="244.8" class="st6" width="0.8" height="0.9"/>
	<rect x="64.4" y="242.6" class="st17" width="1.6" height="0.9"/>
	<rect x="64.4" y="240.2" class="st17" width="1.6" height="0.9"/>
	<rect x="66" y="240.2" class="st6" width="0.8" height="0.9"/>
	<rect x="64.4" y="237.9" class="st17" width="1.6" height="0.9"/>
	<rect x="66" y="237.9" class="st6" width="0.8" height="0.9"/>
	<rect x="64.4" y="235.6" class="st17" width="1.6" height="0.9"/>
	<rect x="64.4" y="233.3" class="st17" width="1.6" height="0.9"/>
	<rect x="66" y="233.3" class="st6" width="0.8" height="0.9"/>
	<rect x="64.4" y="230.9" class="st17" width="1.6" height="0.9"/>
	<rect x="66" y="230.9" class="st6" width="0.8" height="0.9"/>
	<rect x="60.6" y="225.9" class="st17" width="0.9" height="1.6"/>
	<rect x="60.6" y="225.2" class="st6" width="0.9" height="0.8"/>
	<rect x="58.3" y="225.9" class="st17" width="0.9" height="1.6"/>
	<rect x="58.3" y="225.2" class="st6" width="0.9" height="0.8"/>
	<rect x="55.9" y="225.9" class="st17" width="0.9" height="1.6"/>
	<rect x="55.9" y="225.2" class="st6" width="0.9" height="0.8"/>
	<rect x="53.6" y="225.9" class="st17" width="0.9" height="1.6"/>
	<rect x="53.6" y="225.2" class="st6" width="0.9" height="0.8"/>
	<rect x="51.3" y="225.9" class="st17" width="0.9" height="1.6"/>
	<rect x="51.3" y="225.2" class="st6" width="0.9" height="0.8"/>
	<rect x="48.9" y="225.9" class="st17" width="0.9" height="1.6"/>
	<rect x="48.9" y="225.2" class="st6" width="0.9" height="0.8"/>
	<rect x="46.6" y="225.9" class="st17" width="0.9" height="1.6"/>
	<rect x="46.6" y="225.2" class="st6" width="0.9" height="0.8"/>
	<rect x="39.6" y="230.9" class="st17" width="1.6" height="0.9"/>
	<rect x="38.8" y="230.9" class="st6" width="0.8" height="0.9"/>
	<rect x="39.6" y="233.2" class="st17" width="1.6" height="0.9"/>
	<rect x="38.8" y="233.2" class="st6" width="0.8" height="0.9"/>
	<rect x="39.6" y="235.5" class="st17" width="1.6" height="0.9"/>
	<rect x="38.8" y="235.5" class="st6" width="0.8" height="0.9"/>
	<rect x="39.6" y="237.9" class="st17" width="1.6" height="0.9"/>
	<rect x="38.8" y="237.9" class="st6" width="0.8" height="0.9"/>
	<rect x="39.6" y="240.1" class="st17" width="1.6" height="0.9"/>
	<rect x="38.8" y="240.1" class="st6" width="0.8" height="0.9"/>
	<rect x="39.6" y="242.5" class="st17" width="1.6" height="0.9"/>
	<rect x="39.6" y="244.8" class="st17" width="1.6" height="0.9"/>
	<rect x="38.8" y="244.8" class="st6" width="0.8" height="0.9"/>
	<rect x="39.6" y="247.2" class="st17" width="1.6" height="0.9"/>
	<rect x="38.8" y="247.2" class="st6" width="0.8" height="0.9"/>
	<rect x="44.3" y="225.9" class="st17" width="0.9" height="1.6"/>
	<rect x="41.2" y="227.6" class="st18" width="23.2" height="23.2"/>
	<rect x="41.7" y="228.1" class="st15" width="22.2" height="22.2"/>
	<polyline class="st19" points="43.4,251.8 40.2,251.8 40.2,249 	"/>
	<polyline class="st19" points="65.4,249.3 65.4,251.8 62.4,251.8 	"/>
	<polyline class="st19" points="62.4,226.6 65.4,226.6 65.4,229.9 	"/>
	<line class="st19" x1="40.2" y1="226.6" x2="43.4" y2="226.6"/>
</g>
<g>
	<rect x="69.8" y="326.6" class="st10" width="3.9" height="3.7"/>
	<rect x="69.8" y="326.6" class="st20" width="3.9" height="3.7"/>
	<rect x="77.7" y="330.2" class="st10" width="3.9" height="3.7"/>
	<rect x="77.7" y="330.2" class="st20" width="3.9" height="3.7"/>
	<rect x="77.7" y="323" class="st10" width="3.9" height="3.7"/>
	<rect x="77.7" y="323" class="st20" width="3.9" height="3.7"/>
	<rect x="71" y="327.8" class="st12" width="2.2" height="1.1"/>
	<rect x="78.3" y="331.5" class="st12" width="2.2" height="1.1"/>
	<rect x="78.3" y="324.2" class="st12" width="2.2" height="1.1"/>
	<rect x="73.2" y="322.3" class="st15" width="5.2" height="12.2"/>
	<line class="st21" x1="72.8" y1="336.1" x2="80.4" y2="336.1"/>
	<line class="st21" x1="72.8" y1="321.2" x2="80.4" y2="321.2"/>
</g>
<g>
	<rect x="106.1" y="327" class="st10" width="3.9" height="3.7"/>
	<rect x="106.1" y="327" class="st20" width="3.9" height="3.7"/>
	<rect x="98.2" y="323.5" class="st10" width="3.9" height="3.7"/>
	<rect x="98.2" y="323.5" class="st20" width="3.9" height="3.7"/>
	<rect x="98.2" y="330.7" class="st10" width="3.9" height="3.7"/>
	<rect x="98.2" y="330.7" class="st20" width="3.9" height="3.7"/>
	<rect x="106.7" y="328.4" class="st12" width="2.2" height="1.1"/>
	<rect x="99.3" y="324.7" class="st12" width="2.2" height="1.1"/>
	<rect x="99.3" y="332" class="st12" width="2.2" height="1.1"/>
	<rect x="101.5" y="322.8" class="st15" width="5.2" height="12.2"/>
	<line class="st21" x1="107" y1="321.2" x2="99.5" y2="321.2"/>
	<line class="st21" x1="107" y1="336.1" x2="99.5" y2="336.1"/>
</g>
<g>
	<rect x="99.1" y="294.9" class="st10" width="4.5" height="4.8"/>
	<rect x="99.1" y="294.9" class="st20" width="4.5" height="4.8"/>
	<rect x="94.8" y="304.5" class="st10" width="4.5" height="4.8"/>
	<rect x="94.8" y="304.5" class="st20" width="4.5" height="4.8"/>
	<rect x="103.6" y="304.5" class="st10" width="4.5" height="4.8"/>
	<rect x="103.6" y="304.5" class="st20" width="4.5" height="4.8"/>
	<rect x="100.8" y="296.3" class="st12" width="1.4" height="2.6"/>
	<rect x="103.6" y="294.9" class="st10" width="4.5" height="4.8"/>
	<rect x="103.6" y="294.9" class="st20" width="4.5" height="4.8"/>
	<rect x="105.2" y="296.3" class="st12" width="1.4" height="2.6"/>
	<rect x="94.7" y="294.9" class="st10" width="4.5" height="4.8"/>
	<rect x="94.7" y="294.9" class="st20" width="4.5" height="4.8"/>
	<rect x="96.3" y="296.3" class="st12" width="1.4" height="2.6"/>
	<rect x="96.3" y="305.3" class="st12" width="1.4" height="2.6"/>
	<rect x="105.1" y="305.3" class="st12" width="1.4" height="2.6"/>
	<rect x="94" y="298.9" class="st15" width="14.8" height="6.3"/>
	<line class="st21" x1="93.2" y1="297.3" x2="93.2" y2="306.5"/>
	<line class="st21" x1="109.3" y1="294.2" x2="109.3" y2="306.5"/>
</g>
<g>
	<rect x="45.3" y="286.8" class="st10" width="3.9" height="3.7"/>
	<rect x="45.3" y="286.8" class="st20" width="3.9" height="3.7"/>
	<rect x="45.3" y="298.1" class="st10" width="3.9" height="3.7"/>
	<rect x="45.3" y="298.1" class="st20" width="3.9" height="3.7"/>
	<rect x="46.4" y="288.1" class="st12" width="2.2" height="1.1"/>
	<rect x="46.4" y="299.3" class="st12" width="2.2" height="1.1"/>
	<rect x="53.1" y="298.1" class="st10" width="3.9" height="3.7"/>
	<rect x="53.1" y="298.1" class="st20" width="3.9" height="3.7"/>
	<rect x="53.1" y="286.8" class="st10" width="3.9" height="3.7"/>
	<rect x="53.1" y="286.8" class="st20" width="3.9" height="3.7"/>
	<rect x="53.8" y="299.3" class="st12" width="2.2" height="1.1"/>
	<rect x="53.8" y="288.1" class="st12" width="2.2" height="1.1"/>
	<rect x="48.6" y="286.1" class="st15" width="5.2" height="16.3"/>
	<line class="st21" x1="55.1" y1="285.5" x2="47.5" y2="285.5"/>
	<line class="st21" x1="57.6" y1="302.8" x2="47.5" y2="302.8"/>
</g>
<g id="micro_usb">
	<path class="st12" d="M29.1,316.5c0.1-1.2-0.8-2.2-2-2.2c-1.2-0.1-2.2,0.8-2.2,2c0,0.1,0,0.2,0,0.3v3.1h-1.7v-28.1h1.7v3.1
		c-0.1,1.2,0.8,2.2,2,2.2c1.2,0.1,2.2-0.8,2.2-2c0-0.1,0-0.2,0-0.3v-7.2c0-1.6-1.3-2.8-2.8-2.8c0,0,0,0,0,0H4v41.7h22.3
		c1.6,0,2.8-1.3,2.8-2.8l0,0V316.5z"/>
	<rect x="-0.3" y="287.4" class="st22" width="2.5" height="36.3"/>
	<rect x="23.2" y="298.7" class="st12" width="7.3" height="13.6"/>
	<polygon class="st22" points="32.8,289.4 31.6,289.4 31.6,298.8 30.5,298.8 30.5,312.4 31.6,312.4 31.6,321.8 32.8,321.8 	"/>
	<polygon class="st23" points="4,326.4 4,326.4 4,284.7 2.5,283.1 1.3,284.3 2.2,285.3 2.2,325.8 1.3,326.8 2.5,328 	"/>
	<path class="st22" d="M9.9,294.6v-1H16c0.5,0,0.9-0.4,0.9-0.9v-2c0-0.5-0.4-0.9-0.9-0.9H9.9v-1c0-0.5-0.3-0.9-0.7-0.9
		c-0.5,0-0.9,0.3-0.9,0.7c0,0.1,0,0.1,0,0.2v5.9c0,0.5,0.5,0.8,0.9,0.7C9.5,295.3,9.8,295,9.9,294.6z"/>
	<rect x="11.9" y="290.3" class="st24" width="1.3" height="2.8"/>
	<rect x="23.2" y="304.2" class="st24" width="1.3" height="2.8"/>
	<polyline class="st25" points="8.2,290.1 6.3,290.1 6.3,293.3 8.2,293.3 	"/>
	<path class="st22" d="M9.9,322.2v-1H16c0.5,0,0.9-0.4,0.9-0.9v-2c0-0.5-0.4-0.9-0.9-0.9H9.9v-1.1c0-0.5-0.5-0.8-0.9-0.7
		c-0.4,0-0.7,0.3-0.7,0.7v5.9c0,0.5,0.5,0.8,0.9,0.7C9.5,322.9,9.8,322.5,9.9,322.2z"/>
	<rect x="11.9" y="317.8" class="st24" width="1.3" height="2.8"/>
	<polyline class="st25" points="8.2,317.6 6.3,317.6 6.3,320.8 8.2,320.8 	"/>
	<rect x="32.8" y="298.4" class="st17" width="3.4" height="1.9"/>
	<rect x="36.1" y="298.4" class="st6" width="1.6" height="1.9"/>
	<rect x="32.8" y="302" class="st17" width="3.4" height="1.9"/>
	<rect x="36.1" y="302" class="st6" width="1.6" height="1.9"/>
	<rect x="32.8" y="305.7" class="st17" width="3.4" height="1.9"/>
	<rect x="36.1" y="305.7" class="st6" width="1.6" height="1.9"/>
	<rect x="32.8" y="309.3" class="st17" width="3.4" height="1.9"/>
	<rect x="32.8" y="313" class="st17" width="3.4" height="1.9"/>
	<rect x="36.1" y="313" class="st6" width="1.6" height="1.9"/>
	<rect x="30.5" y="289.4" class="st23" width="1.2" height="9.4"/>
	<rect x="30.5" y="312.4" class="st23" width="1.2" height="9.4"/>
</g>
<g>
	<rect x="62.1" y="343.3" class="st22" width="17.7" height="12.1"/>
	<path class="st12" d="M79.9,355.4v1.4c0,0.2-0.2,0.4-0.5,0.5c0,0-0.1,0-0.1,0H62.8c-0.3,0-0.6-0.2-0.6-0.4c0,0,0,0,0-0.1v-1.4H79.9
		z"/>
	<path class="st12" d="M79.9,342v1.4H62.1V342c0-0.2,0.2-0.4,0.6-0.5c0,0,0.1,0,0.1,0h16.5C79.6,341.5,79.9,341.7,79.9,342
		C79.9,342,79.9,342,79.9,342z"/>
	<path class="st22" d="M62.1,352.7v2.7h-3.3c-0.7,0-1.2-0.4-1.2-0.9v-1.8H62.1z"/>
	<rect x="60.6" y="345.6" class="st22" width="1.5" height="7.5"/>
	<rect x="59.1" y="347.3" class="st22" width="1.5" height="4"/>
	<path class="st22" d="M62.1,343.3v2.7h-4.5v-1.8c0-0.5,0.5-0.9,1.2-0.9H62.1z"/>
	<path class="st22" d="M79.9,345.9v-2.7h3.3c0.7,0,1.2,0.4,1.2,0.9v1.8H79.9z"/>
	<rect x="79.9" y="345.6" class="st22" width="1.5" height="7.5"/>
	<rect x="81.4" y="347.3" class="st22" width="1.5" height="4"/>
	<path class="st22" d="M79.9,355.4v-2.7h4.5v1.8c0,0.5-0.5,0.9-1.2,0.9H79.9z"/>
	<circle class="st18" cx="70.7" cy="349.5" r="4.8"/>
	<circle class="st26" cx="70.7" cy="349.5" r="4.5"/>
	<rect x="62.1" y="355.9" class="st22" width="17.7" height="0.3"/>
	<rect x="62.1" y="342" class="st22" width="17.7" height="0.3"/>
</g>
<g>
	<rect x="97.8" y="343.3" class="st22" width="17.7" height="12.1"/>
	<path class="st12" d="M115.5,355.4v1.4c0,0.2-0.2,0.4-0.5,0.5c0,0-0.1,0-0.1,0H98.4c-0.3,0-0.6-0.2-0.6-0.4c0,0,0,0,0-0.1v-1.4
		H115.5z"/>
	<path class="st12" d="M115.5,342v1.4H97.8V342c0-0.2,0.2-0.4,0.6-0.5c0,0,0.1,0,0.1,0H115C115.3,341.5,115.5,341.7,115.5,342
		C115.5,342,115.5,342,115.5,342z"/>
	<path class="st22" d="M97.8,352.7v2.7h-3.3c-0.7,0-1.2-0.4-1.2-0.9v-1.8H97.8z"/>
	<rect x="96.3" y="345.6" class="st22" width="1.5" height="7.5"/>
	<rect x="94.8" y="347.3" class="st22" width="1.5" height="4"/>
	<path class="st22" d="M97.8,343.3v2.7h-4.5v-1.8c0-0.5,0.5-0.9,1.2-0.9H97.8z"/>
	<path class="st22" d="M115.5,345.9v-2.7h3.3c0.7,0,1.2,0.4,1.2,0.9v1.8H115.5z"/>
	<rect x="115.5" y="345.6" class="st22" width="1.5" height="7.5"/>
	<rect x="117" y="347.3" class="st22" width="1.5" height="4"/>
	<path class="st22" d="M115.5,355.4v-2.7h4.5v1.8c0,0.5-0.5,0.9-1.2,0.9H115.5z"/>
	<circle class="st18" cx="106.4" cy="349.5" r="4.8"/>
	<circle class="st26" cx="106.4" cy="349.5" r="4.5"/>
	<rect x="97.8" y="355.9" class="st22" width="17.7" height="0.3"/>
	<rect x="97.8" y="342" class="st22" width="17.7" height="0.3"/>
</g>
<g>
	<rect x="20.4" y="39.8" width="102.7" height="173.4"/>
	<polygon class="st27" points="26.5,41.4 44.7,41.4 44.7,56.7 53.6,56.7 53.6,41.4 71.9,41.4 71.9,58.8 82.2,58.8 82.2,42.1 
		112.1,42.1 112.1,61.3 107.1,61.3 107.1,47.1 87.2,47.1 87.2,63.8 66.9,63.8 66.9,46.4 58.6,46.4 58.6,61.7 39.7,61.7 39.7,46.4 
		31.5,46.4 31.5,69.2 26.5,69.2 	"/>
	<polygon class="st28" points="86.8,213.2 116.8,213.2 116.8,98.2 86.8,98.2 86.8,77.1 25.4,77.1 25.4,213.2 	"/>
	<polygon class="st29" points="114.9,211.4 114.9,100.2 85.2,100.2 85.2,79.9 27.2,79.9 27.2,211.4 	"/>
	<rect x="20.4" y="207.7" class="st30" width="2.5" height="5.5"/>
	<rect x="22.9" y="207.7" class="st31" width="2.5" height="5.5"/>
	<rect x="20.4" y="200.6" class="st30" width="2.5" height="5.5"/>
	<rect x="22.9" y="200.6" class="st31" width="2.5" height="5.5"/>
	<rect x="20.4" y="193.5" class="st30" width="2.5" height="5.5"/>
	<rect x="22.9" y="193.5" class="st31" width="2.5" height="5.5"/>
	<rect x="20.4" y="186.4" class="st30" width="2.5" height="5.5"/>
	<rect x="22.9" y="186.4" class="st31" width="2.5" height="5.5"/>
	<rect x="20.4" y="179.3" class="st30" width="2.5" height="5.5"/>
	<rect x="22.9" y="179.3" class="st31" width="2.5" height="5.5"/>
	<rect x="20.4" y="172.2" class="st30" width="2.5" height="5.5"/>
	<rect x="22.9" y="172.2" class="st31" width="2.5" height="5.5"/>
	<rect x="20.4" y="165.1" class="st30" width="2.5" height="5.5"/>
	<rect x="22.9" y="165.1" class="st31" width="2.5" height="5.5"/>
	<rect x="20.4" y="158" class="st30" width="2.5" height="5.5"/>
	<rect x="22.9" y="158" class="st31" width="2.5" height="5.5"/>
	<rect x="20.4" y="150.9" class="st30" width="2.5" height="5.5"/>
	<rect x="22.9" y="150.9" class="st31" width="2.5" height="5.5"/>
	<rect x="20.4" y="143.8" class="st30" width="2.5" height="5.5"/>
	<rect x="22.9" y="143.8" class="st31" width="2.5" height="5.5"/>
	<rect x="20.4" y="136.7" class="st30" width="2.5" height="5.5"/>
	<rect x="22.9" y="136.7" class="st31" width="2.5" height="5.5"/>
	<rect x="20.4" y="129.6" class="st30" width="2.5" height="5.5"/>
	<rect x="22.9" y="129.6" class="st31" width="2.5" height="5.5"/>
	<rect x="20.4" y="122.5" class="st30" width="2.5" height="5.5"/>
	<rect x="22.9" y="122.5" class="st31" width="2.5" height="5.5"/>
	<rect x="20.4" y="115.4" class="st30" width="2.5" height="5.5"/>
	<rect x="22.9" y="115.4" class="st31" width="2.5" height="5.5"/>
	<rect x="20.4" y="108.3" class="st30" width="2.5" height="5.5"/>
	<rect x="22.9" y="108.3" class="st31" width="2.5" height="5.5"/>
	<rect x="20.4" y="101.2" class="st30" width="2.5" height="5.5"/>
	<rect x="22.9" y="101.2" class="st31" width="2.5" height="5.5"/>
	<rect x="20.4" y="94.1" class="st30" width="2.5" height="5.5"/>
	<rect x="22.9" y="94.1" class="st31" width="2.5" height="5.5"/>
	<rect x="20.4" y="87" class="st30" width="2.5" height="5.5"/>
	<rect x="22.9" y="87" class="st31" width="2.5" height="5.5"/>
	<rect x="20.4" y="79.9" class="st30" width="2.5" height="5.5"/>
	<rect x="22.9" y="79.9" class="st31" width="2.5" height="5.5"/>
	<rect x="119.2" y="79.9" class="st30" width="2.5" height="5.5"/>
	<rect x="116.8" y="79.9" class="st31" width="2.5" height="5.5"/>
	<rect x="119.2" y="87" class="st30" width="2.5" height="5.5"/>
	<rect x="116.8" y="87" class="st31" width="2.5" height="5.5"/>
	<rect x="119.2" y="94.1" class="st30" width="2.5" height="5.5"/>
	<rect x="116.8" y="94.1" class="st31" width="2.5" height="5.5"/>
	<rect x="119.2" y="101.2" class="st30" width="2.5" height="5.5"/>
	<rect x="116.8" y="101.2" class="st31" width="2.5" height="5.5"/>
	<rect x="119.3" y="108.3" class="st30" width="2.5" height="5.5"/>
	<rect x="116.8" y="108.3" class="st31" width="2.5" height="5.5"/>
	<rect x="119.2" y="115.4" class="st30" width="2.5" height="5.5"/>
	<rect x="116.8" y="115.4" class="st31" width="2.5" height="5.5"/>
	<rect x="119.2" y="122.5" class="st30" width="2.5" height="5.5"/>
	<rect x="116.8" y="122.5" class="st31" width="2.5" height="5.5"/>
	<rect x="119.2" y="129.6" class="st30" width="2.5" height="5.5"/>
	<rect x="116.8" y="129.6" class="st31" width="2.5" height="5.5"/>
	<rect x="119.2" y="136.7" class="st30" width="2.5" height="5.5"/>
	<rect x="116.8" y="136.7" class="st31" width="2.5" height="5.5"/>
	<rect x="119.3" y="143.8" class="st30" width="2.5" height="5.5"/>
	<rect x="116.8" y="143.8" class="st31" width="2.5" height="5.5"/>
	<rect x="119.2" y="150.9" class="st30" width="2.5" height="5.5"/>
	<rect x="116.8" y="150.9" class="st31" width="2.5" height="5.5"/>
	<rect x="119.3" y="158" class="st30" width="2.5" height="5.5"/>
	<rect x="116.8" y="158" class="st31" width="2.5" height="5.5"/>
	<rect x="119.2" y="165.1" class="st30" width="2.5" height="5.5"/>
	<rect x="116.8" y="165.1" class="st31" width="2.5" height="5.5"/>
	<rect x="119.2" y="172.2" class="st30" width="2.5" height="5.5"/>
	<rect x="116.8" y="172.2" class="st31" width="2.5" height="5.5"/>
	<rect x="119.3" y="179.3" class="st30" width="2.5" height="5.5"/>
	<rect x="116.8" y="179.3" class="st31" width="2.5" height="5.5"/>
	<rect x="119.2" y="186.4" class="st30" width="2.5" height="5.5"/>
	<rect x="116.8" y="186.4" class="st31" width="2.5" height="5.5"/>
	<rect x="119.3" y="193.5" class="st30" width="2.5" height="5.5"/>
	<rect x="116.8" y="193.5" class="st31" width="2.5" height="5.5"/>
	<rect x="119.2" y="200.6" class="st30" width="2.5" height="5.5"/>
	<rect x="116.8" y="200.6" class="st31" width="2.5" height="5.5"/>
	<rect x="119.2" y="207.7" class="st30" width="2.5" height="5.5"/>
	<rect x="116.8" y="207.7" class="st31" width="2.5" height="5.5"/>
</g>
<g>
	<path class="st12" d="M129.8,255.5l0.1,0.8c-0.2,0-0.4,0.1-0.5,0.2s-0.2,0.2-0.2,0.4c0,0.2,0.1,0.3,0.2,0.4s0.3,0.2,0.5,0.2
		c0.2,0,0.4-0.1,0.5-0.2s0.2-0.2,0.2-0.4c0-0.1,0-0.2-0.1-0.4l0.7,0.1c0,0.2,0,0.4,0.1,0.5c0.1,0.1,0.2,0.2,0.4,0.2
		c0.1,0,0.3,0,0.3-0.1s0.1-0.2,0.1-0.3c0-0.1,0-0.3-0.1-0.4s-0.2-0.2-0.4-0.2l0.1-0.8c0.3,0.1,0.5,0.1,0.6,0.2
		c0.2,0.1,0.3,0.3,0.4,0.4c0.1,0.2,0.1,0.4,0.1,0.6c0,0.4-0.1,0.7-0.4,1c-0.2,0.2-0.4,0.3-0.7,0.3c-0.4,0-0.7-0.2-0.9-0.6
		c-0.1,0.2-0.2,0.4-0.4,0.6s-0.4,0.2-0.7,0.2c-0.4,0-0.7-0.1-1-0.4s-0.4-0.6-0.4-1c0-0.4,0.1-0.7,0.3-1S129.5,255.6,129.8,255.5z"/>
	<path class="st12" d="M128.7,260.2l4.3-1.5v0.9l-3.2,1.1l3.2,1.1v0.9l-4.3-1.5V260.2z"/>
	<path class="st12" d="M129.8,262.9l0.1,0.8c-0.2,0-0.4,0.1-0.5,0.2s-0.2,0.2-0.2,0.4c0,0.2,0.1,0.3,0.2,0.4s0.3,0.2,0.5,0.2
		c0.2,0,0.4-0.1,0.5-0.2s0.2-0.2,0.2-0.4c0-0.1,0-0.2-0.1-0.4l0.7,0.1c0,0.2,0,0.4,0.1,0.5c0.1,0.1,0.2,0.2,0.4,0.2
		c0.1,0,0.3,0,0.3-0.1s0.1-0.2,0.1-0.3c0-0.1,0-0.3-0.1-0.4s-0.2-0.2-0.4-0.2l0.1-0.8c0.3,0.1,0.5,0.1,0.6,0.2
		c0.2,0.1,0.3,0.3,0.4,0.4c0.1,0.2,0.1,0.4,0.1,0.6c0,0.4-0.1,0.7-0.4,1c-0.2,0.2-0.4,0.3-0.7,0.3c-0.4,0-0.7-0.2-0.9-0.6
		c-0.1,0.2-0.2,0.4-0.4,0.6s-0.4,0.2-0.7,0.2c-0.4,0-0.7-0.1-1-0.4s-0.4-0.6-0.4-1c0-0.4,0.1-0.7,0.3-1S129.5,262.9,129.8,262.9z"/>
</g>
<g>
	<path class="st12" d="M128.8,227.1h4.3v0.9h-4.3V227.1z"/>
	<path class="st12" d="M128.7,228.8l4.4,1.1v0.6l-4.4-1.1V228.8z"/>
	<path class="st12" d="M133.1,232.6c0,0.4-0.1,0.7-0.4,1c-0.4,0.3-0.9,0.4-1.7,0.4c-0.8,0-1.4-0.1-1.8-0.4c-0.3-0.2-0.4-0.6-0.4-1
		c0-0.4,0.2-0.8,0.5-1s0.9-0.4,1.7-0.4c0.8,0,1.4,0.1,1.7,0.4C132.9,231.8,133.1,232.2,133.1,232.6z M132.4,232.6
		c0-0.1,0-0.2-0.1-0.3c-0.1-0.1-0.2-0.1-0.3-0.2c-0.2-0.1-0.6-0.1-1.1-0.1s-0.9,0-1,0.1c-0.2,0.1-0.3,0.1-0.4,0.2s-0.1,0.2-0.1,0.3
		s0,0.2,0.1,0.3c0.1,0.1,0.2,0.1,0.3,0.2c0.2,0.1,0.6,0.1,1.1,0.1s0.8,0,1-0.1s0.3-0.1,0.4-0.2C132.4,232.8,132.4,232.7,132.4,232.6
		z"/>
	<path class="st12" d="M129.5,237.8h-0.8v-2.9c0.3,0,0.6,0.1,0.8,0.3c0.3,0.2,0.6,0.5,1,0.9c0.3,0.4,0.6,0.6,0.7,0.7
		c0.2,0.1,0.3,0.2,0.5,0.2c0.2,0,0.3,0,0.4-0.1c0.1-0.1,0.1-0.2,0.1-0.4c0-0.2-0.1-0.3-0.2-0.4s-0.3-0.2-0.5-0.2l0.1-0.8
		c0.5,0,0.8,0.2,1,0.5s0.3,0.6,0.3,1c0,0.4-0.1,0.8-0.3,1s-0.5,0.4-0.9,0.4c-0.2,0-0.4,0-0.6-0.1c-0.2-0.1-0.4-0.2-0.5-0.3
		c-0.1-0.1-0.3-0.3-0.5-0.5s-0.4-0.4-0.5-0.5s-0.2-0.1-0.2-0.2V237.8z"/>
</g>
<g>
	<path class="st12" d="M62.6,363.3V359h1.8c0.5,0,0.8,0,1,0.1c0.2,0.1,0.4,0.2,0.5,0.4s0.2,0.4,0.2,0.7c0,0.3-0.1,0.6-0.3,0.8
		c-0.2,0.2-0.5,0.3-0.8,0.4c0.2,0.1,0.3,0.2,0.5,0.4c0.1,0.1,0.3,0.4,0.5,0.7l0.5,0.8h-1l-0.6-0.9c-0.2-0.3-0.4-0.5-0.5-0.6
		c-0.1-0.1-0.2-0.1-0.3-0.2c-0.1,0-0.2,0-0.4,0h-0.2v1.8H62.6z M63.4,360.8h0.6c0.4,0,0.7,0,0.8-0.1s0.2-0.1,0.2-0.2
		s0.1-0.2,0.1-0.3c0-0.1,0-0.3-0.1-0.3c-0.1-0.1-0.2-0.1-0.3-0.2c-0.1,0-0.3,0-0.6,0h-0.7V360.8z"/>
	<path class="st12" d="M68.9,362.3l0.8,0.1c-0.1,0.3-0.3,0.5-0.5,0.7c-0.2,0.2-0.5,0.2-0.9,0.2c-0.5,0-0.9-0.2-1.2-0.5
		c-0.2-0.3-0.3-0.6-0.3-1.1c0-0.5,0.1-0.9,0.4-1.2c0.3-0.3,0.6-0.4,1-0.4c0.5,0,0.8,0.2,1.1,0.5s0.4,0.8,0.4,1.4h-2.1
		c0,0.2,0.1,0.4,0.2,0.6s0.3,0.2,0.5,0.2c0.1,0,0.2,0,0.3-0.1S68.8,362.4,68.9,362.3z M68.9,361.4c0-0.2-0.1-0.4-0.2-0.5
		s-0.3-0.2-0.4-0.2c-0.2,0-0.3,0.1-0.4,0.2s-0.2,0.3-0.2,0.5H68.9z"/>
	<path class="st12" d="M70.3,362.4l0.8-0.1c0,0.2,0.1,0.3,0.2,0.4s0.3,0.1,0.5,0.1c0.2,0,0.4,0,0.5-0.1c0.1-0.1,0.1-0.1,0.1-0.2
		c0-0.1,0-0.1-0.1-0.2c0,0-0.1-0.1-0.3-0.1c-0.7-0.1-1.1-0.3-1.3-0.4c-0.2-0.2-0.4-0.4-0.4-0.7c0-0.3,0.1-0.5,0.3-0.7s0.5-0.3,1-0.3
		c0.4,0,0.7,0.1,0.9,0.2s0.3,0.3,0.4,0.6l-0.8,0.1c0-0.1-0.1-0.2-0.2-0.3c-0.1-0.1-0.2-0.1-0.4-0.1c-0.2,0-0.4,0-0.5,0.1
		c-0.1,0-0.1,0.1-0.1,0.2c0,0.1,0,0.1,0.1,0.1c0.1,0.1,0.3,0.1,0.8,0.2c0.4,0.1,0.7,0.2,0.9,0.4c0.2,0.1,0.3,0.4,0.3,0.6
		c0,0.3-0.1,0.5-0.4,0.7s-0.6,0.3-1.1,0.3c-0.4,0-0.8-0.1-1-0.3S70.3,362.7,70.3,362.4z"/>
	<path class="st12" d="M75.8,362.3l0.8,0.1c-0.1,0.3-0.3,0.5-0.5,0.7c-0.2,0.2-0.5,0.2-0.9,0.2c-0.5,0-0.9-0.2-1.2-0.5
		c-0.2-0.3-0.3-0.6-0.3-1.1c0-0.5,0.1-0.9,0.4-1.2c0.3-0.3,0.6-0.4,1-0.4c0.5,0,0.8,0.2,1.1,0.5s0.4,0.8,0.4,1.4h-2.1
		c0,0.2,0.1,0.4,0.2,0.6s0.3,0.2,0.5,0.2c0.1,0,0.2,0,0.3-0.1S75.8,362.4,75.8,362.3z M75.9,361.4c0-0.2-0.1-0.4-0.2-0.5
		s-0.3-0.2-0.4-0.2c-0.2,0-0.3,0.1-0.4,0.2s-0.2,0.3-0.2,0.5H75.9z"/>
	<path class="st12" d="M78.9,360.2v0.7h-0.6v1.3c0,0.3,0,0.4,0,0.4c0,0,0,0.1,0.1,0.1c0,0,0.1,0,0.1,0c0.1,0,0.2,0,0.3-0.1l0.1,0.6
		c-0.2,0.1-0.4,0.1-0.7,0.1c-0.1,0-0.3,0-0.4-0.1c-0.1-0.1-0.2-0.1-0.3-0.2c-0.1-0.1-0.1-0.2-0.1-0.3c0-0.1,0-0.3,0-0.6v-1.4h-0.4
		v-0.7h0.4v-0.6l0.8-0.5v1.1H78.9z"/>
</g>
<g>
	<path class="st12" d="M94.1,363.3V359h1.4c0.5,0,0.9,0,1,0.1c0.2,0.1,0.5,0.2,0.6,0.4c0.2,0.2,0.2,0.5,0.2,0.8c0,0.3,0,0.5-0.1,0.7
		s-0.2,0.3-0.4,0.4c-0.1,0.1-0.3,0.2-0.5,0.2c-0.2,0-0.5,0.1-0.9,0.1H95v1.6H94.1z M95,359.7v1.2h0.5c0.3,0,0.6,0,0.7-0.1
		s0.2-0.1,0.3-0.2s0.1-0.2,0.1-0.3c0-0.2,0-0.3-0.1-0.4s-0.2-0.2-0.3-0.2c-0.1,0-0.3,0-0.6,0H95z"/>
	<path class="st12" d="M99,363.3h-0.8v-3.1H99v0.4c0.1-0.2,0.2-0.3,0.4-0.4c0.1-0.1,0.2-0.1,0.4-0.1c0.2,0,0.4,0.1,0.5,0.2L100,361
		c-0.1-0.1-0.3-0.1-0.4-0.1c-0.1,0-0.2,0-0.3,0.1s-0.1,0.2-0.2,0.3s-0.1,0.5-0.1,1V363.3z"/>
	<path class="st12" d="M100.5,361.7c0-0.3,0.1-0.5,0.2-0.8s0.3-0.5,0.6-0.6c0.2-0.1,0.5-0.2,0.8-0.2c0.5,0,0.9,0.2,1.2,0.5
		s0.5,0.7,0.5,1.2c0,0.5-0.2,0.9-0.5,1.2c-0.3,0.3-0.7,0.5-1.1,0.5c-0.3,0-0.6-0.1-0.8-0.2c-0.3-0.1-0.5-0.3-0.6-0.6
		C100.6,362.3,100.5,362,100.5,361.7z M101.4,361.7c0,0.3,0.1,0.5,0.2,0.7s0.3,0.2,0.5,0.2s0.4-0.1,0.5-0.2c0.1-0.2,0.2-0.4,0.2-0.7
		c0-0.3-0.1-0.5-0.2-0.7c-0.1-0.2-0.3-0.2-0.5-0.2s-0.4,0.1-0.5,0.2S101.4,361.4,101.4,361.7z"/>
	<path class="st12" d="M104.5,363.5l0.9,0.1c0,0.1,0.1,0.2,0.1,0.2c0.1,0.1,0.2,0.1,0.4,0.1c0.2,0,0.4,0,0.5-0.1
		c0.1,0,0.1-0.1,0.2-0.2c0-0.1,0-0.2,0-0.4v-0.5c-0.2,0.3-0.6,0.5-0.9,0.5c-0.4,0-0.7-0.2-1-0.5c-0.2-0.3-0.3-0.6-0.3-1
		c0-0.5,0.1-0.9,0.4-1.2c0.2-0.3,0.6-0.4,0.9-0.4c0.4,0,0.7,0.2,1,0.5v-0.4h0.8v2.8c0,0.4,0,0.6-0.1,0.8s-0.1,0.3-0.3,0.4
		s-0.3,0.2-0.4,0.2c-0.2,0.1-0.4,0.1-0.7,0.1c-0.5,0-0.9-0.1-1.1-0.3C104.6,364.1,104.5,363.9,104.5,363.5
		C104.5,363.5,104.5,363.5,104.5,363.5z M105.2,361.6c0,0.3,0.1,0.6,0.2,0.7s0.3,0.2,0.5,0.2c0.2,0,0.4-0.1,0.5-0.2s0.2-0.4,0.2-0.7
		c0-0.3-0.1-0.6-0.2-0.7s-0.3-0.2-0.5-0.2c-0.2,0-0.4,0.1-0.5,0.2C105.3,361.1,105.2,361.3,105.2,361.6z"/>
	<path class="st12" d="M109.2,363.3h-0.8v-3.1h0.8v0.4c0.1-0.2,0.2-0.3,0.4-0.4c0.1-0.1,0.2-0.1,0.4-0.1c0.2,0,0.4,0.1,0.5,0.2
		l-0.3,0.7c-0.1-0.1-0.3-0.1-0.4-0.1c-0.1,0-0.2,0-0.3,0.1s-0.1,0.2-0.2,0.3s-0.1,0.5-0.1,1V363.3z"/>
	<path class="st12" d="M111.5,361.1l-0.7-0.1c0.1-0.3,0.2-0.5,0.4-0.7s0.5-0.2,0.9-0.2c0.4,0,0.6,0,0.8,0.1s0.3,0.2,0.4,0.3
		c0.1,0.1,0.1,0.4,0.1,0.7l0,1c0,0.3,0,0.5,0,0.6c0,0.1,0.1,0.3,0.1,0.4h-0.8c0-0.1,0-0.1-0.1-0.2c0,0,0-0.1,0-0.1
		c-0.1,0.1-0.3,0.2-0.5,0.3s-0.3,0.1-0.5,0.1c-0.3,0-0.6-0.1-0.8-0.3c-0.2-0.2-0.3-0.4-0.3-0.7c0-0.2,0-0.3,0.1-0.5
		c0.1-0.1,0.2-0.2,0.4-0.3c0.2-0.1,0.4-0.1,0.7-0.2c0.4-0.1,0.7-0.1,0.8-0.2v-0.1c0-0.2,0-0.3-0.1-0.3c-0.1-0.1-0.2-0.1-0.4-0.1
		c-0.1,0-0.3,0-0.3,0.1S111.5,361,111.5,361.1z M112.6,361.8c-0.1,0-0.3,0.1-0.5,0.1s-0.4,0.1-0.4,0.1c-0.1,0.1-0.2,0.2-0.2,0.3
		c0,0.1,0,0.2,0.1,0.3s0.2,0.1,0.3,0.1c0.1,0,0.3,0,0.4-0.1c0.1-0.1,0.2-0.2,0.2-0.3c0-0.1,0-0.2,0-0.4V361.8z"/>
	<path class="st12" d="M114.3,360.2h0.8v0.4c0.3-0.3,0.6-0.5,1-0.5c0.2,0,0.4,0,0.5,0.1s0.3,0.2,0.4,0.4c0.1-0.2,0.3-0.3,0.4-0.4
		s0.3-0.1,0.5-0.1c0.2,0,0.4,0,0.6,0.1c0.2,0.1,0.3,0.2,0.4,0.4c0.1,0.1,0.1,0.3,0.1,0.6v2H118v-1.8c0-0.3,0-0.5-0.1-0.6
		c-0.1-0.1-0.2-0.2-0.4-0.2c-0.1,0-0.2,0-0.3,0.1s-0.2,0.2-0.2,0.3s-0.1,0.3-0.1,0.6v1.5h-0.8v-1.7c0-0.3,0-0.5,0-0.6
		s-0.1-0.2-0.1-0.2c-0.1,0-0.1-0.1-0.3-0.1c-0.1,0-0.2,0-0.3,0.1s-0.2,0.2-0.2,0.3c0,0.1-0.1,0.3-0.1,0.6v1.5h-0.8V360.2z"/>
</g>
<g>
	<path class="st12" d="M108.2,19.4l-1.2-0.2c0.2-0.8,0.5-1.3,1.1-1.8c0.5-0.4,1.2-0.6,2-0.6c1,0,1.8,0.3,2.4,1
		c0.6,0.7,0.9,1.6,0.9,2.8c0,1.2-0.3,2.2-0.9,2.9c-0.6,0.7-1.4,1-2.3,1c-0.9,0-1.7-0.3-2.2-1c-0.6-0.7-0.9-1.6-0.9-2.8
		c0-0.1,0-0.2,0-0.3h5.1c0-0.8-0.3-1.4-0.6-1.9c-0.4-0.4-0.9-0.6-1.4-0.6c-0.4,0-0.8,0.1-1.1,0.4C108.6,18.5,108.3,18.9,108.2,19.4z
		 M112,21.4h-3.8c0.1,0.6,0.2,1.1,0.4,1.4c0.4,0.5,0.9,0.7,1.4,0.7c0.5,0,1-0.2,1.3-0.6C111.7,22.6,111.9,22.1,112,21.4z"/>
	<path class="st12" d="M105.2,17v7.4h-1v-1.1c-0.5,0.8-1.2,1.2-2.2,1.2c-0.4,0-0.8-0.1-1.1-0.2c-0.3-0.2-0.6-0.4-0.8-0.6
		c-0.2-0.3-0.3-0.6-0.4-0.9c0-0.2-0.1-0.6-0.1-1.2V17h1.2v4.5c0,0.5,0,0.9,0.1,1.1c0.1,0.3,0.3,0.5,0.5,0.6s0.5,0.2,0.8,0.2
		c0.5,0,0.9-0.2,1.3-0.5s0.5-1,0.5-1.9v-4H105.2z"/>
	<path class="st12" d="M97.9,19.2l-1.1,0.2c-0.1-0.5-0.2-0.9-0.5-1.1C96,18,95.5,17.9,95,17.9c-0.5,0-0.9,0.1-1.2,0.4
		c-0.3,0.2-0.4,0.5-0.4,0.8c0,0.3,0.1,0.5,0.3,0.7c0.2,0.1,0.6,0.3,1.2,0.4c0.9,0.2,1.4,0.4,1.8,0.6c0.3,0.2,0.6,0.4,0.7,0.7
		c0.2,0.3,0.3,0.6,0.3,1c0,0.3-0.1,0.6-0.2,0.9s-0.3,0.5-0.6,0.7c-0.2,0.1-0.4,0.3-0.7,0.4s-0.6,0.1-1,0.1c-0.5,0-1-0.1-1.4-0.3
		c-0.4-0.2-0.7-0.4-0.9-0.7c-0.2-0.3-0.3-0.7-0.4-1.1l1.1-0.2c0.1,0.4,0.2,0.7,0.4,0.9c0.2,0.2,0.6,0.3,1,0.3c0.5,0,0.9-0.1,1.1-0.3
		c0.2-0.2,0.3-0.4,0.3-0.7c0-0.2,0-0.3-0.1-0.4c-0.1-0.1-0.2-0.2-0.4-0.3c-0.1,0-0.5-0.2-1-0.3c-0.8-0.2-1.4-0.4-1.7-0.6
		c-0.3-0.2-0.6-0.4-0.8-0.7c-0.2-0.3-0.3-0.6-0.3-1.1c0-0.4,0.1-0.8,0.3-1.2c0.2-0.4,0.6-0.7,1-0.9c0.4-0.2,0.9-0.3,1.4-0.3
		c0.9,0,1.6,0.2,2,0.6C97.5,17.9,97.8,18.4,97.9,19.2z"/>
	<path class="st12" d="M85.8,19.4l-1.2-0.2c0.2-0.8,0.5-1.3,1.1-1.8c0.5-0.4,1.2-0.6,2-0.6c1,0,1.8,0.3,2.4,1
		c0.6,0.7,0.9,1.6,0.9,2.8c0,1.2-0.3,2.2-0.9,2.9c-0.6,0.7-1.4,1-2.3,1c-0.9,0-1.7-0.3-2.2-1c-0.6-0.7-0.9-1.6-0.9-2.8
		c0-0.1,0-0.2,0-0.3h5.1c0-0.8-0.3-1.4-0.6-1.9c-0.4-0.4-0.9-0.6-1.4-0.6c-0.4,0-0.8,0.1-1.1,0.4C86.3,18.5,86,18.9,85.8,19.4z
		 M89.7,21.4h-3.8c0.1,0.6,0.2,1.1,0.4,1.4c0.4,0.5,0.9,0.7,1.4,0.7c0.5,0,1-0.2,1.3-0.6C89.4,22.6,89.6,22.1,89.7,21.4z"/>
	<g>
		<path class="st12" d="M72.2,16.5l1,4.3h-0.9l-0.6-3l-0.8,3h-1l-0.8-3l-0.7,3h-0.9l1-4.3h0.9l0.9,3.2l0.9-3.2H72.2z"/>
		<path class="st12" d="M67,16.5v4.3h-3.2v-0.7h2.3v-1h-2.2v-0.7h2.2v-1.2h-2.4v-0.7H67z"/>
		<path class="st12" d="M62.8,16.5v4.3H62v-4.3H62.8z"/>
		<path class="st12" d="M61.4,16.5v0.8l-2.3,2.8h2v0.7H58v-0.7l2.4-2.9h-2.4v-0.7H61.4z"/>
		<path class="st12" d="M57.2,16.5v4.3H54v-0.7h2.3v-1h-2.2v-0.7h2.2v-1.2h-2.4v-0.7H57.2z"/>
		<path class="st12" d="M53,16.5v4.3h-0.8L50.4,18v2.9h-0.8v-4.3h0.9l1.7,2.8v-2.8H53z"/>
	</g>
	<path class="st12" d="M62.7,24.3c0.5,0,0.9-0.3,1.1-0.7H64h13.9c0.3,0.3,0.9,0.6,1.3,0.7c0.4,0.2,0.9,0.3,1.4,0.3
		c0.4,0,0.7,0,1-0.1s0.6-0.2,0.7-0.4c0.2-0.2,0.4-0.4,0.6-0.7s0.2-0.6,0.2-0.9c0-0.4-0.1-0.7-0.3-1c-0.2-0.3-0.4-0.5-0.7-0.7
		c-0.3-0.2-0.9-0.4-1.8-0.6c-0.6-0.2-1-0.3-1.2-0.4c-0.2-0.2-0.3-0.4-0.3-0.7c0-0.3,0.1-0.6,0.4-0.8c0.3-0.2,0.7-0.4,1.2-0.4
		c0.5,0,0.9,0.1,1.2,0.4c0.3,0.3,0.5,0.6,0.5,1.1l1.1-0.2c-0.1-0.8-0.4-1.4-0.9-1.8c-0.5-0.4-1.1-0.6-2-0.6c0,0,0,0,0,0h-2.9
		c-0.3,0-0.5,0.2-0.5,0.5s0.2,0.5,0.5,0.5h0.7C78,17.9,78,18,78,18c-0.1,0.1-0.1,0.3-0.2,0.4h-2.2c-0.3,0-0.5,0.2-0.5,0.5
		s0.2,0.5,0.5,0.5h2c0,0.3,0.1,0.6,0.2,0.8h-1.7c-0.3,0-0.5,0.2-0.5,0.5s0.2,0.5,0.5,0.5h3.3c0.3,0.1,0.6,0.2,0.9,0.3
		c0.6,0.2,0.9,0.3,1,0.3c0.2,0.1,0.4,0.2,0.4,0.3c0.1,0.1,0.1,0.3,0.1,0.4c0,0.3-0.1,0.5-0.3,0.7c-0.2,0.2-0.6,0.2-1.2,0.2
		c-0.5,0-0.9-0.3-1.2-0.5c-0.3-0.2-0.4-0.3-0.6-0.6l-14.9-0.1h-0.2c-0.2-0.2-0.5-0.4-0.9-0.4c-0.7,0-1.2,0.5-1.2,1.2
		C61.5,23.8,62,24.3,62.7,24.3z"/>
	<path class="st12" d="M115.1,21.4c0.3,0.4,0.7,0.8,1.2,1c0.4,0.2,1.1,0.4,2.1,0.7c1,0.2,1.6,0.5,1.9,0.7c0.2,0.2,0.4,0.5,0.4,0.9
		c0,0.4-0.2,0.8-0.5,1.1s-0.9,0.4-1.7,0.4c-0.7,0-1.3-0.2-1.7-0.5c-0.4-0.3-0.6-0.8-0.7-1.5l-1.2,0.1c0,0.6,0.2,1.1,0.5,1.6
		c0.3,0.5,0.7,0.8,1.2,1.1s1.2,0.4,1.9,0.4c0.6,0,1.2-0.1,1.7-0.3c0.5-0.2,0.9-0.6,1.2-1s0.4-0.9,0.4-1.4c0-0.5-0.1-0.9-0.3-1.3
		s-0.6-0.7-1-1c-0.3-0.2-1-0.4-1.8-0.6s-1.4-0.4-1.7-0.5c-0.4-0.2-0.7-0.4-0.9-0.6c-0.2-0.2-0.3-0.5-0.3-0.8c0-0.3,0.1-0.6,0.3-0.9
		c0.2-0.3,0.5-0.5,0.8-0.6s0.8-0.2,1.3-0.2c0.5,0,1,0.1,1.5,0.3c0.4,0.2,0.7,0.5,1,0.8c0.2,0.3,0.3,0.9,0.4,1.4l3.6,0
		c0.2,0.5,0.7,0.9,1.2,0.9c0.7,0,1.3-0.6,1.3-1.3c0-0.7-0.6-1.3-1.3-1.3c-0.4,0-0.8,0.2-1,0.5h-2.8c-0.1-0.3-0.2-0.6-0.4-0.9
		c-0.3-0.5-0.8-0.9-1.4-1.2c-0.6-0.3-1.3-0.4-2.2-0.4c-0.7,0-1.3,0.1-1.8,0.4c-0.5,0.3-1,0.6-1.2,1.1c-0.3,0.5-0.4,1-0.4,1.5
		C114.7,20.5,114.9,20.9,115.1,21.4z"/>
</g>
</svg>
