<?xml version="1.0" encoding="utf-8"?>
<!-- Generator: Adobe Illustrator 23.0.1, SVG Export Plug-In . SVG Version: 6.00 Build 0)  -->
<svg version="1.1" id="Layer_1" xmlns="http://www.w3.org/2000/svg" xmlns:xlink="http://www.w3.org/1999/xlink" x="0px" y="0px"
	 viewBox="0 0 47.1 93.9" style="enable-background:new 0 0 47.1 93.9;" xml:space="preserve">
<style type="text/css">
	.st0{fill:#231F20;}
	.st1{fill:none;}
	.st2{fill:#0A783D;}
	.st3{fill:#FFFFFF;}
	.st4{fill:#CFC9C0;}
	.st5{fill:#484748;}
	.st6{fill:#B6B6B7;}
	.st7{fill:#BBE4EF;}
	.st8{fill:#7B5950;}
	.st9{fill:#346833;}
	.st10{fill:#3D3C3A;}
	.st11{fill:#232221;}
	.st12{fill:#ECEBF0;}
	.st13{fill:#7C6B2B;}
</style>
<g>
	<g>
		<path class="st0" d="M-0.3,58v33.2c0,1.5,1.2,2.8,2.8,2.8h41.5c1.5,0,2.8-1.2,2.8-2.8V58H-0.3z M10.1,69.2c-1.3,0-2.3-1-2.3-2.3
			c0-1.3,1-2.3,2.3-2.3c1.3,0,2.3,1,2.3,2.3C12.4,68.2,11.3,69.2,10.1,69.2z M23.7,70.8c-2.1,0-3.8-1.7-3.8-3.8
			c0-2.1,1.7-3.8,3.8-3.8c2.1,0,3.8,1.7,3.8,3.8C27.5,69.1,25.8,70.8,23.7,70.8z M36.8,69.2c-1.3,0-2.3-1-2.3-2.3
			c0-1.3,1-2.3,2.3-2.3s2.3,1,2.3,2.3C39.1,68.2,38.1,69.2,36.8,69.2z"/>
		<rect x="-0.3" y="40" class="st0" width="47" height="16"/>
		<path class="st0" d="M46.7,37V2.8c0-1.5-1.2-2.8-2.8-2.8H2.4C0.9,0-0.3,1.2-0.3,2.8V37H46.7z"/>
	</g>
	<circle class="st1" cx="23.7" cy="66.9" r="3.8"/>
	<path class="st2" d="M2.8,4.1V92h41.4V4.1H2.8z M10.1,69.2c-1.3,0-2.3-1-2.3-2.3c0-1.3,1-2.3,2.3-2.3c1.3,0,2.3,1,2.3,2.3
		C12.4,68.2,11.3,69.2,10.1,69.2z M23.7,70.8c-2.1,0-3.8-1.7-3.8-3.8c0-2.1,1.7-3.8,3.8-3.8c2.1,0,3.8,1.7,3.8,3.8
		C27.5,69.1,25.8,70.8,23.7,70.8z M36.8,69.2c-1.3,0-2.3-1-2.3-2.3c0-1.3,1-2.3,2.3-2.3s2.3,1,2.3,2.3
		C39.1,68.2,38.1,69.2,36.8,69.2z"/>
	<circle class="st3" cx="24.1" cy="22.7" r="10.3"/>
	<circle class="st3" cx="24.1" cy="22.7" r="8"/>
	<path class="st3" d="M39,4.8l3,2.4V5h0.5v2.9H42l-2.9-2.4v2.4h-0.5v-3H39z"/>
	<path class="st3" d="M38.6,8.7V8.1l2,1.4l1.9-1.3v0.6l-1.5,1l1.5,1v0.6l-1.9-1.3l-2,1.3v-0.6l1.6-1L38.6,8.7z"/>
	<path class="st3" d="M40.3,11.8v1.3h-0.5v-1.3H40.3z"/>
	<path class="st3" d="M42.4,13.8v0.5h-3.4v1.9h-0.5v-2.5H42.4z"/>
	<path class="st3" d="M42.4,16.8v2.8H42v-2.3h-1.2v2.1h-0.4v-2.1h-1.3v2.3h-0.5v-2.8H42.4z"/>
	<path class="st3" d="M42.4,20.3v1.5c0,0.5-0.2,0.9-0.6,1.2c-0.3,0.3-0.8,0.4-1.3,0.4c-0.4,0-0.8-0.1-1.1-0.2
		c-0.6-0.3-0.9-0.7-0.9-1.4v-1.5H42.4z M39,21.8c0,0.2,0,0.3,0.1,0.4c0.1,0.2,0.2,0.4,0.4,0.5c0.2,0.1,0.4,0.2,0.6,0.2
		c0.1,0,0.3,0,0.4,0c0.5,0,0.8-0.1,1.1-0.3c0.3-0.2,0.4-0.5,0.4-0.9v-0.9h-3V21.8z"/>
	<path class="st3" d="M20.6,56.4c0.2,0.2,0.3,0.4,0.4,0.7h-0.4c0-0.2-0.1-0.4-0.3-0.5c-0.1-0.1-0.3-0.2-0.6-0.2
		c-0.3,0-0.6,0.1-0.7,0.3c-0.2,0.2-0.3,0.6-0.3,1c0,0.4,0.1,0.7,0.3,0.9c0.2,0.2,0.4,0.3,0.8,0.3c0.3,0,0.5-0.1,0.7-0.4
		c0.1-0.1,0.1-0.3,0.2-0.5H21c0,0.3-0.2,0.6-0.4,0.8c-0.2,0.3-0.6,0.4-1,0.4c-0.4,0-0.7-0.1-0.9-0.3c-0.3-0.3-0.5-0.7-0.5-1.4
		c0-0.5,0.1-0.8,0.4-1.1c0.3-0.3,0.6-0.5,1.1-0.5C20.1,56.1,20.4,56.2,20.6,56.4z"/>
	<path class="st3" d="M21.6,57.1v-0.3c0.3,0,0.5-0.1,0.6-0.1c0.1-0.1,0.2-0.2,0.2-0.5h0.3v3.1h-0.4v-2.2H21.6z"/>
	<path class="st3" d="M25.7,56.7c0.1,0.3,0.2,0.6,0.2,1c0,0.4-0.1,0.8-0.2,1c-0.2,0.4-0.5,0.6-0.9,0.6c-0.4,0-0.6-0.2-0.8-0.5
		c-0.1-0.3-0.2-0.6-0.2-1.1c0-0.3,0-0.6,0.1-0.9c0.2-0.5,0.5-0.7,0.9-0.7C25.2,56.2,25.5,56.4,25.7,56.7z M25.3,58.8
		c0.1-0.2,0.2-0.5,0.2-1c0-0.3,0-0.6-0.1-0.9c-0.1-0.2-0.3-0.3-0.5-0.3c-0.2,0-0.4,0.1-0.5,0.3c-0.1,0.2-0.2,0.5-0.2,0.9
		c0,0.3,0,0.6,0.1,0.8c0.1,0.3,0.3,0.4,0.5,0.4C25,59,25.2,58.9,25.3,58.8z"/>
	<path class="st3" d="M26.4,58.6c0.1-0.2,0.3-0.4,0.6-0.5l0.4-0.2c0.2-0.1,0.3-0.2,0.4-0.3c0.1-0.1,0.2-0.3,0.2-0.4
		c0-0.2-0.1-0.3-0.2-0.4c-0.1-0.1-0.2-0.2-0.4-0.2c-0.3,0-0.4,0.1-0.5,0.3c-0.1,0.1-0.1,0.3-0.1,0.4h-0.4c0-0.3,0.1-0.5,0.1-0.7
		c0.2-0.3,0.5-0.4,0.9-0.4c0.4,0,0.6,0.1,0.8,0.3s0.2,0.4,0.2,0.6c0,0.2-0.1,0.5-0.3,0.6c-0.1,0.1-0.3,0.2-0.5,0.4l-0.3,0.2
		c-0.1,0.1-0.2,0.2-0.3,0.2c-0.1,0.1-0.2,0.3-0.3,0.4h1.7v0.4h-2.1C26.2,59,26.3,58.8,26.4,58.6z"/>
	<path class="st3" d="M30.8,48.9H16.5v-6h14.3V48.9z M16.8,48.6h13.8v-5.5H16.8V48.6z"/>
	<circle class="st4" cx="32" cy="45.8" r="1.2"/>
	<circle class="st5" cx="32" cy="45.8" r="0.6"/>
	<circle class="st4" cx="15.1" cy="45.8" r="1.2"/>
	<circle class="st5" cx="15.1" cy="45.8" r="0.6"/>
	<path class="st6" d="M14.7,45.8L14.7,45.8c0-0.2,0.2-0.4,0.4-0.4h17.1c0.2,0,0.4,0.2,0.4,0.4l0,0c0,0.2-0.2,0.4-0.4,0.4H15.2
		C14.9,46.3,14.7,46.1,14.7,45.8z"/>
	<path class="st7" d="M17.1,45.8L17.1,45.8c0-1.1,0.9-1.9,1.9-1.9h9.2c1.1,0,1.9,0.9,1.9,1.9v0c0,1.1-0.9,1.9-1.9,1.9h-9.2
		C18,47.8,17.1,46.9,17.1,45.8z"/>
	
		<rect x="24.7" y="45.5" transform="matrix(-1.836970e-16 1 -1 -1.836970e-16 72.4769 19.2142)" class="st8" width="3.9" height="0.7"/>
	
		<rect x="25.9" y="45.5" transform="matrix(-1.836970e-16 1 -1 -1.836970e-16 73.6752 18.0158)" class="st8" width="3.9" height="0.7"/>
	
		<rect x="21.8" y="45.5" transform="matrix(-1.836970e-16 1 -1 -1.836970e-16 69.5492 22.1418)" class="st8" width="3.9" height="0.7"/>
	
		<rect x="18.4" y="45.5" transform="matrix(-1.836970e-16 1 -1 -1.836970e-16 66.1569 25.5341)" class="st9" width="3.9" height="0.7"/>
	
		<rect x="20.3" y="45.5" transform="matrix(-1.836970e-16 1 -1 -1.836970e-16 68.1086 23.5825)" class="st8" width="3.9" height="0.7"/>
	<path class="st3" d="M25.6,56.1H21l-2.7-2.7v-3.9h10v3.9L25.6,56.1z M21.1,55.8h4.4l2.6-2.6v-3.5h-9.6v3.5L21.1,55.8z"/>
	<path class="st10" d="M25,55.3h-3.5c-0.8-0.8-1.3-1.3-2.1-2.1v-2.9h7.7v2.9C26.3,54,25.8,54.4,25,55.3z"/>
	<path class="st11" d="M24.8,54.9h-3.1c-0.7-0.7-1.1-1.1-1.8-1.8v-2.5h6.7v2.5C25.9,53.8,25.5,54.2,24.8,54.9z"/>
	<path class="st3" d="M23.7,73.3c-3.5,0-6.3-2.8-6.3-6.3c0-3.5,2.8-6.3,6.3-6.3s6.3,2.8,6.3,6.3C30,70.4,27.2,73.3,23.7,73.3z
		 M23.7,60.9c-3.3,0-6.1,2.7-6.1,6.1c0,3.3,2.7,6.1,6.1,6.1s6.1-2.7,6.1-6.1C29.7,63.6,27,60.9,23.7,60.9z"/>
	<path class="st3" d="M32.7,91.9H14.4V77.3h18.4V91.9z M14.6,91.6h17.9V77.5H14.6V91.6z"/>
	<path class="st3" d="M18.5,77.5h-4.1v-5.1h4.1V77.5z M14.6,77.3h3.6v-4.7h-3.6V77.3z"/>
	<path class="st3" d="M32.8,77.5h-4.1v-5.1h4.1V77.5z M28.9,77.3h3.6v-4.7h-3.6V77.3z"/>
	<rect x="15.3" y="78.3" class="st12" width="16.8" height="13.1"/>
	<rect x="15.3" y="77.4" class="st3" width="16.8" height="2.7"/>
	<rect x="15.3" y="73.5" class="st3" width="2.1" height="6.6"/>
	<rect x="30" y="73.5" class="st3" width="2.1" height="6.6"/>
	<rect x="15.3" y="80.1" class="st3" width="6.4" height="11.9"/>
	<rect x="17.2" y="82.6" class="st12" width="2.7" height="4.8"/>
	<rect x="25.8" y="80.1" class="st3" width="6.4" height="11.9"/>
	<rect x="27.6" y="82.6" class="st12" width="2.7" height="4.8"/>
	<rect x="18.9" y="76.2" class="st3" width="1" height="3.9"/>
	<rect x="23.2" y="76.2" class="st3" width="1" height="3.9"/>
	<rect x="27.5" y="76.2" class="st3" width="1" height="3.9"/>
	<rect x="23.2" y="80.1" class="st13" width="1" height="7.3"/>
	<path class="st3" d="M40.7,87.6c-0.3,0.3-0.8,0.4-1.3,0.4c-0.6,0-1.1-0.1-1.4-0.4c-0.4-0.3-0.7-0.8-0.7-1.5c0-0.6,0.2-1.1,0.6-1.4
		c0.4-0.3,0.9-0.5,1.4-0.5c0.5,0,1,0.1,1.3,0.4c0.5,0.3,0.7,0.8,0.7,1.5C41.3,86.8,41.1,87.3,40.7,87.6z M38.2,87.1
		c0.3,0.2,0.7,0.3,1.1,0.3c0.5,0,0.8-0.1,1.1-0.4c0.3-0.2,0.4-0.6,0.4-1c0-0.4-0.1-0.7-0.4-1c-0.3-0.3-0.7-0.4-1.2-0.4
		c-0.4,0-0.8,0.1-1.1,0.3c-0.3,0.2-0.4,0.6-0.4,1C37.7,86.6,37.9,86.9,38.2,87.1z"/>
	<path class="st3" d="M42.4,89.5h-6.7v-7.1h6.7V89.5z M36,89.3h6.2v-6.6H36V89.3z"/>
	<rect x="35.8" y="82.5" class="st3" width="1" height="6.9"/>
	<path class="st3" d="M5.3,78.3c-0.4-0.4-0.6-0.8-0.6-1.4c0-0.5,0.2-1,0.6-1.4C5.6,75.2,6.1,75,6.6,75c0.5,0,1,0.2,1.4,0.6
		C8.4,76,8.5,76.4,8.5,77c0,0.5-0.2,1-0.6,1.4c-0.4,0.4-0.8,0.6-1.4,0.6C6.1,78.9,5.6,78.7,5.3,78.3z M7.8,75.8
		c-0.3-0.3-0.7-0.5-1.2-0.5c-0.5,0-0.9,0.2-1.2,0.5C5.1,76.1,5,76.5,5,77c0,0.5,0.2,0.8,0.5,1.2c0.3,0.3,0.7,0.5,1.2,0.5
		c0.5,0,0.8-0.2,1.2-0.5c0.3-0.3,0.5-0.7,0.5-1.2C8.3,76.5,8.1,76.1,7.8,75.8z M5.7,77.6c-0.1-0.2-0.2-0.4-0.2-0.6
		c0-0.3,0.1-0.5,0.3-0.7C6,76.1,6.3,76,6.6,76c0.3,0,0.6,0.1,0.8,0.3c0.2,0.2,0.3,0.4,0.3,0.7c0,0.2,0,0.4-0.1,0.5
		c-0.1,0.3-0.4,0.4-0.7,0.4v-0.3c0.1,0,0.2-0.1,0.3-0.2c0.1-0.1,0.1-0.2,0.1-0.4c0-0.3-0.1-0.4-0.3-0.5c-0.1-0.1-0.3-0.1-0.5-0.1
		c-0.2,0-0.4,0.1-0.6,0.2c-0.2,0.1-0.2,0.3-0.2,0.5c0,0.1,0,0.3,0.1,0.4c0.1,0.1,0.2,0.2,0.3,0.2v0.3C6,77.9,5.8,77.8,5.7,77.6z"/>
	<path class="st3" d="M7.5,80.8v0.5H4.7v-0.5H7.5z M8.5,80.8v0.5H8v-0.5H8.5z"/>
	<path class="st3" d="M7.5,82v0.4H7.1c0.2,0.1,0.3,0.3,0.4,0.4c0.1,0.1,0.1,0.3,0.1,0.5c0,0.4-0.1,0.7-0.4,0.8
		c-0.2,0.1-0.4,0.1-0.7,0.1H4.7v-0.5h1.8c0.2,0,0.3,0,0.4-0.1c0.2-0.1,0.3-0.2,0.3-0.5c0-0.1,0-0.2,0-0.3c0-0.1-0.1-0.2-0.2-0.3
		c-0.1-0.1-0.2-0.1-0.3-0.2c-0.1,0-0.2,0-0.4,0H4.7V82H7.5z"/>
	<path class="st3" d="M7.4,86.7c-0.1,0.2-0.2,0.3-0.4,0.4c-0.1,0.1-0.3,0.2-0.5,0.2c-0.1,0-0.3,0-0.6,0v-2c-0.3,0-0.5,0.1-0.7,0.2
		C5.1,85.6,5,85.8,5,86.1c0,0.2,0.1,0.4,0.2,0.6c0.1,0.1,0.2,0.1,0.3,0.2v0.5c-0.1,0-0.2-0.1-0.3-0.1C5.1,87.1,5,87,4.9,86.9
		c-0.1-0.1-0.2-0.3-0.3-0.5c0-0.1,0-0.2,0-0.4c0-0.3,0.1-0.6,0.4-0.9s0.6-0.4,1.1-0.4c0.5,0,0.8,0.1,1.1,0.4c0.3,0.2,0.4,0.6,0.4,1
		C7.6,86.3,7.5,86.5,7.4,86.7z M6.3,86.8c0.2,0,0.4-0.1,0.5-0.1c0.2-0.1,0.3-0.3,0.3-0.6c0-0.2-0.1-0.4-0.2-0.5
		c-0.2-0.1-0.4-0.2-0.6-0.2V86.8z"/>
	<path class="st3" d="M7.5,87.7v0.6l-1,0.6l1,0.7l0,0.6l-1.4-0.9l-1.4,1v-0.6l1.1-0.7l-1.1-0.7v-0.6l1.4,1L7.5,87.7z"/>
</g>
</svg>
