<?xml version="1.0" encoding="utf-8"?>
<!-- Generator: Adobe Illustrator 23.0.1, SVG Export Plug-In . SVG Version: 6.00 Build 0)  -->
<svg version="1.1" id="Layer_1" xmlns="http://www.w3.org/2000/svg" xmlns:xlink="http://www.w3.org/1999/xlink" x="0px" y="0px"
	 viewBox="0 0 53.9 153.8" style="enable-background:new 0 0 53.9 153.8;" xml:space="preserve">
<style type="text/css">
	.st0{fill:#C9B55E;}
	.st1{fill:#040202;}
	.st2{fill:#FFFFFF;}
	.st3{fill:#DDDDDC;}
	.st4{fill:#EDEDF2;}
	.st5{font-family:'ArialRoundedMTBold';}
	.st6{font-size:4.3712px;}
	.st7{fill:#7C6B2B;stroke:#D8C262;stroke-miterlimit:10;}
	.st8{fill:none;stroke:#FFFFFF;stroke-width:0.25;stroke-miterlimit:10;}
	.st9{fill:#D8C262;}
	.st10{fill:#7C6B2B;}
	.st11{fill:#E5D48B;}
	.st12{fill:#D3C17E;}
	.st13{fill:#B59D38;}
	.st14{fill:#212120;}
</style>
<g>
	<path d="M2.7,13.2C1,14.1,0,15.9,0,17.8v28v31.1V108v28c0,1.9,1,3.7,2.7,4.7l21.5,12.4c1.7,1,3.7,1,5.4,0l21.5-12.4
		c1.7-1,2.7-2.7,2.7-4.7v-28V76.9V45.8v-28c0-1.9-1-3.7-2.7-4.7L29.6,0.7c-1.7-1-3.7-1-5.4,0L2.7,13.2z"/>
	<g id="JST_13_">
		<g>
			<path class="st0" d="M35,126.5L35,126.5c1,0,1.7,0.8,1.7,1.7v1.4c0,1-0.8,1.7-1.7,1.7h0c-1,0-1.7-0.8-1.7-1.7v-1.4
				C33.3,127.3,34.1,126.5,35,126.5z"/>
			<circle class="st1" cx="35" cy="129" r="1"/>
		</g>
		<g>
			<path class="st0" d="M29.6,126.5L29.6,126.5c1,0,1.7,0.8,1.7,1.7v1.4c0,1-0.8,1.7-1.7,1.7h0c-1,0-1.7-0.8-1.7-1.7v-1.4
				C27.9,127.3,28.7,126.5,29.6,126.5z"/>
			<circle class="st1" cx="29.6" cy="129" r="1"/>
		</g>
		<g>
			<path class="st0" d="M24.2,126.5L24.2,126.5c1,0,1.7,0.8,1.7,1.7v1.4c0,1-0.8,1.7-1.7,1.7h0c-1,0-1.7-0.8-1.7-1.7v-1.4
				C22.5,127.3,23.3,126.5,24.2,126.5z"/>
			<circle class="st1" cx="24.2" cy="129" r="1"/>
		</g>
		<g>
			<path class="st0" d="M17.1,129.7v1.6c0,0.1,0.1,0.1,0.1,0.1h3.2c0.1,0,0.1-0.1,0.1-0.1v-4.6c0-0.1-0.1-0.1-0.1-0.1h-0.9v-0.7
				h-1.4v0.7h-0.9c-0.1,0-0.1,0.1-0.1,0.1v1.6h-0.7v1.4H17.1z"/>
			<circle class="st1" cx="18.8" cy="129" r="1"/>
		</g>
		<g>
			
				<rect x="34.2" y="131.1" transform="matrix(-1 -1.224647e-16 1.224647e-16 -1 70.046 264.0857)" class="st2" width="1.6" height="1.9"/>
			<path class="st3" d="M35,128.4L35,128.4c0.4,0,0.8,0.4,0.8,0.8v1.9h-1.6v-1.9C34.2,128.7,34.6,128.4,35,128.4z"/>
		</g>
		<g>
			
				<rect x="28.8" y="131.1" transform="matrix(-1 -1.224647e-16 1.224647e-16 -1 59.2398 264.0857)" class="st2" width="1.6" height="1.9"/>
			<path class="st3" d="M29.6,128.4L29.6,128.4c0.4,0,0.8,0.4,0.8,0.8v1.9h-1.6v-1.9C28.8,128.7,29.2,128.4,29.6,128.4z"/>
		</g>
		<g>
			
				<rect x="23.4" y="131.1" transform="matrix(-1 -1.224647e-16 1.224647e-16 -1 48.4335 264.0857)" class="st2" width="1.6" height="1.9"/>
			<path class="st3" d="M24.2,128.4L24.2,128.4c0.4,0,0.8,0.4,0.8,0.8v1.9h-1.6v-1.9C23.4,128.7,23.8,128.4,24.2,128.4z"/>
		</g>
		<g>
			
				<rect x="18" y="131.1" transform="matrix(-1 -1.224647e-16 1.224647e-16 -1 37.6272 264.0857)" class="st2" width="1.6" height="1.9"/>
			<path class="st3" d="M18.8,128.4L18.8,128.4c0.4,0,0.8,0.4,0.8,0.8v1.9H18v-1.9C18,128.7,18.4,128.4,18.8,128.4z"/>
		</g>
		<g>
			
				<rect x="37.5" y="127.1" transform="matrix(-1 -1.224647e-16 1.224647e-16 -1 77.6497 259.118)" class="st2" width="2.7" height="5"/>
			
				<rect x="37.5" y="125.1" transform="matrix(-1 -1.224647e-16 1.224647e-16 -1 77.6497 252.1711)" class="st3" width="2.7" height="2"/>
		</g>
		<g>
			
				<rect x="13.7" y="127.1" transform="matrix(-1 -1.224647e-16 1.224647e-16 -1 30.1856 259.118)" class="st2" width="2.7" height="5"/>
			
				<rect x="13.7" y="125.1" transform="matrix(-1 -1.224647e-16 1.224647e-16 -1 30.1856 252.1711)" class="st3" width="2.7" height="2"/>
		</g>
		
			<rect x="13.7" y="132.3" transform="matrix(-1 -1.224647e-16 1.224647e-16 -1 53.9176 278.494)" class="st3" width="26.4" height="13.8"/>
		<g>
			
				<rect x="29.1" y="132.3" transform="matrix(-1 -1.224647e-16 1.224647e-16 -1 59.3585 278.5337)" class="st2" width="1.1" height="13.9"/>
			
				<rect x="23.7" y="132.3" transform="matrix(-1 -1.224647e-16 1.224647e-16 -1 48.4434 278.5337)" class="st2" width="1.1" height="13.9"/>
			
				<rect x="26.4" y="132.3" transform="matrix(-1 -1.224647e-16 1.224647e-16 -1 53.8366 272.5071)" class="st2" width="1.1" height="7.9"/>
			
				<rect x="31.8" y="132.3" transform="matrix(-1 -1.224647e-16 1.224647e-16 -1 64.6429 272.5071)" class="st2" width="1.1" height="7.9"/>
			
				<rect x="21" y="132.3" transform="matrix(-1 -1.224647e-16 1.224647e-16 -1 43.0304 272.5071)" class="st2" width="1.1" height="7.9"/>
		</g>
		
			<rect x="13.7" y="132.3" transform="matrix(-1 -1.224647e-16 1.224647e-16 -1 53.8366 269.3305)" class="st4" width="26.3" height="4.7"/>
		<polygon class="st2" points="20.1,149.2 20.1,138.2 26.2,138.2 33.8,138.2 33.8,149.2 40.2,149.2 40.2,132.3 38.8,132.3 
			38.8,144.1 36.2,144.1 36.2,133 26.2,133 17.8,133 17.8,144.1 15.2,144.1 15.2,132.3 13.8,132.3 13.8,149.2 		"/>
		
			<rect x="26.3" y="132.3" transform="matrix(-1 -1.224647e-16 1.224647e-16 -1 53.8564 265.3326)" class="st2" width="1.4" height="0.7"/>
		
			<rect x="31.6" y="132.3" transform="matrix(-1 -1.224647e-16 1.224647e-16 -1 64.6429 265.3326)" class="st2" width="1.4" height="0.7"/>
		
			<rect x="20.8" y="132.3" transform="matrix(-1 -1.224647e-16 1.224647e-16 -1 43.0304 265.3326)" class="st2" width="1.4" height="0.7"/>
	</g>
	<text transform="matrix(6.123234e-17 -1 1 6.123234e-17 49.9131 122.9316)" class="st2 st5 st6">7-Segment Display</text>
	<g>
		<g>
			<polygon class="st2" points="49.7,134.1 44.4,128.7 44.4,129.8 46.5,131.9 46,132.4 44.4,130.9 44.4,131.9 45.4,133 44.9,133.5 
				44.4,133 44.4,134.1 			"/>
			<polygon class="st2" points="49.7,128.7 48.8,128.7 47,130.6 47.4,131 			"/>
			<polygon class="st2" points="47.9,128.7 47,128.7 46,129.7 46.5,130.1 			"/>
			<polygon class="st2" points="46,128.7 45.1,128.7 45.6,129.2 			"/>
		</g>
	</g>
	<g>
		<circle class="st7" cx="13.5" cy="90.9" r="1.7"/>
		<circle class="st7" cx="13.5" cy="84.1" r="1.7"/>
		<circle class="st7" cx="13.5" cy="77.2" r="1.7"/>
		<circle class="st7" cx="13.5" cy="70.4" r="1.7"/>
		<circle class="st7" cx="13.5" cy="63.6" r="1.7"/>
		<circle class="st7" cx="13.5" cy="56.8" r="1.7"/>
		<circle class="st7" cx="13.5" cy="49.9" r="1.7"/>
		<circle class="st7" cx="13.5" cy="43.1" r="1.7"/>
	</g>
	<g>
		<circle class="st7" cx="40.4" cy="90.9" r="1.7"/>
		<circle class="st7" cx="40.4" cy="84.1" r="1.7"/>
		<circle class="st7" cx="40.4" cy="77.2" r="1.7"/>
		<circle class="st7" cx="40.4" cy="70.4" r="1.7"/>
		<circle class="st7" cx="40.4" cy="63.6" r="1.7"/>
		<circle class="st7" cx="40.4" cy="56.8" r="1.7"/>
		<circle class="st7" cx="40.4" cy="49.9" r="1.7"/>
		<circle class="st7" cx="40.4" cy="43.1" r="1.7"/>
	</g>
	<g>
		<circle class="st8" cx="22.3" cy="106.6" r="5.3"/>
		<circle class="st8" cx="31.6" cy="107.9" r="5.3"/>
	</g>
	<g>
		<circle class="st8" cx="22.3" cy="79.6" r="5.3"/>
		<circle class="st8" cx="31.6" cy="80.9" r="5.3"/>
	</g>
	<g>
		<circle class="st8" cx="22.3" cy="52.7" r="5.3"/>
		<circle class="st8" cx="31.6" cy="54" r="5.3"/>
	</g>
	<g>
		<circle class="st8" cx="22.3" cy="26" r="5.3"/>
		<circle class="st8" cx="31.6" cy="27.3" r="5.3"/>
	</g>
	<g>
		<circle class="st7" cx="21.4" cy="29.3" r="1.7"/>
		<g>
			
				<rect x="12" y="27" transform="matrix(6.123234e-17 -1 1 6.123234e-17 -14.9233 43.7445)" class="st9" width="4.8" height="4.8"/>
			<circle class="st10" cx="14.4" cy="29.3" r="1.3"/>
		</g>
		<g>
			
				<rect x="20.5" y="28.4" transform="matrix(6.123234e-17 -1 1 6.123234e-17 -7.9197 50.7481)" class="st0" width="1.9" height="1.9"/>
			<polygon class="st11" points="20.5,30.3 21.4,29.3 22.3,30.3 			"/>
			<polygon class="st12" points="22.3,28.4 21.4,29.3 22.3,30.3 			"/>
			<polygon class="st13" points="20.5,28.4 21.4,29.3 22.3,28.4 			"/>
		</g>
		<circle class="st7" cx="21.4" cy="22.6" r="1.7"/>
		<g>
			
				<rect x="20.5" y="21.7" transform="matrix(6.123234e-17 -1 1 6.123234e-17 -1.1708 43.9991)" class="st0" width="1.9" height="1.9"/>
			<polygon class="st11" points="20.5,23.5 21.4,22.6 22.3,23.5 			"/>
			<polygon class="st12" points="22.3,21.7 21.4,22.6 22.3,23.5 			"/>
			<polygon class="st13" points="20.5,21.7 21.4,22.6 22.3,21.7 			"/>
		</g>
		<circle class="st7" cx="21.4" cy="15.8" r="1.7"/>
		<g>
			
				<rect x="20.5" y="14.9" transform="matrix(6.123234e-17 -1 1 6.123234e-17 5.5782 37.2501)" class="st0" width="1.9" height="1.9"/>
			<polygon class="st11" points="20.5,16.8 21.4,15.8 22.3,16.8 			"/>
			<polygon class="st12" points="22.3,14.9 21.4,15.8 22.3,16.8 			"/>
			<polygon class="st13" points="20.5,14.9 21.4,15.8 22.3,14.9 			"/>
		</g>
		<circle class="st7" cx="14.4" cy="22.6" r="1.7"/>
		<g>
			
				<rect x="13.5" y="21.7" transform="matrix(6.123234e-17 -1 1 6.123234e-17 -8.1744 36.9955)" class="st0" width="1.9" height="1.9"/>
			<polygon class="st11" points="13.5,23.5 14.4,22.6 15.3,23.5 			"/>
			<polygon class="st12" points="15.3,21.7 14.4,22.6 15.3,23.5 			"/>
			<polygon class="st13" points="13.5,21.7 14.4,22.6 15.3,21.7 			"/>
		</g>
		<circle class="st7" cx="14.4" cy="15.8" r="1.7"/>
		<g>
			
				<rect x="13.5" y="14.9" transform="matrix(6.123234e-17 -1 1 6.123234e-17 -1.4254 30.2465)" class="st0" width="1.9" height="1.9"/>
			<polygon class="st11" points="13.5,16.8 14.4,15.8 15.3,16.8 			"/>
			<polygon class="st12" points="15.3,14.9 14.4,15.8 15.3,16.8 			"/>
			<polygon class="st13" points="13.5,14.9 14.4,15.8 15.3,14.9 			"/>
		</g>
		<g>
			
				<rect x="13.5" y="28.4" transform="matrix(6.123234e-17 -1 1 6.123234e-17 -14.9233 43.7445)" class="st0" width="1.9" height="1.9"/>
			<polygon class="st11" points="13.5,30.3 14.4,29.3 15.3,30.3 			"/>
			<polygon class="st12" points="15.3,28.4 14.4,29.3 15.3,30.3 			"/>
			<polygon class="st13" points="13.5,28.4 14.4,29.3 15.3,28.4 			"/>
		</g>
	</g>
	<circle class="st8" cx="35.7" cy="100.7" r="1"/>
	<circle class="st8" cx="36" cy="73.8" r="1"/>
	<circle class="st8" cx="33.7" cy="67" r="1"/>
	<circle class="st8" cx="35.7" cy="46.8" r="1"/>
	<circle class="st8" cx="35.7" cy="19.9" r="1"/>
	<circle class="st8" cx="15.4" cy="36" r="1"/>
	<circle class="st8" cx="20.2" cy="67" r="1"/>
	
		<rect x="-29.4" y="49.6" transform="matrix(6.123234e-17 -1 1 6.123234e-17 -39.9773 93.9492)" class="st8" width="112.7" height="34.8"/>
	<g>
		
			<rect x="-28.7" y="50" transform="matrix(6.123234e-17 -1 1 6.123234e-17 -39.681 93.9128)" class="st14" width="111.7" height="33.6"/>
		<g>
			<polygon class="st2" points="16.2,112.6 26.1,114.4 26.4,114 24.8,111.9 17.2,110.5 15.4,111.9 			"/>
			<polygon class="st2" points="14.9,111.1 16.4,109.8 16.4,99.6 14.9,97.8 14.4,98 14.4,110.5 			"/>
			<polygon class="st2" points="39.7,102.2 38.2,103.5 38.2,113.8 39.7,115.6 40.2,115.3 40.2,102.9 			"/>
			<polygon class="st2" points="17.4,99.4 25.1,100.8 26.8,99.4 26.4,98.5 16.4,96.7 15.4,97.3 			"/>
			<polygon class="st2" points="28.6,114.9 38.5,116.7 38.8,116.3 37.2,114.2 29.6,112.8 27.8,114.2 			"/>
			<polygon class="st2" points="29.7,101.7 37.5,103.1 39.2,101.7 38.8,100.8 28.8,99 27.8,99.6 			"/>
			<polygon class="st2" points="27.2,113.4 26,111.9 26,101 27.4,100.2 28.5,101.5 28.5,112.4 			"/>
			<circle class="st2" cx="39.4" cy="98.1" r="1.6"/>
		</g>
		<g>
			<polygon class="st2" points="16.2,86.2 26.1,87.9 26.4,87.5 24.8,85.4 17.2,84 15.4,85.5 			"/>
			<polygon class="st2" points="14.9,84.7 16.4,83.4 16.4,73.1 14.9,71.3 14.4,71.6 14.4,84 			"/>
			<polygon class="st2" points="39.7,75.8 38.2,77.1 38.2,87.3 39.7,89.1 40.2,88.9 40.2,76.4 			"/>
			<polygon class="st2" points="17.4,73 25.1,74.3 26.8,73 26.4,72.1 16.4,70.3 15.4,70.9 			"/>
			<polygon class="st2" points="28.6,88.5 38.5,90.2 38.8,89.9 37.2,87.7 29.6,86.3 27.8,87.8 			"/>
			<polygon class="st2" points="29.7,75.3 37.5,76.6 39.2,75.3 38.8,74.4 28.8,72.6 27.8,73.2 			"/>
			<polygon class="st2" points="27.2,86.9 26,85.5 26,74.6 27.4,73.7 28.5,75.1 28.5,86 			"/>
			<circle class="st2" cx="39.4" cy="71.7" r="1.6"/>
		</g>
		<g>
			<polygon class="st2" points="16.2,59.7 26.1,61.5 26.4,61.1 24.8,59 17.2,57.6 15.4,59 			"/>
			<polygon class="st2" points="14.9,58.3 16.4,56.9 16.4,46.7 14.9,44.9 14.4,45.1 14.4,57.6 			"/>
			<polygon class="st2" points="39.7,49.3 38.2,50.6 38.2,60.9 39.7,62.7 40.2,62.4 40.2,50 			"/>
			<polygon class="st2" points="17.4,46.5 25.1,47.9 26.8,46.5 26.4,45.6 16.4,43.8 15.4,44.4 			"/>
			<polygon class="st2" points="28.6,62 38.5,63.8 38.8,63.4 37.2,61.3 29.6,59.9 27.8,61.3 			"/>
			<polygon class="st2" points="29.7,48.8 37.5,50.2 39.2,48.8 38.8,47.9 28.8,46.1 27.8,46.7 			"/>
			<polygon class="st2" points="27.2,60.5 26,59 26,48.2 27.4,47.3 28.5,48.7 28.5,59.5 			"/>
			<circle class="st2" cx="39.4" cy="45.3" r="1.6"/>
		</g>
		<g>
			<polygon class="st2" points="16.2,33.3 26.1,35 26.4,34.7 24.8,32.5 17.2,31.2 15.4,32.6 			"/>
			<polygon class="st2" points="14.9,31.8 16.4,30.5 16.4,20.2 14.9,18.4 14.4,18.7 14.4,31.2 			"/>
			<polygon class="st2" points="39.7,22.9 38.2,24.2 38.2,34.4 39.7,36.3 40.2,36 40.2,23.5 			"/>
			<polygon class="st2" points="17.4,20.1 25.1,21.4 26.8,20.1 26.4,19.2 16.4,17.4 15.4,18 			"/>
			<polygon class="st2" points="28.6,35.6 38.5,37.3 38.8,37 37.2,34.8 29.6,33.5 27.8,34.9 			"/>
			<polygon class="st2" points="29.7,22.4 37.5,23.7 39.2,22.4 38.8,21.5 28.8,19.7 27.8,20.3 			"/>
			<polygon class="st2" points="27.2,34.1 26,32.6 26,21.7 27.4,20.8 28.5,22.2 28.5,33.1 			"/>
			<circle class="st2" cx="39.4" cy="18.8" r="1.6"/>
		</g>
	</g>
</g>
</svg>
