<?xml version="1.0" encoding="utf-8"?>
<!-- Generator: Adobe Illustrator 23.0.3, SVG Export Plug-In . SVG Version: 6.00 Build 0)  -->
<svg version="1.1" id="Layer_1" xmlns="http://www.w3.org/2000/svg" xmlns:xlink="http://www.w3.org/1999/xlink" x="0px" y="0px"
	 viewBox="0 0 136.8 72" style="enable-background:new 0 0 136.8 72;" xml:space="preserve">
<style type="text/css">
	.st0{fill:#010101;}
	.st1{fill:#FFFFFF;}
	.st2{fill:#DDDDDC;}
	.st3{fill:#282828;}
	.st4{fill:#434343;}
	.st5{fill:#BB8C2D;}
	.st6{fill:#FED401;}
	.st7{fill:#EDEEF3;}
	.st8{fill:#7B5A51;}
	.st9{fill:#484849;}
	.st10{fill:#CAB65E;}
	.st11{fill:#9E8D43;}
	.st12{fill:#7C6C2C;}
	.st13{fill:#F6EFE9;}
	.st14{fill:#787065;}
	.st15{fill:#EDEDF2;}
	.st16{fill:#6D6E6E;}
	.st17{font-family:'ArialMT';}
	.st18{font-size:2.6726px;}
	.st19{fill:none;stroke:#9A916C;stroke-width:1.224;}
	.st20{fill:#E6E6E6;}
	.st21{opacity:0.2;fill:#FFFFFF;enable-background:new    ;}
	.st22{opacity:0.1;fill:#1A1A1A;enable-background:new    ;}
	.st23{fill:#CCCCCC;}
	.st24{opacity:0.1;enable-background:new    ;}
	.st25{fill:#C8C8C8;}
	.st26{fill:#C9B55E;}
	.st27{fill:#474748;}
	.st28{fill:#A6A6A6;}
	.st29{fill:none;stroke:#FFFFFF;stroke-width:0.0731;stroke-miterlimit:10;}
	.st30{fill:#C6C5C5;}
	.st31{fill:none;stroke:#7C6B2B;stroke-width:0.1317;stroke-miterlimit:10;}
	.st32{fill:none;stroke:#FFFFFF;stroke-width:0.2634;stroke-miterlimit:10;}
	.st33{fill:none;stroke:#7C6B2B;stroke-width:0.1674;stroke-miterlimit:10;}
	.st34{fill:#F3C028;}
	.st35{fill:none;stroke:#FFFFFF;stroke-width:0.4;stroke-miterlimit:10;}
</style>
<path class="st0" d="M131.13,0H6.59C3.46,0,0.92,2.54,0.92,5.67v60.66c0,3.13,2.54,5.67,5.67,5.67h124.54
	c3.13,0,5.67-2.54,5.67-5.67V5.67C136.8,2.54,134.26,0,131.13,0z M6.64,70.2c-2.35,0-4.25-1.9-4.25-4.25c0-2.35,1.9-4.25,4.25-4.25
	c2.35,0,4.25,1.9,4.25,4.25C10.89,68.3,8.99,70.2,6.64,70.2z M6.64,10.2c-2.35,0-4.25-1.9-4.25-4.25c0-2.35,1.9-4.25,4.25-4.25
	c2.35,0,4.25,1.9,4.25,4.25C10.89,8.3,8.99,10.2,6.64,10.2z M130.96,70.2c-2.35,0-4.25-1.9-4.25-4.25c0-2.35,1.9-4.25,4.25-4.25
	c2.35,0,4.25,1.9,4.25,4.25C135.22,68.3,133.31,70.2,130.96,70.2z M130.96,10.2c-2.35,0-4.25-1.9-4.25-4.25
	c0-2.35,1.9-4.25,4.25-4.25c2.35,0,4.25,1.9,4.25,4.25C135.22,8.3,133.31,10.2,130.96,10.2z"/>
<g>
	<g>
		<path class="st1" d="M2.19,22.04v-9.6h11.85v9.6H2.19z M2.58,12.83v8.82h11.07v-8.82H2.58z"/>
	</g>
</g>
<g>
	<g>
		<g>
			<rect x="4.25" y="13.62" class="st2" width="7.64" height="7.15"/>
		</g>
	</g>
	<g>
		<g>
			<path class="st1" d="M4.25,13.62v-0.59c0-0.29,0.2-0.49,0.49-0.49h6.66c0.29,0,0.49,0.2,0.49,0.49v0.59H4.25z"/>
		</g>
	</g>
	<g>
		<g>
			<path class="st1" d="M4.25,21.35v-0.59h7.64v0.59c0,0.29-0.2,0.49-0.49,0.49H4.74C4.45,21.84,4.25,21.65,4.25,21.35z"/>
		</g>
	</g>
	<g>
		<g>
			<g>
				<path class="st2" d="M11.89,15.18v-1.57h1.27c0.39,0,0.69,0.29,0.69,0.69v0.88H11.89z"/>
			</g>
		</g>
		<g>
			<g>
				<g>
					<rect x="11.79" y="14.99" class="st2" width="0.69" height="4.41"/>
				</g>
			</g>
		</g>
		<g>
			<g>
				<g>
					<rect x="12.48" y="15.97" class="st2" width="0.69" height="2.35"/>
				</g>
			</g>
		</g>
		<g>
			<g>
				<path class="st2" d="M11.89,20.77V19.2h1.96v0.88c0,0.39-0.29,0.69-0.69,0.69C13.16,20.77,11.89,20.77,11.89,20.77z"/>
			</g>
		</g>
	</g>
	<g>
		<g>
			<g>
				<path class="st2" d="M4.25,19.2v1.57H2.98c-0.39,0-0.69-0.29-0.69-0.69V19.2C2.39,19.2,4.25,19.2,4.25,19.2z"/>
			</g>
		</g>
		<g>
			<g>
				<g>
					<rect x="3.56" y="14.99" class="st2" width="0.69" height="4.41"/>
				</g>
			</g>
		</g>
		<g>
			<g>
				<g>
					<rect x="2.98" y="16.06" class="st2" width="0.69" height="2.35"/>
				</g>
			</g>
		</g>
		<g>
			<g>
				<path class="st2" d="M4.25,13.62v1.57H2.29V14.3c0-0.39,0.29-0.69,0.69-0.69C3.07,13.62,4.25,13.62,4.25,13.62z"/>
			</g>
		</g>
	</g>
	<g>
		<g>
			<circle class="st3" cx="8.07" cy="17.24" r="2.45"/>
		</g>
	</g>
	<g>
		<g>
			<circle class="st4" cx="8.07" cy="17.24" r="2.35"/>
		</g>
	</g>
	<g>
		<g>
			<rect x="4.25" y="13.22" class="st2" width="7.64" height="0.2"/>
		</g>
	</g>
	<g>
		<g>
			<rect x="4.25" y="21.35" class="st2" width="7.64" height="0.2"/>
		</g>
	</g>
</g>
<g>
	<g>
		<path class="st1" d="M2.19,57.99v-9.6h11.85v9.6H2.19z M2.58,48.78v8.82h11.07v-8.82C13.56,48.78,2.58,48.78,2.58,48.78z"/>
	</g>
</g>
<g>
	<g>
		<g>
			<rect x="4.25" y="49.57" class="st2" width="7.64" height="7.15"/>
		</g>
	</g>
	<g>
		<g>
			<path class="st1" d="M4.25,49.57v-0.59c0-0.29,0.2-0.49,0.49-0.49h6.66c0.29,0,0.49,0.2,0.49,0.49v0.59H4.25z"/>
		</g>
	</g>
	<g>
		<g>
			<path class="st1" d="M4.25,57.3v-0.59h7.64v0.59c0,0.29-0.2,0.49-0.49,0.49H4.74C4.45,57.79,4.25,57.6,4.25,57.3z"/>
		</g>
	</g>
	<g>
		<g>
			<g>
				<path class="st2" d="M11.89,51.13v-1.57h1.27c0.39,0,0.69,0.29,0.69,0.69v0.88H11.89z"/>
			</g>
		</g>
		<g>
			<g>
				<g>
					<rect x="11.79" y="50.94" class="st2" width="0.69" height="4.41"/>
				</g>
			</g>
		</g>
		<g>
			<g>
				<g>
					<rect x="12.48" y="52.01" class="st2" width="0.69" height="2.35"/>
				</g>
			</g>
		</g>
		<g>
			<g>
				<path class="st2" d="M11.89,56.72v-1.57h1.96v0.88c0,0.39-0.29,0.69-0.69,0.69C13.16,56.72,11.89,56.72,11.89,56.72z"/>
			</g>
		</g>
	</g>
	<g>
		<g>
			<g>
				<path class="st2" d="M4.25,55.15v1.57H2.98c-0.39,0-0.69-0.29-0.69-0.69v-0.88C2.39,55.15,4.25,55.15,4.25,55.15z"/>
			</g>
		</g>
		<g>
			<g>
				<g>
					<rect x="3.56" y="50.94" class="st2" width="0.69" height="4.41"/>
				</g>
			</g>
		</g>
		<g>
			<g>
				<g>
					<rect x="2.98" y="51.92" class="st2" width="0.69" height="2.35"/>
				</g>
			</g>
		</g>
		<g>
			<g>
				<path class="st2" d="M4.25,49.57v1.57H2.29v-0.88c0-0.39,0.29-0.69,0.69-0.69C3.07,49.57,4.25,49.57,4.25,49.57z"/>
			</g>
		</g>
	</g>
	<g>
		<g>
			<circle class="st3" cx="8.07" cy="53.19" r="2.45"/>
		</g>
	</g>
	<g>
		<g>
			<circle class="st4" cx="8.07" cy="53.19" r="2.35"/>
		</g>
	</g>
	<g>
		<g>
			<rect x="4.25" y="49.17" class="st2" width="7.64" height="0.2"/>
		</g>
	</g>
	<g>
		<g>
			<rect x="4.25" y="57.3" class="st2" width="7.64" height="0.2"/>
		</g>
	</g>
</g>
<g>
	<g>
		<g>
			<g>
				<rect x="60.06" y="10.29" class="st5" width="2.35" height="9.11"/>
			</g>
		</g>
		<g>
			<g>
				<rect x="52.03" y="10.29" class="st6" width="8.13" height="9.11"/>
			</g>
		</g>
	</g>
	<g>
		<g>
			<rect x="62.51" y="11.85" class="st7" width="2.45" height="5.88"/>
		</g>
	</g>
	<g>
		<g>
			<rect x="49.58" y="11.85" class="st7" width="2.45" height="5.88"/>
		</g>
	</g>
	<g>
		<g>
			<rect x="65.55" y="11.85" class="st1" width="0.39" height="5.88"/>
		</g>
	</g>
</g>
<g>
	<g>
		<g>
			<rect x="52.15" y="21.24" class="st8" width="4.41" height="3.92"/>
		</g>
	</g>
	<g>
		<g>
			<rect x="49.9" y="21.24" class="st7" width="2.25" height="3.92"/>
		</g>
	</g>
	<g>
		<g>
			<rect x="56.56" y="21.24" class="st7" width="2.25" height="3.92"/>
		</g>
	</g>
</g>
<g>
	<g>
		<polygon class="st1" points="48.72,26.13 48.72,25.64 59.2,25.64 59.2,20.75 48.72,20.75 48.72,20.35 59.59,20.35 59.59,26.13 		
			"/>
	</g>
</g>
<g>
	<g>
		<g>
			<polygon class="st1" points="47.04,43.96 47.04,35.15 47.43,35.15 47.43,43.57 66.72,43.57 66.72,35.15 67.12,35.15 67.12,43.96 
							"/>
		</g>
	</g>
	<g>
		<g>
			<g>
				<rect x="56.64" y="30.05" class="st7" width="1.67" height="5.09"/>
			</g>
		</g>
		<g>
			<g>
				<rect x="63.3" y="30.05" class="st7" width="1.67" height="5.09"/>
			</g>
		</g>
		<g>
			<g>
				<rect x="49.97" y="30.05" class="st7" width="1.67" height="5.09"/>
			</g>
		</g>
		<g>
			<g>
				<rect x="48.31" y="35.15" class="st9" width="18.02" height="7.74"/>
			</g>
		</g>
		<g>
			<g>
				<rect x="52.72" y="43.77" class="st7" width="9.5" height="4.31"/>
			</g>
		</g>
	</g>
</g>
<g>
	<g>
		<g>
			<g>
				<rect x="40.77" y="10.58" class="st9" width="2.16" height="1.96"/>
			</g>
		</g>
		<g>
			<g>
				<rect x="39.69" y="10.58" class="st7" width="1.08" height="1.96"/>
			</g>
		</g>
		<g>
			<g>
				<rect x="43.02" y="10.58" class="st7" width="1.08" height="1.96"/>
			</g>
		</g>
	</g>
	<g>
		<g>
			<path class="st1" d="M38.32,11.56c0-0.98,0.78-1.76,1.76-1.76h3.72c0.98,0,1.76,0.78,1.76,1.76s-0.78,1.76-1.76,1.76h-3.72
				C39,13.32,38.32,12.54,38.32,11.56z M45.08,11.56c0-0.69-0.59-1.27-1.37-1.27h-3.72c-0.69,0-1.37,0.59-1.37,1.27
				c0,0.69,0.59,1.27,1.37,1.27h3.72C44.49,12.93,45.08,12.34,45.08,11.56z"/>
		</g>
	</g>
</g>
<g>
	<g>
		<g>
			<g>
				<rect x="40.77" y="15.48" class="st9" width="2.16" height="1.96"/>
			</g>
		</g>
		<g>
			<g>
				<rect x="39.69" y="15.48" class="st7" width="1.08" height="1.96"/>
			</g>
		</g>
		<g>
			<g>
				<rect x="43.02" y="15.48" class="st7" width="1.08" height="1.96"/>
			</g>
		</g>
	</g>
	<g>
		<g>
			<path class="st1" d="M38.32,16.46c0-0.98,0.78-1.76,1.76-1.76h3.72c0.98,0,1.76,0.78,1.76,1.76s-0.78,1.76-1.76,1.76h-3.72
				C39,18.22,38.32,17.44,38.32,16.46z M45.08,16.46c0-0.69-0.59-1.27-1.37-1.27h-3.72c-0.69,0-1.37,0.59-1.37,1.27
				c0,0.69,0.59,1.27,1.37,1.27h3.72C44.49,17.83,45.08,17.24,45.08,16.46z"/>
		</g>
	</g>
</g>
<g>
	<g>
		<g>
			<g>
				<rect x="40.77" y="20.37" class="st9" width="2.16" height="1.96"/>
			</g>
		</g>
		<g>
			<g>
				<rect x="39.69" y="20.37" class="st7" width="1.08" height="1.96"/>
			</g>
		</g>
		<g>
			<g>
				<rect x="43.02" y="20.37" class="st7" width="1.08" height="1.96"/>
			</g>
		</g>
	</g>
	<g>
		<g>
			<path class="st1" d="M38.32,21.35c0-0.98,0.78-1.76,1.76-1.76h3.72c0.98,0,1.76,0.78,1.76,1.76s-0.78,1.76-1.76,1.76h-3.72
				C39,23.12,38.32,22.33,38.32,21.35z M45.08,21.35c0-0.69-0.59-1.27-1.37-1.27h-3.72c-0.69,0-1.37,0.59-1.37,1.27
				c0,0.69,0.59,1.27,1.37,1.27h3.72C44.49,22.73,45.08,22.14,45.08,21.35z"/>
		</g>
	</g>
</g>
<g>
	<g>
		<g>
			<g>
				<rect x="40.77" y="25.27" class="st9" width="2.16" height="1.96"/>
			</g>
		</g>
		<g>
			<g>
				<rect x="39.69" y="25.27" class="st7" width="1.08" height="1.96"/>
			</g>
		</g>
		<g>
			<g>
				<rect x="43.02" y="25.27" class="st7" width="1.08" height="1.96"/>
			</g>
		</g>
	</g>
	<g>
		<g>
			<path class="st1" d="M38.32,26.25c0-0.98,0.78-1.76,1.76-1.76h3.72c0.98,0,1.76,0.78,1.76,1.76s-0.78,1.76-1.76,1.76h-3.72
				C39,28.02,38.32,27.23,38.32,26.25z M45.08,26.25c0-0.69-0.59-1.27-1.37-1.27h-3.72c-0.69,0-1.37,0.59-1.37,1.27
				c0,0.69,0.59,1.27,1.37,1.27h3.72C44.49,27.62,45.08,27.04,45.08,26.25z"/>
		</g>
	</g>
</g>
<g>
	<g>
		<g>
			<g>
				<rect x="40.77" y="30.17" class="st9" width="2.16" height="1.96"/>
			</g>
		</g>
		<g>
			<g>
				<rect x="39.69" y="30.17" class="st7" width="1.08" height="1.96"/>
			</g>
		</g>
		<g>
			<g>
				<rect x="43.02" y="30.17" class="st7" width="1.08" height="1.96"/>
			</g>
		</g>
	</g>
	<g>
		<g>
			<path class="st1" d="M38.32,31.15c0-0.98,0.78-1.76,1.76-1.76h3.72c0.98,0,1.76,0.78,1.76,1.76c0,0.98-0.78,1.76-1.76,1.76h-3.72
				C39,32.91,38.32,32.13,38.32,31.15z M45.08,31.15c0-0.69-0.59-1.27-1.37-1.27h-3.72c-0.69,0-1.37,0.59-1.37,1.27
				c0,0.69,0.59,1.27,1.37,1.27h3.72C44.49,32.52,45.08,31.93,45.08,31.15z"/>
		</g>
	</g>
</g>
<g>
	<g>
		<g>
			<g>
				<rect x="40.77" y="35.17" class="st8" width="2.16" height="1.96"/>
			</g>
		</g>
		<g>
			<g>
				<rect x="39.69" y="35.17" class="st7" width="1.08" height="1.96"/>
			</g>
		</g>
		<g>
			<g>
				<rect x="43.02" y="35.17" class="st7" width="1.08" height="1.96"/>
			</g>
		</g>
	</g>
	<g>
		<g>
			<path class="st1" d="M38.32,37.81v-3.43h7.15v3.43H38.32z M38.71,34.77v2.64h6.37v-2.64H38.71z"/>
		</g>
	</g>
</g>
<g>
	<g>
		<g>
			<g>
				<rect x="61.95" y="22.45" class="st8" width="1.54" height="1.69"/>
			</g>
		</g>
		<g>
			<g>
				<rect x="61.95" y="21.6" class="st7" width="1.54" height="0.85"/>
			</g>
		</g>
		<g>
			<g>
				<rect x="61.95" y="24.21" class="st7" width="1.54" height="0.85"/>
			</g>
		</g>
	</g>
	<g>
		<g>
			<path class="st1" d="M61.41,20.52h2.69v5.61h-2.69V20.52z M63.8,20.83h-2.07v4.99h2.07V20.83z"/>
		</g>
	</g>
</g>
<g>
	<g>
		<g>
			<g>
				<rect x="25.46" y="19.84" class="st8" width="2.16" height="1.96"/>
			</g>
		</g>
		<g>
			<g>
				<rect x="24.38" y="19.84" class="st7" width="1.08" height="1.96"/>
			</g>
		</g>
		<g>
			<g>
				<rect x="27.71" y="19.84" class="st7" width="1.08" height="1.96"/>
			</g>
		</g>
	</g>
	<g>
		<g>
			<path class="st1" d="M23.01,22.48v-3.43h7.15v3.43H23.01z M23.4,19.44v2.64h6.37v-2.64H23.4z"/>
		</g>
	</g>
</g>
<g>
	<g>
		<g>
			<g>
				<rect x="25.5" y="13.12" class="st7" width="0.59" height="1.08"/>
			</g>
		</g>
		<g>
			<g>
				<rect x="28.83" y="13.12" class="st7" width="0.59" height="1.08"/>
			</g>
		</g>
		<g>
			<g>
				<rect x="25.79" y="12.69" class="st9" width="3.25" height="1.96"/>
			</g>
		</g>
	</g>
	<g>
		<g>
			<path class="st1" d="M23.88,15.33V11.9h7.15v3.43H23.88z M24.27,12.29v2.64h6.37v-2.64H24.27z"/>
		</g>
	</g>
</g>
<g>
	<g>
		<g>
			<g>
				<rect x="25.46" y="24.81" class="st8" width="2.16" height="1.96"/>
			</g>
		</g>
		<g>
			<g>
				<rect x="24.38" y="24.81" class="st7" width="1.08" height="1.96"/>
			</g>
		</g>
		<g>
			<g>
				<rect x="27.71" y="24.81" class="st7" width="1.08" height="1.96"/>
			</g>
		</g>
	</g>
	<g>
		<g>
			<path class="st1" d="M23.01,27.45v-3.43h7.15v3.43H23.01z M23.4,24.41v2.64h6.37v-2.64H23.4z"/>
		</g>
	</g>
</g>
<g>
	<g>
		<g>
			<g>
				<rect x="40.77" y="38.48" class="st8" width="2.16" height="1.96"/>
			</g>
		</g>
		<g>
			<g>
				<rect x="39.69" y="38.48" class="st7" width="1.08" height="1.96"/>
			</g>
		</g>
		<g>
			<g>
				<rect x="43.02" y="38.48" class="st7" width="1.08" height="1.96"/>
			</g>
		</g>
	</g>
	<g>
		<g>
			<path class="st1" d="M38.32,41.22v-3.43h7.15v3.43H38.32z M38.71,38.08v2.64h6.37v-2.64H38.71z"/>
		</g>
	</g>
</g>
<g>
	<g>
		<g>
			<g>
				<rect x="40.77" y="43.37" class="st9" width="2.16" height="1.96"/>
			</g>
		</g>
		<g>
			<g>
				<rect x="39.69" y="43.37" class="st7" width="1.08" height="1.96"/>
			</g>
		</g>
		<g>
			<g>
				<rect x="43.02" y="43.37" class="st7" width="1.08" height="1.96"/>
			</g>
		</g>
	</g>
	<g>
		<g>
			<path class="st1" d="M38.32,44.35c0-0.98,0.78-1.76,1.76-1.76h3.72c0.98,0,1.76,0.78,1.76,1.76s-0.78,1.76-1.76,1.76h-3.72
				C39,46.12,38.32,45.33,38.32,44.35z M45.08,44.35c0-0.69-0.59-1.27-1.37-1.27h-3.72c-0.69,0-1.37,0.59-1.37,1.27
				s0.59,1.27,1.37,1.27h3.72C44.49,45.73,45.08,45.14,45.08,44.35z"/>
		</g>
	</g>
</g>
<g>
	<g>
		<g>
			<g>
				<rect x="40.77" y="48.17" class="st9" width="2.16" height="1.96"/>
			</g>
		</g>
		<g>
			<g>
				<rect x="39.69" y="48.17" class="st7" width="1.08" height="1.96"/>
			</g>
		</g>
		<g>
			<g>
				<rect x="43.02" y="48.17" class="st7" width="1.08" height="1.96"/>
			</g>
		</g>
	</g>
	<g>
		<g>
			<path class="st1" d="M38.32,49.15c0-0.98,0.78-1.76,1.76-1.76h3.72c0.98,0,1.76,0.78,1.76,1.76s-0.78,1.76-1.76,1.76h-3.72
				C39,50.92,38.32,50.13,38.32,49.15z M45.08,49.15c0-0.69-0.59-1.27-1.37-1.27h-3.72c-0.69,0-1.37,0.59-1.37,1.27
				c0,0.69,0.59,1.27,1.37,1.27h3.72C44.49,50.52,45.08,49.94,45.08,49.15z"/>
		</g>
	</g>
</g>
<g>
	<g>
		<g>
			<g>
				<rect x="40.77" y="53.07" class="st9" width="2.16" height="1.96"/>
			</g>
		</g>
		<g>
			<g>
				<rect x="39.69" y="53.07" class="st7" width="1.08" height="1.96"/>
			</g>
		</g>
		<g>
			<g>
				<rect x="43.02" y="53.07" class="st7" width="1.08" height="1.96"/>
			</g>
		</g>
	</g>
	<g>
		<g>
			<path class="st1" d="M38.32,54.05c0-0.98,0.78-1.76,1.76-1.76h3.72c0.98,0,1.76,0.78,1.76,1.76s-0.78,1.76-1.76,1.76h-3.72
				C39,55.81,38.32,55.03,38.32,54.05z M45.08,54.05c0-0.69-0.59-1.27-1.37-1.27h-3.72c-0.69,0-1.37,0.59-1.37,1.27
				s0.59,1.27,1.37,1.27h3.72C44.49,55.42,45.08,54.74,45.08,54.05z"/>
		</g>
	</g>
</g>
<g>
	<g>
		<g>
			<g>
				<rect x="40.77" y="57.87" class="st9" width="2.16" height="1.96"/>
			</g>
		</g>
		<g>
			<g>
				<rect x="39.69" y="57.87" class="st7" width="1.08" height="1.96"/>
			</g>
		</g>
		<g>
			<g>
				<rect x="43.02" y="57.87" class="st7" width="1.08" height="1.96"/>
			</g>
		</g>
	</g>
	<g>
		<g>
			<path class="st1" d="M38.32,58.85c0-0.98,0.78-1.76,1.76-1.76h3.72c0.98,0,1.76,0.78,1.76,1.76s-0.78,1.76-1.76,1.76h-3.72
				C39,60.61,38.32,59.83,38.32,58.85z M45.08,58.85c0-0.69-0.59-1.37-1.37-1.37h-3.72c-0.69,0-1.37,0.59-1.37,1.37
				c0,0.78,0.59,1.37,1.37,1.37h3.72C44.49,60.22,45.08,59.63,45.08,58.85z"/>
		</g>
	</g>
</g>
<g>
	<path class="st0" d="M114.37,11.95c0,0.69-0.57,1.27-1.24,1.27c-0.67,0-1.24-0.59-1.24-1.27h-3.16c0,0.69-0.57,1.27-1.24,1.27
		c-0.77,0-1.24-0.59-1.24-1.27h-3.25c0,0.69-0.57,1.27-1.24,1.27c-0.67,0-1.24-0.59-1.24-1.27H91.6c0,0.69-0.57,1.27-1.24,1.27
		s-1.24-0.59-1.24-1.27h-3.16c0,0.69-0.57,1.27-1.24,1.27c-0.67,0-1.24-0.59-1.24-1.27h-3.16c0,0.69-0.57,1.27-1.24,1.27
		c-0.77,0-1.24-0.59-1.24-1.27h-3.25c0,0.69-0.57,1.27-1.24,1.27s-1.24-0.59-1.24-1.27h-4.02v47.8h68.77v-47.8H114.37z M72.09,59.66
		c0-0.69,0.57-1.27,1.24-1.27c0.67,0,1.24,0.59,1.24,1.27H72.09z M77.83,59.66c0-0.69,0.57-1.27,1.24-1.27
		c0.67,0,1.24,0.59,1.24,1.27H77.83z M83.47,59.66c0-0.69,0.57-1.27,1.24-1.27c0.67,0,1.24,0.59,1.24,1.27H83.47z M89.12,59.66
		c0-0.69,0.57-1.27,1.24-1.27c0.77,0,1.24,0.59,1.24,1.27H89.12z M94.85,59.66c0-0.69,0.57-1.27,1.24-1.27s1.24,0.59,1.24,1.27
		H94.85z M96.1,13.22c-0.67,0-1.24-0.59-1.24-1.27h2.49C97.34,12.64,96.77,13.22,96.1,13.22z M100.5,59.66
		c0-0.69,0.57-1.27,1.24-1.27c0.67,0,1.24,0.59,1.24,1.27H100.5z M106.24,59.66c0-0.69,0.57-1.27,1.24-1.27
		c0.67,0,1.24,0.59,1.24,1.27H106.24z M111.88,59.66c0-0.69,0.57-1.27,1.24-1.27c0.67,0,1.24,0.59,1.24,1.27H111.88z"/>
	<g>
		<g>
			<g>
				<path class="st10" d="M75.15,11.95h-0.57c0,0.69-0.57,1.27-1.24,1.27c-0.67,0-1.24-0.59-1.24-1.27h-0.57v5.39h3.63L75.15,11.95
					L75.15,11.95z"/>
			</g>
		</g>
		<g>
			<g>
				<ellipse class="st11" cx="73.34" cy="15.67" rx="0.67" ry="0.69"/>
			</g>
			<g>
				<path class="st12" d="M72.48,15.67c0-0.49,0.38-0.88,0.86-0.88c0.48,0,0.86,0.39,0.86,0.88c0,0.49-0.38,0.88-0.86,0.88
					C72.86,16.55,72.48,16.16,72.48,15.67z M73.81,15.67c0-0.29-0.19-0.49-0.48-0.49c-0.29,0-0.48,0.2-0.48,0.49
					c0,0.29,0.19,0.49,0.48,0.49C73.62,16.16,73.81,15.87,73.81,15.67z"/>
			</g>
		</g>
	</g>
	<g>
		<g>
			<path class="st10" d="M117.52,43.98V23.9c0-0.59,0.48-0.98,0.96-0.98c0.57,0,0.96,0.49,0.96,0.98v20.08
				c0,0.59-0.48,0.98-0.96,0.98S117.52,44.57,117.52,43.98z"/>
		</g>
	</g>
	<g>
		<g>
			<path class="st10" d="M115.7,23.9c0-0.59,0.48-0.98,0.96-0.98h18.55v5.49H124.6v1.08h10.62v5.49H124.6v1.27h10.62v5.39H124.6
				v1.27h10.62v12.44c0,0.59-0.48,0.98-0.96,0.98c-0.48,0-0.96-0.49-0.96-0.98V45.06h-10.62v-5.39h10.62V38.4h-10.62v-5.39h10.62
				v-1.47h-10.62v-5.09h10.62v-1.37h-16.64C116.18,24.98,115.7,24.49,115.7,23.9z"/>
		</g>
	</g>
	<g>
		<g>
			<g>
				<path class="st10" d="M114.94,11.95h-0.57c0,0.69-0.57,1.27-1.24,1.27c-0.67,0-1.24-0.59-1.24-1.27h-0.57v5.39h3.63
					L114.94,11.95L114.94,11.95z"/>
			</g>
		</g>
		<g>
			<g>
				<ellipse class="st11" cx="113.12" cy="15.67" rx="0.67" ry="0.69"/>
			</g>
			<g>
				<path class="st12" d="M112.26,15.67c0-0.49,0.38-0.88,0.86-0.88c0.48,0,0.86,0.39,0.86,0.88s-0.38,0.88-0.86,0.88
					C112.64,16.55,112.26,16.16,112.26,15.67z M113.6,15.67c0-0.29-0.19-0.49-0.48-0.49c-0.29,0-0.48,0.2-0.48,0.49
					c0,0.29,0.19,0.49,0.48,0.49C113.41,16.16,113.6,15.87,113.6,15.67z"/>
			</g>
		</g>
	</g>
	<g>
		<g>
			<g>
				<path class="st10" d="M109.2,11.95h-0.57c0,0.69-0.57,1.27-1.24,1.27s-1.24-0.59-1.24-1.27h-0.57v5.39h3.63L109.2,11.95
					L109.2,11.95z"/>
			</g>
		</g>
		<g>
			<g>
				<ellipse class="st11" cx="107.48" cy="15.67" rx="0.67" ry="0.69"/>
			</g>
			<g>
				<path class="st12" d="M106.52,15.67c0-0.49,0.38-0.88,0.86-0.88c0.48,0,0.86,0.39,0.86,0.88s-0.38,0.88-0.86,0.88
					C107,16.55,106.52,16.16,106.52,15.67z M107.96,15.67c0-0.29-0.19-0.49-0.48-0.49c-0.29,0-0.48,0.2-0.48,0.49
					c0,0.29,0.19,0.49,0.48,0.49C107.67,16.16,107.96,15.87,107.96,15.67z"/>
			</g>
		</g>
	</g>
	<g>
		<g>
			<g>
				<path class="st10" d="M103.56,11.95h-0.57c0,0.69-0.57,1.27-1.24,1.27c-0.67,0-1.24-0.59-1.24-1.27h-0.57v5.39l3.63,0
					L103.56,11.95L103.56,11.95z"/>
			</g>
		</g>
		<g>
			<g>
				<ellipse class="st11" cx="101.74" cy="15.67" rx="0.67" ry="0.69"/>
			</g>
			<g>
				<path class="st12" d="M100.88,15.67c0-0.49,0.38-0.88,0.86-0.88c0.48,0,0.86,0.39,0.86,0.88c0,0.49-0.38,0.88-0.86,0.88
					C101.26,16.55,100.88,16.16,100.88,15.67z M102.22,15.67c0-0.29-0.19-0.49-0.48-0.49c-0.29,0-0.48,0.2-0.48,0.49
					s0.19,0.49,0.48,0.49C102.03,16.16,102.22,15.87,102.22,15.67z"/>
			</g>
		</g>
	</g>
	<g>
		<g>
			<g>
				<path class="st10" d="M97.92,11.95l-0.57,0c0,0.69-0.57,1.27-1.24,1.27c-0.67,0-1.24-0.59-1.24-1.27h-0.57v5.39l3.63,0
					L97.92,11.95L97.92,11.95z"/>
			</g>
		</g>
		<g>
			<g>
				<ellipse class="st11" cx="96.1" cy="15.67" rx="0.67" ry="0.69"/>
			</g>
			<g>
				<path class="st12" d="M95.24,15.67c0-0.49,0.38-0.88,0.86-0.88c0.48,0,0.86,0.39,0.86,0.88c0,0.49-0.38,0.88-0.86,0.88
					C95.62,16.55,95.24,16.16,95.24,15.67z M96.58,15.67c0-0.29-0.19-0.49-0.48-0.49s-0.48,0.2-0.48,0.49s0.19,0.49,0.48,0.49
					C96.39,16.16,96.58,15.87,96.58,15.67z"/>
			</g>
		</g>
	</g>
	<g>
		<g>
			<g>
				<path class="st10" d="M92.18,11.95H91.6c0,0.69-0.57,1.27-1.24,1.27c-0.67,0-1.24-0.59-1.24-1.27h-0.57v5.39h3.63L92.18,11.95
					L92.18,11.95z"/>
			</g>
		</g>
		<g>
			<g>
				<ellipse class="st11" cx="90.36" cy="15.67" rx="0.67" ry="0.69"/>
			</g>
			<g>
				<path class="st12" d="M89.5,15.67c0-0.49,0.38-0.88,0.86-0.88c0.48,0,0.86,0.39,0.86,0.88s-0.38,0.88-0.86,0.88
					C89.88,16.55,89.5,16.16,89.5,15.67z M90.93,15.67c0-0.29-0.19-0.49-0.48-0.49s-0.48,0.2-0.48,0.49c0,0.29,0.19,0.49,0.48,0.49
					S90.93,15.87,90.93,15.67z"/>
			</g>
		</g>
	</g>
	<g>
		<g>
			<g>
				<path class="st10" d="M86.53,11.95h-0.57c0,0.69-0.57,1.27-1.24,1.27c-0.67,0-1.24-0.59-1.24-1.27l-0.57,0v5.39l3.63,0
					L86.53,11.95L86.53,11.95z"/>
			</g>
		</g>
		<g>
			<g>
				<ellipse class="st11" cx="84.72" cy="15.67" rx="0.67" ry="0.69"/>
			</g>
			<g>
				<path class="st12" d="M83.86,15.67c0-0.49,0.38-0.88,0.86-0.88c0.48,0,0.86,0.39,0.86,0.88s-0.38,0.88-0.86,0.88
					C84.24,16.55,83.86,16.16,83.86,15.67z M85.2,15.67c0-0.29-0.19-0.49-0.48-0.49c-0.29,0-0.48,0.2-0.48,0.49s0.19,0.49,0.48,0.49
					C85,16.16,85.2,15.87,85.2,15.67z"/>
			</g>
		</g>
	</g>
	<g>
		<g>
			<g>
				<path class="st10" d="M80.8,11.95h-0.57c0,0.69-0.57,1.27-1.24,1.27s-1.24-0.59-1.24-1.27h-0.57v5.39h3.63L80.8,11.95
					L80.8,11.95z"/>
			</g>
		</g>
		<g>
			<g>
				<ellipse class="st11" cx="79.07" cy="15.67" rx="0.67" ry="0.69"/>
			</g>
			<g>
				<path class="st12" d="M78.12,15.67c0-0.49,0.38-0.88,0.86-0.88s0.86,0.39,0.86,0.88s-0.38,0.88-0.86,0.88
					C78.5,16.55,78.12,16.16,78.12,15.67z M79.55,15.67c0-0.29-0.19-0.49-0.48-0.49c-0.29,0-0.48,0.2-0.48,0.49
					c0,0.29,0.19,0.49,0.48,0.49C79.36,16.16,79.55,15.87,79.55,15.67z"/>
			</g>
		</g>
	</g>
	<g>
		<g>
			<g>
				<path class="st10" d="M71.52,59.66h0.57c0-0.69,0.57-1.27,1.24-1.27s1.24,0.59,1.24,1.27h0.57v-5.39h-3.63L71.52,59.66
					L71.52,59.66z"/>
			</g>
		</g>
		<g>
			<g>
				<ellipse class="st11" cx="73.34" cy="56.03" rx="0.67" ry="0.69"/>
			</g>
			<g>
				<path class="st12" d="M72.48,56.03c0-0.49,0.38-0.88,0.86-0.88s0.86,0.39,0.86,0.88s-0.38,0.88-0.86,0.88
					C72.86,56.91,72.48,56.52,72.48,56.03z M73.81,56.03c0-0.29-0.19-0.49-0.48-0.49c-0.29,0-0.48,0.2-0.48,0.49
					c0,0.29,0.19,0.49,0.48,0.49C73.62,56.52,73.81,56.23,73.81,56.03z"/>
			</g>
		</g>
	</g>
	<g>
		<g>
			<g>
				<path class="st10" d="M77.26,59.66h0.57c0-0.69,0.57-1.27,1.24-1.27c0.67,0,1.24,0.59,1.24,1.27h0.57v-5.39h-3.63L77.26,59.66
					L77.26,59.66z"/>
			</g>
		</g>
		<g>
			<g>
				<ellipse class="st11" cx="79.07" cy="56.03" rx="0.67" ry="0.69"/>
			</g>
			<g>
				<path class="st12" d="M78.12,56.03c0-0.49,0.38-0.88,0.86-0.88s0.86,0.39,0.86,0.88s-0.38,0.88-0.86,0.88
					C78.5,56.91,78.12,56.52,78.12,56.03z M79.55,56.03c0-0.29-0.19-0.49-0.48-0.49c-0.29,0-0.48,0.2-0.48,0.49
					c0,0.29,0.19,0.49,0.48,0.49C79.36,56.52,79.55,56.23,79.55,56.03z"/>
			</g>
		</g>
	</g>
	<g>
		<g>
			<g>
				<path class="st10" d="M82.9,59.66h0.57c0-0.69,0.57-1.27,1.24-1.27c0.67,0,1.24,0.59,1.24,1.27h0.57v-5.39H82.9L82.9,59.66
					L82.9,59.66z"/>
			</g>
		</g>
		<g>
			<g>
				<ellipse class="st11" cx="84.72" cy="56.03" rx="0.67" ry="0.69"/>
			</g>
			<g>
				<path class="st12" d="M83.86,56.03c0-0.49,0.38-0.88,0.86-0.88c0.48,0,0.86,0.39,0.86,0.88s-0.38,0.88-0.86,0.88
					C84.24,56.91,83.86,56.52,83.86,56.03z M85.2,56.03c0-0.29-0.19-0.49-0.48-0.49c-0.29,0-0.48,0.2-0.48,0.49
					c0,0.29,0.19,0.49,0.48,0.49C85,56.52,85.2,56.23,85.2,56.03z"/>
			</g>
		</g>
	</g>
	<g>
		<g>
			<g>
				<path class="st10" d="M88.64,59.66h0.57c0-0.69,0.57-1.27,1.24-1.27s1.24,0.59,1.24,1.27h0.57v-5.39h-3.63L88.64,59.66
					L88.64,59.66z"/>
			</g>
		</g>
		<g>
			<g>
				<ellipse class="st11" cx="90.36" cy="56.03" rx="0.67" ry="0.69"/>
			</g>
			<g>
				<path class="st12" d="M89.5,56.03c0-0.49,0.38-0.88,0.86-0.88c0.48,0,0.86,0.39,0.86,0.88s-0.38,0.88-0.86,0.88
					C89.88,56.91,89.5,56.52,89.5,56.03z M90.93,56.03c0-0.29-0.19-0.49-0.48-0.49s-0.48,0.2-0.48,0.49c0,0.29,0.19,0.49,0.48,0.49
					S90.93,56.23,90.93,56.03z"/>
			</g>
		</g>
	</g>
	<g>
		<g>
			<g>
				<path class="st10" d="M94.28,59.66h0.57c0-0.69,0.57-1.27,1.24-1.27s1.24,0.59,1.24,1.27h0.57v-5.39h-3.63L94.28,59.66
					L94.28,59.66z"/>
			</g>
		</g>
		<g>
			<g>
				<ellipse class="st11" cx="96.1" cy="56.03" rx="0.67" ry="0.69"/>
			</g>
			<g>
				<path class="st12" d="M95.24,56.03c0-0.49,0.38-0.88,0.86-0.88s0.86,0.39,0.86,0.88s-0.38,0.88-0.86,0.88
					S95.24,56.52,95.24,56.03z M96.58,56.03c0-0.29-0.19-0.49-0.48-0.49s-0.48,0.2-0.48,0.49c0,0.29,0.19,0.49,0.48,0.49
					S96.58,56.23,96.58,56.03z"/>
			</g>
		</g>
	</g>
	<g>
		<g>
			<g>
				<path class="st10" d="M100.02,59.66h0.57c0-0.69,0.57-1.27,1.24-1.27c0.67,0,1.24,0.59,1.24,1.27h0.57v-5.39h-3.63L100.02,59.66
					L100.02,59.66z"/>
			</g>
		</g>
		<g>
			<g>
				<ellipse class="st11" cx="101.74" cy="56.03" rx="0.67" ry="0.69"/>
			</g>
			<g>
				<path class="st12" d="M100.88,56.03c0-0.49,0.38-0.88,0.86-0.88s0.86,0.39,0.86,0.88s-0.38,0.88-0.86,0.88
					C101.26,56.91,100.88,56.52,100.88,56.03z M102.22,56.03c0-0.29-0.19-0.49-0.48-0.49c-0.29,0-0.48,0.2-0.48,0.49
					c0,0.29,0.19,0.49,0.48,0.49C102.03,56.52,102.22,56.23,102.22,56.03z"/>
			</g>
		</g>
	</g>
	<g>
		<g>
			<g>
				<path class="st10" d="M105.66,59.66h0.57c0-0.69,0.57-1.27,1.24-1.27c0.67,0,1.24,0.59,1.24,1.27h0.57v-5.39h-3.63L105.66,59.66
					L105.66,59.66z"/>
			</g>
		</g>
		<g>
			<g>
				<ellipse class="st11" cx="107.48" cy="56.03" rx="0.67" ry="0.69"/>
			</g>
			<g>
				<path class="st12" d="M106.52,56.03c0-0.49,0.38-0.88,0.86-0.88c0.48,0,0.86,0.39,0.86,0.88s-0.38,0.88-0.86,0.88
					C107,56.91,106.52,56.52,106.52,56.03z M107.96,56.03c0-0.29-0.19-0.49-0.48-0.49c-0.29,0-0.48,0.2-0.48,0.49
					c0,0.29,0.19,0.49,0.48,0.49C107.67,56.52,107.96,56.23,107.96,56.03z"/>
			</g>
		</g>
	</g>
	<g>
		<g>
			<g>
				<g>
					<path class="st10" d="M111.31,59.66h0.57c0-0.69,0.57-1.27,1.24-1.27c0.67,0,1.24,0.59,1.24,1.27h0.57v-5.39h-3.63
						L111.31,59.66L111.31,59.66z"/>
				</g>
			</g>
		</g>
		<g>
			<g>
				<ellipse class="st11" cx="113.12" cy="56.03" rx="0.67" ry="0.69"/>
			</g>
			<g>
				<path class="st12" d="M112.26,56.03c0-0.49,0.38-0.88,0.86-0.88c0.48,0,0.86,0.39,0.86,0.88s-0.38,0.88-0.86,0.88
					C112.64,56.91,112.26,56.52,112.26,56.03z M113.6,56.03c0-0.29-0.19-0.49-0.48-0.49c-0.29,0-0.48,0.2-0.48,0.49
					c0,0.29,0.19,0.49,0.48,0.49C113.41,56.52,113.6,56.23,113.6,56.03z"/>
			</g>
		</g>
	</g>
	<g>
		<g>
			<g>
				<path class="st13" d="M72.09,48.49v-23.8c0-2.84,2.2-5.09,4.97-5.09h33.19c2.77,0,4.97,2.25,4.97,5.09v23.71
					c0,2.84-2.2,5.09-4.97,5.09H77.07C74.29,53.48,72.09,51.23,72.09,48.49z"/>
			</g>
		</g>
		<g>
			<g>
				<path class="st14" d="M72.76,48.88V24.29c0-2.16,1.72-3.92,3.83-3.92h34.14c2.1,0,3.83,1.76,3.83,3.92v24.68
					c0,2.16-1.72,3.92-3.83,3.92H76.59C74.48,52.8,72.76,51.13,72.76,48.88z"/>
			</g>
		</g>
	</g>
	<g>
		<g>
			<g>
				<g>
					<rect x="68.17" y="20.08" class="st10" width="2.01" height="3.43"/>
				</g>
			</g>
			<g>
				<g>
					<path class="st12" d="M68.08,23.02c0.67,0,1.15-0.59,1.15-1.18c0-0.59-0.57-1.18-1.15-1.18V23.02z"/>
				</g>
			</g>
		</g>
		<g>
			<g>
				<g>
					<rect x="68.17" y="25.96" class="st10" width="2.01" height="3.43"/>
				</g>
			</g>
			<g>
				<g>
					<path class="st12" d="M68.08,28.9c0.67,0,1.15-0.59,1.15-1.18c0-0.59-0.57-1.18-1.15-1.18V28.9z"/>
				</g>
			</g>
		</g>
		<g>
			<g>
				<g>
					<rect x="68.17" y="31.84" class="st10" width="2.01" height="3.43"/>
				</g>
			</g>
			<g>
				<g>
					<path class="st12" d="M68.08,34.68c0.67,0,1.15-0.59,1.15-1.18s-0.57-1.18-1.15-1.18V34.68z"/>
				</g>
			</g>
		</g>
		<g>
			<g>
				<g>
					<rect x="68.17" y="37.62" class="st10" width="2.01" height="3.43"/>
				</g>
			</g>
			<g>
				<g>
					<path class="st12" d="M68.08,40.55c0.67,0,1.15-0.59,1.15-1.18c0-0.59-0.57-1.18-1.15-1.18V40.55z"/>
				</g>
			</g>
		</g>
		<g>
			<g>
				<g>
					<rect x="68.17" y="43.49" class="st10" width="2.01" height="3.43"/>
				</g>
			</g>
			<g>
				<g>
					<path class="st12" d="M68.08,46.43c0.67,0,1.15-0.59,1.15-1.18s-0.57-1.18-1.15-1.18V46.43z"/>
				</g>
			</g>
		</g>
		<g>
			<g>
				<g>
					<rect x="68.17" y="49.37" class="st10" width="2.01" height="3.43"/>
				</g>
			</g>
			<g>
				<g>
					<path class="st12" d="M68.08,52.31c0.67,0,1.15-0.59,1.15-1.18s-0.57-1.18-1.15-1.18V52.31z"/>
				</g>
			</g>
		</g>
	</g>
</g>
<g>
	<g>
		<path class="st1" d="M13.6,39.67c0-0.49-0.39-0.88-0.88-0.88s-0.88,0.39-0.88,0.88v1.37h-0.69V28.7h0.69v1.37
			c0,0.49,0.39,0.88,0.88,0.88s0.88-0.39,0.88-0.88v-3.13c0-0.69-0.59-1.27-1.27-1.27h-1.37H2.53v18.42h8.42h1.47
			c0.69,0,1.27-0.59,1.27-1.27v-3.13H13.6z"/>
	</g>
	<g>
		<rect x="0.67" y="26.94" class="st2" width="1.08" height="15.97"/>
	</g>
	<g>
		<rect x="10.95" y="31.93" class="st1" width="3.23" height="5.98"/>
	</g>
	<g>
		<polygon class="st15" points="2.62,44.08 2.62,44.08 2.62,25.76 1.94,25.08 1.35,25.57 1.74,26.06 1.74,43.79 1.35,44.28 
			1.94,44.77 		"/>
	</g>
	<g>
		<path class="st2" d="M5.17,30.07v-0.49h2.74c0.2,0,0.39-0.2,0.39-0.39v-0.88c0-0.2-0.2-0.39-0.39-0.39H5.17v-0.49
			c0-0.2-0.2-0.39-0.39-0.39c-0.2,0-0.39,0.2-0.39,0.39v2.55c0,0.2,0.2,0.39,0.39,0.39C4.98,30.46,5.17,30.27,5.17,30.07z"/>
	</g>
	<g>
		<rect x="6.05" y="28.21" class="st16" width="0.59" height="1.18"/>
	</g>
	<g>
		<rect x="11.05" y="34.28" class="st16" width="0.59" height="1.18"/>
	</g>
	<g>
		<polygon class="st16" points="3.51,29.48 3.51,28.11 4.39,28.11 4.39,28.11 3.6,28.11 3.6,29.48 4.39,29.48 4.39,29.48 		"/>
	</g>
	<g>
		<path class="st2" d="M5.17,42.22v-0.49h2.74c0.2,0,0.39-0.2,0.39-0.39v-0.88c0-0.2-0.2-0.39-0.39-0.39H5.17v-0.49
			c0-0.2-0.2-0.39-0.39-0.39c-0.2,0-0.39,0.2-0.39,0.39v2.55c0,0.2,0.2,0.39,0.39,0.39C4.98,42.61,5.17,42.41,5.17,42.22z"/>
	</g>
	<g>
		<rect x="6.05" y="40.26" class="st16" width="0.59" height="1.18"/>
	</g>
	<g>
		<polygon class="st16" points="3.51,41.63 3.51,40.16 4.39,40.16 4.39,40.16 3.6,40.16 3.6,41.63 4.39,41.63 4.39,41.63 		"/>
	</g>
</g>
<g>
	<title>text:RX0</title>
	<g transform="matrix(1, 0, 0, 1, 9.216, 20.88)">
		<g transform="rotate(270)">
			<text transform="matrix(0 1 -1 0 12.0864 107.9624)" class="st1 st17 st18">A0</text>
		</g>
	</g>
</g>
<g>
	<title>text:RST</title>
	<g transform="matrix(1, 0, 0, 1, 9.216, 28.008)">
		<g transform="rotate(270)">
			<text transform="matrix(0 1 -1 0 19.2144 99.8335)" class="st1 st17 st18">RSV</text>
		</g>
	</g>
</g>
<g>
	<title>text:GND</title>
	<g transform="matrix(1, 0, 0, 1, 9.216, 35.208)">
		<g transform="rotate(270)">
			<text transform="matrix(0 1 -1 0 26.4144 92.6343)" class="st1 st17 st18">RSV</text>
		</g>
	</g>
</g>
<g>
	<title>text:D2</title>
	<g transform="matrix(1, 0, 0, 1, 9.216, 41.544)">
		<g transform="rotate(270)">
			<text transform="matrix(0 1 -1 0 32.7504 85.2984)" class="st1 st17 st18">SD3</text>
		</g>
	</g>
</g>
<g>
	<title>text:D3</title>
	<g transform="matrix(1, 0, 0, 1, 9.216, 48.6)">
		<g transform="rotate(270)">
			<text transform="matrix(0 1 -1 0 39.8064 78.2417)" class="st1 st17 st18">SD2</text>
		</g>
	</g>
</g>
<g>
	<title>text:D4</title>
	<g transform="matrix(1, 0, 0, 1, 9.216, 55.872)">
		<g transform="rotate(270)">
			<text transform="matrix(0 1 -1 0 47.0784 70.9702)" class="st1 st17 st18">SD1</text>
		</g>
	</g>
</g>
<g>
	<title>text:D5</title>
	<g transform="matrix(1, 0, 0, 1, 9.216, 62.928)">
		<g transform="rotate(270)">
			<text transform="matrix(0 1 -1 0 54.1344 63.9136)" class="st1 st17 st18">CMD</text>
		</g>
	</g>
</g>
<g>
	<title>text:D6</title>
	<g transform="matrix(1, 0, 0, 1, 9.216, 70.272)">
		<g transform="rotate(270)">
			<text transform="matrix(0 1 -1 0 61.4784 56.5698)" class="st1 st17 st18">SD0</text>
		</g>
	</g>
</g>
<g>
	<title>text:D6</title>
	<g transform="matrix(1, 0, 0, 1, 9.216, 70.272)">
		<g transform="rotate(270)">
			<text transform="matrix(0 1 -1 0 61.4782 49.5946)" class="st1 st17 st18">CLK</text>
		</g>
	</g>
</g>
<g>
	<title>text:D7</title>
	<g transform="matrix(1, 0, 0, 1, 9.216, 77.544)">
		<g transform="rotate(270)">
			<text transform="matrix(0 1 -1 0 68.7504 42.2984)" class="st1 st17 st18">GND</text>
		</g>
	</g>
</g>
<g>
	<title>text:D8</title>
	<g transform="matrix(1, 0, 0, 1, 9.216, 84.6)">
		<g transform="rotate(270)">
			<text transform="matrix(0 1 -1 0 75.8064 35.2417)" class="st1 st17 st18">3V3</text>
		</g>
	</g>
</g>
<g>
	<title>text:D9</title>
	<g transform="matrix(1, 0, 0, 1, 9.216, 91.872)">
		<g transform="rotate(270)">
			<text transform="matrix(0 1 -1 0 83.0784 28.9702)" class="st1 st17 st18">EN</text>
		</g>
	</g>
</g>
<g>
	<title>text:D10</title>
	<g transform="matrix(1, 0, 0, 1, 9.216, 100.224)">
		<g transform="rotate(270)">
			<text transform="matrix(0 1 -1 0 91.4304 20.6167)" class="st1 st17 st18">RST</text>
		</g>
	</g>
</g>
<g>
	<title>text:D11</title>
	<g transform="matrix(1, 0, 0, 1, 9.216, 107.352)">
		<g transform="rotate(270)">
			<text transform="matrix(0 1 -1 0 98.5584 13.4898)" class="st1 st17 st18">GND</text>
		</g>
	</g>
</g>
<g>
	<title>text:D12</title>
	<g transform="matrix(1, 0, 0, 1, 9.216, 114.552)">
		<g transform="rotate(270)">
			<text transform="matrix(0 1 -1 0 105.7584 7.2886)" class="st1 st17 st18">Vin</text>
		</g>
	</g>
</g>
<g>
	<title>text:D12</title>
	<g transform="matrix(1, 0, 0, 1, 9.216, 114.552)">
		<g transform="rotate(270)">
			<text transform="matrix(-1 0 0 -1 98.8606 6.7195)" class="st1 st17 st18">RST</text>
		</g>
	</g>
	<g transform="matrix(1, 0, 0, 1, 9.216, 114.552)">
		<g transform="rotate(270)">
			<text transform="matrix(-1 0 0 -1 65.7128 6.7195)" class="st1 st17 st18">FLASH</text>
		</g>
	</g>
</g>
<circle id="connector16pin" class="st19" cx="118.95" cy="3.6" r="1.9"/>
<rect x="117.05" y="1.7" class="st19" width="3.8" height="3.8"/>
<circle id="connector17pin" class="st19" cx="111.75" cy="3.6" r="1.9"/>
<circle id="connector18pin" class="st19" cx="104.55" cy="3.6" r="1.9"/>
<circle id="connector19pin" class="st19" cx="97.35" cy="3.6" r="1.9"/>
<circle id="connector20pin" class="st19" cx="90.15" cy="3.6" r="1.9"/>
<circle id="connector21pin" class="st19" cx="82.95" cy="3.6" r="1.9"/>
<circle id="connector22pin" class="st19" cx="75.75" cy="3.6" r="1.9"/>
<circle id="connector23pin" class="st19" cx="68.55" cy="3.6" r="1.9"/>
<circle id="connector24pin" class="st19" cx="61.35" cy="3.6" r="1.9"/>
<circle id="connector25pin" class="st19" cx="54.15" cy="3.6" r="1.9"/>
<circle id="connector26pin" class="st19" cx="46.95" cy="3.6" r="1.9"/>
<circle id="connector27pin" class="st19" cx="39.75" cy="3.6" r="1.9"/>
<circle id="connector28pin" class="st19" cx="32.55" cy="3.6" r="1.9"/>
<circle id="connector29pin" class="st19" cx="25.35" cy="3.6" r="1.9"/>
<circle id="connector30pin" class="st19" cx="18.15" cy="3.6" r="1.9"/>
<g>
	<circle class="st20" cx="18.15" cy="3.6" r="1.9"/>
	<path class="st21" d="M17.75,5.5c1,0,1.9-0.8,1.9-1.9s-0.8-1.9-1.9-1.9h0.3c1,0,1.9,0.8,1.9,1.9s-0.8,1.9-1.9,1.9H17.75z"/>
	<path class="st22" d="M18.45,1.7c-1,0-1.9,0.8-1.9,1.9s0.9,1.9,1.9,1.9h-0.3c-1,0-1.9-0.8-1.9-1.9s0.8-1.9,1.9-1.9
		C18.15,1.7,18.45,1.7,18.45,1.7z"/>
	<g>
		<rect x="17.35" y="2.8" class="st23" width="1.6" height="1.6"/>
		<rect x="18.75" y="2.8" class="st21" width="0.1" height="1.6"/>
		<rect x="17.35" y="2.8" class="st24" width="0.1" height="1.6"/>
	</g>
</g>
<g>
	<circle class="st20" cx="25.35" cy="3.6" r="1.9"/>
	<path class="st21" d="M24.95,5.5c1,0,1.9-0.8,1.9-1.9s-0.8-1.9-1.9-1.9h0.3c1,0,1.9,0.8,1.9,1.9s-0.8,1.9-1.9,1.9H24.95z"/>
	<path class="st22" d="M25.65,1.7c-1,0-1.9,0.8-1.9,1.9s0.8,1.9,1.9,1.9h-0.3c-1,0-1.9-0.8-1.9-1.9s0.8-1.9,1.9-1.9
		C25.35,1.7,25.65,1.7,25.65,1.7z"/>
	<g>
		<rect x="24.55" y="2.8" class="st23" width="1.6" height="1.6"/>
		<rect x="25.95" y="2.8" class="st21" width="0.1" height="1.6"/>
		<rect x="24.55" y="2.8" class="st24" width="0.1" height="1.6"/>
	</g>
</g>
<g>
	<circle class="st20" cx="32.55" cy="3.6" r="1.9"/>
	<path class="st21" d="M32.15,5.5c1,0,1.9-0.8,1.9-1.9s-0.8-1.9-1.9-1.9h0.3c1,0,1.9,0.8,1.9,1.9s-0.8,1.9-1.9,1.9
		C32.55,5.5,32.15,5.5,32.15,5.5z"/>
	<path class="st22" d="M32.85,1.7c-1,0-1.9,0.8-1.9,1.9s0.8,1.9,1.9,1.9h-0.3c-1,0-1.9-0.8-1.9-1.9s0.8-1.9,1.9-1.9
		C32.55,1.7,32.85,1.7,32.85,1.7z"/>
	<g>
		<rect x="31.75" y="2.8" class="st23" width="1.6" height="1.6"/>
		<rect x="33.15" y="2.8" class="st21" width="0.1" height="1.6"/>
		<rect x="31.75" y="2.8" class="st24" width="0.1" height="1.6"/>
	</g>
</g>
<g>
	<circle class="st20" cx="39.75" cy="3.6" r="1.9"/>
	<path class="st21" d="M39.35,5.5c1,0,1.9-0.8,1.9-1.9s-0.8-1.9-1.9-1.9h0.3c1,0,1.9,0.8,1.9,1.9s-0.8,1.9-1.9,1.9H39.35z"/>
	<path class="st22" d="M40.05,1.7c-1,0-1.9,0.8-1.9,1.9s0.8,1.9,1.9,1.9h-0.3c-1,0-1.9-0.8-1.9-1.9s0.8-1.9,1.9-1.9
		C39.75,1.7,40.05,1.7,40.05,1.7z"/>
	<g>
		<rect x="38.95" y="2.8" class="st23" width="1.6" height="1.6"/>
		<rect x="40.35" y="2.8" class="st21" width="0.1" height="1.6"/>
		<rect x="38.95" y="2.8" class="st24" width="0.1" height="1.6"/>
	</g>
</g>
<g>
	<circle class="st20" cx="46.95" cy="3.6" r="1.9"/>
	<path class="st21" d="M46.55,5.5c1,0,1.9-0.8,1.9-1.9s-0.8-1.9-1.9-1.9h0.3c1,0,1.9,0.8,1.9,1.9s-0.8,1.9-1.9,1.9H46.55z"/>
	<path class="st22" d="M47.25,1.7c-1,0-1.9,0.8-1.9,1.9s0.8,1.9,1.9,1.9h-0.3c-1,0-1.9-0.8-1.9-1.9s0.8-1.9,1.9-1.9
		C46.95,1.7,47.25,1.7,47.25,1.7z"/>
	<g>
		<rect x="46.15" y="2.8" class="st23" width="1.6" height="1.6"/>
		<rect x="47.55" y="2.8" class="st21" width="0.1" height="1.6"/>
		<rect x="46.15" y="2.8" class="st24" width="0.1" height="1.6"/>
	</g>
</g>
<g>
	<circle class="st20" cx="54.15" cy="3.6" r="1.9"/>
	<path class="st21" d="M53.75,5.5c1,0,1.9-0.8,1.9-1.9s-0.8-1.9-1.9-1.9h0.3c1,0,1.9,0.8,1.9,1.9s-0.8,1.9-1.9,1.9H53.75z"/>
	<path class="st22" d="M54.45,1.7c-1,0-1.9,0.8-1.9,1.9s0.9,1.9,1.9,1.9h-0.3c-1,0-1.9-0.8-1.9-1.9s0.8-1.9,1.9-1.9
		C54.15,1.7,54.45,1.7,54.45,1.7z"/>
	<g>
		<rect x="53.35" y="2.8" class="st23" width="1.6" height="1.6"/>
		<rect x="54.75" y="2.8" class="st21" width="0.1" height="1.6"/>
		<rect x="53.35" y="2.8" class="st24" width="0.1" height="1.6"/>
	</g>
</g>
<g>
	<circle class="st20" cx="61.35" cy="3.6" r="1.9"/>
	<path class="st21" d="M60.95,5.5c1,0,1.9-0.8,1.9-1.9s-0.8-1.9-1.9-1.9h0.3c1,0,1.9,0.8,1.9,1.9s-0.8,1.9-1.9,1.9H60.95z"/>
	<path class="st22" d="M61.65,1.7c-1,0-1.9,0.8-1.9,1.9s0.8,1.9,1.9,1.9h-0.3c-1,0-1.9-0.8-1.9-1.9s0.8-1.9,1.9-1.9
		C61.35,1.7,61.65,1.7,61.65,1.7z"/>
	<g>
		<rect x="60.55" y="2.8" class="st23" width="1.6" height="1.6"/>
		<rect x="61.95" y="2.8" class="st21" width="0.1" height="1.6"/>
		<rect x="60.55" y="2.8" class="st24" width="0.1" height="1.6"/>
	</g>
</g>
<g>
	<circle class="st20" cx="68.55" cy="3.6" r="1.9"/>
	<path class="st21" d="M68.15,5.5c1,0,1.9-0.8,1.9-1.9s-0.8-1.9-1.9-1.9h0.3c1,0,1.9,0.8,1.9,1.9s-0.8,1.9-1.9,1.9
		C68.55,5.5,68.15,5.5,68.15,5.5z"/>
	<path class="st22" d="M68.85,1.7c-1,0-1.9,0.8-1.9,1.9s0.8,1.9,1.9,1.9h-0.3c-1,0-1.9-0.8-1.9-1.9s0.8-1.9,1.9-1.9
		C68.55,1.7,68.85,1.7,68.85,1.7z"/>
	<g>
		<rect x="67.75" y="2.8" class="st23" width="1.6" height="1.6"/>
		<rect x="69.15" y="2.8" class="st21" width="0.1" height="1.6"/>
		<rect x="67.75" y="2.8" class="st24" width="0.1" height="1.6"/>
	</g>
</g>
<g>
	<circle class="st20" cx="75.75" cy="3.6" r="1.9"/>
	<path class="st21" d="M75.35,5.5c1,0,1.9-0.8,1.9-1.9s-0.8-1.9-1.9-1.9h0.3c1,0,1.9,0.8,1.9,1.9s-0.8,1.9-1.9,1.9H75.35z"/>
	<path class="st22" d="M76.05,1.7c-1,0-1.9,0.8-1.9,1.9s0.8,1.9,1.9,1.9h-0.3c-1,0-1.9-0.8-1.9-1.9s0.8-1.9,1.9-1.9
		C75.75,1.7,76.05,1.7,76.05,1.7z"/>
	<g>
		<rect x="74.95" y="2.8" class="st23" width="1.6" height="1.6"/>
		<rect x="76.35" y="2.8" class="st21" width="0.1" height="1.6"/>
		<rect x="74.95" y="2.8" class="st24" width="0.1" height="1.6"/>
	</g>
</g>
<g>
	<circle class="st20" cx="82.95" cy="3.6" r="1.9"/>
	<path class="st21" d="M82.55,5.5c1,0,1.9-0.8,1.9-1.9s-0.8-1.9-1.9-1.9h0.3c1,0,1.9,0.8,1.9,1.9s-0.8,1.9-1.9,1.9
		C82.95,5.5,82.55,5.5,82.55,5.5z"/>
	<path class="st22" d="M83.25,1.7c-1,0-1.9,0.8-1.9,1.9s0.8,1.9,1.9,1.9h-0.3c-1,0-1.9-0.8-1.9-1.9s0.8-1.9,1.9-1.9
		C82.95,1.7,83.25,1.7,83.25,1.7z"/>
	<g>
		<rect x="82.15" y="2.8" class="st23" width="1.6" height="1.6"/>
		<rect x="83.55" y="2.8" class="st21" width="0.1" height="1.6"/>
		<rect x="82.15" y="2.8" class="st24" width="0.1" height="1.6"/>
	</g>
</g>
<g>
	<circle class="st20" cx="90.15" cy="3.6" r="1.9"/>
	<path class="st21" d="M89.75,5.5c1,0,1.9-0.8,1.9-1.9s-0.8-1.9-1.9-1.9h0.3c1,0,1.9,0.8,1.9,1.9s-0.8,1.9-1.9,1.9H89.75z"/>
	<path class="st22" d="M90.45,1.7c-1,0-1.9,0.8-1.9,1.9s0.9,1.9,1.9,1.9h-0.3c-1,0-1.9-0.8-1.9-1.9s0.8-1.9,1.9-1.9
		C90.15,1.7,90.45,1.7,90.45,1.7z"/>
	<g>
		<rect x="89.35" y="2.8" class="st23" width="1.6" height="1.6"/>
		<rect x="90.75" y="2.8" class="st21" width="0.1" height="1.6"/>
		<rect x="89.35" y="2.8" class="st24" width="0.1" height="1.6"/>
	</g>
</g>
<g>
	<circle class="st20" cx="97.35" cy="3.6" r="1.9"/>
	<path class="st21" d="M96.95,5.5c1,0,1.9-0.8,1.9-1.9s-0.8-1.9-1.9-1.9h0.3c1,0,1.9,0.8,1.9,1.9s-0.8,1.9-1.9,1.9
		C97.35,5.5,96.95,5.5,96.95,5.5z"/>
	<path class="st22" d="M97.65,1.7c-1,0-1.9,0.8-1.9,1.9s0.8,1.9,1.9,1.9h-0.3c-1,0-1.9-0.8-1.9-1.9s0.8-1.9,1.9-1.9
		C97.35,1.7,97.65,1.7,97.65,1.7z"/>
	<g>
		<rect x="96.55" y="2.8" class="st23" width="1.6" height="1.6"/>
		<rect x="97.95" y="2.8" class="st21" width="0.1" height="1.6"/>
		<rect x="96.55" y="2.8" class="st24" width="0.1" height="1.6"/>
	</g>
</g>
<g>
	<circle class="st20" cx="104.55" cy="3.6" r="1.9"/>
	<path class="st21" d="M104.15,5.5c1,0,1.9-0.8,1.9-1.9s-0.8-1.9-1.9-1.9h0.3c1,0,1.9,0.8,1.9,1.9s-0.8,1.9-1.9,1.9H104.15z"/>
	<path class="st22" d="M104.85,1.7c-1,0-1.9,0.8-1.9,1.9s0.8,1.9,1.9,1.9h-0.3c-1,0-1.9-0.8-1.9-1.9s0.8-1.9,1.9-1.9
		C104.55,1.7,104.85,1.7,104.85,1.7z"/>
	<g>
		<rect x="103.75" y="2.8" class="st23" width="1.6" height="1.6"/>
		<rect x="105.15" y="2.8" class="st21" width="0.1" height="1.6"/>
		<rect x="103.75" y="2.8" class="st24" width="0.1" height="1.6"/>
	</g>
</g>
<g>
	<circle class="st20" cx="111.75" cy="3.6" r="1.9"/>
	<path class="st21" d="M111.35,5.5c1,0,1.9-0.8,1.9-1.9s-0.8-1.9-1.9-1.9h0.3c1,0,1.9,0.8,1.9,1.9s-0.8,1.9-1.9,1.9H111.35z"/>
	<path class="st22" d="M112.05,1.7c-1,0-1.9,0.8-1.9,1.9s0.8,1.9,1.9,1.9h-0.3c-1,0-1.9-0.8-1.9-1.9s0.8-1.9,1.9-1.9
		C111.75,1.7,112.05,1.7,112.05,1.7z"/>
	<g>
		<rect x="110.95" y="2.8" class="st23" width="1.6" height="1.6"/>
		<rect x="112.35" y="2.8" class="st21" width="0.1" height="1.6"/>
		<rect x="110.95" y="2.8" class="st24" width="0.1" height="1.6"/>
	</g>
</g>
<g>
	<circle class="st20" cx="118.95" cy="3.6" r="1.9"/>
	<path class="st21" d="M118.55,5.5c1,0,1.9-0.8,1.9-1.9s-0.8-1.9-1.9-1.9h0.3c1,0,1.9,0.8,1.9,1.9s-0.8,1.9-1.9,1.9H118.55z"/>
	<path class="st22" d="M119.25,1.7c-1,0-1.9,0.8-1.9,1.9s0.8,1.9,1.9,1.9h-0.3c-1,0-1.9-0.8-1.9-1.9s0.8-1.9,1.9-1.9
		C118.95,1.7,119.25,1.7,119.25,1.7z"/>
	<g>
		<rect x="118.15" y="2.8" class="st23" width="1.6" height="1.6"/>
		<rect x="119.55" y="2.8" class="st21" width="0.1" height="1.6"/>
		<rect x="118.15" y="2.8" class="st24" width="0.1" height="1.6"/>
	</g>
</g>
<g>
	<title>text:RX0</title>
	<g transform="matrix(1, 0, 0, 1, 9.216, 20.88)">
		<g transform="rotate(270)">
			<text transform="matrix(0 1 -1 0 -43.9453 107.9624)" class="st1 st17 st18">D0</text>
		</g>
	</g>
</g>
<g>
	<title>text:RST</title>
	<g transform="matrix(1, 0, 0, 1, 9.216, 28.008)">
		<g transform="rotate(270)">
			<text transform="matrix(0 1 -1 0 -36.8173 100.8335)" class="st1 st17 st18">D1</text>
		</g>
	</g>
</g>
<g>
	<title>text:GND</title>
	<g transform="matrix(1, 0, 0, 1, 9.216, 35.208)">
		<g transform="rotate(270)">
			<text transform="matrix(0 1 -1 0 -29.6173 93.6343)" class="st1 st17 st18">D2</text>
		</g>
	</g>
</g>
<g>
	<title>text:D2</title>
	<g transform="matrix(1, 0, 0, 1, 9.216, 41.544)">
		<g transform="rotate(270)">
			<text transform="matrix(0 1 -1 0 -23.2813 86.2984)" class="st1 st17 st18">D3</text>
		</g>
	</g>
</g>
<g>
	<title>text:D3</title>
	<g transform="matrix(1, 0, 0, 1, 9.216, 48.6)">
		<g transform="rotate(270)">
			<text transform="matrix(0 1 -1 0 -16.2253 79.2417)" class="st1 st17 st18">D4</text>
		</g>
	</g>
</g>
<g>
	<title>text:D4</title>
	<g transform="matrix(1, 0, 0, 1, 9.216, 55.872)">
		<g transform="rotate(270)">
			<text transform="matrix(0 1 -1 0 -8.9533 71.9702)" class="st1 st17 st18">3V3</text>
		</g>
	</g>
</g>
<g>
	<title>text:D5</title>
	<g transform="matrix(1, 0, 0, 1, 9.216, 62.928)">
		<g transform="rotate(270)">
			<text transform="matrix(0 1 -1 0 -1.8973 63.9136)" class="st1 st17 st18">GND</text>
		</g>
	</g>
</g>
<g>
	<title>text:D6</title>
	<g transform="matrix(1, 0, 0, 1, 9.216, 70.272)">
		<g transform="rotate(270)">
			<text transform="matrix(0 1 -1 0 5.4467 57.5698)" class="st1 st17 st18">D5</text>
		</g>
	</g>
</g>
<g>
	<title>text:D6</title>
	<g transform="matrix(1, 0, 0, 1, 9.216, 70.272)">
		<g transform="rotate(270)">
			<text transform="matrix(0 1 -1 0 5.4465 50.5946)" class="st1 st17 st18">D6</text>
		</g>
	</g>
</g>
<g>
	<title>text:D7</title>
	<g transform="matrix(1, 0, 0, 1, 9.216, 77.544)">
		<g transform="rotate(270)">
			<text transform="matrix(0 1 -1 0 12.7187 43.2984)" class="st1 st17 st18">D7</text>
		</g>
	</g>
</g>
<g>
	<title>text:D8</title>
	<g transform="matrix(1, 0, 0, 1, 9.216, 84.6)">
		<g transform="rotate(270)">
			<text transform="matrix(0 1 -1 0 19.7747 36.2417)" class="st1 st17 st18">D8</text>
		</g>
	</g>
</g>
<g>
	<title>text:D9</title>
	<g transform="matrix(1, 0, 0, 1, 9.216, 91.872)">
		<g transform="rotate(270)">
			<text transform="matrix(0 1 -1 0 27.0467 28.9702)" class="st1 st17 st18">RX</text>
		</g>
	</g>
</g>
<g>
	<title>text:D10</title>
	<g transform="matrix(1, 0, 0, 1, 9.216, 100.224)">
		<g transform="rotate(270)">
			<text transform="matrix(0 1 -1 0 35.3987 21.6167)" class="st1 st17 st18">TX</text>
		</g>
	</g>
</g>
<g>
	<title>text:D11</title>
	<g transform="matrix(1, 0, 0, 1, 9.216, 107.352)">
		<g transform="rotate(270)">
			<text transform="matrix(0 1 -1 0 42.5267 13.4898)" class="st1 st17 st18">GND</text>
		</g>
	</g>
</g>
<g>
	<title>text:D12</title>
	<g transform="matrix(1, 0, 0, 1, 9.216, 114.552)">
		<g transform="rotate(270)">
			<text transform="matrix(0 1 -1 0 49.7267 6.2886)" class="st1 st17 st18">3V3</text>
		</g>
	</g>
</g>
<circle id="connector16pin_1_" class="st19" cx="118.95" cy="68.4" r="1.9"/>
<rect x="117.05" y="66.5" class="st19" width="3.8" height="3.8"/>
<circle id="connector17pin_1_" class="st19" cx="111.75" cy="68.4" r="1.9"/>
<circle id="connector18pin_1_" class="st19" cx="104.55" cy="68.4" r="1.9"/>
<circle id="connector19pin_1_" class="st19" cx="97.35" cy="68.4" r="1.9"/>
<circle id="connector20pin_1_" class="st19" cx="90.15" cy="68.4" r="1.9"/>
<circle id="connector21pin_1_" class="st19" cx="82.95" cy="68.4" r="1.9"/>
<circle id="connector22pin_1_" class="st19" cx="75.75" cy="68.4" r="1.9"/>
<circle id="connector23pin_1_" class="st19" cx="68.55" cy="68.4" r="1.9"/>
<circle id="connector24pin_1_" class="st19" cx="61.35" cy="68.4" r="1.9"/>
<circle id="connector25pin_1_" class="st19" cx="54.15" cy="68.4" r="1.9"/>
<circle id="connector26pin_1_" class="st19" cx="46.95" cy="68.4" r="1.9"/>
<circle id="connector27pin_1_" class="st19" cx="39.75" cy="68.4" r="1.9"/>
<circle id="connector28pin_1_" class="st19" cx="32.55" cy="68.4" r="1.9"/>
<circle id="connector29pin_1_" class="st19" cx="25.35" cy="68.4" r="1.9"/>
<circle id="connector30pin_1_" class="st19" cx="18.15" cy="68.4" r="1.9"/>
<g>
	<circle class="st20" cx="18.15" cy="68.4" r="1.9"/>
	<path class="st21" d="M17.75,70.3c1,0,1.9-0.8,1.9-1.9s-0.8-1.9-1.9-1.9h0.3c1,0,1.9,0.8,1.9,1.9s-0.8,1.9-1.9,1.9H17.75z"/>
	<path class="st22" d="M18.45,66.5c-1,0-1.9,0.8-1.9,1.9s0.9,1.9,1.9,1.9h-0.3c-1,0-1.9-0.8-1.9-1.9s0.8-1.9,1.9-1.9
		C18.15,66.5,18.45,66.5,18.45,66.5z"/>
	<g>
		<rect x="17.35" y="67.6" class="st23" width="1.6" height="1.6"/>
		<rect x="18.75" y="67.6" class="st21" width="0.1" height="1.6"/>
		<rect x="17.35" y="67.6" class="st24" width="0.1" height="1.6"/>
	</g>
</g>
<g>
	<circle class="st20" cx="25.35" cy="68.4" r="1.9"/>
	<path class="st21" d="M24.95,70.3c1,0,1.9-0.8,1.9-1.9s-0.8-1.9-1.9-1.9h0.3c1,0,1.9,0.8,1.9,1.9s-0.8,1.9-1.9,1.9H24.95z"/>
	<path class="st22" d="M25.65,66.5c-1,0-1.9,0.8-1.9,1.9s0.8,1.9,1.9,1.9h-0.3c-1,0-1.9-0.8-1.9-1.9s0.8-1.9,1.9-1.9
		C25.35,66.5,25.65,66.5,25.65,66.5z"/>
	<g>
		<rect x="24.55" y="67.6" class="st23" width="1.6" height="1.6"/>
		<rect x="25.95" y="67.6" class="st21" width="0.1" height="1.6"/>
		<rect x="24.55" y="67.6" class="st24" width="0.1" height="1.6"/>
	</g>
</g>
<g>
	<circle class="st20" cx="32.55" cy="68.4" r="1.9"/>
	<path class="st21" d="M32.15,70.3c1,0,1.9-0.8,1.9-1.9s-0.8-1.9-1.9-1.9h0.3c1,0,1.9,0.8,1.9,1.9s-0.8,1.9-1.9,1.9
		C32.55,70.3,32.15,70.3,32.15,70.3z"/>
	<path class="st22" d="M32.85,66.5c-1,0-1.9,0.8-1.9,1.9s0.8,1.9,1.9,1.9h-0.3c-1,0-1.9-0.8-1.9-1.9s0.8-1.9,1.9-1.9
		C32.55,66.5,32.85,66.5,32.85,66.5z"/>
	<g>
		<rect x="31.75" y="67.6" class="st23" width="1.6" height="1.6"/>
		<rect x="33.15" y="67.6" class="st21" width="0.1" height="1.6"/>
		<rect x="31.75" y="67.6" class="st24" width="0.1" height="1.6"/>
	</g>
</g>
<g>
	<circle class="st20" cx="39.75" cy="68.4" r="1.9"/>
	<path class="st21" d="M39.35,70.3c1,0,1.9-0.8,1.9-1.9s-0.8-1.9-1.9-1.9h0.3c1,0,1.9,0.8,1.9,1.9s-0.8,1.9-1.9,1.9H39.35z"/>
	<path class="st22" d="M40.05,66.5c-1,0-1.9,0.8-1.9,1.9s0.8,1.9,1.9,1.9h-0.3c-1,0-1.9-0.8-1.9-1.9s0.8-1.9,1.9-1.9
		C39.75,66.5,40.05,66.5,40.05,66.5z"/>
	<g>
		<rect x="38.95" y="67.6" class="st23" width="1.6" height="1.6"/>
		<rect x="40.35" y="67.6" class="st21" width="0.1" height="1.6"/>
		<rect x="38.95" y="67.6" class="st24" width="0.1" height="1.6"/>
	</g>
</g>
<g>
	<circle class="st20" cx="46.95" cy="68.4" r="1.9"/>
	<path class="st21" d="M46.55,70.3c1,0,1.9-0.8,1.9-1.9s-0.8-1.9-1.9-1.9h0.3c1,0,1.9,0.8,1.9,1.9s-0.8,1.9-1.9,1.9H46.55z"/>
	<path class="st22" d="M47.25,66.5c-1,0-1.9,0.8-1.9,1.9s0.8,1.9,1.9,1.9h-0.3c-1,0-1.9-0.8-1.9-1.9s0.8-1.9,1.9-1.9
		C46.95,66.5,47.25,66.5,47.25,66.5z"/>
	<g>
		<rect x="46.15" y="67.6" class="st23" width="1.6" height="1.6"/>
		<rect x="47.55" y="67.6" class="st21" width="0.1" height="1.6"/>
		<rect x="46.15" y="67.6" class="st24" width="0.1" height="1.6"/>
	</g>
</g>
<g>
	<circle class="st20" cx="54.15" cy="68.4" r="1.9"/>
	<path class="st21" d="M53.75,70.3c1,0,1.9-0.8,1.9-1.9s-0.8-1.9-1.9-1.9h0.3c1,0,1.9,0.8,1.9,1.9s-0.8,1.9-1.9,1.9H53.75z"/>
	<path class="st22" d="M54.45,66.5c-1,0-1.9,0.8-1.9,1.9s0.9,1.9,1.9,1.9h-0.3c-1,0-1.9-0.8-1.9-1.9s0.8-1.9,1.9-1.9
		C54.15,66.5,54.45,66.5,54.45,66.5z"/>
	<g>
		<rect x="53.35" y="67.6" class="st23" width="1.6" height="1.6"/>
		<rect x="54.75" y="67.6" class="st21" width="0.1" height="1.6"/>
		<rect x="53.35" y="67.6" class="st24" width="0.1" height="1.6"/>
	</g>
</g>
<g>
	<circle class="st20" cx="61.35" cy="68.4" r="1.9"/>
	<path class="st21" d="M60.95,70.3c1,0,1.9-0.8,1.9-1.9s-0.8-1.9-1.9-1.9h0.3c1,0,1.9,0.8,1.9,1.9s-0.8,1.9-1.9,1.9H60.95z"/>
	<path class="st22" d="M61.65,66.5c-1,0-1.9,0.8-1.9,1.9s0.8,1.9,1.9,1.9h-0.3c-1,0-1.9-0.8-1.9-1.9s0.8-1.9,1.9-1.9
		C61.35,66.5,61.65,66.5,61.65,66.5z"/>
	<g>
		<rect x="60.55" y="67.6" class="st23" width="1.6" height="1.6"/>
		<rect x="61.95" y="67.6" class="st21" width="0.1" height="1.6"/>
		<rect x="60.55" y="67.6" class="st24" width="0.1" height="1.6"/>
	</g>
</g>
<g>
	<circle class="st20" cx="68.55" cy="68.4" r="1.9"/>
	<path class="st21" d="M68.15,70.3c1,0,1.9-0.8,1.9-1.9s-0.8-1.9-1.9-1.9h0.3c1,0,1.9,0.8,1.9,1.9s-0.8,1.9-1.9,1.9
		C68.55,70.3,68.15,70.3,68.15,70.3z"/>
	<path class="st22" d="M68.85,66.5c-1,0-1.9,0.8-1.9,1.9s0.8,1.9,1.9,1.9h-0.3c-1,0-1.9-0.8-1.9-1.9s0.8-1.9,1.9-1.9
		C68.55,66.5,68.85,66.5,68.85,66.5z"/>
	<g>
		<rect x="67.75" y="67.6" class="st23" width="1.6" height="1.6"/>
		<rect x="69.15" y="67.6" class="st21" width="0.1" height="1.6"/>
		<rect x="67.75" y="67.6" class="st24" width="0.1" height="1.6"/>
	</g>
</g>
<g>
	<circle class="st20" cx="75.75" cy="68.4" r="1.9"/>
	<path class="st21" d="M75.35,70.3c1,0,1.9-0.8,1.9-1.9s-0.8-1.9-1.9-1.9h0.3c1,0,1.9,0.8,1.9,1.9s-0.8,1.9-1.9,1.9H75.35z"/>
	<path class="st22" d="M76.05,66.5c-1,0-1.9,0.8-1.9,1.9s0.8,1.9,1.9,1.9h-0.3c-1,0-1.9-0.8-1.9-1.9s0.8-1.9,1.9-1.9
		C75.75,66.5,76.05,66.5,76.05,66.5z"/>
	<g>
		<rect x="74.95" y="67.6" class="st23" width="1.6" height="1.6"/>
		<rect x="76.35" y="67.6" class="st21" width="0.1" height="1.6"/>
		<rect x="74.95" y="67.6" class="st24" width="0.1" height="1.6"/>
	</g>
</g>
<g>
	<circle class="st20" cx="82.95" cy="68.4" r="1.9"/>
	<path class="st21" d="M82.55,70.3c1,0,1.9-0.8,1.9-1.9s-0.8-1.9-1.9-1.9h0.3c1,0,1.9,0.8,1.9,1.9s-0.8,1.9-1.9,1.9
		C82.95,70.3,82.55,70.3,82.55,70.3z"/>
	<path class="st22" d="M83.25,66.5c-1,0-1.9,0.8-1.9,1.9s0.8,1.9,1.9,1.9h-0.3c-1,0-1.9-0.8-1.9-1.9s0.8-1.9,1.9-1.9
		C82.95,66.5,83.25,66.5,83.25,66.5z"/>
	<g>
		<rect x="82.15" y="67.6" class="st23" width="1.6" height="1.6"/>
		<rect x="83.55" y="67.6" class="st21" width="0.1" height="1.6"/>
		<rect x="82.15" y="67.6" class="st24" width="0.1" height="1.6"/>
	</g>
</g>
<g>
	<circle class="st20" cx="90.15" cy="68.4" r="1.9"/>
	<path class="st21" d="M89.75,70.3c1,0,1.9-0.8,1.9-1.9s-0.8-1.9-1.9-1.9h0.3c1,0,1.9,0.8,1.9,1.9s-0.8,1.9-1.9,1.9H89.75z"/>
	<path class="st22" d="M90.45,66.5c-1,0-1.9,0.8-1.9,1.9s0.9,1.9,1.9,1.9h-0.3c-1,0-1.9-0.8-1.9-1.9s0.8-1.9,1.9-1.9
		C90.15,66.5,90.45,66.5,90.45,66.5z"/>
	<g>
		<rect x="89.35" y="67.6" class="st23" width="1.6" height="1.6"/>
		<rect x="90.75" y="67.6" class="st21" width="0.1" height="1.6"/>
		<rect x="89.35" y="67.6" class="st24" width="0.1" height="1.6"/>
	</g>
</g>
<g>
	<circle class="st20" cx="97.35" cy="68.4" r="1.9"/>
	<path class="st21" d="M96.95,70.3c1,0,1.9-0.8,1.9-1.9s-0.8-1.9-1.9-1.9h0.3c1,0,1.9,0.8,1.9,1.9s-0.8,1.9-1.9,1.9
		C97.35,70.3,96.95,70.3,96.95,70.3z"/>
	<path class="st22" d="M97.65,66.5c-1,0-1.9,0.8-1.9,1.9s0.8,1.9,1.9,1.9h-0.3c-1,0-1.9-0.8-1.9-1.9s0.8-1.9,1.9-1.9
		C97.35,66.5,97.65,66.5,97.65,66.5z"/>
	<g>
		<rect x="96.55" y="67.6" class="st23" width="1.6" height="1.6"/>
		<rect x="97.95" y="67.6" class="st21" width="0.1" height="1.6"/>
		<rect x="96.55" y="67.6" class="st24" width="0.1" height="1.6"/>
	</g>
</g>
<g>
	<circle class="st20" cx="104.55" cy="68.4" r="1.9"/>
	<path class="st21" d="M104.15,70.3c1,0,1.9-0.8,1.9-1.9s-0.8-1.9-1.9-1.9h0.3c1,0,1.9,0.8,1.9,1.9s-0.8,1.9-1.9,1.9H104.15z"/>
	<path class="st22" d="M104.85,66.5c-1,0-1.9,0.8-1.9,1.9s0.8,1.9,1.9,1.9h-0.3c-1,0-1.9-0.8-1.9-1.9s0.8-1.9,1.9-1.9
		C104.55,66.5,104.85,66.5,104.85,66.5z"/>
	<g>
		<rect x="103.75" y="67.6" class="st23" width="1.6" height="1.6"/>
		<rect x="105.15" y="67.6" class="st21" width="0.1" height="1.6"/>
		<rect x="103.75" y="67.6" class="st24" width="0.1" height="1.6"/>
	</g>
</g>
<g>
	<circle class="st20" cx="111.75" cy="68.4" r="1.9"/>
	<path class="st21" d="M111.35,70.3c1,0,1.9-0.8,1.9-1.9s-0.8-1.9-1.9-1.9h0.3c1,0,1.9,0.8,1.9,1.9s-0.8,1.9-1.9,1.9H111.35z"/>
	<path class="st22" d="M112.05,66.5c-1,0-1.9,0.8-1.9,1.9s0.8,1.9,1.9,1.9h-0.3c-1,0-1.9-0.8-1.9-1.9s0.8-1.9,1.9-1.9
		C111.75,66.5,112.05,66.5,112.05,66.5z"/>
	<g>
		<rect x="110.95" y="67.6" class="st23" width="1.6" height="1.6"/>
		<rect x="112.35" y="67.6" class="st21" width="0.1" height="1.6"/>
		<rect x="110.95" y="67.6" class="st24" width="0.1" height="1.6"/>
	</g>
</g>
<g>
	<circle class="st20" cx="118.95" cy="68.4" r="1.9"/>
	<path class="st21" d="M118.55,70.3c1,0,1.9-0.8,1.9-1.9s-0.8-1.9-1.9-1.9h0.3c1,0,1.9,0.8,1.9,1.9s-0.8,1.9-1.9,1.9H118.55z"/>
	<path class="st22" d="M119.25,66.5c-1,0-1.9,0.8-1.9,1.9s0.8,1.9,1.9,1.9h-0.3c-1,0-1.9-0.8-1.9-1.9s0.8-1.9,1.9-1.9
		C118.95,66.5,119.25,66.5,119.25,66.5z"/>
	<g>
		<rect x="118.15" y="67.6" class="st23" width="1.6" height="1.6"/>
		<rect x="119.55" y="67.6" class="st21" width="0.1" height="1.6"/>
		<rect x="118.15" y="67.6" class="st24" width="0.1" height="1.6"/>
	</g>
</g>
<g id="Atmega_1_">
	<g>
		<g>
			<rect x="19.42" y="33.64" class="st25" width="0.98" height="0.55"/>
			<rect x="18.93" y="33.64" class="st26" width="0.49" height="0.55"/>
		</g>
		<g>
			<rect x="19.42" y="35.06" class="st25" width="0.98" height="0.55"/>
			<rect x="18.93" y="35.06" class="st26" width="0.49" height="0.55"/>
		</g>
		<g>
			<rect x="19.42" y="36.48" class="st25" width="0.98" height="0.55"/>
			<rect x="18.93" y="36.48" class="st26" width="0.49" height="0.55"/>
		</g>
		<g>
			<rect x="19.42" y="37.91" class="st25" width="0.98" height="0.55"/>
		</g>
		<g>
			<rect x="19.42" y="39.33" class="st25" width="0.98" height="0.55"/>
			<rect x="18.93" y="39.33" class="st26" width="0.49" height="0.55"/>
		</g>
		<g>
			<rect x="19.42" y="40.75" class="st25" width="0.98" height="0.55"/>
			<rect x="18.93" y="40.75" class="st26" width="0.49" height="0.55"/>
		</g>
		<g>
			<rect x="19.42" y="42.17" class="st25" width="0.98" height="0.55"/>
			<rect x="18.93" y="42.17" class="st26" width="0.49" height="0.55"/>
		</g>
		<g>
			<rect x="19.42" y="43.59" class="st25" width="0.98" height="0.55"/>
			<rect x="18.93" y="43.59" class="st26" width="0.49" height="0.55"/>
		</g>
		<g>
			<rect x="22.04" y="45.84" class="st25" width="0.55" height="0.98"/>
			<rect x="22.04" y="46.82" class="st26" width="0.55" height="0.49"/>
		</g>
		<g>
			<rect x="23.47" y="45.84" class="st25" width="0.55" height="0.98"/>
			<rect x="23.47" y="46.82" class="st26" width="0.55" height="0.49"/>
		</g>
		<g>
			<rect x="24.83" y="45.84" class="st25" width="0.55" height="0.98"/>
		</g>
		<g>
			<rect x="26.26" y="45.84" class="st25" width="0.55" height="0.98"/>
			<rect x="26.26" y="46.82" class="st26" width="0.55" height="0.49"/>
		</g>
		<g>
			<rect x="27.68" y="45.84" class="st25" width="0.55" height="0.98"/>
			<rect x="27.68" y="46.82" class="st26" width="0.55" height="0.49"/>
		</g>
		<g>
			<rect x="29.04" y="45.84" class="st25" width="0.55" height="0.98"/>
		</g>
		<g>
			<rect x="30.47" y="45.84" class="st25" width="0.55" height="0.98"/>
			<rect x="30.47" y="46.82" class="st26" width="0.55" height="0.49"/>
		</g>
		<g>
			<rect x="31.89" y="45.84" class="st25" width="0.55" height="0.98"/>
			<rect x="31.89" y="46.82" class="st26" width="0.55" height="0.49"/>
		</g>
		<g>
			<rect x="34.51" y="43.54" class="st25" width="0.98" height="0.55"/>
			<rect x="35.44" y="43.54" class="st26" width="0.49" height="0.55"/>
		</g>
		<g>
			<rect x="34.51" y="42.12" class="st25" width="0.98" height="0.55"/>
			<rect x="35.44" y="42.12" class="st26" width="0.49" height="0.55"/>
		</g>
		<g>
			<rect x="34.51" y="40.69" class="st25" width="0.98" height="0.55"/>
			<rect x="35.44" y="40.69" class="st26" width="0.49" height="0.55"/>
		</g>
		<g>
			<rect x="34.51" y="39.27" class="st25" width="0.98" height="0.55"/>
			<rect x="35.44" y="39.27" class="st26" width="0.49" height="0.55"/>
		</g>
		<g>
			<rect x="34.51" y="37.85" class="st25" width="0.98" height="0.55"/>
			<rect x="35.44" y="37.85" class="st26" width="0.49" height="0.55"/>
		</g>
		<g>
			<rect x="34.51" y="36.43" class="st25" width="0.98" height="0.55"/>
			<rect x="35.44" y="36.43" class="st26" width="0.49" height="0.55"/>
		</g>
		<g>
			<rect x="34.51" y="35.01" class="st25" width="0.98" height="0.55"/>
			<rect x="35.44" y="35.01" class="st26" width="0.49" height="0.55"/>
		</g>
		<g>
			<rect x="31.94" y="30.8" class="st25" width="0.55" height="0.98"/>
			<rect x="31.94" y="30.3" class="st26" width="0.55" height="0.49"/>
		</g>
		<g>
			<rect x="30.52" y="30.8" class="st25" width="0.55" height="0.98"/>
			<rect x="30.52" y="30.3" class="st26" width="0.55" height="0.49"/>
		</g>
		<g>
			<rect x="29.1" y="30.8" class="st25" width="0.55" height="0.98"/>
			<rect x="29.1" y="30.3" class="st26" width="0.55" height="0.49"/>
		</g>
		<g>
			<rect x="27.68" y="30.8" class="st25" width="0.55" height="0.98"/>
			<rect x="27.68" y="30.3" class="st26" width="0.55" height="0.49"/>
		</g>
		<g>
			<rect x="26.31" y="30.8" class="st25" width="0.55" height="0.98"/>
			<rect x="26.31" y="30.3" class="st26" width="0.55" height="0.49"/>
		</g>
		<g>
			<rect x="24.89" y="30.8" class="st25" width="0.55" height="0.98"/>
		</g>
		<g>
			<rect x="23.47" y="30.8" class="st25" width="0.55" height="0.98"/>
			<rect x="23.47" y="30.3" class="st26" width="0.55" height="0.49"/>
		</g>
		<g>
			<rect x="22.04" y="30.8" class="st25" width="0.55" height="0.98"/>
			<rect x="22.04" y="30.3" class="st26" width="0.55" height="0.49"/>
		</g>
		<g>
			<rect x="34.51" y="33.64" class="st25" width="0.98" height="0.55"/>
		</g>
	</g>
	<g>
		<rect x="20.4" y="31.78" class="st3" width="14.05" height="14.05"/>
		<rect x="20.73" y="32.05" class="st27" width="13.45" height="13.45"/>
		<circle class="st28" cx="32.76" cy="44.19" r="0.77"/>
	</g>
	<polyline class="st29" points="19.8,33.09 19.8,31.18 21.5,31.18 	"/>
	<polyline class="st29" points="21.33,46.44 19.8,46.44 19.8,44.63 	"/>
	<polyline class="st29" points="35.06,44.63 35.06,46.44 33.09,46.44 	"/>
	<line class="st29" x1="35.06" y1="31.18" x2="35.06" y2="33.09"/>
</g>
<g>
	<g>
		<g>
			<rect x="27.16" y="55.23" class="st30" width="2.42" height="2.27"/>
			<rect x="27.16" y="55.23" class="st31" width="2.42" height="2.27"/>
		</g>
		<g>
			<rect x="32.04" y="57.45" class="st30" width="2.42" height="2.27"/>
			<rect x="32.04" y="57.45" class="st31" width="2.42" height="2.27"/>
		</g>
		<g>
			<rect x="32.04" y="52.96" class="st30" width="2.42" height="2.27"/>
			<rect x="32.04" y="52.96" class="st31" width="2.42" height="2.27"/>
		</g>
		<rect x="27.9" y="55.97" class="st1" width="1.33" height="0.69"/>
		<rect x="32.44" y="58.24" class="st1" width="1.33" height="0.69"/>
		<rect x="32.44" y="53.75" class="st1" width="1.33" height="0.69"/>
		<rect x="29.23" y="52.57" class="st27" width="3.2" height="7.54"/>
	</g>
	<line class="st32" x1="28.4" y1="60.5" x2="33.08" y2="60.5"/>
	<line class="st32" x1="26.82" y1="52.32" x2="33.08" y2="52.32"/>
</g>
<g>
	<g>
		<g>
			<rect x="53.13" y="55.33" class="st30" width="2.42" height="2.27"/>
			<rect x="53.13" y="55.33" class="st31" width="2.42" height="2.27"/>
		</g>
		<g>
			<rect x="48.25" y="53.11" class="st30" width="2.42" height="2.27"/>
			<rect x="48.25" y="53.11" class="st31" width="2.42" height="2.27"/>
		</g>
		<g>
			<rect x="48.25" y="57.6" class="st30" width="2.42" height="2.27"/>
			<rect x="48.25" y="57.6" class="st31" width="2.42" height="2.27"/>
		</g>
		<rect x="53.47" y="56.17" class="st1" width="1.33" height="0.69"/>
		<rect x="48.94" y="53.9" class="st1" width="1.33" height="0.69"/>
		<rect x="48.94" y="58.38" class="st1" width="1.33" height="0.69"/>
		<rect x="50.27" y="52.71" class="st27" width="3.2" height="7.54"/>
	</g>
	<line class="st32" x1="54.31" y1="52.32" x2="49.63" y2="52.32"/>
	<line class="st32" x1="55.89" y1="60.5" x2="49.63" y2="60.5"/>
</g>
<g id="TX_2_">
	<g>
		<rect x="32.23" y="25.28" class="st7" width="3.7" height="2.51"/>
		<rect x="32.23" y="25.28" class="st33" width="3.7" height="2.51"/>
	</g>
	<g>
		<rect x="32.23" y="19.76" class="st7" width="3.7" height="2.51"/>
		<rect x="32.23" y="19.76" class="st33" width="3.7" height="2.51"/>
	</g>
	<g>
		<rect x="32.67" y="22.21" class="st1" width="2.88" height="3.13"/>
		<rect x="32.67" y="25.34" class="st34" width="2.88" height="1.07"/>
		<rect x="32.67" y="21.2" class="st34" width="2.88" height="1.07"/>
	</g>
	<circle class="st34" cx="34.11" cy="23.77" r="0.19"/>
</g>
<polyline class="st35" points="31.75,22.48 31.75,19.05 36.61,19.05 36.61,22.48 "/>
<polyline class="st35" points="36.61,25.15 36.61,28.21 31.75,28.21 31.75,25.15 "/>
</svg>
