<?xml version="1.0" encoding="utf-8"?>
<!-- Generator: Adobe Illustrator 23.0.1, SVG Export Plug-In . SVG Version: 6.00 Build 0)  -->
<svg version="1.1" id="Layer_1" xmlns="http://www.w3.org/2000/svg" xmlns:xlink="http://www.w3.org/1999/xlink" x="0px" y="0px"
	 viewBox="0 0 64.3 49" style="enable-background:new 0 0 64.3 49;" xml:space="preserve">
<style type="text/css">
	.st0{fill:#BE9349;}
	.st1{fill:#FFFFFF;}
	.st2{font-family:'ArialMT';}
	.st3{font-size:4.285px;}
	.st4{fill:#E5E5E5;}
	.st5{fill:#E5E5EC;}
	.st6{fill:#302F2F;}
	.st7{fill:#4F4E4E;}
	.st8{fill:#C0944C;}
	.st9{fill:#FDC26B;}
	.st10{fill:#FFD39B;}
	.st11{fill:#1D1D1D;}
</style>
<path d="M57.6,10.8h-5.1c-0.9,0-1.5-0.7-1.5-1.5V0H13.3v9.2c0,0.9-0.5,1.5-1.4,1.5H6.8c-3.8,0-6.8,2.9-6.8,6.7
	c0,3.8,3.1,6.7,6.7,6.7h5.1c0.9,0,1.5,0.7,1.5,1.5v8H51v-8c0-0.9,0.7-1.5,1.5-1.5h5.1c3.8,0,6.7-3.1,6.7-6.7
	C64.3,13.7,61.2,10.8,57.6,10.8z M10.6,17.6c0,2.2-1.7,3.9-3.9,3.9c-0.9,0-1.7-0.4-2.4-0.9c-1-0.7-1.6-1.8-1.6-3.2
	c0-2.2,1.9-3.8,3.9-3.8s3.9,1.7,3.9,3.8C10.6,17.5,10.6,17.5,10.6,17.6C10.6,17.6,10.6,17.6,10.6,17.6z M17.1,31.1
	c-0.9,0-1.5-0.7-1.5-1.5c0-0.9,0.7-1.5,1.5-1.5c0.9,0,1.5,0.7,1.5,1.5C18.6,30.4,18,31.1,17.1,31.1z M22.9,31.1
	c-0.9,0-1.5-0.7-1.5-1.5c0-0.9,0.7-1.5,1.5-1.5c0.9,0,1.5,0.7,1.5,1.5C24.5,30.4,23.8,31.1,22.9,31.1z M28.9,31.1
	c-0.9,0-1.5-0.7-1.5-1.5c0-0.9,0.7-1.5,1.5-1.5s1.5,0.7,1.5,1.5C30.4,30.4,29.8,31.1,28.9,31.1z M34.7,31.1c-0.9,0-1.5-0.7-1.5-1.5
	c0-0.9,0.7-1.5,1.5-1.5c0.9,0,1.5,0.7,1.5,1.5C36.3,30.4,35.6,31.1,34.7,31.1z M40.7,31.1c-0.9,0-1.5-0.7-1.5-1.5
	c0-0.9,0.7-1.5,1.5-1.5c0.9,0,1.5,0.7,1.5,1.5C42.2,30.4,41.6,31.1,40.7,31.1z M46.5,31.1c-0.9,0-1.5-0.7-1.5-1.5
	c0-0.9,0.7-1.5,1.5-1.5c0.9,0,1.5,0.7,1.5,1.5C48.1,30.4,47.4,31.1,46.5,31.1z M57.6,21.4c-2.2,0-3.9-1.7-3.9-3.9
	c0-2.2,1.7-3.9,3.9-3.9s3.9,1.9,3.9,3.9S59.9,21.4,57.6,21.4z"/>
<path class="st0" d="M11.8,17.4c0-2.9-2.4-5.1-5.1-5.1c-2.9,0-5.1,2.4-5.1,5.1s2.4,5.1,5.1,5.1C9.6,22.6,11.8,20.4,11.8,17.4z
	 M2.9,17.4c0-2.1,1.7-3.8,3.8-3.8s3.9,1.7,3.9,3.9s-1.7,3.9-3.9,3.9S2.9,19.5,2.9,17.4z"/>
<path class="st0" d="M52.7,17.4c0,2.9,2.4,5.1,5.1,5.1c2.9,0,5.1-2.4,5.1-5.1s-2.4-5.1-5.1-5.1C54.9,12.3,52.7,14.5,52.7,17.4z
	 M61.6,17.4c0,2.1-1.7,3.9-3.9,3.9c-2.2,0-3.9-1.7-3.9-3.9s1.7-3.9,3.9-3.9C59.9,13.5,61.6,15.4,61.6,17.4z"/>
<g>
	<path class="st0" d="M15,29.6c0,1.2,0.9,2.1,2.1,2.1c1.2,0,2.1-0.9,2.1-2.1c0-1.2-0.9-2.1-2.1-2.1C15.9,27.5,15,28.4,15,29.6z
		 M18.6,29.6c0,0.9-0.7,1.5-1.5,1.5c-0.9,0-1.5-0.7-1.5-1.5s0.7-1.5,1.5-1.5C18,28,18.6,28.7,18.6,29.6z"/>
	<text transform="matrix(6.123236e-17 -1 1 6.123236e-17 18.5833 26.6685)" class="st1 st2 st3">VCC</text>
	<circle class="st4" cx="17.1" cy="29.6" r="1.5"/>
</g>
<g>
	<path class="st0" d="M20.9,29.6c0,1.2,0.9,2.1,2.1,2.1c1.2,0,2.1-0.9,2.1-2.1c0-1.2-0.9-2.1-2.1-2.1C21.7,27.5,20.9,28.4,20.9,29.6
		z M24.5,29.6c0,0.9-0.7,1.5-1.5,1.5s-1.5-0.7-1.5-1.5s0.7-1.5,1.5-1.5S24.5,28.7,24.5,29.6z"/>
	<text transform="matrix(6.123236e-17 -1 1 6.123236e-17 24.4837 26.6685)" class="st1 st2 st3">GND</text>
</g>
<text transform="matrix(1 0 0 1 17.6184 4.4166)" class="st1 st2 st3">CJVL53L0XV2</text>
<g>
	<path class="st0" d="M26.8,29.6c0,1.2,0.9,2.1,2.1,2.1c1.2,0,2.1-0.9,2.1-2.1c0-1.2-0.9-2.1-2.1-2.1C27.7,27.5,26.8,28.4,26.8,29.6
		z M30.4,29.6c0,0.9-0.7,1.5-1.5,1.5s-1.5-0.7-1.5-1.5S28,28,28.9,28S30.4,28.7,30.4,29.6z"/>
	<text transform="matrix(6.123236e-17 -1 1 6.123236e-17 30.385 26.6685)" class="st1 st2 st3">SCL</text>
</g>
<g>
	<path class="st0" d="M32.7,29.6c0,1.2,0.9,2.1,2.1,2.1s2.1-0.9,2.1-2.1c0-1.2-0.9-2.1-2.1-2.1C33.7,27.5,32.7,28.4,32.7,29.6z
		 M36.3,29.6c0,0.9-0.7,1.5-1.5,1.5s-1.5-0.7-1.5-1.5s0.7-1.5,1.5-1.5S36.3,28.7,36.3,29.6z"/>
	<text transform="matrix(6.123236e-17 -1 1 6.123236e-17 36.2869 26.6685)" class="st1 st2 st3">SDA</text>
</g>
<g>
	<path class="st0" d="M38.6,29.6c0,1.2,0.9,2.1,2.1,2.1s2.1-0.9,2.1-2.1c0-1.2-0.9-2.1-2.1-2.1C39.5,27.5,38.6,28.4,38.6,29.6z
		 M42.2,29.6c0,0.9-0.7,1.5-1.5,1.5c-0.9,0-1.5-0.7-1.5-1.5s0.7-1.5,1.5-1.5S42.2,28.7,42.2,29.6z"/>
	<text transform="matrix(6.123236e-17 -1 1 6.123236e-17 42.1873 26.6685)" class="st1 st2 st3">GPIO1</text>
</g>
<g>
	<path class="st0" d="M44.5,29.6c0,1.2,0.9,2.1,2.1,2.1c1.2,0,2.1-0.9,2.1-2.1c0-1.2-0.9-2.1-2.1-2.1C45.5,27.5,44.5,28.4,44.5,29.6
		z M48.1,29.6c0,0.9-0.7,1.5-1.5,1.5c-0.9,0-1.5-0.7-1.5-1.5s0.7-1.5,1.5-1.5C47.4,28,48.1,28.7,48.1,29.6z"/>
	<text transform="matrix(6.123236e-17 -1 1 6.123236e-17 48.0886 26.6685)" class="st1 st2 st3">XSHUT</text>
</g>
<circle class="st0" cx="48" cy="2.9" r="1.2"/>
<g>
	<rect x="25.8" y="14.7" class="st0" width="1" height="1.7"/>
	<rect x="26" y="14.7" class="st5" width="0.9" height="1.4"/>
</g>
<g>
	<rect x="27.7" y="14.7" class="st0" width="1" height="1.7"/>
	<rect x="27.9" y="14.7" class="st5" width="0.9" height="1.4"/>
</g>
<g>
	<rect x="29.6" y="14.7" class="st0" width="1" height="1.7"/>
	<rect x="29.8" y="14.7" class="st5" width="0.9" height="1.4"/>
</g>
<g>
	<rect x="31.5" y="14.7" class="st0" width="1" height="1.7"/>
	<rect x="31.5" y="14.7" class="st5" width="0.9" height="1.4"/>
</g>
<g>
	<rect x="33.2" y="14.7" class="st0" width="1" height="1.7"/>
	<rect x="33.3" y="14.7" class="st5" width="0.9" height="1.4"/>
</g>
<g>
	<rect x="25.8" y="7.2" class="st0" width="1" height="1.7"/>
	<rect x="26" y="7.4" class="st5" width="0.9" height="1.4"/>
</g>
<g>
	<rect x="27.7" y="7.2" class="st0" width="1" height="1.7"/>
	<rect x="27.9" y="7.4" class="st5" width="0.9" height="1.4"/>
</g>
<g>
	<rect x="29.6" y="7.2" class="st0" width="1" height="1.7"/>
	<rect x="29.8" y="7.4" class="st5" width="0.9" height="1.4"/>
</g>
<g>
	<rect x="31.5" y="7.2" class="st0" width="1" height="1.7"/>
	<rect x="31.5" y="7.4" class="st5" width="0.9" height="1.4"/>
</g>
<g>
	<rect x="33.2" y="7.2" class="st0" width="1" height="1.7"/>
	<rect x="33.3" y="7.4" class="st5" width="0.9" height="1.4"/>
</g>
<rect x="25.3" y="8.8" class="st6" width="9.4" height="6"/>
<rect x="25.5" y="9" class="st7" width="9.1" height="5.6"/>
<circle class="st4" cx="22.9" cy="29.6" r="1.5"/>
<circle class="st4" cx="28.9" cy="29.6" r="1.5"/>
<circle class="st4" cx="34.7" cy="29.6" r="1.5"/>
<circle class="st4" cx="40.7" cy="29.6" r="1.5"/>
<circle class="st4" cx="46.5" cy="29.6" r="1.5"/>
<g>
	<g>
		<rect x="16.3" y="29.8" class="st8" width="1.4" height="18.5"/>
	</g>
	<g>
		<rect x="16.5" y="29.8" class="st9" width="1.2" height="18.5"/>
	</g>
	<g>
		<polygon class="st9" points="17.5,49 17.7,48.3 16.3,48.3 16.6,49 		"/>
	</g>
	<g>
		<polygon class="st10" points="17.5,49 17.6,48.3 16.4,48.3 16.6,49 		"/>
	</g>
</g>
<g>
	<g>
		<path class="st11" d="M15.9,33.5h2.2c0.6,0.6,1,1,1.8,1.8v2.2c-0.6,0.6-1,1-1.8,1.8h-2.2c-0.6-0.6-1-1-1.8-1.8v-2.2
			C14.9,34.6,15.3,34.2,15.9,33.5z"/>
	</g>
	<g>
		<rect x="14.5" y="33.6" class="st6" width="4.9" height="5.7"/>
	</g>
</g>
<g>
	<g>
		<rect x="22.2" y="29.8" class="st8" width="1.4" height="18.5"/>
	</g>
	<g>
		<rect x="22.3" y="29.8" class="st9" width="1.2" height="18.5"/>
	</g>
	<g>
		<polygon class="st9" points="23.3,49 23.6,48.3 22.2,48.3 22.4,49 		"/>
	</g>
	<g>
		<polygon class="st10" points="23.3,49 23.5,48.3 22.3,48.3 22.4,49 		"/>
	</g>
</g>
<g>
	<g>
		<path class="st11" d="M21.8,33.5H24c0.6,0.6,1,1,1.8,1.8v2.2c-0.6,0.6-1,1-1.8,1.8h-2.2c-0.6-0.6-1-1-1.8-1.8v-2.2
			C20.8,34.6,21.2,34.2,21.8,33.5z"/>
	</g>
	<g>
		<rect x="20.4" y="33.6" class="st6" width="4.9" height="5.7"/>
	</g>
</g>
<g>
	<g>
		<rect x="28.1" y="29.8" class="st8" width="1.4" height="18.5"/>
	</g>
	<g>
		<rect x="28.2" y="29.8" class="st9" width="1.2" height="18.5"/>
	</g>
	<g>
		<polygon class="st9" points="29.2,49 29.5,48.3 28.1,48.3 28.3,49 		"/>
	</g>
	<g>
		<polygon class="st10" points="29.2,49 29.3,48.3 28.2,48.3 28.3,49 		"/>
	</g>
</g>
<g>
	<g>
		<path class="st11" d="M27.7,33.5h2.2c0.6,0.6,1,1,1.8,1.8v2.2c-0.6,0.6-1,1-1.8,1.8h-2.2c-0.6-0.6-1-1-1.8-1.8v-2.2
			C26.6,34.6,27,34.2,27.7,33.5z"/>
	</g>
	<g>
		<rect x="26.3" y="33.6" class="st6" width="4.9" height="5.7"/>
	</g>
</g>
<g>
	<g>
		<rect x="33.9" y="29.8" class="st8" width="1.4" height="18.5"/>
	</g>
	<g>
		<rect x="34.1" y="29.8" class="st9" width="1.2" height="18.5"/>
	</g>
	<g>
		<polygon class="st9" points="35.1,49 35.3,48.3 33.9,48.3 34.2,49 		"/>
	</g>
	<g>
		<polygon class="st10" points="35.1,49 35.2,48.3 34.1,48.3 34.2,49 		"/>
	</g>
</g>
<g>
	<g>
		<path class="st11" d="M33.5,33.5h2.2c0.6,0.6,1,1,1.8,1.8v2.2c-0.6,0.6-1,1-1.8,1.8h-2.2c-0.6-0.6-1-1-1.8-1.8v-2.2
			C32.5,34.6,32.9,34.2,33.5,33.5z"/>
	</g>
	<g>
		<rect x="32.2" y="33.6" class="st6" width="4.9" height="5.7"/>
	</g>
</g>
</svg>
