<?xml version="1.0" encoding="utf-8"?>
<!-- Generator: Adobe Illustrator 23.0.1, SVG Export Plug-In . SVG Version: 6.00 Build 0)  -->
<svg version="1.1" id="Layer_1" xmlns="http://www.w3.org/2000/svg" xmlns:xlink="http://www.w3.org/1999/xlink" x="0px" y="0px"
	 viewBox="0 0 45.4 70.9" style="enable-background:new 0 0 45.4 70.9;" xml:space="preserve">
<style type="text/css">
	.st0{fill:#1D2856;}
	.st1{fill:#FFFFFF;}
	.st2{fill:#E5E5EC;}
	.st3{fill:#B38E80;}
	.st4{fill:#E4E6DE;}
	.st5{fill:#D1D1D1;}
	.st6{fill:#29292B;}
	.st7{fill:#595859;}
	.st8{enable-background:new    ;}
	.st9{fill:#BE9349;}
</style>
<g>
	<path class="st0" d="M45.4,0H0v70.9h45.4V0z M0.6,56.7c0-2.3,1.9-4.3,4.3-4.3c2.3,0,4.3,1.9,4.3,4.3C9.2,59,7.3,61,4.9,61
		S0.6,59.1,0.6,56.7z M36.2,56.7c0-2.3,1.9-4.3,4.3-4.3c2.3,0,4.3,1.9,4.3,4.3c0,2.3-1.9,4.3-4.3,4.3C38.1,61,36.2,59.1,36.2,56.7z
		 M10.1,66.4v-1c0-0.9,0.8-1.7,1.7-1.7c1,0,1.7,0.8,1.7,1.7v1c0,1-0.8,1.7-1.7,1.7C10.8,68.1,10.1,67.3,10.1,66.4z M17.3,66.4v-1
		c-0.1-0.9,0.7-1.7,1.7-1.7c1,0,1.7,0.8,1.7,1.7v1c0,1-0.8,1.7-1.7,1.7C18,68.1,17.3,67.3,17.3,66.4z M24.4,66.4v-1
		c0-0.9,0.8-1.7,1.7-1.7c1,0,1.7,0.8,1.7,1.7v1c0,1-0.8,1.7-1.7,1.7C25.1,68.1,24.4,67.3,24.4,66.4z M31.6,66.4v-1
		c-0.1-0.9,0.7-1.7,1.7-1.7s1.7,0.8,1.7,1.7v1c0,1-0.8,1.7-1.7,1.7C32.3,68.1,31.6,67.3,31.6,66.4z"/>
	<g>
		<g>
			<g>
				<rect x="38.6" y="9" class="st1" width="3" height="2.4"/>
				<rect x="38.8" y="9.3" class="st2" width="2.5" height="1.8"/>
			</g>
			<g>
				<rect x="38.5" y="14.5" class="st1" width="3" height="2.4"/>
				<rect x="38.8" y="14.7" class="st2" width="2.5" height="1.8"/>
			</g>
		</g>
		<g id="_x3C_Group_x3E__Capacitor_4_">
			<rect x="38.8" y="10.1" class="st1" width="2.6" height="1.3"/>
			<rect x="38.8" y="14.4" class="st1" width="2.6" height="1.3"/>
			<rect x="38.8" y="11.5" class="st3" width="2.6" height="3"/>
		</g>
	</g>
	<g>
		<g>
			<g>
				<rect x="38.6" y="27.4" class="st1" width="3" height="2.4"/>
				<rect x="38.8" y="27.7" class="st2" width="2.5" height="1.8"/>
			</g>
			<g>
				<rect x="38.5" y="32.9" class="st1" width="3" height="2.4"/>
				<rect x="38.8" y="33.2" class="st2" width="2.5" height="1.8"/>
			</g>
		</g>
		<g id="_x3C_Group_x3E__Capacitor_3_">
			<rect x="38.7" y="28.6" class="st1" width="2.6" height="1.3"/>
			<rect x="38.8" y="32.9" class="st1" width="2.6" height="1.3"/>
			<rect x="38.8" y="29.9" class="st4" width="2.6" height="3"/>
		</g>
	</g>
	<g>
		<g>
			<rect x="30.3" y="31.7" class="st5" width="1.9" height="1.8"/>
			<rect x="26.6" y="31.7" class="st5" width="1.9" height="1.8"/>
			<rect x="22.9" y="31.7" class="st5" width="1.9" height="1.8"/>
			<rect x="19.2" y="31.7" class="st5" width="1.9" height="1.8"/>
			<rect x="15.4" y="31.7" class="st5" width="1.9" height="1.8"/>
			<rect x="11.6" y="31.7" class="st5" width="1.9" height="1.8"/>
			<rect x="8" y="31.7" class="st5" width="1.9" height="1.8"/>
			<rect x="4.2" y="31.7" class="st5" width="1.9" height="1.8"/>
		</g>
		<rect x="30.3" y="7.2" class="st5" width="1.9" height="1.8"/>
		<rect x="26.6" y="7.2" class="st5" width="1.9" height="1.8"/>
		<rect x="22.9" y="7.2" class="st5" width="1.9" height="1.8"/>
		<rect x="19.2" y="7.2" class="st5" width="1.9" height="1.8"/>
		<rect x="15.4" y="7.2" class="st5" width="1.9" height="1.8"/>
		<rect x="11.6" y="7.2" class="st5" width="1.9" height="1.8"/>
		<rect x="8" y="7.2" class="st5" width="1.9" height="1.8"/>
		<rect x="4.2" y="7.2" class="st5" width="1.9" height="1.8"/>
		<rect x="3.5" y="9" class="st6" width="30" height="22.7"/>
		<g>
			<g>
				<g>
					<rect x="30.2" y="5.4" class="st1" width="2.2" height="4.1"/>
					<rect x="30.5" y="5.9" class="st2" width="1.5" height="3.3"/>
				</g>
			</g>
			<g>
				<g>
					<rect x="26.4" y="5.4" class="st1" width="2.2" height="4.1"/>
					<rect x="26.8" y="5.9" class="st2" width="1.5" height="3.3"/>
				</g>
			</g>
			<g>
				<g>
					<rect x="22.8" y="5.4" class="st1" width="2.2" height="4.1"/>
					<rect x="23.1" y="5.9" class="st2" width="1.5" height="3.3"/>
				</g>
			</g>
			<g>
				<g>
					<rect x="19" y="5.4" class="st1" width="2.2" height="4.1"/>
					<rect x="19.3" y="5.9" class="st2" width="1.5" height="3.3"/>
				</g>
			</g>
			<g>
				<g>
					<rect x="15.3" y="5.4" class="st1" width="2.2" height="4.1"/>
					<rect x="15.6" y="5.9" class="st2" width="1.5" height="3.3"/>
				</g>
			</g>
			<g>
				<g>
					<rect x="11.5" y="5.4" class="st1" width="2.2" height="4.1"/>
					<rect x="11.9" y="5.9" class="st2" width="1.5" height="3.3"/>
				</g>
			</g>
			<g>
				<g>
					<rect x="7.8" y="5.4" class="st1" width="2.2" height="4.1"/>
					<rect x="8.1" y="5.9" class="st2" width="1.5" height="3.3"/>
				</g>
			</g>
			<g>
				<g>
					<rect x="4.1" y="5.4" class="st1" width="2.2" height="4.1"/>
					<rect x="4.4" y="5.9" class="st2" width="1.5" height="3.3"/>
				</g>
			</g>
			<g>
				<g>
					<rect x="30.2" y="31.3" class="st1" width="2.2" height="4.1"/>
					<rect x="30.5" y="31.7" class="st2" width="1.5" height="3.3"/>
				</g>
			</g>
			<g>
				<g>
					<rect x="26.4" y="31.3" class="st1" width="2.2" height="4.1"/>
					<rect x="26.8" y="31.7" class="st2" width="1.5" height="3.3"/>
				</g>
			</g>
			<g>
				<g>
					<rect x="22.8" y="31.3" class="st1" width="2.2" height="4.1"/>
					<rect x="23.1" y="31.7" class="st2" width="1.5" height="3.3"/>
				</g>
			</g>
			<g>
				<g>
					<rect x="19" y="31.3" class="st1" width="2.2" height="4.1"/>
					<rect x="19.3" y="31.7" class="st2" width="1.5" height="3.3"/>
				</g>
			</g>
			<g>
				<g>
					<rect x="15.3" y="31.3" class="st1" width="2.2" height="4.1"/>
					<rect x="15.6" y="31.7" class="st2" width="1.5" height="3.3"/>
				</g>
			</g>
			<g>
				<g>
					<rect x="11.5" y="31.3" class="st1" width="2.2" height="4.1"/>
					<rect x="11.9" y="31.7" class="st2" width="1.5" height="3.3"/>
				</g>
			</g>
			<g>
				<g>
					<rect x="7.8" y="31.3" class="st1" width="2.2" height="4.1"/>
					<rect x="8.1" y="31.7" class="st2" width="1.5" height="3.3"/>
				</g>
			</g>
			<g>
				<g>
					<rect x="4.1" y="31.3" class="st1" width="2.2" height="4.1"/>
					<rect x="4.4" y="31.7" class="st2" width="1.5" height="3.3"/>
				</g>
			</g>
			<g>
				<path class="st7" d="M32.8,30.9v-8.5c-1.2,0-2.2-1-2.2-2.2c0-1.2,1-2.2,2.2-2.2V9.8H4.2v21.1C4.2,30.9,32.8,30.9,32.8,30.9z"/>
			</g>
		</g>
	</g>
	<g class="st8">
		<path class="st1" d="M31.5,54l3.4-1.1v0.5l-2.7,0.8l2.7,0.8v0.5l-3.4-1.1C31.5,54.4,31.5,54,31.5,54z"/>
		<path class="st1" d="M31.4,57c0-0.2,0.1-0.4,0.2-0.6c0.1-0.2,0.3-0.3,0.4-0.4c0.2-0.1,0.4-0.1,0.7-0.1h0.9c0.3,0,0.5,0,0.7,0.1
			c0.2,0.1,0.3,0.2,0.4,0.4s0.2,0.4,0.2,0.6c0,0.2,0,0.4-0.1,0.5c-0.1,0.2-0.2,0.3-0.4,0.4c-0.2,0.1-0.3,0.2-0.5,0.2v-0.5
			c0.1,0,0.2-0.1,0.3-0.1c0.1-0.1,0.1-0.2,0.2-0.2c0-0.1,0.1-0.2,0.1-0.3c0-0.2-0.1-0.4-0.2-0.5c-0.3-0.1-0.4-0.2-0.7-0.2h-0.9
			c-0.2,0-0.4,0.1-0.6,0.2c-0.1,0.1-0.2,0.3-0.2,0.5c0,0.1,0,0.3,0.1,0.4c0.1,0.1,0.2,0.2,0.4,0.3v0.5c-0.2,0-0.4-0.1-0.5-0.2
			c-0.1-0.1-0.3-0.2-0.3-0.4S31.4,57.2,31.4,57z"/>
		<path class="st1" d="M31.4,60c0-0.2,0.1-0.4,0.2-0.6c0.1-0.2,0.3-0.3,0.4-0.4c0.2-0.1,0.4-0.1,0.7-0.1h0.9c0.3,0,0.5,0,0.7,0.1
			c0.2,0.1,0.3,0.2,0.4,0.4s0.2,0.4,0.2,0.6c0,0.2,0,0.4-0.1,0.5c-0.1,0.2-0.2,0.3-0.4,0.4c-0.2,0.1-0.3,0.2-0.5,0.2v-0.5
			c0.1,0,0.2-0.1,0.3-0.1c0.1-0.1,0.1-0.2,0.2-0.2c0-0.1,0.1-0.2,0.1-0.3c0-0.2-0.1-0.4-0.2-0.5c-0.3-0.2-0.4-0.2-0.7-0.2h-0.9
			c-0.2,0-0.4,0.1-0.6,0.2c-0.1,0.1-0.2,0.3-0.2,0.5c0,0.1,0,0.3,0.1,0.4s0.2,0.2,0.4,0.3v0.5c-0.2,0-0.4-0.1-0.5-0.2
			c-0.1-0.1-0.3-0.2-0.3-0.4S31.4,60.2,31.4,60z"/>
	</g>
	<path class="st9" d="M35.5,66.6v-1.3c0-1.3-1-2.3-2.3-2.3c-1.3,0-2.3,1-2.3,2.3v1.3c0,1.3,1,2.3,2.3,2.3
		C34.5,68.9,35.5,67.9,35.5,66.6z M31.5,66.4v-1c-0.1-0.9,0.7-1.7,1.7-1.7c1,0,1.7,0.8,1.7,1.7v1c0,1-0.8,1.7-1.7,1.7
		C32.2,68.1,31.5,67.3,31.5,66.4z"/>
	<g class="st8">
		<path class="st1" d="M24.5,54.2c0-0.2,0-0.5,0.1-0.7s0.2-0.4,0.3-0.6l0.4,0.3c-0.1,0.1-0.2,0.3-0.3,0.4c-0.1,0.2-0.1,0.3-0.1,0.5
			s0,0.4,0.1,0.6c0.1,0.1,0.2,0.2,0.4,0.2l0,0c0.1,0,0.2,0,0.3-0.1c0.1-0.1,0.1-0.2,0.2-0.3c0-0.1,0.1-0.2,0.1-0.4
			c0-0.1,0-0.3,0.1-0.4c0.1-0.1,0.1-0.2,0.1-0.4c0.1-0.1,0.2-0.2,0.3-0.3c0.1-0.1,0.3-0.1,0.5-0.1l0,0c0.3,0,0.6,0.1,0.7,0.3
			c0.2,0.2,0.3,0.5,0.3,0.9c0,0.2,0,0.4-0.1,0.5c-0.1,0.2-0.1,0.3-0.3,0.5h-0.4c0.2-0.3,0.3-0.5,0.3-0.8c0-0.2,0-0.4-0.1-0.5
			c-0.1-0.1-0.2-0.2-0.4-0.2l0,0c-0.1,0-0.2,0-0.3,0.1c-0.1,0.1-0.1,0.2-0.1,0.3c0,0.1-0.1,0.2-0.1,0.4c0,0.1-0.1,0.2-0.1,0.4
			c0,0.1-0.1,0.2-0.2,0.3c-0.1,0.1-0.2,0.2-0.3,0.2c-0.1,0.1-0.3,0.1-0.5,0.1l0,0c-0.3,0-0.6-0.1-0.7-0.3
			C24.5,54.9,24.5,54.6,24.5,54.2z"/>
		<path class="st1" d="M24.5,57.2c0-0.2,0.1-0.4,0.2-0.6c0.1-0.2,0.3-0.3,0.4-0.4c0.2-0.1,0.4-0.1,0.7-0.1h0.9c0.3,0,0.5,0,0.7,0.1
			c0.2,0.1,0.3,0.2,0.4,0.4S28,57,28,57.2c0,0.2,0,0.4-0.1,0.5c-0.1,0.2-0.2,0.3-0.4,0.4c-0.2,0.1-0.4,0.3-0.6,0.3v-0.5
			c0.1,0,0.2-0.1,0.3-0.1c0.1-0.1,0.1-0.2,0.2-0.2c0-0.1,0.1-0.2,0.1-0.3c0-0.2-0.1-0.4-0.2-0.5c-0.1-0.1-0.3-0.2-0.6-0.2h-0.9
			c-0.2,0-0.4,0.1-0.6,0.2c-0.1,0.1-0.2,0.3-0.2,0.5c0,0.1,0,0.3,0.1,0.4s0.2,0.2,0.4,0.3v0.4c-0.2,0-0.4-0.1-0.5-0.2
			c-0.1-0.1-0.3-0.2-0.3-0.4S24.5,57.4,24.5,57.2z"/>
		<path class="st1" d="M24.5,59.1h3.4v0.5h-3.4V59.1z M24.5,59.3H25v1.9h-0.5V59.3z"/>
	</g>
	<path class="st9" d="M28.6,66.6v-1.3c0-1.3-1-2.3-2.3-2.3c-1.2,0-2.3,1-2.3,2.3v1.3c0,1.3,1,2.3,2.3,2.3
		C27.6,68.9,28.6,67.9,28.6,66.6z M24.6,66.4v-1c0-0.9,0.8-1.7,1.7-1.7c1,0,1.7,0.8,1.7,1.7v1c0,1-0.8,1.7-1.7,1.7
		C25.3,68.1,24.6,67.3,24.6,66.4z"/>
	<g class="st8">
		<path class="st1" d="M17.3,54.2c0-0.2,0-0.5,0.1-0.7s0.2-0.4,0.3-0.6l0.4,0.3c-0.1,0.1-0.2,0.3-0.3,0.4c-0.1,0.2-0.1,0.3-0.1,0.5
			s0,0.4,0.1,0.6c0.1,0.1,0.2,0.2,0.4,0.2l0,0c0.1,0,0.2,0,0.3-0.1c0.1-0.1,0.1-0.2,0.2-0.3c0-0.1,0.1-0.2,0.1-0.4
			c0-0.1,0-0.3,0.1-0.4c0.1-0.1,0.1-0.2,0.1-0.4c0.1-0.1,0.2-0.2,0.3-0.3c0.1-0.1,0.3-0.1,0.5-0.1l0,0c0.3,0,0.6,0.1,0.7,0.3
			c0.2,0.2,0.3,0.5,0.3,0.9c0,0.2,0,0.4-0.1,0.5c-0.1,0.2-0.1,0.3-0.3,0.5L20,54.8c0.2-0.3,0.3-0.5,0.3-0.8c0-0.2,0-0.4-0.1-0.5
			c-0.1-0.1-0.2-0.2-0.4-0.2l0,0c-0.1,0-0.2,0-0.3,0.1c-0.1,0.1-0.1,0.2-0.1,0.3c0,0.1-0.1,0.2-0.1,0.4c0,0.1-0.1,0.2-0.1,0.4
			c0,0.1-0.1,0.2-0.2,0.3c-0.1,0.1-0.2,0.2-0.3,0.2c-0.1,0.1-0.3,0.1-0.4,0.1l0,0c-0.3,0-0.6-0.1-0.7-0.3
			C17.3,54.9,17.3,54.6,17.3,54.2z"/>
		<path class="st1" d="M17.3,56.1h3.4v0.5h-3.4V56.1z M17.3,56.5h0.5v0.8c0,0.2,0.1,0.4,0.2,0.6c0.1,0.1,0.3,0.2,0.5,0.2h1
			c0.2,0,0.4-0.1,0.5-0.2c0.1-0.1,0.2-0.3,0.2-0.6v-0.8h0.5v0.8c0,0.4-0.1,0.7-0.3,1c-0.2,0.2-0.5,0.3-0.9,0.3h-1
			c-0.4,0-0.7-0.1-0.9-0.3c-0.2-0.2-0.3-0.5-0.3-1C17.3,57.3,17.3,56.5,17.3,56.5z"/>
		<path class="st1" d="M17.3,58.9l3.4,1.2v0.4l-3.4,1.2v-0.5l2.7-0.9l-2.7-0.9V58.9z M18,59.5h0.5v1.8H18V59.5z"/>
	</g>
	<path class="st9" d="M21.4,66.6v-1.3c0-1.3-1-2.3-2.3-2.3c-1.3,0-2.3,1-2.3,2.3v1.3c0,1.3,1,2.3,2.3,2.3
		C20.4,68.9,21.4,67.9,21.4,66.6z M17.4,66.4v-1c-0.1-0.9,0.7-1.7,1.7-1.7c1,0,1.7,0.8,1.7,1.7v1c0,1-0.8,1.7-1.7,1.7
		C18.1,68.1,17.4,67.3,17.4,66.4z"/>
	<g class="st8">
		<path class="st1" d="M11.8,54.1v1.2h-0.6c-0.3,0-0.5,0-0.7-0.1c-0.2-0.1-0.3-0.2-0.4-0.4c-0.1-0.2-0.2-0.4-0.2-0.6
			c0-0.2,0-0.5,0.1-0.6c0.1-0.2,0.2-0.3,0.4-0.4c0.3-0.3,0.5-0.3,0.7-0.3h1c0.3,0,0.5,0,0.7,0.1c0.2,0.1,0.3,0.2,0.4,0.4
			s0.2,0.4,0.2,0.6c0,0.2,0,0.4-0.1,0.5c-0.1,0.2-0.2,0.3-0.4,0.4c-0.2,0.1-0.3,0.2-0.5,0.2v-0.5c0.2,0,0.3-0.1,0.4-0.3
			s0.1-0.3,0.1-0.4c0-0.2-0.1-0.4-0.2-0.5c-0.1-0.1-0.3-0.2-0.6-0.2h-1c-0.2,0-0.4,0.1-0.5,0.2c-0.1,0.1-0.2,0.3-0.2,0.5
			s0.1,0.4,0.2,0.5c0.1,0.1,0.3,0.2,0.6,0.2h0.1v-0.7h0.5V54.1z"/>
		<path class="st1" d="M10,56h3.4v0.4l-2.6,1.7L10.7,58h2.7v0.5H10v-0.4l2.6-1.6l0.1,0.1h-2.6L10,56L10,56z"/>
		<path class="st1" d="M10,59.4h3.4v0.5H10V59.4z M10,59.7h0.5v0.8c0,0.2,0.1,0.4,0.2,0.6c0.1,0.1,0.3,0.2,0.5,0.2h1
			c0.2,0,0.4-0.1,0.5-0.2s0.2-0.3,0.2-0.6v-0.8h0.5v0.8c0,0.4-0.1,0.7-0.3,1c-0.2,0.2-0.5,0.3-0.9,0.3h-1c-0.4,0-0.7-0.1-0.9-0.3
			S10,61,10,60.5V59.7z"/>
	</g>
	<path class="st9" d="M14,66.6v-1.3c0-1.3-1-2.3-2.3-2.3c-1.2,0-2.2,1-2.3,2.3v1.3c0,1.3,1,2.3,2.3,2.3S14,67.9,14,66.6z M10,66.4
		v-1c0-0.9,0.8-1.7,1.7-1.7c1,0,1.7,0.8,1.7,1.7v1c0,1-0.8,1.7-1.7,1.7C10.7,68.1,10,67.3,10,66.4z"/>
	<g>
		<g>
			<g>
				<rect x="33.2" y="39.7" class="st1" width="2.1" height="2.6"/>
				<rect x="33.4" y="39.9" class="st2" width="1.6" height="2.2"/>
			</g>
			<g>
				<rect x="33.2" y="44.1" class="st1" width="2.1" height="2.6"/>
				<rect x="33.4" y="44.3" class="st2" width="1.6" height="2.2"/>
			</g>
		</g>
		<g>
			<g>
				<rect x="31.1" y="39.7" class="st1" width="2.1" height="2.6"/>
				<rect x="31.3" y="39.9" class="st2" width="1.6" height="2.2"/>
			</g>
			<g>
				<rect x="31.1" y="44.1" class="st1" width="2.1" height="2.6"/>
				<rect x="31.3" y="44.3" class="st2" width="1.6" height="2.2"/>
			</g>
		</g>
		<g>
			<g>
				<rect x="29" y="39.7" class="st1" width="2.1" height="2.6"/>
				<rect x="29.2" y="39.9" class="st2" width="1.6" height="2.2"/>
			</g>
			<g>
				<rect x="29" y="44.1" class="st1" width="2.1" height="2.6"/>
				<rect x="29.2" y="44.3" class="st2" width="1.6" height="2.2"/>
			</g>
		</g>
		<g>
			<g>
				<rect x="26.9" y="39.7" class="st1" width="2.1" height="2.6"/>
				<rect x="27.1" y="39.9" class="st2" width="1.6" height="2.2"/>
			</g>
			<g>
				<rect x="26.9" y="44.1" class="st1" width="2.1" height="2.6"/>
				<rect x="27.1" y="44.3" class="st2" width="1.6" height="2.2"/>
			</g>
		</g>
		<g>
			<rect x="27" y="40.9" class="st6" width="7.9" height="4.4"/>
			<rect x="27.1" y="41.2" class="st7" width="7.9" height="3.9"/>
		</g>
	</g>
</g>
</svg>
