<?xml version="1.0" encoding="utf-8"?>
<!-- Generator: Adobe Illustrator 19.0.0, SVG Export Plug-In . SVG Version: 6.00 Build 0)  -->
<svg version="1.1" id="Layer_1" xmlns="http://www.w3.org/2000/svg" xmlns:xlink="http://www.w3.org/1999/xlink" x="0px" y="0px"
	 viewBox="0 0 141.7 107.7" style="enable-background:new 0 0 141.7 107.7;" xml:space="preserve">
<style type="text/css">
	.st0{fill:#FBB040;}
	.st1{fill:#BE1E2D;}
	.st2{fill:#414042;}
	.st3{fill:#345A6D;}
	.st4{fill:#00AEEF;}
	.st5{opacity:0.5;fill:#345A6D;}
	.st6{fill:#FFFFFF;}
	.st7{fill:#E6E7E8;}
	.st8{fill:#D1D3D4;}
	.st9{opacity:0.6;fill:#BCBEC0;}
</style>
<path id="XMLID_8_" class="st0" d="M96.9,105.2L96.9,105.2c-0.9,0-1.5-0.7-1.5-1.5V77.5c0-0.9,0.7-1.5,1.5-1.5l0,0
	c0.9,0,1.5,0.7,1.5,1.5v26.1C98.5,104.5,97.8,105.2,96.9,105.2z"/>
<path id="XMLID_21_" class="st1" d="M90.8,105.2L90.8,105.2c-0.9,0-1.5-0.7-1.5-1.5V77.5c0-0.9,0.7-1.5,1.5-1.5h0
	c0.9,0,1.5,0.7,1.5,1.5v26.1C92.3,104.5,91.6,105.2,90.8,105.2z"/>
<path id="XMLID_26_" class="st2" d="M93.8,105.2L93.8,105.2c-0.9,0-1.5-0.7-1.5-1.5V77.5c0-0.9,0.7-1.5,1.5-1.5l0,0
	c0.9,0,1.5,0.7,1.5,1.5v26.1C95.4,104.5,94.7,105.2,93.8,105.2z"/>
<rect id="XMLID_16_" x="98.9" y="73.4" width="42.1" height="34.3"/>
<path id="XMLID_11_" d="M142.2,22.8c-0.9-7.2-6-8.3-6-8.3c-8.3-1.7-7.7-5.1-7.7-5.1c-2.4-12.4-7.2-11.1-7.2-11.1l-52.5,0L68.5,77
	l69.5-0.6c5.1-1,4-12.2,4-12.2S143.1,30,142.2,22.8z"/>
<path id="XMLID_10_" d="M68.7-1.7l-61.4,0C-2.4,2.4-1,17.4-1,17.4l-0.1,31.6c-0.4,29,0,28.4,6.1,28.5c8.5,0.2,9.5,3.5,11,8.8
	c2,7.1,7.4,8.2,7.4,8.2h38.3c6.2-0.6,6.4-6.4,6.4-6.4V75.1h0.4V-1.7z"/>
<path id="XMLID_5_" class="st3" d="M7.4-1.6l115.9,0c0,0,4.4-1.2,6.6,10.7c0,0-0.6,3.2,7.1,4.9c0,0,4.7,1,5.5,8s-0.2,39.8-0.2,39.8
	s1,10.8-3.6,11.7l-70.3,0.1v12.8c0,0-0.2,5.8-6.4,6.3H23.7c0,0-5.4-1.1-7.4-8c-1.5-5.2-2.6-8.4-11-8.6C-1,75.8-1.3,76.4-1,48l0.1-31
	C-0.9,17.1-2.2,2.3,7.4-1.6z"/>
<path id="XMLID_15_" class="st4" d="M68.9-1.7l-61.4,0C-2.1,2.3-0.8,17-0.8,17l-0.1,31c-0.4,28.4,0,27.7,6.1,27.9
	c8.5,0.2,9.5,3.5,11,8.6c2,6.9,7.4,8,7.4,8h38.3c6.2-0.6,6.4-6.3,6.4-6.3V73.4h0.4V-1.7z"/>
<path id="XMLID_13_" class="st4" d="M142.3,21.8c-0.8-7-5.5-8-5.5-8c-7.6-1.6-7.1-4.9-7.1-4.9C127.5-2.9,123-1.7,123-1.7l-48.3,0
	l-0.3,75.6l64.1-0.6c4.7-0.9,3.6-11.7,3.6-11.7S143.1,28.8,142.3,21.8z"/>
<path id="XMLID_4_" class="st5" d="M6.8,69.9C7,46.1,7.3,22.2,7.5-1.7C-2.1,2.3-0.8,17-0.8,17l-0.1,31c-0.4,28.4,0,27.7,6.1,27.9
	c8.5,0.2,9.5,3.5,11,8.6c2,6.9,7.4,8,7.4,8h38.3c2.2-0.2,3.7-1.1,4.6-2.1c1.5-1.6,1.8-4.2,1.8-4.2c0,0-0.1,0.3-0.4,1.4
	c-14.6,0.1-29.1,0.2-43.7,0.2c-0.2-1.6-1.1-7.9-6.3-12.8C13.5,70.7,8.5,70.1,6.8,69.9z"/>
<path id="XMLID_9_" class="st5" d="M74.3,68.2h54.7c0,0,9.7,0.3,13.1-9.9c0,0,2.3,14.9-5.2,15c-7.4,0.1-62.6,0.6-62.6,0.6V68.2z"/>
<rect id="XMLID_12_" x="68.5" y="75.3" width="20.7" height="24"/>
<rect id="XMLID_17_" x="83.6" y="105.3" width="16.7" height="2.4"/>
<path id="XMLID_18_" d="M50.9,20.3H21.4c-1.3,0-2.4-1.1-2.4-2.4V9.4c0-1.3,1.1-2.4,2.4-2.4h29.5c1.3,0,2.4,1.1,2.4,2.4v8.6
	C53.3,19.2,52.2,20.3,50.9,20.3z"/>
<path id="XMLID_19_" class="st6" d="M49.9,18.7H22.5c-1,0-1.8-0.8-1.8-1.8v-6.8c0-1,0.8-1.8,1.8-1.8h27.4c1,0,1.8,0.8,1.8,1.8v6.8
	C51.7,17.9,50.9,18.7,49.9,18.7z"/>
<rect id="XMLID_20_" x="20.7" y="10.1" class="st7" width="31.1" height="0.4"/>
<g id="XMLID_36_">
	<path id="XMLID_7_" class="st8" d="M24.6,17.6h-0.4v0.6c0,0,0,0.1-0.1,0.1h-2.3c0,0-0.1,0-0.1-0.1v-0.6h-0.4
		c-0.1,0-0.2-0.1-0.2-0.2v-6.1c0-0.1,0.1-0.2,0.2-0.2h3.2c0.1,0,0.2,0.1,0.2,0.2v6.1C24.8,17.5,24.7,17.6,24.6,17.6z"/>
	<path id="XMLID_1_" class="st9" d="M24.5,17.4h-0.4V18c0,0,0,0.1-0.1,0.1h-2.1c0,0-0.1,0-0.1-0.1v-0.6h-0.4c-0.1,0-0.2-0.1-0.2-0.2
		v-5.7c0-0.1,0.1-0.2,0.2-0.2h3c0.1,0,0.2,0.1,0.2,0.2v5.7C24.7,17.3,24.6,17.4,24.5,17.4z"/>
	<path id="XMLID_6_" class="st8" d="M28.4,17.6H28v0.6c0,0,0,0.1-0.1,0.1h-2.3c0,0-0.1,0-0.1-0.1v-0.6h-0.4c-0.1,0-0.2-0.1-0.2-0.2
		v-6.1c0-0.1,0.1-0.2,0.2-0.2h3.2c0.1,0,0.2,0.1,0.2,0.2v6.1C28.6,17.5,28.5,17.6,28.4,17.6z"/>
	<path id="XMLID_2_" class="st9" d="M28.3,17.4h-0.4V18c0,0,0,0.1-0.1,0.1h-2.1c0,0-0.1,0-0.1-0.1v-0.6h-0.4c-0.1,0-0.2-0.1-0.2-0.2
		v-5.7c0-0.1,0.1-0.2,0.2-0.2h3c0.1,0,0.2,0.1,0.2,0.2v5.7C28.4,17.3,28.4,17.4,28.3,17.4z"/>
	<path id="XMLID_25_" class="st8" d="M32.1,17.6h-0.4v0.6c0,0,0,0.1-0.1,0.1h-2.3c0,0-0.1,0-0.1-0.1v-0.6h-0.4
		c-0.1,0-0.2-0.1-0.2-0.2v-6.1c0-0.1,0.1-0.2,0.2-0.2h3.2c0.1,0,0.2,0.1,0.2,0.2v6.1C32.3,17.5,32.3,17.6,32.1,17.6z"/>
	<path id="XMLID_24_" class="st9" d="M32,17.4h-0.4V18c0,0,0,0.1-0.1,0.1h-2.1c0,0-0.1,0-0.1-0.1v-0.6H29c-0.1,0-0.2-0.1-0.2-0.2
		v-5.7c0-0.1,0.1-0.2,0.2-0.2h3c0.1,0,0.2,0.1,0.2,0.2v5.7C32.2,17.3,32.1,17.4,32,17.4z"/>
	<path id="XMLID_23_" class="st8" d="M35.9,17.6h-0.4v0.6c0,0,0,0.1-0.1,0.1h-2.3c0,0-0.1,0-0.1-0.1v-0.6h-0.4
		c-0.1,0-0.2-0.1-0.2-0.2v-6.1c0-0.1,0.1-0.2,0.2-0.2h3.2c0.1,0,0.2,0.1,0.2,0.2v6.1C36.1,17.5,36,17.6,35.9,17.6z"/>
	<path id="XMLID_22_" class="st9" d="M35.8,17.4h-0.4V18c0,0,0,0.1-0.1,0.1h-2.1c0,0-0.1,0-0.1-0.1v-0.6h-0.4
		c-0.1,0-0.2-0.1-0.2-0.2v-5.7c0-0.1,0.1-0.2,0.2-0.2h3c0.1,0,0.2,0.1,0.2,0.2v5.7C36,17.3,35.9,17.4,35.8,17.4z"/>
	<path id="XMLID_35_" class="st8" d="M39.7,17.6h-0.4v0.6c0,0,0,0.1-0.1,0.1h-2.3c0,0-0.1,0-0.1-0.1v-0.6h-0.4
		c-0.1,0-0.2-0.1-0.2-0.2v-6.1c0-0.1,0.1-0.2,0.2-0.2h3.2c0.1,0,0.2,0.1,0.2,0.2v6.1C39.9,17.5,39.8,17.6,39.7,17.6z"/>
	<path id="XMLID_34_" class="st9" d="M39.6,17.4h-0.4V18c0,0,0,0.1-0.1,0.1H37c0,0-0.1,0-0.1-0.1v-0.6h-0.4c-0.1,0-0.2-0.1-0.2-0.2
		v-5.7c0-0.1,0.1-0.2,0.2-0.2h3c0.1,0,0.2,0.1,0.2,0.2v5.7C39.7,17.3,39.7,17.4,39.6,17.4z"/>
	<path id="XMLID_33_" class="st8" d="M43.5,17.6H43v0.6c0,0,0,0.1-0.1,0.1h-2.3c0,0-0.1,0-0.1-0.1v-0.6h-0.4c-0.1,0-0.2-0.1-0.2-0.2
		v-6.1c0-0.1,0.1-0.2,0.2-0.2h3.2c0.1,0,0.2,0.1,0.2,0.2v6.1C43.6,17.5,43.6,17.6,43.5,17.6z"/>
	<path id="XMLID_32_" class="st9" d="M43.3,17.4H43V18c0,0,0,0.1-0.1,0.1h-2.1c0,0-0.1,0-0.1-0.1v-0.6h-0.4c-0.1,0-0.2-0.1-0.2-0.2
		v-5.7c0-0.1,0.1-0.2,0.2-0.2h3c0.1,0,0.2,0.1,0.2,0.2v5.7C43.5,17.3,43.4,17.4,43.3,17.4z"/>
	<path id="XMLID_30_" class="st8" d="M47.2,17.6h-0.4v0.6c0,0,0,0.1-0.1,0.1h-2.3c0,0-0.1,0-0.1-0.1v-0.6H44c-0.1,0-0.2-0.1-0.2-0.2
		v-6.1c0-0.1,0.1-0.2,0.2-0.2h3.2c0.1,0,0.2,0.1,0.2,0.2v6.1C47.4,17.5,47.3,17.6,47.2,17.6z"/>
	<path id="XMLID_29_" class="st9" d="M47.1,17.4h-0.4V18c0,0,0,0.1-0.1,0.1h-2.1c0,0-0.1,0-0.1-0.1v-0.6h-0.4
		c-0.1,0-0.2-0.1-0.2-0.2v-5.7c0-0.1,0.1-0.2,0.2-0.2h3c0.1,0,0.2,0.1,0.2,0.2v5.7C47.3,17.3,47.2,17.4,47.1,17.4z"/>
	<path id="XMLID_28_" class="st8" d="M51,17.6h-0.4v0.6c0,0,0,0.1-0.1,0.1h-2.3c0,0-0.1,0-0.1-0.1v-0.6h-0.4c-0.1,0-0.2-0.1-0.2-0.2
		v-6.1c0-0.1,0.1-0.2,0.2-0.2H51c0.1,0,0.2,0.1,0.2,0.2v6.1C51.2,17.5,51.1,17.6,51,17.6z"/>
	<path id="XMLID_27_" class="st9" d="M50.9,17.4h-0.4V18c0,0,0,0.1-0.1,0.1h-2.1c0,0-0.1,0-0.1-0.1v-0.6h-0.4
		c-0.1,0-0.2-0.1-0.2-0.2v-5.7c0-0.1,0.1-0.2,0.2-0.2h3c0.1,0,0.2,0.1,0.2,0.2v5.7C51.1,17.3,51,17.4,50.9,17.4z"/>
</g>
</svg>
