<?xml version="1.0" encoding="utf-8"?>
<!-- Generator: Adobe Illustrator 23.0.1, SVG Export Plug-In . SVG Version: 6.00 Build 0)  -->
<svg version="1.1" xmlns="http://www.w3.org/2000/svg" xmlns:xlink="http://www.w3.org/1999/xlink" x="0px" y="0px"
	 viewBox="0 0 144 187.6" style="enable-background:new 0 0 144 187.6;" xml:space="preserve">
<style type="text/css">
	.st0{display:none;}
	.st1{fill:#2A79BF;}
	.st2{fill:#FFFFFF;}
	.st3{fill:#BE9349;}
	.st4{fill:#E6E6ED;}
	.st5{fill:#1089CA;}
	.st6{fill:#EE2F2E;}
	.st7{fill:#1E201F;}
	.st8{fill:#302F2F;}
	.st9{fill:#1E1E1E;}
	.st10{fill:#C1954C;}
	.st11{fill:#FDC26B;}
	.st12{fill:#FFD49C;}
	.st13{fill:#29292B;}
	.st14{fill:#323332;}
	.st15{fill:#FCE500;}
	.st16{fill:#E9282A;}
	.st17{fill:none;stroke:#FFFFFF;stroke-width:2;stroke-miterlimit:10;}
</style>
<g id="Layer_1" class="st0">
	
		<image style="display:inline;overflow:visible;" width="290" height="290" xlink:href="33D3CF257B2A5824.jpg"  transform="matrix(1 0 0 1 -73.1224 -39.618)">
	</image>
</g>
<g id="PCB">
</g>
<g id="silk_screen">
</g>
<g id="Pad">
</g>
<g id="component">
	<g>
		<g>
			<g>
				<path class="st1" d="M144,130.9V13.1C144,5.9,138.1,0,130.9,0H13.1C5.9,0,0,5.9,0,13.1v117.8c0,7.2,5.9,13.1,13.1,13.1h117.8
					C138.1,144,144,138.1,144,130.9z M5.4,13.1c0-3.6,2.9-6.5,6.5-6.5s6.5,2.9,6.5,6.5c0,3.6-2.9,6.5-6.5,6.5S5.4,16.7,5.4,13.1z
					 M124.4,13.1c0-3.6,2.9-6.5,6.5-6.5s6.5,2.9,6.5,6.5c0,3.6-2.9,6.5-6.5,6.5S124.4,16.7,124.4,13.1z M5.4,131.9
					c0-3.6,2.9-6.5,6.5-6.5s6.5,2.9,6.5,6.5c0,3.6-2.9,6.5-6.5,6.5S5.4,135.5,5.4,131.9z M124.4,131.9c0-3.6,2.9-6.5,6.5-6.5
					s6.5,2.9,6.5,6.5c0,3.6-2.9,6.5-6.5,6.5S124.4,135.5,124.4,131.9z"/>
			</g>
		</g>
		<g>
			<path class="st2" d="M55.7,40.7C55.7,22.1,70.8,7,89.4,7s33.7,15.1,33.7,33.7s-15.1,33.7-33.7,33.7S55.7,59.3,55.7,40.7z
				 M122.4,40.7c0-18.2-14.8-33-33-33c-18.2,0-33,14.8-33,33s14.8,33,33,33C107.6,73.7,122.4,58.9,122.4,40.7z"/>
		</g>
		<g>
			<path class="st2" d="M40.9,59V21.5h21.3V59H40.9z M41.5,22.2v36.1h20V22.2H41.5z"/>
		</g>
		<g>
			<path class="st2" d="M98.4,105.7V87.5h9v18.2H98.4z M99.1,88.1V105h7.6V88.1H99.1z"/>
		</g>
		<g>
			<path class="st2" d="M85.6,105.7V87.5h9v18.2H85.6z M86.3,88.1V105h7.6V88.1H86.3z"/>
		</g>
		<g>
			<path class="st2" d="M49.4,105.7V87.5h9v18.2H49.4z M50.1,88.1V105h7.6V88.1H50.1z"/>
		</g>
		<g>
			<path class="st2" d="M21.8,105.7V87.5h9v18.2H21.8z M22.5,88.1V105h7.6V88.1H22.5z"/>
		</g>
		<g>
			<path class="st2" d="M47.3,136.7V121h46.4v15.7H47.3z M47.9,121.6V136H93v-14.4H47.9z"/>
		</g>
		<g>
			<path class="st2" d="M27.3,15.9h6.2v0.9h-6.2V15.9z M27.3,16.5h0.8v1.7c0,0.5,0.1,0.8,0.3,1c0.2,0.2,0.4,0.3,0.7,0.3h0
				c0.3,0,0.5-0.1,0.7-0.2c0.2-0.2,0.3-0.4,0.3-0.8v-1.9h0.8v1.9c0,0.6,0.3,1,0.9,1c0.6,0,0.9-0.4,0.9-1.1v-1.8h0.8v1.9
				c0,0.6-0.2,1.1-0.5,1.4s-0.7,0.4-1.2,0.4c-0.3,0-0.6-0.1-0.8-0.3c-0.3-0.2-0.4-0.5-0.5-0.9c-0.1,0.4-0.2,0.7-0.5,0.9
				c-0.3,0.2-0.6,0.3-1,0.3h0c-0.5,0-0.9-0.2-1.2-0.5c-0.3-0.3-0.5-0.8-0.5-1.3V16.5z"/>
		</g>
		<g>
			<path class="st2" d="M100.6,78h5.5v0.8h-5.5V78z M103,78.3h0.7v2c0,0.2,0.1,0.3,0.2,0.4c0.2,0.1,0.4,0.2,0.6,0.2s0.5-0.1,0.6-0.2
				c0.2-0.1,0.2-0.3,0.2-0.4v-2h0.7v2c0,0.3-0.1,0.5-0.2,0.8c-0.1,0.2-0.3,0.4-0.6,0.5c-0.2,0.1-0.5,0.2-0.8,0.2
				c-0.3,0-0.6-0.1-0.8-0.2c-0.2-0.1-0.4-0.3-0.6-0.5s-0.2-0.5-0.2-0.8V78.3z M100.6,81.1l2.5-1.2l0.2,0.8l-2.6,1.4V81.1z"/>
			<path class="st2" d="M100.6,84.3c0-0.5,0.1-0.8,0.4-1.1c0.2-0.3,0.6-0.5,1-0.5h0v0.8h0c-0.2,0-0.4,0.1-0.5,0.3
				c-0.1,0.1-0.2,0.3-0.2,0.6c0,0.3,0.1,0.4,0.2,0.6c0.1,0.1,0.3,0.2,0.6,0.2h0.2c0.3,0,0.5-0.1,0.6-0.2c0.1-0.1,0.2-0.3,0.2-0.6
				v-0.4h0.7v0.4c0,0.2,0.1,0.4,0.2,0.5c0.1,0.1,0.3,0.2,0.5,0.2h0.2c0.2,0,0.4-0.1,0.5-0.2c0.1-0.1,0.2-0.3,0.2-0.5
				c0-0.2-0.1-0.4-0.2-0.5c-0.1-0.1-0.3-0.2-0.4-0.3h0v-0.8h0c0.4,0.1,0.8,0.3,1,0.5c0.2,0.3,0.4,0.6,0.4,1c0,0.5-0.1,0.8-0.4,1.1
				c-0.2,0.3-0.6,0.4-1,0.4h-0.2c-0.3,0-0.5-0.1-0.7-0.2c-0.2-0.1-0.3-0.4-0.4-0.6c-0.1,0.3-0.2,0.5-0.4,0.7
				c-0.2,0.2-0.5,0.2-0.8,0.2h-0.2c-0.5,0-0.8-0.1-1.1-0.4C100.7,85.1,100.6,84.8,100.6,84.3z"/>
		</g>
		<g>
			<path class="st2" d="M129.9,27.5l7.3-2.4v1.1l-5.7,1.8l5.7,1.8v1.1l-7.3-2.4V27.5z"/>
			<path class="st2" d="M136.2,31.8h1v1h-1V31.8z M129.9,31.8h5.2v1h-5.2V31.8z"/>
			<path class="st2" d="M129.9,34.4h7.3v1h-7.3V34.4z M129.8,36.8c0-0.3,0.1-0.6,0.2-0.9c0.2-0.2,0.4-0.4,0.7-0.5l1.1,0.1
				c-0.2,0-0.4,0-0.6,0.1s-0.3,0.2-0.4,0.4c-0.1,0.2-0.1,0.3-0.1,0.6c0,0.3,0.1,0.6,0.3,0.8c0.2,0.2,0.5,0.3,0.9,0.3h1.1
				c0.4,0,0.7-0.1,0.9-0.3c0.2-0.2,0.3-0.4,0.3-0.8c0-0.2,0-0.4-0.1-0.6c-0.1-0.2-0.2-0.3-0.4-0.4c-0.2-0.1-0.3-0.1-0.6-0.1l1-0.1
				c0.3,0.2,0.5,0.4,0.7,0.6c0.2,0.3,0.2,0.5,0.2,0.9c0,0.6-0.2,1-0.6,1.3c-0.4,0.3-0.9,0.5-1.6,0.5H132c-0.7,0-1.2-0.2-1.6-0.5
				C130,37.8,129.8,37.3,129.8,36.8z"/>
			<path class="st2" d="M129.9,40h5.2v1h-5.2V40z M133.9,42.9c0.2-0.2,0.3-0.5,0.3-0.8c0-0.3-0.1-0.6-0.3-0.8
				c-0.2-0.2-0.4-0.3-0.7-0.3l1-0.1c0.3,0.2,0.6,0.4,0.7,0.6c0.2,0.3,0.3,0.5,0.3,0.8c0,0.5-0.1,0.9-0.4,1.2L133.9,42.9z"/>
			<path class="st2" d="M129.8,46.1c0-0.6,0.1-1.1,0.4-1.4c0.3-0.3,0.7-0.5,1.2-0.5c0.5,0,0.9,0.1,1.2,0.4c0.3,0.3,0.4,0.7,0.4,1.3
				v1.5l-0.8,0.1v-1.6c0-0.3-0.1-0.5-0.2-0.6c-0.1-0.1-0.3-0.2-0.5-0.2c-0.3,0-0.5,0.1-0.6,0.3c-0.1,0.2-0.2,0.4-0.2,0.8
				c0,0.4,0,0.7,0.1,0.9c0.1,0.2,0.2,0.3,0.4,0.3l-0.7,0.1c-0.1-0.1-0.3-0.2-0.3-0.3c-0.1-0.1-0.2-0.3-0.2-0.5
				C129.9,46.5,129.8,46.3,129.8,46.1z M129.9,47.4h3.3c0.3,0,0.6-0.1,0.8-0.3c0.2-0.2,0.3-0.4,0.3-0.8c0-0.4-0.1-0.8-0.4-1.1
				l0.5-0.8c0.2,0.2,0.4,0.5,0.6,0.8c0.1,0.3,0.2,0.7,0.2,1.1c0,0.7-0.2,1.2-0.5,1.5s-0.8,0.5-1.4,0.5h-3.4V47.4z"/>
			<path class="st2" d="M134.2,49.5h0.9v2.4h-0.9V49.5z M129.9,51.3c0-0.4,0.1-0.7,0.4-0.9c0.2-0.2,0.6-0.3,1-0.3h5.4v1h-5.4
				c-0.1,0-0.2,0-0.3,0.1c-0.1,0.1-0.1,0.1-0.1,0.2v0.5h-1V51.3z"/>
			<path class="st2" d="M136.2,53.3h1v1h-1V53.3z M129.9,53.3h5.2v1h-5.2V53.3z"/>
			<path class="st2" d="M129.8,57.9c0-0.7,0.2-1.2,0.6-1.6c0.4-0.4,1-0.6,1.7-0.6h0.9c0.7,0,1.3,0.2,1.7,0.6
				c0.4,0.4,0.6,0.9,0.6,1.6s-0.2,1.2-0.6,1.6c-0.4,0.4-0.9,0.6-1.7,0.6h-0.9c-0.7,0-1.3-0.2-1.7-0.6
				C130,59.1,129.8,58.6,129.8,57.9z M130.8,57.9c0,0.4,0.1,0.6,0.3,0.8c0.2,0.2,0.5,0.3,0.9,0.3h0.9c0.4,0,0.7-0.1,0.9-0.3
				c0.2-0.2,0.3-0.5,0.3-0.8c0-0.4-0.1-0.6-0.3-0.8c-0.2-0.2-0.5-0.3-0.9-0.3h-0.9c-0.4,0-0.7,0.1-0.9,0.3
				C130.9,57.2,130.8,57.5,130.8,57.9z"/>
			<path class="st2" d="M129.9,61.5h5.2v1h-5.2V61.5z M129.9,64.7h3.2c0.4,0,0.7-0.1,0.9-0.3c0.2-0.2,0.3-0.5,0.3-0.8
				c0-0.3-0.1-0.6-0.3-0.8c-0.2-0.2-0.4-0.3-0.8-0.3l1-0.1c0.3,0.2,0.6,0.4,0.7,0.6c0.2,0.3,0.3,0.5,0.3,0.9c0,0.6-0.2,1-0.6,1.3
				c-0.4,0.3-0.9,0.5-1.6,0.5h-3.2V64.7z"/>
			<path class="st2" d="M132.4,72.3l4.8,2.2v1h-7.3v-1h5.5l-0.3,0.1l-4.1-1.8v-0.7l4-1.8l0.4,0.1h-5.5v-1h7.3v1L132.4,72.3z"/>
			<path class="st2" d="M129.8,79.1c0-0.7,0.2-1.2,0.6-1.6c0.4-0.4,1-0.6,1.7-0.6h0.9c0.7,0,1.3,0.2,1.7,0.6
				c0.4,0.4,0.6,0.9,0.6,1.6c0,0.7-0.2,1.2-0.6,1.6c-0.4,0.4-0.9,0.6-1.7,0.6h-0.9c-0.7,0-1.3-0.2-1.7-0.6
				C130,80.3,129.8,79.8,129.8,79.1z M130.8,79.1c0,0.4,0.1,0.6,0.3,0.8c0.2,0.2,0.5,0.3,0.9,0.3h0.9c0.4,0,0.7-0.1,0.9-0.3
				c0.2-0.2,0.3-0.5,0.3-0.8c0-0.4-0.1-0.6-0.3-0.8c-0.2-0.2-0.5-0.3-0.9-0.3h-0.9c-0.4,0-0.7,0.1-0.9,0.3
				C130.9,78.4,130.8,78.7,130.8,79.1z"/>
			<path class="st2" d="M134.2,82.3h0.9v2.4h-0.9V82.3z M129.9,84.1c0-0.4,0.1-0.7,0.4-0.9c0.2-0.2,0.6-0.3,1-0.3h5.4v1h-5.4
				c-0.1,0-0.2,0-0.3,0.1c-0.1,0.1-0.1,0.1-0.1,0.2v0.5h-1V84.1z"/>
			<path class="st2" d="M129.8,88.1c0-0.7,0.2-1.2,0.6-1.6c0.4-0.4,1-0.6,1.7-0.6h0.9c0.7,0,1.3,0.2,1.7,0.6
				c0.4,0.4,0.6,0.9,0.6,1.6c0,0.7-0.2,1.2-0.6,1.6s-0.9,0.6-1.7,0.6h-0.9c-0.7,0-1.3-0.2-1.7-0.6C130,89.3,129.8,88.8,129.8,88.1z
				 M130.8,88.1c0,0.4,0.1,0.6,0.3,0.8c0.2,0.2,0.5,0.3,0.9,0.3h0.9c0.4,0,0.7-0.1,0.9-0.3c0.2-0.2,0.3-0.5,0.3-0.8
				c0-0.4-0.1-0.6-0.3-0.8c-0.2-0.2-0.5-0.3-0.9-0.3h-0.9c-0.4,0-0.7,0.1-0.9,0.3C130.9,87.4,130.8,87.7,130.8,88.1z"/>
			<path class="st2" d="M129.9,91.7h5.2v1h-5.2V91.7z M133.9,94.6c0.2-0.2,0.3-0.5,0.3-0.8c0-0.3-0.1-0.6-0.3-0.8
				c-0.2-0.2-0.4-0.3-0.7-0.3l1-0.1c0.3,0.2,0.6,0.4,0.7,0.6c0.2,0.3,0.3,0.5,0.3,0.8c0,0.5-0.1,0.9-0.4,1.2L133.9,94.6z"/>
		</g>
		<g>
			<path class="st2" d="M88,78h5.5v0.8H88V78z M90.3,78.3H91v2c0,0.2,0.1,0.3,0.2,0.4c0.2,0.1,0.4,0.2,0.6,0.2s0.5-0.1,0.6-0.2
				c0.2-0.1,0.2-0.3,0.2-0.4v-2h0.7v2c0,0.3-0.1,0.5-0.2,0.8s-0.3,0.4-0.6,0.5c-0.2,0.1-0.5,0.2-0.8,0.2c-0.3,0-0.6-0.1-0.8-0.2
				c-0.2-0.1-0.4-0.3-0.6-0.5c-0.1-0.2-0.2-0.5-0.2-0.8V78.3z M88,81.1l2.5-1.2l0.2,0.8L88,82V81.1z"/>
			<path class="st2" d="M88,82.8h0.7l2.5,1.9c0.1,0.1,0.3,0.2,0.5,0.3c0.2,0.1,0.3,0.1,0.4,0.1h0c0.2,0,0.4-0.1,0.5-0.2
				c0.1-0.1,0.2-0.3,0.2-0.5c0-0.2-0.1-0.4-0.2-0.5c-0.1-0.1-0.3-0.2-0.6-0.3h0v-0.8h0c0.5,0.1,0.8,0.2,1.1,0.5
				c0.3,0.3,0.4,0.6,0.4,1.1c0,0.5-0.1,0.9-0.4,1.1c-0.3,0.3-0.6,0.4-1.1,0.4h0c-0.2,0-0.4,0-0.6-0.1c-0.2-0.1-0.4-0.2-0.6-0.3
				l-2.1-1.6v2.1H88V82.8z"/>
		</g>
		<g>
			<path class="st2" d="M70.4,79.8c0-0.4,0.1-0.7,0.2-1c0.2-0.3,0.4-0.5,0.7-0.7c0.3-0.2,0.7-0.2,1.1-0.2H74c0.4,0,0.8,0.1,1.1,0.2
				c0.3,0.2,0.5,0.4,0.7,0.7c0.2,0.3,0.2,0.6,0.2,1s-0.1,0.7-0.2,1c-0.2,0.3-0.4,0.5-0.7,0.7c-0.3,0.2-0.7,0.2-1.1,0.2h-1.5
				c-0.4,0-0.8-0.1-1.1-0.2c-0.3-0.2-0.5-0.4-0.7-0.7S70.4,80.2,70.4,79.8z M71.2,79.8c0,0.3,0.1,0.6,0.3,0.8
				c0.2,0.2,0.5,0.3,0.9,0.3H74c0.4,0,0.7-0.1,0.9-0.3c0.2-0.2,0.3-0.5,0.3-0.8c0-0.3-0.1-0.6-0.3-0.8s-0.5-0.3-0.9-0.3h-1.6
				c-0.4,0-0.7,0.1-0.9,0.3C71.3,79.2,71.2,79.5,71.2,79.8z M70.4,81.8l1.6-2l0.5,0.4l-1.6,2L70.4,81.8z"/>
			<path class="st2" d="M75.9,84.3h-5.5v-0.8h4.6l-0.5-0.8h0.8l0.5,0.8V84.3z"/>
		</g>
		<g>
			<path class="st2" d="M51.5,78H57v0.8h-5.5V78z M53.8,78.3h0.7v2c0,0.2,0.1,0.3,0.2,0.4c0.2,0.1,0.4,0.2,0.6,0.2
				c0.3,0,0.5-0.1,0.6-0.2c0.2-0.1,0.2-0.3,0.2-0.4v-2H57v2c0,0.3-0.1,0.5-0.2,0.8c-0.1,0.2-0.3,0.4-0.6,0.5
				c-0.2,0.1-0.5,0.2-0.8,0.2c-0.3,0-0.6-0.1-0.8-0.2c-0.2-0.1-0.4-0.3-0.6-0.5s-0.2-0.5-0.2-0.8V78.3z M51.5,81.1l2.5-1.2l0.2,0.8
				L51.5,82V81.1z"/>
			<path class="st2" d="M57,84.2h-5.5v-0.8h4.6l-0.5-0.8h0.8l0.5,0.8V84.2z"/>
		</g>
		<g>
			<path class="st2" d="M37.8,76h5.5v0.8h-5.5V76z M37.8,76.5h0.7v1.2c0,0.4,0.1,0.7,0.3,0.9s0.5,0.3,0.9,0.3h1.6
				c0.4,0,0.7-0.1,0.9-0.3c0.2-0.2,0.3-0.5,0.3-0.9v-1.2h0.7v1.2c0,0.7-0.2,1.2-0.5,1.5c-0.3,0.4-0.8,0.5-1.4,0.5h-1.5
				c-0.6,0-1.1-0.2-1.4-0.5c-0.3-0.4-0.5-0.9-0.5-1.5V76.5z"/>
			<path class="st2" d="M43.2,82.3h-5.5v-0.8h4.6l-0.5-0.8h0.8l0.5,0.8V82.3z"/>
		</g>
		<g>
			<path class="st2" d="M23.8,78.5c0-0.4,0.1-0.7,0.3-1c0.2-0.3,0.4-0.5,0.7-0.7c0.3-0.2,0.7-0.2,1.1-0.2h1.5c0.4,0,0.8,0.1,1.1,0.2
				c0.3,0.2,0.5,0.4,0.7,0.7c0.2,0.3,0.3,0.6,0.3,1c0,0.3-0.1,0.6-0.2,0.9c-0.1,0.3-0.3,0.5-0.6,0.7c-0.2,0.2-0.5,0.3-0.9,0.4v-0.8
				c0.2,0,0.3-0.1,0.5-0.2c0.1-0.1,0.2-0.2,0.3-0.4c0.1-0.2,0.1-0.3,0.1-0.5c0-0.3-0.1-0.6-0.4-0.8c-0.2-0.2-0.5-0.3-0.9-0.3h-1.5
				c-0.4,0-0.7,0.1-0.9,0.3c-0.2,0.2-0.4,0.5-0.4,0.8c0,0.2,0.1,0.5,0.2,0.7c0.1,0.2,0.3,0.4,0.6,0.4v0.8c-0.3-0.1-0.6-0.2-0.8-0.4
				c-0.2-0.2-0.4-0.4-0.5-0.7C23.9,79.1,23.8,78.8,23.8,78.5z"/>
			<path class="st2" d="M29.3,82.6h-5.5v-0.8h4.6L28,81.1h0.8l0.5,0.8V82.6z"/>
		</g>
		<g>
			<path class="st2" d="M38.6,129.1c0-0.3,0.1-0.5,0.2-0.7s0.3-0.4,0.5-0.6l0.5,0.6c-0.1,0.1-0.2,0.1-0.3,0.3
				c-0.1,0.1-0.1,0.2-0.1,0.4c0,0.3,0.1,0.6,0.3,0.8c0.2,0.2,0.4,0.3,0.8,0.3h3.7v0.8h-3.7c-0.4,0-0.7-0.1-0.9-0.2
				c-0.3-0.2-0.5-0.4-0.6-0.6C38.7,129.8,38.6,129.5,38.6,129.1z"/>
			<path class="st2" d="M44.1,133.5h-5.5v-0.8h4.6l-0.5-0.8h0.8l0.5,0.8V133.5z"/>
		</g>
		<g>
			<path class="st2" d="M46.4,114.4h1.9v1c0,0.4-0.1,0.8-0.2,1.1c-0.2,0.3-0.4,0.5-0.7,0.7c-0.3,0.2-0.6,0.3-1,0.3
				c-0.4,0-0.7-0.1-1-0.2c-0.3-0.2-0.5-0.4-0.7-0.7c-0.2-0.3-0.2-0.6-0.2-1v-1.6c0-0.4,0.1-0.8,0.2-1.1c0.2-0.3,0.4-0.5,0.7-0.7
				s0.6-0.3,1-0.3c0.3,0,0.6,0.1,0.9,0.2c0.3,0.1,0.5,0.3,0.7,0.6c0.2,0.2,0.3,0.5,0.4,0.9h-0.8c-0.1-0.3-0.2-0.5-0.4-0.6
				c-0.2-0.2-0.4-0.2-0.6-0.2c-0.3,0-0.6,0.1-0.8,0.4c-0.2,0.2-0.3,0.5-0.3,0.9v1.6c0,0.4,0.1,0.6,0.3,0.9c0.2,0.2,0.5,0.3,0.8,0.3
				c0.3,0,0.6-0.1,0.8-0.3c0.2-0.2,0.3-0.5,0.3-0.9v-0.2l-1.1,0V114.4z"/>
			<path class="st2" d="M49.5,117.3v-5.5h0.7l2.7,4.2l-0.1,0.1v-4.3h0.8v5.5h-0.7l-2.7-4.1l0.1-0.1v4.2H49.5z"/>
			<path class="st2" d="M55.4,117.3v-0.7h1.2c0.4,0,0.7-0.1,0.9-0.3c0.2-0.2,0.3-0.5,0.3-0.9v-1.6c0-0.4-0.1-0.7-0.3-0.9
				c-0.2-0.2-0.5-0.3-0.9-0.3h-1.2v-0.7h1.2c0.7,0,1.2,0.2,1.5,0.5c0.4,0.3,0.5,0.8,0.5,1.4v1.5c0,0.6-0.2,1.1-0.5,1.4
				c-0.4,0.3-0.9,0.5-1.5,0.5H55.4z M54.9,117.3v-5.5h0.8v5.5H54.9z"/>
		</g>
		<g>
			<path class="st2" d="M63.8,117.3l-1.8-5.5h0.8l1.3,4.3l1.3-4.3h0.8l-1.8,5.5H63.8z"/>
			<path class="st2" d="M68.7,117.4c-0.4,0-0.7-0.1-1-0.3c-0.3-0.2-0.5-0.4-0.7-0.7c-0.2-0.3-0.2-0.7-0.2-1.1v-1.5
				c0-0.4,0.1-0.8,0.2-1.1c0.2-0.3,0.4-0.5,0.7-0.7c0.3-0.2,0.6-0.3,1-0.3c0.3,0,0.6,0.1,0.9,0.2c0.3,0.1,0.5,0.3,0.7,0.6
				c0.2,0.2,0.3,0.5,0.4,0.9h-0.8c0-0.2-0.1-0.3-0.2-0.5c-0.1-0.1-0.2-0.2-0.4-0.3c-0.2-0.1-0.3-0.1-0.5-0.1c-0.3,0-0.6,0.1-0.8,0.4
				c-0.2,0.2-0.3,0.5-0.3,0.9v1.5c0,0.4,0.1,0.7,0.3,0.9c0.2,0.2,0.5,0.4,0.8,0.4c0.2,0,0.5-0.1,0.7-0.2c0.2-0.1,0.4-0.3,0.4-0.6
				h0.8c-0.1,0.3-0.2,0.6-0.4,0.8c-0.2,0.2-0.4,0.4-0.7,0.5C69.3,117.3,69,117.4,68.7,117.4z"/>
			<path class="st2" d="M73.4,117.4c-0.4,0-0.7-0.1-1-0.3s-0.5-0.4-0.7-0.7c-0.2-0.3-0.2-0.7-0.2-1.1v-1.5c0-0.4,0.1-0.8,0.2-1.1
				c0.2-0.3,0.4-0.5,0.7-0.7s0.6-0.3,1-0.3c0.3,0,0.6,0.1,0.9,0.2s0.5,0.3,0.7,0.6c0.2,0.2,0.3,0.5,0.4,0.9h-0.8
				c0-0.2-0.1-0.3-0.2-0.5c-0.1-0.1-0.2-0.2-0.4-0.3c-0.1-0.1-0.3-0.1-0.5-0.1c-0.3,0-0.6,0.1-0.8,0.4c-0.2,0.2-0.3,0.5-0.3,0.9v1.5
				c0,0.4,0.1,0.7,0.3,0.9c0.2,0.2,0.5,0.4,0.8,0.4c0.2,0,0.5-0.1,0.7-0.2c0.2-0.1,0.4-0.3,0.4-0.6h0.8c-0.1,0.3-0.2,0.6-0.4,0.8
				c-0.2,0.2-0.4,0.4-0.7,0.5C74,117.3,73.8,117.4,73.4,117.4z"/>
		</g>
		<g>
			<path class="st2" d="M82.2,117.4c-0.4,0-0.8-0.1-1.1-0.2c-0.3-0.1-0.6-0.3-0.9-0.5l0.5-0.6c0.2,0.2,0.4,0.3,0.7,0.4
				c0.2,0.1,0.5,0.1,0.8,0.1c0.4,0,0.7-0.1,0.9-0.2c0.2-0.1,0.3-0.4,0.3-0.6v0c0-0.2-0.1-0.4-0.2-0.5c-0.1-0.1-0.3-0.2-0.4-0.2
				c-0.2-0.1-0.4-0.1-0.6-0.1c-0.2,0-0.4-0.1-0.6-0.1c-0.2,0-0.4-0.1-0.6-0.2c-0.2-0.1-0.3-0.2-0.4-0.4c-0.1-0.2-0.2-0.4-0.2-0.8v0
				c0-0.5,0.2-0.9,0.5-1.2c0.3-0.3,0.8-0.4,1.4-0.4c0.3,0,0.6,0,0.9,0.1c0.3,0.1,0.6,0.2,0.8,0.4l-0.4,0.6c-0.4-0.3-0.8-0.5-1.2-0.5
				c-0.4,0-0.7,0.1-0.9,0.2c-0.2,0.1-0.3,0.4-0.3,0.6v0c0,0.2,0.1,0.4,0.2,0.5c0.1,0.1,0.3,0.2,0.5,0.2c0.2,0.1,0.4,0.1,0.6,0.1
				c0.2,0,0.4,0.1,0.6,0.1c0.2,0.1,0.4,0.1,0.5,0.2c0.2,0.1,0.3,0.3,0.4,0.4s0.1,0.4,0.1,0.7v0c0,0.5-0.2,0.9-0.5,1.2
				C83.3,117.3,82.8,117.4,82.2,117.4z"/>
			<path class="st2" d="M86.1,111.9v5.5h-0.8v-5.5H86.1z"/>
			<path class="st2" d="M89.2,114.4h1.9v1c0,0.4-0.1,0.8-0.2,1.1c-0.2,0.3-0.4,0.5-0.7,0.7s-0.6,0.3-1,0.3c-0.4,0-0.7-0.1-1-0.2
				c-0.3-0.2-0.5-0.4-0.7-0.7c-0.2-0.3-0.2-0.6-0.2-1v-1.6c0-0.4,0.1-0.8,0.2-1.1c0.2-0.3,0.4-0.5,0.7-0.7s0.6-0.3,1-0.3
				c0.3,0,0.6,0.1,0.9,0.2c0.3,0.1,0.5,0.3,0.7,0.6c0.2,0.2,0.3,0.5,0.4,0.9h-0.8c-0.1-0.3-0.2-0.5-0.4-0.6
				c-0.2-0.2-0.4-0.2-0.6-0.2c-0.3,0-0.6,0.1-0.8,0.4c-0.2,0.2-0.3,0.5-0.3,0.9v1.6c0,0.4,0.1,0.6,0.3,0.9c0.2,0.2,0.5,0.3,0.8,0.3
				c0.3,0,0.6-0.1,0.8-0.3c0.2-0.2,0.3-0.5,0.3-0.9v-0.2l-1.1,0V114.4z"/>
		</g>
		<g>
			<path class="st2" d="M4.9,27.8c0-0.4,0.1-0.8,0.3-1.1C5.4,26.3,5.7,26,6,25.9c0.3-0.2,0.7-0.3,1.2-0.3h1.7c0.5,0,0.9,0.1,1.2,0.3
				c0.3,0.2,0.6,0.4,0.8,0.8c0.2,0.3,0.3,0.7,0.3,1.1c0,0.4-0.1,0.8-0.3,1.1c-0.2,0.3-0.5,0.6-0.8,0.8c-0.3,0.2-0.7,0.3-1.2,0.3H7.2
				c-0.5,0-0.9-0.1-1.2-0.3c-0.3-0.2-0.6-0.4-0.8-0.8C5,28.6,4.9,28.2,4.9,27.8z M5.8,27.8c0,0.4,0.1,0.7,0.4,0.9
				c0.3,0.2,0.6,0.4,1,0.4H9c0.4,0,0.8-0.1,1-0.4c0.3-0.2,0.4-0.5,0.4-0.9c0-0.4-0.1-0.7-0.4-0.9c-0.3-0.2-0.6-0.4-1-0.4H7.2
				c-0.4,0-0.8,0.1-1,0.4C5.9,27.1,5.8,27.4,5.8,27.8z"/>
			<path class="st2" d="M5,31.3h6.2v0.9H5V31.3z M7.4,31.8h0.8v2c0,0.3,0.1,0.5,0.3,0.7c0.2,0.2,0.5,0.3,0.8,0.3
				c0.3,0,0.6-0.1,0.8-0.3c0.2-0.2,0.3-0.4,0.3-0.7v-2h0.8v1.9c0,0.4-0.1,0.7-0.2,1c-0.2,0.3-0.4,0.5-0.7,0.6
				c-0.3,0.2-0.6,0.2-1,0.2c-0.4,0-0.7-0.1-1-0.2C8,35.2,7.8,35,7.6,34.7c-0.2-0.3-0.2-0.6-0.2-1V31.8z"/>
			<path class="st2" d="M5,36.7h6.2v0.9H5V36.7z M10.3,37.1h0.8v3.5h-0.8V37.1z M7.6,37.1h0.8v3.1H7.6V37.1z M5,37.1h0.8v3.5H5V37.1
				z"/>
			<path class="st2" d="M5,41.9h6.2v0.8l-4.7,3l-0.1-0.1h4.8v0.9H5v-0.8l4.7-3l0.1,0.1H5V41.9z"/>
			<path class="st2" d="M7.6,47.9v2.9H6.8v-2.9H7.6z"/>
			<path class="st2" d="M4.9,54c0-0.4,0.1-0.9,0.2-1.2c0.1-0.4,0.3-0.7,0.6-1l0.7,0.5c-0.2,0.2-0.4,0.5-0.5,0.8
				c-0.1,0.3-0.2,0.6-0.2,0.9c0,0.4,0.1,0.8,0.2,1c0.2,0.2,0.4,0.4,0.7,0.4h0c0.2,0,0.4-0.1,0.5-0.2c0.1-0.1,0.2-0.3,0.3-0.5
				c0.1-0.2,0.1-0.4,0.2-0.7c0-0.2,0.1-0.5,0.1-0.7c0.1-0.2,0.1-0.5,0.3-0.7c0.1-0.2,0.3-0.4,0.5-0.5C8.8,52.1,9,52,9.4,52h0
				c0.6,0,1,0.2,1.3,0.6c0.3,0.4,0.5,0.9,0.5,1.6c0,0.3-0.1,0.7-0.2,1s-0.3,0.6-0.5,0.9l-0.7-0.5c0.3-0.5,0.5-0.9,0.5-1.4
				c0-0.4-0.1-0.7-0.3-1C10,53,9.7,52.9,9.4,52.9h0c-0.2,0-0.4,0.1-0.5,0.2s-0.2,0.3-0.3,0.5c-0.1,0.2-0.1,0.5-0.2,0.7
				c0,0.2-0.1,0.5-0.2,0.7c-0.1,0.2-0.2,0.4-0.3,0.6c-0.1,0.2-0.3,0.3-0.5,0.4c-0.2,0.1-0.5,0.2-0.8,0.2h0c-0.6,0-1-0.2-1.3-0.6
				C5.1,55.3,4.9,54.7,4.9,54z"/>
			<path class="st2" d="M7.1,60.1l4.1,1.8v0.8H5v-0.8h4.6l-0.3,0l-3.5-1.5v-0.6l3.4-1.5l0.4,0H5v-0.8h6.2v0.8L7.1,60.1z"/>
			<path class="st2" d="M5,63.7l6.2,2.3v0.7L5,69V68l5-1.7l-5-1.7V63.7z M6.3,64.7h0.8V68H6.3V64.7z"/>
			<path class="st2" d="M5,69.9h6.2v0.9H5V69.9z M7.6,70.3h0.8v2.3c0,0.2,0.1,0.4,0.3,0.5c0.2,0.1,0.4,0.2,0.7,0.2s0.5-0.1,0.7-0.2
				s0.3-0.3,0.3-0.5v-2.3h0.8v2.2c0,0.3-0.1,0.6-0.2,0.9c-0.1,0.2-0.4,0.4-0.6,0.6c-0.3,0.1-0.6,0.2-0.9,0.2s-0.7-0.1-0.9-0.2
				c-0.3-0.1-0.5-0.3-0.6-0.6c-0.1-0.2-0.2-0.5-0.2-0.9V70.3z M5,73.4l2.8-1.4L8,72.8l-3,1.6V73.4z"/>
			<path class="st2" d="M10.3,74.6h0.8V79h-0.8V74.6z M5,76.4h5.7v0.9H5V76.4z"/>
		</g>
		<g>
			<path class="st2" d="M27.3,59.4h6.2v0.9h-6.2V59.4z M29.9,59.8h0.8v2.3c0,0.2,0.1,0.4,0.3,0.5c0.2,0.1,0.4,0.2,0.7,0.2
				s0.5-0.1,0.7-0.2c0.2-0.1,0.3-0.3,0.3-0.5v-2.3h0.8V62c0,0.3-0.1,0.6-0.2,0.9c-0.1,0.2-0.4,0.4-0.6,0.6c-0.3,0.1-0.6,0.2-0.9,0.2
				s-0.7-0.1-0.9-0.2c-0.3-0.1-0.5-0.3-0.6-0.6c-0.1-0.2-0.2-0.5-0.2-0.9V59.8z M27.3,62.9l2.8-1.4l0.2,0.9l-3,1.6V62.9z"/>
		</g>
		<g>
			<g>
				<g>
					
						<rect x="48.4" y="35.2" transform="matrix(6.123234e-17 -1 1 6.123234e-17 12.4169 90.6498)" class="st3" width="6.2" height="7.8"/>
				</g>
			</g>
			<g>
				<g>
					<rect x="48.3" y="36.8" class="st4" width="6.5" height="4.7"/>
				</g>
			</g>
		</g>
		<g>
			<g>
				<g>
					
						<rect x="20.7" y="19.4" transform="matrix(6.123234e-17 -1 1 6.123234e-17 -3.3823 54.5049)" class="st3" width="9.7" height="19.1"/>
				</g>
			</g>
			<g>
				<g>
					<rect x="17.6" y="25.3" class="st4" width="15.9" height="7.3"/>
				</g>
			</g>
		</g>
		<g>
			<g>
				<g>
					
						<rect x="20.7" y="42.9" transform="matrix(6.123234e-17 -1 1 6.123234e-17 -26.8919 78.0145)" class="st3" width="9.7" height="19.1"/>
				</g>
			</g>
			<g>
				<g>
					<rect x="17.6" y="48.8" class="st4" width="15.9" height="7.3"/>
				</g>
			</g>
		</g>
		<g>
			<g>
				<g>
					
						<rect x="48.4" y="42.5" transform="matrix(6.123234e-17 -1 1 6.123234e-17 5.0892 97.9775)" class="st3" width="6.2" height="7.8"/>
				</g>
			</g>
			<g>
				<g>
					<rect x="48.3" y="44.1" class="st4" width="6.5" height="4.7"/>
				</g>
			</g>
		</g>
		<g>
			<g>
				<g>
					<rect x="75.7" y="88" class="st3" width="4.9" height="6.2"/>
				</g>
			</g>
			<g>
				<g>
					<rect x="76.3" y="88.6" class="st4" width="3.7" height="5.1"/>
				</g>
			</g>
		</g>
		<g>
			<g>
				<g>
					<rect x="70.8" y="101.4" class="st3" width="4.9" height="6.2"/>
				</g>
			</g>
			<g>
				<g>
					<rect x="71.4" y="101.9" class="st4" width="3.7" height="5.1"/>
				</g>
			</g>
		</g>
		<g>
			<g>
				<g>
					<rect x="66.4" y="88" class="st3" width="4.9" height="6.2"/>
				</g>
			</g>
			<g>
				<g>
					<rect x="67" y="88.6" class="st4" width="3.7" height="5.1"/>
				</g>
			</g>
		</g>
		<g>
			<path class="st5" d="M25.6,30.1c0-0.3,0.1-0.5,0.2-0.8c0.4-0.8,1.4-1.1,2.2-0.7c15.9,8.3,23.5,8.8,23.6,8.8
				c0.9,0.1,1.6,0.8,1.6,1.8c-0.1,0.9-0.8,1.6-1.8,1.6c-0.3,0-8.4-0.6-24.9-9.2C25.9,31.3,25.6,30.7,25.6,30.1z"/>
		</g>
		<g>
			<path class="st6" d="M23.9,52.5c0-0.5,0.2-0.9,0.5-1.2c13.2-12,27.1-6.6,27.7-6.3c0.9,0.3,1.3,1.3,0.9,2.2
				c-0.3,0.9-1.3,1.3-2.2,0.9c-0.5-0.2-12.6-4.8-24.2,5.7c-0.7,0.6-1.7,0.6-2.4-0.1C24,53.3,23.9,52.9,23.9,52.5z"/>
		</g>
		<g>
			<g>
				<circle class="st2" cx="89.4" cy="40.7" r="31.3"/>
			</g>
		</g>
		<g>
			<g>
				<circle class="st7" cx="89.4" cy="40.7" r="29.8"/>
			</g>
		</g>
		<g>
			<g>
				<g>
					<g>
						<path class="st8" d="M52.8,122.2h7.6c1.2,1.2,1.9,1.9,3.2,3.2v7.6c-1.2,1.2-1.9,1.9-3.2,3.2h-7.6c-1.2-1.2-1.9-1.9-3.2-3.2
							v-7.6C50.9,124.1,51.5,123.4,52.8,122.2z"/>
					</g>
					<g>
						<path class="st9" d="M48.6,134.4v-10.5l2.7-2.7h10.5l2.7,2.7v10.5l-2.7,2.7H51.3L48.6,134.4z M50.6,124.7v8.9l1.5,1.5H61
							l1.5-1.5v-8.9l-1.5-1.5h-8.9L50.6,124.7z"/>
					</g>
				</g>
			</g>
			<g>
				<g>
					<g>
						
							<rect x="34.7" y="147.7" transform="matrix(6.123234e-17 -1 1 6.123234e-17 -92.7886 205.9377)" class="st10" width="43.8" height="3.3"/>
					</g>
				</g>
				<g>
					<g>
						
							<rect x="34.7" y="148" transform="matrix(6.123234e-17 -1 1 6.123234e-17 -92.7886 205.9377)" class="st11" width="43.8" height="2.7"/>
					</g>
				</g>
				<g>
					<g>
						<polygon class="st11" points="57.6,173.6 58.2,171.3 54.9,171.3 55.6,173.6 						"/>
					</g>
				</g>
				<g>
					<g>
						<polygon class="st12" points="57.6,173.6 57.9,171.3 55.2,171.3 55.6,173.6 						"/>
					</g>
				</g>
			</g>
			<g>
				<g>
					<g>
						<path class="st8" d="M66.7,122.2h7.6c1.2,1.2,1.9,1.9,3.2,3.2v7.6c-1.2,1.2-1.9,1.9-3.2,3.2h-7.6c-1.2-1.2-1.9-1.9-3.2-3.2
							v-7.6C64.8,124.1,65.5,123.4,66.7,122.2z"/>
					</g>
					<g>
						<path class="st9" d="M62.5,134.4v-10.5l2.7-2.7h10.5l2.7,2.7v10.5l-2.7,2.7H65.2L62.5,134.4z M64.5,124.7v8.9l1.5,1.5h8.9
							l1.5-1.5v-8.9l-1.5-1.5h-8.9L64.5,124.7z"/>
					</g>
				</g>
			</g>
			<g>
				<g>
					<g>
						
							<rect x="48.6" y="147.7" transform="matrix(6.123234e-17 -1 1 6.123234e-17 -78.8758 219.8504)" class="st10" width="43.8" height="3.3"/>
					</g>
				</g>
				<g>
					<g>
						
							<rect x="48.6" y="148" transform="matrix(6.123234e-17 -1 1 6.123234e-17 -78.8758 219.8504)" class="st11" width="43.8" height="2.7"/>
					</g>
				</g>
				<g>
					<g>
						<polygon class="st11" points="71.5,173.6 72.2,171.3 68.8,171.3 69.5,173.6 						"/>
					</g>
				</g>
				<g>
					<g>
						<polygon class="st12" points="71.5,173.6 71.8,171.3 69.1,171.3 69.5,173.6 						"/>
					</g>
				</g>
			</g>
			<g>
				<g>
					<g>
						<path class="st8" d="M80.6,122.2h7.6c1.2,1.2,1.9,1.9,3.2,3.2v7.6c-1.2,1.2-1.9,1.9-3.2,3.2h-7.6c-1.2-1.2-1.9-1.9-3.2-3.2
							v-7.6C78.7,124.1,79.4,123.4,80.6,122.2z"/>
					</g>
					<g>
						<path class="st9" d="M76.4,134.4v-10.5l2.7-2.7h10.5l2.7,2.7v10.5l-2.7,2.7H79.1L76.4,134.4z M78.4,124.7v8.9l1.5,1.5h8.9
							l1.5-1.5v-8.9l-1.5-1.5H80L78.4,124.7z"/>
					</g>
				</g>
			</g>
			<g>
				<g>
					<g>
						
							<rect x="62.5" y="147.7" transform="matrix(6.123234e-17 -1 1 6.123234e-17 -64.9631 233.7632)" class="st10" width="43.8" height="3.3"/>
					</g>
				</g>
				<g>
					<g>
						
							<rect x="62.5" y="148" transform="matrix(6.123234e-17 -1 1 6.123234e-17 -64.9631 233.7632)" class="st11" width="43.8" height="2.7"/>
					</g>
				</g>
				<g>
					<g>
						<polygon class="st11" points="85.4,173.6 86.1,171.3 82.7,171.3 83.4,173.6 						"/>
					</g>
				</g>
				<g>
					<g>
						<polygon class="st12" points="85.4,173.6 85.8,171.3 83,171.3 83.4,173.6 						"/>
					</g>
				</g>
			</g>
		</g>
		<g id="_x3C_Group_x3E__Capacitor_74_">
			<g>
				<g>
					
						<rect x="101.2" y="87.5" transform="matrix(-1.836970e-16 1 -1 -1.836970e-16 193.8799 -11.9268)" class="st2" width="3.4" height="6.9"/>
				</g>
			</g>
			<g>
				<g>
					
						<rect x="101.2" y="98.7" transform="matrix(-1.836970e-16 1 -1 -1.836970e-16 205.0955 -0.7112)" class="st2" width="3.4" height="6.9"/>
				</g>
			</g>
			<g>
				<g>
					
						<rect x="99" y="93.1" transform="matrix(-1.836970e-16 1 -1 -1.836970e-16 199.4877 -6.319)" class="st13" width="7.8" height="6.9"/>
				</g>
			</g>
		</g>
		<g id="_x3C_Group_x3E__Capacitor_1_">
			<g>
				<g>
					
						<rect x="88.4" y="87.5" transform="matrix(-1.836970e-16 1 -1 -1.836970e-16 181.0565 0.8966)" class="st2" width="3.4" height="6.9"/>
				</g>
			</g>
			<g>
				<g>
					
						<rect x="88.4" y="98.7" transform="matrix(-1.836970e-16 1 -1 -1.836970e-16 192.2721 12.1122)" class="st2" width="3.4" height="6.9"/>
				</g>
			</g>
			<g>
				<g>
					
						<rect x="86.2" y="93.1" transform="matrix(-1.836970e-16 1 -1 -1.836970e-16 186.6643 6.5044)" class="st13" width="7.8" height="6.9"/>
				</g>
			</g>
		</g>
		<g id="_x3C_Group_x3E__Capacitor_2_">
			<g>
				<g>
					
						<rect x="52.2" y="87.5" transform="matrix(-1.836970e-16 1 -1 -1.836970e-16 144.8761 37.077)" class="st2" width="3.4" height="6.9"/>
				</g>
			</g>
			<g>
				<g>
					
						<rect x="52.2" y="98.7" transform="matrix(-1.836970e-16 1 -1 -1.836970e-16 156.0917 48.2926)" class="st2" width="3.4" height="6.9"/>
				</g>
			</g>
			<g>
				<g>
					
						<rect x="50" y="93.1" transform="matrix(-1.836970e-16 1 -1 -1.836970e-16 150.4839 42.6848)" class="st13" width="7.8" height="6.9"/>
				</g>
			</g>
		</g>
		<g id="_x3C_Group_x3E__Capacitor_3_">
			<g>
				<g>
					
						<rect x="37.7" y="87.5" transform="matrix(-1.836970e-16 1 -1 -1.836970e-16 130.3805 51.5726)" class="st2" width="3.4" height="6.9"/>
				</g>
			</g>
			<g>
				<g>
					
						<rect x="37.7" y="98.7" transform="matrix(-1.836970e-16 1 -1 -1.836970e-16 141.5961 62.7882)" class="st2" width="3.4" height="6.9"/>
				</g>
			</g>
			<g>
				<g>
					
						<rect x="35.5" y="93.1" transform="matrix(-1.836970e-16 1 -1 -1.836970e-16 135.9883 57.1804)" class="st13" width="7.8" height="6.9"/>
				</g>
			</g>
		</g>
		<g id="_x3C_Group_x3E__Capacitor_4_">
			<g>
				<g>
					
						<rect x="24.6" y="87.5" transform="matrix(-1.836970e-16 1 -1 -1.836970e-16 117.2447 64.7084)" class="st2" width="3.4" height="6.9"/>
				</g>
			</g>
			<g>
				<g>
					
						<rect x="24.6" y="98.7" transform="matrix(-1.836970e-16 1 -1 -1.836970e-16 128.4603 75.924)" class="st2" width="3.4" height="6.9"/>
				</g>
			</g>
			<g>
				<g>
					
						<rect x="22.4" y="93.1" transform="matrix(-1.836970e-16 1 -1 -1.836970e-16 122.8525 70.3162)" class="st11" width="7.8" height="6.9"/>
				</g>
			</g>
		</g>
		<g>
			<g>
				<g>
					
						<rect x="69.7" y="89.9" transform="matrix(-1.836970e-16 1 -1 -1.836970e-16 171.0742 24.5472)" class="st7" width="7.2" height="15.9"/>
				</g>
			</g>
			<g>
				<g>
					
						<rect x="70.1" y="89.9" transform="matrix(-1.836970e-16 1 -1 -1.836970e-16 171.0742 24.5472)" class="st14" width="6.4" height="15.9"/>
				</g>
			</g>
		</g>
		<g>
			<g>
				
					<rect x="76.1" y="90.8" transform="matrix(-1.836970e-16 1 -1 -1.836970e-16 170.2854 13.9374)" class="st2" width="4.2" height="2.5"/>
			</g>
		</g>
		<g>
			<g>
				
					<rect x="66.7" y="90.8" transform="matrix(-1.836970e-16 1 -1 -1.836970e-16 160.9414 23.2814)" class="st2" width="4.2" height="2.5"/>
			</g>
		</g>
		<g>
			<g>
				
					<rect x="71.2" y="102.2" transform="matrix(-1.836970e-16 1 -1 -1.836970e-16 176.7735 30.2465)" class="st2" width="4.2" height="2.5"/>
			</g>
		</g>
	</g>
	<g>
		<rect x="81.2" y="149.1" class="st15" width="5.6" height="32.3"/>
	</g>
	<g>
		<rect x="67.9" y="149.1" class="st16" width="5.6" height="25.1"/>
	</g>
	<g>
		<rect x="53.4" y="149.1" width="5.6" height="25.1"/>
	</g>
	<polyline class="st17" points="50.5,174.3 73.4,174.3 67.8,181.5 92,181.5 	"/>
	<polyline class="st17" points="50.5,180.5 63.6,180.5 58.9,186.5 92,186.5 	"/>
</g>
</svg>
