<?xml version="1.0" encoding="utf-8"?>
<!-- Generator: Adobe Illustrator 23.0.1, SVG Export Plug-In . SVG Version: 6.00 Build 0)  -->
<svg version="1.1" id="Layer_1" xmlns="http://www.w3.org/2000/svg" xmlns:xlink="http://www.w3.org/1999/xlink" x="0px" y="0px"
	 viewBox="0 0 62.4 82" style="enable-background:new 0 0 62.4 82;" xml:space="preserve">
<style type="text/css">
	.st0{display:none;}
	.st1{fill:#2A79BF;}
	.st2{fill:#FFFFFF;}
	.st3{fill:#BE9349;}
	.st4{fill:#E6E6ED;}
	.st5{fill:#1089CA;}
	.st6{fill:#EE2F2E;}
	.st7{fill:#1E201F;}
	.st8{fill:#302F2F;}
	.st9{fill:#1E1E1E;}
	.st10{fill:#C1954C;}
	.st11{fill:#FDC26B;}
	.st12{fill:#FFD49C;}
	.st13{fill:#29292B;}
	.st14{fill:#323332;}
	.st15{fill:#FCE500;}
	.st16{fill:#E9282A;}
	.st17{fill:none;stroke:#FFFFFF;stroke-width:2;stroke-miterlimit:10;}
</style>
<g class="st0">
</g>
<g id="PCB">
</g>
<g id="silk_screen">
</g>
<g id="Pad">
</g>
<g id="component">
	<g>
		<g>
			<g>
				<path class="st1" d="M62.4,56.7v-51c0-3.1-2.6-5.7-5.7-5.7h-51C2.6,0,0,2.6,0,5.7v51c0,3.1,2.6,5.7,5.7,5.7h51
					C59.8,62.4,62.4,59.8,62.4,56.7z M2.3,5.7c0-1.6,1.3-2.8,2.8-2.8S8,4.1,8,5.7S6.7,8.5,5.2,8.5S2.3,7.2,2.3,5.7z M53.9,5.7
					c0-1.6,1.3-2.8,2.8-2.8s2.8,1.3,2.8,2.8s-1.3,2.8-2.8,2.8C55.1,8.5,53.9,7.2,53.9,5.7z M2.3,57.1c0-1.6,1.3-2.8,2.8-2.8
					S8,55.6,8,57.1c0,1.6-1.3,2.8-2.8,2.8S2.3,58.7,2.3,57.1z M53.9,57.1c0-1.6,1.3-2.8,2.8-2.8s2.8,1.3,2.8,2.8
					c0,1.6-1.3,2.8-2.8,2.8C55.1,59.9,53.9,58.7,53.9,57.1z"/>
			</g>
		</g>
		<g>
			<path class="st2" d="M24.1,17.6C24.1,9.6,30.7,3,38.7,3s14.6,6.5,14.6,14.6s-6.5,14.6-14.6,14.6S24.1,25.7,24.1,17.6z M53,17.6
				c0-7.9-6.4-14.3-14.3-14.3S24.4,9.7,24.4,17.6s6.4,14.3,14.3,14.3S53,25.5,53,17.6z"/>
		</g>
		<g>
			<path class="st2" d="M17.7,25.6V9.3h9.2v16.2H17.7z M18,9.6v15.6h8.7V9.6H18z"/>
		</g>
		<g>
			<path class="st2" d="M42.6,45.8v-7.9h3.9v7.9H42.6z M42.9,38.2v7.3h3.3v-7.3H42.9z"/>
		</g>
		<g>
			<path class="st2" d="M37.1,45.8v-7.9H41v7.9H37.1z M37.4,38.2v7.3h3.3v-7.3H37.4z"/>
		</g>
		<g>
			<path class="st2" d="M21.4,45.8v-7.9h3.9v7.9H21.4z M21.7,38.2v7.3H25v-7.3H21.7z"/>
		</g>
		<g>
			<path class="st2" d="M9.4,45.8v-7.9h3.9v7.9H9.4z M9.7,38.2v7.3H13v-7.3H9.7z"/>
		</g>
		<g>
			<path class="st2" d="M20.5,59.2v-6.8h20.1v6.8H20.5z M20.7,52.7v6.2h19.5v-6.2H20.7z"/>
		</g>
		<g>
			<path class="st2" d="M11.8,6.9h2.7v0.4h-2.7V6.9z M11.8,7.1h0.3v0.7c0,0.2,0,0.3,0.1,0.4c0.1,0.1,0.2,0.1,0.3,0.1l0,0
				c0.1,0,0.2,0,0.3-0.1C13,8.3,13,8.2,13,8V7.2h0.3V8c0,0.3,0.1,0.4,0.4,0.4s0.4-0.2,0.4-0.5V7.2h0.3V8c0,0.3-0.1,0.5-0.2,0.6
				S14,8.8,13.8,8.8c-0.1,0-0.3,0-0.3-0.1c-0.1-0.1-0.2-0.2-0.2-0.4c0,0.2-0.1,0.3-0.2,0.4c-0.1,0.1-0.3,0.1-0.4,0.1l0,0
				c-0.2,0-0.4-0.1-0.5-0.2c-0.1-0.1-0.2-0.3-0.2-0.6C11.8,8,11.8,7.1,11.8,7.1z"/>
		</g>
		<g>
			<path class="st2" d="M43.6,33.8h2.4v0.3h-2.4V33.8z M44.6,33.9h0.3v0.9c0,0.1,0,0.1,0.1,0.2c0.1,0,0.2,0.1,0.3,0.1s0.2,0,0.3-0.1
				c0.1,0,0.1-0.1,0.1-0.2v-0.9h0.3v0.9c0,0.1,0,0.2-0.1,0.3c0,0.1-0.1,0.2-0.3,0.2c-0.1,0-0.2,0.1-0.3,0.1c-0.1,0-0.3,0-0.3-0.1
				c-0.1,0-0.2-0.1-0.3-0.2s-0.1-0.2-0.1-0.3L44.6,33.9L44.6,33.9z M43.6,35.1l1.1-0.5l0.1,0.3l-1.1,0.6L43.6,35.1L43.6,35.1z"/>
			<path class="st2" d="M43.6,36.5c0-0.2,0-0.3,0.2-0.5c0.1-0.1,0.3-0.2,0.4-0.2l0,0v0.3l0,0c-0.1,0-0.2,0-0.2,0.1
				c0,0-0.1,0.1-0.1,0.3c0,0.1,0,0.2,0.1,0.3c0,0,0.1,0.1,0.3,0.1h0.1c0.1,0,0.2,0,0.3-0.1c0,0,0.1-0.1,0.1-0.3v-0.2H45v0.2
				c0,0.1,0,0.2,0.1,0.2c0,0,0.1,0.1,0.2,0.1h0.1c0.1,0,0.2,0,0.2-0.1c0,0,0.1-0.1,0.1-0.2s0-0.2-0.1-0.2c0,0-0.1-0.1-0.2-0.1l0,0
				v-0.3l0,0c0.2,0,0.3,0.1,0.4,0.2c0.1,0.1,0.2,0.3,0.2,0.4c0,0.2,0,0.3-0.2,0.5c-0.1,0.1-0.3,0.2-0.4,0.2h-0.1
				c-0.1,0-0.2,0-0.3-0.1c-0.1,0-0.1-0.2-0.2-0.3c0,0.1-0.1,0.2-0.2,0.3c-0.1,0.1-0.2,0.1-0.3,0.1h-0.1c-0.2,0-0.3,0-0.5-0.2
				C43.6,36.9,43.6,36.7,43.6,36.5z"/>
		</g>
		<g>
			<path class="st2" d="M56.3,11.9l3.2-1v0.5l-2.5,0.8l2.5,0.8v0.5l-3.2-1V11.9z"/>
			<path class="st2" d="M59,13.8h0.4v0.4H59V13.8z M56.3,13.8h2.3v0.4h-2.3V13.8z"/>
			<path class="st2" d="M56.3,14.9h3.2v0.4h-3.2V14.9z M56.2,15.9c0-0.1,0-0.3,0.1-0.4c0.1-0.1,0.2-0.2,0.3-0.2l0.5,0
				c-0.1,0-0.2,0-0.3,0s-0.1,0.1-0.2,0.2c0,0.1,0,0.1,0,0.3s0,0.3,0.1,0.3s0.2,0.1,0.4,0.1h0.5c0.2,0,0.3,0,0.4-0.1s0.1-0.2,0.1-0.3
				c0-0.1,0-0.2,0-0.3c0-0.1-0.1-0.1-0.2-0.2c-0.1,0-0.1,0-0.3,0l0.4,0c0.1,0.1,0.2,0.2,0.3,0.3c0.1,0.1,0.1,0.2,0.1,0.4
				c0,0.3-0.1,0.4-0.3,0.6c-0.2,0.1-0.4,0.2-0.7,0.2h-0.3c-0.3,0-0.5-0.1-0.7-0.2C56.3,16.4,56.2,16.2,56.2,15.9z"/>
			<path class="st2" d="M56.3,17.3h2.3v0.4h-2.3V17.3z M58,18.6c0.1-0.1,0.1-0.2,0.1-0.3s0-0.3-0.1-0.3s-0.2-0.1-0.3-0.1l0.4,0
				c0.1,0.1,0.3,0.2,0.3,0.3c0.1,0.1,0.1,0.2,0.1,0.3c0,0.2,0,0.4-0.2,0.5L58,18.6z"/>
			<path class="st2" d="M56.2,20c0-0.3,0-0.5,0.2-0.6c0.1-0.1,0.3-0.2,0.5-0.2c0.2,0,0.4,0,0.5,0.2c0.1,0.1,0.2,0.3,0.2,0.6v0.6
				l-0.3,0v-0.7c0-0.1,0-0.2-0.1-0.3c0,0-0.1-0.1-0.2-0.1c-0.1,0-0.2,0-0.3,0.1c0,0.1-0.1,0.2-0.1,0.3c0,0.2,0,0.3,0,0.4
				s0.1,0.1,0.2,0.1l-0.3,0c0,0-0.1-0.1-0.1-0.1c0,0-0.1-0.1-0.1-0.2C56.3,20.1,56.2,20.1,56.2,20z M56.3,20.5h1.4
				c0.1,0,0.3,0,0.3-0.1c0.1-0.1,0.1-0.2,0.1-0.3c0-0.2,0-0.3-0.2-0.5l0.2-0.3c0.1,0.1,0.2,0.2,0.3,0.3c0,0.1,0.1,0.3,0.1,0.5
				c0,0.3-0.1,0.5-0.2,0.6c-0.1,0.1-0.3,0.2-0.6,0.2h-1.5L56.3,20.5L56.3,20.5z"/>
			<path class="st2" d="M58.1,21.4h0.4v1h-0.4V21.4z M56.3,22.2c0-0.2,0-0.3,0.2-0.4c0.1-0.1,0.3-0.1,0.4-0.1h2.3v0.4h-2.3
				c0,0-0.1,0-0.1,0s0,0,0,0.1v0.2h-0.4L56.3,22.2L56.3,22.2z"/>
			<path class="st2" d="M59,23.1h0.4v0.4H59V23.1z M56.3,23.1h2.3v0.4h-2.3V23.1z"/>
			<path class="st2" d="M56.2,25.1c0-0.3,0.1-0.5,0.3-0.7c0.2-0.2,0.4-0.3,0.7-0.3h0.4c0.3,0,0.6,0.1,0.7,0.3
				c0.2,0.2,0.3,0.4,0.3,0.7s-0.1,0.5-0.3,0.7c-0.2,0.2-0.4,0.3-0.7,0.3h-0.4c-0.3,0-0.6-0.1-0.7-0.3C56.3,25.6,56.2,25.4,56.2,25.1
				z M56.6,25.1c0,0.2,0,0.3,0.1,0.3s0.2,0.1,0.4,0.1h0.4c0.2,0,0.3,0,0.4-0.1s0.1-0.2,0.1-0.3c0-0.2,0-0.3-0.1-0.3
				c-0.1-0.1-0.2-0.1-0.4-0.1h-0.4c-0.2,0-0.3,0-0.4,0.1C56.7,24.8,56.6,24.9,56.6,25.1z"/>
			<path class="st2" d="M56.3,26.6h2.3v0.4h-2.3V26.6z M56.3,28h1.4c0.2,0,0.3,0,0.4-0.1c0.1-0.1,0.1-0.2,0.1-0.3s0-0.3-0.1-0.3
				s-0.2-0.1-0.3-0.1l0.4,0c0.1,0.1,0.3,0.2,0.3,0.3c0.1,0.1,0.1,0.2,0.1,0.4c0,0.3-0.1,0.4-0.3,0.6c-0.2,0.1-0.4,0.2-0.7,0.2h-1.4
				L56.3,28L56.3,28z"/>
			<path class="st2" d="M57.3,31.3l2.1,1v0.4h-3.2v-0.4h2.4l-0.1,0l-1.8-0.8v-0.3l1.7-0.8l0.2,0h-2.4v-0.4h3.2v0.4L57.3,31.3z"/>
			<path class="st2" d="M56.2,34.3c0-0.3,0.1-0.5,0.3-0.7c0.2-0.2,0.4-0.3,0.7-0.3h0.4c0.3,0,0.6,0.1,0.7,0.3s0.3,0.4,0.3,0.7
				c0,0.3-0.1,0.5-0.3,0.7c-0.2,0.2-0.4,0.3-0.7,0.3h-0.4c-0.3,0-0.6-0.1-0.7-0.3C56.3,34.8,56.2,34.6,56.2,34.3z M56.6,34.3
				c0,0.2,0,0.3,0.1,0.3c0.1,0.1,0.2,0.1,0.4,0.1h0.4c0.2,0,0.3,0,0.4-0.1c0.1-0.1,0.1-0.2,0.1-0.3c0-0.2,0-0.3-0.1-0.3
				c-0.1-0.1-0.2-0.1-0.4-0.1h-0.4c-0.2,0-0.3,0-0.4,0.1C56.7,34,56.6,34.1,56.6,34.3z"/>
			<path class="st2" d="M58.1,35.6h0.4v1h-0.4V35.6z M56.3,36.4c0-0.2,0-0.3,0.2-0.4c0.1-0.1,0.3-0.1,0.4-0.1h2.3v0.4h-2.3
				c0,0-0.1,0-0.1,0c0,0,0,0,0,0.1v0.2h-0.4L56.3,36.4L56.3,36.4z"/>
			<path class="st2" d="M56.2,38.2c0-0.3,0.1-0.5,0.3-0.7c0.2-0.2,0.4-0.3,0.7-0.3h0.4c0.3,0,0.6,0.1,0.7,0.3s0.3,0.4,0.3,0.7
				c0,0.3-0.1,0.5-0.3,0.7s-0.4,0.3-0.7,0.3h-0.4c-0.3,0-0.6-0.1-0.7-0.3C56.3,38.7,56.2,38.5,56.2,38.2z M56.6,38.2
				c0,0.2,0,0.3,0.1,0.3c0.1,0.1,0.2,0.1,0.4,0.1h0.4c0.2,0,0.3,0,0.4-0.1c0.1-0.1,0.1-0.2,0.1-0.3c0-0.2,0-0.3-0.1-0.3
				c-0.1-0.1-0.2-0.1-0.4-0.1h-0.4c-0.2,0-0.3,0-0.4,0.1C56.7,37.9,56.6,38,56.6,38.2z"/>
			<path class="st2" d="M56.3,39.7h2.3v0.4h-2.3V39.7z M58,41c0.1-0.1,0.1-0.2,0.1-0.3c0-0.1,0-0.3-0.1-0.3
				c-0.1-0.1-0.2-0.1-0.3-0.1l0.4,0c0.1,0.1,0.3,0.2,0.3,0.3c0.1,0.1,0.1,0.2,0.1,0.3c0,0.2,0,0.4-0.2,0.5L58,41z"/>
		</g>
		<g>
			<path class="st2" d="M38.1,33.8h2.4v0.3h-2.4V33.8z M39.1,33.9h0.3v0.9c0,0.1,0,0.1,0.1,0.2c0.1,0,0.2,0.1,0.3,0.1s0.2,0,0.3-0.1
				c0.1,0,0.1-0.1,0.1-0.2v-0.9h0.3v0.9c0,0.1,0,0.2-0.1,0.3c0,0.1-0.1,0.2-0.3,0.2c-0.1,0-0.2,0.1-0.3,0.1c-0.1,0-0.3,0-0.3-0.1
				c-0.1,0-0.2-0.1-0.3-0.2c0-0.1-0.1-0.2-0.1-0.3L39.1,33.9L39.1,33.9z M38.1,35.1l1.1-0.5l0.1,0.3l-1.2,0.6V35.1z"/>
			<path class="st2" d="M38.1,35.9h0.3l1.1,0.8c0,0,0.1,0.1,0.2,0.1s0.1,0,0.2,0l0,0c0.1,0,0.2,0,0.2-0.1c0,0,0.1-0.1,0.1-0.2
				s0-0.2-0.1-0.2c0,0-0.1-0.1-0.3-0.1l0,0v-0.3l0,0c0.2,0,0.3,0.1,0.5,0.2c0.1,0.1,0.2,0.3,0.2,0.5c0,0.2,0,0.4-0.2,0.5
				c-0.1,0.1-0.3,0.2-0.5,0.2l0,0c-0.1,0-0.2,0-0.3,0c-0.1,0-0.2-0.1-0.3-0.1l-0.9-0.7v0.9h-0.3V35.9z"/>
		</g>
		<g>
			<path class="st2" d="M30.5,34.6c0-0.2,0-0.3,0.1-0.4c0.1-0.1,0.2-0.2,0.3-0.3c0.1-0.1,0.3-0.1,0.5-0.1H32c0.2,0,0.3,0,0.5,0.1
				c0.1,0.1,0.2,0.2,0.3,0.3s0.1,0.3,0.1,0.4s0,0.3-0.1,0.4c-0.1,0.1-0.2,0.2-0.3,0.3s-0.3,0.1-0.5,0.1h-0.6c-0.2,0-0.3,0-0.5-0.1
				c-0.1-0.1-0.2-0.2-0.3-0.3C30.5,34.9,30.5,34.7,30.5,34.6z M30.8,34.6c0,0.1,0,0.3,0.1,0.3c0.1,0.1,0.2,0.1,0.4,0.1H32
				c0.2,0,0.3,0,0.4-0.1c0.1-0.1,0.1-0.2,0.1-0.3c0-0.1,0-0.3-0.1-0.3s-0.2-0.1-0.4-0.1h-0.7c-0.2,0-0.3,0-0.4,0.1
				C30.9,34.3,30.8,34.4,30.8,34.6z M30.5,35.4l0.7-0.9l0.2,0.2l-0.7,0.9L30.5,35.4z"/>
			<path class="st2" d="M32.9,36.5h-2.4v-0.3h2l-0.2-0.3h0.3l0.2,0.3L32.9,36.5L32.9,36.5z"/>
		</g>
		<g>
			<path class="st2" d="M22.3,33.8h2.4v0.3h-2.4V33.8z M23.3,33.9h0.3v0.9c0,0.1,0,0.1,0.1,0.2c0.1,0,0.2,0.1,0.3,0.1
				c0.1,0,0.2,0,0.3-0.1c0.1,0,0.1-0.1,0.1-0.2v-0.9h0.4v0.9c0,0.1,0,0.2-0.1,0.3c0,0.1-0.1,0.2-0.3,0.2c-0.1,0-0.2,0.1-0.3,0.1
				s-0.3,0-0.3-0.1c-0.1,0-0.2-0.1-0.3-0.2s-0.1-0.2-0.1-0.3C23.3,34.8,23.3,33.9,23.3,33.9z M22.3,35.1l1.1-0.5l0.1,0.3l-1.2,0.6
				V35.1z"/>
			<path class="st2" d="M24.7,36.5h-2.4v-0.3h2l-0.2-0.3h0.3l0.2,0.3L24.7,36.5L24.7,36.5z"/>
		</g>
		<g>
			<path class="st2" d="M16.4,32.9h2.4v0.3h-2.4V32.9z M16.4,33.1h0.3v0.5c0,0.2,0,0.3,0.1,0.4c0.1,0.1,0.2,0.1,0.4,0.1h0.7
				c0.2,0,0.3,0,0.4-0.1c0.1-0.1,0.1-0.2,0.1-0.4v-0.5h0.3v0.5c0,0.3-0.1,0.5-0.2,0.6c-0.1,0.2-0.3,0.2-0.6,0.2h-0.6
				c-0.3,0-0.5-0.1-0.6-0.2c-0.1-0.2-0.2-0.4-0.2-0.6L16.4,33.1L16.4,33.1z"/>
			<path class="st2" d="M18.7,35.6h-2.4v-0.3h2l-0.2-0.3h0.3l0.2,0.3L18.7,35.6L18.7,35.6z"/>
		</g>
		<g>
			<path class="st2" d="M10.3,34c0-0.2,0-0.3,0.1-0.4c0.1-0.1,0.2-0.2,0.3-0.3c0.1-0.1,0.3-0.1,0.5-0.1h0.6c0.2,0,0.3,0,0.5,0.1
				c0.1,0.1,0.2,0.2,0.3,0.3c0.1,0.1,0.1,0.3,0.1,0.4c0,0.1,0,0.3-0.1,0.4c0,0.1-0.1,0.2-0.3,0.3c-0.1,0.1-0.2,0.1-0.4,0.2v-0.3
				c0.1,0,0.1,0,0.2-0.1c0,0,0.1-0.1,0.1-0.2c0-0.1,0-0.1,0-0.2c0-0.1,0-0.3-0.2-0.3c-0.1-0.1-0.2-0.1-0.4-0.1h-0.6
				c-0.2,0-0.3,0-0.4,0.1c-0.1,0.1-0.2,0.2-0.2,0.3c0,0.1,0,0.2,0.1,0.3s0.1,0.2,0.3,0.2v0.3c-0.1,0-0.3-0.1-0.3-0.2
				c-0.1-0.1-0.2-0.2-0.2-0.3C10.4,34.3,10.3,34.1,10.3,34z"/>
			<path class="st2" d="M12.7,35.8h-2.4v-0.3h2l-0.2-0.3h0.3l0.2,0.3V35.8z"/>
		</g>
		<g>
			<path class="st2" d="M16.7,55.9c0-0.1,0-0.2,0.1-0.3c0-0.1,0.1-0.2,0.2-0.3l0.2,0.3c0,0-0.1,0-0.1,0.1c0,0,0,0.1,0,0.2
				c0,0.1,0,0.3,0.1,0.3c0.1,0.1,0.2,0.1,0.3,0.1h1.6v0.3h-1.6c-0.2,0-0.3,0-0.4-0.1c-0.1-0.1-0.2-0.2-0.3-0.3
				C16.8,56.2,16.7,56.1,16.7,55.9z"/>
			<path class="st2" d="M19.1,57.8h-2.4v-0.3h2l-0.2-0.3h0.3l0.2,0.3L19.1,57.8L19.1,57.8z"/>
		</g>
		<g>
			<path class="st2" d="M20.1,49.5h0.8V50c0,0.2,0,0.3-0.1,0.5c-0.1,0.1-0.2,0.2-0.3,0.3s-0.3,0.1-0.4,0.1s-0.3,0-0.4-0.1
				c-0.1-0.1-0.2-0.2-0.3-0.3s-0.1-0.3-0.1-0.4v-0.7c0-0.2,0-0.3,0.1-0.5c0.1-0.1,0.2-0.2,0.3-0.3c0.1-0.1,0.3-0.1,0.4-0.1
				c0.1,0,0.3,0,0.4,0.1c0.1,0,0.2,0.1,0.3,0.3c0.1,0.1,0.1,0.2,0.2,0.4h-0.3c0-0.1-0.1-0.2-0.2-0.3c-0.1-0.1-0.2-0.1-0.3-0.1
				c-0.1,0-0.3,0-0.3,0.2c-0.1,0.1-0.1,0.2-0.1,0.4v0.7c0,0.2,0,0.3,0.1,0.4c0.1,0.1,0.2,0.1,0.3,0.1s0.3,0,0.3-0.1
				c0.1-0.1,0.1-0.2,0.1-0.4V50h-0.5L20.1,49.5L20.1,49.5z"/>
			<path class="st2" d="M21.4,50.8v-2.4h0.3l1.2,1.8l0,0v-1.9h0.3v2.4h-0.3L21.7,49l0,0v1.8C21.8,50.8,21.4,50.8,21.4,50.8z"/>
			<path class="st2" d="M24,50.8v-0.3h0.5c0.2,0,0.3,0,0.4-0.1S25,50.1,25,50v-0.7c0-0.2,0-0.3-0.1-0.4c-0.1-0.1-0.2-0.1-0.4-0.1H24
				v-0.3h0.5c0.3,0,0.5,0.1,0.6,0.2c0.2,0.1,0.2,0.3,0.2,0.6v0.6c0,0.3-0.1,0.5-0.2,0.6c-0.2,0.1-0.4,0.2-0.6,0.2L24,50.8L24,50.8z
				 M23.8,50.8v-2.4h0.3v2.4H23.8z"/>
		</g>
		<g>
			<path class="st2" d="M27.6,50.8l-0.8-2.4h0.3l0.6,1.9l0.6-1.9h0.3l-0.8,2.4H27.6z"/>
			<path class="st2" d="M29.8,50.8c-0.2,0-0.3,0-0.4-0.1c-0.1-0.1-0.2-0.2-0.3-0.3c-0.1-0.1-0.1-0.3-0.1-0.5v-0.6
				c0-0.2,0-0.3,0.1-0.5c0.1-0.1,0.2-0.2,0.3-0.3s0.3-0.1,0.4-0.1c0.1,0,0.3,0,0.4,0.1c0.1,0,0.2,0.1,0.3,0.3
				c0.1,0.1,0.1,0.2,0.2,0.4h-0.3c0-0.1,0-0.1-0.1-0.2c0,0-0.1-0.1-0.2-0.1c-0.1,0-0.1,0-0.2,0c-0.1,0-0.3,0-0.3,0.2
				c-0.1,0.1-0.1,0.2-0.1,0.4v0.6c0,0.2,0,0.3,0.1,0.4c0.1,0.1,0.2,0.2,0.3,0.2c0.1,0,0.2,0,0.3-0.1c0.1,0,0.2-0.1,0.2-0.3h0.3
				c0,0.1-0.1,0.3-0.2,0.3c-0.1,0.1-0.2,0.2-0.3,0.2C30,50.8,29.9,50.8,29.8,50.8z"/>
			<path class="st2" d="M31.8,50.8c-0.2,0-0.3,0-0.4-0.1c-0.1-0.1-0.2-0.2-0.3-0.3S31,50.1,31,49.9v-0.6c0-0.2,0-0.3,0.1-0.5
				c0.1-0.1,0.2-0.2,0.3-0.3s0.3-0.1,0.4-0.1c0.1,0,0.3,0,0.4,0.1c0.1,0,0.2,0.1,0.3,0.3c0.1,0.1,0.1,0.2,0.2,0.4h-0.3
				c0-0.1,0-0.1-0.1-0.2c0,0-0.1-0.1-0.2-0.1c0,0-0.1,0-0.2,0c-0.1,0-0.3,0-0.3,0.2c-0.1,0.1-0.1,0.2-0.1,0.4v0.6
				c0,0.2,0,0.3,0.1,0.4c0.1,0.1,0.2,0.2,0.3,0.2c0.1,0,0.2,0,0.3-0.1c0.1,0,0.2-0.1,0.2-0.3h0.3c0,0.1-0.1,0.3-0.2,0.3
				c-0.1,0.1-0.2,0.2-0.3,0.2C32,50.8,32,50.8,31.8,50.8z"/>
		</g>
		<g>
			<path class="st2" d="M35.6,50.8c-0.2,0-0.3,0-0.5-0.1c-0.1,0-0.3-0.1-0.4-0.2l0.2-0.3c0.1,0.1,0.2,0.1,0.3,0.2c0.1,0,0.2,0,0.3,0
				c0.2,0,0.3,0,0.4-0.1c0.1,0,0.1-0.2,0.1-0.3l0,0c0-0.1,0-0.2-0.1-0.2c0,0-0.1-0.1-0.2-0.1c-0.1,0-0.2,0-0.3,0s-0.2,0-0.3,0
				s-0.2,0-0.3-0.1c-0.1,0-0.1-0.1-0.2-0.2c0-0.1-0.1-0.2-0.1-0.3l0,0c0-0.2,0.1-0.4,0.2-0.5c0.1-0.1,0.3-0.2,0.6-0.2
				c0.1,0,0.3,0,0.4,0c0.1,0,0.3,0.1,0.3,0.2l-0.2,0.3c-0.2-0.1-0.3-0.2-0.5-0.2c-0.2,0-0.3,0-0.4,0.1c-0.1,0-0.1,0.2-0.1,0.3l0,0
				c0,0.1,0,0.2,0.1,0.2c0,0,0.1,0.1,0.2,0.1c0.1,0,0.2,0,0.3,0c0.1,0,0.2,0,0.3,0c0.1,0,0.2,0,0.2,0.1c0.1,0,0.1,0.1,0.2,0.2
				c0,0,0,0.2,0,0.3l0,0c0,0.2-0.1,0.4-0.2,0.5C36.1,50.8,35.9,50.8,35.6,50.8z"/>
			<path class="st2" d="M37.3,48.5v2.4h-0.3v-2.4H37.3z"/>
			<path class="st2" d="M38.6,49.5h0.8V50c0,0.2,0,0.3-0.1,0.5c-0.1,0.1-0.2,0.2-0.3,0.3c-0.1,0.1-0.3,0.1-0.4,0.1s-0.3,0-0.4-0.1
				c-0.1-0.1-0.2-0.2-0.3-0.3s-0.1-0.3-0.1-0.4v-0.7c0-0.2,0-0.3,0.1-0.5c0.1-0.1,0.2-0.2,0.3-0.3c0.1-0.1,0.3-0.1,0.4-0.1
				c0.1,0,0.3,0,0.4,0.1c0.1,0,0.2,0.1,0.3,0.3c0.1,0.1,0.1,0.2,0.2,0.4h-0.3c0-0.1-0.1-0.2-0.2-0.3c-0.1-0.1-0.2-0.1-0.3-0.1
				c-0.1,0-0.3,0-0.3,0.2c-0.1,0.1-0.1,0.2-0.1,0.4v0.7c0,0.2,0,0.3,0.1,0.4c0.1,0.1,0.2,0.1,0.3,0.1c0.1,0,0.3,0,0.3-0.1
				c0.1-0.1,0.1-0.2,0.1-0.4V50h-0.5L38.6,49.5L38.6,49.5z"/>
		</g>
		<g>
			<path class="st2" d="M2.1,12c0-0.2,0-0.3,0.1-0.5c0.1-0.2,0.2-0.3,0.3-0.3c0.1-0.1,0.3-0.1,0.5-0.1h0.7c0.2,0,0.4,0,0.5,0.1
				c0.1,0.1,0.3,0.2,0.3,0.3c0.1,0.1,0.1,0.3,0.1,0.5s0,0.3-0.1,0.5c-0.1,0.1-0.2,0.3-0.3,0.3C4.2,12.9,4.1,13,3.9,13H3.1
				c-0.2,0-0.4,0-0.5-0.1c-0.1-0.1-0.3-0.2-0.3-0.3C2.2,12.4,2.1,12.2,2.1,12z M2.5,12c0,0.2,0,0.3,0.2,0.4c0.1,0.1,0.3,0.2,0.4,0.2
				h0.8c0.2,0,0.3,0,0.4-0.2c0.1-0.1,0.2-0.2,0.2-0.4s0-0.3-0.2-0.4c-0.1-0.1-0.3-0.2-0.4-0.2H3.1c-0.2,0-0.3,0-0.4,0.2
				C2.6,11.7,2.5,11.9,2.5,12z"/>
			<path class="st2" d="M2.2,13.6h2.7v0.4H2.2V13.6z M3.2,13.8h0.3v0.9c0,0.1,0,0.2,0.1,0.3C3.8,15,3.9,15.1,4,15.1s0.3,0,0.3-0.1
				s0.1-0.2,0.1-0.3v-0.9h0.3v0.8c0,0.2,0,0.3-0.1,0.4c-0.1,0.1-0.2,0.2-0.3,0.3c-0.1,0.1-0.3,0.1-0.4,0.1c-0.2,0-0.3,0-0.4-0.1
				c-0.1,0-0.2-0.1-0.3-0.3c-0.1-0.1-0.1-0.3-0.1-0.4V13.8z"/>
			<path class="st2" d="M2.2,15.9h2.7v0.4H2.2V15.9z M4.5,16.1h0.3v1.5H4.5V16.1z M3.3,16.1h0.3v1.3H3.3V16.1z M2.2,16.1h0.3v1.5
				H2.2V16.1z"/>
			<path class="st2" d="M2.2,18.1h2.7v0.3l-2,1.3l0,0h2.1v0.4H2.2v-0.3l2-1.3l0,0H2.2V18.1z"/>
			<path class="st2" d="M3.3,20.7V22H2.9v-1.3H3.3z"/>
			<path class="st2" d="M2.1,23.4c0-0.2,0-0.4,0.1-0.5c0-0.2,0.1-0.3,0.3-0.4l0.3,0.2c-0.1,0.1-0.2,0.2-0.2,0.3
				c0,0.1-0.1,0.3-0.1,0.4c0,0.2,0,0.3,0.1,0.4C2.6,23.9,2.7,24,2.9,24l0,0c0.1,0,0.2,0,0.2-0.1c0,0,0.1-0.1,0.1-0.2
				c0-0.1,0-0.2,0.1-0.3c0-0.1,0-0.2,0-0.3c0-0.1,0-0.2,0.1-0.3c0-0.1,0.1-0.2,0.2-0.2c0.1,0,0.2,0,0.4,0l0,0c0.3,0,0.4,0.1,0.6,0.3
				c0.1,0.2,0.2,0.4,0.2,0.7c0,0.1,0,0.3-0.1,0.4s-0.1,0.3-0.2,0.4l-0.3-0.2c0.1-0.2,0.2-0.4,0.2-0.6c0-0.2,0-0.3-0.1-0.4
				c0-0.1-0.1-0.1-0.3-0.1l0,0c-0.1,0-0.2,0-0.2,0.1s-0.1,0.1-0.1,0.2c0,0.1,0,0.2-0.1,0.3c0,0.1,0,0.2-0.1,0.3
				c0,0.1-0.1,0.2-0.1,0.3c0,0.1-0.1,0.1-0.2,0.2c-0.1,0-0.2,0.1-0.3,0.1l0,0c-0.3,0-0.4-0.1-0.6-0.3C2.2,23.9,2.1,23.7,2.1,23.4z"
				/>
			<path class="st2" d="M3.1,26l1.8,0.8v0.3H2.2v-0.3h2H4l-1.5-0.6v-0.3L4,25.2h0.2h-2v-0.3h2.7v0.3L3.1,26z"/>
			<path class="st2" d="M2.2,27.6l2.7,1v0.3l-2.7,1v-0.4l2.2-0.7L2.2,28V27.6z M2.7,28h0.3v1.4H2.7V28z"/>
			<path class="st2" d="M2.2,30.3h2.7v0.4H2.2V30.3z M3.3,30.4h0.3v1c0,0.1,0,0.2,0.1,0.2s0.2,0.1,0.3,0.1s0.2,0,0.3-0.1
				s0.1-0.1,0.1-0.2v-1h0.3v1c0,0.1,0,0.3-0.1,0.4c0,0.1-0.2,0.2-0.3,0.3c-0.1,0-0.3,0.1-0.4,0.1c-0.1,0-0.3,0-0.4-0.1
				c-0.1,0-0.2-0.1-0.3-0.3c0-0.1-0.1-0.2-0.1-0.4L3.3,30.4L3.3,30.4z M2.2,31.8l1.2-0.6l0.1,0.3l-1.3,0.7V31.8z"/>
			<path class="st2" d="M4.5,32.3h0.3v1.9H4.5V32.3z M2.2,33.1h2.5v0.4H2.2V33.1z"/>
		</g>
		<g>
			<path class="st2" d="M11.8,25.7h2.7v0.4h-2.7V25.7z M12.9,25.9h0.3v1c0,0.1,0,0.2,0.1,0.2c0.1,0,0.2,0.1,0.3,0.1s0.2,0,0.3-0.1
				c0.1,0,0.1-0.1,0.1-0.2v-1h0.3v1c0,0.1,0,0.3-0.1,0.4c0,0.1-0.2,0.2-0.3,0.3c-0.1,0-0.3,0.1-0.4,0.1s-0.3,0-0.4-0.1
				c-0.1,0-0.2-0.1-0.3-0.3c0-0.1-0.1-0.2-0.1-0.4L12.9,25.9L12.9,25.9z M11.8,27.2l1.2-0.6l0.1,0.4l-1.3,0.7V27.2z"/>
		</g>
		<g>
			<g>
				<g>
					<rect x="20.6" y="15.6" class="st3" width="3.4" height="2.7"/>
				</g>
			</g>
			<g>
				<g>
					<rect x="20.9" y="15.9" class="st4" width="2.8" height="2"/>
				</g>
			</g>
		</g>
		<g>
			<g>
				<g>
					<rect x="6.9" y="10.4" class="st3" width="8.3" height="4.2"/>
				</g>
			</g>
			<g>
				<g>
					<rect x="7.6" y="11" class="st4" width="6.9" height="3.2"/>
				</g>
			</g>
		</g>
		<g>
			<g>
				<g>
					<rect x="6.9" y="20.6" class="st3" width="8.3" height="4.2"/>
				</g>
			</g>
			<g>
				<g>
					<rect x="7.6" y="21.1" class="st4" width="6.9" height="3.2"/>
				</g>
			</g>
		</g>
		<g>
			<g>
				<g>
					<rect x="20.6" y="18.8" class="st3" width="3.4" height="2.7"/>
				</g>
			</g>
			<g>
				<g>
					<rect x="20.9" y="19.1" class="st4" width="2.8" height="2"/>
				</g>
			</g>
		</g>
		<g>
			<g>
				<g>
					<rect x="32.8" y="38.1" class="st3" width="2.1" height="2.7"/>
				</g>
			</g>
			<g>
				<g>
					<rect x="33" y="38.4" class="st4" width="1.6" height="2.2"/>
				</g>
			</g>
		</g>
		<g>
			<g>
				<g>
					<rect x="30.7" y="43.9" class="st3" width="2.1" height="2.7"/>
				</g>
			</g>
			<g>
				<g>
					<rect x="30.9" y="44.1" class="st4" width="1.6" height="2.2"/>
				</g>
			</g>
		</g>
		<g>
			<g>
				<g>
					<rect x="28.8" y="38.1" class="st3" width="2.1" height="2.7"/>
				</g>
			</g>
			<g>
				<g>
					<rect x="29" y="38.4" class="st4" width="1.6" height="2.2"/>
				</g>
			</g>
		</g>
		<g>
			<path class="st5" d="M11.1,13c0-0.1,0-0.2,0.1-0.3c0.2-0.3,0.6-0.5,1-0.3c6.9,3.6,10.2,3.8,10.2,3.8c0.4,0,0.7,0.3,0.7,0.8
				c0,0.4-0.3,0.7-0.8,0.7c-0.1,0-3.6-0.3-10.8-4C11.2,13.6,11.1,13.3,11.1,13z"/>
		</g>
		<g>
			<path class="st6" d="M10.4,22.7c0-0.2,0.1-0.4,0.2-0.5c5.7-5.2,11.7-2.9,12-2.7c0.4,0.1,0.6,0.6,0.4,1c-0.1,0.4-0.6,0.6-1,0.4
				c-0.2-0.1-5.5-2.1-10.5,2.5c-0.3,0.3-0.7,0.3-1,0C10.4,23.1,10.4,22.9,10.4,22.7z"/>
		</g>
		<g>
			<g>
				<circle class="st2" cx="38.7" cy="17.6" r="13.6"/>
			</g>
		</g>
		<g>
			<g>
				<circle class="st7" cx="38.7" cy="17.6" r="12.9"/>
			</g>
		</g>
		<g>
			<g>
				<g>
					<g>
						<path class="st8" d="M22.9,52.9h3.3c0.5,0.5,0.8,0.8,1.4,1.4v3.3c-0.5,0.5-0.8,0.8-1.4,1.4h-3.3c-0.5-0.5-0.8-0.8-1.4-1.4
							v-3.3C22,53.7,22.3,53.4,22.9,52.9z"/>
					</g>
					<g>
						<path class="st9" d="M21,58.2v-4.5l1.2-1.2h4.5l1.2,1.2v4.5l-1.2,1.2h-4.5L21,58.2z M21.9,54v3.9l0.6,0.6h3.9l0.6-0.6V54
							l-0.6-0.6h-3.9L21.9,54z"/>
					</g>
				</g>
			</g>
			<g>
				<g>
					<g>
						<rect x="23.8" y="55.2" class="st10" width="1.4" height="19"/>
					</g>
				</g>
				<g>
					<g>
						<rect x="23.9" y="55.2" class="st11" width="1.2" height="19"/>
					</g>
				</g>
				<g>
					<g>
						<polygon class="st11" points="24.9,75.2 25.2,74.2 23.8,74.2 24.1,75.2 						"/>
					</g>
				</g>
				<g>
					<g>
						<polygon class="st12" points="24.9,75.2 25.1,74.2 23.9,74.2 24.1,75.2 						"/>
					</g>
				</g>
			</g>
			<g>
				<g>
					<g>
						<path class="st8" d="M28.9,52.9h3.3c0.5,0.5,0.8,0.8,1.4,1.4v3.3c-0.5,0.5-0.8,0.8-1.4,1.4h-3.3c-0.5-0.5-0.8-0.8-1.4-1.4
							v-3.3C28.1,53.7,28.4,53.4,28.9,52.9z"/>
					</g>
					<g>
						<path class="st9" d="M27.1,58.2v-4.5l1.2-1.2h4.5l1.2,1.2v4.5l-1.2,1.2h-4.5L27.1,58.2z M27.9,54v3.9l0.6,0.6h3.9l0.6-0.6V54
							l-0.6-0.6h-3.9L27.9,54z"/>
					</g>
				</g>
			</g>
			<g>
				<g>
					<g>
						<rect x="29.8" y="55.2" class="st10" width="1.4" height="19"/>
					</g>
				</g>
				<g>
					<g>
						<rect x="29.9" y="55.2" class="st11" width="1.2" height="19"/>
					</g>
				</g>
				<g>
					<g>
						<polygon class="st11" points="31,75.2 31.3,74.2 29.8,74.2 30.1,75.2 						"/>
					</g>
				</g>
				<g>
					<g>
						<polygon class="st12" points="31,75.2 31.1,74.2 29.9,74.2 30.1,75.2 						"/>
					</g>
				</g>
			</g>
			<g>
				<g>
					<g>
						<path class="st8" d="M34.9,52.9h3.3c0.5,0.5,0.8,0.8,1.4,1.4v3.3c-0.5,0.5-0.8,0.8-1.4,1.4h-3.3c-0.5-0.5-0.8-0.8-1.4-1.4
							v-3.3C34.1,53.7,34.4,53.4,34.9,52.9z"/>
					</g>
					<g>
						<path class="st9" d="M33.1,58.2v-4.5l1.2-1.2h4.5l1.2,1.2v4.5l-1.2,1.2h-4.5L33.1,58.2z M34,54v3.9l0.6,0.6h3.9l0.6-0.6V54
							l-0.6-0.6h-3.8L34,54z"/>
					</g>
				</g>
			</g>
			<g>
				<g>
					<g>
						<rect x="35.8" y="55.2" class="st10" width="1.4" height="19"/>
					</g>
				</g>
				<g>
					<g>
						<rect x="36" y="55.2" class="st11" width="1.2" height="19"/>
					</g>
				</g>
				<g>
					<g>
						<polygon class="st11" points="37,75.2 37.3,74.2 35.8,74.2 36.1,75.2 						"/>
					</g>
				</g>
				<g>
					<g>
						<polygon class="st12" points="37,75.2 37.2,74.2 35.9,74.2 36.1,75.2 						"/>
					</g>
				</g>
			</g>
		</g>
		<g id="_x3C_Group_x3E__Capacitor_74_">
			<g>
				<g>
					<rect x="43.1" y="38.7" class="st2" width="3" height="1.5"/>
				</g>
			</g>
			<g>
				<g>
					<rect x="43.1" y="43.5" class="st2" width="3" height="1.5"/>
				</g>
			</g>
			<g>
				<g>
					<rect x="43.1" y="40.1" class="st13" width="3" height="3.4"/>
				</g>
			</g>
		</g>
		<g id="_x3C_Group_x3E__Capacitor_1_">
			<g>
				<g>
					<rect x="37.5" y="38.7" class="st2" width="3" height="1.5"/>
				</g>
			</g>
			<g>
				<g>
					<rect x="37.5" y="43.5" class="st2" width="3" height="1.5"/>
				</g>
			</g>
			<g>
				<g>
					<rect x="37.5" y="40.1" class="st13" width="3" height="3.4"/>
				</g>
			</g>
		</g>
		<g id="_x3C_Group_x3E__Capacitor_2_">
			<g>
				<g>
					<rect x="21.9" y="38.7" class="st2" width="3" height="1.5"/>
				</g>
			</g>
			<g>
				<g>
					<rect x="21.9" y="43.5" class="st2" width="3" height="1.5"/>
				</g>
			</g>
			<g>
				<g>
					<rect x="21.9" y="40.1" class="st13" width="3" height="3.4"/>
				</g>
			</g>
		</g>
		<g id="_x3C_Group_x3E__Capacitor_3_">
			<g>
				<g>
					<rect x="15.6" y="38.7" class="st2" width="3" height="1.5"/>
				</g>
			</g>
			<g>
				<g>
					<rect x="15.6" y="43.5" class="st2" width="3" height="1.5"/>
				</g>
			</g>
			<g>
				<g>
					<rect x="15.6" y="40.1" class="st13" width="3" height="3.4"/>
				</g>
			</g>
		</g>
		<g id="_x3C_Group_x3E__Capacitor_4_">
			<g>
				<g>
					<rect x="9.9" y="38.7" class="st2" width="3" height="1.5"/>
				</g>
			</g>
			<g>
				<g>
					<rect x="9.9" y="43.5" class="st2" width="3" height="1.5"/>
				</g>
			</g>
			<g>
				<g>
					<rect x="9.9" y="40.2" class="st11" width="3" height="3.4"/>
				</g>
			</g>
		</g>
		<g>
			<g>
				<g>
					<rect x="28.3" y="40.8" class="st7" width="6.9" height="3.1"/>
				</g>
			</g>
			<g>
				<g>
					<rect x="28.3" y="41" class="st14" width="6.9" height="2.8"/>
				</g>
			</g>
		</g>
		<g>
			<g>
				<rect x="33.3" y="39" class="st2" width="1.1" height="1.8"/>
			</g>
		</g>
		<g>
			<g>
				<rect x="29.3" y="39" class="st2" width="1.1" height="1.8"/>
			</g>
		</g>
		<g>
			<g>
				<rect x="31.2" y="43.9" class="st2" width="1.1" height="1.8"/>
			</g>
		</g>
	</g>
	<g>
		<rect x="35.2" y="64.6" class="st15" width="2.4" height="14"/>
	</g>
	<g>
		<rect x="29.4" y="64.6" class="st16" width="2.4" height="10.9"/>
	</g>
	<g>
		<rect x="23.1" y="64.6" width="2.4" height="10.9"/>
	</g>
	<polyline class="st17" points="21.9,75.5 31.8,75.5 29.4,78.6 39.8,78.6 	"/>
	<polyline class="st17" points="21.9,78.2 27.5,78.2 25.5,80.8 39.8,80.8 	"/>
</g>
</svg>
