<?xml version="1.0" encoding="utf-8"?>
<!-- Generator: Adobe Illustrator 24.2.3, SVG Export Plug-In . SVG Version: 6.00 Build 0)  -->
<svg version="1.1" id="Layer_2_1_" xmlns="http://www.w3.org/2000/svg" xmlns:xlink="http://www.w3.org/1999/xlink" x="0px" y="0px"
	 viewBox="0 0 56.7 43.9" style="enable-background:new 0 0 56.7 43.9;" xml:space="preserve">
<style type="text/css">
	.st0{fill:#134A85;}
	.st1{fill:none;stroke:#FFFFFF;stroke-width:0.25;stroke-miterlimit:10;}
	.st2{fill:#C0944C;}
	.st3{fill:#E5E5EC;}
	.st4{fill:#FFFFFF;}
	.st5{fill:#29292B;}
	.st6{fill:#5C5756;}
	.st7{fill:none;stroke:#C9B55E;stroke-width:0.9715;stroke-miterlimit:10;}
	.st8{fill:none;stroke:#C9B55E;stroke-width:1.0687;stroke-miterlimit:10;}
	.st9{fill:#C8C8C8;}
	.st10{fill:#C9B55E;}
	.st11{fill:#282828;}
	.st12{fill:#474748;}
	.st13{fill:#A6A6A6;}
	.st14{fill:#C6C5C5;}
	.st15{fill:#F4C128;}
	.st16{fill:#E0B480;}
	.st17{fill:#FAF399;}
	.st18{fill:#DCA179;}
	.st19{font-family:'Arial-BoldMT';}
	.st20{font-size:3px;}
	.st21{font-size:3.5px;}
	.st22{fill:none;stroke:#FFFFFF;stroke-width:0.5;stroke-linecap:round;stroke-miterlimit:10;}
</style>
<g>
	<path class="st0" d="M0,43.9h56.7V0H0V43.9z M55.5,40.8c0,1.1-0.9,2-2,2s-2-0.9-2-2c0-1.1,0.9-2,2-2S55.5,39.7,55.5,40.8z
		 M48.3,40.8c0,1.1-0.9,2-2,2s-2-0.9-2-2c0-1.1,0.9-2,2-2C47.4,38.8,48.3,39.7,48.3,40.8z M41.1,40.8c0,1.1-0.9,2-2,2s-2-0.9-2-2
		c0-1.1,0.9-2,2-2C40.2,38.8,41.1,39.7,41.1,40.8z M33.9,40.8c0,1.1-0.9,2-2,2c-1.1,0-2-0.9-2-2c0-1.1,0.9-2,2-2
		C33,38.8,33.9,39.7,33.9,40.8z M26.7,40.8c0,1.1-0.9,2-2,2s-2-0.9-2-2c0-1.1,0.9-2,2-2S26.7,39.7,26.7,40.8z M19.5,40.8
		c0,1.1-0.9,2-2,2s-2-0.9-2-2c0-1.1,0.9-2,2-2S19.5,39.7,19.5,40.8z M12.3,40.8c0,1.1-0.9,2-2,2s-2-0.9-2-2c0-1.1,0.9-2,2-2
		S12.3,39.7,12.3,40.8z M5.1,40.8c0,1.1-0.9,2-2,2s-2-0.9-2-2c0-1.1,0.9-2,2-2S5.1,39.7,5.1,40.8z M54.2,7.4c0,2.5-2,4.5-4.5,4.5
		s-4.5-2-4.5-4.5s2-4.5,4.5-4.5S54.2,4.9,54.2,7.4z M11.5,7.4c0,2.5-2,4.5-4.5,4.5s-4.5-2-4.5-4.5s2-4.5,4.5-4.5S11.5,4.9,11.5,7.4z
		"/>
	<g>
		<line class="st1" x1="9.3" y1="27.5" x2="9.3" y2="22.4"/>
		<line class="st1" x1="0.3" y1="29.5" x2="0.3" y2="22.4"/>
		<g>
			<rect x="6.7" y="27" class="st2" width="2.1" height="2.7"/>
			<rect x="7" y="27.2" class="st3" width="1.6" height="2.3"/>
		</g>
		<g>
			<rect x="4" y="27" class="st2" width="2.1" height="2.7"/>
			<rect x="4.3" y="27.2" class="st3" width="1.6" height="2.3"/>
		</g>
		<g>
			<rect x="1.3" y="27" class="st2" width="2.1" height="2.7"/>
			<rect x="1.6" y="27.2" class="st3" width="1.6" height="2.3"/>
		</g>
		<g>
			<rect x="6.7" y="20.4" class="st2" width="2.1" height="2.7"/>
			<rect x="7" y="20.5" class="st3" width="1.6" height="2.3"/>
		</g>
		<g>
			<rect x="1.3" y="20.4" class="st2" width="2.1" height="2.7"/>
			<rect x="1.6" y="20.5" class="st3" width="1.6" height="2.3"/>
		</g>
		<g id="_x3C_Group_x3E__IC_1_">
			<rect x="7" y="27.3" class="st4" width="1.5" height="1.1"/>
			<rect x="4.3" y="27.4" class="st4" width="1.5" height="1.1"/>
			<rect x="1.6" y="27.4" class="st4" width="1.5" height="1.1"/>
			<rect x="7" y="21.9" class="st4" width="1.5" height="1.1"/>
			<rect x="1.7" y="21.9" class="st4" width="1.5" height="1.1"/>
			<g>
				<rect x="1" y="22.8" class="st5" width="8.2" height="4.8"/>
				<rect x="1.2" y="23" class="st6" width="7.7" height="4.4"/>
			</g>
		</g>
	</g>
	<circle class="st7" cx="53.5" cy="40.8" r="2"/>
	<circle class="st7" cx="46.3" cy="40.8" r="2"/>
	<circle class="st7" cx="39.1" cy="40.8" r="2"/>
	<circle class="st7" cx="31.9" cy="40.8" r="2"/>
	<circle class="st7" cx="24.7" cy="40.8" r="2"/>
	<circle class="st7" cx="17.5" cy="40.8" r="2"/>
	<circle class="st7" cx="10.3" cy="40.8" r="2"/>
	<circle class="st8" cx="3.1" cy="40.8" r="2"/>
	<g id="Atmega_3_">
		<polyline class="st1" points="35.5,26.9 35.5,28.3 33.9,28.3 		"/>
		<g>
			<g>
				<rect x="32.4" y="15.3" class="st9" width="0.5" height="0.8"/>
				<rect x="32.4" y="14.9" class="st10" width="0.5" height="0.4"/>
			</g>
			<g>
				<rect x="30.9" y="15.3" class="st9" width="0.5" height="0.8"/>
				<rect x="30.9" y="14.9" class="st10" width="0.5" height="0.4"/>
			</g>
			<g>
				<rect x="29.5" y="15.3" class="st9" width="0.5" height="0.8"/>
				<rect x="29.5" y="14.9" class="st10" width="0.5" height="0.4"/>
			</g>
			<g>
				<rect x="28.1" y="15.3" class="st9" width="0.5" height="0.8"/>
				<rect x="28.1" y="14.9" class="st10" width="0.5" height="0.4"/>
			</g>
			<g>
				<rect x="26.7" y="15.3" class="st9" width="0.5" height="0.8"/>
				<rect x="26.7" y="14.9" class="st10" width="0.5" height="0.4"/>
			</g>
			<g>
				<rect x="25.3" y="15.3" class="st9" width="0.5" height="0.8"/>
				<rect x="25.3" y="14.9" class="st10" width="0.5" height="0.4"/>
			</g>
			<g>
				<rect x="22.5" y="18" class="st9" width="0.8" height="0.5"/>
				<rect x="22.1" y="18" class="st10" width="0.4" height="0.5"/>
			</g>
			<g>
				<rect x="22.5" y="19.5" class="st9" width="0.8" height="0.5"/>
				<rect x="22.1" y="19.5" class="st10" width="0.4" height="0.5"/>
			</g>
			<g>
				<rect x="22.5" y="20.9" class="st9" width="0.8" height="0.5"/>
				<rect x="22.1" y="20.9" class="st10" width="0.4" height="0.5"/>
			</g>
			<g>
				<rect x="22.5" y="22.4" class="st9" width="0.8" height="0.5"/>
				<rect x="22.1" y="22.4" class="st10" width="0.4" height="0.5"/>
			</g>
			<g>
				<rect x="22.5" y="23.8" class="st9" width="0.8" height="0.5"/>
				<rect x="22.1" y="23.8" class="st10" width="0.4" height="0.5"/>
			</g>
			<g>
				<rect x="22.5" y="25.2" class="st9" width="0.8" height="0.5"/>
				<rect x="22.1" y="25.2" class="st10" width="0.4" height="0.5"/>
			</g>
			<g>
				<rect x="25.3" y="27.8" class="st9" width="0.5" height="0.8"/>
				<rect x="25.3" y="28.6" class="st10" width="0.5" height="0.4"/>
			</g>
			<g>
				<rect x="26.7" y="27.8" class="st9" width="0.5" height="0.8"/>
				<rect x="26.7" y="28.6" class="st10" width="0.5" height="0.4"/>
			</g>
			<g>
				<rect x="28.1" y="27.8" class="st9" width="0.5" height="0.8"/>
				<rect x="28.1" y="28.6" class="st10" width="0.5" height="0.4"/>
			</g>
			<g>
				<rect x="29.6" y="27.8" class="st9" width="0.5" height="0.8"/>
				<rect x="29.6" y="28.6" class="st10" width="0.5" height="0.4"/>
			</g>
			<g>
				<rect x="31" y="27.8" class="st9" width="0.5" height="0.8"/>
				<rect x="31" y="28.6" class="st10" width="0.5" height="0.4"/>
			</g>
			<g>
				<rect x="32.4" y="27.8" class="st9" width="0.5" height="0.8"/>
				<rect x="32.4" y="28.6" class="st10" width="0.5" height="0.4"/>
			</g>
			<g>
				<rect x="35" y="25.2" class="st9" width="0.8" height="0.5"/>
				<rect x="35.8" y="25.2" class="st10" width="0.4" height="0.5"/>
			</g>
			<g>
				<rect x="35" y="23.8" class="st9" width="0.8" height="0.5"/>
				<rect x="35.8" y="23.8" class="st10" width="0.4" height="0.5"/>
			</g>
			<g>
				<rect x="35" y="22.4" class="st9" width="0.8" height="0.5"/>
				<rect x="35.8" y="22.4" class="st10" width="0.4" height="0.5"/>
			</g>
			<g>
				<rect x="35" y="20.9" class="st9" width="0.8" height="0.5"/>
				<rect x="35.8" y="20.9" class="st10" width="0.4" height="0.5"/>
			</g>
			<g>
				<rect x="35" y="19.5" class="st9" width="0.8" height="0.5"/>
				<rect x="35.8" y="19.5" class="st10" width="0.4" height="0.5"/>
			</g>
			<g>
				<rect x="35" y="18" class="st9" width="0.8" height="0.5"/>
				<rect x="35.8" y="18" class="st10" width="0.4" height="0.5"/>
			</g>
		</g>
		<g>
			<rect x="23.3" y="16.1" class="st11" width="11.7" height="11.7"/>
			<rect x="23.6" y="16.4" class="st12" width="11.2" height="11.2"/>
			<circle class="st13" cx="24.7" cy="26.4" r="0.6"/>
		</g>
		<polyline class="st1" points="33.9,15.6 35.5,15.6 35.5,17 		"/>
		<polyline class="st1" points="22.8,16.8 22.8,15.6 24.3,15.6 		"/>
		<polyline class="st1" points="24.3,28.3 22.8,28.3 22.8,26.6 		"/>
	</g>
	<g>
		<g>
			<rect x="17.2" y="28.3" class="st14" width="2.7" height="1.9"/>
		</g>
		<g>
			<rect x="17.2" y="23.5" class="st14" width="2.7" height="1.9"/>
		</g>
		<g>
			<rect x="17.6" y="28.3" class="st4" width="2.1" height="0.7"/>
			<rect x="17.6" y="24.8" class="st4" width="2.1" height="0.7"/>
			<rect x="17.6" y="25.5" class="st12" width="2.1" height="2.8"/>
		</g>
		<line class="st1" x1="17.2" y1="27.6" x2="17.2" y2="26.1"/>
		<line class="st1" x1="20" y1="27.6" x2="20" y2="26.1"/>
	</g>
	<g>
		<g>
			<rect x="45.5" y="28.3" class="st14" width="2.7" height="1.9"/>
		</g>
		<g>
			<rect x="45.5" y="23.5" class="st14" width="2.7" height="1.9"/>
		</g>
		<line class="st1" x1="45.5" y1="27.6" x2="45.5" y2="26.1"/>
		<line class="st1" x1="48.3" y1="27.6" x2="48.3" y2="26.1"/>
		<g>
			<rect x="45.9" y="25.5" class="st4" width="2.1" height="2.8"/>
			<rect x="45.9" y="28.3" class="st15" width="2.1" height="1"/>
			<rect x="45.9" y="24.5" class="st15" width="2.1" height="1"/>
		</g>
	</g>
	<g>
		<g>
			<rect x="41.5" y="28.3" class="st14" width="2.7" height="1.9"/>
		</g>
		<g>
			<rect x="41.4" y="23.5" class="st14" width="2.7" height="1.9"/>
		</g>
		<g>
			<rect x="41.8" y="28.3" class="st4" width="2.1" height="0.7"/>
			<rect x="41.8" y="24.8" class="st4" width="2.1" height="0.7"/>
			<rect x="41.8" y="25.5" class="st12" width="2.1" height="2.8"/>
		</g>
		<line class="st1" x1="41.5" y1="27.6" x2="41.5" y2="26.1"/>
		<line class="st1" x1="44.3" y1="27.6" x2="44.3" y2="26.1"/>
	</g>
	<g>
		<g>
			<rect x="41.5" y="18.3" class="st14" width="2.7" height="1.9"/>
		</g>
		<g>
			<rect x="41.4" y="13.5" class="st14" width="2.7" height="1.9"/>
		</g>
		<g>
			<rect x="41.8" y="18.4" class="st4" width="2.1" height="0.7"/>
			<rect x="41.8" y="14.9" class="st4" width="2.1" height="0.7"/>
			<rect x="41.8" y="15.6" class="st12" width="2.1" height="2.8"/>
		</g>
		<line class="st1" x1="41.5" y1="17.6" x2="41.5" y2="16.1"/>
		<line class="st1" x1="44.3" y1="17.6" x2="44.3" y2="16.1"/>
	</g>
	<g>
		<g>
			<rect x="13.8" y="28.3" class="st14" width="2.7" height="1.9"/>
		</g>
		<g>
			<rect x="13.7" y="23.5" class="st14" width="2.7" height="1.9"/>
		</g>
		<g>
			<rect x="14.1" y="28.3" class="st4" width="2.1" height="0.7"/>
			<rect x="14.1" y="24.8" class="st4" width="2.1" height="0.7"/>
			<rect x="14.1" y="25.5" class="st12" width="2.1" height="2.8"/>
		</g>
		<line class="st1" x1="13.8" y1="27.6" x2="13.8" y2="26.1"/>
		<line class="st1" x1="16.6" y1="27.6" x2="16.6" y2="26.1"/>
	</g>
	<g>
		<g>
			<rect x="10.1" y="28.3" class="st14" width="2.7" height="1.9"/>
		</g>
		<g>
			<rect x="10.1" y="23.5" class="st14" width="2.7" height="1.9"/>
		</g>
		<g>
			<rect x="10.5" y="28.3" class="st4" width="2.1" height="0.7"/>
			<rect x="10.5" y="24.8" class="st4" width="2.1" height="0.7"/>
			<rect x="10.5" y="25.5" class="st16" width="2.1" height="2.8"/>
		</g>
		<line class="st1" x1="10.2" y1="27.6" x2="10.2" y2="26.1"/>
		<line class="st1" x1="13" y1="27.6" x2="13" y2="26.1"/>
	</g>
	<g>
		<g>
			<rect x="13.8" y="18.3" class="st14" width="2.7" height="1.9"/>
		</g>
		<g>
			<rect x="13.7" y="13.5" class="st14" width="2.7" height="1.9"/>
		</g>
		<g>
			<rect x="14.1" y="18.3" class="st4" width="2.1" height="0.7"/>
			<rect x="14.1" y="14.8" class="st4" width="2.1" height="0.7"/>
			<rect x="14.1" y="15.5" class="st16" width="2.1" height="2.8"/>
		</g>
		<line class="st1" x1="13.8" y1="17.6" x2="13.8" y2="16.1"/>
		<line class="st1" x1="16.6" y1="17.6" x2="16.6" y2="16.1"/>
	</g>
	<g>
		<g>
			<rect x="1.8" y="14.3" class="st14" width="1.9" height="2.7"/>
		</g>
		<g>
			<rect x="6.7" y="14.3" class="st14" width="1.9" height="2.7"/>
		</g>
		<g>
			<rect x="3" y="14.6" class="st4" width="0.7" height="2.1"/>
			<rect x="6.5" y="14.6" class="st4" width="0.7" height="2.1"/>
			<rect x="3.7" y="14.6" class="st16" width="2.8" height="2.1"/>
		</g>
		<line class="st1" x1="4.4" y1="14.3" x2="5.9" y2="14.3"/>
		<line class="st1" x1="4.4" y1="17.1" x2="5.9" y2="17.1"/>
	</g>
	<g>
		<g>
			<rect x="37.8" y="23.5" class="st14" width="2.7" height="1.9"/>
		</g>
		<g>
			<rect x="37.8" y="28.3" class="st14" width="2.7" height="1.9"/>
		</g>
		<g>
			<rect x="38" y="24.7" class="st4" width="2.1" height="0.7"/>
			<rect x="38" y="28.2" class="st4" width="2.1" height="0.7"/>
			<rect x="38" y="25.4" class="st16" width="2.1" height="2.8"/>
		</g>
		<line class="st1" x1="40.5" y1="26.1" x2="40.5" y2="27.6"/>
		<line class="st1" x1="37.7" y1="26.1" x2="37.7" y2="27.6"/>
	</g>
	<g>
		<g>
			<rect x="37.8" y="13.6" class="st14" width="2.7" height="1.9"/>
		</g>
		<g>
			<rect x="37.8" y="18.4" class="st14" width="2.7" height="1.9"/>
		</g>
		<g>
			<rect x="38" y="14.7" class="st4" width="2.1" height="0.7"/>
			<rect x="38" y="18.2" class="st4" width="2.1" height="0.7"/>
			<rect x="38" y="15.4" class="st16" width="2.1" height="2.8"/>
		</g>
		<line class="st1" x1="40.5" y1="16.2" x2="40.5" y2="17.7"/>
		<line class="st1" x1="37.7" y1="16.2" x2="37.7" y2="17.7"/>
	</g>
	<g>
		<g>
			<rect x="17.2" y="18.3" class="st14" width="2.7" height="1.9"/>
		</g>
		<g>
			<rect x="17.2" y="13.5" class="st14" width="2.7" height="1.9"/>
		</g>
		<g>
			<rect x="17.5" y="18.3" class="st4" width="2.1" height="0.7"/>
			<rect x="17.5" y="14.8" class="st4" width="2.1" height="0.7"/>
			<rect x="17.5" y="15.5" class="st16" width="2.1" height="2.8"/>
		</g>
		<line class="st1" x1="17.2" y1="17.6" x2="17.2" y2="16.1"/>
		<line class="st1" x1="20" y1="17.6" x2="20" y2="16.1"/>
	</g>
	<g>
		<g>
			<rect x="23.3" y="6.6" class="st14" width="1.7" height="4.1"/>
		</g>
		<g>
			<rect x="33.5" y="6.6" class="st14" width="1.7" height="4.1"/>
		</g>
		<g>
			<rect x="25" y="6" class="st17" width="8.5" height="5.1"/>
			<rect x="31.5" y="6" class="st18" width="1.4" height="5.1"/>
		</g>
		<rect x="33.5" y="7.1" class="st4" width="0.5" height="2.8"/>
		<rect x="24.5" y="7.1" class="st4" width="0.5" height="2.8"/>
	</g>
	<text transform="matrix(6.123234e-17 -1 1 6.123234e-17 4.25 37.7898)" class="st4 st19 st20">VCC</text>
	<text transform="matrix(6.123234e-17 -1 1 6.123234e-17 11.4819 37.7898)" class="st4 st19 st20">GND</text>
	<text transform="matrix(6.123234e-17 -1 1 6.123234e-17 18.7593 37.7898)" class="st4 st19 st20">SCL</text>
	<text transform="matrix(-1 0 0 -1 36.2334 2.1091)" class="st4 st19 st21">ITG/MPU</text>
	<text transform="matrix(6.123234e-17 -1 1 6.123234e-17 47.9551 14.8601)" class="st4 st19 st20">Y</text>
	<text transform="matrix(6.123234e-17 -1 1 6.123234e-17 55.3545 20.6999)" class="st4 st19 st20">X</text>
	<text transform="matrix(6.123234e-17 -1 1 6.123234e-17 54.4468 37.7898)" class="st4 st19 st20">INT</text>
	<text transform="matrix(6.123234e-17 -1 1 6.123234e-17 46.9102 37.7898)" class="st4 st19 st20">ADD</text>
	<text transform="matrix(6.123234e-17 -1 1 6.123234e-17 39.667 37.7898)" class="st4 st19 st20">XCL</text>
	<text transform="matrix(6.123234e-17 -1 1 6.123234e-17 32.8154 37.7898)" class="st4 st19 st20">XDA</text>
	<text transform="matrix(6.123234e-17 -1 1 6.123234e-17 25.7524 37.7898)" class="st4 st19 st20">SDA</text>
	<g>
		<g>
			<path class="st22" d="M48.8,18.5c0,0,1.5-1.7,0.6-3.7"/>
			<g>
				<polygon class="st4" points="50.1,14.7 48.8,13.9 48.8,15.4 				"/>
			</g>
		</g>
	</g>
	<g>
		<g>
			<line class="st22" x1="51.7" y1="16.5" x2="47.1" y2="16.5"/>
			<g>
				<polygon class="st4" points="47.3,15.8 46,16.5 47.3,17.3 				"/>
			</g>
		</g>
	</g>
	<g>
		<g>
			<path class="st22" d="M50.2,23.5c0,0,1.7,1.5,3.7,0.6"/>
			<g>
				<polygon class="st4" points="54.1,24.8 54.8,23.5 53.3,23.5 				"/>
			</g>
		</g>
	</g>
	<g>
		<g>
			<line class="st22" x1="52.2" y1="26.4" x2="52.2" y2="21.8"/>
			<g>
				<polygon class="st4" points="53,22 52.2,20.7 51.5,22 				"/>
			</g>
		</g>
	</g>
</g>
</svg>
