<?xml version="1.0" encoding="utf-8"?>
<!-- Generator: Adobe Illustrator 23.0.1, SVG Export Plug-In . SVG Version: 6.00 Build 0)  -->
<svg version="1.1" id="Layer_1" xmlns="http://www.w3.org/2000/svg" xmlns:xlink="http://www.w3.org/1999/xlink" x="0px" y="0px"
	 viewBox="0 0 62.4 54" style="enable-background:new 0 0 62.4 54;" xml:space="preserve">
<style type="text/css">
	.st0{fill:#7C6B2B;stroke:#D8C262;stroke-width:0.15;stroke-miterlimit:10;}
	.st1{fill:#C9B55E;}
	.st2{fill:#040202;}
	.st3{fill:#FFFFFF;}
	.st4{fill:#DDDDDC;}
	.st5{fill:#EDEDF2;}
	.st6{fill:#C6C5C5;}
	.st7{fill:#7C6B2B;}
	.st8{fill:#474748;}
	.st9{fill:none;stroke:#FFFFFF;stroke-width:0.25;stroke-miterlimit:10;}
	.st10{fill:#3D3C3A;}
	.st11{fill:#0F0E0A;}
	.st12{font-family:'ArialRoundedMTBold';}
	.st13{font-size:4.0645px;}
	.st14{font-size:5.7px;}
	.st15{fill:#CAB65E;}
	.st16{fill:#7D6C2B;}
	.st17{fill:#FBCE54;}
	.st18{fill:#E17D41;}
</style>
<g>
	<path d="M18.9,53.9h24.5c2,0,3.9-1.1,4.9-2.8l12.3-21.3c1-1.8,1-3.9,0-5.7L48.4,2.9c-1-1.8-2.9-2.8-4.9-2.8H18.9
		c-2,0-3.9,1.1-4.9,2.8L1.7,24.2c-1,1.8-1,3.9,0,5.7L14,51.1C15,52.8,16.9,53.9,18.9,53.9z"/>
	<circle class="st0" cx="47.1" cy="36.2" r="0.5"/>
	<circle class="st0" cx="15.1" cy="27" r="0.5"/>
	<circle class="st0" cx="15.1" cy="17.6" r="0.5"/>
	<circle class="st0" cx="47.1" cy="28.4" r="0.5"/>
	<circle class="st0" cx="47.1" cy="44.2" r="0.5"/>
	<circle class="st0" cx="51.9" cy="18.9" r="0.5"/>
	<circle class="st0" cx="51.9" cy="15" r="0.5"/>
	<g id="JST_17_">
		<g>
			<path class="st1" d="M39.3,33.3L39.3,33.3c1,0,1.7,0.8,1.7,1.7v1c0,1-0.8,1.7-1.7,1.7h0c-1,0-1.7-0.8-1.7-1.7v-1
				C37.5,34.1,38.3,33.3,39.3,33.3z"/>
			<ellipse class="st2" cx="39.3" cy="35.5" rx="1" ry="0.9"/>
		</g>
		<g>
			<path class="st1" d="M33.9,33.3L33.9,33.3c1,0,1.7,0.8,1.7,1.7v1c0,1-0.8,1.7-1.7,1.7l0,0c-1,0-1.7-0.8-1.7-1.7v-1
				C32.1,34.1,32.9,33.3,33.9,33.3z"/>
			<ellipse class="st2" cx="33.9" cy="35.5" rx="1" ry="0.9"/>
		</g>
		<g>
			<path class="st1" d="M28.5,33.3L28.5,33.3c1,0,1.7,0.8,1.7,1.7v1c0,1-0.8,1.7-1.7,1.7h0c-1,0-1.7-0.8-1.7-1.7v-1
				C26.7,34.1,27.5,33.3,28.5,33.3z"/>
			<ellipse class="st2" cx="28.5" cy="35.5" rx="1" ry="0.9"/>
		</g>
		<g>
			<path class="st1" d="M21.3,36.2v1.4c0,0.1,0.1,0.1,0.1,0.1h3.2c0.1,0,0.1-0.1,0.1-0.1v-4.2c0-0.1-0.1-0.1-0.1-0.1h-0.9v-0.6h-1.4
				v0.6h-0.9c-0.1,0-0.1,0.1-0.1,0.1v1.4h-0.7v1.3H21.3z"/>
			<ellipse class="st2" cx="23.1" cy="35.5" rx="1" ry="0.9"/>
		</g>
		<g>
			
				<rect x="38.5" y="37.5" transform="matrix(-1 -1.224647e-16 1.224647e-16 -1 78.5284 76.6655)" class="st3" width="1.6" height="1.7"/>
			<path class="st4" d="M39.3,35L39.3,35c0.4,0,0.8,0.4,0.8,0.8v1.7h-1.6v-1.7C38.5,35.4,38.8,35,39.3,35z"/>
		</g>
		<g>
			
				<rect x="33.1" y="37.5" transform="matrix(-1 -1.224647e-16 1.224647e-16 -1 67.7221 76.6655)" class="st3" width="1.6" height="1.7"/>
			<path class="st4" d="M33.9,35L33.9,35c0.4,0,0.8,0.4,0.8,0.8v1.7h-1.6v-1.7C33.1,35.4,33.4,35,33.9,35z"/>
		</g>
		<g>
			
				<rect x="27.7" y="37.5" transform="matrix(-1 -1.224647e-16 1.224647e-16 -1 56.9159 76.6655)" class="st3" width="1.6" height="1.7"/>
			<path class="st4" d="M28.5,35L28.5,35c0.4,0,0.8,0.4,0.8,0.8v1.7h-1.6v-1.7C27.7,35.4,28,35,28.5,35z"/>
		</g>
		<g>
			
				<rect x="22.3" y="37.5" transform="matrix(-1 -1.224647e-16 1.224647e-16 -1 46.1096 76.6655)" class="st3" width="1.6" height="1.7"/>
			<path class="st4" d="M23.1,35L23.1,35c0.4,0,0.8,0.4,0.8,0.8v1.7h-1.6v-1.7C22.3,35.4,22.6,35,23.1,35z"/>
		</g>
		<g>
			
				<rect x="41.7" y="33.8" transform="matrix(-1 -1.224647e-16 1.224647e-16 -1 86.1321 72.1654)" class="st3" width="2.7" height="4.5"/>
			
				<rect x="41.7" y="32" transform="matrix(-1 -1.224647e-16 1.224647e-16 -1 86.1321 65.8725)" class="st4" width="2.7" height="1.8"/>
		</g>
		<g>
			
				<rect x="18" y="33.8" transform="matrix(-1 -1.224647e-16 1.224647e-16 -1 38.6679 72.1654)" class="st3" width="2.7" height="4.5"/>
			
				<rect x="18" y="32" transform="matrix(-1 -1.224647e-16 1.224647e-16 -1 38.6679 65.8725)" class="st4" width="2.7" height="1.8"/>
		</g>
		
			<rect x="18" y="38.6" transform="matrix(-1 -1.224647e-16 1.224647e-16 -1 62.4 89.7175)" class="st4" width="26.4" height="12.5"/>
		<g>
			
				<rect x="33.4" y="38.6" transform="matrix(-1 -1.224647e-16 1.224647e-16 -1 67.8409 89.7534)" class="st3" width="1.1" height="12.6"/>
			
				<rect x="27.9" y="38.6" transform="matrix(-1 -1.224647e-16 1.224647e-16 -1 56.9258 89.7534)" class="st3" width="1.1" height="12.6"/>
			
				<rect x="30.6" y="38.6" transform="matrix(-1 -1.224647e-16 1.224647e-16 -1 62.319 84.2942)" class="st3" width="1.1" height="7.2"/>
			
				<rect x="36" y="38.6" transform="matrix(-1 -1.224647e-16 1.224647e-16 -1 73.1252 84.2942)" class="st3" width="1.1" height="7.2"/>
			
				<rect x="25.2" y="38.6" transform="matrix(-1 -1.224647e-16 1.224647e-16 -1 51.5127 84.2942)" class="st3" width="1.1" height="7.2"/>
		</g>
		
			<rect x="18" y="38.6" transform="matrix(-1 -1.224647e-16 1.224647e-16 -1 62.319 81.4166)" class="st5" width="26.3" height="4.3"/>
		<polygon class="st3" points="24.3,53.9 24.3,43.9 30.5,43.9 38.1,43.9 38.1,53.9 44.4,53.9 44.4,38.6 43,38.6 43,49.3 40.4,49.3 
			40.4,39.2 30.5,39.2 22,39.2 22,49.3 19.4,49.3 19.4,38.6 18,38.6 18,53.9 		"/>
		
			<rect x="30.5" y="38.6" transform="matrix(-1 -1.224647e-16 1.224647e-16 -1 62.3388 77.795)" class="st3" width="1.4" height="0.6"/>
		
			<rect x="35.9" y="38.6" transform="matrix(-1 -1.224647e-16 1.224647e-16 -1 73.1252 77.795)" class="st3" width="1.4" height="0.6"/>
		
			<rect x="25.1" y="38.6" transform="matrix(-1 -1.224647e-16 1.224647e-16 -1 51.5127 77.795)" class="st3" width="1.4" height="0.6"/>
		<rect x="27.9" y="32.7" class="st1" width="1.1" height="0.8"/>
		<rect x="38.7" y="32.7" class="st1" width="1.1" height="0.8"/>
		<ellipse class="st0" cx="15.1" cy="35.8" rx="0.5" ry="0.4"/>
	</g>
	<g id="JST_16_">
		<g>
			<path class="st1" d="M21.6,20.2L21.6,20.2c-1,0-1.7-0.8-1.7-1.7v-0.8c0-1,0.8-1.7,1.7-1.7h0c1,0,1.7,0.8,1.7,1.7v0.8
				C23.3,19.4,22.5,20.2,21.6,20.2z"/>
			<ellipse class="st2" cx="21.6" cy="18.1" rx="1" ry="0.9"/>
		</g>
		<g>
			<path class="st1" d="M28.7,17.4V16c0-0.1-0.1-0.1-0.1-0.1h-3.2c-0.1,0-0.1,0.1-0.1,0.1v4.1c0,0.1,0.1,0.1,0.1,0.1h0.9v0.6h1.4
				v-0.6h0.9c0.1,0,0.1-0.1,0.1-0.1v-1.4h0.7v-1.3H28.7z"/>
			<ellipse class="st2" cx="27" cy="18.1" rx="1" ry="0.9"/>
		</g>
		<g>
			<rect x="20.8" y="14.5" class="st3" width="1.6" height="1.7"/>
			<path class="st4" d="M21.6,18.6L21.6,18.6c-0.4,0-0.8-0.4-0.8-0.8v-1.6h1.6v1.6C22.4,18.2,22,18.6,21.6,18.6z"/>
		</g>
		<g>
			<rect x="26.2" y="14.5" class="st3" width="1.6" height="1.7"/>
			<path class="st4" d="M27,18.6L27,18.6c-0.4,0-0.8-0.4-0.8-0.8v-1.6h1.6v1.6C27.8,18.2,27.4,18.6,27,18.6z"/>
		</g>
		<g>
			<rect x="16.4" y="15" class="st3" width="2.7" height="4.4"/>
			<rect x="16.4" y="19.4" class="st4" width="2.7" height="1.7"/>
		</g>
		<g>
			<rect x="29.6" y="15" class="st3" width="2.7" height="4.4"/>
			<rect x="29.6" y="19.4" class="st4" width="2.7" height="1.7"/>
		</g>
		<rect x="16.4" y="2.9" class="st4" width="15.9" height="12.2"/>
		<g>
			<rect x="21" y="2.8" class="st3" width="1.1" height="12.3"/>
			<rect x="26.4" y="2.8" class="st3" width="1.1" height="12.3"/>
			<rect x="23.7" y="8.1" class="st3" width="1.1" height="7"/>
			<rect x="18.3" y="8.1" class="st3" width="1.1" height="7"/>
			<rect x="29.1" y="8.1" class="st3" width="1.1" height="7"/>
		</g>
		<rect x="16.3" y="10.9" class="st5" width="15.9" height="4.2"/>
		<polygon class="st3" points="20.4,14.5 20.4,4.7 17.8,4.7 17.8,15.1 16.4,15.1 16.4,0.2 22.7,0.2 22.7,9.9 25.9,9.9 25.9,0.2 
			32.2,0.2 32.2,15.1 30.8,15.1 30.8,4.7 28.2,4.7 28.2,14.5 		"/>
		<rect x="18.4" y="14.5" class="st3" width="1.4" height="0.6"/>
		<rect x="23.8" y="14.5" class="st3" width="1.4" height="0.6"/>
		
			<rect x="21" y="20" transform="matrix(-1 -1.224647e-16 1.224647e-16 -1 43.1823 40.7396)" class="st1" width="1.1" height="0.8"/>
	</g>
	<g>
		<g>
			
				<rect x="43.8" y="21.6" transform="matrix(-1 -1.224647e-16 1.224647e-16 -1 89.3619 45.8458)" class="st6" width="1.9" height="2.7"/>
			<g>
				<path class="st7" d="M45.6,21.6v2.7h-1.9v-2.7H45.6 M46.1,21.1h-0.5h-1.9h-0.5v0.5v2.7v0.5h0.5h1.9h0.5v-0.5v-2.7V21.1
					L46.1,21.1z"/>
			</g>
			
				<rect x="43.2" y="22.6" transform="matrix(-1.836970e-16 1 -1 -1.836970e-16 66.383 -20.6459)" class="st1" width="0.7" height="0.5"/>
			<rect x="44.3" y="24.3" class="st1" width="0.7" height="0.5"/>
			<rect x="44.7" y="21.1" class="st1" width="0.7" height="0.5"/>
		</g>
		<g>
			
				<rect x="48.6" y="21.6" transform="matrix(-1 -1.224647e-16 1.224647e-16 -1 99.0103 45.8458)" class="st6" width="1.9" height="2.7"/>
			<g>
				<path class="st7" d="M50.4,21.6v2.7h-1.9v-2.7H50.4 M50.9,21.1h-0.5h-1.9h-0.5v0.5v2.7v0.5h0.5h1.9h0.5v-0.5v-2.7V21.1
					L50.9,21.1z"/>
			</g>
			
				<rect x="48" y="22.6" transform="matrix(-1.836970e-16 1 -1 -1.836970e-16 71.2072 -25.4701)" class="st1" width="0.7" height="0.5"/>
			<rect x="49.1" y="24.3" class="st1" width="0.7" height="0.5"/>
			<rect x="49.5" y="21.1" class="st1" width="0.7" height="0.5"/>
		</g>
		<g>
			
				<rect x="48.6" y="21.8" transform="matrix(-1 -1.224647e-16 1.224647e-16 -1 97.9613 45.8261)" class="st3" width="0.7" height="2.1"/>
			
				<rect x="45.1" y="21.8" transform="matrix(-1 -1.224647e-16 1.224647e-16 -1 90.866 45.8261)" class="st3" width="0.7" height="2.1"/>
			
				<rect x="45.8" y="21.8" transform="matrix(-1 -1.224647e-16 1.224647e-16 -1 94.4137 45.8261)" class="st8" width="2.8" height="2.1"/>
		</g>
		<line class="st9" x1="47.8" y1="24.3" x2="46.3" y2="24.3"/>
		<line class="st9" x1="47.8" y1="21.5" x2="46.3" y2="21.5"/>
	</g>
	<g>
		<g>
			
				<rect x="43.8" y="17.7" transform="matrix(-1 -1.224647e-16 1.224647e-16 -1 89.3619 38.0046)" class="st6" width="1.9" height="2.7"/>
			<g>
				<path class="st7" d="M45.6,17.7v2.7h-1.9v-2.7H45.6 M46.1,17.2h-0.5h-1.9h-0.5v0.5v2.7v0.5h0.5h1.9h0.5v-0.5v-2.7V17.2
					L46.1,17.2z"/>
			</g>
			
				<rect x="43.2" y="18.7" transform="matrix(-1.836970e-16 1 -1 -1.836970e-16 62.4624 -24.5665)" class="st1" width="0.7" height="0.5"/>
			<rect x="44.3" y="20.3" class="st1" width="0.7" height="0.5"/>
			<rect x="44.7" y="17.2" class="st1" width="0.7" height="0.5"/>
		</g>
		<g>
			
				<rect x="48.6" y="17.7" transform="matrix(-1 -1.224647e-16 1.224647e-16 -1 99.0103 38.0046)" class="st6" width="1.9" height="2.7"/>
			<g>
				<path class="st7" d="M50.4,17.7v2.7h-1.9v-2.7H50.4 M50.9,17.2h-0.5h-1.9h-0.5v0.5v2.7v0.5h0.5h1.9h0.5v-0.5v-2.7V17.2
					L50.9,17.2z"/>
			</g>
			
				<rect x="48" y="18.7" transform="matrix(-1.836970e-16 1 -1 -1.836970e-16 67.2866 -29.3907)" class="st1" width="0.7" height="0.5"/>
			<rect x="49.1" y="20.3" class="st1" width="0.7" height="0.5"/>
			<rect x="49.5" y="17.2" class="st1" width="0.7" height="0.5"/>
		</g>
		<g>
			
				<rect x="48.6" y="17.9" transform="matrix(-1 -1.224647e-16 1.224647e-16 -1 97.9613 37.9849)" class="st3" width="0.7" height="2.1"/>
			
				<rect x="45.1" y="17.9" transform="matrix(-1 -1.224647e-16 1.224647e-16 -1 90.866 37.9849)" class="st3" width="0.7" height="2.1"/>
			
				<rect x="45.8" y="17.9" transform="matrix(-1 -1.224647e-16 1.224647e-16 -1 94.4137 37.9849)" class="st8" width="2.8" height="2.1"/>
		</g>
		<line class="st9" x1="47.8" y1="20.3" x2="46.3" y2="20.3"/>
		<line class="st9" x1="47.8" y1="17.5" x2="46.3" y2="17.5"/>
	</g>
	<polyline class="st9" points="20.3,30.8 16.5,30.8 16.5,23.2 30.7,23.2 30.7,30.8 23.5,30.8 23.5,30.2 	"/>
	<g>
		<g>
			<path class="st10" d="M24.1,23.6h6c0.2,0,0.4,0.2,0.4,0.4v6c0,0.2-0.2,0.4-0.4,0.4h-6c-0.2,0-0.4-0.2-0.4-0.4v-6
				C23.7,23.8,23.8,23.6,24.1,23.6z"/>
			
				<rect x="25.7" y="25.7" transform="matrix(-1 -1.224647e-16 1.224647e-16 -1 54.146 54.064)" class="st11" width="2.7" height="2.7"/>
		</g>
	</g>
	<g>
		<g>
			<path class="st10" d="M17.1,23.6h6c0.2,0,0.4,0.2,0.4,0.4v6c0,0.2-0.2,0.4-0.4,0.4h-6c-0.2,0-0.4-0.2-0.4-0.4v-6
				C16.7,23.8,16.9,23.6,17.1,23.6z"/>
			
				<rect x="18.7" y="25.7" transform="matrix(-1 -1.224647e-16 1.224647e-16 -1 40.182 54.064)" class="st11" width="2.7" height="2.7"/>
		</g>
	</g>
	<text transform="matrix(-1.224647e-16 1 -1 -1.224647e-16 9.7402 15.4081)" class="st3 st12 st13">Load Driver</text>
	<text transform="matrix(-1 0 0 -1 33.3857 29.6068)" class="st3 st12 st14">+</text>
	<g>
		<g>
			<polygon class="st3" points="51.1,24.3 56.5,29.6 56.5,28.5 54.3,26.4 54.9,25.9 56.5,27.5 56.5,26.4 55.4,25.3 55.9,24.8 
				56.5,25.3 56.5,24.3 			"/>
			<polygon class="st3" points="51.1,29.6 52,29.6 53.9,27.8 53.4,27.3 			"/>
			<polygon class="st3" points="52.9,29.6 53.9,29.6 54.8,28.7 54.3,28.2 			"/>
			<polygon class="st3" points="54.8,29.6 55.7,29.6 55.3,29.2 			"/>
		</g>
	</g>
	<g>
		<g>
			
				<rect x="44.1" y="26.4" transform="matrix(-1 -1.224647e-16 1.224647e-16 -1 90.1238 56.7052)" class="st6" width="1.9" height="3.9"/>
			<g>
				<path class="st15" d="M46,26.4v3.9h-1.9v-3.9H46 M46.5,25.9H46h-1.9h-0.5v0.5v3.9v0.5h0.5H46h0.5v-0.5v-3.9V25.9L46.5,25.9z"/>
			</g>
		</g>
		<g>
			
				<rect x="35" y="26.4" transform="matrix(-1 -1.224647e-16 1.224647e-16 -1 71.8957 56.7052)" class="st6" width="1.9" height="3.9"/>
			<g>
				<path class="st16" d="M36.9,26.4v3.9H35v-3.9H36.9 M37.4,25.9h-0.5H35h-0.5v0.5v3.9v0.5H35h1.9h0.5v-0.5v-3.9V25.9L37.4,25.9z"
					/>
			</g>
		</g>
		
			<rect x="38.3" y="25.9" transform="matrix(-1 -1.224647e-16 1.224647e-16 -1 83.2965 56.738)" class="st17" width="6.8" height="4.9"/>
		
			<rect x="35.9" y="25.9" transform="matrix(-1 -1.224647e-16 1.224647e-16 -1 74.1917 56.738)" class="st18" width="2.3" height="4.9"/>
		<polyline class="st9" points="44.7,31.1 34.3,31.1 34.3,25.4 44.8,25.4 		"/>
	</g>
	<g>
		
			<rect x="36.9" y="20.9" transform="matrix(6.123234e-17 -1 1 6.123234e-17 14.8915 61.351)" class="st6" width="2.5" height="4.7"/>
		<g>
			<path class="st16" d="M40.4,22v2.5h-4.7V22H40.4 M40.9,21.5h-0.5h-4.7h-0.5V22v2.5V25h0.5h4.7h0.5v-0.5V22V21.5L40.9,21.5z"/>
		</g>
	</g>
	<g>
		
			<rect x="36.9" y="6.6" transform="matrix(6.123234e-17 -1 1 6.123234e-17 29.2306 47.0119)" class="st6" width="2.5" height="4.7"/>
		<g>
			<path class="st16" d="M40.4,7.6v2.5h-4.7V7.6H40.4 M40.9,7.1h-0.5h-4.7h-0.5v0.5v2.5v0.5h0.5h4.7h0.5v-0.5V7.6V7.1L40.9,7.1z"/>
		</g>
	</g>
	
		<rect x="34.6" y="9.6" transform="matrix(-1 -1.224647e-16 1.224647e-16 -1 76.2425 29.382)" class="st10" width="7.1" height="10.2"/>
	
		<rect x="34.6" y="19.8" transform="matrix(-1 -1.224647e-16 1.224647e-16 -1 76.2425 41.5176)" class="st3" width="7.1" height="1.9"/>
	<polyline class="st9" points="42.2,10.9 42.2,25.4 33.5,25.4 33.5,10.9 	"/>
	<g>
		
			<rect x="48.6" y="13.4" transform="matrix(-1 -1.224647e-16 1.224647e-16 -1 99.2007 29.6133)" class="st6" width="2" height="2.8"/>
		<g>
			<path class="st15" d="M50.6,13.4v2.8h-2v-2.8H50.6 M51.1,12.9h-0.5h-2h-0.5v0.5v2.8v0.5h0.5h2h0.5v-0.5v-2.8V12.9L51.1,12.9z"/>
		</g>
	</g>
	<g>
		
			<rect x="43.6" y="13.4" transform="matrix(-1 -1.224647e-16 1.224647e-16 -1 89.239 29.6133)" class="st6" width="2" height="2.8"/>
		<g>
			<g>
				<path class="st16" d="M45.6,13.4v2.8h-2v-2.8H45.6 M46.1,12.9h-0.5h-2h-0.5v0.5v2.8v0.5h0.5h2h0.5v-0.5v-2.8V12.9L46.1,12.9z"/>
			</g>
		</g>
	</g>
	<g>
		
			<rect x="46.2" y="8.4" transform="matrix(-1 -1.224647e-16 1.224647e-16 -1 94.4137 19.5473)" class="st6" width="2" height="2.8"/>
		<g>
			<g>
				<path class="st16" d="M48.2,8.4v2.8h-2V8.4H48.2 M48.7,7.9h-0.5h-2h-0.5v0.5v2.8v0.5h0.5h2h0.5v-0.5V8.4V7.9L48.7,7.9z"/>
			</g>
		</g>
	</g>
	
		<rect x="43.1" y="10.5" transform="matrix(-1 -1.224647e-16 1.224647e-16 -1 94.3447 24.8171)" class="st10" width="8.2" height="3.8"/>
	
		<rect x="49.1" y="14.4" transform="matrix(-1 -1.224647e-16 1.224647e-16 -1 99.2007 29.6133)" class="st3" width="0.9" height="0.9"/>
	
		<rect x="44.2" y="14.4" transform="matrix(-1 -1.224647e-16 1.224647e-16 -1 89.239 29.6133)" class="st3" width="0.9" height="0.9"/>
	
		<rect x="46.8" y="9.6" transform="matrix(-1 -1.224647e-16 1.224647e-16 -1 94.4137 20.1163)" class="st3" width="0.9" height="0.9"/>
	<polyline class="st9" points="42.9,16.1 42.9,10.3 43.3,10.3 	"/>
	<polyline class="st9" points="51.4,14.2 51.4,10.3 51.1,10.3 	"/>
</g>
</svg>
