<?xml version="1.0" encoding="utf-8"?>
<!-- Generator: Adobe Illustrator 24.0.1, SVG Export Plug-In . SVG Version: 6.00 Build 0)  -->
<svg version="1.1" id="Layer_1" xmlns="http://www.w3.org/2000/svg" xmlns:xlink="http://www.w3.org/1999/xlink" x="0px" y="0px"
	 viewBox="0 0 115 201" style="enable-background:new 0 0 115 201;" xml:space="preserve">
<style type="text/css">
	.st0{stroke:#FFFFFF;stroke-miterlimit:10;}
	.st1{fill:#0951F0;stroke:#09398E;stroke-width:2;stroke-miterlimit:10;}
	.st2{fill:#09398E;}
	.st3{font-family:'ArialNarrow-Bold';}
	.st4{font-size:10px;}
</style>
<g>
	<rect x="81" y="168.2" width="9" height="32.8"/>
	<g>
		<path class="st0" d="M113.5,59.8"/>
		<path class="st1" d="M105.5,0.8c0,0-72,0-81,0s-9,9-9,9v89l-14,20l11,7l15-20c0,7,8,7,8,7s2,0,12,0s10,9,10,9s0,28,0,37s8,9,8,9
			h41c7,0,7-7,7-7s0-148.8,0-150C113.5,1.8,105.5,0.8,105.5,0.8z M84.5,70.8h-36v-21c0,0,5-11,18-11s18,11,18,11V70.8z"/>
		<path class="st1" d="M113.5,60.8h-29v11h-36v-11c0,0-6,0-14,0s-7,7-7,7v38"/>
		<g>
			<path class="st1" d="M48.5,49.8c0,0,5-11,18-11h-18V49.8z"/>
			<path class="st1" d="M66.5,38.8c13,0,18,11,18,11v-11H66.5z"/>
		</g>
	</g>
	<text transform="matrix(1 0 0 1 70.0923 111.5527)" class="st2 st3 st4">SCT013</text>
</g>
</svg>
