<?xml version="1.0" encoding="utf-8"?>
<!-- Generator: Adobe Illustrator 19.0.0, SVG Export Plug-In . SVG Version: 6.00 Build 0)  -->
<svg version="1.1"
	 id="Layer_1" shape-rendering="geometricPrecision" text-rendering="geometricPrecision" image-rendering="optimizeQuality"
	 xmlns="http://www.w3.org/2000/svg" xmlns:xlink="http://www.w3.org/1999/xlink" x="0px" y="0px" viewBox="-473.9 364 181.4 72.3"
	 style="enable-background:new -473.9 364 181.4 72.3;" xml:space="preserve">
<style type="text/css">
	.st0{fill:#063153;}
	.st1{fill:none;stroke:#FFFFFF;stroke-width:0.25;stroke-miterlimit:10;}
	.st2{fill:#FFFFFF;}
	.st3{fill:#474748;}
	.st4{fill:#FCCF54;}
	.st5{fill:#EDEDF2;}
	.st6{fill:#DDDDDC;}
	.st7{fill:#C6C5C5;}
	.st8{fill:none;stroke:#FFFFFF;stroke-width:0.1773;stroke-miterlimit:10;}
	.st9{fill:#7C6B2B;}
	.st10{fill:#3A3A3A;}
	.st11{fill:#D3D3D3;}
	.st12{fill:#282828;}
	.st13{fill:none;stroke:#7C6B2B;stroke-width:0.2139;stroke-miterlimit:10;}
	.st14{fill:#C8C8C8;}
	.st15{fill:#C9B55E;}
	.st16{fill:#0F0F0F;}
	.st17{fill:#353535;}
	.st18{fill:#404040;}
	.st19{fill:none;}
	.st20{fill:#2A2A29;}
	.st21{fill:#474747;}
	.st22{fill:#595959;}
	.st23{fill:#373737;}
	.st24{opacity:0.5;fill:#0F0F0F;}
	.st25{fill:#232323;}
	.st26{fill:#D4D5D6;}
	.st27{fill:#8D8C8C;}
	.st28{fill:#8C8663;}
	.st29{fill:#B8AF82;}
	.st30{fill:#80795B;}
	.st31{fill:#5E5B43;}
	.st32{fill:#9A916C;}
	.st33{fill:#3D3C3A;}
	.st34{fill:#232221;}
	.st35{opacity:0.63;fill:#3D3C3A;}
	.st36{opacity:0.53;fill:#3D3C3A;}
	.st37{fill:none;stroke:#FFFFFF;stroke-width:0.3818;stroke-miterlimit:10;}
	.st38{fill:#C0944C;}
	.st39{fill:#E5E5EC;}
	.st40{fill:#29292B;}
	.st41{fill:#5C5756;}
	.st42{fill:#FFFFFF;stroke:#FFFFFF;stroke-width:0.2713;stroke-miterlimit:10;}
	.st43{font-family:'MyriadPro-Regular';}
	.st44{font-size:2.8035px;}
	.st45{font-family:'SegoeUI-Bold';}
	.st46{font-size:6px;}
	.st47{font-size:5.9923px;}
	.st48{opacity:0.71;fill:#FFFFFF;}
</style>
<g>
	<path class="st0" d="M-473.9,372.1v57.6c0,4,3.2,7.2,7.2,7.2h167c4,0,7.2-3.2,7.2-7.2v-9.6h-31.3c-0.2,0-1.2,0.1-2.1-0.6
		c-1-0.8-0.8-2-0.8-2.1v-17.9v-17.9c0-0.1-0.2-1.3,0.8-2.1c0.9-0.7,1.9-0.6,2.1-0.6h31.3v-6.8c0-3.9-3.2-7.2-7.2-7.2h-167
		C-470.7,364.9-473.9,368.2-473.9,372.1z M-295,430.8c0,2.6-2.1,4.7-4.7,4.7c-2.6,0-4.7-2.1-4.7-4.7c0-2.6,2.1-4.7,4.7-4.7
		C-297.1,426.1-295,428.2-295,430.8z M-462.5,430.7c0,2.6-2.1,4.7-4.7,4.7s-4.7-2.1-4.7-4.7s2.1-4.7,4.7-4.7
		S-462.5,428.1-462.5,430.7z M-295,371c0,2.6-2.1,4.7-4.7,4.7c-2.6,0-4.7-2.1-4.7-4.7s2.1-4.7,4.7-4.7
		C-297.1,366.4-295,368.5-295,371z M-462.5,370.9c0,2.6-2.1,4.7-4.7,4.7s-4.7-2.1-4.7-4.7s2.1-4.7,4.7-4.7S-462.5,368.4-462.5,370.9
		z"/>
	<g>
		<rect x="-457.1" y="420.8" class="st1" width="8.4" height="3.6"/>
		<g>
			<rect x="-450.7" y="421.5" class="st2" width="1.2" height="2.3"/>
			<rect x="-456.3" y="421.5" class="st2" width="1.2" height="2.3"/>
			<rect x="-455.1" y="421.5" class="st3" width="4.5" height="2.3"/>
		</g>
	</g>
	<g>
		<rect x="-457.1" y="414" class="st1" width="8.4" height="3.6"/>
		<g>
			<rect x="-450.7" y="414.6" class="st2" width="1.2" height="2.3"/>
			<rect x="-456.3" y="414.6" class="st2" width="1.2" height="2.3"/>
			<rect x="-455.1" y="414.6" class="st4" width="4.5" height="2.3"/>
		</g>
	</g>
	<g>
		<rect x="-457.1" y="408" class="st1" width="8.4" height="3.6"/>
		<g>
			<rect x="-450.7" y="408.6" class="st2" width="1.2" height="2.3"/>
			<rect x="-456.3" y="408.6" class="st2" width="1.2" height="2.3"/>
			<rect x="-455.1" y="408.6" class="st4" width="4.5" height="2.3"/>
		</g>
	</g>
	<g>
		<rect x="-457.4" y="389.1" class="st1" width="8.4" height="3.6"/>
		<g>
			<rect x="-450.9" y="389.8" class="st2" width="1.2" height="2.3"/>
			<rect x="-456.6" y="389.8" class="st2" width="1.2" height="2.3"/>
			<rect x="-455.4" y="389.8" class="st4" width="4.5" height="2.3"/>
		</g>
	</g>
	<g>
		<rect x="-458.1" y="381.7" class="st1" width="9.9" height="5.5"/>
		<g>
			<rect x="-450.5" y="382.7" class="st2" width="1.4" height="3.5"/>
			<rect x="-457.2" y="382.7" class="st2" width="1.4" height="3.5"/>
			<rect x="-455.8" y="382.7" class="st4" width="5.3" height="3.5"/>
		</g>
	</g>
	<g>
		<rect x="-457.4" y="376.5" class="st1" width="8.4" height="3.6"/>
		<g>
			<rect x="-450.9" y="377.1" class="st2" width="1.2" height="2.3"/>
			<rect x="-456.6" y="377.1" class="st2" width="1.2" height="2.3"/>
			<rect x="-455.4" y="377.1" class="st3" width="4.5" height="2.3"/>
		</g>
	</g>
	<g>
		<g>
			<g>
				<rect x="-445.7" y="376.6" class="st2" width="2.6" height="2.6"/>
				<polygon class="st5" points="-445.7,379.2 -444.5,377.9 -443.2,379.2 				"/>
				<polygon class="st6" points="-443.2,376.6 -444.5,377.9 -443.2,379.2 				"/>
				<polygon class="st7" points="-445.7,376.6 -444.5,377.9 -443.2,376.6 				"/>
			</g>
		</g>
		<g>
			<g>
				<rect x="-440.7" y="376.6" class="st2" width="2.6" height="2.6"/>
				<polygon class="st5" points="-440.7,379.2 -439.4,377.9 -438.1,379.2 				"/>
				<polygon class="st6" points="-438.1,376.6 -439.4,377.9 -438.1,379.2 				"/>
				<polygon class="st7" points="-440.7,376.6 -439.4,377.9 -438.1,376.6 				"/>
			</g>
		</g>
		<rect x="-446.6" y="376.1" class="st8" width="9.1" height="3.7"/>
	</g>
	<g>
		<rect x="-446.3" y="382.7" class="st1" width="8.4" height="3.6"/>
		<g>
			<rect x="-439.9" y="383.4" class="st2" width="1.2" height="2.3"/>
			<rect x="-445.5" y="383.4" class="st2" width="1.2" height="2.3"/>
			<rect x="-444.3" y="383.4" class="st3" width="4.5" height="2.3"/>
		</g>
	</g>
	<g>
		<g>
			<g>
				<rect x="-445.4" y="420.7" class="st2" width="2.6" height="2.6"/>
				<polygon class="st5" points="-445.4,423.2 -444.1,421.9 -442.8,423.2 				"/>
				<polygon class="st6" points="-442.8,420.7 -444.1,421.9 -442.8,423.2 				"/>
				<polygon class="st7" points="-445.4,420.7 -444.1,421.9 -442.8,420.7 				"/>
			</g>
		</g>
		<g>
			<g>
				<rect x="-440.4" y="420.7" class="st2" width="2.6" height="2.6"/>
				<polygon class="st5" points="-440.4,423.2 -439.1,421.9 -437.8,423.2 				"/>
				<polygon class="st6" points="-437.8,420.7 -439.1,421.9 -437.8,423.2 				"/>
				<polygon class="st7" points="-440.4,420.7 -439.1,421.9 -437.8,420.7 				"/>
			</g>
		</g>
		<rect x="-446.3" y="420.1" class="st8" width="9.1" height="3.7"/>
	</g>
	<g>
		<rect x="-446.7" y="413.1" class="st1" width="9.9" height="5.5"/>
		<g>
			<rect x="-439.1" y="414.2" class="st2" width="1.4" height="3.5"/>
			<rect x="-445.8" y="414.2" class="st2" width="1.4" height="3.5"/>
			<rect x="-444.4" y="414.2" class="st4" width="5.3" height="3.5"/>
		</g>
	</g>
	<g>
		<rect x="-446" y="407.3" class="st1" width="8.4" height="3.6"/>
		<g>
			<rect x="-439.5" y="408" class="st2" width="1.2" height="2.3"/>
			<rect x="-445.2" y="408" class="st2" width="1.2" height="2.3"/>
			<rect x="-444" y="408" class="st3" width="4.5" height="2.3"/>
		</g>
	</g>
	<g>
		<rect x="-417.9" y="395.8" class="st1" width="3.6" height="8.4"/>
		<g>
			<rect x="-417.2" y="396.6" class="st2" width="2.3" height="1.2"/>
			<rect x="-417.2" y="402.2" class="st2" width="2.3" height="1.2"/>
			<rect x="-417.2" y="397.8" class="st4" width="2.3" height="4.5"/>
		</g>
	</g>
	<g>
		<rect x="-417.9" y="384.9" class="st1" width="3.6" height="8.4"/>
		<g>
			<rect x="-417.2" y="385.7" class="st2" width="2.3" height="1.2"/>
			<rect x="-417.2" y="391.4" class="st2" width="2.3" height="1.2"/>
			<rect x="-417.2" y="386.9" class="st4" width="2.3" height="4.5"/>
		</g>
	</g>
	<g>
		<rect x="-423.5" y="407" class="st1" width="3.6" height="8.4"/>
		<g>
			<rect x="-422.8" y="407.8" class="st2" width="2.3" height="1.2"/>
			<rect x="-422.8" y="413.4" class="st2" width="2.3" height="1.2"/>
			<rect x="-422.8" y="409" class="st4" width="2.3" height="4.5"/>
		</g>
	</g>
	<g>
		<rect x="-423.5" y="418.4" class="st1" width="3.6" height="8.4"/>
		<g>
			<rect x="-422.8" y="419.2" class="st2" width="2.3" height="1.2"/>
			<rect x="-422.8" y="424.8" class="st2" width="2.3" height="1.2"/>
			<rect x="-422.8" y="420.4" class="st3" width="2.3" height="4.5"/>
		</g>
	</g>
	<g>
		<rect x="-417.9" y="418.4" class="st1" width="3.6" height="8.4"/>
		<g>
			<rect x="-417.2" y="419.2" class="st2" width="2.3" height="1.2"/>
			<rect x="-417.2" y="424.8" class="st2" width="2.3" height="1.2"/>
			<rect x="-417.2" y="420.4" class="st3" width="2.3" height="4.5"/>
		</g>
	</g>
	<g>
		<rect x="-417.9" y="407" class="st1" width="3.6" height="8.4"/>
		<g>
			<rect x="-417.2" y="407.8" class="st2" width="2.3" height="1.2"/>
			<rect x="-417.2" y="413.4" class="st2" width="2.3" height="1.2"/>
			<rect x="-417.2" y="409" class="st4" width="2.3" height="4.5"/>
		</g>
	</g>
	<g>
		<rect x="-429.4" y="395.8" class="st1" width="3.6" height="8.4"/>
		<g>
			<rect x="-428.7" y="396.6" class="st2" width="2.3" height="1.2"/>
			<rect x="-428.7" y="402.2" class="st2" width="2.3" height="1.2"/>
			<rect x="-428.7" y="397.8" class="st3" width="2.3" height="4.5"/>
		</g>
	</g>
	<g>
		<rect x="-423.5" y="395.8" class="st1" width="3.6" height="8.4"/>
		<g>
			<rect x="-422.8" y="396.6" class="st2" width="2.3" height="1.2"/>
			<rect x="-422.8" y="402.2" class="st2" width="2.3" height="1.2"/>
			<rect x="-422.8" y="397.8" class="st3" width="2.3" height="4.5"/>
		</g>
	</g>
	<g>
		<rect x="-435.3" y="384.9" class="st1" width="3.6" height="8.4"/>
		<g>
			<rect x="-434.7" y="385.7" class="st2" width="2.3" height="1.2"/>
			<rect x="-434.7" y="391.4" class="st2" width="2.3" height="1.2"/>
			<rect x="-434.7" y="386.9" class="st3" width="2.3" height="4.5"/>
		</g>
	</g>
	<g>
		<rect x="-429.4" y="384.9" class="st1" width="3.6" height="8.4"/>
		<g>
			<rect x="-428.7" y="385.7" class="st2" width="2.3" height="1.2"/>
			<rect x="-428.7" y="391.4" class="st2" width="2.3" height="1.2"/>
			<rect x="-428.7" y="386.9" class="st3" width="2.3" height="4.5"/>
		</g>
	</g>
	<g>
		<rect x="-423.5" y="384.9" class="st1" width="3.6" height="8.4"/>
		<g>
			<rect x="-422.8" y="385.7" class="st2" width="2.3" height="1.2"/>
			<rect x="-422.8" y="391.4" class="st2" width="2.3" height="1.2"/>
			<rect x="-422.8" y="386.9" class="st3" width="2.3" height="4.5"/>
		</g>
	</g>
	<g>
		<g>
			<path class="st9" d="M-433.1,379.2v-2.5c0-1,0.8-1.9,1.9-1.9h0v6.3h0C-432.2,381.1-433.1,380.3-433.1,379.2z"/>
			<path class="st2" d="M-432.6,379.1v-2.3c0-0.8,0.7-1.5,1.5-1.5h0v5.2h0C-432,380.6-432.6,379.9-432.6,379.1z"/>
		</g>
		<g>
			<path class="st9" d="M-417.6,376.7v2.5c0,1-0.8,1.9-1.9,1.9l0,0v-6.3l0,0C-418.4,374.8-417.6,375.6-417.6,376.7z"/>
			<path class="st2" d="M-418,376.8v2.3c0,0.8-0.7,1.5-1.5,1.5l0,0v-5.2l0,0C-418.6,375.3-418,376-418,376.8z"/>
		</g>
	</g>
	<g>
		<path class="st10" d="M-431.2,373.4h9.5c1.5,0,2.8,1.2,2.8,2.8v3.6c0,1.5-1.2,2.8-2.8,2.8h-9.5V373.4z"/>
		<path class="st6" d="M-429.8,372.8h8.6c0.8,0,1.4,0.6,1.4,1.4v7.4c0,0.8-0.6,1.4-1.4,1.4h-8.6c-0.8,0-1.4-0.6-1.4-1.4v-7.4
			C-431.2,373.5-430.5,372.8-429.8,372.8z"/>
		<circle class="st11" cx="-425.5" cy="377.9" r="2.9"/>
		<circle class="st3" cx="-425.5" cy="377.9" r="2.7"/>
		<circle class="st12" cx="-425.5" cy="378" r="2.4"/>
		<circle class="st10" cx="-425.5" cy="377.9" r="2.1"/>
	</g>
	<g>
		<rect x="-434.7" y="407.5" class="st1" width="8.4" height="3.6"/>
		<g>
			<rect x="-428.3" y="408.2" class="st2" width="1.2" height="2.3"/>
			<rect x="-433.9" y="408.2" class="st2" width="1.2" height="2.3"/>
			<rect x="-432.7" y="408.2" class="st3" width="4.5" height="2.3"/>
		</g>
	</g>
	<g>
		<rect x="-446.6" y="396.2" class="st1" width="3.6" height="8.4"/>
		<g>
			<rect x="-445.9" y="397" class="st2" width="2.3" height="1.2"/>
			<rect x="-445.9" y="402.6" class="st2" width="2.3" height="1.2"/>
			<rect x="-445.9" y="398.1" class="st4" width="2.3" height="4.5"/>
		</g>
	</g>
	<g id="XMLID_1_">
		<g id="XMLID_31_">
			<rect id="XMLID_33_" x="-433.8" y="398.2" class="st7" width="2.1" height="1.1"/>
			<rect id="XMLID_32_" x="-433.8" y="398.2" class="st13" width="2.1" height="1.1"/>
		</g>
		<rect id="XMLID_30_" x="-433.8" y="398.4" class="st2" width="1.9" height="0.6"/>
		<g id="XMLID_27_">
			<rect id="XMLID_29_" x="-433.8" y="399.7" class="st7" width="2.1" height="1.1"/>
			<rect id="XMLID_28_" x="-433.8" y="399.7" class="st13" width="2.1" height="1.1"/>
		</g>
		<rect id="XMLID_26_" x="-433.8" y="399.9" class="st2" width="1.9" height="0.6"/>
		<g id="XMLID_23_">
			<rect id="XMLID_25_" x="-433.8" y="401.2" class="st7" width="2.1" height="1.1"/>
			<rect id="XMLID_24_" x="-433.8" y="401.2" class="st13" width="2.1" height="1.1"/>
		</g>
		<rect id="XMLID_22_" x="-433.8" y="401.4" class="st2" width="1.9" height="0.6"/>
		<g id="XMLID_19_">
			<rect id="XMLID_21_" x="-440.8" y="401.2" class="st7" width="2.1" height="1.1"/>
			<rect id="XMLID_20_" x="-440.8" y="401.2" class="st13" width="2.1" height="1.1"/>
		</g>
		<rect id="XMLID_18_" x="-440.6" y="401.4" class="st2" width="1.9" height="0.6"/>
		<g id="XMLID_14_">
			<rect id="XMLID_17_" x="-440.8" y="399.7" class="st7" width="2.1" height="1.1"/>
			<rect id="XMLID_15_" x="-440.8" y="399.7" class="st13" width="2.1" height="1.1"/>
		</g>
		<rect id="XMLID_13_" x="-440.6" y="399.9" class="st2" width="1.9" height="0.6"/>
		<g id="XMLID_6_">
			<rect id="XMLID_12_" x="-440.8" y="398.2" class="st7" width="2.1" height="1.1"/>
			<rect id="XMLID_10_" x="-440.8" y="398.2" class="st13" width="2.1" height="1.1"/>
		</g>
		<rect id="XMLID_3_" x="-440.6" y="398.4" class="st2" width="1.9" height="0.6"/>
		<rect id="XMLID_2_" x="-438.7" y="397.9" class="st3" width="4.9" height="4.6"/>
	</g>
	<g>
		<rect x="-405.4" y="395.8" class="st14" width="3.5" height="0.6"/>
		<rect x="-405.4" y="394.6" class="st14" width="3.5" height="0.6"/>
		<rect x="-405.4" y="393.3" class="st14" width="3.5" height="0.6"/>
		<rect x="-405.4" y="392.1" class="st14" width="3.5" height="0.6"/>
		<rect x="-405.4" y="390.9" class="st14" width="3.5" height="0.6"/>
		<rect x="-405.4" y="389.6" class="st14" width="3.5" height="0.6"/>
		<rect x="-405.4" y="388.4" class="st14" width="3.5" height="0.6"/>
		<rect x="-405.4" y="387.2" class="st14" width="3.5" height="0.6"/>
		<rect x="-405.4" y="385.9" class="st14" width="3.5" height="0.6"/>
		<rect x="-405.4" y="384.7" class="st14" width="3.5" height="0.6"/>
		<rect x="-405.4" y="383.4" class="st14" width="3.5" height="0.6"/>
	</g>
	<g>
		<rect x="-395.3" y="396.1" class="st14" width="3.5" height="0.6"/>
		<rect x="-395.3" y="394.9" class="st14" width="3.5" height="0.6"/>
		<rect x="-395.3" y="393.6" class="st14" width="3.5" height="0.6"/>
		<rect x="-395.3" y="392.4" class="st14" width="3.5" height="0.6"/>
		<rect x="-395.3" y="391.2" class="st14" width="3.5" height="0.6"/>
		<rect x="-395.3" y="389.9" class="st14" width="3.5" height="0.6"/>
		<rect x="-395.3" y="388.7" class="st14" width="3.5" height="0.6"/>
		<rect x="-395.3" y="387.5" class="st14" width="3.5" height="0.6"/>
		<rect x="-395.3" y="386.2" class="st14" width="3.5" height="0.6"/>
		<rect x="-395.3" y="385" class="st14" width="3.5" height="0.6"/>
		<rect x="-395.3" y="383.7" class="st14" width="3.5" height="0.6"/>
	</g>
	<rect x="-405.4" y="409.2" class="st14" width="3.5" height="0.6"/>
	<rect x="-405.4" y="408" class="st14" width="3.5" height="0.6"/>
	<rect x="-405.4" y="406.7" class="st14" width="3.5" height="0.6"/>
	<rect x="-405.4" y="405.5" class="st14" width="3.5" height="0.6"/>
	<rect x="-405.4" y="404.3" class="st14" width="3.5" height="0.6"/>
	<rect x="-405.4" y="403" class="st14" width="3.5" height="0.6"/>
	<rect x="-405.4" y="401.8" class="st14" width="3.5" height="0.6"/>
	<rect x="-405.4" y="400.5" class="st14" width="3.5" height="0.6"/>
	<rect x="-405.4" y="399.3" class="st14" width="3.5" height="0.6"/>
	<rect x="-405.4" y="398.1" class="st14" width="3.5" height="0.6"/>
	<rect x="-405.4" y="396.8" class="st14" width="3.5" height="0.6"/>
	<rect x="-405.4" y="415.2" class="st14" width="3.5" height="0.6"/>
	<rect x="-405.4" y="414" class="st14" width="3.5" height="0.6"/>
	<rect x="-405.4" y="412.8" class="st14" width="3.5" height="0.6"/>
	<path class="st15" d="M-385.2,399.6l0,10.9c0,0,1.3-3,5.7-3c4.4,0,13.3,0,13.3,0l0-7.5h0v-7.5c0,0-8.8,0-13.3,0c-4.4,0-5.7-3-5.7-3
		V399.6z"/>
	<rect x="-405.4" y="411.5" class="st14" width="3.5" height="0.6"/>
	<rect x="-405.4" y="410.3" class="st14" width="3.5" height="0.6"/>
	<g>
		<rect x="-395.3" y="409.6" class="st14" width="3.5" height="0.6"/>
		<rect x="-395.3" y="408.3" class="st14" width="3.5" height="0.6"/>
		<rect x="-395.3" y="407.1" class="st14" width="3.5" height="0.6"/>
		<rect x="-395.3" y="405.9" class="st14" width="3.5" height="0.6"/>
		<rect x="-395.3" y="404.6" class="st14" width="3.5" height="0.6"/>
		<rect x="-395.3" y="403.4" class="st14" width="3.5" height="0.6"/>
		<rect x="-395.3" y="402.2" class="st14" width="3.5" height="0.6"/>
		<rect x="-395.3" y="400.9" class="st14" width="3.5" height="0.6"/>
		<rect x="-395.3" y="399.7" class="st14" width="3.5" height="0.6"/>
		<rect x="-395.3" y="398.5" class="st14" width="3.5" height="0.6"/>
		<rect x="-395.3" y="397.2" class="st14" width="3.5" height="0.6"/>
		<rect x="-395.3" y="415.7" class="st14" width="3.5" height="0.6"/>
		<rect x="-395.3" y="414.5" class="st14" width="3.5" height="0.6"/>
		<rect x="-395.3" y="413.3" class="st14" width="3.5" height="0.6"/>
		<rect x="-395.3" y="412" class="st14" width="3.5" height="0.6"/>
		<rect x="-395.3" y="410.8" class="st14" width="3.5" height="0.6"/>
	</g>
	<rect x="-390.5" y="377.1" class="st16" width="5.9" height="45.5"/>
	<rect x="-389.8" y="377.1" class="st17" width="4.6" height="45.5"/>
	<g>
		<rect x="-391.6" y="405.7" class="st18" width="1.1" height="11.1"/>
		<rect id="connector0pin_0_5_" x="-391.3" y="406" class="st19" width="0.4" height="0.4"/>
		<rect id="connector0terminal_1_5_" x="-391.2" y="406.1" class="st19" width="0.3" height="0.3"/>
		<rect x="-391.3" y="406" width="0.4" height="0.4"/>
		<polygon class="st20" points="-390.7,405.9 -390.8,406 -390.8,406.4 -390.7,406.6 		"/>
		<polygon class="st21" points="-390.7,406.6 -390.8,406.4 -391.3,406.4 -391.4,406.6 		"/>
		<polygon class="st22" points="-391.4,406.6 -391.3,406.4 -391.3,406 -391.4,405.9 		"/>
		<polygon class="st23" points="-391.4,405.9 -391.3,406 -390.8,406 -390.7,405.9 		"/>
		<rect id="connector1pin_2_5_" x="-391.3" y="407.1" class="st19" width="0.4" height="0.4"/>
		<rect id="connector1terminal_3_5_" x="-391.2" y="407.2" class="st19" width="0.3" height="0.3"/>
		<rect x="-391.3" y="407.1" width="0.4" height="0.4"/>
		<polygon class="st20" points="-390.7,407 -390.8,407.1 -390.8,407.6 -390.7,407.7 		"/>
		<polygon class="st21" points="-390.7,407.7 -390.8,407.6 -391.3,407.6 -391.4,407.7 		"/>
		<polygon class="st22" points="-391.4,407.7 -391.3,407.6 -391.3,407.1 -391.4,407 		"/>
		<polygon class="st23" points="-391.4,407 -391.3,407.1 -390.8,407.1 -390.7,407 		"/>
		<rect id="connector2pin_4_5_" x="-391.3" y="408.2" class="st19" width="0.4" height="0.4"/>
		<rect id="connector2terminal_5_5_" x="-391.2" y="408.3" class="st19" width="0.3" height="0.3"/>
		<rect x="-391.3" y="408.2" width="0.4" height="0.4"/>
		<polygon class="st20" points="-390.7,408.1 -390.8,408.2 -390.8,408.7 -390.7,408.8 		"/>
		<polygon class="st21" points="-390.7,408.8 -390.8,408.7 -391.3,408.7 -391.4,408.8 		"/>
		<polygon class="st22" points="-391.4,408.8 -391.3,408.7 -391.3,408.2 -391.4,408.1 		"/>
		<polygon class="st23" points="-391.4,408.1 -391.3,408.2 -390.8,408.2 -390.7,408.1 		"/>
		<rect id="connector3pin_6_5_" x="-391.3" y="409.3" class="st19" width="0.4" height="0.4"/>
		<rect id="connector3terminal_7_5_" x="-391.2" y="409.4" class="st19" width="0.3" height="0.3"/>
		<rect x="-391.3" y="409.3" width="0.4" height="0.4"/>
		<polygon class="st20" points="-390.7,409.2 -390.8,409.3 -390.8,409.8 -390.7,409.9 		"/>
		<polygon class="st21" points="-390.7,409.9 -390.8,409.8 -391.3,409.8 -391.4,409.9 		"/>
		<polygon class="st22" points="-391.4,409.9 -391.3,409.8 -391.3,409.3 -391.4,409.2 		"/>
		<polygon class="st23" points="-391.4,409.2 -391.3,409.3 -390.8,409.3 -390.7,409.2 		"/>
		<rect id="connector4pin_8_5_" x="-391.3" y="410.5" class="st19" width="0.4" height="0.4"/>
		<rect id="connector4terminal_9_5_" x="-391.2" y="410.5" class="st19" width="0.3" height="0.3"/>
		<rect x="-391.3" y="410.5" width="0.4" height="0.4"/>
		<polygon class="st20" points="-390.7,410.3 -390.8,410.5 -390.8,410.9 -390.7,411 		"/>
		<polygon class="st21" points="-390.7,411 -390.8,410.9 -391.3,410.9 -391.4,411 		"/>
		<polygon class="st22" points="-391.4,411 -391.3,410.9 -391.3,410.5 -391.4,410.3 		"/>
		<polygon class="st23" points="-391.4,410.3 -391.3,410.5 -390.8,410.5 -390.7,410.3 		"/>
		<rect id="connector5pin_10_5_" x="-391.3" y="411.6" class="st19" width="0.4" height="0.4"/>
		<rect id="connector5terminal_11_5_" x="-391.2" y="411.6" class="st19" width="0.3" height="0.3"/>
		<rect x="-391.3" y="411.6" width="0.4" height="0.4"/>
		<polygon class="st20" points="-390.7,411.4 -390.8,411.6 -390.8,412 -390.7,412.2 		"/>
		<polygon class="st21" points="-390.7,412.2 -390.8,412 -391.3,412 -391.4,412.2 		"/>
		<polygon class="st22" points="-391.4,412.2 -391.3,412 -391.3,411.6 -391.4,411.4 		"/>
		<polygon class="st23" points="-391.4,411.4 -391.3,411.6 -390.8,411.6 -390.7,411.4 		"/>
		<rect id="connector6pin_12_5_" x="-391.3" y="412.7" class="st19" width="0.4" height="0.4"/>
		<rect id="connector6terminal_13_5_" x="-391.2" y="412.7" class="st19" width="0.3" height="0.3"/>
		<rect x="-391.3" y="412.7" width="0.4" height="0.4"/>
		<polygon class="st20" points="-390.7,412.5 -390.8,412.7 -390.8,413.1 -390.7,413.3 		"/>
		<polygon class="st21" points="-390.7,413.3 -390.8,413.1 -391.3,413.1 -391.4,413.3 		"/>
		<polygon class="st22" points="-391.4,413.3 -391.3,413.1 -391.3,412.7 -391.4,412.5 		"/>
		<polygon class="st23" points="-391.4,412.5 -391.3,412.7 -390.8,412.7 -390.7,412.5 		"/>
		<rect id="connector7pin_14_5_" x="-391.3" y="413.8" class="st19" width="0.4" height="0.4"/>
		<rect id="connector7terminal_15_5_" x="-391.2" y="413.8" class="st19" width="0.3" height="0.3"/>
		<rect x="-391.3" y="413.8" width="0.4" height="0.4"/>
		<polygon class="st20" points="-390.7,413.6 -390.8,413.8 -390.8,414.2 -390.7,414.4 		"/>
		<polygon class="st21" points="-390.7,414.4 -390.8,414.2 -391.3,414.2 -391.4,414.4 		"/>
		<polygon class="st22" points="-391.4,414.4 -391.3,414.2 -391.3,413.8 -391.4,413.6 		"/>
		<polygon class="st23" points="-391.4,413.6 -391.3,413.8 -390.8,413.8 -390.7,413.6 		"/>
		<rect id="connector8pin_16_5_" x="-391.3" y="414.9" class="st19" width="0.4" height="0.4"/>
		<rect id="connector8terminal_17_5_" x="-391.2" y="414.9" class="st19" width="0.3" height="0.3"/>
		<rect x="-391.3" y="414.9" width="0.4" height="0.4"/>
		<polygon class="st20" points="-390.7,414.7 -390.8,414.9 -390.8,415.3 -390.7,415.5 		"/>
		<polygon class="st21" points="-390.7,415.5 -390.8,415.3 -391.3,415.3 -391.4,415.5 		"/>
		<polygon class="st22" points="-391.4,415.5 -391.3,415.3 -391.3,414.9 -391.4,414.7 		"/>
		<polygon class="st23" points="-391.4,414.7 -391.3,414.9 -390.8,414.9 -390.7,414.7 		"/>
		<rect id="connector9pin_18_5_" x="-391.3" y="416" class="st19" width="0.4" height="0.4"/>
		<rect id="connector9terminal_19_5_" x="-391.2" y="416.1" class="st19" width="0.3" height="0.3"/>
		<rect x="-391.3" y="416" width="0.4" height="0.4"/>
		<polygon class="st20" points="-390.7,415.9 -390.8,416 -390.8,416.4 -390.7,416.6 		"/>
		<polygon class="st21" points="-390.7,416.6 -390.8,416.4 -391.3,416.4 -391.4,416.6 		"/>
		<polygon class="st22" points="-391.4,416.6 -391.3,416.4 -391.3,416 -391.4,415.9 		"/>
		<polygon class="st23" points="-391.4,415.9 -391.3,416 -390.8,416 -390.7,415.9 		"/>
	</g>
	<g>
		<rect x="-391.6" y="394.5" class="st18" width="1.1" height="11.1"/>
		<rect id="connector0pin_0_4_" x="-391.3" y="394.9" class="st19" width="0.4" height="0.4"/>
		<rect id="connector0terminal_1_4_" x="-391.2" y="394.9" class="st19" width="0.3" height="0.3"/>
		<rect x="-391.3" y="394.9" width="0.4" height="0.4"/>
		<polygon class="st20" points="-390.7,394.7 -390.8,394.9 -390.8,395.3 -390.7,395.4 		"/>
		<polygon class="st21" points="-390.7,395.4 -390.8,395.3 -391.3,395.3 -391.4,395.4 		"/>
		<polygon class="st22" points="-391.4,395.4 -391.3,395.3 -391.3,394.9 -391.4,394.7 		"/>
		<polygon class="st23" points="-391.4,394.7 -391.3,394.9 -390.8,394.9 -390.7,394.7 		"/>
		<rect id="connector1pin_2_4_" x="-391.3" y="396" class="st19" width="0.4" height="0.4"/>
		<rect id="connector1terminal_3_4_" x="-391.2" y="396" class="st19" width="0.3" height="0.3"/>
		<rect x="-391.3" y="396" width="0.4" height="0.4"/>
		<polygon class="st20" points="-390.7,395.8 -390.8,396 -390.8,396.4 -390.7,396.6 		"/>
		<polygon class="st21" points="-390.7,396.6 -390.8,396.4 -391.3,396.4 -391.4,396.6 		"/>
		<polygon class="st22" points="-391.4,396.6 -391.3,396.4 -391.3,396 -391.4,395.8 		"/>
		<polygon class="st23" points="-391.4,395.8 -391.3,396 -390.8,396 -390.7,395.8 		"/>
		<rect id="connector2pin_4_4_" x="-391.3" y="397.1" class="st19" width="0.4" height="0.4"/>
		<rect id="connector2terminal_5_4_" x="-391.2" y="397.1" class="st19" width="0.3" height="0.3"/>
		<rect x="-391.3" y="397.1" width="0.4" height="0.4"/>
		<polygon class="st20" points="-390.7,396.9 -390.8,397.1 -390.8,397.5 -390.7,397.7 		"/>
		<polygon class="st21" points="-390.7,397.7 -390.8,397.5 -391.3,397.5 -391.4,397.7 		"/>
		<polygon class="st22" points="-391.4,397.7 -391.3,397.5 -391.3,397.1 -391.4,396.9 		"/>
		<polygon class="st23" points="-391.4,396.9 -391.3,397.1 -390.8,397.1 -390.7,396.9 		"/>
		<rect id="connector3pin_6_4_" x="-391.3" y="398.2" class="st19" width="0.4" height="0.4"/>
		<rect id="connector3terminal_7_4_" x="-391.2" y="398.2" class="st19" width="0.3" height="0.3"/>
		<rect x="-391.3" y="398.2" width="0.4" height="0.4"/>
		<polygon class="st20" points="-390.7,398 -390.8,398.2 -390.8,398.6 -390.7,398.8 		"/>
		<polygon class="st21" points="-390.7,398.8 -390.8,398.6 -391.3,398.6 -391.4,398.8 		"/>
		<polygon class="st22" points="-391.4,398.8 -391.3,398.6 -391.3,398.2 -391.4,398 		"/>
		<polygon class="st23" points="-391.4,398 -391.3,398.2 -390.8,398.2 -390.7,398 		"/>
		<rect id="connector4pin_8_4_" x="-391.3" y="399.3" class="st19" width="0.4" height="0.4"/>
		<rect id="connector4terminal_9_4_" x="-391.2" y="399.4" class="st19" width="0.3" height="0.3"/>
		<rect x="-391.3" y="399.3" width="0.4" height="0.4"/>
		<polygon class="st20" points="-390.7,399.1 -390.8,399.3 -390.8,399.7 -390.7,399.9 		"/>
		<polygon class="st21" points="-390.7,399.9 -390.8,399.7 -391.3,399.7 -391.4,399.9 		"/>
		<polygon class="st22" points="-391.4,399.9 -391.3,399.7 -391.3,399.3 -391.4,399.1 		"/>
		<polygon class="st23" points="-391.4,399.1 -391.3,399.3 -390.8,399.3 -390.7,399.1 		"/>
		<rect id="connector5pin_10_4_" x="-391.3" y="400.4" class="st19" width="0.4" height="0.4"/>
		<rect id="connector5terminal_11_4_" x="-391.2" y="400.5" class="st19" width="0.3" height="0.3"/>
		<rect x="-391.3" y="400.4" width="0.4" height="0.4"/>
		<polygon class="st20" points="-390.7,400.3 -390.8,400.4 -390.8,400.8 -390.7,401 		"/>
		<polygon class="st21" points="-390.7,401 -390.8,400.8 -391.3,400.8 -391.4,401 		"/>
		<polygon class="st22" points="-391.4,401 -391.3,400.8 -391.3,400.4 -391.4,400.3 		"/>
		<polygon class="st23" points="-391.4,400.3 -391.3,400.4 -390.8,400.4 -390.7,400.3 		"/>
		<rect id="connector6pin_12_4_" x="-391.3" y="401.5" class="st19" width="0.4" height="0.4"/>
		<rect id="connector6terminal_13_4_" x="-391.2" y="401.6" class="st19" width="0.3" height="0.3"/>
		<rect x="-391.3" y="401.5" width="0.4" height="0.4"/>
		<polygon class="st20" points="-390.7,401.4 -390.8,401.5 -390.8,402 -390.7,402.1 		"/>
		<polygon class="st21" points="-390.7,402.1 -390.8,402 -391.3,402 -391.4,402.1 		"/>
		<polygon class="st22" points="-391.4,402.1 -391.3,402 -391.3,401.5 -391.4,401.4 		"/>
		<polygon class="st23" points="-391.4,401.4 -391.3,401.5 -390.8,401.5 -390.7,401.4 		"/>
		<rect id="connector7pin_14_4_" x="-391.3" y="402.6" class="st19" width="0.4" height="0.4"/>
		<rect id="connector7terminal_15_4_" x="-391.2" y="402.7" class="st19" width="0.3" height="0.3"/>
		<rect x="-391.3" y="402.6" width="0.4" height="0.4"/>
		<polygon class="st20" points="-390.7,402.5 -390.8,402.6 -390.8,403.1 -390.7,403.2 		"/>
		<polygon class="st21" points="-390.7,403.2 -390.8,403.1 -391.3,403.1 -391.4,403.2 		"/>
		<polygon class="st22" points="-391.4,403.2 -391.3,403.1 -391.3,402.6 -391.4,402.5 		"/>
		<polygon class="st23" points="-391.4,402.5 -391.3,402.6 -390.8,402.6 -390.7,402.5 		"/>
		<rect id="connector8pin_16_4_" x="-391.3" y="403.7" class="st19" width="0.4" height="0.4"/>
		<rect id="connector8terminal_17_4_" x="-391.2" y="403.8" class="st19" width="0.3" height="0.3"/>
		<rect x="-391.3" y="403.7" width="0.4" height="0.4"/>
		<polygon class="st20" points="-390.7,403.6 -390.8,403.7 -390.8,404.2 -390.7,404.3 		"/>
		<polygon class="st21" points="-390.7,404.3 -390.8,404.2 -391.3,404.2 -391.4,404.3 		"/>
		<polygon class="st22" points="-391.4,404.3 -391.3,404.2 -391.3,403.7 -391.4,403.6 		"/>
		<polygon class="st23" points="-391.4,403.6 -391.3,403.7 -390.8,403.7 -390.7,403.6 		"/>
		<rect id="connector9pin_18_4_" x="-391.3" y="404.9" class="st19" width="0.4" height="0.4"/>
		<rect id="connector9terminal_19_4_" x="-391.2" y="404.9" class="st19" width="0.3" height="0.3"/>
		<rect x="-391.3" y="404.9" width="0.4" height="0.4"/>
		<polygon class="st20" points="-390.7,404.7 -390.8,404.9 -390.8,405.3 -390.7,405.4 		"/>
		<polygon class="st21" points="-390.7,405.4 -390.8,405.3 -391.3,405.3 -391.4,405.4 		"/>
		<polygon class="st22" points="-391.4,405.4 -391.3,405.3 -391.3,404.9 -391.4,404.7 		"/>
		<polygon class="st23" points="-391.4,404.7 -391.3,404.9 -390.8,404.9 -390.7,404.7 		"/>
	</g>
	<g>
		<rect x="-391.6" y="383.4" class="st18" width="1.1" height="11.1"/>
		<rect id="connector0pin_0_3_" x="-391.3" y="383.8" class="st19" width="0.4" height="0.4"/>
		<rect id="connector0terminal_1_3_" x="-391.2" y="383.8" class="st19" width="0.3" height="0.3"/>
		<rect x="-391.3" y="383.8" width="0.4" height="0.4"/>
		<polygon class="st20" points="-390.7,383.6 -390.8,383.8 -390.8,384.2 -390.7,384.4 		"/>
		<polygon class="st21" points="-390.7,384.4 -390.8,384.2 -391.3,384.2 -391.4,384.4 		"/>
		<polygon class="st22" points="-391.4,384.4 -391.3,384.2 -391.3,383.8 -391.4,383.6 		"/>
		<polygon class="st23" points="-391.4,383.6 -391.3,383.8 -390.8,383.8 -390.7,383.6 		"/>
		<rect id="connector1pin_2_3_" x="-391.3" y="384.9" class="st19" width="0.4" height="0.4"/>
		<rect id="connector1terminal_3_3_" x="-391.2" y="384.9" class="st19" width="0.3" height="0.3"/>
		<rect x="-391.3" y="384.9" width="0.4" height="0.4"/>
		<polygon class="st20" points="-390.7,384.7 -390.8,384.9 -390.8,385.3 -390.7,385.5 		"/>
		<polygon class="st21" points="-390.7,385.5 -390.8,385.3 -391.3,385.3 -391.4,385.5 		"/>
		<polygon class="st22" points="-391.4,385.5 -391.3,385.3 -391.3,384.9 -391.4,384.7 		"/>
		<polygon class="st23" points="-391.4,384.7 -391.3,384.9 -390.8,384.9 -390.7,384.7 		"/>
		<rect id="connector2pin_4_3_" x="-391.3" y="386" class="st19" width="0.4" height="0.4"/>
		<rect id="connector2terminal_5_3_" x="-391.2" y="386" class="st19" width="0.3" height="0.3"/>
		<rect x="-391.3" y="386" width="0.4" height="0.4"/>
		<polygon class="st20" points="-390.7,385.8 -390.8,386 -390.8,386.4 -390.7,386.6 		"/>
		<polygon class="st21" points="-390.7,386.6 -390.8,386.4 -391.3,386.4 -391.4,386.6 		"/>
		<polygon class="st22" points="-391.4,386.6 -391.3,386.4 -391.3,386 -391.4,385.8 		"/>
		<polygon class="st23" points="-391.4,385.8 -391.3,386 -390.8,386 -390.7,385.8 		"/>
		<rect id="connector3pin_6_3_" x="-391.3" y="387.1" class="st19" width="0.4" height="0.4"/>
		<rect id="connector3terminal_7_3_" x="-391.2" y="387.2" class="st19" width="0.3" height="0.3"/>
		<rect x="-391.3" y="387.1" width="0.4" height="0.4"/>
		<polygon class="st20" points="-390.7,387 -390.8,387.1 -390.8,387.5 -390.7,387.7 		"/>
		<polygon class="st21" points="-390.7,387.7 -390.8,387.5 -391.3,387.5 -391.4,387.7 		"/>
		<polygon class="st22" points="-391.4,387.7 -391.3,387.5 -391.3,387.1 -391.4,387 		"/>
		<polygon class="st23" points="-391.4,387 -391.3,387.1 -390.8,387.1 -390.7,387 		"/>
		<rect id="connector4pin_8_3_" x="-391.3" y="388.2" class="st19" width="0.4" height="0.4"/>
		<rect id="connector4terminal_9_3_" x="-391.2" y="388.3" class="st19" width="0.3" height="0.3"/>
		<rect x="-391.3" y="388.2" width="0.4" height="0.4"/>
		<polygon class="st20" points="-390.7,388.1 -390.8,388.2 -390.8,388.7 -390.7,388.8 		"/>
		<polygon class="st21" points="-390.7,388.8 -390.8,388.7 -391.3,388.7 -391.4,388.8 		"/>
		<polygon class="st22" points="-391.4,388.8 -391.3,388.7 -391.3,388.2 -391.4,388.1 		"/>
		<polygon class="st23" points="-391.4,388.1 -391.3,388.2 -390.8,388.2 -390.7,388.1 		"/>
		<rect id="connector5pin_10_3_" x="-391.3" y="389.3" class="st19" width="0.4" height="0.4"/>
		<rect id="connector5terminal_11_3_" x="-391.2" y="389.4" class="st19" width="0.3" height="0.3"/>
		<rect x="-391.3" y="389.3" width="0.4" height="0.4"/>
		<polygon class="st20" points="-390.7,389.2 -390.8,389.3 -390.8,389.8 -390.7,389.9 		"/>
		<polygon class="st21" points="-390.7,389.9 -390.8,389.8 -391.3,389.8 -391.4,389.9 		"/>
		<polygon class="st22" points="-391.4,389.9 -391.3,389.8 -391.3,389.3 -391.4,389.2 		"/>
		<polygon class="st23" points="-391.4,389.2 -391.3,389.3 -390.8,389.3 -390.7,389.2 		"/>
		<rect id="connector6pin_12_3_" x="-391.3" y="390.4" class="st19" width="0.4" height="0.4"/>
		<rect id="connector6terminal_13_3_" x="-391.2" y="390.5" class="st19" width="0.3" height="0.3"/>
		<rect x="-391.3" y="390.4" width="0.4" height="0.4"/>
		<polygon class="st20" points="-390.7,390.3 -390.8,390.4 -390.8,390.9 -390.7,391 		"/>
		<polygon class="st21" points="-390.7,391 -390.8,390.9 -391.3,390.9 -391.4,391 		"/>
		<polygon class="st22" points="-391.4,391 -391.3,390.9 -391.3,390.4 -391.4,390.3 		"/>
		<polygon class="st23" points="-391.4,390.3 -391.3,390.4 -390.8,390.4 -390.7,390.3 		"/>
		<rect id="connector7pin_14_3_" x="-391.3" y="391.6" class="st19" width="0.4" height="0.4"/>
		<rect id="connector7terminal_15_3_" x="-391.2" y="391.6" class="st19" width="0.3" height="0.3"/>
		<rect x="-391.3" y="391.6" width="0.4" height="0.4"/>
		<polygon class="st20" points="-390.7,391.4 -390.8,391.6 -390.8,392 -390.7,392.1 		"/>
		<polygon class="st21" points="-390.7,392.1 -390.8,392 -391.3,392 -391.4,392.1 		"/>
		<polygon class="st22" points="-391.4,392.1 -391.3,392 -391.3,391.6 -391.4,391.4 		"/>
		<polygon class="st23" points="-391.4,391.4 -391.3,391.6 -390.8,391.6 -390.7,391.4 		"/>
		<rect id="connector8pin_16_3_" x="-391.3" y="392.7" class="st19" width="0.4" height="0.4"/>
		<rect id="connector8terminal_17_3_" x="-391.2" y="392.7" class="st19" width="0.3" height="0.3"/>
		<rect x="-391.3" y="392.7" width="0.4" height="0.4"/>
		<polygon class="st20" points="-390.7,392.5 -390.8,392.7 -390.8,393.1 -390.7,393.3 		"/>
		<polygon class="st21" points="-390.7,393.3 -390.8,393.1 -391.3,393.1 -391.4,393.3 		"/>
		<polygon class="st22" points="-391.4,393.3 -391.3,393.1 -391.3,392.7 -391.4,392.5 		"/>
		<polygon class="st23" points="-391.4,392.5 -391.3,392.7 -390.8,392.7 -390.7,392.5 		"/>
		<rect id="connector9pin_18_3_" x="-391.3" y="393.8" class="st19" width="0.4" height="0.4"/>
		<rect id="connector9terminal_19_3_" x="-391.2" y="393.8" class="st19" width="0.3" height="0.3"/>
		<rect x="-391.3" y="393.8" width="0.4" height="0.4"/>
		<polygon class="st20" points="-390.7,393.6 -390.8,393.8 -390.8,394.2 -390.7,394.4 		"/>
		<polygon class="st21" points="-390.7,394.4 -390.8,394.2 -391.3,394.2 -391.4,394.4 		"/>
		<polygon class="st22" points="-391.4,394.4 -391.3,394.2 -391.3,393.8 -391.4,393.6 		"/>
		<polygon class="st23" points="-391.4,393.6 -391.3,393.8 -390.8,393.8 -390.7,393.6 		"/>
	</g>
	<rect x="-389.8" y="377.1" class="st24" width="1.5" height="2"/>
	<rect x="-389.8" y="420.6" class="st24" width="1.5" height="2"/>
	<rect x="-394.8" y="417.5" class="st25" width="4.3" height="3.8"/>
	<polygon class="st26" points="-400.1,376.7 -401.6,376.8 -401.6,379.8 -400.9,379.8 -400.9,381.1 -401.6,381.4 -401.6,382.7 
		-401.6,417.5 -401.5,417.5 -401.5,418.5 -400.8,418.9 -400.8,420.1 -401.5,420.1 -401.5,423.1 -400,423.2 -400,423.7 -387.6,423.7 
		-387.6,421.3 -394.1,421.3 -394.1,417.5 -392.8,417.5 -392.8,382.7 -394.2,382.7 -394.2,378.6 -387.7,378.6 -387.7,376.2 
		-400.1,376.2 	"/>
	<rect x="-394.8" y="378.6" class="st25" width="4.3" height="3.8"/>
	<g>
		<g>
			<rect id="connector2pin_64_80_" x="-457.4" y="365.7" class="st19" width="3.3" height="3.3"/>
			<rect id="connector2terminal_65_80_" x="-457.1" y="366.1" class="st19" width="2.5" height="2.6"/>
			<rect x="-457.1" y="366" class="st27" width="2.7" height="2.7"/>
			<rect x="-456.5" y="366.7" class="st28" width="1.4" height="1.4"/>
			<polygon class="st29" points="-454.5,368.7 -455.1,368.1 -456.5,368.1 -457.1,368.7 			"/>
			<polygon class="st30" points="-456.5,366.7 -456.5,368.1 -457.1,368.7 -457.1,366 			"/>
			<polygon class="st31" points="-455.1,366.7 -456.5,366.7 -457.1,366 -454.5,366 			"/>
			<polygon class="st32" points="-454.5,368.7 -455.1,368.1 -455.1,366.7 -454.5,366 			"/>
		</g>
		<g>
			<rect id="connector2pin_64_79_" x="-450.6" y="365.7" class="st19" width="3.3" height="3.3"/>
			<rect id="connector2terminal_65_79_" x="-450.2" y="366.1" class="st19" width="2.5" height="2.6"/>
			<rect x="-450.3" y="366" class="st27" width="2.7" height="2.7"/>
			<rect x="-449.7" y="366.7" class="st28" width="1.4" height="1.4"/>
			<polygon class="st29" points="-447.6,368.7 -448.3,368.1 -449.6,368.1 -450.3,368.7 			"/>
			<polygon class="st30" points="-449.6,366.7 -449.6,368.1 -450.3,368.7 -450.3,366 			"/>
			<polygon class="st31" points="-448.3,366.7 -449.6,366.7 -450.3,366 -447.6,366 			"/>
			<polygon class="st32" points="-447.6,368.7 -448.3,368.1 -448.3,366.7 -447.6,366 			"/>
		</g>
		<g>
			<rect id="connector2pin_64_78_" x="-443.7" y="365.7" class="st19" width="3.3" height="3.3"/>
			<rect id="connector2terminal_65_78_" x="-443.3" y="366.1" class="st19" width="2.5" height="2.6"/>
			<rect x="-443.4" y="366" class="st27" width="2.7" height="2.7"/>
			<rect x="-442.8" y="366.7" class="st28" width="1.4" height="1.4"/>
			<polygon class="st29" points="-440.7,368.7 -441.4,368.1 -442.8,368.1 -443.4,368.7 			"/>
			<polygon class="st30" points="-442.8,366.7 -442.8,368.1 -443.4,368.7 -443.4,366 			"/>
			<polygon class="st31" points="-441.4,366.7 -442.8,366.7 -443.4,366 -440.7,366 			"/>
			<polygon class="st32" points="-440.7,368.7 -441.4,368.1 -441.4,366.7 -440.7,366 			"/>
		</g>
		<g>
			<rect id="connector2pin_64_77_" x="-436.3" y="365.7" class="st19" width="3.3" height="3.3"/>
			<rect id="connector2terminal_65_77_" x="-435.9" y="366.1" class="st19" width="2.5" height="2.6"/>
			<rect x="-436" y="366" class="st27" width="2.7" height="2.7"/>
			<rect x="-435.4" y="366.7" class="st28" width="1.4" height="1.4"/>
			<polygon class="st29" points="-433.3,368.7 -434,368.1 -435.4,368.1 -436,368.7 			"/>
			<polygon class="st30" points="-435.4,366.7 -435.4,368.1 -436,368.7 -436,366 			"/>
			<polygon class="st31" points="-434,366.7 -435.4,366.7 -436,366 -433.3,366 			"/>
			<polygon class="st32" points="-433.3,368.7 -434,368.1 -434,366.7 -433.3,366 			"/>
		</g>
		<g>
			<rect id="connector2pin_64_76_" x="-428.9" y="365.7" class="st19" width="3.3" height="3.3"/>
			<rect id="connector2terminal_65_76_" x="-428.6" y="366.1" class="st19" width="2.5" height="2.6"/>
			<rect x="-428.6" y="366" class="st27" width="2.7" height="2.7"/>
			<rect x="-428" y="366.7" class="st28" width="1.4" height="1.4"/>
			<polygon class="st29" points="-426,368.7 -426.6,368.1 -428,368.1 -428.6,368.7 			"/>
			<polygon class="st30" points="-428,366.7 -428,368.1 -428.6,368.7 -428.6,366 			"/>
			<polygon class="st31" points="-426.6,366.7 -428,366.7 -428.6,366 -426,366 			"/>
			<polygon class="st32" points="-426,368.7 -426.6,368.1 -426.6,366.7 -426,366 			"/>
		</g>
		<g>
			<rect id="connector2pin_64_75_" x="-421.7" y="365.7" class="st19" width="3.3" height="3.3"/>
			<rect id="connector2terminal_65_75_" x="-421.3" y="366.1" class="st19" width="2.5" height="2.6"/>
			<rect x="-421.4" y="366" class="st27" width="2.7" height="2.7"/>
			<rect x="-420.7" y="366.7" class="st28" width="1.4" height="1.4"/>
			<polygon class="st29" points="-418.7,368.7 -419.4,368.1 -420.7,368.1 -421.4,368.7 			"/>
			<polygon class="st30" points="-420.7,366.7 -420.7,368.1 -421.4,368.7 -421.4,366 			"/>
			<polygon class="st31" points="-419.4,366.7 -420.7,366.7 -421.4,366 -418.7,366 			"/>
			<polygon class="st32" points="-418.7,368.7 -419.4,368.1 -419.4,366.7 -418.7,366 			"/>
		</g>
		<g>
			<rect id="connector2pin_64_74_" x="-414.2" y="365.7" class="st19" width="3.3" height="3.3"/>
			<rect id="connector2terminal_65_74_" x="-413.8" y="366.1" class="st19" width="2.5" height="2.6"/>
			<rect x="-413.9" y="366" class="st27" width="2.7" height="2.7"/>
			<rect x="-413.2" y="366.7" class="st28" width="1.4" height="1.4"/>
			<polygon class="st29" points="-411.2,368.7 -411.9,368.1 -413.2,368.1 -413.9,368.7 			"/>
			<polygon class="st30" points="-413.2,366.7 -413.2,368.1 -413.9,368.7 -413.9,366 			"/>
			<polygon class="st31" points="-411.9,366.7 -413.2,366.7 -413.9,366 -411.2,366 			"/>
			<polygon class="st32" points="-411.2,368.7 -411.9,368.1 -411.9,366.7 -411.2,366 			"/>
		</g>
		<g>
			<rect id="connector2pin_64_73_" x="-407" y="365.7" class="st19" width="3.3" height="3.3"/>
			<rect id="connector2terminal_65_73_" x="-406.7" y="366.1" class="st19" width="2.5" height="2.6"/>
			<rect x="-406.7" y="366" class="st27" width="2.7" height="2.7"/>
			<rect x="-406.1" y="366.7" class="st28" width="1.4" height="1.4"/>
			<polygon class="st29" points="-404.1,368.7 -404.7,368.1 -406.1,368.1 -406.7,368.7 			"/>
			<polygon class="st30" points="-406.1,366.7 -406.1,368.1 -406.7,368.7 -406.7,366 			"/>
			<polygon class="st31" points="-404.7,366.7 -406.1,366.7 -406.7,366 -404.1,366 			"/>
			<polygon class="st32" points="-404.1,368.7 -404.7,368.1 -404.7,366.7 -404.1,366 			"/>
		</g>
		<g>
			<rect id="connector2pin_64_72_" x="-400" y="365.7" class="st19" width="3.3" height="3.3"/>
			<rect id="connector2terminal_65_72_" x="-399.6" y="366.1" class="st19" width="2.5" height="2.6"/>
			<rect x="-399.7" y="366" class="st27" width="2.7" height="2.7"/>
			<rect x="-399" y="366.7" class="st28" width="1.4" height="1.4"/>
			<polygon class="st29" points="-397,368.7 -397.7,368.1 -399,368.1 -399.7,368.7 			"/>
			<polygon class="st30" points="-399,366.7 -399,368.1 -399.7,368.7 -399.7,366 			"/>
			<polygon class="st31" points="-397.7,366.7 -399,366.7 -399.7,366 -397,366 			"/>
			<polygon class="st32" points="-397,368.7 -397.7,368.1 -397.7,366.7 -397,366 			"/>
		</g>
		<g>
			<rect id="connector2pin_64_71_" x="-392.5" y="365.7" class="st19" width="3.3" height="3.3"/>
			<rect id="connector2terminal_65_71_" x="-392.1" y="366.1" class="st19" width="2.5" height="2.6"/>
			<rect x="-392.2" y="366" class="st27" width="2.7" height="2.7"/>
			<rect x="-391.5" y="366.7" class="st28" width="1.4" height="1.4"/>
			<polygon class="st29" points="-389.5,368.7 -390.2,368.1 -391.5,368.1 -392.2,368.7 			"/>
			<polygon class="st30" points="-391.5,366.7 -391.5,368.1 -392.2,368.7 -392.2,366 			"/>
			<polygon class="st31" points="-390.2,366.7 -391.5,366.7 -392.2,366 -389.5,366 			"/>
			<polygon class="st32" points="-389.5,368.7 -390.2,368.1 -390.2,366.7 -389.5,366 			"/>
		</g>
	</g>
	<g>
		<g>
			<rect id="connector2pin_64_70_" x="-378.4" y="365.7" class="st19" width="3.3" height="3.3"/>
			<rect id="connector2terminal_65_70_" x="-378" y="366.1" class="st19" width="2.5" height="2.6"/>
			<rect x="-378.1" y="366" class="st27" width="2.7" height="2.7"/>
			<rect x="-377.4" y="366.7" class="st28" width="1.4" height="1.4"/>
			<polygon class="st29" points="-375.4,368.7 -376.1,368.1 -377.4,368.1 -378.1,368.7 			"/>
			<polygon class="st30" points="-377.4,366.7 -377.4,368.1 -378.1,368.7 -378.1,366 			"/>
			<polygon class="st31" points="-376.1,366.7 -377.4,366.7 -378.1,366 -375.4,366 			"/>
			<polygon class="st32" points="-375.4,368.7 -376.1,368.1 -376.1,366.7 -375.4,366 			"/>
		</g>
		<g>
			<rect id="connector2pin_64_69_" x="-371.5" y="365.7" class="st19" width="3.3" height="3.3"/>
			<rect id="connector2terminal_65_69_" x="-371.2" y="366.1" class="st19" width="2.5" height="2.6"/>
			<rect x="-371.2" y="366" class="st27" width="2.7" height="2.7"/>
			<rect x="-370.6" y="366.7" class="st28" width="1.4" height="1.4"/>
			<polygon class="st29" points="-368.6,368.7 -369.2,368.1 -370.6,368.1 -371.2,368.7 			"/>
			<polygon class="st30" points="-370.6,366.7 -370.6,368.1 -371.2,368.7 -371.2,366 			"/>
			<polygon class="st31" points="-369.2,366.7 -370.6,366.7 -371.2,366 -368.6,366 			"/>
			<polygon class="st32" points="-368.6,368.7 -369.2,368.1 -369.2,366.7 -368.6,366 			"/>
		</g>
		<g>
			<rect id="connector2pin_64_68_" x="-364.6" y="365.7" class="st19" width="3.3" height="3.3"/>
			<rect id="connector2terminal_65_68_" x="-364.3" y="366.1" class="st19" width="2.5" height="2.6"/>
			<rect x="-364.4" y="366" class="st27" width="2.7" height="2.7"/>
			<rect x="-363.7" y="366.7" class="st28" width="1.4" height="1.4"/>
			<polygon class="st29" points="-361.7,368.7 -362.3,368.1 -363.7,368.1 -364.4,368.7 			"/>
			<polygon class="st30" points="-363.7,366.7 -363.7,368.1 -364.4,368.7 -364.4,366 			"/>
			<polygon class="st31" points="-362.3,366.7 -363.7,366.7 -364.4,366 -361.7,366 			"/>
			<polygon class="st32" points="-361.7,368.7 -362.3,368.1 -362.3,366.7 -361.7,366 			"/>
		</g>
		<g>
			<rect id="connector2pin_64_67_" x="-357.2" y="365.7" class="st19" width="3.3" height="3.3"/>
			<rect id="connector2terminal_65_67_" x="-356.9" y="366.1" class="st19" width="2.5" height="2.6"/>
			<rect x="-356.9" y="366" class="st27" width="2.7" height="2.7"/>
			<rect x="-356.3" y="366.7" class="st28" width="1.4" height="1.4"/>
			<polygon class="st29" points="-354.3,368.7 -354.9,368.1 -356.3,368.1 -356.9,368.7 			"/>
			<polygon class="st30" points="-356.3,366.7 -356.3,368.1 -356.9,368.7 -356.9,366 			"/>
			<polygon class="st31" points="-354.9,366.7 -356.3,366.7 -356.9,366 -354.3,366 			"/>
			<polygon class="st32" points="-354.3,368.7 -354.9,368.1 -354.9,366.7 -354.3,366 			"/>
		</g>
		<g>
			<rect id="connector2pin_64_66_" x="-349.9" y="365.7" class="st19" width="3.3" height="3.3"/>
			<rect id="connector2terminal_65_66_" x="-349.5" y="366.1" class="st19" width="2.5" height="2.6"/>
			<rect x="-349.6" y="366" class="st27" width="2.7" height="2.7"/>
			<rect x="-348.9" y="366.7" class="st28" width="1.4" height="1.4"/>
			<polygon class="st29" points="-346.9,368.7 -347.6,368.1 -348.9,368.1 -349.6,368.7 			"/>
			<polygon class="st30" points="-348.9,366.7 -348.9,368.1 -349.6,368.7 -349.6,366 			"/>
			<polygon class="st31" points="-347.6,366.7 -348.9,366.7 -349.6,366 -346.9,366 			"/>
			<polygon class="st32" points="-346.9,368.7 -347.6,368.1 -347.6,366.7 -346.9,366 			"/>
		</g>
		<g>
			<rect id="connector2pin_64_65_" x="-342.6" y="365.7" class="st19" width="3.3" height="3.3"/>
			<rect id="connector2terminal_65_65_" x="-342.2" y="366.1" class="st19" width="2.5" height="2.6"/>
			<rect x="-342.3" y="366" class="st27" width="2.7" height="2.7"/>
			<rect x="-341.7" y="366.7" class="st28" width="1.4" height="1.4"/>
			<polygon class="st29" points="-339.7,368.7 -340.3,368.1 -341.7,368.1 -342.3,368.7 			"/>
			<polygon class="st30" points="-341.7,366.7 -341.7,368.1 -342.3,368.7 -342.3,366 			"/>
			<polygon class="st31" points="-340.3,366.7 -341.7,366.7 -342.3,366 -339.7,366 			"/>
			<polygon class="st32" points="-339.7,368.7 -340.3,368.1 -340.3,366.7 -339.7,366 			"/>
		</g>
		<g>
			<rect id="connector2pin_64_64_" x="-335.1" y="365.7" class="st19" width="3.3" height="3.3"/>
			<rect id="connector2terminal_65_64_" x="-334.7" y="366.1" class="st19" width="2.5" height="2.6"/>
			<rect x="-334.8" y="366" class="st27" width="2.7" height="2.7"/>
			<rect x="-334.2" y="366.7" class="st28" width="1.4" height="1.4"/>
			<polygon class="st29" points="-332.1,368.7 -332.8,368.1 -334.2,368.1 -334.8,368.7 			"/>
			<polygon class="st30" points="-334.2,366.7 -334.2,368.1 -334.8,368.7 -334.8,366 			"/>
			<polygon class="st31" points="-332.8,366.7 -334.2,366.7 -334.8,366 -332.1,366 			"/>
			<polygon class="st32" points="-332.1,368.7 -332.8,368.1 -332.8,366.7 -332.1,366 			"/>
		</g>
		<g>
			<rect id="connector2pin_64_63_" x="-328" y="365.7" class="st19" width="3.3" height="3.3"/>
			<rect id="connector2terminal_65_63_" x="-327.6" y="366.1" class="st19" width="2.5" height="2.6"/>
			<rect x="-327.7" y="366" class="st27" width="2.7" height="2.7"/>
			<rect x="-327" y="366.7" class="st28" width="1.4" height="1.4"/>
			<polygon class="st29" points="-325,368.7 -325.7,368.1 -327,368.1 -327.7,368.7 			"/>
			<polygon class="st30" points="-327,366.7 -327,368.1 -327.7,368.7 -327.7,366 			"/>
			<polygon class="st31" points="-325.7,366.7 -327,366.7 -327.7,366 -325,366 			"/>
			<polygon class="st32" points="-325,368.7 -325.7,368.1 -325.7,366.7 -325,366 			"/>
		</g>
		<g>
			<rect id="connector2pin_64_62_" x="-320.9" y="365.7" class="st19" width="3.3" height="3.3"/>
			<rect id="connector2terminal_65_62_" x="-320.6" y="366.1" class="st19" width="2.5" height="2.6"/>
			<rect x="-320.6" y="366" class="st27" width="2.7" height="2.7"/>
			<rect x="-320" y="366.7" class="st28" width="1.4" height="1.4"/>
			<polygon class="st29" points="-318,368.7 -318.6,368.1 -320,368.1 -320.6,368.7 			"/>
			<polygon class="st30" points="-320,366.7 -320,368.1 -320.6,368.7 -320.6,366 			"/>
			<polygon class="st31" points="-318.6,366.7 -320,366.7 -320.6,366 -318,366 			"/>
			<polygon class="st32" points="-318,368.7 -318.6,368.1 -318.6,366.7 -318,366 			"/>
		</g>
		<g>
			<rect id="connector2pin_64_61_" x="-313.4" y="365.7" class="st19" width="3.3" height="3.3"/>
			<rect id="connector2terminal_65_61_" x="-313" y="366.1" class="st19" width="2.5" height="2.6"/>
			<rect x="-313.1" y="366" class="st27" width="2.7" height="2.7"/>
			<rect x="-312.5" y="366.7" class="st28" width="1.4" height="1.4"/>
			<polygon class="st29" points="-310.4,368.7 -311.1,368.1 -312.5,368.1 -313.1,368.7 			"/>
			<polygon class="st30" points="-312.5,366.7 -312.5,368.1 -313.1,368.7 -313.1,366 			"/>
			<polygon class="st31" points="-311.1,366.7 -312.5,366.7 -313.1,366 -310.4,366 			"/>
			<polygon class="st32" points="-310.4,368.7 -311.1,368.1 -311.1,366.7 -310.4,366 			"/>
		</g>
	</g>
	<g>
		<g>
			<rect id="connector2pin_64_60_" x="-457.7" y="430.5" class="st19" width="3.3" height="3.3"/>
			<rect id="connector2terminal_65_60_" x="-457.4" y="430.8" class="st19" width="2.5" height="2.6"/>
			<rect x="-457.4" y="430.8" class="st27" width="2.7" height="2.7"/>
			<rect x="-456.8" y="431.4" class="st28" width="1.4" height="1.4"/>
			<polygon class="st29" points="-454.8,433.5 -455.4,432.8 -456.8,432.8 -457.4,433.5 			"/>
			<polygon class="st30" points="-456.8,431.5 -456.8,432.8 -457.4,433.5 -457.4,430.8 			"/>
			<polygon class="st31" points="-455.4,431.5 -456.8,431.5 -457.4,430.8 -454.8,430.8 			"/>
			<polygon class="st32" points="-454.8,433.5 -455.4,432.8 -455.4,431.5 -454.8,430.8 			"/>
		</g>
		<g>
			<rect id="connector2pin_64_59_" x="-450.9" y="430.5" class="st19" width="3.3" height="3.3"/>
			<rect id="connector2terminal_65_59_" x="-450.5" y="430.8" class="st19" width="2.5" height="2.6"/>
			<rect x="-450.6" y="430.8" class="st27" width="2.7" height="2.7"/>
			<rect x="-450" y="431.4" class="st28" width="1.4" height="1.4"/>
			<polygon class="st29" points="-447.9,433.5 -448.6,432.8 -450,432.8 -450.6,433.5 			"/>
			<polygon class="st30" points="-450,431.5 -450,432.8 -450.6,433.5 -450.6,430.8 			"/>
			<polygon class="st31" points="-448.6,431.5 -450,431.5 -450.6,430.8 -447.9,430.8 			"/>
			<polygon class="st32" points="-447.9,433.5 -448.6,432.8 -448.6,431.5 -447.9,430.8 			"/>
		</g>
		<g>
			<rect id="connector2pin_64_58_" x="-444" y="430.5" class="st19" width="3.3" height="3.3"/>
			<rect id="connector2terminal_65_58_" x="-443.6" y="430.8" class="st19" width="2.5" height="2.6"/>
			<rect x="-443.7" y="430.8" class="st27" width="2.7" height="2.7"/>
			<rect x="-443.1" y="431.4" class="st28" width="1.4" height="1.4"/>
			<polygon class="st29" points="-441.1,433.5 -441.7,432.8 -443.1,432.8 -443.7,433.5 			"/>
			<polygon class="st30" points="-443.1,431.5 -443.1,432.8 -443.7,433.5 -443.7,430.8 			"/>
			<polygon class="st31" points="-441.7,431.5 -443.1,431.5 -443.7,430.8 -441.1,430.8 			"/>
			<polygon class="st32" points="-441.1,433.5 -441.7,432.8 -441.7,431.5 -441.1,430.8 			"/>
		</g>
		<g>
			<rect id="connector2pin_64_57_" x="-436.6" y="430.5" class="st19" width="3.3" height="3.3"/>
			<rect id="connector2terminal_65_57_" x="-436.2" y="430.8" class="st19" width="2.5" height="2.6"/>
			<rect x="-436.3" y="430.8" class="st27" width="2.7" height="2.7"/>
			<rect x="-435.7" y="431.4" class="st28" width="1.4" height="1.4"/>
			<polygon class="st29" points="-433.6,433.5 -434.3,432.8 -435.7,432.8 -436.3,433.5 			"/>
			<polygon class="st30" points="-435.7,431.5 -435.7,432.8 -436.3,433.5 -436.3,430.8 			"/>
			<polygon class="st31" points="-434.3,431.5 -435.7,431.5 -436.3,430.8 -433.6,430.8 			"/>
			<polygon class="st32" points="-433.6,433.5 -434.3,432.8 -434.3,431.5 -433.6,430.8 			"/>
		</g>
		<g>
			<rect id="connector2pin_64_56_" x="-429.2" y="430.5" class="st19" width="3.3" height="3.3"/>
			<rect id="connector2terminal_65_56_" x="-428.9" y="430.8" class="st19" width="2.5" height="2.6"/>
			<rect x="-429" y="430.8" class="st27" width="2.7" height="2.7"/>
			<rect x="-428.3" y="431.4" class="st28" width="1.4" height="1.4"/>
			<polygon class="st29" points="-426.3,433.5 -426.9,432.8 -428.3,432.8 -429,433.5 			"/>
			<polygon class="st30" points="-428.3,431.5 -428.3,432.8 -429,433.5 -429,430.8 			"/>
			<polygon class="st31" points="-426.9,431.5 -428.3,431.5 -429,430.8 -426.3,430.8 			"/>
			<polygon class="st32" points="-426.3,433.5 -426.9,432.8 -426.9,431.5 -426.3,430.8 			"/>
		</g>
		<g>
			<rect id="connector2pin_64_55_" x="-422" y="430.5" class="st19" width="3.3" height="3.3"/>
			<rect id="connector2terminal_65_55_" x="-421.6" y="430.8" class="st19" width="2.5" height="2.6"/>
			<rect x="-421.7" y="430.8" class="st27" width="2.7" height="2.7"/>
			<rect x="-421.1" y="431.4" class="st28" width="1.4" height="1.4"/>
			<polygon class="st29" points="-419,433.5 -419.7,432.8 -421,432.8 -421.7,433.5 			"/>
			<polygon class="st30" points="-421,431.5 -421,432.8 -421.7,433.5 -421.7,430.8 			"/>
			<polygon class="st31" points="-419.7,431.5 -421,431.5 -421.7,430.8 -419,430.8 			"/>
			<polygon class="st32" points="-419,433.5 -419.7,432.8 -419.7,431.5 -419,430.8 			"/>
		</g>
		<g>
			<rect id="connector2pin_64_54_" x="-414.5" y="430.5" class="st19" width="3.3" height="3.3"/>
			<rect id="connector2terminal_65_54_" x="-414.1" y="430.8" class="st19" width="2.5" height="2.6"/>
			<rect x="-414.2" y="430.8" class="st27" width="2.7" height="2.7"/>
			<rect x="-413.5" y="431.4" class="st28" width="1.4" height="1.4"/>
			<polygon class="st29" points="-411.5,433.5 -412.2,432.8 -413.5,432.8 -414.2,433.5 			"/>
			<polygon class="st30" points="-413.5,431.5 -413.5,432.8 -414.2,433.5 -414.2,430.8 			"/>
			<polygon class="st31" points="-412.2,431.5 -413.5,431.5 -414.2,430.8 -411.5,430.8 			"/>
			<polygon class="st32" points="-411.5,433.5 -412.2,432.8 -412.2,431.5 -411.5,430.8 			"/>
		</g>
		<g>
			<rect id="connector2pin_64_53_" x="-407.3" y="430.5" class="st19" width="3.3" height="3.3"/>
			<rect id="connector2terminal_65_53_" x="-407" y="430.8" class="st19" width="2.5" height="2.6"/>
			<rect x="-407" y="430.8" class="st27" width="2.7" height="2.7"/>
			<rect x="-406.4" y="431.4" class="st28" width="1.4" height="1.4"/>
			<polygon class="st29" points="-404.4,433.5 -405,432.8 -406.4,432.8 -407,433.5 			"/>
			<polygon class="st30" points="-406.4,431.5 -406.4,432.8 -407,433.5 -407,430.8 			"/>
			<polygon class="st31" points="-405,431.5 -406.4,431.5 -407,430.8 -404.4,430.8 			"/>
			<polygon class="st32" points="-404.4,433.5 -405,432.8 -405,431.5 -404.4,430.8 			"/>
		</g>
		<g>
			<rect id="connector2pin_64_52_" x="-400.3" y="430.5" class="st19" width="3.3" height="3.3"/>
			<rect id="connector2terminal_65_52_" x="-399.9" y="430.8" class="st19" width="2.5" height="2.6"/>
			<rect x="-400" y="430.8" class="st27" width="2.7" height="2.7"/>
			<rect x="-399.4" y="431.4" class="st28" width="1.4" height="1.4"/>
			<polygon class="st29" points="-397.3,433.5 -398,432.8 -399.3,432.8 -400,433.5 			"/>
			<polygon class="st30" points="-399.3,431.5 -399.3,432.8 -400,433.5 -400,430.8 			"/>
			<polygon class="st31" points="-398,431.5 -399.3,431.5 -400,430.8 -397.3,430.8 			"/>
			<polygon class="st32" points="-397.3,433.5 -398,432.8 -398,431.5 -397.3,430.8 			"/>
		</g>
		<g>
			<rect id="connector2pin_64_51_" x="-392.8" y="430.5" class="st19" width="3.3" height="3.3"/>
			<rect id="connector2terminal_65_51_" x="-392.4" y="430.8" class="st19" width="2.5" height="2.6"/>
			<rect x="-392.5" y="430.8" class="st27" width="2.7" height="2.7"/>
			<rect x="-391.8" y="431.4" class="st28" width="1.4" height="1.4"/>
			<polygon class="st29" points="-389.8,433.5 -390.5,432.8 -391.8,432.8 -392.5,433.5 			"/>
			<polygon class="st30" points="-391.8,431.5 -391.8,432.8 -392.5,433.5 -392.5,430.8 			"/>
			<polygon class="st31" points="-390.5,431.5 -391.8,431.5 -392.5,430.8 -389.8,430.8 			"/>
			<polygon class="st32" points="-389.8,433.5 -390.5,432.8 -390.5,431.5 -389.8,430.8 			"/>
		</g>
	</g>
	<g>
		<g>
			<rect id="connector2pin_64_50_" x="-378.1" y="430.5" class="st19" width="3.3" height="3.3"/>
			<rect id="connector2terminal_65_50_" x="-377.7" y="430.8" class="st19" width="2.5" height="2.6"/>
			<rect x="-377.8" y="430.8" class="st27" width="2.7" height="2.7"/>
			<rect x="-377.1" y="431.4" class="st28" width="1.4" height="1.4"/>
			<polygon class="st29" points="-375.1,433.5 -375.8,432.8 -377.1,432.8 -377.8,433.5 			"/>
			<polygon class="st30" points="-377.1,431.5 -377.1,432.8 -377.8,433.5 -377.8,430.8 			"/>
			<polygon class="st31" points="-375.8,431.5 -377.1,431.5 -377.8,430.8 -375.1,430.8 			"/>
			<polygon class="st32" points="-375.1,433.5 -375.8,432.8 -375.8,431.5 -375.1,430.8 			"/>
		</g>
		<g>
			<rect id="connector2pin_64_49_" x="-371.2" y="430.5" class="st19" width="3.3" height="3.3"/>
			<rect id="connector2terminal_65_49_" x="-370.9" y="430.8" class="st19" width="2.5" height="2.6"/>
			<rect x="-371" y="430.8" class="st27" width="2.7" height="2.7"/>
			<rect x="-370.3" y="431.4" class="st28" width="1.4" height="1.4"/>
			<polygon class="st29" points="-368.3,433.5 -368.9,432.8 -370.3,432.8 -371,433.5 			"/>
			<polygon class="st30" points="-370.3,431.5 -370.3,432.8 -371,433.5 -371,430.8 			"/>
			<polygon class="st31" points="-368.9,431.5 -370.3,431.5 -371,430.8 -368.3,430.8 			"/>
			<polygon class="st32" points="-368.3,433.5 -368.9,432.8 -368.9,431.5 -368.3,430.8 			"/>
		</g>
		<g>
			<rect id="connector2pin_64_48_" x="-364.4" y="430.5" class="st19" width="3.3" height="3.3"/>
			<rect id="connector2terminal_65_48_" x="-364" y="430.8" class="st19" width="2.5" height="2.6"/>
			<rect x="-364.1" y="430.8" class="st27" width="2.7" height="2.7"/>
			<rect x="-363.4" y="431.4" class="st28" width="1.4" height="1.4"/>
			<polygon class="st29" points="-361.4,433.5 -362.1,432.8 -363.4,432.8 -364.1,433.5 			"/>
			<polygon class="st30" points="-363.4,431.5 -363.4,432.8 -364.1,433.5 -364.1,430.8 			"/>
			<polygon class="st31" points="-362.1,431.5 -363.4,431.5 -364.1,430.8 -361.4,430.8 			"/>
			<polygon class="st32" points="-361.4,433.5 -362.1,432.8 -362.1,431.5 -361.4,430.8 			"/>
		</g>
		<g>
			<rect id="connector2pin_64_47_" x="-356.9" y="430.5" class="st19" width="3.3" height="3.3"/>
			<rect id="connector2terminal_65_47_" x="-356.6" y="430.8" class="st19" width="2.5" height="2.6"/>
			<rect x="-356.7" y="430.8" class="st27" width="2.7" height="2.7"/>
			<rect x="-356" y="431.4" class="st28" width="1.4" height="1.4"/>
			<polygon class="st29" points="-354,433.5 -354.6,432.8 -356,432.8 -356.7,433.5 			"/>
			<polygon class="st30" points="-356,431.5 -356,432.8 -356.7,433.5 -356.7,430.8 			"/>
			<polygon class="st31" points="-354.6,431.5 -356,431.5 -356.7,430.8 -354,430.8 			"/>
			<polygon class="st32" points="-354,433.5 -354.6,432.8 -354.6,431.5 -354,430.8 			"/>
		</g>
		<g>
			<rect id="connector2pin_64_46_" x="-349.6" y="430.5" class="st19" width="3.3" height="3.3"/>
			<rect id="connector2terminal_65_46_" x="-349.2" y="430.8" class="st19" width="2.5" height="2.6"/>
			<rect x="-349.3" y="430.8" class="st27" width="2.7" height="2.7"/>
			<rect x="-348.6" y="431.4" class="st28" width="1.4" height="1.4"/>
			<polygon class="st29" points="-346.6,433.5 -347.3,432.8 -348.6,432.8 -349.3,433.5 			"/>
			<polygon class="st30" points="-348.6,431.5 -348.6,432.8 -349.3,433.5 -349.3,430.8 			"/>
			<polygon class="st31" points="-347.3,431.5 -348.6,431.5 -349.3,430.8 -346.6,430.8 			"/>
			<polygon class="st32" points="-346.6,433.5 -347.3,432.8 -347.3,431.5 -346.6,430.8 			"/>
		</g>
		<g>
			<rect id="connector2pin_64_45_" x="-342.3" y="430.5" class="st19" width="3.3" height="3.3"/>
			<rect id="connector2terminal_65_45_" x="-342" y="430.8" class="st19" width="2.5" height="2.6"/>
			<rect x="-342" y="430.8" class="st27" width="2.7" height="2.7"/>
			<rect x="-341.4" y="431.4" class="st28" width="1.4" height="1.4"/>
			<polygon class="st29" points="-339.4,433.5 -340,432.8 -341.4,432.8 -342,433.5 			"/>
			<polygon class="st30" points="-341.4,431.5 -341.4,432.8 -342,433.5 -342,430.8 			"/>
			<polygon class="st31" points="-340,431.5 -341.4,431.5 -342,430.8 -339.4,430.8 			"/>
			<polygon class="st32" points="-339.4,433.5 -340,432.8 -340,431.5 -339.4,430.8 			"/>
		</g>
		<g>
			<rect id="connector2pin_64_44_" x="-334.8" y="430.5" class="st19" width="3.3" height="3.3"/>
			<rect id="connector2terminal_65_44_" x="-334.4" y="430.8" class="st19" width="2.5" height="2.6"/>
			<rect x="-334.5" y="430.8" class="st27" width="2.7" height="2.7"/>
			<rect x="-333.9" y="431.4" class="st28" width="1.4" height="1.4"/>
			<polygon class="st29" points="-331.9,433.5 -332.5,432.8 -333.9,432.8 -334.5,433.5 			"/>
			<polygon class="st30" points="-333.9,431.5 -333.9,432.8 -334.5,433.5 -334.5,430.8 			"/>
			<polygon class="st31" points="-332.5,431.5 -333.9,431.5 -334.5,430.8 -331.9,430.8 			"/>
			<polygon class="st32" points="-331.9,433.5 -332.5,432.8 -332.5,431.5 -331.9,430.8 			"/>
		</g>
		<g>
			<rect id="connector2pin_64_43_" x="-327.7" y="430.5" class="st19" width="3.3" height="3.3"/>
			<rect id="connector2terminal_65_43_" x="-327.3" y="430.8" class="st19" width="2.5" height="2.6"/>
			<rect x="-327.4" y="430.8" class="st27" width="2.7" height="2.7"/>
			<rect x="-326.7" y="431.4" class="st28" width="1.4" height="1.4"/>
			<polygon class="st29" points="-324.7,433.5 -325.4,432.8 -326.7,432.8 -327.4,433.5 			"/>
			<polygon class="st30" points="-326.7,431.5 -326.7,432.8 -327.4,433.5 -327.4,430.8 			"/>
			<polygon class="st31" points="-325.4,431.5 -326.7,431.5 -327.4,430.8 -324.7,430.8 			"/>
			<polygon class="st32" points="-324.7,433.5 -325.4,432.8 -325.4,431.5 -324.7,430.8 			"/>
		</g>
		<g>
			<rect id="connector2pin_64_42_" x="-320.6" y="430.5" class="st19" width="3.3" height="3.3"/>
			<rect id="connector2terminal_65_42_" x="-320.3" y="430.8" class="st19" width="2.5" height="2.6"/>
			<rect x="-320.3" y="430.8" class="st27" width="2.7" height="2.7"/>
			<rect x="-319.7" y="431.4" class="st28" width="1.4" height="1.4"/>
			<polygon class="st29" points="-317.7,433.5 -318.3,432.8 -319.7,432.8 -320.3,433.5 			"/>
			<polygon class="st30" points="-319.7,431.5 -319.7,432.8 -320.3,433.5 -320.3,430.8 			"/>
			<polygon class="st31" points="-318.3,431.5 -319.7,431.5 -320.3,430.8 -317.7,430.8 			"/>
			<polygon class="st32" points="-317.7,433.5 -318.3,432.8 -318.3,431.5 -317.7,430.8 			"/>
		</g>
		<g>
			<rect id="connector2pin_64_41_" x="-313.1" y="430.5" class="st19" width="3.3" height="3.3"/>
			<rect id="connector2terminal_65_41_" x="-312.8" y="430.8" class="st19" width="2.5" height="2.6"/>
			<rect x="-312.8" y="430.8" class="st27" width="2.7" height="2.7"/>
			<rect x="-312.2" y="431.4" class="st28" width="1.4" height="1.4"/>
			<polygon class="st29" points="-310.2,433.5 -310.8,432.8 -312.2,432.8 -312.8,433.5 			"/>
			<polygon class="st30" points="-312.2,431.5 -312.2,432.8 -312.8,433.5 -312.8,430.8 			"/>
			<polygon class="st31" points="-310.8,431.5 -312.2,431.5 -312.8,430.8 -310.2,430.8 			"/>
			<polygon class="st32" points="-310.2,433.5 -310.8,432.8 -310.8,431.5 -310.2,430.8 			"/>
		</g>
	</g>
	<g>
		<path class="st33" d="M-343.8,391v17.8c0,1.1-0.9,1.9-1.9,1.9h-17.8c-1.1,0-1.9-0.9-1.9-1.9V391c0-1.1,0.9-1.9,1.9-1.9h17.8
			C-344.6,389.1-343.8,389.9-343.8,391z"/>
		<g>
			<circle class="st34" cx="-354.6" cy="399.9" r="10"/>
			<circle class="st35" cx="-354.6" cy="399.9" r="9.4"/>
			<circle class="st34" cx="-354.6" cy="399.9" r="2.6"/>
			<circle class="st36" cx="-354.6" cy="399.9" r="2.2"/>
		</g>
		<g>
			<circle class="st34" cx="-363.7" cy="409" r="0.9"/>
			<circle class="st34" cx="-363.7" cy="390.8" r="0.9"/>
			<circle class="st34" cx="-345.4" cy="409" r="0.9"/>
			<circle class="st34" cx="-345.4" cy="390.8" r="0.9"/>
		</g>
	</g>
	<rect x="-365.8" y="388.6" class="st37" width="22.3" height="22.7"/>
	<path class="st28" d="M-381.7,394.9c0,0-2.6-2.4-2.8-3.8c0,0,0.7,1.8,3.8,1.9c3.2,0,14.3,0,14.3,0l-0.4,2L-381.7,394.9z"/>
	<rect x="-384.5" y="394.7" class="st32" width="18.1" height="0.2"/>
	<rect x="-384.5" y="395.1" class="st32" width="18.1" height="0.2"/>
	<rect x="-384.5" y="395.4" class="st32" width="18.1" height="0.2"/>
	<rect x="-384.5" y="395.9" class="st32" width="18.1" height="0.2"/>
	<rect x="-384.5" y="396.3" class="st32" width="18.1" height="0.2"/>
	<rect x="-384.5" y="396.7" class="st32" width="18.1" height="0.2"/>
	<rect x="-384.5" y="398.4" class="st32" width="18.1" height="0.2"/>
	<rect x="-384.5" y="398.2" class="st32" width="18.1" height="0.2"/>
	<rect x="-384.5" y="398" class="st32" width="18.1" height="0.2"/>
	<rect x="-384.5" y="397.5" class="st32" width="18.1" height="0.2"/>
	<rect x="-384.5" y="397.1" class="st32" width="18.1" height="0.2"/>
	<rect x="-384.5" y="399.8" class="st32" width="18.1" height="0.2"/>
	<rect x="-384.5" y="399.6" class="st32" width="18.1" height="0.2"/>
	<rect x="-384.5" y="400.6" class="st32" width="18.1" height="0.2"/>
	<rect x="-384.5" y="400.4" class="st32" width="18.1" height="0.2"/>
	<rect x="-384.5" y="403.2" class="st32" width="18.1" height="0.2"/>
	<rect x="-384.5" y="403" class="st32" width="18.1" height="0.2"/>
	<rect x="-384.5" y="405.1" class="st32" width="18.1" height="0.2"/>
	<rect x="-384.5" y="403.8" class="st32" width="18.1" height="0.2"/>
	<rect x="-384.5" y="405.5" class="st32" width="18.1" height="0.2"/>
	<rect x="-384.5" y="404.6" class="st32" width="18.1" height="0.2"/>
	<rect x="-384.5" y="404.3" class="st32" width="18.1" height="0.2"/>
	<g>
		<rect x="-451.4" y="395.5" class="st38" width="2.1" height="2.7"/>
		<rect x="-451.2" y="395.7" class="st39" width="1.6" height="2.3"/>
	</g>
	<g>
		<rect x="-454.1" y="395.5" class="st38" width="2.1" height="2.7"/>
		<rect x="-453.9" y="395.7" class="st39" width="1.6" height="2.3"/>
	</g>
	<g>
		<rect x="-456.8" y="395.5" class="st38" width="2.1" height="2.7"/>
		<rect x="-456.5" y="395.7" class="st39" width="1.6" height="2.3"/>
	</g>
	<g>
		<rect x="-451.4" y="402.2" class="st38" width="2.1" height="2.7"/>
		<rect x="-451.2" y="402.4" class="st39" width="1.6" height="2.3"/>
	</g>
	<g>
		<rect x="-456.8" y="402.2" class="st38" width="2.1" height="2.7"/>
		<rect x="-456.5" y="402.4" class="st39" width="1.6" height="2.3"/>
	</g>
	<g id="_x3C_Group_x3E__IC_1_">
		<rect x="-451.1" y="396.8" class="st2" width="1.5" height="1.1"/>
		<rect x="-453.8" y="396.8" class="st2" width="1.5" height="1.1"/>
		<rect x="-456.5" y="396.8" class="st2" width="1.5" height="1.1"/>
		<rect x="-451.1" y="402.2" class="st2" width="1.5" height="1.1"/>
		<rect x="-456.5" y="402.2" class="st2" width="1.5" height="1.1"/>
		<g>
			<rect x="-457.2" y="397.7" class="st40" width="8.2" height="4.8"/>
			<rect x="-457" y="397.9" class="st41" width="7.7" height="4.4"/>
		</g>
	</g>
	<path class="st2" d="M-373.8,376.1c0.5,1.5,0.3,2.9,0.3,4.3c0,0.5,0.2,1,0.3,1.5c0.1,0.5,0.1,0.6-0.4,0.8c-0.7,0.2-1.4,0.2-2.1,0
		c-0.4-0.1-0.6-0.4-0.3-0.8c0.7-1,0.9-2.2,1.2-3.3c0.4-1.4-0.3-2.7-1.8-3.1c-0.3-0.1-0.6-0.2-1-0.2c-0.4-0.1-0.7,0-1.1,0.3
		c-0.5,0.6-0.9,0.5-1.5,0c-0.9-0.8-1.3-1.7-1.1-2.9c0-0.2,0.2-0.5,0.3-0.6c0.1,0,0.4,0.1,0.6,0.3c1.1,1.2,2.4,1.6,4,1.7
		c1.9,0,3.6-0.5,5.4-1c0.6-0.2,1.2-0.5,1.7-0.7c0.2-0.1,0.5-0.2,0.6-0.1c0.1,0.2,0.2,0.4,0.2,0.6c-0.1,0.5-0.1,1-0.3,1.4
		c-0.1,0.3-0.3,0.5-0.6,0.6c-1.1,0.6-2.2,0.9-3.4,1.1C-373,376-373.3,376-373.8,376.1z"/>
	<path class="st2" d="M-352.8,383.3c0.2-0.1,0.3-0.3,0.5-0.4c0.9-0.5,1-1.1,0.5-2c-0.1-0.1-0.1-0.3-0.2-0.4c-0.6-1-0.4-1.1-2-0.8
		c0,0.4,0.3,0.4,0.5,0.6c0.8,0.5,1,1,0.7,1.6c-0.4,0.6-1.4,0.8-2,0.4c-0.1-0.1-0.2-0.3-0.3-0.4c0.2-0.1,0.3-0.2,0.5-0.3
		c0.2,0,0.4,0.1,0.5,0c0.1,0,0.3-0.2,0.5-0.4c-0.3-0.2-0.6-0.3-0.8-0.5c-0.5-0.3-0.8-0.8-0.7-1.2c0.1-0.5,0.5-0.8,1.2-0.8
		c0.6,0,1.3,0,1.9,0.2c0.3,0.1,0.6,0.4,0.8,0.7c0.2,0.2,0.3,0.6,0.5,0.8c0.6-0.2,0.6-0.6,0.8-1c0.3-0.6,0.4-0.6,1.2-0.5
		c-0.1,0.3-0.1,0.6-0.2,0.8c-0.5,1-1.1,2.1-1.7,3.1c-0.2,0.3-0.6,0.6-1,0.8C-352.1,383.9-352.5,383.8-352.8,383.3z"/>
	<path class="st2" d="M-346.7,377.1c0.4,0,0.8,0,1.2,0c0.1,0,0.3,0.2,0.3,0.4c0,0.1-0.2,0.3-0.3,0.4c-0.4,0.1-0.8,0-1.3,0.1
		c-0.6,0.1-0.8,0.5-0.6,0.9c0.1,0.2,0.4,0.3,0.6,0.4c0.3,0.1,0.6,0,0.9,0.1c0.1,0,0.3,0.2,0.3,0.4s-0.2,0.3-0.3,0.4
		c-0.3,0.1-0.6,0-0.9,0c-0.6,0-0.7,0.2-0.7,0.8c0,0.6,0.2,0.8,0.7,0.9c0.4,0,0.7,0,1.1,0c0.2,0,0.3,0.2,0.4,0.3
		c-0.1,0.1-0.3,0.4-0.4,0.4c-0.8,0-1.5,0-2.3,0c-0.3,0-0.5-0.2-0.5-0.5c0-1.4-0.1-2.8-0.1-4.2c0-0.4,0.2-0.6,0.6-0.6
		C-347.5,377.1-347.1,377.1-346.7,377.1C-346.7,377.1-346.7,377.1-346.7,377.1z"/>
	<path class="st2" d="M-359.7,379.8c-0.3,0.4-0.7,0.3-1.1,0.3c-0.7,0.1-0.8,0.2-0.8,0.8c0,0.6,0.2,0.8,0.7,0.8c0.3,0,0.6,0,0.9,0
		c0.2,0,0.5,0.1,0.5,0.4c0,0.1-0.3,0.4-0.4,0.4c-0.7,0-1.5,0-2.2,0c-0.3,0-0.5-0.2-0.5-0.5c0-0.3,0-0.5,0-0.8
		c-0.1-1-0.1-1.9-0.2-2.9c-0.1-0.8,0-1,0.8-1c0.7,0,1.3,0,2,0c0.3,0,0.6,0,0.6,0.4c0,0.4-0.3,0.5-0.6,0.5c-0.2,0-0.5,0-0.7,0
		c-0.6,0-0.9,0.2-0.8,0.7c0,0.4,0.2,0.6,0.8,0.6C-360.4,379.4-359.9,379.2-359.7,379.8z"/>
	<path class="st2" d="M-372.1,379.9c0-0.6,0-1.3,0-1.9c0-0.3,0.1-0.6,0.5-0.6c0.4,0,0.4,0.3,0.4,0.6c0,0.1,0,0.2,0,0.4
		c0,0.4,0.3,0.5,0.7,0.5c0.4,0,0.8,0,1.1,0.2c0.5,0.2,0.7,0.6,0.7,1.1c0,0.6,0,1.2-0.1,1.7c0,0.2-0.3,0.3-0.4,0.5
		c-0.1-0.2-0.4-0.3-0.4-0.5c-0.1-0.5,0-1-0.1-1.4c0-0.4-0.2-0.7-0.7-0.7c-0.5,0-0.7,0.2-0.8,0.7c-0.1,0.5,0,1,0,1.4
		c0,0.4-0.1,0.7-0.6,0.7c-0.4,0-0.5-0.3-0.5-0.7C-372.1,381.3-372.1,380.6-372.1,379.9C-372.1,379.9-372.1,379.9-372.1,379.9z"/>
	<path class="st2" d="M-341.7,380.8c0.3,0.6,0.7,0.8,1.2,0.7c0.2,0,0.4-0.1,0.6-0.1c0.2,0,0.4,0.1,0.5,0.2c-0.1,0.2-0.2,0.5-0.3,0.6
		c-0.6,0.4-1.9,0.2-2.4-0.3c-0.7-0.7-0.9-1.5-0.5-2.3c0.5-1.1,2.3-1.4,3-0.5c0.3,0.4,0.4,0.8,0.2,1.2c-0.2,0.4-0.6,0.4-0.9,0.4
		C-340.7,380.7-341.1,380.7-341.7,380.8z M-341.3,379.6c0.4,0.3,0.6,0.3,1,0.1C-340.6,379.3-340.9,379.2-341.3,379.6z"/>
	<path class="st2" d="M-366.1,379.9c-0.2-0.1-0.3-0.2-0.5-0.2c-0.2,0-0.4,0-0.5,0.1c-0.3,0.1-0.6,0.2-0.8-0.2
		c-0.1-0.3,0.2-0.6,0.7-0.6c0.3,0,0.5,0,0.8,0c0.8,0,1.3,0.4,1.4,1.2c0.1,0.6,0.1,1.3,0.1,2c0,0.3-0.2,0.5-0.5,0.5
		c-0.4,0-0.8,0.1-1.2,0.1c-0.7,0.1-1.4-0.3-1.5-0.9c-0.1-0.7,0.2-1.2,1-1.4c0.3-0.1,0.5-0.2,0.8-0.2
		C-366.2,380.1-366.2,380-366.1,379.9z M-366.7,381.9c0.2-0.3,0.4-0.4,0.6-0.6c-0.1-0.1-0.3-0.2-0.4-0.3c-0.3,0-0.6,0.1-0.6,0.4
		C-367,381.6-366.8,381.7-366.7,381.9z"/>
	<path class="st2" d="M-355.9,382.3c-0.6,0.1-1.1,0.1-1.7,0.1c-0.8,0-1.3-0.3-1.4-0.9c-0.1-0.7,0.2-1.1,1-1.3c0.3-0.1,0.6-0.2,1-0.3
		c-0.3-0.5-0.6-0.4-0.9-0.3c-0.3,0.1-0.7,0.2-0.8-0.3c-0.1-0.3,0.2-0.5,0.8-0.5c0.1,0,0.1,0,0.2,0c1.4-0.1,1.9,0.2,1.8,1.8
		C-356,381.2-355.9,381.8-355.9,382.3z M-356.9,381.1c-0.3-0.3-0.7-0.2-0.9,0.1c-0.1,0.1,0,0.3,0,0.4c0.4,0.3,0.7,0.1,0.9-0.3
		C-356.9,381.3-356.9,381.2-356.9,381.1z"/>
	<path class="st2" d="M-336.6,381.4c0.1,0,0.2-0.1,0.3,0c0.2,0.1,0.3,0.2,0.5,0.3c-0.1,0.2-0.2,0.4-0.3,0.5
		c-0.6,0.3-1.2,0.2-1.7-0.1c-0.7-0.4-1.2-1.4-1-2.2c0.2-0.8,0.8-1.3,1.8-1.4c0.3,0,0.7,0,1,0.1c0.2,0.1,0.3,0.3,0.4,0.5
		c-0.2,0.1-0.3,0.2-0.5,0.3c-0.1,0-0.2,0-0.3,0c-0.5-0.1-0.9,0-1.2,0.4c-0.2,0.4-0.3,0.8,0,1.2
		C-337.5,381.4-337.2,381.5-336.6,381.4z"/>
	<path class="st2" d="M-344.7,379.1c0-0.5,0-1,0-1.4c0-0.2,0.2-0.5,0.4-0.5c0.3-0.1,0.5,0.2,0.5,0.5c0,0.3,0,0.7,0,1
		c0,0.5,0,1,0,1.5c0,0.5,0.1,1,0.6,1.3c0.3,0.2,0.4,0.4,0.2,0.7c-0.2,0.3-0.5,0.3-0.8,0.1c-0.6-0.4-0.8-1-0.9-1.6
		C-344.7,380.1-344.7,379.6-344.7,379.1C-344.7,379.1-344.7,379.1-344.7,379.1z"/>
	<path class="st2" d="M-364.1,380.8c0-0.4,0-0.8,0-1.3c0-0.1,0.3-0.3,0.4-0.4c0.1,0.1,0.3,0.3,0.3,0.4c0,0.8,0,1.7,0,2.5
		c0,0.1-0.2,0.3-0.3,0.4c-0.1-0.1-0.4-0.2-0.4-0.4C-364.2,381.6-364.2,381.2-364.1,380.8C-364.2,380.8-364.1,380.8-364.1,380.8z"/>
	<path class="st2" d="M-363.3,378.1c0,0.3-0.3,0.5-0.7,0.5c-0.3-0.1-0.5-0.3-0.5-0.6c0-0.3,0.2-0.5,0.6-0.5
		C-363.5,377.5-363.2,377.8-363.3,378.1z"/>
	<path d="M-341.3,379.6c0.4-0.4,0.7-0.4,1,0.1C-340.7,380-341,380-341.3,379.6z"/>
	<g>
		<text transform="matrix(1.8813 -1.369280e-002 7.278468e-003 1 -377.799 386.1938)" class="st42 st43 st44">enable your design</text>
	</g>
	<g>
		<text transform="matrix(1 2.451887e-003 -2.451887e-003 1 -380.7709 418.3651)" class="st2 st45 st46">ESPino32</text>
	</g>
	<g>
		<text transform="matrix(1 1.950172e-004 -1.950172e-004 1 -380.7999 424.9022)" class="st2 st45 st47">Camera Exp.</text>
	</g>
	<polygon class="st48" points="-399.9,376.7 -401.2,376.7 -401.2,379.7 -400.6,379.7 -400.6,381 -401.2,381.4 -401.2,382.6 
		-401.2,417.4 -401.1,417.4 -401.1,418.4 -400.5,418.8 -400.5,420.1 -401.1,420.1 -401.1,423 -399.8,423.1 -399.8,423.7 
		-388.4,423.7 -388.4,421.2 -394.3,421.2 -394.3,417.4 -393.1,417.4 -393.1,382.6 -394.4,382.6 -394.4,378.5 -388.5,378.5 
		-388.5,376.1 -399.9,376.1 	"/>
</g>
</svg>
