<?xml version="1.0" encoding="utf-8"?>
<!-- Generator: Adobe Illustrator 24.0.1, SVG Export Plug-In . SVG Version: 6.00 Build 0)  -->
<svg version="1.1" id="Layer_2" xmlns="http://www.w3.org/2000/svg" xmlns:xlink="http://www.w3.org/1999/xlink" x="0px" y="0px"
	 viewBox="0 0 113 119" style="enable-background:new 0 0 113 119;" xml:space="preserve">
<style type="text/css">
	.st0{fill:none;stroke:#FFFFFF;stroke-miterlimit:10;}
	.st1{fill:#FFFFFF;}
	.st2{fill:#29292B;}
	.st3{fill:#F4C128;}
	.st4{fill:#FEC36C;}
	.st5{fill:#909090;}
	.st6{font-family:'Times-Bold';}
	.st7{font-size:9px;}
	.st8{fill:#E2E2E2;}
	.st9{fill:none;stroke:#BE9349;stroke-width:2.5;stroke-miterlimit:10;}
	.st10{fill:#E6E6E6;}
	.st11{opacity:0.2;fill:#FFFFFF;enable-background:new    ;}
	.st12{opacity:0.1;fill:#1A1A1A;enable-background:new    ;}
	.st13{fill:#CCCCCC;}
	.st14{opacity:0.1;enable-background:new    ;}
</style>
<g>
	<path d="M63.1,0c-0.46,3.39-3.22,6-6.57,6c-3.35,0-6.11-2.61-6.57-6H0v119h113V0H63.1z"/>
	<g>
		<g>
			<polyline class="st0" points="67.14,8.81 67.14,1.64 75.74,1.64 75.74,8.81 			"/>
			<polyline class="st0" points="75.74,10.6 75.74,17.76 67.14,17.76 67.14,10.6 			"/>
		</g>
		<g id="_x3C_Group_x3E__Capacitor_10_">
			<rect x="68.72" y="3.34" class="st1" width="5.59" height="2.89"/>
			<rect x="68.72" y="12.77" class="st1" width="5.59" height="2.89"/>
			<rect x="68.72" y="6.12" class="st2" width="5.59" height="6.61"/>
		</g>
	</g>
	<g>
		<g>
			<polyline class="st0" points="55.4,16.7 48.6,16.7 48.6,8.7 55.4,8.7 			"/>
			<polyline class="st0" points="57.1,8.7 63.9,8.7 63.9,16.7 57.1,16.7 			"/>
		</g>
		<g id="_x3C_Group_x3E__Capacitor_6_">
			<rect x="50.21" y="10.04" class="st3" width="2.75" height="5.21"/>
			<rect x="59.16" y="10.04" class="st3" width="2.75" height="5.21"/>
			<rect x="52.85" y="10.04" class="st1" width="6.28" height="5.21"/>
		</g>
	</g>
	<g>
		<g>
			<polyline class="st0" points="78.54,8.81 78.54,1.64 87.14,1.64 87.14,8.81 			"/>
			<polyline class="st0" points="87.14,10.6 87.14,17.76 78.54,17.76 78.54,10.6 			"/>
		</g>
		<g id="_x3C_Group_x3E__Capacitor_1_">
			<rect x="80.11" y="3.34" class="st1" width="5.59" height="2.89"/>
			<rect x="80.11" y="12.77" class="st1" width="5.59" height="2.89"/>
			<rect x="80.11" y="6.12" class="st2" width="5.59" height="6.61"/>
		</g>
	</g>
	<g>
		<g>
			<polyline class="st0" points="89.93,8.81 89.93,1.64 98.53,1.64 98.53,8.81 			"/>
			<polyline class="st0" points="98.53,10.6 98.53,17.76 89.93,17.76 89.93,10.6 			"/>
		</g>
		<g id="_x3C_Group_x3E__Capacitor_2_">
			<rect x="91.51" y="3.34" class="st1" width="5.59" height="2.89"/>
			<rect x="91.51" y="12.77" class="st1" width="5.59" height="2.89"/>
			<rect x="91.51" y="6.12" class="st4" width="5.59" height="6.61"/>
		</g>
	</g>
	<g>
		<g>
			<polyline class="st0" points="36.76,8.81 36.76,1.64 45.36,1.64 45.36,8.81 			"/>
			<polyline class="st0" points="45.36,10.6 45.36,17.76 36.76,17.76 36.76,10.6 			"/>
		</g>
		<g id="_x3C_Group_x3E__Capacitor_3_">
			<rect x="38.33" y="3.34" class="st1" width="5.59" height="2.89"/>
			<rect x="38.33" y="12.77" class="st1" width="5.59" height="2.89"/>
			<rect x="38.33" y="6.12" class="st4" width="5.59" height="6.61"/>
		</g>
	</g>
	<g>
		<g>
			<polyline class="st0" points="25.36,8.81 25.36,1.64 33.96,1.64 33.96,8.81 			"/>
			<polyline class="st0" points="33.96,10.6 33.96,17.76 25.36,17.76 25.36,10.6 			"/>
		</g>
		<g id="_x3C_Group_x3E__Capacitor_4_">
			<rect x="26.93" y="3.34" class="st1" width="5.59" height="2.89"/>
			<rect x="26.93" y="12.77" class="st1" width="5.59" height="2.89"/>
			<rect x="26.93" y="6.12" class="st4" width="5.59" height="6.61"/>
		</g>
	</g>
	<g>
		<g>
			<polyline class="st0" points="13.97,8.81 13.97,1.64 22.57,1.64 22.57,8.81 			"/>
			<polyline class="st0" points="22.57,10.6 22.57,17.76 13.97,17.76 13.97,10.6 			"/>
		</g>
		<g id="_x3C_Group_x3E__Capacitor_5_">
			<rect x="15.54" y="3.34" class="st1" width="5.59" height="2.89"/>
			<rect x="15.54" y="12.77" class="st1" width="5.59" height="2.89"/>
			<rect x="15.54" y="6.12" class="st4" width="5.59" height="6.61"/>
		</g>
	</g>
	<path class="st5" d="M98.76,107.5c0,3.66,0,6.84,0,10.5c0,0-14.27,0-17.82,0c-3.55,0-6.4-4.5-13.04-5.5s-52.7-0.92-52.7-0.92V31
		h83.56c0,15.7,0,30.3,0,46H84.99v12.5l3.8,3v14c0,0,0,1,0.95,1c0.95,0,0.95-1,0.95-1l0.95-14l-4.75-4v-5c0,0,0-1,0.95-1
		c0.95,0,5.7,0,5.7,0s1.9,0,1.9,2s0,21,0,21l0.95,2H98.76z"/>
	<text transform="matrix(0.999 0 0 1 29.437 26.2539)" class="st1 st6 st7">MP3-TF-16P</text>
	<rect x="20.89" y="28" class="st8" width="3.8" height="3"/>
	<rect x="26.94" y="28" class="st8" width="3.8" height="3"/>
	<rect x="33" y="28" class="st8" width="3.8" height="3"/>
	<rect x="39.05" y="28" class="st8" width="3.8" height="3"/>
	<rect x="45.11" y="28" class="st8" width="3.8" height="3"/>
	<rect x="51.16" y="28" class="st8" width="3.8" height="3"/>
	<rect x="57.21" y="28" class="st8" width="3.8" height="3"/>
	<rect x="63.27" y="28" class="st8" width="3.8" height="3"/>
	<rect x="69.32" y="28" class="st8" width="3.8" height="3"/>
</g>
<g>
	<circle id="connector30pin_4_" class="st9" cx="6.1" cy="7.2" r="3.8"/>
	<circle class="st10" cx="6.1" cy="7.2" r="3.8"/>
	<path class="st11" d="M5.3,11c2,0,3.8-1.6,3.8-3.8S7.5,3.4,5.3,3.4h0.6c2,0,3.8,1.6,3.8,3.8S8.1,11,5.9,11H5.3z"/>
	<path class="st12" d="M6.7,3.4c-2,0-3.8,1.6-3.8,3.8S4.7,11,6.7,11H6.1c-2,0-3.8-1.6-3.8-3.8s1.6-3.8,3.8-3.8
		C6.1,3.4,6.7,3.4,6.7,3.4z"/>
	<rect x="4.5" y="5.6" class="st13" width="3.2" height="3.2"/>
	<rect x="7.3" y="5.6" class="st11" width="0.2" height="3.2"/>
	<rect x="4.5" y="5.6" class="st14" width="0.2" height="3.2"/>
</g>
<g>
	<circle id="connector30pin_13_" class="st9" cx="6.1" cy="21.6" r="3.8"/>
	<circle class="st10" cx="6.1" cy="21.6" r="3.8"/>
	<path class="st11" d="M5.3,25.4c2,0,3.8-1.6,3.8-3.8s-1.6-3.8-3.8-3.8h0.6c2,0,3.8,1.6,3.8,3.8s-1.6,3.8-3.8,3.8H5.3z"/>
	<path class="st12" d="M6.7,17.8c-2,0-3.8,1.6-3.8,3.8s1.8,3.8,3.8,3.8H6.1c-2,0-3.8-1.6-3.8-3.8s1.6-3.8,3.8-3.8
		C6.1,17.8,6.7,17.8,6.7,17.8z"/>
	<rect x="4.5" y="20" class="st13" width="3.2" height="3.2"/>
	<rect x="7.3" y="20" class="st11" width="0.2" height="3.2"/>
	<rect x="4.5" y="20" class="st14" width="0.2" height="3.2"/>
</g>
<g>
	<circle id="connector30pin_1_" class="st9" cx="6.1" cy="36" r="3.8"/>
	<circle class="st10" cx="6.1" cy="36" r="3.8"/>
	<path class="st11" d="M5.3,39.8c2,0,3.8-1.6,3.8-3.8s-1.6-3.8-3.8-3.8h0.6c2,0,3.8,1.6,3.8,3.8s-1.6,3.8-3.8,3.8H5.3z"/>
	<path class="st12" d="M6.7,32.2c-2,0-3.8,1.6-3.8,3.8s1.8,3.8,3.8,3.8H6.1c-2,0-3.8-1.6-3.8-3.8s1.6-3.8,3.8-3.8
		C6.1,32.2,6.7,32.2,6.7,32.2z"/>
	<rect x="4.5" y="34.4" class="st13" width="3.2" height="3.2"/>
	<rect x="7.3" y="34.4" class="st11" width="0.2" height="3.2"/>
	<rect x="4.5" y="34.4" class="st14" width="0.2" height="3.2"/>
</g>
<g>
	<circle id="connector30pin_6_" class="st9" cx="6.1" cy="50.4" r="3.8"/>
	<circle class="st10" cx="6.1" cy="50.4" r="3.8"/>
	<path class="st11" d="M5.3,54.2c2,0,3.8-1.6,3.8-3.8s-1.6-3.8-3.8-3.8h0.6c2,0,3.8,1.6,3.8,3.8c0,2.2-1.6,3.8-3.8,3.8H5.3z"/>
	<path class="st12" d="M6.7,46.6c-2,0-3.8,1.6-3.8,3.8c0,2.2,1.8,3.8,3.8,3.8H6.1c-2,0-3.8-1.6-3.8-3.8c0-2.2,1.6-3.8,3.8-3.8
		C6.1,46.6,6.7,46.6,6.7,46.6z"/>
	<rect x="4.5" y="48.8" class="st13" width="3.2" height="3.2"/>
	<rect x="7.3" y="48.8" class="st11" width="0.2" height="3.2"/>
	<rect x="4.5" y="48.8" class="st14" width="0.2" height="3.2"/>
</g>
<g>
	<circle id="connector30pin_14_" class="st9" cx="6.1" cy="64.8" r="3.8"/>
	<circle class="st10" cx="6.1" cy="64.8" r="3.8"/>
	<path class="st11" d="M5.3,68.6c2,0,3.8-1.6,3.8-3.8S7.5,61,5.3,61h0.6c2,0,3.8,1.6,3.8,3.8c0,2.2-1.6,3.8-3.8,3.8H5.3z"/>
	<path class="st12" d="M6.7,61c-2,0-3.8,1.6-3.8,3.8s1.8,3.8,3.8,3.8H6.1c-2,0-3.8-1.6-3.8-3.8S3.9,61,6.1,61C6.1,61,6.7,61,6.7,61z
		"/>
	<rect x="4.5" y="63.2" class="st13" width="3.2" height="3.2"/>
	<rect x="7.3" y="63.2" class="st11" width="0.2" height="3.2"/>
	<rect x="4.5" y="63.2" class="st14" width="0.2" height="3.2"/>
</g>
<g>
	<circle id="connector30pin_11_" class="st9" cx="6.1" cy="79.2" r="3.8"/>
	<circle class="st10" cx="6.1" cy="79.2" r="3.8"/>
	<path class="st11" d="M5.3,83c2,0,3.8-1.6,3.8-3.8s-1.6-3.8-3.8-3.8h0.6c2,0,3.8,1.6,3.8,3.8c0,2.2-1.6,3.8-3.8,3.8H5.3z"/>
	<path class="st12" d="M6.7,75.4c-2,0-3.8,1.6-3.8,3.8S4.7,83,6.7,83H6.1c-2,0-3.8-1.6-3.8-3.8s1.6-3.8,3.8-3.8
		C6.1,75.4,6.7,75.4,6.7,75.4z"/>
	<rect x="4.5" y="77.6" class="st13" width="3.2" height="3.2"/>
	<rect x="7.3" y="77.6" class="st11" width="0.2" height="3.2"/>
	<rect x="4.5" y="77.6" class="st14" width="0.2" height="3.2"/>
</g>
<g>
	<circle id="connector30pin_16_" class="st9" cx="6.1" cy="93.6" r="3.8"/>
	<circle class="st10" cx="6.1" cy="93.6" r="3.8"/>
	<path class="st11" d="M5.3,97.4c2,0,3.8-1.6,3.8-3.8c0-2.2-1.6-3.8-3.8-3.8h0.6c2,0,3.8,1.6,3.8,3.8c0,2.2-1.6,3.8-3.8,3.8H5.3z"/>
	<path class="st12" d="M6.7,89.8c-2,0-3.8,1.6-3.8,3.8c0,2.2,1.8,3.8,3.8,3.8H6.1c-2,0-3.8-1.6-3.8-3.8c0-2.2,1.6-3.8,3.8-3.8
		C6.1,89.8,6.7,89.8,6.7,89.8z"/>
	<rect x="4.5" y="92" class="st13" width="3.2" height="3.2"/>
	<rect x="7.3" y="92" class="st11" width="0.2" height="3.2"/>
	<rect x="4.5" y="92" class="st14" width="0.2" height="3.2"/>
</g>
<g>
	<circle id="connector30pin_15_" class="st9" cx="6.1" cy="108" r="3.8"/>
	<circle class="st10" cx="6.1" cy="108" r="3.8"/>
	<path class="st11" d="M5.3,111.8c2,0,3.8-1.6,3.8-3.8c0-2.2-1.6-3.8-3.8-3.8h0.6c2,0,3.8,1.6,3.8,3.8c0,2.2-1.6,3.8-3.8,3.8H5.3z"
		/>
	<path class="st12" d="M6.7,104.2c-2,0-3.8,1.6-3.8,3.8c0,2.2,1.8,3.8,3.8,3.8H6.1c-2,0-3.8-1.6-3.8-3.8c0-2.2,1.6-3.8,3.8-3.8
		C6.1,104.2,6.7,104.2,6.7,104.2z"/>
	<rect x="4.5" y="106.4" class="st13" width="3.2" height="3.2"/>
	<rect x="7.3" y="106.4" class="st11" width="0.2" height="3.2"/>
	<rect x="4.5" y="106.4" class="st14" width="0.2" height="3.2"/>
</g>
<g>
	<circle id="connector30pin_2_" class="st9" cx="106.9" cy="7.2" r="3.8"/>
	<circle class="st10" cx="106.9" cy="7.2" r="3.8"/>
	<path class="st11" d="M106.1,11c2,0,3.8-1.6,3.8-3.8c0-2.2-1.6-3.8-3.8-3.8h0.6c2,0,3.8,1.6,3.8,3.8s-1.6,3.8-3.8,3.8L106.1,11z"/>
	<path class="st12" d="M107.5,3.4c-2,0-3.8,1.6-3.8,3.8c0,2.2,1.8,3.8,3.8,3.8h-0.6c-2,0-3.8-1.6-3.8-3.8s1.6-3.8,3.8-3.8
		C106.9,3.4,107.5,3.4,107.5,3.4z"/>
	<rect x="105.3" y="5.6" class="st13" width="3.2" height="3.2"/>
	<rect x="108.1" y="5.6" class="st11" width="0.2" height="3.2"/>
	<rect x="105.3" y="5.6" class="st14" width="0.2" height="3.2"/>
</g>
<g>
	<circle id="connector30pin_3_" class="st9" cx="106.9" cy="21.6" r="3.8"/>
	<circle class="st10" cx="106.9" cy="21.6" r="3.8"/>
	<path class="st11" d="M106.1,25.4c2,0,3.8-1.6,3.8-3.8s-1.6-3.8-3.8-3.8h0.6c2,0,3.8,1.6,3.8,3.8s-1.6,3.8-3.8,3.8H106.1z"/>
	<path class="st12" d="M107.5,17.8c-2,0-3.8,1.6-3.8,3.8s1.8,3.8,3.8,3.8h-0.6c-2,0-3.8-1.6-3.8-3.8c0-2.2,1.6-3.8,3.8-3.8
		C106.9,17.8,107.5,17.8,107.5,17.8z"/>
	<rect x="105.3" y="20" class="st13" width="3.2" height="3.2"/>
	<rect x="108.1" y="20" class="st11" width="0.2" height="3.2"/>
	<rect x="105.3" y="20" class="st14" width="0.2" height="3.2"/>
</g>
<g>
	<circle id="connector30pin_12_" class="st9" cx="106.9" cy="36" r="3.8"/>
	<circle class="st10" cx="106.9" cy="36" r="3.8"/>
	<path class="st11" d="M106.1,39.8c2,0,3.8-1.6,3.8-3.8s-1.6-3.8-3.8-3.8h0.6c2,0,3.8,1.6,3.8,3.8s-1.6,3.8-3.8,3.8H106.1z"/>
	<path class="st12" d="M107.5,32.2c-2,0-3.8,1.6-3.8,3.8s1.8,3.8,3.8,3.8h-0.6c-2,0-3.8-1.6-3.8-3.8s1.6-3.8,3.8-3.8
		C106.9,32.2,107.5,32.2,107.5,32.2z"/>
	<rect x="105.3" y="34.4" class="st13" width="3.2" height="3.2"/>
	<rect x="108.1" y="34.4" class="st11" width="0.2" height="3.2"/>
	<rect x="105.3" y="34.4" class="st14" width="0.2" height="3.2"/>
</g>
<g>
	<circle id="connector30pin_5_" class="st9" cx="106.9" cy="50.4" r="3.8"/>
	<circle class="st10" cx="106.9" cy="50.4" r="3.8"/>
	<path class="st11" d="M106.1,54.2c2,0,3.8-1.6,3.8-3.8c0-2.2-1.6-3.8-3.8-3.8h0.6c2,0,3.8,1.6,3.8,3.8c0,2.2-1.6,3.8-3.8,3.8H106.1
		z"/>
	<path class="st12" d="M107.5,46.6c-2,0-3.8,1.6-3.8,3.8c0,2.2,1.8,3.8,3.8,3.8h-0.6c-2,0-3.8-1.6-3.8-3.8c0-2.2,1.6-3.8,3.8-3.8
		C106.9,46.6,107.5,46.6,107.5,46.6z"/>
	<rect x="105.3" y="48.8" class="st13" width="3.2" height="3.2"/>
	<rect x="108.1" y="48.8" class="st11" width="0.2" height="3.2"/>
	<rect x="105.3" y="48.8" class="st14" width="0.2" height="3.2"/>
</g>
<g>
	<circle id="connector30pin_9_" class="st9" cx="106.9" cy="64.8" r="3.8"/>
	<circle class="st10" cx="106.9" cy="64.8" r="3.8"/>
	<path class="st11" d="M106.1,68.6c2,0,3.8-1.6,3.8-3.8c0-2.2-1.6-3.8-3.8-3.8h0.6c2,0,3.8,1.6,3.8,3.8c0,2.2-1.6,3.8-3.8,3.8H106.1
		z"/>
	<path class="st12" d="M107.5,61c-2,0-3.8,1.6-3.8,3.8c0,2.2,1.8,3.8,3.8,3.8h-0.6c-2,0-3.8-1.6-3.8-3.8c0-2.2,1.6-3.8,3.8-3.8
		C106.9,61,107.5,61,107.5,61z"/>
	<rect x="105.3" y="63.2" class="st13" width="3.2" height="3.2"/>
	<rect x="108.1" y="63.2" class="st11" width="0.2" height="3.2"/>
	<rect x="105.3" y="63.2" class="st14" width="0.2" height="3.2"/>
</g>
<g>
	<circle id="connector30pin_8_" class="st9" cx="106.9" cy="79.2" r="3.8"/>
	<circle class="st10" cx="106.9" cy="79.2" r="3.8"/>
	<path class="st11" d="M106.1,83c2,0,3.8-1.6,3.8-3.8s-1.6-3.8-3.8-3.8h0.6c2,0,3.8,1.6,3.8,3.8s-1.6,3.8-3.8,3.8H106.1z"/>
	<path class="st12" d="M107.5,75.4c-2,0-3.8,1.6-3.8,3.8s1.8,3.8,3.8,3.8h-0.6c-2,0-3.8-1.6-3.8-3.8s1.6-3.8,3.8-3.8
		C106.9,75.4,107.5,75.4,107.5,75.4z"/>
	<rect x="105.3" y="77.6" class="st13" width="3.2" height="3.2"/>
	<rect x="108.1" y="77.6" class="st11" width="0.2" height="3.2"/>
	<rect x="105.3" y="77.6" class="st14" width="0.2" height="3.2"/>
</g>
<g>
	<circle id="connector30pin_10_" class="st9" cx="106.9" cy="93.6" r="3.8"/>
	<circle class="st10" cx="106.9" cy="93.6" r="3.8"/>
	<path class="st11" d="M106.1,97.4c2,0,3.8-1.6,3.8-3.8c0-2.2-1.6-3.8-3.8-3.8h0.6c2,0,3.8,1.6,3.8,3.8c0,2.2-1.6,3.8-3.8,3.8H106.1
		z"/>
	<path class="st12" d="M107.5,89.8c-2,0-3.8,1.6-3.8,3.8s1.8,3.8,3.8,3.8h-0.6c-2,0-3.8-1.6-3.8-3.8c0-2.2,1.6-3.8,3.8-3.8
		C106.9,89.8,107.5,89.8,107.5,89.8z"/>
	<rect x="105.3" y="92" class="st13" width="3.2" height="3.2"/>
	<rect x="108.1" y="92" class="st11" width="0.2" height="3.2"/>
	<rect x="105.3" y="92" class="st14" width="0.2" height="3.2"/>
</g>
<g>
	<circle id="connector30pin_17_" class="st9" cx="106.9" cy="108" r="3.8"/>
	<circle class="st10" cx="106.9" cy="108" r="3.8"/>
	<path class="st11" d="M106.1,111.8c2,0,3.8-1.6,3.8-3.8s-1.6-3.8-3.8-3.8h0.6c2,0,3.8,1.6,3.8,3.8s-1.6,3.8-3.8,3.8H106.1z"/>
	<path class="st12" d="M107.5,104.2c-2,0-3.8,1.6-3.8,3.8s1.8,3.8,3.8,3.8h-0.6c-2,0-3.8-1.6-3.8-3.8s1.6-3.8,3.8-3.8
		C106.9,104.2,107.5,104.2,107.5,104.2z"/>
	<rect x="105.3" y="106.4" class="st13" width="3.2" height="3.2"/>
	<rect x="108.1" y="106.4" class="st11" width="0.2" height="3.2"/>
	<rect x="105.3" y="106.4" class="st14" width="0.2" height="3.2"/>
</g>
</svg>
