<?xml version="1.0" encoding="UTF-8" standalone="no"?>
<!-- Generator: Adobe Illustrator 24.0.1, SVG Export Plug-In . SVG Version: 6.00 Build 0)  -->

<svg
   xmlns:dc="http://purl.org/dc/elements/1.1/"
   xmlns:cc="http://creativecommons.org/ns#"
   xmlns:rdf="http://www.w3.org/1999/02/22-rdf-syntax-ns#"
   xmlns:svg="http://www.w3.org/2000/svg"
   xmlns="http://www.w3.org/2000/svg"
   xmlns:sodipodi="http://sodipodi.sourceforge.net/DTD/sodipodi-0.dtd"
   xmlns:inkscape="http://www.inkscape.org/namespaces/inkscape"
   version="1.1"
   id="Layer_2"
   x="0px"
   y="0px"
   viewBox="0 0 184 127"
   xml:space="preserve"
   sodipodi:docname="mp3_breadboard_jet.svg"
   width="184"
   height="127"
   inkscape:version="0.92.4 (5da689c313, 2019-01-14)"
   inkscape:export-filename="C:\Users\jetst\Documents\JET\JOBS\Present\InGarage\MakerPlayground\library\devices\DFRobot-MP3-TF-16P\asset\device.png"
   inkscape:export-xdpi="96"
   inkscape:export-ydpi="96"><metadata
   id="metadata2233"><rdf:RDF><cc:Work
       rdf:about=""><dc:format>image/svg+xml</dc:format><dc:type
         rdf:resource="http://purl.org/dc/dcmitype/StillImage" /><dc:title></dc:title></cc:Work></rdf:RDF></metadata><defs
   id="defs2231" /><sodipodi:namedview
   pagecolor="#ffffff"
   bordercolor="#666666"
   borderopacity="1"
   objecttolerance="10"
   gridtolerance="10"
   guidetolerance="10"
   inkscape:pageopacity="0"
   inkscape:pageshadow="2"
   inkscape:window-width="1366"
   inkscape:window-height="705"
   id="namedview2229"
   showgrid="false"
   units="in"
   inkscape:zoom="3.9663866"
   inkscape:cx="88.087696"
   inkscape:cy="59.713852"
   inkscape:window-x="-8"
   inkscape:window-y="-8"
   inkscape:window-maximized="1"
   inkscape:current-layer="Layer_2"
   showguides="true"
   inkscape:guide-bbox="true"
   inkscape:snap-bbox="true"
   inkscape:bbox-nodes="false"
   inkscape:snap-bbox-edge-midpoints="true"><sodipodi:guide
     position="70.4,121.33258"
     orientation="0,1"
     id="guide3228"
     inkscape:locked="false" /><sodipodi:guide
     position="86.4,121.93258"
     orientation="1,0"
     id="guide3230"
     inkscape:locked="false" /><sodipodi:guide
     position="84.8,20.532576"
     orientation="0,1"
     id="guide3232"
     inkscape:locked="false" /><sodipodi:guide
     position="69.006398,34.932568"
     orientation="0,1"
     id="guide3260"
     inkscape:locked="false" /></sodipodi:namedview>
<style
   type="text/css"
   id="style1855">
	.st0{fill:none;stroke:#FFFFFF;stroke-miterlimit:10;}
	.st1{fill:#FFFFFF;}
	.st2{fill:#29292B;}
	.st3{fill:#F4C128;}
	.st4{fill:#FEC36C;}
	.st5{fill:#909090;}
	.st6{font-family:'Times-Bold';}
	.st7{font-size:9px;}
	.st8{fill:#E2E2E2;}
	.st9{fill:none;stroke:#BE9349;stroke-width:2.5;stroke-miterlimit:10;}
	.st10{fill:#E6E6E6;}
	.st11{opacity:0.2;fill:#FFFFFF;enable-background:new    ;}
	.st12{opacity:0.1;fill:#1A1A1A;enable-background:new    ;}
	.st13{fill:#CCCCCC;}
	.st14{opacity:0.1;enable-background:new    ;}
</style>
















<g
   id="g1986"
   transform="rotate(-90,88.683712,23.883712)">
	<path
   inkscape:connector-curvature="0"
   d="M 63.1,0 C 62.64,3.39 59.88,6 56.53,6 53.18,6 50.42,3.39 49.96,0 H 0 V 119 H 113 V 0 Z"
   id="path1857" />
	<g
   id="g1872">
		<g
   id="g1863">
			<polyline
   style="fill:none;stroke:#ffffff;stroke-miterlimit:10"
   class="st0"
   points="67.14,8.81 67.14,1.64 75.74,1.64 75.74,8.81    "
   id="polyline1859" />
			<polyline
   style="fill:none;stroke:#ffffff;stroke-miterlimit:10"
   class="st0"
   points="75.74,10.6 75.74,17.76 67.14,17.76 67.14,10.6    "
   id="polyline1861" />
		</g>
		<g
   id="_x3C_Group_x3E__Capacitor_10_">
			<rect
   style="fill:#ffffff"
   x="68.720001"
   y="3.3399999"
   class="st1"
   width="5.5900002"
   height="2.8900001"
   id="rect1865" />
			<rect
   style="fill:#ffffff"
   x="68.720001"
   y="12.77"
   class="st1"
   width="5.5900002"
   height="2.8900001"
   id="rect1867" />
			<rect
   style="fill:#29292b"
   x="68.720001"
   y="6.1199999"
   class="st2"
   width="5.5900002"
   height="6.6100001"
   id="rect1869" />
		</g>
	</g>
	<g
   id="g1887">
		<g
   id="g1878">
			<polyline
   style="fill:none;stroke:#ffffff;stroke-miterlimit:10"
   class="st0"
   points="55.4,16.7 48.6,16.7 48.6,8.7 55.4,8.7    "
   id="polyline1874" />
			<polyline
   style="fill:none;stroke:#ffffff;stroke-miterlimit:10"
   class="st0"
   points="57.1,8.7 63.9,8.7 63.9,16.7 57.1,16.7    "
   id="polyline1876" />
		</g>
		<g
   id="_x3C_Group_x3E__Capacitor_6_">
			<rect
   style="fill:#f4c128"
   x="50.209999"
   y="10.04"
   class="st3"
   width="2.75"
   height="5.21"
   id="rect1880" />
			<rect
   style="fill:#f4c128"
   x="59.16"
   y="10.04"
   class="st3"
   width="2.75"
   height="5.21"
   id="rect1882" />
			<rect
   style="fill:#ffffff"
   x="52.849998"
   y="10.04"
   class="st1"
   width="6.2800002"
   height="5.21"
   id="rect1884" />
		</g>
	</g>
	<g
   id="g1902">
		<g
   id="g1893">
			<polyline
   style="fill:none;stroke:#ffffff;stroke-miterlimit:10"
   class="st0"
   points="78.54,8.81 78.54,1.64 87.14,1.64 87.14,8.81    "
   id="polyline1889" />
			<polyline
   style="fill:none;stroke:#ffffff;stroke-miterlimit:10"
   class="st0"
   points="87.14,10.6 87.14,17.76 78.54,17.76 78.54,10.6    "
   id="polyline1891" />
		</g>
		<g
   id="_x3C_Group_x3E__Capacitor_1_">
			<rect
   style="fill:#ffffff"
   x="80.110001"
   y="3.3399999"
   class="st1"
   width="5.5900002"
   height="2.8900001"
   id="rect1895" />
			<rect
   style="fill:#ffffff"
   x="80.110001"
   y="12.77"
   class="st1"
   width="5.5900002"
   height="2.8900001"
   id="rect1897" />
			<rect
   style="fill:#29292b"
   x="80.110001"
   y="6.1199999"
   class="st2"
   width="5.5900002"
   height="6.6100001"
   id="rect1899" />
		</g>
	</g>
	<g
   id="g1917">
		<g
   id="g1908">
			<polyline
   style="fill:none;stroke:#ffffff;stroke-miterlimit:10"
   class="st0"
   points="89.93,8.81 89.93,1.64 98.53,1.64 98.53,8.81    "
   id="polyline1904" />
			<polyline
   style="fill:none;stroke:#ffffff;stroke-miterlimit:10"
   class="st0"
   points="98.53,10.6 98.53,17.76 89.93,17.76 89.93,10.6    "
   id="polyline1906" />
		</g>
		<g
   id="_x3C_Group_x3E__Capacitor_2_">
			<rect
   style="fill:#ffffff"
   x="91.510002"
   y="3.3399999"
   class="st1"
   width="5.5900002"
   height="2.8900001"
   id="rect1910" />
			<rect
   style="fill:#ffffff"
   x="91.510002"
   y="12.77"
   class="st1"
   width="5.5900002"
   height="2.8900001"
   id="rect1912" />
			<rect
   style="fill:#fec36c"
   x="91.510002"
   y="6.1199999"
   class="st4"
   width="5.5900002"
   height="6.6100001"
   id="rect1914" />
		</g>
	</g>
	<g
   id="g1932">
		<g
   id="g1923">
			<polyline
   style="fill:none;stroke:#ffffff;stroke-miterlimit:10"
   class="st0"
   points="36.76,8.81 36.76,1.64 45.36,1.64 45.36,8.81    "
   id="polyline1919" />
			<polyline
   style="fill:none;stroke:#ffffff;stroke-miterlimit:10"
   class="st0"
   points="45.36,10.6 45.36,17.76 36.76,17.76 36.76,10.6    "
   id="polyline1921" />
		</g>
		<g
   id="_x3C_Group_x3E__Capacitor_3_">
			<rect
   style="fill:#ffffff"
   x="38.330002"
   y="3.3399999"
   class="st1"
   width="5.5900002"
   height="2.8900001"
   id="rect1925" />
			<rect
   style="fill:#ffffff"
   x="38.330002"
   y="12.77"
   class="st1"
   width="5.5900002"
   height="2.8900001"
   id="rect1927" />
			<rect
   style="fill:#fec36c"
   x="38.330002"
   y="6.1199999"
   class="st4"
   width="5.5900002"
   height="6.6100001"
   id="rect1929" />
		</g>
	</g>
	<g
   id="g1947">
		<g
   id="g1938">
			<polyline
   style="fill:none;stroke:#ffffff;stroke-miterlimit:10"
   class="st0"
   points="25.36,8.81 25.36,1.64 33.96,1.64 33.96,8.81    "
   id="polyline1934" />
			<polyline
   style="fill:none;stroke:#ffffff;stroke-miterlimit:10"
   class="st0"
   points="33.96,10.6 33.96,17.76 25.36,17.76 25.36,10.6    "
   id="polyline1936" />
		</g>
		<g
   id="_x3C_Group_x3E__Capacitor_4_">
			<rect
   style="fill:#ffffff"
   x="26.93"
   y="3.3399999"
   class="st1"
   width="5.5900002"
   height="2.8900001"
   id="rect1940" />
			<rect
   style="fill:#ffffff"
   x="26.93"
   y="12.77"
   class="st1"
   width="5.5900002"
   height="2.8900001"
   id="rect1942" />
			<rect
   style="fill:#fec36c"
   x="26.93"
   y="6.1199999"
   class="st4"
   width="5.5900002"
   height="6.6100001"
   id="rect1944" />
		</g>
	</g>
	<g
   id="g1962">
		<g
   id="g1953">
			<polyline
   style="fill:none;stroke:#ffffff;stroke-miterlimit:10"
   class="st0"
   points="13.97,8.81 13.97,1.64 22.57,1.64 22.57,8.81    "
   id="polyline1949" />
			<polyline
   style="fill:none;stroke:#ffffff;stroke-miterlimit:10"
   class="st0"
   points="22.57,10.6 22.57,17.76 13.97,17.76 13.97,10.6    "
   id="polyline1951" />
		</g>
		<g
   id="_x3C_Group_x3E__Capacitor_5_">
			<rect
   style="fill:#ffffff"
   x="15.54"
   y="3.3399999"
   class="st1"
   width="5.5900002"
   height="2.8900001"
   id="rect1955" />
			<rect
   style="fill:#ffffff"
   x="15.54"
   y="12.77"
   class="st1"
   width="5.5900002"
   height="2.8900001"
   id="rect1957" />
			<rect
   style="fill:#fec36c"
   x="15.54"
   y="6.1199999"
   class="st4"
   width="5.5900002"
   height="6.6100001"
   id="rect1959" />
		</g>
	</g>
	<path
   style="fill:#909090"
   inkscape:connector-curvature="0"
   class="st5"
   d="m 98.76,107.5 c 0,3.66 0,6.84 0,10.5 0,0 -14.27,0 -17.82,0 -3.55,0 -6.4,-4.5 -13.04,-5.5 -6.64,-1 -52.7,-0.92 -52.7,-0.92 V 31 h 83.56 c 0,15.7 0,30.3 0,46 H 84.99 v 12.5 l 3.8,3 v 14 c 0,0 0,1 0.95,1 0.95,0 0.95,-1 0.95,-1 l 0.95,-14 -4.75,-4 v -5 c 0,0 0,-1 0.95,-1 0.95,0 5.7,0 5.7,0 0,0 1.9,0 1.9,2 0,2 0,21 0,21 l 0.95,2 z"
   id="path1964" />
	<text
   style="font-size:9px;font-family:Times-Bold;fill:#ffffff"
   transform="matrix(0.999,0,0,1,29.437,26.2539)"
   class="st1 st6 st7"
   id="text1966">MP3-TF-16P</text>

	<rect
   style="fill:#e2e2e2"
   x="20.889999"
   y="28"
   class="st8"
   width="3.8"
   height="3"
   id="rect1968" />
	<rect
   style="fill:#e2e2e2"
   x="26.940001"
   y="28"
   class="st8"
   width="3.8"
   height="3"
   id="rect1970" />
	<rect
   style="fill:#e2e2e2"
   x="33"
   y="28"
   class="st8"
   width="3.8"
   height="3"
   id="rect1972" />
	<rect
   style="fill:#e2e2e2"
   x="39.049999"
   y="28"
   class="st8"
   width="3.8"
   height="3"
   id="rect1974" />
	<rect
   style="fill:#e2e2e2"
   x="45.110001"
   y="28"
   class="st8"
   width="3.8"
   height="3"
   id="rect1976" />
	<rect
   style="fill:#e2e2e2"
   x="51.16"
   y="28"
   class="st8"
   width="3.8"
   height="3"
   id="rect1978" />
	<rect
   style="fill:#e2e2e2"
   x="57.209999"
   y="28"
   class="st8"
   width="3.8"
   height="3"
   id="rect1980" />
	<rect
   style="fill:#e2e2e2"
   x="63.27"
   y="28"
   class="st8"
   width="3.8"
   height="3"
   id="rect1982" />
	<rect
   style="fill:#e2e2e2"
   x="69.32"
   y="28"
   class="st8"
   width="3.8"
   height="3"
   id="rect1984" />
</g><g
   id="g2001"
   transform="rotate(-90,88.683712,23.883712)">
	<circle
   style="fill:none;stroke:#be9349;stroke-width:2.5;stroke-miterlimit:10"
   id="connector30pin_4_"
   class="st9"
   cx="6.0999999"
   cy="7.1999998"
   r="3.8" />
	<circle
   style="fill:#e6e6e6"
   class="st10"
   cx="6.0999999"
   cy="7.1999998"
   r="3.8"
   id="circle1989" />
	<path
   style="opacity:0.2;fill:#ffffff;enable-background:new"
   inkscape:connector-curvature="0"
   class="st11"
   d="M 5.3,11 C 7.3,11 9.1,9.4 9.1,7.2 9.1,5 7.5,3.4 5.3,3.4 h 0.6 c 2,0 3.8,1.6 3.8,3.8 0,2.2 -1.6,3.8 -3.8,3.8 z"
   id="path1991" />
	<path
   style="opacity:0.1;fill:#1a1a1a;enable-background:new"
   inkscape:connector-curvature="0"
   class="st12"
   d="M 6.7,3.4 C 4.7,3.4 2.9,5 2.9,7.2 2.9,9.4 4.7,11 6.7,11 H 6.1 C 4.1,11 2.3,9.4 2.3,7.2 2.3,5 3.9,3.4 6.1,3.4 c 0,0 0.6,0 0.6,0 z"
   id="path1993" />
	<rect
   style="fill:#cccccc"
   x="4.5"
   y="5.5999999"
   class="st13"
   width="3.2"
   height="3.2"
   id="rect1995" />
	<rect
   style="opacity:0.2;fill:#ffffff;enable-background:new"
   x="7.3000002"
   y="5.5999999"
   class="st11"
   width="0.2"
   height="3.2"
   id="rect1997" />
	<rect
   style="opacity:0.1;enable-background:new"
   x="4.5"
   y="5.5999999"
   class="st14"
   width="0.2"
   height="3.2"
   id="rect1999" />
</g><g
   id="g2016"
   transform="rotate(-90,88.683712,23.883712)">
	<circle
   style="fill:none;stroke:#be9349;stroke-width:2.5;stroke-miterlimit:10"
   id="connector30pin_13_"
   class="st9"
   cx="6.0999999"
   cy="21.6"
   r="3.8" />
	<circle
   style="fill:#e6e6e6"
   class="st10"
   cx="6.0999999"
   cy="21.6"
   r="3.8"
   id="circle2004" />
	<path
   style="opacity:0.2;fill:#ffffff;enable-background:new"
   inkscape:connector-curvature="0"
   class="st11"
   d="m 5.3,25.4 c 2,0 3.8,-1.6 3.8,-3.8 0,-2.2 -1.6,-3.8 -3.8,-3.8 h 0.6 c 2,0 3.8,1.6 3.8,3.8 0,2.2 -1.6,3.8 -3.8,3.8 z"
   id="path2006" />
	<path
   style="opacity:0.1;fill:#1a1a1a;enable-background:new"
   inkscape:connector-curvature="0"
   class="st12"
   d="m 6.7,17.8 c -2,0 -3.8,1.6 -3.8,3.8 0,2.2 1.8,3.8 3.8,3.8 H 6.1 c -2,0 -3.8,-1.6 -3.8,-3.8 0,-2.2 1.6,-3.8 3.8,-3.8 0,0 0.6,0 0.6,0 z"
   id="path2008" />
	<rect
   style="fill:#cccccc"
   x="4.5"
   y="20"
   class="st13"
   width="3.2"
   height="3.2"
   id="rect2010" />
	<rect
   style="opacity:0.2;fill:#ffffff;enable-background:new"
   x="7.3000002"
   y="20"
   class="st11"
   width="0.2"
   height="3.2"
   id="rect2012" />
	<rect
   style="opacity:0.1;enable-background:new"
   x="4.5"
   y="20"
   class="st14"
   width="0.2"
   height="3.2"
   id="rect2014" />
</g><g
   id="g2031"
   transform="rotate(-90,88.683712,23.883712)">
	<circle
   style="fill:none;stroke:#be9349;stroke-width:2.5;stroke-miterlimit:10"
   id="connector30pin_1_"
   class="st9"
   cx="6.0999999"
   cy="36"
   r="3.8" />
	<circle
   style="fill:#e6e6e6"
   class="st10"
   cx="6.0999999"
   cy="36"
   r="3.8"
   id="circle2019" />
	<path
   style="opacity:0.2;fill:#ffffff;enable-background:new"
   inkscape:connector-curvature="0"
   class="st11"
   d="m 5.3,39.8 c 2,0 3.8,-1.6 3.8,-3.8 0,-2.2 -1.6,-3.8 -3.8,-3.8 h 0.6 c 2,0 3.8,1.6 3.8,3.8 0,2.2 -1.6,3.8 -3.8,3.8 z"
   id="path2021" />
	<path
   style="opacity:0.1;fill:#1a1a1a;enable-background:new"
   inkscape:connector-curvature="0"
   class="st12"
   d="m 6.7,32.2 c -2,0 -3.8,1.6 -3.8,3.8 0,2.2 1.8,3.8 3.8,3.8 H 6.1 c -2,0 -3.8,-1.6 -3.8,-3.8 0,-2.2 1.6,-3.8 3.8,-3.8 0,0 0.6,0 0.6,0 z"
   id="path2023" />
	<rect
   style="fill:#cccccc"
   x="4.5"
   y="34.400002"
   class="st13"
   width="3.2"
   height="3.2"
   id="rect2025" />
	<rect
   style="opacity:0.2;fill:#ffffff;enable-background:new"
   x="7.3000002"
   y="34.400002"
   class="st11"
   width="0.2"
   height="3.2"
   id="rect2027" />
	<rect
   style="opacity:0.1;enable-background:new"
   x="4.5"
   y="34.400002"
   class="st14"
   width="0.2"
   height="3.2"
   id="rect2029" />
</g><g
   id="g2046"
   transform="rotate(-90,88.683712,23.883712)">
	<circle
   style="fill:none;stroke:#be9349;stroke-width:2.5;stroke-miterlimit:10"
   id="connector30pin_6_"
   class="st9"
   cx="6.0999999"
   cy="50.400002"
   r="3.8" />
	<circle
   style="fill:#e6e6e6"
   class="st10"
   cx="6.0999999"
   cy="50.400002"
   r="3.8"
   id="circle2034" />
	<path
   style="opacity:0.2;fill:#ffffff;enable-background:new"
   inkscape:connector-curvature="0"
   class="st11"
   d="m 5.3,54.2 c 2,0 3.8,-1.6 3.8,-3.8 0,-2.2 -1.6,-3.8 -3.8,-3.8 h 0.6 c 2,0 3.8,1.6 3.8,3.8 0,2.2 -1.6,3.8 -3.8,3.8 z"
   id="path2036" />
	<path
   style="opacity:0.1;fill:#1a1a1a;enable-background:new"
   inkscape:connector-curvature="0"
   class="st12"
   d="m 6.7,46.6 c -2,0 -3.8,1.6 -3.8,3.8 0,2.2 1.8,3.8 3.8,3.8 H 6.1 c -2,0 -3.8,-1.6 -3.8,-3.8 0,-2.2 1.6,-3.8 3.8,-3.8 0,0 0.6,0 0.6,0 z"
   id="path2038" />
	<rect
   style="fill:#cccccc"
   x="4.5"
   y="48.799999"
   class="st13"
   width="3.2"
   height="3.2"
   id="rect2040" />
	<rect
   style="opacity:0.2;fill:#ffffff;enable-background:new"
   x="7.3000002"
   y="48.799999"
   class="st11"
   width="0.2"
   height="3.2"
   id="rect2042" />
	<rect
   style="opacity:0.1;enable-background:new"
   x="4.5"
   y="48.799999"
   class="st14"
   width="0.2"
   height="3.2"
   id="rect2044" />
</g><g
   id="g2061"
   transform="rotate(-90,88.683712,23.883712)">
	<circle
   style="fill:none;stroke:#be9349;stroke-width:2.5;stroke-miterlimit:10"
   id="connector30pin_14_"
   class="st9"
   cx="6.0999999"
   cy="64.800003"
   r="3.8" />
	<circle
   style="fill:#e6e6e6"
   class="st10"
   cx="6.0999999"
   cy="64.800003"
   r="3.8"
   id="circle2049" />
	<path
   style="opacity:0.2;fill:#ffffff;enable-background:new"
   inkscape:connector-curvature="0"
   class="st11"
   d="m 5.3,68.6 c 2,0 3.8,-1.6 3.8,-3.8 C 9.1,62.6 7.5,61 5.3,61 h 0.6 c 2,0 3.8,1.6 3.8,3.8 0,2.2 -1.6,3.8 -3.8,3.8 z"
   id="path2051" />
	<path
   style="opacity:0.1;fill:#1a1a1a;enable-background:new"
   inkscape:connector-curvature="0"
   class="st12"
   d="m 6.7,61 c -2,0 -3.8,1.6 -3.8,3.8 0,2.2 1.8,3.8 3.8,3.8 H 6.1 c -2,0 -3.8,-1.6 -3.8,-3.8 0,-2.2 1.6,-3.8 3.8,-3.8 0,0 0.6,0 0.6,0 z"
   id="path2053" />
	<rect
   style="fill:#cccccc"
   x="4.5"
   y="63.200001"
   class="st13"
   width="3.2"
   height="3.2"
   id="rect2055" />
	<rect
   style="opacity:0.2;fill:#ffffff;enable-background:new"
   x="7.3000002"
   y="63.200001"
   class="st11"
   width="0.2"
   height="3.2"
   id="rect2057" />
	<rect
   style="opacity:0.1;enable-background:new"
   x="4.5"
   y="63.200001"
   class="st14"
   width="0.2"
   height="3.2"
   id="rect2059" />
</g><g
   id="g2076"
   transform="rotate(-90,88.683712,23.883712)">
	<circle
   style="fill:none;stroke:#be9349;stroke-width:2.5;stroke-miterlimit:10"
   id="connector30pin_11_"
   class="st9"
   cx="6.0999999"
   cy="79.199997"
   r="3.8" />
	<circle
   style="fill:#e6e6e6"
   class="st10"
   cx="6.0999999"
   cy="79.199997"
   r="3.8"
   id="circle2064" />
	<path
   style="opacity:0.2;fill:#ffffff;enable-background:new"
   inkscape:connector-curvature="0"
   class="st11"
   d="m 5.3,83 c 2,0 3.8,-1.6 3.8,-3.8 0,-2.2 -1.6,-3.8 -3.8,-3.8 h 0.6 c 2,0 3.8,1.6 3.8,3.8 0,2.2 -1.6,3.8 -3.8,3.8 z"
   id="path2066" />
	<path
   style="opacity:0.1;fill:#1a1a1a;enable-background:new"
   inkscape:connector-curvature="0"
   class="st12"
   d="m 6.7,75.4 c -2,0 -3.8,1.6 -3.8,3.8 0,2.2 1.8,3.8 3.8,3.8 H 6.1 c -2,0 -3.8,-1.6 -3.8,-3.8 0,-2.2 1.6,-3.8 3.8,-3.8 0,0 0.6,0 0.6,0 z"
   id="path2068" />
	<rect
   style="fill:#cccccc"
   x="4.5"
   y="77.599998"
   class="st13"
   width="3.2"
   height="3.2"
   id="rect2070" />
	<rect
   style="opacity:0.2;fill:#ffffff;enable-background:new"
   x="7.3000002"
   y="77.599998"
   class="st11"
   width="0.2"
   height="3.2"
   id="rect2072" />
	<rect
   style="opacity:0.1;enable-background:new"
   x="4.5"
   y="77.599998"
   class="st14"
   width="0.2"
   height="3.2"
   id="rect2074" />
</g><g
   id="g2091"
   transform="rotate(-90,88.683712,23.883712)">
	<circle
   style="fill:none;stroke:#be9349;stroke-width:2.5;stroke-miterlimit:10"
   id="connector30pin_16_"
   class="st9"
   cx="6.0999999"
   cy="93.599998"
   r="3.8" />
	<circle
   style="fill:#e6e6e6"
   class="st10"
   cx="6.0999999"
   cy="93.599998"
   r="3.8"
   id="circle2079" />
	<path
   style="opacity:0.2;fill:#ffffff;enable-background:new"
   inkscape:connector-curvature="0"
   class="st11"
   d="m 5.3,97.4 c 2,0 3.8,-1.6 3.8,-3.8 0,-2.2 -1.6,-3.8 -3.8,-3.8 h 0.6 c 2,0 3.8,1.6 3.8,3.8 0,2.2 -1.6,3.8 -3.8,3.8 z"
   id="path2081" />
	<path
   style="opacity:0.1;fill:#1a1a1a;enable-background:new"
   inkscape:connector-curvature="0"
   class="st12"
   d="m 6.7,89.8 c -2,0 -3.8,1.6 -3.8,3.8 0,2.2 1.8,3.8 3.8,3.8 H 6.1 c -2,0 -3.8,-1.6 -3.8,-3.8 0,-2.2 1.6,-3.8 3.8,-3.8 0,0 0.6,0 0.6,0 z"
   id="path2083" />
	<rect
   style="fill:#cccccc"
   x="4.5"
   y="92"
   class="st13"
   width="3.2"
   height="3.2"
   id="rect2085" />
	<rect
   style="opacity:0.2;fill:#ffffff;enable-background:new"
   x="7.3000002"
   y="92"
   class="st11"
   width="0.2"
   height="3.2"
   id="rect2087" />
	<rect
   style="opacity:0.1;enable-background:new"
   x="4.5"
   y="92"
   class="st14"
   width="0.2"
   height="3.2"
   id="rect2089" />
</g><g
   id="g2106"
   transform="rotate(-90,88.683712,23.883712)">
	<circle
   style="fill:none;stroke:#be9349;stroke-width:2.5;stroke-miterlimit:10"
   id="connector30pin_15_"
   class="st9"
   cx="6.0999999"
   cy="108"
   r="3.8" />
	<circle
   style="fill:#e6e6e6"
   class="st10"
   cx="6.0999999"
   cy="108"
   r="3.8"
   id="circle2094" />
	<path
   style="opacity:0.2;fill:#ffffff;enable-background:new"
   inkscape:connector-curvature="0"
   class="st11"
   d="m 5.3,111.8 c 2,0 3.8,-1.6 3.8,-3.8 0,-2.2 -1.6,-3.8 -3.8,-3.8 h 0.6 c 2,0 3.8,1.6 3.8,3.8 0,2.2 -1.6,3.8 -3.8,3.8 z"
   id="path2096" />
	<path
   style="opacity:0.1;fill:#1a1a1a;enable-background:new"
   inkscape:connector-curvature="0"
   class="st12"
   d="m 6.7,104.2 c -2,0 -3.8,1.6 -3.8,3.8 0,2.2 1.8,3.8 3.8,3.8 H 6.1 c -2,0 -3.8,-1.6 -3.8,-3.8 0,-2.2 1.6,-3.8 3.8,-3.8 0,0 0.6,0 0.6,0 z"
   id="path2098" />
	<rect
   style="fill:#cccccc"
   x="4.5"
   y="106.4"
   class="st13"
   width="3.2"
   height="3.2"
   id="rect2100" />
	<rect
   style="opacity:0.2;fill:#ffffff;enable-background:new"
   x="7.3000002"
   y="106.4"
   class="st11"
   width="0.2"
   height="3.2"
   id="rect2102" />
	<rect
   style="opacity:0.1;enable-background:new"
   x="4.5"
   y="106.4"
   class="st14"
   width="0.2"
   height="3.2"
   id="rect2104" />
</g><g
   id="g2121"
   transform="rotate(-90,88.683712,23.883712)">
	<circle
   style="fill:none;stroke:#be9349;stroke-width:2.5;stroke-miterlimit:10"
   id="connector30pin_2_"
   class="st9"
   cx="106.9"
   cy="7.1999998"
   r="3.8" />
	<circle
   style="fill:#e6e6e6"
   class="st10"
   cx="106.9"
   cy="7.1999998"
   r="3.8"
   id="circle2109" />
	<path
   style="opacity:0.2;fill:#ffffff;enable-background:new"
   inkscape:connector-curvature="0"
   class="st11"
   d="m 106.1,11 c 2,0 3.8,-1.6 3.8,-3.8 0,-2.2 -1.6,-3.8 -3.8,-3.8 h 0.6 c 2,0 3.8,1.6 3.8,3.8 0,2.2 -1.6,3.8 -3.8,3.8 z"
   id="path2111" />
	<path
   style="opacity:0.1;fill:#1a1a1a;enable-background:new"
   inkscape:connector-curvature="0"
   class="st12"
   d="m 107.5,3.4 c -2,0 -3.8,1.6 -3.8,3.8 0,2.2 1.8,3.8 3.8,3.8 h -0.6 c -2,0 -3.8,-1.6 -3.8,-3.8 0,-2.2 1.6,-3.8 3.8,-3.8 0,0 0.6,0 0.6,0 z"
   id="path2113" />
	<rect
   style="fill:#cccccc"
   x="105.3"
   y="5.5999999"
   class="st13"
   width="3.2"
   height="3.2"
   id="rect2115" />
	<rect
   style="opacity:0.2;fill:#ffffff;enable-background:new"
   x="108.1"
   y="5.5999999"
   class="st11"
   width="0.2"
   height="3.2"
   id="rect2117" />
	<rect
   style="opacity:0.1;enable-background:new"
   x="105.3"
   y="5.5999999"
   class="st14"
   width="0.2"
   height="3.2"
   id="rect2119" />
</g><g
   id="g2136"
   transform="rotate(-90,88.683712,23.883712)">
	<circle
   style="fill:none;stroke:#be9349;stroke-width:2.5;stroke-miterlimit:10"
   id="connector30pin_3_"
   class="st9"
   cx="106.9"
   cy="21.6"
   r="3.8" />
	<circle
   style="fill:#e6e6e6"
   class="st10"
   cx="106.9"
   cy="21.6"
   r="3.8"
   id="circle2124" />
	<path
   style="opacity:0.2;fill:#ffffff;enable-background:new"
   inkscape:connector-curvature="0"
   class="st11"
   d="m 106.1,25.4 c 2,0 3.8,-1.6 3.8,-3.8 0,-2.2 -1.6,-3.8 -3.8,-3.8 h 0.6 c 2,0 3.8,1.6 3.8,3.8 0,2.2 -1.6,3.8 -3.8,3.8 z"
   id="path2126" />
	<path
   style="opacity:0.1;fill:#1a1a1a;enable-background:new"
   inkscape:connector-curvature="0"
   class="st12"
   d="m 107.5,17.8 c -2,0 -3.8,1.6 -3.8,3.8 0,2.2 1.8,3.8 3.8,3.8 h -0.6 c -2,0 -3.8,-1.6 -3.8,-3.8 0,-2.2 1.6,-3.8 3.8,-3.8 0,0 0.6,0 0.6,0 z"
   id="path2128" />
	<rect
   style="fill:#cccccc"
   x="105.3"
   y="20"
   class="st13"
   width="3.2"
   height="3.2"
   id="rect2130" />
	<rect
   style="opacity:0.2;fill:#ffffff;enable-background:new"
   x="108.1"
   y="20"
   class="st11"
   width="0.2"
   height="3.2"
   id="rect2132" />
	<rect
   style="opacity:0.1;enable-background:new"
   x="105.3"
   y="20"
   class="st14"
   width="0.2"
   height="3.2"
   id="rect2134" />
</g><g
   id="g2151"
   transform="rotate(-90,88.683712,23.883712)">
	<circle
   style="fill:none;stroke:#be9349;stroke-width:2.5;stroke-miterlimit:10"
   id="connector30pin_12_"
   class="st9"
   cx="106.9"
   cy="36"
   r="3.8" />
	<circle
   style="fill:#e6e6e6"
   class="st10"
   cx="106.9"
   cy="36"
   r="3.8"
   id="circle2139" />
	<path
   style="opacity:0.2;fill:#ffffff;enable-background:new"
   inkscape:connector-curvature="0"
   class="st11"
   d="m 106.1,39.8 c 2,0 3.8,-1.6 3.8,-3.8 0,-2.2 -1.6,-3.8 -3.8,-3.8 h 0.6 c 2,0 3.8,1.6 3.8,3.8 0,2.2 -1.6,3.8 -3.8,3.8 z"
   id="path2141" />
	<path
   style="opacity:0.1;fill:#1a1a1a;enable-background:new"
   inkscape:connector-curvature="0"
   class="st12"
   d="m 107.5,32.2 c -2,0 -3.8,1.6 -3.8,3.8 0,2.2 1.8,3.8 3.8,3.8 h -0.6 c -2,0 -3.8,-1.6 -3.8,-3.8 0,-2.2 1.6,-3.8 3.8,-3.8 0,0 0.6,0 0.6,0 z"
   id="path2143" />
	<rect
   style="fill:#cccccc"
   x="105.3"
   y="34.400002"
   class="st13"
   width="3.2"
   height="3.2"
   id="rect2145" />
	<rect
   style="opacity:0.2;fill:#ffffff;enable-background:new"
   x="108.1"
   y="34.400002"
   class="st11"
   width="0.2"
   height="3.2"
   id="rect2147" />
	<rect
   style="opacity:0.1;enable-background:new"
   x="105.3"
   y="34.400002"
   class="st14"
   width="0.2"
   height="3.2"
   id="rect2149" />
</g><g
   id="g2166"
   transform="rotate(-90,88.683712,23.883712)">
	<circle
   style="fill:none;stroke:#be9349;stroke-width:2.5;stroke-miterlimit:10"
   id="connector30pin_5_"
   class="st9"
   cx="106.9"
   cy="50.400002"
   r="3.8" />
	<circle
   style="fill:#e6e6e6"
   class="st10"
   cx="106.9"
   cy="50.400002"
   r="3.8"
   id="circle2154" />
	<path
   style="opacity:0.2;fill:#ffffff;enable-background:new"
   inkscape:connector-curvature="0"
   class="st11"
   d="m 106.1,54.2 c 2,0 3.8,-1.6 3.8,-3.8 0,-2.2 -1.6,-3.8 -3.8,-3.8 h 0.6 c 2,0 3.8,1.6 3.8,3.8 0,2.2 -1.6,3.8 -3.8,3.8 z"
   id="path2156" />
	<path
   style="opacity:0.1;fill:#1a1a1a;enable-background:new"
   inkscape:connector-curvature="0"
   class="st12"
   d="m 107.5,46.6 c -2,0 -3.8,1.6 -3.8,3.8 0,2.2 1.8,3.8 3.8,3.8 h -0.6 c -2,0 -3.8,-1.6 -3.8,-3.8 0,-2.2 1.6,-3.8 3.8,-3.8 0,0 0.6,0 0.6,0 z"
   id="path2158" />
	<rect
   style="fill:#cccccc"
   x="105.3"
   y="48.799999"
   class="st13"
   width="3.2"
   height="3.2"
   id="rect2160" />
	<rect
   style="opacity:0.2;fill:#ffffff;enable-background:new"
   x="108.1"
   y="48.799999"
   class="st11"
   width="0.2"
   height="3.2"
   id="rect2162" />
	<rect
   style="opacity:0.1;enable-background:new"
   x="105.3"
   y="48.799999"
   class="st14"
   width="0.2"
   height="3.2"
   id="rect2164" />
</g><g
   id="g2181"
   transform="rotate(-90,88.683712,23.883712)">
	<circle
   style="fill:none;stroke:#be9349;stroke-width:2.5;stroke-miterlimit:10"
   id="connector30pin_9_"
   class="st9"
   cx="106.9"
   cy="64.800003"
   r="3.8" />
	<circle
   style="fill:#e6e6e6"
   class="st10"
   cx="106.9"
   cy="64.800003"
   r="3.8"
   id="circle2169" />
	<path
   style="opacity:0.2;fill:#ffffff;enable-background:new"
   inkscape:connector-curvature="0"
   class="st11"
   d="m 106.1,68.6 c 2,0 3.8,-1.6 3.8,-3.8 0,-2.2 -1.6,-3.8 -3.8,-3.8 h 0.6 c 2,0 3.8,1.6 3.8,3.8 0,2.2 -1.6,3.8 -3.8,3.8 z"
   id="path2171" />
	<path
   style="opacity:0.1;fill:#1a1a1a;enable-background:new"
   inkscape:connector-curvature="0"
   class="st12"
   d="m 107.5,61 c -2,0 -3.8,1.6 -3.8,3.8 0,2.2 1.8,3.8 3.8,3.8 h -0.6 c -2,0 -3.8,-1.6 -3.8,-3.8 0,-2.2 1.6,-3.8 3.8,-3.8 0,0 0.6,0 0.6,0 z"
   id="path2173" />
	<rect
   style="fill:#cccccc"
   x="105.3"
   y="63.200001"
   class="st13"
   width="3.2"
   height="3.2"
   id="rect2175" />
	<rect
   style="opacity:0.2;fill:#ffffff;enable-background:new"
   x="108.1"
   y="63.200001"
   class="st11"
   width="0.2"
   height="3.2"
   id="rect2177" />
	<rect
   style="opacity:0.1;enable-background:new"
   x="105.3"
   y="63.200001"
   class="st14"
   width="0.2"
   height="3.2"
   id="rect2179" />
</g><g
   id="g2196"
   transform="rotate(-90,88.683712,23.883712)">
	<circle
   style="fill:none;stroke:#be9349;stroke-width:2.5;stroke-miterlimit:10"
   id="connector30pin_8_"
   class="st9"
   cx="106.9"
   cy="79.199997"
   r="3.8" />
	<circle
   style="fill:#e6e6e6"
   class="st10"
   cx="106.9"
   cy="79.199997"
   r="3.8"
   id="circle2184" />
	<path
   style="opacity:0.2;fill:#ffffff;enable-background:new"
   inkscape:connector-curvature="0"
   class="st11"
   d="m 106.1,83 c 2,0 3.8,-1.6 3.8,-3.8 0,-2.2 -1.6,-3.8 -3.8,-3.8 h 0.6 c 2,0 3.8,1.6 3.8,3.8 0,2.2 -1.6,3.8 -3.8,3.8 z"
   id="path2186" />
	<path
   style="opacity:0.1;fill:#1a1a1a;enable-background:new"
   inkscape:connector-curvature="0"
   class="st12"
   d="m 107.5,75.4 c -2,0 -3.8,1.6 -3.8,3.8 0,2.2 1.8,3.8 3.8,3.8 h -0.6 c -2,0 -3.8,-1.6 -3.8,-3.8 0,-2.2 1.6,-3.8 3.8,-3.8 0,0 0.6,0 0.6,0 z"
   id="path2188" />
	<rect
   style="fill:#cccccc"
   x="105.3"
   y="77.599998"
   class="st13"
   width="3.2"
   height="3.2"
   id="rect2190" />
	<rect
   style="opacity:0.2;fill:#ffffff;enable-background:new"
   x="108.1"
   y="77.599998"
   class="st11"
   width="0.2"
   height="3.2"
   id="rect2192" />
	<rect
   style="opacity:0.1;enable-background:new"
   x="105.3"
   y="77.599998"
   class="st14"
   width="0.2"
   height="3.2"
   id="rect2194" />
</g><g
   id="g2211"
   transform="rotate(-90,88.683712,23.883712)">
	<circle
   style="fill:none;stroke:#be9349;stroke-width:2.5;stroke-miterlimit:10"
   id="connector30pin_10_"
   class="st9"
   cx="106.9"
   cy="93.599998"
   r="3.8" />
	<circle
   style="fill:#e6e6e6"
   class="st10"
   cx="106.9"
   cy="93.599998"
   r="3.8"
   id="circle2199" />
	<path
   style="opacity:0.2;fill:#ffffff;enable-background:new"
   inkscape:connector-curvature="0"
   class="st11"
   d="m 106.1,97.4 c 2,0 3.8,-1.6 3.8,-3.8 0,-2.2 -1.6,-3.8 -3.8,-3.8 h 0.6 c 2,0 3.8,1.6 3.8,3.8 0,2.2 -1.6,3.8 -3.8,3.8 z"
   id="path2201" />
	<path
   style="opacity:0.1;fill:#1a1a1a;enable-background:new"
   inkscape:connector-curvature="0"
   class="st12"
   d="m 107.5,89.8 c -2,0 -3.8,1.6 -3.8,3.8 0,2.2 1.8,3.8 3.8,3.8 h -0.6 c -2,0 -3.8,-1.6 -3.8,-3.8 0,-2.2 1.6,-3.8 3.8,-3.8 0,0 0.6,0 0.6,0 z"
   id="path2203" />
	<rect
   style="fill:#cccccc"
   x="105.3"
   y="92"
   class="st13"
   width="3.2"
   height="3.2"
   id="rect2205" />
	<rect
   style="opacity:0.2;fill:#ffffff;enable-background:new"
   x="108.1"
   y="92"
   class="st11"
   width="0.2"
   height="3.2"
   id="rect2207" />
	<rect
   style="opacity:0.1;enable-background:new"
   x="105.3"
   y="92"
   class="st14"
   width="0.2"
   height="3.2"
   id="rect2209" />
</g><g
   id="g2226"
   transform="rotate(-90,88.683712,23.883712)">
	<circle
   style="fill:none;stroke:#be9349;stroke-width:2.5;stroke-miterlimit:10"
   id="connector30pin_17_"
   class="st9"
   cx="106.9"
   cy="108"
   r="3.8" />
	<circle
   style="fill:#e6e6e6"
   class="st10"
   cx="106.9"
   cy="108"
   r="3.8"
   id="circle2214" />
	<path
   style="opacity:0.2;fill:#ffffff;enable-background:new"
   inkscape:connector-curvature="0"
   class="st11"
   d="m 106.1,111.8 c 2,0 3.8,-1.6 3.8,-3.8 0,-2.2 -1.6,-3.8 -3.8,-3.8 h 0.6 c 2,0 3.8,1.6 3.8,3.8 0,2.2 -1.6,3.8 -3.8,3.8 z"
   id="path2216" />
	<path
   style="opacity:0.1;fill:#1a1a1a;enable-background:new"
   inkscape:connector-curvature="0"
   class="st12"
   d="m 107.5,104.2 c -2,0 -3.8,1.6 -3.8,3.8 0,2.2 1.8,3.8 3.8,3.8 h -0.6 c -2,0 -3.8,-1.6 -3.8,-3.8 0,-2.2 1.6,-3.8 3.8,-3.8 0,0 0.6,0 0.6,0 z"
   id="path2218" />
	<rect
   style="fill:#cccccc"
   x="105.3"
   y="106.4"
   class="st13"
   width="3.2"
   height="3.2"
   id="rect2220" />
	<rect
   style="opacity:0.2;fill:#ffffff;enable-background:new"
   x="108.1"
   y="106.4"
   class="st11"
   width="0.2"
   height="3.2"
   id="rect2222" />
	<rect
   style="opacity:0.1;enable-background:new"
   x="105.3"
   y="106.4"
   class="st14"
   width="0.2"
   height="3.2"
   id="rect2224" />
</g>
<g
   transform="matrix(1,0,0,-1,22.475894,169.24547)"
   id="breadboard_1_"><rect
     style="fill:#868584"
     id="connector0pin_1_"
     x="59.095001"
     y="46.417"
     transform="matrix(0.9872,-0.1593,0.1593,0.9872,-7.0726,10.4442)"
     width="5.0009999"
     height="5.822" /><rect
     style="fill:#868584"
     id="connector1pin_1_"
     x="-20.709"
     y="59.291"
     transform="matrix(0.9871,-0.1601,0.1601,0.9871,-10.1928,-2.1126)"
     width="5.0019999"
     height="5.8210001" /><rect
     style="fill:#868584"
     x="-22.561001"
     y="52.905998"
     transform="matrix(0.9872,-0.1593,0.1593,0.9872,-8.6316,4.0644)"
     width="87.185997"
     height="5.9130001"
     id="rect3160" /><path
     style="fill:#d9b578"
     inkscape:connector-curvature="0"
     id="Body_1_"
     d="m 32.097,44.796 c -0.914,0.607 -2.553,1.25 -3.637,1.428 L 12.355,48.82 c -1.082,0.174 -2.844,0.082 -3.9,-0.209 L 8.236,48.55 C 7.175,48.259 5.421,48.165 4.331,48.341 l -5.923,0.957 c -1.976,0.32 -3.632,2.613 -3.313,4.59 l 1.912,11.848 c 0.317,1.971 2.611,3.627 4.586,3.309 l 5.923,-0.957 c 1.09,-0.174 2.725,-0.813 3.641,-1.426 l 0.191,-0.127 c 0.918,-0.611 2.555,-1.252 3.639,-1.426 l 16.104,-2.598 c 1.086,-0.176 2.836,-0.084 3.9,0.209 l 0.219,0.059 c 1.061,0.289 2.818,0.383 3.904,0.209 l 5.922,-0.957 c 1.977,-0.318 3.633,-2.613 3.313,-4.586 L 46.435,45.597 C 46.119,43.62 43.824,41.97 41.849,42.284 l -5.922,0.959 c -1.086,0.172 -2.723,0.813 -3.639,1.422 z" /><path
     style="fill:#893e19"
     inkscape:connector-curvature="0"
     d="m 39.88,42.604 3.188,19.744 c 0,0 -4.094,0.631 -4.529,0.699 -0.438,0.07 -1.438,0.006 -1.438,0.006 L 34,43.813 c 0,0 0.895,-0.393 1.57,-0.5 0.674,-0.107 4.306,-0.705 4.31,-0.709 z"
     id="path3163" /><path
     inkscape:connector-curvature="0"
     d="m 30.25,45.698 2.699,16.732 c 0,0 -1.221,-0.023 -1.84,0.074 -0.621,0.104 -4.121,0.664 -4.121,0.664 L 24.359,46.877 c 0,0 3.254,-0.525 4.078,-0.658 0.82,-0.13 1.809,-0.517 1.813,-0.521 z"
     id="path3165" /><rect
     style="fill:#c3111d"
     x="15.757"
     y="47.895"
     transform="matrix(0.9873,-0.1591,0.1591,0.9873,-8.6955,3.7002)"
     width="6.0019999"
     height="16.509001"
     id="rect3167" /><rect
     style="opacity:0.5;fill:#f5e731"
     x="2.3080001"
     y="48.615002"
     transform="matrix(0.9872,-0.1593,0.1593,0.9872,-9.2939,1.2999)"
     enable-background="new    "
     width="2.3050001"
     height="19.999001"
     id="rect3169" /><path
     style="opacity:0.4;fill:#ffffff"
     inkscape:connector-curvature="0"
     id="Reflex_1_"
     enable-background="new    "
     d="m 44.462,45.917 c -0.16,-0.984 -1.303,-1.813 -2.291,-1.652 -1.973,0.316 -3.951,0.637 -5.922,0.955 -1.977,0.314 -4.621,2.771 -6.594,3.09 -1.977,0.314 -15.801,2.547 -17.773,2.867 -1.975,0.32 -5.25,-1.18 -7.223,-0.859 -1.978,0.314 -1.978,0.314 -4.941,0.795 -4.141,0.668 -3.313,4.586 -3.79,1.627 -0.16,-0.988 1.656,-2.293 2.644,-2.455 0.656,-0.105 3.046,-0.49 4.591,-0.74 0.712,-0.115 1.25,-0.201 1.334,-0.213 1.972,-0.318 5.253,1.178 7.224,0.861 1.975,-0.32 16.787,-2.707 17.775,-2.869 0.986,-0.16 4.617,-2.773 6.59,-3.09 1.975,-0.32 3.949,-0.639 5.926,-0.957 1.975,-0.318 3.277,1.498 3.438,2.48 0.16,0.988 0.795,4.939 0.795,4.939 -1.144,-0.83 -1.622,-3.791 -1.783,-4.779 z" /><path
     style="opacity:0.4"
     inkscape:connector-curvature="0"
     id="Shaddow_1_"
     enable-background="new    "
     d="m -1.171,64.419 c 0.479,2.963 3.441,2.484 4.428,2.324 1.978,-0.318 1.978,-0.318 3.948,-0.635 1.975,-0.318 4.619,-2.771 6.59,-3.088 1.975,-0.318 15.799,-2.549 17.775,-2.869 1.973,-0.318 5.254,1.18 7.225,0.857 1.979,-0.314 1.979,-0.314 4.939,-0.793 4.135,-0.668 3.979,-6.719 4.457,-3.76 0.033,0.197 0.131,0.814 0.16,0.988 0.387,2.408 -1.98,4.371 -3.314,4.586 -0.959,0.156 -6.383,1.033 -6.646,1.074 -1.973,0.316 -4.656,-1.023 -7.449,-0.572 -1.977,0.32 -15.355,2.443 -16.344,2.604 -1.82,0.291 -4.59,2.549 -7.074,2.949 -1.974,0.319 -3.952,0.639 -5.924,0.958 -1.976,0.318 -4.27,-1.336 -4.586,-3.311 -0.16,-0.988 -0.796,-4.938 -0.796,-4.938 0.985,-0.156 2.452,2.643 2.611,3.626 z" /></g></svg>