<?xml version="1.0" encoding="utf-8"?>
<!-- Generator: Adobe Illustrator 24.0.1, SVG Export Plug-In . SVG Version: 6.00 Build 0)  -->
<svg version="1.1" id="Layer_1" xmlns="http://www.w3.org/2000/svg" xmlns:xlink="http://www.w3.org/1999/xlink" x="0px" y="0px"
	 viewBox="0 0 68 124.7" style="enable-background:new 0 0 68 124.7;" xml:space="preserve">
<style type="text/css">
	.st0{fill:#231F20;}
	.st1{fill:#0A783D;}
	.st2{fill:#E2E2E2;}
	.st3{fill:#ECEBF0;}
	.st4{fill:#FFFFFF;}
	.st5{fill:#7C6B2B;}
	.st6{font-family:'MyriadPro-Bold';}
	.st7{font-size:6px;}
	.st8{fill:none;stroke:#FFFFFF;stroke-width:0.5;stroke-miterlimit:10;}
	.st9{fill:#134A85;}
	.st10{fill:#BD9249;}
	.st11{fill:#E5E5EC;}
	.st12{fill:none;stroke:#FEC36C;stroke-miterlimit:10;}
	.st13{fill:none;stroke:#FFFFFF;stroke-width:0.1288;stroke-miterlimit:10;}
	.st14{fill:#FEC36C;}
	.st15{fill:#29292B;}
	.st16{fill:#404141;}
</style>
<path class="st0" d="M0.1,75.6V121c0,2,1.7,3.7,4,3.7H64c2.3,0,4-1.6,4-3.7V75.6H0.1z M39,89.4c-0.3,2.1-2,3.8-4.1,4.1
	c-3.4,0.5-6.2-2.3-5.7-5.7c0.3-2,2-3.7,4.1-4.1C36.7,83.2,39.5,86,39,89.4z"/>
<path class="st0" d="M68,47.7v-44c0-2-1.7-3.7-4-3.7H4C1.8,0,0,1.6,0,3.7v44H68z"/>
<rect x="0.1" y="50.4" class="st0" width="67.9" height="21.2"/>
<path class="st1" d="M62.4,119V5.6H5.7V119H62.4z M33.3,83.7c3.4-0.5,6.2,2.3,5.7,5.7c-0.3,2.1-2,3.8-4.1,4.1
	c-3.4,0.5-6.2-2.3-5.7-5.7C29.5,85.8,31.2,84.1,33.3,83.7z"/>
<g>
	<rect x="40.8" y="99.3" class="st2" width="1.3" height="4.7"/>
	<rect x="46.6" y="99.3" class="st2" width="1.3" height="4.7"/>
	<rect x="52.3" y="99.3" class="st2" width="1.3" height="4.7"/>
	<rect x="36" y="101.8" class="st3" width="22.4" height="15.9"/>
	<rect x="36" y="96" class="st4" width="2.8" height="8"/>
	<rect x="55.6" y="96" class="st4" width="2.8" height="8"/>
	<rect x="36" y="104" class="st4" width="8.5" height="14.4"/>
	<rect x="38.6" y="107" class="st3" width="3.6" height="5.8"/>
	<rect x="49.9" y="104" class="st4" width="8.5" height="14.4"/>
	<rect x="52.4" y="107" class="st3" width="3.6" height="5.8"/>
	<rect x="46.6" y="104" class="st5" width="1.3" height="8.8"/>
	<rect x="36" y="100.7" class="st4" width="22.4" height="4.5"/>
</g>
<g>
	<rect x="14.7" y="99.5" class="st2" width="1.3" height="4.7"/>
	<rect x="20.5" y="99.5" class="st2" width="1.3" height="4.7"/>
	<rect x="26.2" y="99.5" class="st2" width="1.3" height="4.7"/>
	<rect x="9.9" y="102" class="st3" width="22.4" height="15.9"/>
	<rect x="9.9" y="96.2" class="st4" width="2.8" height="8"/>
	<rect x="29.5" y="96.2" class="st4" width="2.8" height="8"/>
	<rect x="9.9" y="104.2" class="st4" width="8.5" height="14.4"/>
	<rect x="12.5" y="107.2" class="st3" width="3.6" height="5.8"/>
	<rect x="23.8" y="104.2" class="st4" width="8.5" height="14.4"/>
	<rect x="26.3" y="107.2" class="st3" width="3.6" height="5.8"/>
	<rect x="20.5" y="104.2" class="st5" width="1.3" height="8.8"/>
	<rect x="9.9" y="100.9" class="st4" width="22.4" height="4.5"/>
</g>
<g>
	<rect x="24.7" y="20.5" class="st2" width="1.3" height="4.7"/>
	<rect x="30.4" y="20.5" class="st2" width="1.3" height="4.7"/>
	<rect x="36.2" y="20.5" class="st2" width="1.3" height="4.7"/>
	<rect x="41.5" y="20.5" class="st2" width="1.3" height="4.7"/>
	<rect x="20" y="6.3" class="st3" width="28.1" height="15.9"/>
	<rect x="44.6" y="20" class="st4" width="3.5" height="8"/>
	<rect x="20" y="20" class="st4" width="3.5" height="8"/>
	<g>
		<rect x="39.6" y="5.7" class="st4" width="8.5" height="14.4"/>
		<rect x="42" y="11.2" class="st3" width="3.6" height="5.8"/>
	</g>
	<g>
		<rect x="20" y="5.7" class="st4" width="8.5" height="14.4"/>
		<rect x="22.4" y="11.2" class="st3" width="3.6" height="5.8"/>
	</g>
	<rect x="30.2" y="11.3" class="st5" width="1.7" height="8.8"/>
	<rect x="36.2" y="11.3" class="st5" width="1.7" height="8.8"/>
	<rect x="20" y="18.1" class="st4" width="28.1" height="5.2"/>
</g>
<text transform="matrix(6.123234e-17 -1 1 6.123234e-17 11.4619 26.6504)" class="st4 st6 st7">ZX-LED</text>
<text transform="matrix(1 0 0 1 16.575 95.8934)" class="st4 st6 st7">SCL</text>
<text transform="matrix(1 0 0 1 42.1711 95.8934)" class="st4 st6 st7">SDA</text>
<g>
	<g>
		<path class="st4" d="M60.6,8.4v6.7h-7.1V8.4H60.6z M60.4,14.8V8.6h-6.6v6.2H60.4z"/>
		<rect x="53.6" y="14" class="st4" width="6.9" height="1"/>
	</g>
	<text transform="matrix(1 0 0 1 56.3247 13.2879)" class="st4 st6 st7">I</text>
</g>
<text transform="matrix(6.123234e-17 -1 1 6.123234e-17 60.4307 79.2285)" class="st4 st6 st7">BH1750 Light sensor</text>
<g>
	<text transform="matrix(6.123234e-17 -1 1 6.123234e-17 11.4617 73.1504)" class="st4 st6 st7">inex</text>
	<text transform="matrix(6.123234e-17 -1 1 6.123234e-17 11.2109 78.2305)" class="st4 st6 st7">c</text>
	<circle class="st8" cx="9.8" cy="76.7" r="2.5"/>
</g>
<g>
	<g>
		<path class="st9" d="M14.3,29.7v52.5h39.4V29.7H14.3z M21.9,42.5c-2.5,0-4.5-2.1-4.5-4.6s2-4.6,4.5-4.6s4.5,2.1,4.5,4.6
			S24.5,42.5,21.9,42.5z M47.1,42.5c-2.5,0-4.5-2.1-4.5-4.6s2-4.6,4.5-4.6s4.5,2.1,4.5,4.6S49.6,42.5,47.1,42.5z"/>
	</g>
	<g id="pad">
		<g>
			<rect x="37.9" y="51.2" class="st10" width="2.4" height="1.1"/>
			<rect x="38.1" y="51.3" class="st11" width="2" height="0.9"/>
		</g>
		<g>
			<rect x="37.9" y="49.8" class="st10" width="2.4" height="1.1"/>
			<rect x="38.1" y="49.9" class="st11" width="2" height="0.9"/>
		</g>
		<g>
			<rect x="37.9" y="48.5" class="st10" width="2.4" height="1.1"/>
			<rect x="38.1" y="48.6" class="st11" width="2" height="0.9"/>
		</g>
		<g>
			<rect x="28.5" y="51.2" class="st10" width="2.4" height="1.1"/>
			<rect x="28.7" y="51.3" class="st11" width="2" height="0.9"/>
		</g>
		<g>
			<rect x="28.5" y="49.8" class="st10" width="2.4" height="1.1"/>
			<rect x="28.7" y="49.9" class="st11" width="2" height="0.9"/>
		</g>
		<g>
			<rect x="28.5" y="48.5" class="st10" width="2.4" height="1.1"/>
			<rect x="28.7" y="48.6" class="st11" width="2" height="0.9"/>
		</g>
		<g>
			<rect x="38.8" y="64.5" class="st4" width="3" height="2.2"/>
			<rect x="39.1" y="64.8" class="st11" width="2.4" height="1.6"/>
		</g>
		<g>
			<rect x="38.8" y="69.1" class="st4" width="3" height="2.2"/>
			<rect x="39.1" y="69.4" class="st11" width="2.4" height="1.6"/>
		</g>
		<g>
			<rect x="44.5" y="66.9" class="st4" width="2.9" height="2.2"/>
			<rect x="44.8" y="67.1" class="st11" width="2.3" height="1.6"/>
		</g>
		<g>
			<rect x="18.5" y="58.5" class="st4" width="3.1" height="1.5"/>
			<rect x="18.8" y="58.7" class="st11" width="2.4" height="1.1"/>
		</g>
		<g>
			<rect x="18.5" y="60.6" class="st4" width="3.1" height="1.5"/>
			<rect x="18.8" y="60.8" class="st11" width="2.4" height="1.1"/>
		</g>
		<circle class="st4" cx="20" cy="78.3" r="2.2"/>
		<circle class="st4" cx="27.2" cy="78.3" r="2.2"/>
		<circle class="st4" cx="34.4" cy="78.3" r="2.2"/>
		<circle class="st4" cx="41.6" cy="78.3" r="2.2"/>
		<circle class="st4" cx="48.8" cy="78.3" r="2.2"/>
		<circle class="st12" cx="20" cy="78.3" r="2.2"/>
		<circle class="st12" cx="27.2" cy="78.3" r="2.2"/>
		<circle class="st12" cx="34.4" cy="78.3" r="2.2"/>
		<circle class="st12" cx="41.6" cy="78.3" r="2.2"/>
		<circle class="st12" cx="48.8" cy="78.3" r="2.2"/>
		<g>
			<g>
				<polyline class="st13" points="49.3,67.8 49.3,65.2 52.2,65.2 52.2,67.8 				"/>
				<polyline class="st13" points="52.2,68.5 52.2,71.1 49.3,71.1 49.3,68.5 				"/>
			</g>
			<g id="_x3C_Group_x3E__Capacitor_15_">
				<rect x="49.7" y="66" class="st4" width="2.1" height="1"/>
				<rect x="49.7" y="69.4" class="st4" width="2.1" height="1"/>
				<rect x="49.7" y="66.9" class="st14" width="2.1" height="2.4"/>
			</g>
		</g>
		<g>
			<g>
				<path class="st4" d="M27.7,55.9h0.4v2.8h-0.4V55.9z M27.9,58.3h0.8c0.2,0,0.4,0,0.4-0.1c0.1-0.1,0.1-0.2,0.1-0.3l0,0
					c0-0.1,0-0.1,0-0.2c-0.1,0-0.1-0.1-0.1-0.1c-0.1-0.1-0.1-0.1-0.2-0.1H28v-0.3h0.9c0.1,0,0.2-0.1,0.3-0.1
					c0.1-0.1,0.1-0.2,0.1-0.3s0-0.2-0.1-0.3c0-0.1-0.2-0.2-0.4-0.2H28v-0.4h0.9c0.2,0,0.4,0.1,0.4,0.1c0.1,0,0.2,0.1,0.2,0.2
					c0.1,0.1,0.1,0.2,0.1,0.4c0,0.1,0,0.2,0,0.2c-0.1,0.1-0.1,0.2-0.1,0.2c-0.1,0-0.1,0.1-0.3,0.1c0.1,0,0.2,0.1,0.3,0.1
					c0.1,0.1,0.1,0.2,0.2,0.2c0.1,0.1,0.1,0.2,0.1,0.3l0,0c0,0.2-0.1,0.3-0.1,0.4c-0.1,0.1-0.1,0.2-0.3,0.2c-0.1,0-0.2,0.1-0.4,0.1
					h-0.9L27.9,58.3L27.9,58.3z"/>
				<path class="st4" d="M30.2,55.9h0.4v2.8h-0.4V55.9z M30.4,57.1H32v0.4h-1.5v-0.4H30.4z M31.7,55.9h0.4v2.8h-0.4
					C31.7,58.7,31.7,55.9,31.7,55.9z"/>
				<path class="st4" d="M33.4,58.6H33v-2.3l-0.4,0.2v-0.4l0.4-0.2h0.4V58.6z"/>
				<path class="st4" d="M35.5,56.2l-0.7,2.4h-0.4l0.7-2.4h-0.7v0.4H34v-0.8h1.5V56.2z"/>
				<path class="st4" d="M36.4,58.6c-0.1-0.1-0.2-0.2-0.2-0.2s-0.1-0.2-0.2-0.3l0,0h0.4l0,0c0,0.1,0,0.2,0.1,0.2l0.2,0.1
					c0.1,0,0.2-0.1,0.3-0.1c0-0.1,0.1-0.2,0.1-0.4v-0.2c0-0.1,0-0.2-0.1-0.3c0-0.1-0.1-0.1-0.3-0.1c0,0-0.1,0-0.2,0
					c0,0.1-0.1,0.1-0.1,0.2H36v-1.4h1.4v0.3h-1V57c0,0,0.1,0,0.1-0.1c0,0,0.1-0.1,0.2-0.1c0.2,0,0.3,0.1,0.4,0.1
					c0.1,0,0.2,0.1,0.2,0.3s0.1,0.3,0.1,0.5v0.2c0,0.2,0,0.3-0.1,0.4c0,0.2-0.2,0.2-0.2,0.3c-0.1,0-0.2,0.1-0.4,0.1
					C36.6,58.7,36.5,58.7,36.4,58.6z"/>
				<path class="st4" d="M38.3,58.5c-0.1-0.2-0.2-0.4-0.2-0.6v-1.2c0-0.2,0-0.4,0.2-0.6s0.4-0.2,0.6-0.2s0.5,0,0.6,0.2
					c0.2,0.2,0.2,0.3,0.2,0.6v1.2c0,0.2,0,0.5-0.2,0.6c-0.1,0.1-0.3,0.2-0.6,0.2S38.5,58.6,38.3,58.5z M39.2,58.2
					c0-0.1,0.1-0.2,0.1-0.3v-1.2c0-0.2,0-0.2-0.1-0.3c0-0.1-0.2-0.1-0.3-0.1c-0.2,0-0.2,0.1-0.3,0.1c0,0-0.1,0.1-0.1,0.3v1.2
					c0,0.2,0,0.2,0.1,0.3c0,0,0.1,0.1,0.3,0.1C39.1,58.3,39.2,58.3,39.2,58.2z"/>
			</g>
		</g>
	</g>
	<g id="element">
		<g>
			<g>
				<polyline class="st13" points="34.9,41.6 37.4,41.6 37.4,44.4 34.9,44.4 				"/>
				<polyline class="st13" points="34.2,44.4 31.6,44.4 31.6,41.6 34.2,41.6 				"/>
			</g>
			<g id="_x3C_Group_x3E__Capacitor_8_">
				<rect x="35.7" y="41.9" class="st4" width="1" height="2.1"/>
				<rect x="32.3" y="41.9" class="st4" width="1" height="2.1"/>
				<rect x="33.3" y="41.9" class="st15" width="2.4" height="2.1"/>
			</g>
		</g>
		<g>
			<g>
				<polyline class="st13" points="17.4,67.8 17.4,65.2 20.2,65.2 20.2,67.8 				"/>
				<polyline class="st13" points="20.2,68.5 20.2,71.1 17.4,71.1 17.4,68.5 				"/>
			</g>
			<g id="_x3C_Group_x3E__Capacitor_10_">
				<rect x="17.7" y="66" class="st4" width="2.1" height="1"/>
				<rect x="17.7" y="69.4" class="st4" width="2.1" height="1"/>
				<rect x="17.7" y="66.9" class="st15" width="2.1" height="2.4"/>
			</g>
		</g>
		<g>
			<g>
				<polyline class="st13" points="21.4,67.8 21.4,65.2 24.3,65.2 24.3,67.8 				"/>
				<polyline class="st13" points="24.3,68.5 24.3,71.1 21.4,71.1 21.4,68.5 				"/>
			</g>
			<g id="_x3C_Group_x3E__Capacitor_11_">
				<rect x="21.8" y="65.8" class="st4" width="2.1" height="1.1"/>
				<rect x="21.8" y="69.3" class="st4" width="2.1" height="1.1"/>
				<rect x="21.8" y="67" class="st15" width="2.1" height="2.4"/>
			</g>
		</g>
		<g>
			<g>
				<polyline class="st13" points="25.5,67.8 25.5,65.2 28.3,65.2 28.3,67.8 				"/>
				<polyline class="st13" points="28.3,68.5 28.3,71.1 25.5,71.1 25.5,68.5 				"/>
			</g>
			<g id="_x3C_Group_x3E__Capacitor_12_">
				<rect x="25.9" y="65.9" class="st4" width="2.1" height="1.1"/>
				<rect x="25.9" y="69.3" class="st4" width="2.1" height="1.1"/>
				<rect x="25.8" y="66.9" class="st15" width="2.1" height="2.4"/>
			</g>
		</g>
		<g>
			<g>
				<polyline class="st13" points="29.6,67.8 29.6,65.2 32.4,65.2 32.4,67.8 				"/>
				<polyline class="st13" points="32.4,68.5 32.4,71.1 29.6,71.1 29.6,68.5 				"/>
			</g>
			<g id="_x3C_Group_x3E__Capacitor_13_">
				<rect x="30" y="65.9" class="st4" width="2.1" height="1"/>
				<rect x="29.9" y="69.4" class="st4" width="2.1" height="1"/>
				<rect x="29.9" y="67" class="st14" width="2.1" height="2.4"/>
			</g>
		</g>
		<g>
			<g>
				<polyline class="st13" points="33.7,67.8 33.7,65.2 36.5,65.2 36.5,67.8 				"/>
				<polyline class="st13" points="36.5,68.5 36.5,71.1 33.7,71.1 33.7,68.5 				"/>
			</g>
			<g id="_x3C_Group_x3E__Capacitor_14_">
				<rect x="34" y="66" class="st4" width="2.1" height="1"/>
				<rect x="34" y="69.4" class="st4" width="2.1" height="1"/>
				<rect x="34" y="66.9" class="st14" width="2.1" height="2.4"/>
			</g>
		</g>
		<g>
			<g>
				<polyline class="st13" points="34.9,37.7 37.4,37.7 37.4,40.5 34.9,40.5 				"/>
				<polyline class="st13" points="34.2,40.5 31.6,40.5 31.6,37.7 34.2,37.7 				"/>
			</g>
			<g id="_x3C_Group_x3E__Capacitor_9_">
				<rect x="35.7" y="38" class="st4" width="1" height="2.1"/>
				<rect x="32.3" y="38" class="st4" width="1" height="2.1"/>
				<rect x="33.3" y="38" class="st14" width="2.4" height="2.1"/>
			</g>
		</g>
		<g>
			<rect x="39.9" y="65" class="st4" width="1.2" height="1.2"/>
			<rect x="39.9" y="69.6" class="st4" width="1.2" height="1.2"/>
			<rect x="45" y="67.4" class="st4" width="1.2" height="1.2"/>
			<g>
				<rect x="41.1" y="64.4" class="st15" width="4" height="7.1"/>
				<rect x="41.2" y="64.6" class="st16" width="3.7" height="6.8"/>
			</g>
		</g>
		<g>
			<g>
				<g>
					<rect x="36.5" y="51.3" class="st4" width="2.8" height="0.8"/>
					<rect x="36.5" y="49.9" class="st4" width="2.8" height="0.8"/>
					<rect x="36.5" y="48.5" class="st4" width="2.8" height="0.8"/>
				</g>
				<g>
					<rect x="29.7" y="51.3" class="st4" width="2.8" height="0.8"/>
					<rect x="29.7" y="49.9" class="st4" width="2.8" height="0.8"/>
					<rect x="29.7" y="48.5" class="st4" width="2.8" height="0.8"/>
				</g>
			</g>
			<g>
				<rect x="31.1" y="48.2" class="st15" width="6.9" height="4.2"/>
				<rect x="31.3" y="48.4" class="st16" width="6.4" height="3.9"/>
			</g>
		</g>
	</g>
</g>
</svg>
