<?xml version="1.0" encoding="utf-8"?>
<!-- Generator: Adobe Illustrator 19.0.0, SVG Export Plug-In . SVG Version: 6.00 Build 0)  -->
<svg version="1.1" id="Layer_1" xmlns="http://www.w3.org/2000/svg" xmlns:xlink="http://www.w3.org/1999/xlink" x="0px" y="0px"
	 viewBox="0 0 289 364" style="enable-background:new 0 0 289 364;" xml:space="preserve">
<style type="text/css">
	.st0{fill:#0C7737;}
	.st1{fill:#FFFFFF;}
	.st2{font-family:'ArialRoundedMTBold';}
	.st3{font-size:13px;}
	.st4{fill:#CAB65E;}
	.st5{fill:#040202;}
	.st6{fill:#DDDDDD;}
	.st7{fill:#EDEEF2;}
	.st8{fill:none;stroke:#CAB65E;stroke-width:0.8791;stroke-miterlimit:10;}
	.st9{fill:#6D6D6D;}
	.st10{fill:none;stroke:#6D6D6D;stroke-width:8.791012e-002;stroke-miterlimit:10;}
	.st11{fill:#C9C9C9;}
	.st12{font-size:10.761px;}
</style>
<path class="st0" d="M257.3,4.3H31.8c-14.9,0-27,12.1-27,27v301.5c0,14.9,12.1,27,27,27h225.5c14.9,0,27-12.1,27-27V31.3
	C284.3,16.3,272.2,4.3,257.3,4.3z M27.3,346c-4.6,0-8.3-3.7-8.3-8.3s3.7-8.3,8.3-8.3s8.3,3.7,8.3,8.3S31.8,346,27.3,346z M27.3,36.5
	c-4.6,0-8.3-3.7-8.3-8.3s3.7-8.3,8.3-8.3s8.3,3.7,8.3,8.3S31.8,36.5,27.3,36.5z M262.9,346c-4.6,0-8.3-3.7-8.3-8.3s3.7-8.3,8.3-8.3
	c4.6,0,8.3,3.7,8.3,8.3S267.5,346,262.9,346z M262.9,36.5c-4.6,0-8.3-3.7-8.3-8.3s3.7-8.3,8.3-8.3s8.3,3.7,8.3,8.3
	S267.5,36.5,262.9,36.5z"/>
<g id="logo">
	<g>
		<g>
			<polygon class="st1" points="102.3,87.5 123.4,66.3 119.2,66.3 110.8,74.7 108.7,72.7 115,66.3 110.8,66.3 106.5,70.5 
				104.4,68.5 106.5,66.3 102.3,66.3 			"/>
			<polygon class="st1" points="123.4,87.7 123.4,84.1 116.2,76.7 114.4,78.5 			"/>
			<polygon class="st1" points="123.4,80.3 123.4,76.6 119.8,73 117.9,74.7 			"/>
			<polygon class="st1" points="123.4,72.8 123.4,69.2 121.7,71.1 			"/>
		</g>
	</g>
</g>
<g>
	<text transform="matrix(0.6298 0 0 1 127.2647 75.745)" class="st1 st2 st3">NODEMCU-32S</text>
	<text transform="matrix(0.4817 0 0 1 127.2647 86.9154)" class="st1 st2 st3">BREAKOUT BOARD</text>
</g>
<g id="JST_9_">
	<g>
		<path class="st4" d="M92.1,47.8h-0.2c-2,0-3.6-1.6-3.6-3.6V41c0-2,1.6-3.6,3.6-3.6h0.2c2,0,3.6,1.6,3.6,3.6v3.2
			C95.7,46.2,94.1,47.8,92.1,47.8z"/>
		<circle class="st5" cx="92.1" cy="42.6" r="2.2"/>
	</g>
	<g>
		<path class="st4" d="M103.5,47.8h-0.2c-2,0-3.6-1.6-3.6-3.6V41c0-2,1.6-3.6,3.6-3.6h0.2c2,0,3.6,1.6,3.6,3.6v3.2
			C106.9,46.2,105.5,47.8,103.5,47.8z"/>
		<circle class="st5" cx="103.3" cy="42.6" r="2.2"/>
	</g>
	<g>
		<path class="st4" d="M114.7,47.8h-0.2c-2,0-3.6-1.6-3.6-3.6V41c0-2,1.6-3.6,3.6-3.6h0.2c2,0,3.6,1.6,3.6,3.6v3.2
			C118.3,46.2,116.7,47.8,114.7,47.8z"/>
		<circle class="st5" cx="114.7" cy="42.6" r="2.2"/>
	</g>
	<g>
		<path class="st4" d="M129.7,41.2v-3.4c0-0.2-0.2-0.2-0.2-0.2h-6.6c-0.2,0-0.2,0.2-0.2,0.2v9.8c0,0.2,0.2,0.2,0.2,0.2h1.8v1.4h3
			v-1.4h1.8c0.2,0,0.2-0.2,0.2-0.2v-3.4h1.2v-3H129.7L129.7,41.2z"/>
		<circle class="st5" cx="126.1" cy="42.6" r="2.2"/>
	</g>
	<g>
		<rect x="90.3" y="34.2" class="st1" width="3.4" height="4"/>
		<path class="st6" d="M92.1,44L92.1,44c-1,0-1.8-0.8-1.8-1.6v-4.2h3.4v4C93.7,43.2,93.1,44,92.1,44z"/>
	</g>
	<g>
		<rect x="101.7" y="34.2" class="st1" width="3.4" height="4"/>
		<path class="st6" d="M103.5,44L103.5,44c-1,0-1.8-0.8-1.8-1.6v-4.2h3.4v4C105.1,43.2,104.3,44,103.5,44z"/>
	</g>
	<g>
		<rect x="113.1" y="34.2" class="st1" width="3.4" height="4"/>
		<path class="st6" d="M114.7,44L114.7,44c-1,0-1.8-0.8-1.8-1.6v-4.2h3.4v4C116.3,43.2,115.7,44,114.7,44z"/>
	</g>
	<g>
		<rect x="124.3" y="34.2" class="st1" width="3.4" height="4"/>
		<path class="st6" d="M126.1,44L126.1,44c-1,0-1.8-0.8-1.8-1.6v-4.2h3.4v4C127.7,43.2,126.9,44,126.1,44z"/>
	</g>
	<g>
		<rect x="81.3" y="36.2" class="st1" width="5.6" height="10.4"/>
		<rect x="81.3" y="46.6" class="st6" width="5.6" height="4.2"/>
	</g>
	<g>
		<rect x="130.9" y="36.2" class="st1" width="5.6" height="10.4"/>
		<rect x="130.9" y="46.6" class="st6" width="5.6" height="4.2"/>
	</g>
	<rect x="81.3" y="6.6" class="st6" width="55.4" height="29"/>
	<g>
		<rect x="102.1" y="6.4" class="st1" width="2.4" height="29.2"/>
		<rect x="113.5" y="6.4" class="st1" width="2.4" height="29.2"/>
		<rect x="107.9" y="19.2" class="st1" width="2.4" height="16.6"/>
		<rect x="96.5" y="19.2" class="st1" width="2.4" height="16.6"/>
		<rect x="119.1" y="19.2" class="st1" width="2.4" height="16.6"/>
	</g>
	<rect x="81.5" y="25.8" class="st7" width="55.2" height="9.8"/>
	<polygon class="st1" points="123.3,0.2 123.3,23.4 110.5,23.4 94.5,23.4 94.5,0.2 81.3,0.2 81.3,35.6 84.1,35.6 84.1,11 89.7,11 
		89.7,34.2 110.5,34.2 128.1,34.2 128.1,11 133.7,11 133.7,35.6 136.5,35.6 136.5,0.2 	"/>
	<rect x="107.5" y="34.2" class="st1" width="2.8" height="1.4"/>
	<rect x="96.3" y="34.2" class="st1" width="2.8" height="1.4"/>
	<rect x="118.9" y="34.2" class="st1" width="2.8" height="1.4"/>
</g>
<g id="JST_1_">
	<g>
		<path class="st4" d="M163.5,47.8h-0.2c-2,0-3.6-1.6-3.6-3.6V41c0-2,1.6-3.6,3.6-3.6h0.2c2,0,3.6,1.6,3.6,3.6v3.2
			C167.1,46.2,165.5,47.8,163.5,47.8z"/>
		<circle class="st5" cx="163.5" cy="42.6" r="2.2"/>
	</g>
	<g>
		<path class="st4" d="M174.9,47.8h-0.2c-2,0-3.6-1.6-3.6-3.6V41c0-2,1.6-3.6,3.6-3.6h0.2c2,0,3.6,1.6,3.6,3.6v3.2
			C178.3,46.2,176.9,47.8,174.9,47.8z"/>
		<circle class="st5" cx="174.7" cy="42.6" r="2.2"/>
	</g>
	<g>
		<path class="st4" d="M186.1,47.8h-0.2c-2,0-3.6-1.6-3.6-3.6V41c0-2,1.6-3.6,3.6-3.6h0.2c2,0,3.6,1.6,3.6,3.6v3.2
			C189.7,46.2,188.1,47.8,186.1,47.8z"/>
		<circle class="st5" cx="186.1" cy="42.6" r="2.2"/>
	</g>
	<g>
		<path class="st4" d="M201.1,41.2v-3.4c0-0.2-0.2-0.2-0.2-0.2h-6.6c-0.2,0-0.2,0.2-0.2,0.2v9.8c0,0.2,0.2,0.2,0.2,0.2h1.8v1.4h3
			v-1.4h1.8c0.2,0,0.2-0.2,0.2-0.2v-3.4h1.2v-3H201.1L201.1,41.2z"/>
		<circle class="st5" cx="197.5" cy="42.6" r="2.2"/>
	</g>
	<g>
		<rect x="161.7" y="34.2" class="st1" width="3.4" height="4"/>
		<path class="st6" d="M163.5,44L163.5,44c-1,0-1.8-0.8-1.8-1.6v-4.2h3.4v4C165.1,43.2,164.5,44,163.5,44z"/>
	</g>
	<g>
		<rect x="173.1" y="34.2" class="st1" width="3.4" height="4"/>
		<path class="st6" d="M174.9,44L174.9,44c-1,0-1.8-0.8-1.8-1.6v-4.2h3.4v4C176.5,43.2,175.7,44,174.9,44z"/>
	</g>
	<g>
		<rect x="184.5" y="34.2" class="st1" width="3.4" height="4"/>
		<path class="st6" d="M186.1,44L186.1,44c-1,0-1.8-0.8-1.8-1.6v-4.2h3.4v4C187.7,43.2,187.1,44,186.1,44z"/>
	</g>
	<g>
		<rect x="195.7" y="34.2" class="st1" width="3.4" height="4"/>
		<path class="st6" d="M197.5,44L197.5,44c-1,0-1.8-0.8-1.8-1.6v-4.2h3.4v4C199.1,43.2,198.3,44,197.5,44z"/>
	</g>
	<g>
		<rect x="152.7" y="36.2" class="st1" width="5.6" height="10.4"/>
		<rect x="152.7" y="46.6" class="st6" width="5.6" height="4.2"/>
	</g>
	<g>
		<rect x="202.3" y="36.2" class="st1" width="5.6" height="10.4"/>
		<rect x="202.3" y="46.6" class="st6" width="5.6" height="4.2"/>
	</g>
	<rect x="152.7" y="6.6" class="st6" width="55.4" height="29"/>
	<g>
		<rect x="173.5" y="6.4" class="st1" width="2.4" height="29.2"/>
		<rect x="184.9" y="6.4" class="st1" width="2.4" height="29.2"/>
		<rect x="179.3" y="19.2" class="st1" width="2.4" height="16.6"/>
		<rect x="167.9" y="19.2" class="st1" width="2.4" height="16.6"/>
		<rect x="190.5" y="19.2" class="st1" width="2.4" height="16.6"/>
	</g>
	<rect x="152.9" y="25.8" class="st7" width="55.2" height="9.8"/>
	<polygon class="st1" points="194.7,0.2 194.7,23.4 181.9,23.4 165.9,23.4 165.9,0.2 152.7,0.2 152.7,35.6 155.5,35.6 155.5,11 
		161.1,11 161.1,34.2 181.9,34.2 199.5,34.2 199.5,11 205.1,11 205.1,35.6 207.9,35.6 207.9,0.2 	"/>
	<rect x="178.9" y="34.2" class="st1" width="2.8" height="1.4"/>
	<rect x="167.7" y="34.2" class="st1" width="2.8" height="1.4"/>
	<rect x="190.3" y="34.2" class="st1" width="2.8" height="1.4"/>
</g>
<g id="JST_4_">
	<g>
		<path class="st4" d="M47.9,165v0.2c0,2-1.6,3.6-3.6,3.6h-3.2c-2,0-3.6-1.6-3.6-3.6V165c0-2,1.6-3.6,3.6-3.6h3.2
			C46.3,161.4,47.9,163,47.9,165z"/>
		<circle class="st5" cx="42.7" cy="165" r="2.2"/>
	</g>
	<g>
		<path class="st4" d="M47.9,153.6v0.2c0,2-1.6,3.6-3.6,3.6h-3.2c-2,0-3.6-1.6-3.6-3.6v-0.2c0-2,1.6-3.6,3.6-3.6h3.2
			C46.3,150.2,47.9,151.6,47.9,153.6z"/>
		<circle class="st5" cx="42.7" cy="153.8" r="2.2"/>
	</g>
	<g>
		<path class="st4" d="M47.9,142.4v0.2c0,2-1.6,3.6-3.6,3.6h-3.2c-2,0-3.6-1.6-3.6-3.6v-0.2c0-2,1.6-3.6,3.6-3.6h3.2
			C46.3,138.8,47.9,140.4,47.9,142.4z"/>
		<circle class="st5" cx="42.7" cy="142.4" r="2.2"/>
	</g>
	<g>
		<path class="st4" d="M41.3,127.4h-3.4c-0.2,0-0.2,0.2-0.2,0.2v6.6c0,0.2,0.2,0.2,0.2,0.2h9.8c0.2,0,0.2-0.2,0.2-0.2v-1.8h1.4v-3
			h-1.4v-1.8c0-0.2-0.2-0.2-0.2-0.2h-3.4v-1.2h-3V127.4L41.3,127.4z"/>
		<circle class="st5" cx="42.7" cy="131" r="2.2"/>
	</g>
	<g>
		<rect x="34.3" y="163.4" class="st1" width="4" height="3.4"/>
		<path class="st6" d="M44.1,165L44.1,165c0,1-0.8,1.8-1.6,1.8h-4.2v-3.4h4C43.3,163.4,44.1,164,44.1,165z"/>
	</g>
	<g>
		<rect x="34.3" y="152" class="st1" width="4" height="3.4"/>
		<path class="st6" d="M44.1,153.6L44.1,153.6c0,1-0.8,1.8-1.6,1.8h-4.2V152h4C43.3,152,44.1,152.8,44.1,153.6z"/>
	</g>
	<g>
		<rect x="34.3" y="140.6" class="st1" width="4" height="3.4"/>
		<path class="st6" d="M44.1,142.4L44.1,142.4c0,1-0.8,1.8-1.6,1.8h-4.2v-3.4h4C43.3,140.8,44.1,141.4,44.1,142.4z"/>
	</g>
	<g>
		<rect x="34.3" y="129.4" class="st1" width="4" height="3.4"/>
		<path class="st6" d="M44.1,131L44.1,131c0,1-0.8,1.8-1.6,1.8h-4.2v-3.4h4C43.3,129.4,44.1,130.2,44.1,131z"/>
	</g>
	<g>
		<rect x="36.3" y="170.2" class="st1" width="10.4" height="5.6"/>
		<rect x="46.7" y="170.2" class="st6" width="4.2" height="5.6"/>
	</g>
	<g>
		<rect x="36.3" y="120.6" class="st1" width="10.4" height="5.6"/>
		<rect x="46.7" y="120.6" class="st6" width="4.2" height="5.6"/>
	</g>
	<rect x="6.7" y="120.4" class="st6" width="29" height="55.4"/>
	<g>
		<rect x="6.5" y="152.6" class="st1" width="29.2" height="2.4"/>
		<rect x="6.5" y="141.2" class="st1" width="29.2" height="2.4"/>
		<rect x="19.3" y="146.8" class="st1" width="16.6" height="2.4"/>
		<rect x="19.3" y="158.2" class="st1" width="16.6" height="2.4"/>
		<rect x="19.3" y="135.6" class="st1" width="16.6" height="2.4"/>
	</g>
	<rect x="25.9" y="120.4" class="st7" width="9.8" height="55.2"/>
	<polygon class="st1" points="0.3,133.8 23.5,133.8 23.5,146.6 23.5,162.6 0.3,162.6 0.3,175.8 35.7,175.8 35.7,173 11.1,173 
		11.1,167.4 34.3,167.4 34.3,146.6 34.3,129 11.1,129 11.1,123.4 35.7,123.4 35.7,120.6 0.3,120.6 	"/>
	<rect x="34.3" y="146.8" class="st1" width="1.4" height="2.8"/>
	<rect x="34.3" y="158" class="st1" width="1.4" height="2.8"/>
	<rect x="34.3" y="135.4" class="st1" width="1.4" height="2.8"/>
</g>
<g>
	<g id="JST_2_">
		<g>
			<path class="st4" d="M47.6,96.1v0.2c0,2-1.6,3.6-3.6,3.6h-3.2c-2,0-3.6-1.6-3.6-3.6v-0.2c0-2,1.6-3.6,3.6-3.6H44
				C46,92.5,47.6,94.1,47.6,96.1z"/>
			<circle class="st5" cx="42.4" cy="96.1" r="2.2"/>
		</g>
		<g>
			<path class="st4" d="M47.6,84.7v0.2c0,2-1.6,3.6-3.6,3.6h-3.2c-2,0-3.6-1.6-3.6-3.6v-0.2c0-2,1.6-3.6,3.6-3.6H44
				C46,81.3,47.6,82.7,47.6,84.7z"/>
			<circle class="st5" cx="42.4" cy="84.9" r="2.2"/>
		</g>
		<g>
			<path class="st4" d="M47.6,73.5v0.2c0,2-1.6,3.6-3.6,3.6h-3.2c-2,0-3.6-1.6-3.6-3.6v-0.2c0-2,1.6-3.6,3.6-3.6H44
				C46,69.9,47.6,71.5,47.6,73.5z"/>
			<circle class="st5" cx="42.4" cy="73.5" r="2.2"/>
		</g>
		<g>
			<path class="st4" d="M41,58.5h-3.4c-0.2,0-0.2,0.2-0.2,0.2v6.6c0,0.2,0.2,0.2,0.2,0.2h9.8c0.2,0,0.2-0.2,0.2-0.2v-1.8H49v-3h-1.4
				v-1.8c0-0.2-0.2-0.2-0.2-0.2H44v-1.2h-3V58.5L41,58.5z"/>
			<circle class="st5" cx="42.4" cy="62.1" r="2.2"/>
		</g>
		<g>
			<rect x="34" y="94.5" class="st1" width="4" height="3.4"/>
			<path class="st6" d="M43.8,96.1L43.8,96.1c0,1-0.8,1.8-1.6,1.8H38v-3.4h4C43,94.5,43.8,95.1,43.8,96.1z"/>
		</g>
		<g>
			<rect x="34" y="83.1" class="st1" width="4" height="3.4"/>
			<path class="st6" d="M43.8,84.7L43.8,84.7c0,1-0.8,1.8-1.6,1.8H38v-3.4h4C43,83.1,43.8,83.9,43.8,84.7z"/>
		</g>
		<g>
			<rect x="34" y="71.7" class="st1" width="4" height="3.4"/>
			<path class="st6" d="M43.8,73.5L43.8,73.5c0,1-0.8,1.8-1.6,1.8H38v-3.4h4C43,71.9,43.8,72.5,43.8,73.5z"/>
		</g>
		<g>
			<rect x="34" y="60.5" class="st1" width="4" height="3.4"/>
			<path class="st6" d="M43.8,62.1L43.8,62.1c0,1-0.8,1.8-1.6,1.8H38v-3.4h4C43,60.5,43.8,61.3,43.8,62.1z"/>
		</g>
		<g>
			<rect x="36" y="101.3" class="st1" width="10.4" height="5.6"/>
			<rect x="46.4" y="101.3" class="st6" width="4.2" height="5.6"/>
		</g>
		<g>
			<rect x="36" y="51.7" class="st1" width="10.4" height="5.6"/>
			<rect x="46.4" y="51.7" class="st6" width="4.2" height="5.6"/>
		</g>
		<rect x="6.4" y="51.5" class="st6" width="29" height="55.4"/>
		<g>
			<rect x="6.2" y="83.7" class="st1" width="29.2" height="2.4"/>
			<rect x="6.2" y="72.3" class="st1" width="29.2" height="2.4"/>
			<rect x="19" y="77.9" class="st1" width="16.6" height="2.4"/>
			<rect x="19" y="89.3" class="st1" width="16.6" height="2.4"/>
			<rect x="19" y="66.7" class="st1" width="16.6" height="2.4"/>
		</g>
		<rect x="25.6" y="51.5" class="st7" width="9.8" height="55.2"/>
		<polygon class="st1" points="0,64.9 23.2,64.9 23.2,77.7 23.2,93.7 0,93.7 0,106.9 35.4,106.9 35.4,104.1 10.8,104.1 10.8,98.5 
			34,98.5 34,77.7 34,60.1 10.8,60.1 10.8,54.5 35.4,54.5 35.4,51.7 0,51.7 		"/>
		<rect x="34" y="77.9" class="st1" width="1.4" height="2.8"/>
		<rect x="34" y="89.1" class="st1" width="1.4" height="2.8"/>
		<rect x="34" y="66.5" class="st1" width="1.4" height="2.8"/>
	</g>
	<g id="JST_3_">
		<g>
			<path class="st4" d="M47.6,164.3v0.2c0,2-1.6,3.6-3.6,3.6h-3.2c-2,0-3.6-1.6-3.6-3.6v-0.2c0-2,1.6-3.6,3.6-3.6H44
				C46,160.7,47.6,162.3,47.6,164.3z"/>
			<circle class="st5" cx="42.4" cy="164.3" r="2.2"/>
		</g>
		<g>
			<path class="st4" d="M47.6,152.9v0.2c0,2-1.6,3.6-3.6,3.6h-3.2c-2,0-3.6-1.6-3.6-3.6v-0.2c0-2,1.6-3.6,3.6-3.6H44
				C46,149.5,47.6,150.9,47.6,152.9z"/>
			<circle class="st5" cx="42.4" cy="153.1" r="2.2"/>
		</g>
		<g>
			<path class="st4" d="M47.6,141.7v0.2c0,2-1.6,3.6-3.6,3.6h-3.2c-2,0-3.6-1.6-3.6-3.6v-0.2c0-2,1.6-3.6,3.6-3.6H44
				C46,138.1,47.6,139.7,47.6,141.7z"/>
			<circle class="st5" cx="42.4" cy="141.7" r="2.2"/>
		</g>
		<g>
			<path class="st4" d="M41,126.7h-3.4c-0.2,0-0.2,0.2-0.2,0.2v6.6c0,0.2,0.2,0.2,0.2,0.2h9.8c0.2,0,0.2-0.2,0.2-0.2v-1.8H49v-3
				h-1.4v-1.8c0-0.2-0.2-0.2-0.2-0.2H44v-1.2h-3V126.7L41,126.7z"/>
			<circle class="st5" cx="42.4" cy="130.3" r="2.2"/>
		</g>
		<g>
			<rect x="34" y="162.7" class="st1" width="4" height="3.4"/>
			<path class="st6" d="M43.8,164.3L43.8,164.3c0,1-0.8,1.8-1.6,1.8H38v-3.4h4C43,162.7,43.8,163.3,43.8,164.3z"/>
		</g>
		<g>
			<rect x="34" y="151.3" class="st1" width="4" height="3.4"/>
			<path class="st6" d="M43.8,152.9L43.8,152.9c0,1-0.8,1.8-1.6,1.8H38v-3.4h4C43,151.3,43.8,152.1,43.8,152.9z"/>
		</g>
		<g>
			<rect x="34" y="139.9" class="st1" width="4" height="3.4"/>
			<path class="st6" d="M43.8,141.7L43.8,141.7c0,1-0.8,1.8-1.6,1.8H38v-3.4h4C43,140.1,43.8,140.7,43.8,141.7z"/>
		</g>
		<g>
			<rect x="34" y="128.7" class="st1" width="4" height="3.4"/>
			<path class="st6" d="M43.8,130.3L43.8,130.3c0,1-0.8,1.8-1.6,1.8H38v-3.4h4C43,128.7,43.8,129.5,43.8,130.3z"/>
		</g>
		<g>
			<rect x="36" y="169.5" class="st1" width="10.4" height="5.6"/>
			<rect x="46.4" y="169.5" class="st6" width="4.2" height="5.6"/>
		</g>
		<g>
			<rect x="36" y="119.9" class="st1" width="10.4" height="5.6"/>
			<rect x="46.4" y="119.9" class="st6" width="4.2" height="5.6"/>
		</g>
		<rect x="6.4" y="119.7" class="st6" width="29" height="55.4"/>
		<g>
			<rect x="6.2" y="151.9" class="st1" width="29.2" height="2.4"/>
			<rect x="6.2" y="140.5" class="st1" width="29.2" height="2.4"/>
			<rect x="19" y="146.1" class="st1" width="16.6" height="2.4"/>
			<rect x="19" y="157.5" class="st1" width="16.6" height="2.4"/>
			<rect x="19" y="134.9" class="st1" width="16.6" height="2.4"/>
		</g>
		<rect x="25.6" y="119.7" class="st7" width="9.8" height="55.2"/>
		<polygon class="st1" points="0,133.1 23.2,133.1 23.2,145.9 23.2,161.9 0,161.9 0,175.1 35.4,175.1 35.4,172.3 10.8,172.3 
			10.8,166.7 34,166.7 34,145.9 34,128.3 10.8,128.3 10.8,122.7 35.4,122.7 35.4,119.9 0,119.9 		"/>
		<rect x="34" y="146.1" class="st1" width="1.4" height="2.8"/>
		<rect x="34" y="157.3" class="st1" width="1.4" height="2.8"/>
		<rect x="34" y="134.7" class="st1" width="1.4" height="2.8"/>
	</g>
	<g id="JST_5_">
		<g>
			<path class="st4" d="M47.6,232.7v0.2c0,2-1.6,3.6-3.6,3.6h-3.2c-2,0-3.6-1.6-3.6-3.6v-0.2c0-2,1.6-3.6,3.6-3.6H44
				C46,229.1,47.6,230.7,47.6,232.7z"/>
			<circle class="st5" cx="42.4" cy="232.7" r="2.2"/>
		</g>
		<g>
			<path class="st4" d="M47.6,221.3v0.2c0,2-1.6,3.6-3.6,3.6h-3.2c-2,0-3.6-1.6-3.6-3.6v-0.2c0-2,1.6-3.6,3.6-3.6H44
				C46,217.9,47.6,219.3,47.6,221.3z"/>
			<circle class="st5" cx="42.4" cy="221.5" r="2.2"/>
		</g>
		<g>
			<path class="st4" d="M47.6,210.1v0.2c0,2-1.6,3.6-3.6,3.6h-3.2c-2,0-3.6-1.6-3.6-3.6v-0.2c0-2,1.6-3.6,3.6-3.6H44
				C46,206.5,47.6,208.1,47.6,210.1z"/>
			<circle class="st5" cx="42.4" cy="210.1" r="2.2"/>
		</g>
		<g>
			<path class="st4" d="M41,195.1h-3.4c-0.2,0-0.2,0.2-0.2,0.2v6.6c0,0.2,0.2,0.2,0.2,0.2h9.8c0.2,0,0.2-0.2,0.2-0.2v-1.8H49v-3
				h-1.4v-1.8c0-0.2-0.2-0.2-0.2-0.2H44v-1.2h-3V195.1L41,195.1z"/>
			<circle class="st5" cx="42.4" cy="198.7" r="2.2"/>
		</g>
		<g>
			<rect x="34" y="231.1" class="st1" width="4" height="3.4"/>
			<path class="st6" d="M43.8,232.7L43.8,232.7c0,1-0.8,1.8-1.6,1.8H38v-3.4h4C43,231.1,43.8,231.7,43.8,232.7z"/>
		</g>
		<g>
			<rect x="34" y="219.7" class="st1" width="4" height="3.4"/>
			<path class="st6" d="M43.8,221.3L43.8,221.3c0,1-0.8,1.8-1.6,1.8H38v-3.4h4C43,219.7,43.8,220.5,43.8,221.3z"/>
		</g>
		<g>
			<rect x="34" y="208.3" class="st1" width="4" height="3.4"/>
			<path class="st6" d="M43.8,210.1L43.8,210.1c0,1-0.8,1.8-1.6,1.8H38v-3.4h4C43,208.5,43.8,209.1,43.8,210.1z"/>
		</g>
		<g>
			<rect x="34" y="197.1" class="st1" width="4" height="3.4"/>
			<path class="st6" d="M43.8,198.7L43.8,198.7c0,1-0.8,1.8-1.6,1.8H38v-3.4h4C43,197.1,43.8,197.9,43.8,198.7z"/>
		</g>
		<g>
			<rect x="36" y="237.9" class="st1" width="10.4" height="5.6"/>
			<rect x="46.4" y="237.9" class="st6" width="4.2" height="5.6"/>
		</g>
		<g>
			<rect x="36" y="188.3" class="st1" width="10.4" height="5.6"/>
			<rect x="46.4" y="188.3" class="st6" width="4.2" height="5.6"/>
		</g>
		<rect x="6.4" y="188.1" class="st6" width="29" height="55.4"/>
		<g>
			<rect x="6.2" y="220.3" class="st1" width="29.2" height="2.4"/>
			<rect x="6.2" y="208.9" class="st1" width="29.2" height="2.4"/>
			<rect x="19" y="214.5" class="st1" width="16.6" height="2.4"/>
			<rect x="19" y="225.9" class="st1" width="16.6" height="2.4"/>
			<rect x="19" y="203.3" class="st1" width="16.6" height="2.4"/>
		</g>
		<rect x="25.6" y="188.1" class="st7" width="9.8" height="55.2"/>
		<polygon class="st1" points="0,201.5 23.2,201.5 23.2,214.3 23.2,230.3 0,230.3 0,243.5 35.4,243.5 35.4,240.7 10.8,240.7 
			10.8,235.1 34,235.1 34,214.3 34,196.7 10.8,196.7 10.8,191.1 35.4,191.1 35.4,188.3 0,188.3 		"/>
		<rect x="34" y="214.5" class="st1" width="1.4" height="2.8"/>
		<rect x="34" y="225.7" class="st1" width="1.4" height="2.8"/>
		<rect x="34" y="203.1" class="st1" width="1.4" height="2.8"/>
	</g>
	<g id="JST_6_">
		<g>
			<path class="st4" d="M47.6,301.3v0.2c0,2-1.6,3.6-3.6,3.6h-3.2c-2,0-3.6-1.6-3.6-3.6v-0.2c0-2,1.6-3.6,3.6-3.6H44
				C46,297.7,47.6,299.3,47.6,301.3z"/>
			<circle class="st5" cx="42.4" cy="301.3" r="2.2"/>
		</g>
		<g>
			<path class="st4" d="M47.6,289.9v0.2c0,2-1.6,3.6-3.6,3.6h-3.2c-2,0-3.6-1.6-3.6-3.6v-0.2c0-2,1.6-3.6,3.6-3.6H44
				C46,286.5,47.6,287.9,47.6,289.9z"/>
			<circle class="st5" cx="42.4" cy="290.1" r="2.2"/>
		</g>
		<g>
			<path class="st4" d="M47.6,278.7v0.2c0,2-1.6,3.6-3.6,3.6h-3.2c-2,0-3.6-1.6-3.6-3.6v-0.2c0-2,1.6-3.6,3.6-3.6H44
				C46,275.1,47.6,276.7,47.6,278.7z"/>
			<circle class="st5" cx="42.4" cy="278.7" r="2.2"/>
		</g>
		<g>
			<path class="st4" d="M41,263.7h-3.4c-0.2,0-0.2,0.2-0.2,0.2v6.6c0,0.2,0.2,0.2,0.2,0.2h9.8c0.2,0,0.2-0.2,0.2-0.2v-1.8H49v-3
				h-1.4v-1.8c0-0.2-0.2-0.2-0.2-0.2H44v-1.2h-3V263.7L41,263.7z"/>
			<circle class="st5" cx="42.4" cy="267.3" r="2.2"/>
		</g>
		<g>
			<rect x="34" y="299.7" class="st1" width="4" height="3.4"/>
			<path class="st6" d="M43.8,301.3L43.8,301.3c0,1-0.8,1.8-1.6,1.8H38v-3.4h4C43,299.7,43.8,300.3,43.8,301.3z"/>
		</g>
		<g>
			<rect x="34" y="288.3" class="st1" width="4" height="3.4"/>
			<path class="st6" d="M43.8,289.9L43.8,289.9c0,1-0.8,1.8-1.6,1.8H38v-3.4h4C43,288.3,43.8,289.1,43.8,289.9z"/>
		</g>
		<g>
			<rect x="34" y="276.9" class="st1" width="4" height="3.4"/>
			<path class="st6" d="M43.8,278.7L43.8,278.7c0,1-0.8,1.8-1.6,1.8H38v-3.4h4C43,277.1,43.8,277.7,43.8,278.7z"/>
		</g>
		<g>
			<rect x="34" y="265.7" class="st1" width="4" height="3.4"/>
			<path class="st6" d="M43.8,267.3L43.8,267.3c0,1-0.8,1.8-1.6,1.8H38v-3.4h4C43,265.7,43.8,266.5,43.8,267.3z"/>
		</g>
		<g>
			<rect x="36" y="306.5" class="st1" width="10.4" height="5.6"/>
			<rect x="46.4" y="306.5" class="st6" width="4.2" height="5.6"/>
		</g>
		<g>
			<rect x="36" y="256.9" class="st1" width="10.4" height="5.6"/>
			<rect x="46.4" y="256.9" class="st6" width="4.2" height="5.6"/>
		</g>
		<rect x="6.4" y="256.7" class="st6" width="29" height="55.4"/>
		<g>
			<rect x="6.2" y="288.9" class="st1" width="29.2" height="2.4"/>
			<rect x="6.2" y="277.5" class="st1" width="29.2" height="2.4"/>
			<rect x="19" y="283.1" class="st1" width="16.6" height="2.4"/>
			<rect x="19" y="294.5" class="st1" width="16.6" height="2.4"/>
			<rect x="19" y="271.9" class="st1" width="16.6" height="2.4"/>
		</g>
		<rect x="25.6" y="256.7" class="st7" width="9.8" height="55.2"/>
		<polygon class="st1" points="0,270.1 23.2,270.1 23.2,282.9 23.2,298.9 0,298.9 0,312.1 35.4,312.1 35.4,309.3 10.8,309.3 
			10.8,303.7 34,303.7 34,282.9 34,265.3 10.8,265.3 10.8,259.7 35.4,259.7 35.4,256.9 0,256.9 		"/>
		<rect x="34" y="283.1" class="st1" width="1.4" height="2.8"/>
		<rect x="34" y="294.3" class="st1" width="1.4" height="2.8"/>
		<rect x="34" y="271.7" class="st1" width="1.4" height="2.8"/>
	</g>
	<g id="JST_13_">
		<g>
			<path class="st4" d="M163,48.1h-0.2c-2,0-3.6-1.6-3.6-3.6v-3.2c0-2,1.6-3.6,3.6-3.6h0.2c2,0,3.6,1.6,3.6,3.6v3.2
				C166.6,46.5,165,48.1,163,48.1z"/>
			<circle class="st5" cx="163" cy="42.9" r="2.2"/>
		</g>
		<g>
			<path class="st4" d="M174.4,48.1h-0.2c-2,0-3.6-1.6-3.6-3.6v-3.2c0-2,1.6-3.6,3.6-3.6h0.2c2,0,3.6,1.6,3.6,3.6v3.2
				C177.8,46.5,176.4,48.1,174.4,48.1z"/>
			<circle class="st5" cx="174.2" cy="42.9" r="2.2"/>
		</g>
		<g>
			<path class="st4" d="M185.6,48.1h-0.2c-2,0-3.6-1.6-3.6-3.6v-3.2c0-2,1.6-3.6,3.6-3.6h0.2c2,0,3.6,1.6,3.6,3.6v3.2
				C189.2,46.5,187.6,48.1,185.6,48.1z"/>
			<circle class="st5" cx="185.6" cy="42.9" r="2.2"/>
		</g>
		<g>
			<path class="st4" d="M200.6,41.5v-3.4c0-0.2-0.2-0.2-0.2-0.2h-6.6c-0.2,0-0.2,0.2-0.2,0.2v9.8c0,0.2,0.2,0.2,0.2,0.2h1.8v1.4h3
				v-1.4h1.8c0.2,0,0.2-0.2,0.2-0.2v-3.4h1.2v-3H200.6L200.6,41.5z"/>
			<circle class="st5" cx="197" cy="42.9" r="2.2"/>
		</g>
		<g>
			<rect x="161.2" y="34.5" class="st1" width="3.4" height="4"/>
			<path class="st6" d="M163,44.3L163,44.3c-1,0-1.8-0.8-1.8-1.6v-4.2h3.4v4C164.6,43.5,164,44.3,163,44.3z"/>
		</g>
		<g>
			<rect x="172.6" y="34.5" class="st1" width="3.4" height="4"/>
			<path class="st6" d="M174.4,44.3L174.4,44.3c-1,0-1.8-0.8-1.8-1.6v-4.2h3.4v4C176,43.5,175.2,44.3,174.4,44.3z"/>
		</g>
		<g>
			<rect x="184" y="34.5" class="st1" width="3.4" height="4"/>
			<path class="st6" d="M185.6,44.3L185.6,44.3c-1,0-1.8-0.8-1.8-1.6v-4.2h3.4v4C187.2,43.5,186.6,44.3,185.6,44.3z"/>
		</g>
		<g>
			<rect x="195.2" y="34.5" class="st1" width="3.4" height="4"/>
			<path class="st6" d="M197,44.3L197,44.3c-1,0-1.8-0.8-1.8-1.6v-4.2h3.4v4C198.6,43.5,197.8,44.3,197,44.3z"/>
		</g>
		<g>
			<rect x="152.3" y="36.5" class="st1" width="5.6" height="10.4"/>
			<rect x="152.3" y="46.9" class="st6" width="5.6" height="4.2"/>
		</g>
		<g>
			<rect x="201.8" y="36.5" class="st1" width="5.6" height="10.4"/>
			<rect x="201.8" y="46.9" class="st6" width="5.6" height="4.2"/>
		</g>
		<rect x="152.3" y="6.9" class="st6" width="55.4" height="29"/>
		<g>
			<rect x="173" y="6.7" class="st1" width="2.4" height="29.2"/>
			<rect x="184.4" y="6.7" class="st1" width="2.4" height="29.2"/>
			<rect x="178.8" y="19.5" class="st1" width="2.4" height="16.6"/>
			<rect x="167.4" y="19.5" class="st1" width="2.4" height="16.6"/>
			<rect x="190" y="19.5" class="st1" width="2.4" height="16.6"/>
		</g>
		<rect x="152.5" y="26.1" class="st7" width="55.2" height="9.8"/>
		<polygon class="st1" points="194.2,0.5 194.2,23.7 181.4,23.7 165.4,23.7 165.4,0.5 152.3,0.5 152.3,35.9 155,35.9 155,11.3 
			160.6,11.3 160.6,34.5 181.4,34.5 199,34.5 199,11.3 204.6,11.3 204.6,35.9 207.4,35.9 207.4,0.5 		"/>
		<rect x="178.4" y="34.5" class="st1" width="2.8" height="1.4"/>
		<rect x="167.2" y="34.5" class="st1" width="2.8" height="1.4"/>
		<rect x="189.8" y="34.5" class="st1" width="2.8" height="1.4"/>
	</g>
	<g id="JST_12_">
		<g>
			<path class="st4" d="M91.9,48.1h-0.2c-2,0-3.6-1.6-3.6-3.6v-3.2c0-2,1.6-3.6,3.6-3.6h0.2c2,0,3.6,1.6,3.6,3.6v3.2
				C95.5,46.5,93.9,48.1,91.9,48.1z"/>
			<circle class="st5" cx="91.9" cy="42.9" r="2.2"/>
		</g>
		<g>
			<path class="st4" d="M103.3,48.1h-0.2c-2,0-3.6-1.6-3.6-3.6v-3.2c0-2,1.6-3.6,3.6-3.6h0.2c2,0,3.6,1.6,3.6,3.6v3.2
				C106.7,46.5,105.3,48.1,103.3,48.1z"/>
			<circle class="st5" cx="103.1" cy="42.9" r="2.2"/>
		</g>
		<g>
			<path class="st4" d="M114.5,48.1h-0.2c-2,0-3.6-1.6-3.6-3.6v-3.2c0-2,1.6-3.6,3.6-3.6h0.2c2,0,3.6,1.6,3.6,3.6v3.2
				C118.1,46.5,116.5,48.1,114.5,48.1z"/>
			<circle class="st5" cx="114.5" cy="42.9" r="2.2"/>
		</g>
		<g>
			<path class="st4" d="M129.5,41.5v-3.4c0-0.2-0.2-0.2-0.2-0.2h-6.6c-0.2,0-0.2,0.2-0.2,0.2v9.8c0,0.2,0.2,0.2,0.2,0.2h1.8v1.4h3
				v-1.4h1.8c0.2,0,0.2-0.2,0.2-0.2v-3.4h1.2v-3H129.5L129.5,41.5z"/>
			<circle class="st5" cx="125.9" cy="42.9" r="2.2"/>
		</g>
		<g>
			<rect x="90.1" y="34.5" class="st1" width="3.4" height="4"/>
			<path class="st6" d="M91.9,44.3L91.9,44.3c-1,0-1.8-0.8-1.8-1.6v-4.2h3.4v4C93.5,43.5,92.9,44.3,91.9,44.3z"/>
		</g>
		<g>
			<rect x="101.5" y="34.5" class="st1" width="3.4" height="4"/>
			<path class="st6" d="M103.3,44.3L103.3,44.3c-1,0-1.8-0.8-1.8-1.6v-4.2h3.4v4C104.9,43.5,104.1,44.3,103.3,44.3z"/>
		</g>
		<g>
			<rect x="112.9" y="34.5" class="st1" width="3.4" height="4"/>
			<path class="st6" d="M114.5,44.3L114.5,44.3c-1,0-1.8-0.8-1.8-1.6v-4.2h3.4v4C116.1,43.5,115.5,44.3,114.5,44.3z"/>
		</g>
		<g>
			<rect x="124.1" y="34.5" class="st1" width="3.4" height="4"/>
			<path class="st6" d="M125.9,44.3L125.9,44.3c-1,0-1.8-0.8-1.8-1.6v-4.2h3.4v4C127.5,43.5,126.7,44.3,125.9,44.3z"/>
		</g>
		<g>
			<rect x="81.1" y="36.5" class="st1" width="5.6" height="10.4"/>
			<rect x="81.1" y="46.9" class="st6" width="5.6" height="4.2"/>
		</g>
		<g>
			<rect x="130.7" y="36.5" class="st1" width="5.6" height="10.4"/>
			<rect x="130.7" y="46.9" class="st6" width="5.6" height="4.2"/>
		</g>
		<rect x="81.1" y="6.9" class="st6" width="55.4" height="29"/>
		<g>
			<rect x="101.9" y="6.7" class="st1" width="2.4" height="29.2"/>
			<rect x="113.3" y="6.7" class="st1" width="2.4" height="29.2"/>
			<rect x="107.7" y="19.5" class="st1" width="2.4" height="16.6"/>
			<rect x="96.3" y="19.5" class="st1" width="2.4" height="16.6"/>
			<rect x="118.9" y="19.5" class="st1" width="2.4" height="16.6"/>
		</g>
		<rect x="81.3" y="26.1" class="st7" width="55.2" height="9.8"/>
		<polygon class="st1" points="123.1,0.5 123.1,23.7 110.3,23.7 94.3,23.7 94.3,0.5 81.1,0.5 81.1,35.9 83.9,35.9 83.9,11.3 
			89.5,11.3 89.5,34.5 110.3,34.5 127.9,34.5 127.9,11.3 133.5,11.3 133.5,35.9 136.3,35.9 136.3,0.5 		"/>
		<rect x="107.3" y="34.5" class="st1" width="2.8" height="1.4"/>
		<rect x="96.1" y="34.5" class="st1" width="2.8" height="1.4"/>
		<rect x="118.7" y="34.5" class="st1" width="2.8" height="1.4"/>
	</g>
</g>
<g>
	<defs>
		<rect id="SVGID_1_" x="62" y="94" width="165" height="264.6"/>
	</defs>
	<clipPath id="SVGID_2_">
		<use xlink:href="#SVGID_1_"  style="overflow:visible;"/>
	</clipPath>
	<g style="clip-path:url(#SVGID_2_);">
		
			<image style="overflow:visible;" width="289" height="364" xlink:href="../Maker Playground/library/devices/MP-0021/asset/device.png"  transform="matrix(1 0 0 1 2.5 2.0758)">
		</image>
	</g>
</g>
<g>
	<g id="JST_11_">
		<g>
			<path class="st4" d="M245,92.7h3.2c2,0,3.6,1.6,3.6,3.6v0.2c0,2-1.6,3.6-3.6,3.6H245c-2,0-3.6-1.6-3.6-3.6v-0.2
				C241.4,94.3,243,92.7,245,92.7z"/>
			<circle class="st5" cx="246.6" cy="96.3" r="2.2"/>
		</g>
		<g>
			<path class="st4" d="M245,81.3h3.2c2,0,3.6,1.6,3.6,3.6v0.2c0,2-1.6,3.6-3.6,3.6H245c-2,0-3.6-1.6-3.6-3.6v-0.2
				C241.4,82.9,243,81.5,245,81.3z"/>
			<circle class="st5" cx="246.6" cy="85.1" r="2.2"/>
		</g>
		<g>
			<path class="st4" d="M245,70.1h3.2c2,0,3.6,1.6,3.6,3.6v0.2c0,2-1.6,3.6-3.6,3.6H245c-2,0-3.6-1.6-3.6-3.6v-0.2
				C241.4,71.7,243,70.1,245,70.1z"/>
			<circle class="st5" cx="246.6" cy="73.7" r="2.2"/>
		</g>
		<g>
			<path class="st4" d="M248,58.7v-1.2h-3v1.2h-3.4c0,0-0.2,0-0.2,0.2v1.8H240v3h1.4v1.8c0,0,0,0.2,0.2,0.2h9.8c0,0,0.2,0,0.2-0.2
				v-6.6c0,0,0-0.2-0.2-0.2H248L248,58.7z"/>
			<circle class="st5" cx="246.6" cy="62.3" r="2.2"/>
		</g>
		<g>
			<rect x="251" y="94.7" class="st1" width="4" height="3.4"/>
			<path class="st6" d="M247,94.7h4v3.4h-4.2c-0.8,0-1.6-0.8-1.6-1.8l0,0C245.2,95.3,246,94.7,247,94.7z"/>
		</g>
		<g>
			<rect x="251" y="83.3" class="st1" width="4" height="3.4"/>
			<path class="st6" d="M247,83.3h4v3.4h-4.2c-0.8,0-1.6-0.8-1.6-1.8l0,0C245.2,84.1,246,83.3,247,83.3z"/>
		</g>
		<g>
			<rect x="251" y="71.9" class="st1" width="4" height="3.4"/>
			<path class="st6" d="M247,72.1h4v3.4h-4.2c-0.8,0-1.6-0.8-1.6-1.8l0,0C245.2,72.7,246,72.1,247,72.1z"/>
		</g>
		<g>
			<rect x="251" y="60.7" class="st1" width="4" height="3.4"/>
			<path class="st6" d="M247,60.7h4v3.4h-4.2c-0.8,0-1.6-0.8-1.6-1.8l0,0C245.2,61.5,246,60.7,247,60.7z"/>
		</g>
		<g>
			<rect x="242.6" y="101.5" class="st1" width="10.4" height="5.6"/>
			<rect x="238.4" y="101.5" class="st6" width="4.2" height="5.6"/>
		</g>
		<g>
			<rect x="242.6" y="51.9" class="st1" width="10.4" height="5.6"/>
			<rect x="238.4" y="51.9" class="st6" width="4.2" height="5.6"/>
		</g>
		<rect x="253.6" y="51.7" class="st6" width="29" height="55.4"/>
		<g>
			<rect x="253.6" y="83.9" class="st1" width="29.2" height="2.4"/>
			<rect x="253.6" y="72.5" class="st1" width="29.2" height="2.4"/>
			<rect x="253.4" y="78.1" class="st1" width="16.6" height="2.4"/>
			<rect x="253.4" y="89.5" class="st1" width="16.6" height="2.4"/>
			<rect x="253.4" y="66.9" class="st1" width="16.6" height="2.4"/>
		</g>
		<rect x="253.6" y="51.7" class="st7" width="9.8" height="55.2"/>
		<polygon class="st1" points="289,51.9 253.6,51.9 253.6,54.7 278.2,54.7 278.2,60.3 255,60.3 255,77.9 255,98.7 278.2,98.7 
			278.2,104.3 253.6,104.3 253.6,107.1 289,107.1 289,93.9 265.8,93.9 265.8,77.9 265.8,65.1 289,65.1 		"/>
		<rect x="253.6" y="78.1" class="st1" width="1.4" height="2.8"/>
		<rect x="253.6" y="89.3" class="st1" width="1.4" height="2.8"/>
		<rect x="253.6" y="66.7" class="st1" width="1.4" height="2.8"/>
	</g>
	<g id="JST_10_">
		<g>
			<path class="st4" d="M245,160.8h3.2c2,0,3.6,1.6,3.6,3.6v0.2c0,2-1.6,3.6-3.6,3.6H245c-2,0-3.6-1.6-3.6-3.6v-0.2
				C241.4,162.4,243,160.8,245,160.8z"/>
			<circle class="st5" cx="246.6" cy="164.4" r="2.2"/>
		</g>
		<g>
			<path class="st4" d="M245,149.4h3.2c2,0,3.6,1.6,3.6,3.6v0.2c0,2-1.6,3.6-3.6,3.6H245c-2,0-3.6-1.6-3.6-3.6V153
				C241.4,151,243,149.6,245,149.4z"/>
			<circle class="st5" cx="246.6" cy="153.2" r="2.2"/>
		</g>
		<g>
			<path class="st4" d="M245,138.2h3.2c2,0,3.6,1.6,3.6,3.6v0.2c0,2-1.6,3.6-3.6,3.6H245c-2,0-3.6-1.6-3.6-3.6v-0.2
				C241.4,139.8,243,138.2,245,138.2z"/>
			<circle class="st5" cx="246.6" cy="141.8" r="2.2"/>
		</g>
		<g>
			<path class="st4" d="M248,126.8v-1.2h-3v1.2h-3.4c0,0-0.2,0-0.2,0.2v1.8H240v3h1.4v1.8c0,0,0,0.2,0.2,0.2h9.8c0,0,0.2,0,0.2-0.2
				V127c0,0,0-0.2-0.2-0.2H248L248,126.8z"/>
			<circle class="st5" cx="246.6" cy="130.4" r="2.2"/>
		</g>
		<g>
			<rect x="251" y="162.8" class="st1" width="4" height="3.4"/>
			<path class="st6" d="M247,162.8h4v3.4h-4.2c-0.8,0-1.6-0.8-1.6-1.8l0,0C245.2,163.4,246,162.8,247,162.8z"/>
		</g>
		<g>
			<rect x="251" y="151.4" class="st1" width="4" height="3.4"/>
			<path class="st6" d="M247,151.4h4v3.4h-4.2c-0.8,0-1.6-0.8-1.6-1.8l0,0C245.2,152.2,246,151.4,247,151.4z"/>
		</g>
		<g>
			<rect x="251" y="140" class="st1" width="4" height="3.4"/>
			<path class="st6" d="M247,140.2h4v3.4h-4.2c-0.8,0-1.6-0.8-1.6-1.8l0,0C245.2,140.8,246,140.2,247,140.2z"/>
		</g>
		<g>
			<rect x="251" y="128.8" class="st1" width="4" height="3.4"/>
			<path class="st6" d="M247,128.8h4v3.4h-4.2c-0.8,0-1.6-0.8-1.6-1.8l0,0C245.2,129.6,246,128.8,247,128.8z"/>
		</g>
		<g>
			<rect x="242.6" y="169.6" class="st1" width="10.4" height="5.6"/>
			<rect x="238.4" y="169.6" class="st6" width="4.2" height="5.6"/>
		</g>
		<g>
			<rect x="242.6" y="120" class="st1" width="10.4" height="5.6"/>
			<rect x="238.4" y="120" class="st6" width="4.2" height="5.6"/>
		</g>
		<rect x="253.6" y="119.8" class="st6" width="29" height="55.4"/>
		<g>
			<rect x="253.6" y="152" class="st1" width="29.2" height="2.4"/>
			<rect x="253.6" y="140.6" class="st1" width="29.2" height="2.4"/>
			<rect x="253.4" y="146.2" class="st1" width="16.6" height="2.4"/>
			<rect x="253.4" y="157.6" class="st1" width="16.6" height="2.4"/>
			<rect x="253.4" y="135" class="st1" width="16.6" height="2.4"/>
		</g>
		<rect x="253.6" y="119.8" class="st7" width="9.8" height="55.2"/>
		<polygon class="st1" points="289,120 253.6,120 253.6,122.8 278.2,122.8 278.2,128.4 255,128.4 255,146 255,166.8 278.2,166.8 
			278.2,172.4 253.6,172.4 253.6,175.2 289,175.2 289,162 265.8,162 265.8,146 265.8,133.2 289,133.2 		"/>
		<rect x="253.6" y="146.2" class="st1" width="1.4" height="2.8"/>
		<rect x="253.6" y="157.4" class="st1" width="1.4" height="2.8"/>
		<rect x="253.6" y="134.8" class="st1" width="1.4" height="2.8"/>
	</g>
	<g id="JST_8_">
		<g>
			<path class="st4" d="M245,229.2h3.2c2,0,3.6,1.6,3.6,3.6v0.2c0,2-1.6,3.6-3.6,3.6H245c-2,0-3.6-1.6-3.6-3.6v-0.2
				C241.4,230.8,243,229.2,245,229.2z"/>
			<circle class="st5" cx="246.6" cy="232.8" r="2.2"/>
		</g>
		<g>
			<path class="st4" d="M245,217.8h3.2c2,0,3.6,1.6,3.6,3.6v0.2c0,2-1.6,3.6-3.6,3.6H245c-2,0-3.6-1.6-3.6-3.6v-0.2
				C241.4,219.4,243,218,245,217.8z"/>
			<circle class="st5" cx="246.6" cy="221.6" r="2.2"/>
		</g>
		<g>
			<path class="st4" d="M245,206.6h3.2c2,0,3.6,1.6,3.6,3.6v0.2c0,2-1.6,3.6-3.6,3.6H245c-2,0-3.6-1.6-3.6-3.6v-0.2
				C241.4,208.2,243,206.6,245,206.6z"/>
			<circle class="st5" cx="246.6" cy="210.2" r="2.2"/>
		</g>
		<g>
			<path class="st4" d="M248,195.2V194h-3v1.2h-3.4c0,0-0.2,0-0.2,0.2v1.8H240v3h1.4v1.8c0,0,0,0.2,0.2,0.2h9.8c0,0,0.2,0,0.2-0.2
				v-6.6c0,0,0-0.2-0.2-0.2H248L248,195.2z"/>
			<circle class="st5" cx="246.6" cy="198.8" r="2.2"/>
		</g>
		<g>
			<rect x="251" y="231.2" class="st1" width="4" height="3.4"/>
			<path class="st6" d="M247,231.2h4v3.4h-4.2c-0.8,0-1.6-0.8-1.6-1.8l0,0C245.2,231.8,246,231.2,247,231.2z"/>
		</g>
		<g>
			<rect x="251" y="219.8" class="st1" width="4" height="3.4"/>
			<path class="st6" d="M247,219.8h4v3.4h-4.2c-0.8,0-1.6-0.8-1.6-1.8l0,0C245.2,220.6,246,219.8,247,219.8z"/>
		</g>
		<g>
			<rect x="251" y="208.4" class="st1" width="4" height="3.4"/>
			<path class="st6" d="M247,208.6h4v3.4h-4.2c-0.8,0-1.6-0.8-1.6-1.8l0,0C245.2,209.2,246,208.6,247,208.6z"/>
		</g>
		<g>
			<rect x="251" y="197.2" class="st1" width="4" height="3.4"/>
			<path class="st6" d="M247,197.2h4v3.4h-4.2c-0.8,0-1.6-0.8-1.6-1.8l0,0C245.2,198,246,197.2,247,197.2z"/>
		</g>
		<g>
			<rect x="242.6" y="238" class="st1" width="10.4" height="5.6"/>
			<rect x="238.4" y="238" class="st6" width="4.2" height="5.6"/>
		</g>
		<g>
			<rect x="242.6" y="188.4" class="st1" width="10.4" height="5.6"/>
			<rect x="238.4" y="188.4" class="st6" width="4.2" height="5.6"/>
		</g>
		<rect x="253.6" y="188.2" class="st6" width="29" height="55.4"/>
		<g>
			<rect x="253.6" y="220.4" class="st1" width="29.2" height="2.4"/>
			<rect x="253.6" y="209" class="st1" width="29.2" height="2.4"/>
			<rect x="253.4" y="214.6" class="st1" width="16.6" height="2.4"/>
			<rect x="253.4" y="226" class="st1" width="16.6" height="2.4"/>
			<rect x="253.4" y="203.4" class="st1" width="16.6" height="2.4"/>
		</g>
		<rect x="253.6" y="188.2" class="st7" width="9.8" height="55.2"/>
		<polygon class="st1" points="289,188.4 253.6,188.4 253.6,191.2 278.2,191.2 278.2,196.8 255,196.8 255,214.4 255,235.2 
			278.2,235.2 278.2,240.8 253.6,240.8 253.6,243.6 289,243.6 289,230.4 265.8,230.4 265.8,214.4 265.8,201.6 289,201.6 		"/>
		<rect x="253.6" y="214.6" class="st1" width="1.4" height="2.8"/>
		<rect x="253.6" y="225.8" class="st1" width="1.4" height="2.8"/>
		<rect x="253.6" y="203.2" class="st1" width="1.4" height="2.8"/>
	</g>
	<g id="JST_7_">
		<g>
			<path class="st4" d="M245,297.9h3.2c2,0,3.6,1.6,3.6,3.6v0.2c0,2-1.6,3.6-3.6,3.6H245c-2,0-3.6-1.6-3.6-3.6v-0.2
				C241.4,299.5,243,297.9,245,297.9z"/>
			<circle class="st5" cx="246.6" cy="301.5" r="2.2"/>
		</g>
		<g>
			<path class="st4" d="M245,286.5h3.2c2,0,3.6,1.6,3.6,3.6v0.2c0,2-1.6,3.6-3.6,3.6H245c-2,0-3.6-1.6-3.6-3.6v-0.2
				C241.4,288.1,243,286.7,245,286.5z"/>
			<circle class="st5" cx="246.6" cy="290.3" r="2.2"/>
		</g>
		<g>
			<path class="st4" d="M245,275.3h3.2c2,0,3.6,1.6,3.6,3.6v0.2c0,2-1.6,3.6-3.6,3.6H245c-2,0-3.6-1.6-3.6-3.6v-0.2
				C241.4,276.9,243,275.3,245,275.3z"/>
			<circle class="st5" cx="246.6" cy="278.9" r="2.2"/>
		</g>
		<g>
			<path class="st4" d="M248,263.9v-1.2h-3v1.2h-3.4c0,0-0.2,0-0.2,0.2v1.8H240v3h1.4v1.8c0,0,0,0.2,0.2,0.2h9.8c0,0,0.2,0,0.2-0.2
				v-6.6c0,0,0-0.2-0.2-0.2H248L248,263.9z"/>
			<circle class="st5" cx="246.6" cy="267.5" r="2.2"/>
		</g>
		<g>
			<rect x="251" y="299.9" class="st1" width="4" height="3.4"/>
			<path class="st6" d="M247,299.9h4v3.4h-4.2c-0.8,0-1.6-0.8-1.6-1.8l0,0C245.2,300.5,246,299.9,247,299.9z"/>
		</g>
		<g>
			<rect x="251" y="288.5" class="st1" width="4" height="3.4"/>
			<path class="st6" d="M247,288.5h4v3.4h-4.2c-0.8,0-1.6-0.8-1.6-1.8l0,0C245.2,289.3,246,288.5,247,288.5z"/>
		</g>
		<g>
			<rect x="251" y="277.1" class="st1" width="4" height="3.4"/>
			<path class="st6" d="M247,277.3h4v3.4h-4.2c-0.8,0-1.6-0.8-1.6-1.8l0,0C245.2,277.9,246,277.3,247,277.3z"/>
		</g>
		<g>
			<rect x="251" y="265.9" class="st1" width="4" height="3.4"/>
			<path class="st6" d="M247,265.9h4v3.4h-4.2c-0.8,0-1.6-0.8-1.6-1.8l0,0C245.2,266.7,246,265.9,247,265.9z"/>
		</g>
		<g>
			<rect x="242.6" y="306.7" class="st1" width="10.4" height="5.6"/>
			<rect x="238.4" y="306.7" class="st6" width="4.2" height="5.6"/>
		</g>
		<g>
			<rect x="242.6" y="257.1" class="st1" width="10.4" height="5.6"/>
			<rect x="238.4" y="257.1" class="st6" width="4.2" height="5.6"/>
		</g>
		<rect x="253.6" y="256.9" class="st6" width="29" height="55.4"/>
		<g>
			<rect x="253.6" y="289.1" class="st1" width="29.2" height="2.4"/>
			<rect x="253.6" y="277.7" class="st1" width="29.2" height="2.4"/>
			<rect x="253.4" y="283.3" class="st1" width="16.6" height="2.4"/>
			<rect x="253.4" y="294.7" class="st1" width="16.6" height="2.4"/>
			<rect x="253.4" y="272.1" class="st1" width="16.6" height="2.4"/>
		</g>
		<rect x="253.6" y="256.9" class="st7" width="9.8" height="55.2"/>
		<polygon class="st1" points="289,257.1 253.6,257.1 253.6,259.9 278.2,259.9 278.2,265.5 255,265.5 255,283.1 255,303.9 
			278.2,303.9 278.2,309.5 253.6,309.5 253.6,312.3 289,312.3 289,299.1 265.8,299.1 265.8,283.1 265.8,270.3 289,270.3 		"/>
		<rect x="253.6" y="283.3" class="st1" width="1.4" height="2.8"/>
		<rect x="253.6" y="294.5" class="st1" width="1.4" height="2.8"/>
		<rect x="253.6" y="271.9" class="st1" width="1.4" height="2.8"/>
	</g>
</g>
<rect x="120.7" y="325.8" width="51.5" height="33.7"/>
<g>
	<g>
		<rect x="126" y="332.5" class="st7" width="9.8" height="7.9"/>
		<rect x="126" y="332.5" class="st8" width="9.8" height="7.9"/>
	</g>
	<g>
		<rect x="158.1" y="332.5" class="st7" width="9.8" height="7.9"/>
		<rect x="158.1" y="332.5" class="st8" width="9.8" height="7.9"/>
	</g>
	<g id="micro_usb">
		<g>
			<path class="st1" d="M156.9,333.6c-1.1,0-1.9,0.9-1.9,1.9s0.9,1.9,1.9,1.9h2.8v1.4h-24.8v-1.4h2.6c1.1,0,1.9-0.9,1.9-1.9
				s-0.9-1.9-1.9-1.9h-6.3c-1.4,0-2.5,1.1-2.5,2.5v2.6v17.1h36.7v-16.9v-2.6c0-1.4-1.1-2.5-2.5-2.5h-6.2V333.6z"/>
			<rect x="131.2" y="357.5" class="st6" width="32" height="2.1"/>
			<rect x="141.3" y="332.5" class="st1" width="12" height="6.3"/>
			<polygon class="st6" points="133,330.4 133,331.4 141.3,331.4 141.3,332.5 153.2,332.5 153.2,331.4 161.5,331.4 161.5,330.4 			
				"/>
			<polygon class="st7" points="165.7,355.7 165.7,355.7 128.8,355.7 127.4,357.1 128.4,358.2 129.3,357.5 165,357.5 166.1,358.2 
				166.9,357.1 			"/>
			<path class="st6" d="M137.6,350.6h-0.9v-5.5c0-0.5-0.4-0.9-0.9-0.9h-1.8c-0.5,0-0.9,0.4-0.9,0.9v5.5h-0.9c-0.4,0-0.7,0.4-0.7,0.7
				c0,0.4,0.4,0.7,0.7,0.7h5.3c0.4,0,0.7-0.4,0.7-0.7C138.3,351,137.9,350.6,137.6,350.6z"/>
			<rect x="133.7" y="347.6" class="st9" width="2.5" height="1.2"/>
			<rect x="146" y="337.8" class="st9" width="2.5" height="1.2"/>
			<polyline class="st10" points="133.5,352 133.5,353.8 136.3,353.8 136.3,352 			"/>
			<path class="st6" d="M161.8,350.6H161v-5.5c0-0.5-0.4-0.9-0.9-0.9h-1.8c-0.5,0-0.9,0.4-0.9,0.9v5.5h-0.9c-0.4,0-0.7,0.4-0.7,0.7
				c0,0.4,0.4,0.7,0.7,0.7h5.3c0.4,0,0.7-0.4,0.7-0.7C162.5,351,162.2,350.6,161.8,350.6z"/>
			<rect x="158" y="347.6" class="st9" width="2.5" height="1.2"/>
			<polyline class="st10" points="157.8,352 157.8,353.8 160.8,353.8 160.8,352 			"/>
		</g>
		<g>
			<rect x="140.9" y="327.4" class="st11" width="1.6" height="3"/>
			<rect x="140.9" y="326" class="st4" width="1.6" height="1.4"/>
		</g>
		<g>
			<rect x="144.1" y="327.4" class="st11" width="1.6" height="3"/>
			<rect x="144.1" y="326" class="st4" width="1.6" height="1.4"/>
		</g>
		<g>
			<rect x="147.2" y="327.4" class="st11" width="1.6" height="3"/>
			<rect x="147.2" y="326" class="st4" width="1.6" height="1.4"/>
		</g>
		<g>
			<rect x="150.6" y="327.4" class="st11" width="1.6" height="3"/>
		</g>
		<g>
			<rect x="153.7" y="327.4" class="st11" width="1.6" height="3"/>
			<rect x="153.7" y="326" class="st4" width="1.6" height="1.4"/>
		</g>
		<rect x="133" y="331.4" class="st7" width="8.3" height="1.1"/>
		<rect x="153.2" y="331.4" class="st7" width="8.3" height="1.1"/>
	</g>
</g>
<text transform="matrix(-1.407608e-002 -0.9999 0.9999 -1.407608e-002 238.5442 87.9804)" class="st1 st2 st12">I2C</text>
<text transform="matrix(-1.407608e-002 -0.9999 0.9999 -1.407608e-002 238.5445 156.2304)" class="st1 st2 st12">I2C</text>
<text transform="matrix(-1.407608e-002 -0.9999 0.9999 -1.407608e-002 238.5445 223.7304)" class="st1 st2 st12">D1</text>
<text transform="matrix(-1.407608e-002 -0.9999 0.9999 -1.407608e-002 238.5441 291.7304)" class="st1 st2 st12">D2</text>
<text transform="matrix(1 1.852188e-003 -1.852188e-003 1 101.4236 58.0123)" class="st1 st2 st12">A1</text>
<text transform="matrix(1 1.852188e-003 -1.852188e-003 1 172.5896 58.013)" class="st1 st2 st12">A2</text>
<text transform="matrix(7.690163e-003 1 -1 7.690163e-003 49.6015 71.9685)" class="st1 st2 st12">D6</text>
<text transform="matrix(7.690163e-003 1 -1 7.690163e-003 49.6015 139.9685)" class="st1 st2 st12">D5</text>
<text transform="matrix(7.690163e-003 1 -1 7.690163e-003 49.6015 208.4685)" class="st1 st2 st12">D4</text>
<text transform="matrix(7.690163e-003 1 -1 7.690163e-003 49.6015 277.1345)" class="st1 st2 st12">D3</text>
<g>
	<defs>
		<rect id="SVGID_3_" x="203.6" y="54.7" width="24" height="29.2"/>
	</defs>
	<clipPath id="SVGID_4_">
		<use xlink:href="#SVGID_3_"  style="overflow:visible;"/>
	</clipPath>
	<g style="clip-path:url(#SVGID_4_);">
		
			<image style="overflow:visible;" width="289" height="364" xlink:href="../Maker Playground/library/devices/MP-0021/asset/device.png"  transform="matrix(1 0 0 1 -2.6932 0)">
		</image>
	</g>
</g>
</svg>
