<?xml version="1.0" encoding="utf-8"?>
<!-- Generator: Adobe Illustrator 23.0.1, SVG Export Plug-In . SVG Version: 6.00 Build 0)  -->
<svg version="1.1" id="Layer_1" xmlns="http://www.w3.org/2000/svg" xmlns:xlink="http://www.w3.org/1999/xlink" x="0px" y="0px"
	 viewBox="0 0 62.4 164.8" style="enable-background:new 0 0 62.4 164.8;" xml:space="preserve">
<style type="text/css">
	.st0{fill:#C9B55E;}
	.st1{fill:#7C6B2B;}
	.st2{fill:#FFFFFF;}
	.st3{font-family:'ArialRoundedMTBold';}
	.st4{font-size:4.2607px;}
	.st5{fill:#C6C5C5;}
	.st6{fill:#474748;}
	.st7{fill:none;stroke:#FFFFFF;stroke-width:0.25;stroke-miterlimit:10;}
	.st8{fill:#040202;}
	.st9{fill:#DDDDDC;}
	.st10{fill:#EDEDF2;}
</style>
<g>
	<path d="M0,123.4l20.9,0l0,0c0,1.4,1.1,2.6,2.6,2.6h15.4c1.4,0,2.6-1.1,2.6-2.6l0,0l20.9,0v32.7c0,4.8-3.9,8.7-8.7,8.7h-45
		c-4.8,0-8.7-3.9-8.7-8.7V123.4z"/>
	<g>
		<path class="st0" d="M62.4,123.4V25.7c0-3.2-0.5-6.4-1.4-9.4L56.5,2.2C56,0.9,54.8,0,53.5,0h-3.1c-1.4,0-2.6,0.9-3,2.2l-4.5,14.1
			c-1,3-1.4,6.2-1.4,9.4v97.7H62.4z"/>
		<circle class="st1" cx="58" cy="118.1" r="0.6"/>
		<circle class="st1" cx="51.8" cy="118.1" r="0.6"/>
		<circle class="st1" cx="55.3" cy="104.4" r="0.6"/>
		<circle class="st1" cx="48.4" cy="104.4" r="0.6"/>
		<circle class="st1" cx="45.6" cy="118.1" r="0.6"/>
		<circle class="st1" cx="58" cy="90.7" r="0.6"/>
		<circle class="st1" cx="51.8" cy="90.7" r="0.6"/>
		<circle class="st1" cx="55.3" cy="77" r="0.6"/>
		<circle class="st1" cx="48.4" cy="77" r="0.6"/>
		<circle class="st1" cx="45.6" cy="90.7" r="0.6"/>
		<circle class="st1" cx="58" cy="63.3" r="0.6"/>
		<circle class="st1" cx="51.8" cy="63.3" r="0.6"/>
		<circle class="st1" cx="55.3" cy="49.5" r="0.6"/>
		<circle class="st1" cx="48.4" cy="49.5" r="0.6"/>
		<circle class="st1" cx="45.6" cy="63.3" r="0.6"/>
		<circle class="st1" cx="58" cy="35.9" r="0.6"/>
		<circle class="st1" cx="51.8" cy="35.9" r="0.6"/>
		<circle class="st1" cx="51.8" cy="8.3" r="0.6"/>
		<circle class="st1" cx="55.3" cy="22.1" r="0.6"/>
		<circle class="st1" cx="48.4" cy="22.1" r="0.6"/>
		<circle class="st1" cx="45.6" cy="35.9" r="0.6"/>
	</g>
	<g>
		<path class="st0" d="M20.9,123.4V25.7c0-3.2-0.5-6.4-1.4-9.4L15,2.2C14.6,0.9,13.4,0,12,0H8.9c-1.4,0-2.6,0.9-3,2.2L1.4,16.3
			c-1,3-1.4,6.2-1.4,9.4v97.7H20.9z"/>
		<circle class="st1" cx="16.5" cy="118.1" r="0.6"/>
		<circle class="st1" cx="10.4" cy="118.1" r="0.6"/>
		<circle class="st1" cx="13.8" cy="104.4" r="0.6"/>
		<circle class="st1" cx="6.9" cy="104.4" r="0.6"/>
		<circle class="st1" cx="4.2" cy="118.1" r="0.6"/>
		<circle class="st1" cx="16.5" cy="90.7" r="0.6"/>
		<circle class="st1" cx="10.4" cy="90.7" r="0.6"/>
		<circle class="st1" cx="13.8" cy="77" r="0.6"/>
		<circle class="st1" cx="6.9" cy="77" r="0.6"/>
		<circle class="st1" cx="4.2" cy="90.7" r="0.6"/>
		<circle class="st1" cx="16.5" cy="63.3" r="0.6"/>
		<circle class="st1" cx="10.4" cy="63.3" r="0.6"/>
		<circle class="st1" cx="13.8" cy="49.5" r="0.6"/>
		<circle class="st1" cx="6.9" cy="49.5" r="0.6"/>
		<circle class="st1" cx="4.2" cy="63.3" r="0.6"/>
		<circle class="st1" cx="16.5" cy="35.9" r="0.6"/>
		<circle class="st1" cx="10.4" cy="35.9" r="0.6"/>
		<circle class="st1" cx="10.4" cy="8.3" r="0.6"/>
		<circle class="st1" cx="13.8" cy="22.1" r="0.6"/>
		<circle class="st1" cx="6.9" cy="22.1" r="0.6"/>
		<circle class="st1" cx="4.2" cy="35.9" r="0.6"/>
	</g>
	<text transform="matrix(-1 0 0 -1 44.4717 128.4375)" class="st2 st3 st4">Soil Moisture</text>
	<g>
		<g>
			
				<rect x="38.4" y="138" transform="matrix(6.123234e-17 -1 1 6.123234e-17 -100.0174 179.019)" class="st5" width="2.2" height="3.1"/>
			<g>
				<path class="st1" d="M41,138.4v2.2H38v-2.2H41 M41.5,137.9H41H38h-0.5v0.5v2.2v0.5H38H41h0.5v-0.5v-2.2V137.9L41.5,137.9z"/>
			</g>
			
				<rect x="40.9" y="139.2" transform="matrix(6.123234e-17 -1 1 6.123234e-17 -98.1969 180.8396)" class="st0" width="0.8" height="0.5"/>
		</g>
		<g>
			
				<rect x="38.4" y="132.4" transform="matrix(6.123234e-17 -1 1 6.123234e-17 -94.4487 173.4503)" class="st5" width="2.2" height="3.1"/>
			<g>
				<path class="st1" d="M41,132.9v2.2H38v-2.2H41 M41.5,132.4H41H38h-0.5v0.5v2.2v0.5H38H41h0.5V135v-2.2V132.4L41.5,132.4z"/>
			</g>
			
				<rect x="39.1" y="132.3" transform="matrix(-1 -1.224647e-16 1.224647e-16 -1 79.1276 265.1976)" class="st0" width="0.8" height="0.5"/>
			
				<rect x="37.3" y="133.7" transform="matrix(-1.836970e-16 1 -1 -1.836970e-16 171.6298 96.2692)" class="st0" width="0.8" height="0.5"/>
		</g>
		<g>
			
				<rect x="39.1" y="137.7" transform="matrix(6.123234e-17 -1 1 6.123234e-17 -99.4159 178.4403)" class="st2" width="0.9" height="2.5"/>
			
				<rect x="39.1" y="133.6" transform="matrix(6.123234e-17 -1 1 6.123234e-17 -95.3081 174.3325)" class="st2" width="0.9" height="2.5"/>
			
				<rect x="37.9" y="135.6" transform="matrix(6.123234e-17 -1 1 6.123234e-17 -97.362 176.3864)" class="st6" width="3.2" height="2.5"/>
		</g>
		<line class="st7" x1="38" y1="137.6" x2="38" y2="135.9"/>
		<line class="st7" x1="41.2" y1="137.6" x2="41.2" y2="135.9"/>
	</g>
	<g>
		<g>
			
				<rect x="21.9" y="138" transform="matrix(6.123234e-17 -1 1 6.123234e-17 -116.5862 162.4503)" class="st5" width="2.2" height="3.1"/>
			<g>
				<path class="st1" d="M24.5,138.4v2.2h-3.1v-2.2H24.5 M25,137.9h-0.5h-3.1h-0.5v0.5v2.2v0.5h0.5h3.1H25v-0.5v-2.2V137.9L25,137.9
					z"/>
			</g>
			
				<rect x="24.3" y="139.2" transform="matrix(6.123234e-17 -1 1 6.123234e-17 -114.7656 164.2708)" class="st0" width="0.8" height="0.5"/>
		</g>
		<g>
			
				<rect x="21.9" y="132.4" transform="matrix(6.123234e-17 -1 1 6.123234e-17 -111.0174 156.8815)" class="st5" width="2.2" height="3.1"/>
			<g>
				<path class="st1" d="M24.5,132.9v2.2h-3.1v-2.2H24.5 M25,132.4h-0.5h-3.1h-0.5v0.5v2.2v0.5h0.5h3.1H25V135v-2.2V132.4L25,132.4z
					"/>
			</g>
			
				<rect x="22.6" y="132.3" transform="matrix(-1 -1.224647e-16 1.224647e-16 -1 45.9901 265.1976)" class="st0" width="0.8" height="0.5"/>
			
				<rect x="20.7" y="133.7" transform="matrix(-1.836970e-16 1 -1 -1.836970e-16 155.061 112.8379)" class="st0" width="0.8" height="0.5"/>
		</g>
		<g>
			
				<rect x="22.5" y="137.7" transform="matrix(6.123234e-17 -1 1 6.123234e-17 -115.9847 161.8716)" class="st2" width="0.9" height="2.5"/>
			
				<rect x="22.5" y="133.6" transform="matrix(6.123234e-17 -1 1 6.123234e-17 -111.8768 157.7638)" class="st2" width="0.9" height="2.5"/>
			
				<rect x="21.3" y="135.6" transform="matrix(6.123234e-17 -1 1 6.123234e-17 -113.9307 159.8177)" class="st6" width="3.2" height="2.5"/>
		</g>
		<line class="st7" x1="21.4" y1="137.6" x2="21.4" y2="135.9"/>
		<line class="st7" x1="24.6" y1="137.6" x2="24.6" y2="135.9"/>
	</g>
	<g id="JST_10_">
		<g>
			<path class="st0" d="M40.2,142h0.4c1,0,1.8,0.8,1.8,1.8v1.2c0,1-0.8,1.8-1.8,1.8h-0.4c-1,0-1.8-0.8-1.8-1.8v-1.2
				C38.4,142.8,39.2,142,40.2,142z"/>
			<ellipse class="st8" cx="40.4" cy="144.5" rx="1.2" ry="1"/>
		</g>
		<g>
			<path class="st0" d="M34,142h0.4c1,0,1.8,0.8,1.8,1.8v1.2c0,1-0.8,1.8-1.8,1.8H34c-1,0-1.8-0.8-1.8-1.8v-1.2
				C32.2,142.8,33,142,34,142z"/>
			<ellipse class="st8" cx="34.2" cy="144.5" rx="1.2" ry="1"/>
		</g>
		<g>
			<path class="st0" d="M27.7,142h0.4c1,0,1.8,0.8,1.8,1.8v1.2c0,1-0.8,1.8-1.8,1.8h-0.4c-1,0-1.8-0.8-1.8-1.8v-1.2
				C25.9,142.8,26.7,142,27.7,142z"/>
			<ellipse class="st8" cx="27.9" cy="144.5" rx="1.2" ry="1"/>
		</g>
		<g>
			<path class="st0" d="M19.7,145.2v1.6c0,0.1,0.1,0.1,0.2,0.1h3.7c0.1,0,0.2-0.1,0.2-0.1v-4.6c0-0.1-0.1-0.1-0.2-0.1h-1v-0.7h-1.7
				v0.7h-1c-0.1,0-0.2,0.1-0.2,0.1v1.6h-0.8v1.4H19.7z"/>
			<ellipse class="st8" cx="21.7" cy="144.5" rx="1.2" ry="1"/>
		</g>
		<g>
			
				<rect x="39.5" y="146.6" transform="matrix(-1 -1.224647e-16 1.224647e-16 -1 80.8579 295.101)" class="st2" width="1.9" height="1.9"/>
			<path class="st9" d="M40.3,143.9h0.2c0.5,0,0.8,0.4,0.8,0.8v1.9h-1.9v-1.9C39.5,144.2,39.9,143.9,40.3,143.9z"/>
		</g>
		<g>
			
				<rect x="33.2" y="146.6" transform="matrix(-1 -1.224647e-16 1.224647e-16 -1 68.3454 295.101)" class="st2" width="1.9" height="1.9"/>
			<path class="st9" d="M34.1,143.9h0.2c0.5,0,0.8,0.4,0.8,0.8v1.9h-1.9v-1.9C33.2,144.2,33.6,143.9,34.1,143.9z"/>
		</g>
		<g>
			
				<rect x="27" y="146.6" transform="matrix(-1 -1.224647e-16 1.224647e-16 -1 55.8329 295.101)" class="st2" width="1.9" height="1.9"/>
			<path class="st9" d="M27.8,143.9H28c0.5,0,0.8,0.4,0.8,0.8v1.9H27v-1.9C27,144.2,27.4,143.9,27.8,143.9z"/>
		</g>
		<g>
			
				<rect x="20.7" y="146.6" transform="matrix(-1 -1.224647e-16 1.224647e-16 -1 43.3204 295.101)" class="st2" width="1.9" height="1.9"/>
			<path class="st9" d="M21.6,143.9h0.2c0.5,0,0.8,0.4,0.8,0.8v1.9h-1.9v-1.9C20.7,144.2,21.1,143.9,21.6,143.9z"/>
		</g>
		<g>
			
				<rect x="43.3" y="142.6" transform="matrix(-1 -1.224647e-16 1.224647e-16 -1 89.6622 290.1362)" class="st2" width="3.1" height="5"/>
			
				<rect x="43.3" y="140.6" transform="matrix(-1 -1.224647e-16 1.224647e-16 -1 89.6622 283.1933)" class="st9" width="3.1" height="2"/>
		</g>
		<g>
			
				<rect x="15.8" y="142.6" transform="matrix(-1 -1.224647e-16 1.224647e-16 -1 34.7037 290.1362)" class="st2" width="3.1" height="5"/>
			
				<rect x="15.8" y="140.6" transform="matrix(-1 -1.224647e-16 1.224647e-16 -1 34.7037 283.1933)" class="st9" width="3.1" height="2"/>
		</g>
		
			<rect x="15.8" y="147.8" transform="matrix(-1 -1.224647e-16 1.224647e-16 -1 62.1829 309.5011)" class="st9" width="30.6" height="13.8"/>
		<g>
			
				<rect x="33.6" y="147.8" transform="matrix(-1 -1.224647e-16 1.224647e-16 -1 68.4829 309.5407)" class="st2" width="1.3" height="13.9"/>
			
				<rect x="27.3" y="147.8" transform="matrix(-1 -1.224647e-16 1.224647e-16 -1 55.8443 309.5407)" class="st2" width="1.3" height="13.9"/>
			
				<rect x="30.4" y="147.8" transform="matrix(-1 -1.224647e-16 1.224647e-16 -1 62.0891 303.5176)" class="st2" width="1.3" height="7.9"/>
			
				<rect x="36.6" y="147.8" transform="matrix(-1 -1.224647e-16 1.224647e-16 -1 74.6016 303.5176)" class="st2" width="1.3" height="7.9"/>
			
				<rect x="24.1" y="147.8" transform="matrix(-1 -1.224647e-16 1.224647e-16 -1 49.5766 303.5176)" class="st2" width="1.3" height="7.9"/>
		</g>
		
			<rect x="15.8" y="147.8" transform="matrix(-1 -1.224647e-16 1.224647e-16 -1 62.0891 300.3428)" class="st10" width="30.5" height="4.7"/>
		<polygon class="st2" points="23.1,164.7 23.1,153.7 30.3,153.7 39.1,153.7 39.1,164.7 46.4,164.7 46.4,147.8 44.8,147.8 
			44.8,159.6 41.7,159.6 41.7,148.5 30.3,148.5 20.5,148.5 20.5,159.6 17.4,159.6 17.4,147.8 15.8,147.8 15.8,164.7 		"/>
		
			<rect x="30.3" y="147.8" transform="matrix(-1 -1.224647e-16 1.224647e-16 -1 62.112 296.3472)" class="st2" width="1.6" height="0.7"/>
		
			<rect x="36.5" y="147.8" transform="matrix(-1 -1.224647e-16 1.224647e-16 -1 74.6016 296.3472)" class="st2" width="1.6" height="0.7"/>
		
			<rect x="24" y="147.8" transform="matrix(-1 -1.224647e-16 1.224647e-16 -1 49.5766 296.3472)" class="st2" width="1.6" height="0.7"/>
	</g>
	<g>
		<g>
			
				<rect x="32.7" y="133.5" transform="matrix(-1 -1.224647e-16 1.224647e-16 -1 67.5932 269.5872)" class="st5" width="2.2" height="2.5"/>
			<g>
				<path class="st1" d="M34.9,133.5v2.5h-2.2v-2.5H34.9 M35.4,133h-0.5h-2.2h-0.5v0.5v2.5v0.5h0.5h2.2h0.5v-0.5v-2.5V133L35.4,133z
					"/>
			</g>
		</g>
		<g>
			
				<rect x="30.2" y="138.7" transform="matrix(-1 -1.224647e-16 1.224647e-16 -1 62.5609 279.8729)" class="st5" width="2.2" height="2.5"/>
			<g>
				<path class="st1" d="M32.4,138.7v2.5h-2.2v-2.5H32.4 M32.9,138.2h-0.5h-2.2h-0.5v0.5v2.5v0.5h0.5h2.2h0.5v-0.5v-2.5V138.2
					L32.9,138.2z"/>
			</g>
		</g>
		<g>
			
				<rect x="27.5" y="133.5" transform="matrix(-1 -1.224647e-16 1.224647e-16 -1 57.0973 269.5872)" class="st5" width="2.2" height="2.5"/>
			<g>
				<path class="st1" d="M29.6,133.5v2.5h-2.2v-2.5H29.6 M30.1,133h-0.5h-2.2H27v0.5v2.5v0.5h0.5h2.2h0.5v-0.5v-2.5V133L30.1,133z"
					/>
			</g>
		</g>
		
			<rect x="33.2" y="133.9" transform="matrix(-1 -1.224647e-16 1.224647e-16 -1 67.6943 270.0054)" class="st2" width="1.2" height="2.1"/>
		
			<rect x="27.9" y="133.9" transform="matrix(-1 -1.224647e-16 1.224647e-16 -1 57.038 270.0054)" class="st2" width="1.2" height="2.1"/>
		
			<rect x="30.7" y="139.6" transform="matrix(-1 -1.224647e-16 1.224647e-16 -1 62.5609 280.6291)" class="st2" width="1.2" height="1.5"/>
		
			<rect x="27.5" y="136.1" transform="matrix(-1 -1.224647e-16 1.224647e-16 -1 62.5609 275.5742)" class="st6" width="7.6" height="3.5"/>
		<line class="st7" x1="35.8" y1="139.5" x2="35.8" y2="133.4"/>
		<polyline class="st7" points="27.3,139.4 27,139.4 27,136.9 		"/>
	</g>
	<g>
		<g>
			<polygon class="st2" points="11.5,148 5.4,154.1 6.6,154.1 9,151.7 9.7,152.3 7.8,154.1 9,154.1 10.3,152.9 10.9,153.5 
				10.3,154.1 11.5,154.1 			"/>
			<polygon class="st2" points="5.3,147.9 5.3,149 7.5,151.1 8,150.6 			"/>
			<polygon class="st2" points="5.3,150.1 5.3,151.1 6.4,152.2 7,151.7 			"/>
			<polygon class="st2" points="5.3,152.2 5.3,153.3 5.9,152.7 			"/>
		</g>
	</g>
</g>
</svg>
