<?xml version="1.0" encoding="utf-8"?>
<!-- Generator: Adobe Illustrator 19.0.0, SVG Export Plug-In . SVG Version: 6.00 Build 0)  -->
<svg version="1.1" id="Layer_1" xmlns="http://www.w3.org/2000/svg" xmlns:xlink="http://www.w3.org/1999/xlink" x="0px" y="0px"
	 viewBox="0 0 56.7 56.7" style="enable-background:new 0 0 56.7 56.7;" xml:space="preserve">
<style type="text/css">
	.st0{fill:#274A88;}
	.st1{fill:#EDEDF2;}
	.st2{fill:#DDDDDC;}
	.st3{fill:#FFFFFF;}
	.st4{fill:none;stroke:#000000;stroke-width:8.812200e-002;stroke-miterlimit:10;}
	.st5{fill:#C9B55E;}
	.st6{font-family:'Consolas';}
	.st7{font-size:3.75px;}
	.st8{font-family:'SegoeMDL2Assets';}
	.st9{fill:none;stroke:#FFFFFF;stroke-width:0.25;stroke-miterlimit:10;}
	.st10{fill:#474748;}
	.st11{opacity:0.7;fill:#EDEEF2;}
	.st12{fill:#7C6B2B;stroke:#C6C5C5;stroke-miterlimit:10;}
	.st13{fill:#282828;}
	.st14{fill:#DA9B32;}
	.st15{fill:#FFB926;}
	.st16{clip-path:url(#XMLID_32_);fill:#E8A123;stroke:#D38E20;stroke-width:0.15;stroke-miterlimit:10;}
</style>
<path id="rect2992" class="st0" d="M28.4-4.3c-2.5,0-4.5,2-4.5,4.5H2.3C1,0.2,0,1.2,0,2.4V24c2.5,0,4.5,2,4.5,4.5S2.5,33,0,33v21.6
	c0,1.3,1,2.3,2.3,2.3h21.6c0,2.5,2,4.5,4.5,4.5s4.5-2,4.5-4.5h21.6c1.3,0,2.3-1,2.3-2.3V33c-2.5,0-4.5-2-4.5-4.5s2-4.5,4.5-4.5V2.4
	c0-1.3-1-2.3-2.3-2.3H32.8C32.8-2.3,30.8-4.3,28.4-4.3z M28.4-2.4c1.4,0,2.6,1.2,2.6,2.6s-1.2,2.6-2.6,2.6s-2.6-1.2-2.6-2.6
	S26.9-2.4,28.4-2.4z M28.4,54.3c1.4,0,2.6,1.1,2.6,2.6s-1.2,2.6-2.6,2.6s-2.6-1.2-2.6-2.6S26.9,54.3,28.4,54.3z"/>
<g id="XMLID_98_">
	<g id="g3109_1_" transform="matrix(0 1.2499976 -1.2499976 0 1338.60444 1003.15358)">
		<g id="g33658-1_1_" transform="translate(-1.6000031,0)">
			<path id="path16826-7_1_" class="st1" d="M-767.3,1068.3h-3.6v-1.2l2.4,0v-7.2h-3.9v-1.2h1.3v-1.8h3.8V1068.3z"/>
			<path id="path16828-7_1_" class="st1" d="M-786.3,1068.3h-3.6v-11.4h3.8v1.8h1.3v1.2h-3.9v7.2h2.4V1068.3z"/>
			<path id="path16830-7_1_" class="st2" d="M-788.6,1059.9h3.9h12.2h3.9v7.2l-2.4,0h-15.4h-2.4L-788.6,1059.9L-788.6,1059.9z
				 M-772.4,1062.9v1.1h1.1v-1.1H-772.4z M-776.9,1064.1h1.1v-1.1h-1.1V1064.1z M-784.8,1064.1v-1.1h-1.1v1.1H-784.8z
				 M-781.4,1062.9v1.1h1.1v-1.1H-781.4z"/>
			<path id="path16832-7_1_" class="st3" d="M-786.3,1068.3v-1.2h15.4v1.2H-786.3z"/>
			<path id="path16834-3_1_" class="st3" d="M-774.7,1058.7h2.2v1.2h-12.2v-1.2h2.2H-774.7L-774.7,1058.7z"/>
			<path id="path16836-3_1_" class="st1" d="M-774.7,1056.8v1.9h-7.8v-1.9H-774.7z"/>
			<path id="path22220-2_4_" class="st4" d="M-770.9,1068.3"/>
			<path id="path22220-2_3_" class="st4" d="M-786.3,1068.3"/>
			<path id="path22246-8_4_" class="st4" d="M-788.6,1059.9"/>
			<path id="path22246-8_3_" class="st4" d="M-788.6,1067.1"/>
			<path id="path22248-0_4_" class="st4" d="M-788.6,1067.1"/>
			<path id="path22248-0_3_" class="st4" d="M-786.3,1067.1"/>
			<path id="path22250-1_4_" class="st4" d="M-786.3,1067.1"/>
			<path id="path22250-1_3_" class="st4" d="M-786.3,1068.3"/>
			<path id="path22252-2_4_" class="st4" d="M-789.9,1068.3"/>
			<path id="path22252-2_3_" class="st4" d="M-786.3,1068.3"/>
			<path id="path22276-4_4_" class="st4" d="M-786.1,1056.9"/>
			<path id="path22276-4_3_" class="st4" d="M-789.9,1056.9"/>
			<path id="path29510-1_4_" class="st4" d="M-789.9,1056.9"/>
			<path id="path29510-1_3_" class="st4" d="M-789.9,1068.3"/>
		</g>
		<path id="connector3pin_1_" class="st5" d="M-774,1062.9h1.1v1.1h-1.1V1062.9z"/>
		<path id="connector2pin_1_" class="st5" d="M-777.4,1064.1h-1.1v-1.1h1.1V1064.1z"/>
		<path id="connector1pin_1_" class="st5" d="M-781.9,1062.9v1.1h-1.1v-1.1H-781.9z"/>
		<path id="connector0pin_1_" class="st5" d="M-786.4,1062.9v1.1h-1.1v-1.1H-786.4z"/>
	</g>
</g>
<text id="XMLID_97_" transform="matrix(1 0 0 1 18.3432 20.8242)" class="st3 st6 st7">GND</text>
<text id="XMLID_96_" transform="matrix(0 -1 1 0 10.8421 11.8228)" class="st3 st6 st7">J1</text>
<text id="XMLID_95_" transform="matrix(1 0 0 1 18.3432 26.2246)" class="st3 st6 st7">VCC</text>
<text id="XMLID_94_" transform="matrix(1 0 0 1 18.3432 31.625)" class="st3 st6 st7">NC</text>
<text id="XMLID_93_" transform="matrix(1 0 0 1 18.3432 37.0255)" class="st3 st6 st7">SIG</text>
<text id="XMLID_92_" transform="matrix(0 -1 1 0 26.0921 33.6851)" class="st3 st6 st7">R1</text>
<text id="XMLID_91_" transform="matrix(0 -1 1 0 48.9049 35.6246)" class="st3 st6 st7">R3</text>
<text id="XMLID_90_" transform="matrix(1 0 0 1 47.249 18.8044)" class="st3 st6 st7">R2</text>
<text id="XMLID_89_" transform="matrix(1 0 0 1 34.6846 55.5544)" class="st3 st6 st7">D1</text>
<text id="XMLID_88_" transform="matrix(1 0 0 1 50.9971 55.5544)" class="st3 st8 st7"></text>
<text id="XMLID_87_" transform="matrix(1 0 0 1 21.874 40.8287)" class="st3 st6 st7">R4</text>
<text id="XMLID_86_" transform="matrix(1 0 0 1 21.874 44.5162)" class="st3 st6 st7">Q1</text>
<g id="XMLID_80_">
	<rect id="XMLID_85_" x="26.7" y="30.1" class="st9" width="8.4" height="3.6"/>
	<g id="XMLID_81_">
		<rect id="XMLID_84_" x="27.5" y="30.8" class="st3" width="1.2" height="2.3"/>
		<rect id="XMLID_83_" x="33.2" y="30.8" class="st3" width="1.2" height="2.3"/>
		<rect id="XMLID_82_" x="28.7" y="30.8" class="st10" width="4.5" height="2.3"/>
	</g>
</g>
<g id="XMLID_74_">
	<rect id="XMLID_79_" x="26.7" y="35.2" class="st9" width="8.4" height="3.6"/>
	<g id="XMLID_75_">
		<rect id="XMLID_78_" x="27.5" y="35.9" class="st3" width="1.2" height="2.3"/>
		<rect id="XMLID_77_" x="33.2" y="35.9" class="st3" width="1.2" height="2.3"/>
		<rect id="XMLID_76_" x="28.7" y="35.9" class="st10" width="4.5" height="2.3"/>
	</g>
</g>
<g id="XMLID_68_">
	<rect id="XMLID_73_" x="37.5" y="30.1" class="st9" width="8.4" height="3.6"/>
	<g id="XMLID_69_">
		<rect id="XMLID_72_" x="38.3" y="30.8" class="st3" width="1.2" height="2.3"/>
		<rect id="XMLID_71_" x="44" y="30.8" class="st3" width="1.2" height="2.3"/>
		<rect id="XMLID_70_" x="39.5" y="30.8" class="st10" width="4.5" height="2.3"/>
	</g>
</g>
<g id="XMLID_57_">
	<rect id="XMLID_67_" x="33" y="40.5" class="st11" width="2.6" height="2.6"/>
	<rect id="XMLID_66_" x="33.4" y="40.8" class="st11" width="1.9" height="2.2"/>
	<rect id="XMLID_65_" x="30.9" y="46.6" class="st11" width="1.9" height="2.2"/>
	<rect id="XMLID_64_" x="28.4" y="40.8" class="st11" width="1.9" height="2.2"/>
	<rect id="XMLID_63_" x="28" y="40.5" class="st11" width="2.6" height="2.6"/>
	<rect id="XMLID_62_" x="30.6" y="46.6" class="st11" width="2.6" height="2.6"/>
	<rect id="XMLID_61_" x="31.4" y="46.6" class="st3" width="0.8" height="1.5"/>
	<rect id="XMLID_60_" x="33.9" y="41.6" class="st3" width="0.8" height="1.5"/>
	<rect id="XMLID_59_" x="28.9" y="41.6" class="st3" width="0.8" height="1.5"/>
	<rect id="XMLID_58_" x="27.6" y="43.1" class="st10" width="8.4" height="3.6"/>
</g>
<g id="XMLID_55_">
	<path id="XMLID_56_" class="st9" d="M44.6,36.3c-2.5,0-4.7,1-6.2,2.7v11.7c1.6,1.7,3.8,2.7,6.2,2.7c4.7,0,8.5-3.8,8.5-8.5
		C53.1,40.1,49.3,36.3,44.6,36.3z"/>
</g>
<rect id="XMLID_54_" x="27.2" y="8" class="st9" width="19.1" height="19.1"/>
<circle id="XMLID_53_" class="st12" cx="44.1" cy="25.1" r="2.2"/>
<circle id="XMLID_52_" class="st12" cx="29.6" cy="25.1" r="2.2"/>
<g id="XMLID_28_">
	<rect id="XMLID_51_" x="28.7" y="9.6" class="st13" width="16" height="16"/>
	<g id="XMLID_49_">
		<path id="XMLID_50_" class="st1" d="M27.6,9.4v16.3c0,0.6,0.4,1,1,1h2.3l1.6-3.8H41l1.6,3.8h2.3c0.6,0,1-0.4,1-1V9.4
			c0-0.6-0.4-1-1-1H28.6C28.1,8.4,27.6,8.9,27.6,9.4z"/>
	</g>
	<rect id="XMLID_48_" x="33.5" y="22.9" class="st2" width="6.3" height="1.8"/>
	<rect id="XMLID_47_" x="33.5" y="24.7" class="st10" width="6.3" height="1.8"/>
	<path id="XMLID_46_" class="st3" d="M33.9,26.7h-3.3c-0.4,0-0.7-0.3-0.7-0.7v0c0-0.4,0.3-0.7,0.7-0.7h3.3c0.4,0,0.7,0.3,0.7,0.7v0
		C34.6,26.4,34.3,26.7,33.9,26.7z"/>
	<path id="XMLID_45_" class="st3" d="M43.1,26.7h-3.3c-0.4,0-0.7-0.3-0.7-0.7v0c0-0.4,0.3-0.7,0.7-0.7h3.3c0.4,0,0.7,0.3,0.7,0.7v0
		C43.8,26.4,43.5,26.7,43.1,26.7z"/>
	<path id="XMLID_44_" class="st14" d="M40,18.8h-6.7c-0.8,0-1.5-0.7-1.5-1.5v-5c0-1.2,1-2.3,2.3-2.3h5.2c1.2,0,2.3,1,2.3,2.3v5
		C41.5,18.1,40.9,18.8,40,18.8z"/>
	<path id="XMLID_41_" class="st15" d="M37.8,18.5h-2.2c0,0-3.5,0-3.5-4.1s1.3-4.1,1.3-4.1H40c0,0,1.3,0,1.3,4.1S37.8,18.5,37.8,18.5
		z"/>
	<path id="XMLID_40_" class="st14" d="M39.1,13.4h-1.3c-0.1,0-0.2-0.1-0.2-0.2v-1.3c0-0.1-0.1-0.2-0.2-0.2h-1.3
		c-0.1,0-0.2,0.1-0.2,0.2v1.3c0,0.1-0.1,0.2-0.2,0.2h-1.3c-0.1,0-0.2,0.1-0.2,0.2v1.3c0,0.1,0.1,0.2,0.2,0.2h1.3
		c0.1,0,0.2,0.1,0.2,0.2v1.3c0,0.1,0.1,0.2,0.2,0.2h1.3c0.1,0,0.2-0.1,0.2-0.2v-1.3c0-0.1,0.1-0.2,0.2-0.2h1.3
		c0.1,0,0.2-0.1,0.2-0.2v-1.3C39.3,13.4,39.2,13.4,39.1,13.4z"/>
	<g id="XMLID_29_">
		<defs>
			<path id="XMLID_30_" d="M39.1,13.4h-1.3c-0.1,0-0.2-0.1-0.2-0.2v-1.3c0-0.1-0.1-0.2-0.2-0.2h-1.3c-0.1,0-0.2,0.1-0.2,0.2v1.3
				c0,0.1-0.1,0.2-0.2,0.2h-1.3c-0.1,0-0.2,0.1-0.2,0.2v1.3c0,0.1,0.1,0.2,0.2,0.2h1.3c0.1,0,0.2,0.1,0.2,0.2v1.3
				c0,0.1,0.1,0.2,0.2,0.2h1.3c0.1,0,0.2-0.1,0.2-0.2v-1.3c0-0.1,0.1-0.2,0.2-0.2h1.3c0.1,0,0.2-0.1,0.2-0.2v-1.3
				C39.3,13.4,39.2,13.4,39.1,13.4z"/>
		</defs>
		<clipPath id="XMLID_32_">
			<use xlink:href="#XMLID_30_"  style="overflow:visible;"/>
		</clipPath>
		<circle id="XMLID_31_" class="st16" cx="36.7" cy="14.2" r="1.8"/>
	</g>
</g>
</svg>
