<?xml version="1.0" encoding="utf-8"?>
<!-- Generator: Adobe Illustrator 24.2.3, SVG Export Plug-In . SVG Version: 6.00 Build 0)  -->
<svg version="1.1" id="Layer_1" xmlns="http://www.w3.org/2000/svg" xmlns:xlink="http://www.w3.org/1999/xlink" x="0px" y="0px"
	 viewBox="0 0 65.8 56.7" style="enable-background:new 0 0 65.8 56.7;" xml:space="preserve">
<style type="text/css">
	.st0{fill:#274A88;}
	.st1{fill:#EDEDF2;}
	.st2{fill:#DDDDDC;}
	.st3{fill:#FFFFFF;}
	.st4{fill:none;stroke:#000000;stroke-width:0.1102;stroke-miterlimit:12.5;}
	.st5{fill:#C9B55E;}
	.st6{font-family:'ArialMT';}
	.st7{font-size:3.75px;}
	.st8{font-family:'MyriadPro-Regular';}
	.st9{fill:none;stroke:#FFFFFF;stroke-width:0.25;stroke-miterlimit:10;}
	.st10{fill:#474748;}
	.st11{opacity:0.7;fill:#EDEEF2;enable-background:new    ;}
	.st12{fill:#FF6969;}
	.st13{fill:#7C6B2B;stroke:#C6C5C5;stroke-miterlimit:10;}
	.st14{fill:#282828;}
	.st15{fill:#DA9B32;}
	.st16{fill:#FFB926;}
	.st17{clip-path:url(#SVGID_2_);fill:#E8A123;stroke:#D38E20;stroke-width:0.15;stroke-miterlimit:10;}
	.st18{fill:#FF0000;}
</style>
<path id="rect2992" class="st0" d="M0.1,28.5c0,2.5,2,4.5,4.5,4.5v21.6c0,1.3,1,2.3,2.2,2.3h21.6c0-2.5,2-4.5,4.5-4.5s4.5,2,4.5,4.5
	H59c1.3,0,2.3-1,2.3-2.3V33c2.5,0,4.5-2,4.5-4.5s-2-4.5-4.5-4.5V2.4c0-1.3-1-2.3-2.3-2.3H37.4c0,2.5-2,4.5-4.5,4.5s-4.5-2-4.5-4.5
	H6.8c-1.3,0-2.3,1-2.3,2.3v21.7C2.1,24.1,0.1,26.1,0.1,28.5z M2,28.5c0-1.4,1.2-2.6,2.6-2.6s2.6,1.2,2.6,2.6S6,31.1,4.6,31.1
	S2,30,2,28.5z M58.7,28.5c0-1.4,1.1-2.6,2.6-2.6s2.6,1.2,2.6,2.6s-1.2,2.6-2.6,2.6S58.7,30,58.7,28.5z"/>
<g id="XMLID_98_">
	<g id="g3109_1_" transform="matrix(0 1.2499976 -1.2499976 0 1338.60444 1003.15358)">
		<g id="g33658-1_1_" transform="translate(-1.6000031,0)">
			<path id="path16826-7_1_" class="st1" d="M-757.9,1033.8v3.6h-1.2v-2.4h-7.2v3.9h-1.2v-1.3h-1.8v-3.8H-757.9z"/>
			<path id="path16828-7_1_" class="st1" d="M-757.9,1052.8v3.6h-11.4v-3.8h1.8v-1.3h1.2v3.9h7.2v-2.4H-757.9z"/>
			<path id="path16830-7_1_" class="st2" d="M-766.3,1055.1v-3.9V1039v-3.9h7.2v2.4v15.4v2.4L-766.3,1055.1L-766.3,1055.1z
				 M-763.3,1038.9h1.1v-1.1h-1.1V1038.9z M-762.1,1043.4v-1.1h-1.1v1.1H-762.1z M-762.1,1051.3h-1.1v1.1h1.1V1051.3z
				 M-763.3,1047.9h1.1v-1.1h-1.1V1047.9z"/>
			<path id="path16832-7_1_" class="st3" d="M-757.9,1052.8h-1.2v-15.4h1.2V1052.8z"/>
			<path id="path16834-3_1_" class="st3" d="M-767.5,1041.2v-2.2h1.2v12.2h-1.2v-2.2V1041.2L-767.5,1041.2z"/>
			<path id="path16836-3_1_" class="st1" d="M-769.4,1041.2h1.9v7.8h-1.9V1041.2z"/>
			<path id="path22220-2_4_" class="st4" d="M-757.9,1037.4"/>
			<path id="path22220-2_3_" class="st4" d="M-757.9,1052.8"/>
			<path id="path22246-8_4_" class="st4" d="M-766.3,1055.1"/>
			<path id="path22246-8_3_" class="st4" d="M-759.1,1055.1"/>
			<path id="path22248-0_4_" class="st4" d="M-759.1,1055.1"/>
			<path id="path22248-0_3_" class="st4" d="M-759.1,1052.8"/>
			<path id="path22250-1_4_" class="st4" d="M-759.1,1052.8"/>
			<path id="path22250-1_3_" class="st4" d="M-757.9,1052.8"/>
			<path id="path22252-2_4_" class="st4" d="M-757.9,1056.4"/>
			<path id="path22252-2_3_" class="st4" d="M-757.9,1052.8"/>
			<path id="path22276-4_4_" class="st4" d="M-769.3,1052.6"/>
			<path id="path22276-4_3_" class="st4" d="M-769.3,1056.4"/>
			<path id="path29510-1_4_" class="st4" d="M-769.3,1056.4"/>
			<path id="path29510-1_3_" class="st4" d="M-757.9,1056.4"/>
		</g>
		<path id="connector3pin_1_" class="st5" d="M-764.9,1038.9v-1.1h1.1v1.1H-764.9z"/>
		<path id="connector2pin_1_" class="st5" d="M-763.7,1042.3v1.1h-1.1v-1.1H-763.7z"/>
		<path id="connector1pin_1_" class="st5" d="M-764.9,1046.8h1.1v1.1h-1.1V1046.8z"/>
		<path id="connector0pin_1_" class="st5" d="M-764.9,1051.3h1.1v1.1h-1.1V1051.3z"/>
	</g>
</g>
<text id="XMLID_97_" transform="matrix(6.123234e-17 -1 1 6.123234e-17 25.1742 38.6066)" class="st3 st6 st7">GND</text>
<text id="XMLID_96_" transform="matrix(-1 0 0 -1 16.1729 46.1076)" class="st3 st6 st7">J1</text>
<text id="XMLID_95_" transform="matrix(6.123234e-17 -1 1 6.123234e-17 30.5746 38.6066)" class="st3 st6 st7">VCC</text>
<text id="XMLID_94_" transform="matrix(6.123234e-17 -1 1 6.123234e-17 35.975 38.6066)" class="st3 st6 st7">NC</text>
<text id="XMLID_93_" transform="matrix(6.123234e-17 -1 1 6.123234e-17 41.3755 38.6066)" class="st3 st6 st7">SIG</text>
<text id="XMLID_92_" transform="matrix(-1 0 0 -1 38.0352 30.8576)" class="st3 st6 st7">R1</text>
<text id="XMLID_91_" transform="matrix(-1 0 0 -1 39.9746 8.0451)" class="st3 st6 st7">R3</text>
<text id="XMLID_90_" transform="matrix(6.123234e-17 -1 1 6.123234e-17 23.1544 9.7014)" class="st3 st6 st7">R2</text>
<text id="XMLID_89_" transform="matrix(6.123234e-17 -1 1 6.123234e-17 59.9044 22.2658)" class="st3 st6 st7">D1</text>
<text id="XMLID_88_" transform="matrix(6.123234e-17 -1 1 6.123234e-17 59.9044 5.9533)" class="st3 st8 st7"></text>
<text id="XMLID_87_" transform="matrix(6.123234e-17 -1 1 6.123234e-17 45.1787 35.0764)" class="st3 st6 st7">R4</text>
<text id="XMLID_86_" transform="matrix(6.123234e-17 -1 1 6.123234e-17 48.8662 35.0764)" class="st3 st6 st7">Q1</text>
<g id="XMLID_80_">
	<rect id="XMLID_85_" x="34.5" y="21.9" class="st9" width="3.6" height="8.4"/>
	<g id="XMLID_81_">
		<rect id="XMLID_84_" x="35.2" y="28.2" class="st3" width="2.3" height="1.2"/>
		<rect id="XMLID_83_" x="35.2" y="22.5" class="st3" width="2.3" height="1.2"/>
		<rect id="XMLID_82_" x="35.2" y="23.7" class="st10" width="2.3" height="4.5"/>
	</g>
</g>
<g id="XMLID_74_">
	<rect id="XMLID_79_" x="39.6" y="21.9" class="st9" width="3.6" height="8.4"/>
	<g id="XMLID_75_">
		<rect id="XMLID_78_" x="40.3" y="28.2" class="st3" width="2.3" height="1.2"/>
		<rect id="XMLID_77_" x="40.3" y="22.5" class="st3" width="2.3" height="1.2"/>
		<rect id="XMLID_76_" x="40.3" y="23.7" class="st10" width="2.3" height="4.5"/>
	</g>
</g>
<g id="XMLID_68_">
	<rect id="XMLID_73_" x="34.5" y="11" class="st9" width="3.6" height="8.4"/>
	<g id="XMLID_69_">
		<rect id="XMLID_72_" x="35.2" y="17.4" class="st3" width="2.3" height="1.2"/>
		<rect id="XMLID_71_" x="35.2" y="11.7" class="st3" width="2.3" height="1.2"/>
		<rect id="XMLID_70_" x="35.2" y="12.9" class="st10" width="2.3" height="4.5"/>
	</g>
</g>
<g id="XMLID_57_">
	<rect id="XMLID_67_" x="44.9" y="21.4" class="st11" width="2.6" height="2.6"/>
	<rect id="XMLID_66_" x="45.2" y="21.6" class="st11" width="2.2" height="1.9"/>
	<rect id="XMLID_65_" x="51" y="24.1" class="st11" width="2.2" height="1.9"/>
	<rect id="XMLID_64_" x="45.2" y="26.6" class="st11" width="2.2" height="1.9"/>
	<rect id="XMLID_63_" x="44.9" y="26.3" class="st11" width="2.6" height="2.6"/>
	<rect id="XMLID_62_" x="51" y="23.7" class="st11" width="2.6" height="2.6"/>
	<rect id="XMLID_61_" x="51" y="24.7" class="st3" width="1.5" height="0.8"/>
	<rect id="XMLID_60_" x="46" y="22.2" class="st3" width="1.5" height="0.8"/>
	<rect id="XMLID_59_" x="46" y="27.2" class="st3" width="1.5" height="0.8"/>
	<rect id="XMLID_58_" x="47.5" y="20.9" class="st10" width="3.6" height="8.4"/>
</g>
<g id="XMLID_55_">
	<path id="XMLID_56_" class="st12" d="M40.7,12.4c0,2.5,1,4.7,2.7,6.2h11.7c1.7-1.6,2.7-3.8,2.7-6.2c0-4.7-3.8-8.5-8.5-8.5
		C44.5,3.8,40.7,7.6,40.7,12.4z"/>
</g>
<rect id="XMLID_54_" x="12.4" y="10.6" class="st9" width="19.1" height="19.1"/>
<circle id="XMLID_53_" class="st13" cx="29.5" cy="12.9" r="2.2"/>
<circle id="XMLID_52_" class="st13" cx="29.5" cy="27.3" r="2.2"/>
<g id="XMLID_28_">
	<rect id="XMLID_51_" x="14" y="12.2" class="st14" width="16" height="16"/>
	<g id="XMLID_49_">
		<path id="XMLID_50_" class="st1" d="M13.8,29.3H30c0.6,0,1-0.4,1-1V26l-3.8-1.6v-8.5l3.8-1.6v-2.3c0-0.6-0.4-1-1-1H13.8
			c-0.6,0-1,0.4-1,1v16.3C12.8,28.8,13.2,29.3,13.8,29.3z"/>
	</g>
	<rect id="XMLID_48_" x="27.2" y="17.1" class="st2" width="1.8" height="6.3"/>
	<rect id="XMLID_47_" x="29.1" y="17.1" class="st10" width="1.8" height="6.3"/>
	<path id="XMLID_46_" class="st3" d="M31.1,23v3.3c0,0.4-0.3,0.7-0.7,0.7l0,0c-0.4,0-0.7-0.3-0.7-0.7V23c0-0.4,0.3-0.7,0.7-0.7l0,0
		C30.8,22.4,31.1,22.6,31.1,23z"/>
	<path id="XMLID_45_" class="st3" d="M31.1,13.9v3.3c0,0.4-0.3,0.7-0.7,0.7l0,0c-0.4,0-0.7-0.3-0.7-0.7v-3.3c0-0.4,0.3-0.7,0.7-0.7
		l0,0C30.8,13.1,31.1,13.4,31.1,13.9z"/>
	<path id="XMLID_44_" class="st15" d="M23.1,16.9v6.7c0,0.8-0.7,1.5-1.5,1.5h-5c-1.2,0-2.3-1-2.3-2.3v-5.2c0-1.2,1-2.3,2.3-2.3h5
		C22.5,15.4,23.1,16,23.1,16.9z"/>
	<path id="XMLID_41_" class="st16" d="M22.9,19.1v2.2c0,0,0,3.5-4.1,3.5s-4.1-1.3-4.1-1.3v-6.6c0,0,0-1.3,4.1-1.3
		S22.9,19.1,22.9,19.1z"/>
	<path id="XMLID_40_" class="st15" d="M17.8,17.9v1.3c0,0.1-0.1,0.2-0.2,0.2h-1.3c-0.1,0-0.2,0.1-0.2,0.2v1.3c0,0.1,0.1,0.2,0.2,0.2
		h1.3c0.1,0,0.2,0.1,0.2,0.2v1.3c0,0.1,0.1,0.2,0.2,0.2h1.3c0.1,0,0.2-0.1,0.2-0.2v-1.3c0-0.1,0.1-0.2,0.2-0.2h1.3
		c0.1,0,0.2-0.1,0.2-0.2v-1.3c0-0.1-0.1-0.2-0.2-0.2h-1.3c-0.1,0-0.2-0.1-0.2-0.2v-1.3c0-0.1-0.1-0.2-0.2-0.2h-1.3
		C17.8,17.6,17.8,17.7,17.8,17.9z"/>
	<g id="XMLID_29_">
		<g>
			<defs>
				<path id="SVGID_1_" d="M17.8,17.9v1.3c0,0.1-0.1,0.2-0.2,0.2h-1.3c-0.1,0-0.2,0.1-0.2,0.2v1.3c0,0.1,0.1,0.2,0.2,0.2h1.3
					c0.1,0,0.2,0.1,0.2,0.2v1.3c0,0.1,0.1,0.2,0.2,0.2h1.3c0.1,0,0.2-0.1,0.2-0.2v-1.3c0-0.1,0.1-0.2,0.2-0.2h1.3
					c0.1,0,0.2-0.1,0.2-0.2v-1.3c0-0.1-0.1-0.2-0.2-0.2h-1.3c-0.1,0-0.2-0.1-0.2-0.2v-1.3c0-0.1-0.1-0.2-0.2-0.2h-1.3
					C17.8,17.6,17.8,17.7,17.8,17.9z"/>
			</defs>
			<clipPath id="SVGID_2_">
				<use xlink:href="#SVGID_1_"  style="overflow:visible;"/>
			</clipPath>
			<circle id="XMLID_31_" class="st17" cx="18.6" cy="20.2" r="1.8"/>
		</g>
	</g>
</g>
<g id="XMLID_1_">
	<path id="XMLID_2_" class="st18" d="M41.7,12.2c0,2.2,0.9,4.1,2.4,5.5h10.3c1.5-1.4,2.4-3.3,2.4-5.5c0-4.1-3.3-7.5-7.5-7.5
		C45,4.7,41.7,8.1,41.7,12.2z"/>
</g>
</svg>
