<?xml version="1.0" encoding="utf-8"?>
<!-- Generator: Adobe Illustrator 23.0.1, SVG Export Plug-In . SVG Version: 6.00 Build 0)  -->
<svg version="1.1" id="Layer_1" xmlns="http://www.w3.org/2000/svg" xmlns:xlink="http://www.w3.org/1999/xlink" x="0px" y="0px"
	 viewBox="0 0 62.4 54" style="enable-background:new 0 0 62.4 54;" xml:space="preserve">
<style type="text/css">
	.st0{fill:#C9B55E;}
	.st1{fill:#040202;}
	.st2{fill:#FFFFFF;}
	.st3{fill:#DDDDDC;}
	.st4{fill:#EDEDF2;}
	.st5{fill:#C6C5C5;}
	.st6{fill:#7C6B2B;}
	.st7{fill:#474748;}
	.st8{fill:none;stroke:#FFFFFF;stroke-width:0.25;stroke-miterlimit:10;}
	.st9{font-family:'ArialRoundedMTBold';}
	.st10{font-size:6.0022px;}
	.st11{fill:none;stroke:#DD5E34;stroke-width:0.5;stroke-miterlimit:10;}
</style>
<g>
	<g>
		<path d="M18.9,53.9h24.5c2,0,3.9-1.1,4.9-2.8l12.3-21.2c1-1.8,1-3.9,0-5.7L48.4,2.9c-1-1.8-2.9-2.8-4.9-2.8H18.9
			c-2,0-3.9,1.1-4.9,2.8L1.8,24.2c-1,1.8-1,3.9,0,5.7L14,51.1C15,52.8,16.9,53.9,18.9,53.9z"/>
		<g id="JST_14_">
			<g>
				<path class="st0" d="M39.3,31.2L39.3,31.2c1,0,1.7,0.8,1.7,1.7v1.4c0,1-0.8,1.7-1.7,1.7h0c-1,0-1.7-0.8-1.7-1.7v-1.4
					C37.5,32,38.3,31.2,39.3,31.2z"/>
				<circle class="st1" cx="39.3" cy="33.7" r="1"/>
			</g>
			<g>
				<path class="st0" d="M33.9,31.2L33.9,31.2c1,0,1.7,0.8,1.7,1.7v1.4c0,1-0.8,1.7-1.7,1.7h0c-1,0-1.7-0.8-1.7-1.7v-1.4
					C32.1,32,32.9,31.2,33.9,31.2z"/>
				<circle class="st1" cx="33.9" cy="33.7" r="1"/>
			</g>
			<g>
				<path class="st0" d="M28.5,31.2L28.5,31.2c1,0,1.7,0.8,1.7,1.7v1.4c0,1-0.8,1.7-1.7,1.7h0c-1,0-1.7-0.8-1.7-1.7v-1.4
					C26.7,32,27.5,31.2,28.5,31.2z"/>
				<circle class="st1" cx="28.5" cy="33.7" r="1"/>
			</g>
			<g>
				<path class="st0" d="M21.3,34.4V36c0,0.1,0.1,0.1,0.1,0.1h3.2c0.1,0,0.1-0.1,0.1-0.1v-4.6c0-0.1-0.1-0.1-0.1-0.1h-0.9v-0.7h-1.4
					v0.7h-0.9c-0.1,0-0.1,0.1-0.1,0.1v1.6h-0.7v1.4H21.3z"/>
				<circle class="st1" cx="23.1" cy="33.7" r="1"/>
			</g>
			<g>
				
					<rect x="38.5" y="35.8" transform="matrix(-1 -1.224647e-16 1.224647e-16 -1 78.5196 73.479)" class="st2" width="1.6" height="1.9"/>
				<path class="st3" d="M39.3,33.1L39.3,33.1c0.4,0,0.8,0.4,0.8,0.8v1.9h-1.6v-1.9C38.5,33.4,38.8,33.1,39.3,33.1z"/>
			</g>
			<g>
				
					<rect x="33.1" y="35.8" transform="matrix(-1 -1.224647e-16 1.224647e-16 -1 67.7192 73.479)" class="st2" width="1.6" height="1.9"/>
				<path class="st3" d="M33.9,33.1L33.9,33.1c0.4,0,0.8,0.4,0.8,0.8v1.9h-1.6v-1.9C33.1,33.4,33.4,33.1,33.9,33.1z"/>
			</g>
			<g>
				
					<rect x="27.7" y="35.8" transform="matrix(-1 -1.224647e-16 1.224647e-16 -1 56.9188 73.479)" class="st2" width="1.6" height="1.9"/>
				<path class="st3" d="M28.5,33.1L28.5,33.1c0.4,0,0.8,0.4,0.8,0.8v1.9h-1.6v-1.9C27.7,33.4,28,33.1,28.5,33.1z"/>
			</g>
			<g>
				
					<rect x="22.3" y="35.8" transform="matrix(-1 -1.224647e-16 1.224647e-16 -1 46.1184 73.479)" class="st2" width="1.6" height="1.9"/>
				<path class="st3" d="M23.1,33.1L23.1,33.1c0.4,0,0.8,0.4,0.8,0.8v1.9h-1.6v-1.9C22.3,33.4,22.6,33.1,23.1,33.1z"/>
			</g>
			<g>
				
					<rect x="41.7" y="31.8" transform="matrix(-1 -1.224647e-16 1.224647e-16 -1 86.1192 68.5139)" class="st2" width="2.7" height="5"/>
				
					<rect x="41.7" y="29.8" transform="matrix(-1 -1.224647e-16 1.224647e-16 -1 86.1192 61.5708)" class="st3" width="2.7" height="2"/>
			</g>
			<g>
				
					<rect x="18" y="31.8" transform="matrix(-1 -1.224647e-16 1.224647e-16 -1 38.6808 68.5139)" class="st2" width="2.7" height="5"/>
				
					<rect x="18" y="29.8" transform="matrix(-1 -1.224647e-16 1.224647e-16 -1 38.6808 61.5708)" class="st3" width="2.7" height="2"/>
			</g>
			
				<rect x="18" y="37" transform="matrix(-1 -1.224647e-16 1.224647e-16 -1 62.4 87.8795)" class="st3" width="26.4" height="13.8"/>
			<g>
				
					<rect x="33.4" y="37" transform="matrix(-1 -1.224647e-16 1.224647e-16 -1 67.8379 87.9191)" class="st2" width="1.1" height="13.9"/>
				
					<rect x="27.9" y="37" transform="matrix(-1 -1.224647e-16 1.224647e-16 -1 56.9287 87.9191)" class="st2" width="1.1" height="13.9"/>
				
					<rect x="30.6" y="37" transform="matrix(-1 -1.224647e-16 1.224647e-16 -1 62.319 81.8958)" class="st2" width="1.1" height="7.9"/>
				
					<rect x="36" y="37" transform="matrix(-1 -1.224647e-16 1.224647e-16 -1 73.1194 81.8958)" class="st2" width="1.1" height="7.9"/>
				
					<rect x="25.2" y="37" transform="matrix(-1 -1.224647e-16 1.224647e-16 -1 51.5186 81.8958)" class="st2" width="1.1" height="7.9"/>
			</g>
			
				<rect x="18" y="37" transform="matrix(-1 -1.224647e-16 1.224647e-16 -1 62.319 78.7209)" class="st4" width="26.3" height="4.7"/>
			<polygon class="st2" points="24.3,53.9 24.3,42.9 30.5,42.9 38.1,42.9 38.1,53.9 44.4,53.9 44.4,37 43,37 43,48.8 40.4,48.8 
				40.4,37.7 30.5,37.7 22,37.7 22,48.8 19.4,48.8 19.4,37 18,37 18,53.9 			"/>
			
				<rect x="30.5" y="37" transform="matrix(-1 -1.224647e-16 1.224647e-16 -1 62.3388 74.7252)" class="st2" width="1.4" height="0.7"/>
			
				<rect x="35.9" y="37" transform="matrix(-1 -1.224647e-16 1.224647e-16 -1 73.1194 74.7252)" class="st2" width="1.4" height="0.7"/>
			
				<rect x="25.1" y="37" transform="matrix(-1 -1.224647e-16 1.224647e-16 -1 51.5186 74.7252)" class="st2" width="1.4" height="0.7"/>
			<rect x="27.9" y="30.6" class="st0" width="1.1" height="0.9"/>
			<rect x="38.7" y="30.6" class="st0" width="1.1" height="0.9"/>
		</g>
		<g>
			<g>
				
					<rect x="28" y="25.7" transform="matrix(-1 -1.224647e-16 1.224647e-16 -1 57.7769 53.9708)" class="st5" width="1.9" height="2.7"/>
				<g>
					<path class="st6" d="M29.8,25.7v2.7H28v-2.7H29.8 M30.3,25.2h-0.5H28h-0.5v0.5v2.7v0.5H28h1.9h0.5v-0.5v-2.7V25.2L30.3,25.2z"
						/>
				</g>
				
					<rect x="27.4" y="26.7" transform="matrix(-1.836970e-16 1 -1 -1.836970e-16 54.6536 -0.7915)" class="st0" width="0.7" height="0.5"/>
				<rect x="28.5" y="28.3" class="st0" width="0.7" height="0.5"/>
				<rect x="28.9" y="25.2" class="st0" width="0.7" height="0.5"/>
			</g>
			<g>
				
					<rect x="32.8" y="25.7" transform="matrix(-1 -1.224647e-16 1.224647e-16 -1 67.4201 53.9708)" class="st5" width="1.9" height="2.7"/>
				<g>
					<path class="st6" d="M34.6,25.7v2.7h-1.9v-2.7H34.6 M35.1,25.2h-0.5h-1.9h-0.5v0.5v2.7v0.5h0.5h1.9h0.5v-0.5v-2.7V25.2
						L35.1,25.2z"/>
				</g>
				
					<rect x="32.2" y="26.7" transform="matrix(-1.836970e-16 1 -1 -1.836970e-16 59.4752 -5.6131)" class="st0" width="0.7" height="0.5"/>
				<rect x="33.3" y="28.3" class="st0" width="0.7" height="0.5"/>
				<rect x="33.7" y="25.2" class="st0" width="0.7" height="0.5"/>
			</g>
			<g>
				
					<rect x="32.8" y="25.9" transform="matrix(-1 -1.224647e-16 1.224647e-16 -1 66.3717 53.9511)" class="st2" width="0.7" height="2.1"/>
				
					<rect x="29.3" y="25.9" transform="matrix(-1 -1.224647e-16 1.224647e-16 -1 59.2802 53.9511)" class="st2" width="0.7" height="2.1"/>
				
					<rect x="30" y="25.9" transform="matrix(-1 -1.224647e-16 1.224647e-16 -1 62.826 53.9511)" class="st7" width="2.8" height="2.1"/>
			</g>
			<line class="st8" x1="32" y1="28.3" x2="30.5" y2="28.3"/>
			<line class="st8" x1="32" y1="25.5" x2="30.5" y2="25.5"/>
		</g>
		<text transform="matrix(-1 0 0 -1 38.7881 4.8602)" class="st2 st9 st10">Light</text>
		<g>
			<g>
				<polygon class="st2" points="47.3,14.9 42,20.2 43.1,20.2 45.2,18.1 45.7,18.7 44.1,20.2 45.2,20.2 46.3,19.2 46.8,19.7 
					46.3,20.2 47.3,20.2 				"/>
				<polygon class="st2" points="42,14.9 42,15.8 43.9,17.6 44.3,17.2 				"/>
				<polygon class="st2" points="42,16.7 42,17.7 42.9,18.6 43.4,18.1 				"/>
				<polygon class="st2" points="42,18.6 42,19.5 42.5,19 				"/>
			</g>
		</g>
		<path class="st2" d="M28.6,10.4h5.6c3.5,0,6.3,2.8,6.3,6.3v0c0,3.5-2.8,6.3-6.3,6.3h-5.6c-3.5,0-6.3-2.8-6.3-6.3v0
			C22.3,13.2,25.1,10.4,28.6,10.4z"/>
	</g>
	<polyline class="st11" points="34.9,22 28,22 28,20.2 33.6,20.2 33.6,18.6 29.2,18.6 29.2,16.7 33.6,16.7 33.6,14.9 29.2,14.9 
		29.2,13.1 34.7,13.1 34.7,11.3 27.9,11.3 	"/>
	<circle class="st3" cx="35.1" cy="16.7" r="0.8"/>
	<circle class="st3" cx="27.7" cy="16.7" r="0.8"/>
</g>
</svg>
