<?xml version="1.0" encoding="utf-8"?>
<!-- Generator: Adobe Illustrator 23.0.1, SVG Export Plug-In . SVG Version: 6.00 Build 0)  -->
<svg version="1.1" id="Layer_1" xmlns="http://www.w3.org/2000/svg" xmlns:xlink="http://www.w3.org/1999/xlink" x="0px" y="0px"
	 viewBox="0 0 56.7 118.6" style="enable-background:new 0 0 56.7 118.6;" xml:space="preserve">
<style type="text/css">
	.st0{fill:#1D2856;}
	.st1{enable-background:new    ;}
	.st2{fill:#FFFFFF;}
	.st3{fill:#BE9349;}
	.st4{fill:#E5E5EC;}
	.st5{fill:#C0944C;}
	.st6{fill:#FDC26B;}
	.st7{fill:#FFD39B;}
	.st8{fill:#EA2227;}
	.st9{fill:#FDE500;}
	.st10{fill:none;stroke:#FFFFFF;stroke-miterlimit:10;}
	.st11{fill:#E46035;}
	.st12{fill:#CECECD;}
	.st13{opacity:0.8;}
	.st14{clip-path:url(#SVGID_2_);}
	.st15{fill:none;stroke:#231F20;stroke-width:0.5;stroke-miterlimit:10;}
</style>
<path class="st0" d="M0,0v90.7h56.7V0H0z M6,87.7c-2.3,0-4.3-1.9-4.3-4.3c0-2.3,1.9-4.3,4.3-4.3c2.3,0,4.3,1.9,4.3,4.3
	C10.3,85.8,8.4,87.7,6,87.7z M6,10.6c-2.3,0-4.3-1.9-4.3-4.3C1.8,4,3.7,2.1,6,2.1c2.3,0,4.3,1.9,4.3,4.3C10.3,8.7,8.4,10.6,6,10.6z
	 M50.2,87.7c-2.3,0-4.3-1.9-4.3-4.3c0-2.3,1.9-4.3,4.3-4.3c2.3,0,4.3,1.9,4.3,4.3C54.5,85.8,52.6,87.7,50.2,87.7z M50.2,10.6
	c-2.3,0-4.3-1.9-4.3-4.3c0-2.3,1.9-4.3,4.3-4.3c2.3,0,4.3,1.9,4.3,4.3C54.5,8.7,52.6,10.6,50.2,10.6z"/>
<g>
	<g>
		<g class="st1">
			<path class="st2" d="M19.5,80.7l-3.4,1.1v-0.5l2.7-0.8l-2.7-0.8v-0.5l3.4,1.1V80.7z"/>
			<path class="st2" d="M19.6,77.6c0,0.2-0.1,0.4-0.2,0.6s-0.3,0.3-0.4,0.4c-0.2,0.1-0.4,0.1-0.7,0.1h-0.9c-0.3,0-0.5,0-0.7-0.1
				c-0.2-0.1-0.3-0.2-0.4-0.4s-0.2-0.4-0.2-0.6c0-0.2,0-0.4,0.1-0.5c0.1-0.2,0.2-0.3,0.4-0.4s0.3-0.2,0.5-0.2v0.5
				c-0.1,0-0.2,0.1-0.3,0.1c-0.1,0.1-0.1,0.2-0.2,0.2c0,0.1-0.1,0.2-0.1,0.3c0,0.2,0.1,0.4,0.2,0.5c0.1,0.1,0.3,0.2,0.6,0.2h0.9
				c0.2,0,0.4-0.1,0.6-0.2c0.1-0.1,0.2-0.3,0.2-0.5c0-0.1,0-0.3-0.1-0.4c-0.1-0.1-0.2-0.2-0.4-0.3v-0.5c0.2,0,0.4,0.1,0.5,0.2
				c0.1,0.1,0.3,0.2,0.3,0.4S19.6,77.4,19.6,77.6z"/>
			<path class="st2" d="M19.6,74.6c0,0.2-0.1,0.4-0.2,0.6c-0.1,0.2-0.3,0.3-0.4,0.4c-0.2,0.1-0.4,0.1-0.7,0.1h-0.9
				c-0.3,0-0.5,0-0.7-0.1c-0.2-0.1-0.3-0.2-0.4-0.4c-0.1-0.2-0.2-0.4-0.2-0.6c0-0.2,0-0.4,0.1-0.5c0.1-0.2,0.2-0.3,0.4-0.4
				s0.3-0.2,0.5-0.2v0.5c-0.1,0-0.2,0.1-0.3,0.1c-0.1,0.1-0.1,0.2-0.2,0.2s-0.1,0.2-0.1,0.3c0,0.2,0.1,0.4,0.2,0.5s0.3,0.2,0.6,0.2
				h0.9c0.2,0,0.4-0.1,0.6-0.2c0.1-0.1,0.2-0.3,0.2-0.5c0-0.1,0-0.3-0.1-0.4c-0.1-0.1-0.2-0.2-0.4-0.3v-0.5c0.2,0,0.4,0.1,0.5,0.2
				c0.1,0.1,0.3,0.2,0.3,0.4C19.5,74.2,19.6,74.4,19.6,74.6z"/>
		</g>
	</g>
	<g>
		<path class="st3" d="M17.8,88.8L17.8,88.8c-1.3,0-2.3-1-2.3-2.3v-1.3c0-1.3,1-2.3,2.3-2.3l0,0c1.3,0,2.3,1,2.3,2.3v1.3
			C20.1,87.8,19.1,88.8,17.8,88.8z"/>
		<path class="st4" d="M17.8,88.1L17.8,88.1c-1,0-1.7-0.8-1.7-1.7v-1c0-1,0.8-1.7,1.7-1.7l0,0c1,0,1.7,0.8,1.7,1.7v1
			C19.6,87.3,18.8,88.1,17.8,88.1z"/>
		<g>
			<rect x="17.2" y="85.2" class="st5" width="1.3" height="1.3"/>
			<polygon class="st6" points="17.8,85.9 18.5,86.5 18.5,85.2 			"/>
			<polygon class="st7" points="17.2,86.5 17.8,85.9 18.5,86.5 			"/>
			<polygon class="st6" points="17.2,85.2 17.8,85.9 17.2,86.5 			"/>
		</g>
	</g>
	<g>
		<rect x="17.2" y="90.6" class="st5" width="1.4" height="8"/>
		<rect x="17.3" y="90.6" class="st6" width="1.1" height="8"/>
		<polygon class="st6" points="18.3,99.2 18.5,98.7 17.1,98.7 17.4,99.2 		"/>
		<polygon class="st7" points="18.3,99.2 18.4,98.7 17.3,98.7 17.4,99.2 		"/>
	</g>
	<g>
		<g class="st1">
			<path class="st2" d="M24.8,80.3v-1.2h0.6c0.3,0,0.5,0,0.7,0.1c0.2,0.1,0.3,0.2,0.4,0.4s0.2,0.4,0.2,0.6c0,0.2,0,0.5-0.1,0.6
				c-0.1,0.2-0.2,0.3-0.4,0.4c-0.2,0.1-0.4,0.1-0.6,0.1h-1c-0.3,0-0.5,0-0.7-0.1c-0.2-0.1-0.3-0.2-0.4-0.4c-0.1-0.2-0.2-0.4-0.2-0.6
				c0-0.2,0-0.4,0.1-0.5c0.1-0.2,0.2-0.3,0.4-0.4c0.2-0.1,0.3-0.2,0.5-0.2v0.5c-0.2,0-0.3,0.1-0.4,0.3c-0.1,0.1-0.1,0.3-0.1,0.4
				c0,0.2,0.1,0.4,0.2,0.5C24,81,24.2,81,24.5,81h1c0.2,0,0.4-0.1,0.5-0.2c0.1-0.1,0.2-0.3,0.2-0.5c0-0.2-0.1-0.4-0.2-0.5
				s-0.3-0.2-0.6-0.2h-0.1l0,0.7H24.8z"/>
			<path class="st2" d="M26.6,78.4h-3.4V78l2.6-1.7l0.1,0.1h-2.7v-0.5h3.4v0.4L24.1,78L24,77.9h2.6V78.4z"/>
			<path class="st2" d="M26.6,74.7h-0.5V74c0-0.2-0.1-0.4-0.2-0.6c-0.1-0.1-0.3-0.2-0.5-0.2h-1c-0.2,0-0.4,0.1-0.5,0.2
				s-0.2,0.3-0.2,0.6v0.8h-0.5V74c0-0.4,0.1-0.7,0.3-1c0.2-0.2,0.5-0.3,0.9-0.3h1c0.4,0,0.7,0.1,0.9,0.3s0.3,0.5,0.3,1V74.7z
				 M26.6,75h-3.4v-0.5h3.4V75z"/>
		</g>
	</g>
	<g>
		<path class="st3" d="M25,88.8L25,88.8c-1.3,0-2.3-1-2.3-2.3v-1.3c0-1.3,1-2.3,2.3-2.3l0,0c1.3,0,2.3,1,2.3,2.3v1.3
			C27.3,87.8,26.2,88.8,25,88.8z"/>
		<path class="st4" d="M25,88.1L25,88.1c-1,0-1.7-0.8-1.7-1.7v-1c0-1,0.8-1.7,1.7-1.7l0,0c1,0,1.7,0.8,1.7,1.7v1
			C26.7,87.3,25.9,88.1,25,88.1z"/>
		<g>
			<rect x="24.3" y="85.2" class="st5" width="1.3" height="1.3"/>
			<polygon class="st6" points="25,85.9 25.7,86.5 25.7,85.2 			"/>
			<polygon class="st7" points="24.3,86.5 25,85.9 25.7,86.5 			"/>
			<polygon class="st6" points="24.3,85.2 25,85.9 24.3,86.5 			"/>
		</g>
	</g>
	<g>
		<rect x="24.3" y="90.7" class="st5" width="1.4" height="8"/>
		<rect x="24.4" y="90.7" class="st6" width="1.1" height="8"/>
		<polygon class="st6" points="25.4,99.2 25.7,98.7 24.3,98.7 24.6,99.2 		"/>
		<polygon class="st7" points="25.4,99.2 25.6,98.7 24.4,98.7 24.6,99.2 		"/>
	</g>
	<g>
		<g class="st1">
			<path class="st2" d="M33.7,81.1h-0.5v-0.8c0-0.2-0.1-0.4-0.2-0.6c-0.1-0.1-0.3-0.2-0.5-0.2h-1c-0.2,0-0.4,0.1-0.5,0.2
				s-0.2,0.3-0.2,0.6v0.8h-0.5v-0.8c0-0.4,0.1-0.7,0.3-1c0.2-0.2,0.5-0.3,0.9-0.3h1c0.4,0,0.7,0.1,0.9,0.3c0.2,0.2,0.3,0.5,0.3,1
				V81.1z M33.7,81.5h-3.4V81h3.4V81.5z"/>
			<path class="st2" d="M33.8,77.2c0,0.2-0.1,0.4-0.2,0.6c-0.1,0.2-0.2,0.3-0.4,0.4c-0.2,0.1-0.4,0.1-0.7,0.1h-1
				c-0.2,0-0.5,0-0.7-0.1c-0.2-0.1-0.3-0.2-0.4-0.4c-0.1-0.2-0.2-0.4-0.2-0.6s0.1-0.4,0.2-0.6c0.1-0.2,0.2-0.3,0.4-0.4
				s0.4-0.1,0.7-0.1h1c0.2,0,0.5,0,0.7,0.1c0.2,0.1,0.3,0.2,0.4,0.4C33.7,76.8,33.8,77,33.8,77.2z M33.3,77.2c0-0.2-0.1-0.4-0.2-0.5
				s-0.3-0.2-0.6-0.2h-1c-0.2,0-0.4,0.1-0.6,0.2s-0.2,0.3-0.2,0.5s0.1,0.4,0.2,0.5s0.3,0.2,0.6,0.2h1c0.2,0,0.4-0.1,0.6-0.2
				S33.3,77.4,33.3,77.2z"/>
		</g>
	</g>
	<g>
		<path class="st3" d="M32.1,88.8L32.1,88.8c-1.3,0-2.3-1-2.3-2.3v-1.3c0-1.3,1-2.3,2.3-2.3l0,0c1.3,0,2.3,1,2.3,2.3v1.3
			C34.4,87.8,33.4,88.8,32.1,88.8z"/>
		<path class="st4" d="M32.1,88.1L32.1,88.1c-1,0-1.7-0.8-1.7-1.7v-1c0-1,0.8-1.7,1.7-1.7l0,0c1,0,1.7,0.8,1.7,1.7v1
			C33.9,87.3,33.1,88.1,32.1,88.1z"/>
		<g>
			<rect x="31.4" y="85.3" class="st5" width="1.3" height="1.3"/>
			<polygon class="st6" points="32.1,85.9 32.8,86.5 32.8,85.2 			"/>
			<polygon class="st7" points="31.4,86.5 32.1,85.9 32.8,86.5 			"/>
			<polygon class="st6" points="31.4,85.2 32.1,85.9 31.4,86.5 			"/>
		</g>
	</g>
	<g>
		<rect x="31.4" y="90.7" class="st5" width="1.4" height="8"/>
		<rect x="31.5" y="90.7" class="st6" width="1.1" height="8"/>
		<polygon class="st6" points="32.5,99.2 32.8,98.7 31.4,98.7 31.7,99.2 		"/>
		<polygon class="st7" points="32.5,99.2 32.7,98.7 31.5,98.7 31.7,99.2 		"/>
	</g>
	<g>
		<g class="st1">
			<path class="st2" d="M40.8,81.8l-3.4-1.2v-0.4l3.4-1.2v0.5l-2.7,0.9l2.7,0.9V81.8z M40.1,81.2h-0.5v-1.8h0.5V81.2z"/>
			<path class="st2" d="M40.8,77.3c0,0.2-0.1,0.4-0.2,0.6c-0.1,0.2-0.2,0.3-0.4,0.4c-0.2,0.1-0.4,0.1-0.7,0.1h-1
				c-0.2,0-0.5,0-0.7-0.1c-0.2-0.1-0.3-0.2-0.4-0.4c-0.1-0.2-0.2-0.4-0.2-0.6c0-0.2,0.1-0.4,0.2-0.6c0.1-0.2,0.2-0.3,0.4-0.4
				c0.2-0.1,0.4-0.1,0.7-0.1h1c0.2,0,0.5,0,0.7,0.1c0.2,0.1,0.3,0.2,0.4,0.4C40.8,76.8,40.8,77,40.8,77.3z M40.4,77.3
				c0-0.2-0.1-0.4-0.2-0.5c-0.1-0.1-0.3-0.2-0.6-0.2h-1c-0.2,0-0.4,0.1-0.6,0.2c-0.1,0.1-0.2,0.3-0.2,0.5c0,0.2,0.1,0.4,0.2,0.5
				c0.1,0.1,0.3,0.2,0.6,0.2h1c0.2,0,0.4-0.1,0.6-0.2C40.3,77.6,40.4,77.5,40.4,77.3z"/>
		</g>
	</g>
	<g>
		<path class="st3" d="M39.3,88.8L39.3,88.8c-1.3,0-2.3-1-2.3-2.3v-1.3c0-1.3,1-2.3,2.3-2.3l0,0c1.3,0,2.3,1,2.3,2.3v1.3
			C41.5,87.8,40.5,88.8,39.3,88.8z"/>
		<path class="st4" d="M39.3,88.1L39.3,88.1c-1,0-1.7-0.8-1.7-1.7v-1c0-1,0.8-1.7,1.7-1.7l0,0c1,0,1.7,0.8,1.7,1.7v1
			C41,87.3,40.2,88.1,39.3,88.1z"/>
		<g>
			<rect x="38.6" y="85.2" class="st5" width="1.3" height="1.3"/>
			<polygon class="st6" points="39.3,85.9 39.9,86.5 39.9,85.2 			"/>
			<polygon class="st7" points="38.6,86.5 39.3,85.9 39.9,86.5 			"/>
			<polygon class="st6" points="38.6,85.2 39.3,85.9 38.6,86.5 			"/>
		</g>
	</g>
	<g>
		<rect x="38.6" y="90.6" class="st5" width="1.4" height="8"/>
		<rect x="38.7" y="90.6" class="st6" width="1.1" height="8"/>
		<polygon class="st6" points="39.7,99.2 40,98.7 38.6,98.7 38.8,99.2 		"/>
		<polygon class="st7" points="39.7,99.2 39.8,98.7 38.7,98.7 38.8,99.2 		"/>
	</g>
	<g>
		<rect x="30.6" y="97.6" class="st2" width="3" height="17.2"/>
	</g>
	<g>
		<rect x="23.5" y="97.6" width="3" height="13.4"/>
	</g>
	<g>
		<rect x="16.3" y="97.6" class="st8" width="3" height="13.4"/>
	</g>
	<g>
		<rect x="37.8" y="97.6" class="st9" width="3" height="17.2"/>
	</g>
</g>
<polyline class="st10" points="14.4,111.6 30,111.6 26.2,115.4 42.6,115.4 "/>
<polyline class="st10" points="14.4,114.9 23.3,114.9 20.1,118.1 42.6,118.1 "/>
<g>
	<g>
		<circle class="st11" cx="28.3" cy="36.9" r="24.1"/>
		<circle class="st12" cx="28.3" cy="36.9" r="18.6"/>
	</g>
	<g class="st13">
		<defs>
			<circle id="SVGID_1_" class="st13" cx="28.3" cy="36.9" r="18.6"/>
		</defs>
		<clipPath id="SVGID_2_">
			<use xlink:href="#SVGID_1_"  style="overflow:visible;"/>
		</clipPath>
		<g class="st14">
			<g>
				<line class="st15" x1="9.8" y1="18.3" x2="9.8" y2="55.4"/>
				<line class="st15" x1="19.1" y1="18.3" x2="19.1" y2="55.4"/>
				<line class="st15" x1="28.3" y1="18.3" x2="28.3" y2="55.4"/>
				<line class="st15" x1="37.6" y1="18.3" x2="37.6" y2="55.4"/>
				<line class="st15" x1="46.9" y1="18.3" x2="46.9" y2="55.4"/>
			</g>
			<g>
				<line class="st15" x1="3" y1="43.6" x2="35.1" y2="62.2"/>
				<line class="st15" x1="7.6" y1="35.6" x2="39.8" y2="54.2"/>
				<line class="st15" x1="12.3" y1="27.6" x2="44.4" y2="46.1"/>
				<line class="st15" x1="16.9" y1="19.5" x2="49.1" y2="38.1"/>
				<line class="st15" x1="21.5" y1="11.5" x2="53.7" y2="30.1"/>
			</g>
			<g>
				<line class="st15" x1="53.7" y1="43.6" x2="21.5" y2="62.2"/>
				<line class="st15" x1="49.1" y1="35.6" x2="16.9" y2="54.2"/>
				<line class="st15" x1="44.4" y1="27.6" x2="12.3" y2="46.1"/>
				<line class="st15" x1="39.8" y1="19.5" x2="7.6" y2="38.1"/>
				<line class="st15" x1="35.1" y1="11.5" x2="3" y2="30.1"/>
			</g>
		</g>
	</g>
</g>
</svg>
