<?xml version="1.0" encoding="utf-8"?>
<!-- Generator: Adobe Illustrator 24.2.3, SVG Export Plug-In . SVG Version: 6.00 Build 0)  -->
<svg version="1.1" id="Layer_1" xmlns="http://www.w3.org/2000/svg" xmlns:xlink="http://www.w3.org/1999/xlink" x="0px" y="0px"
	 viewBox="0 0 279.2 158.1" style="enable-background:new 0 0 279.2 158.1;" xml:space="preserve">
<style type="text/css">
	.st0{fill:#0A6D34;}
	.st1{fill:#FFFFFF;}
	.st2{font-family:'SegoeUI-Bold';}
	.st3{font-size:4px;}
	.st4{display:none;}
	.st5{fill:none;stroke:#CAB65E;stroke-width:3.5133;stroke-miterlimit:10;}
	.st6{font-size:6.3239px;}
	.st7{fill:#3D3C3A;}
	.st8{fill:#DDDDDC;}
	.st9{fill:none;stroke:#FFFFFF;stroke-width:0.3513;stroke-miterlimit:10;}
	.st10{fill:#C9B55E;}
	.st11{fill:none;stroke:#C9B55E;stroke-width:8.782068e-02;stroke-miterlimit:10;}
	.st12{fill:#B7B7B7;}
	.st13{fill:#474748;}
	.st14{fill:#D3D3D3;}
	.st15{fill:#EDD943;}
	.st16{fill:#F1DF32;}
	.st17{fill:#232221;}
	.st18{fill:none;stroke:#CAB65E;stroke-width:1.4053;stroke-miterlimit:10;}
	.st19{font-size:3.8398px;}
	.st20{font-size:3.5px;}
	.st21{font-size:4.5px;}
	.st22{font-size:4.9368px;}
	.st23{fill:none;stroke:#FFFFFF;stroke-width:1.054;stroke-miterlimit:10;}
	.st24{fill:#EDEDF2;}
	.st25{fill:none;stroke:#7C6B2B;stroke-width:0.1756;stroke-miterlimit:10;}
	.st26{fill:#F3C028;}
	.st27{fill:none;stroke:#FFFFFF;stroke-width:0.7027;stroke-miterlimit:10;}
	.st28{fill:#0A783D;}
	.st29{font-size:5.3313px;}
	.st30{font-size:4.9186px;}
	.st31{fill:none;stroke:#910909;stroke-width:0.7027;stroke-miterlimit:10;}
	.st32{fill:#C6C5C5;}
	.st33{fill:none;stroke:#FFFFFF;stroke-width:0.7027;stroke-miterlimit:9.9997;}
	.st34{fill:none;stroke:#FFFFFF;stroke-width:0.7027;stroke-miterlimit:10.0002;}
	.st35{fill:none;stroke:#FFFFFF;stroke-width:0.6566;stroke-miterlimit:10;}
	.st36{fill:none;stroke:#CAB65E;stroke-width:1.7566;stroke-miterlimit:10;}
	.st37{font-family:'FabricExternalMDL2Assets';}
	.st38{font-size:11.8574px;}
	.st39{font-size:8px;}
	.st40{font-size:9px;}
	.st41{font-size:5px;}
	.st42{fill:#EDECF1;}
	.st43{fill:#7C6C2C;}
	.st44{fill:#CAB65E;}
	.st45{fill:#8D181B;}
	.st46{fill:#CD2027;}
	.st47{fill:#5CAF66;}
	.st48{fill:#76C27C;}
	.st49{clip-path:url(#SVGID_2_);}
	.st50{fill:#BBBBBB;}
	.st51{clip-path:url(#SVGID_4_);}
	.st52{fill:none;stroke:#FFFFFF;stroke-width:0.4394;stroke-miterlimit:10;}
	.st53{fill:#FFFFFF;stroke:#FFFFFF;stroke-width:0.4394;stroke-linejoin:round;stroke-miterlimit:10;}
	.st54{fill:#014CB1;stroke:#FFFFFF;stroke-width:0.4394;stroke-miterlimit:10;}
	.st55{fill:none;stroke:#FFFFFF;stroke-width:0.2388;stroke-miterlimit:10;}
	.st56{display:inline;}
	.st57{fill:none;stroke:#232221;stroke-miterlimit:10;}
	.st58{fill:none;stroke:#232221;stroke-linejoin:round;stroke-miterlimit:10;}
	.st59{fill:none;stroke:#FFFFFF;stroke-width:0.5;stroke-linecap:round;stroke-miterlimit:10;}
	.st60{fill:none;stroke:#FFFFFF;stroke-width:0.25;stroke-miterlimit:10;}
	.st61{fill:#8F191E;}
	.st62{fill:#C0944C;}
	.st63{fill:#FDC26B;}
	.st64{fill:#FFD39B;}
	.st65{fill:#E4A437;}
	.st66{fill:#302F2F;}
	.st67{fill:none;stroke:#FFFFFF;stroke-width:0.3344;stroke-miterlimit:10;}
	.st68{fill:none;stroke:#FFFFFF;stroke-width:0.5;stroke-miterlimit:10;}
	.st69{font-family:'SegoeUI-Semibold';}
</style>
<path class="st0" d="M261.4,2H10.2C4.6,2,0,6.5,0,12.1v135.3c0,5.6,4.6,10.2,10.1,10.2h251.2c5.6,0,10.1-4.6,10.1-10.1V12.1
	C271.6,6.5,267,2,261.4,2z M243.2,40.2c1.1,0,2,0.9,2,2s-0.9,2-2,2s-2-0.9-2-2S242,40.2,243.2,40.2z M243.2,47.3c1.1,0,2,0.9,2,2
	s-0.9,2-2,2s-2-0.9-2-2S242,47.3,243.2,47.3z M243.2,54.3c1.1,0,2,0.9,2,2c0,1.2-0.9,2-2,2s-2-0.9-2-2S242.1,54.3,243.2,54.3z
	 M243.2,61.3c1.1,0,2,0.9,2,2c0,1.2-0.9,2-2,2s-2-0.9-2-2C241.2,62.2,242,61.3,243.2,61.3z M243.2,68.3c1.1,0,2,0.9,2,2s-0.9,2-2,2
	s-2-0.9-2-2C241.2,69.3,242,68.3,243.2,68.3z M62,27c1.1,0,2,0.9,2,2s-0.9,2-2,2s-2-0.9-2-2C60,27.8,60.9,27,62,27z M61.9,34.1
	c1.1,0,2,0.9,2,2s-0.9,2-2,2s-2-0.9-2-2S60.8,34.1,61.9,34.1z M61.9,41.4c1.1,0,2,0.9,2,2c0,1.2-0.9,2-2,2s-2-0.9-2-2
	C59.9,42.2,60.8,41.4,61.9,41.4z M61.9,48.9c1.1,0,2,0.9,2,2c0,1.2-0.9,2-2,2s-2-0.9-2-2C59.9,49.8,60.8,48.9,61.9,48.9z M61.9,56.1
	c1.1,0,2,0.9,2,2s-0.9,2-2,2s-2-0.9-2-2S60.8,56.1,61.9,56.1z M61.9,63.2c1.1,0,2,0.9,2,2s-0.9,2-2,2s-2-0.9-2-2
	C60,64.1,60.8,63.2,61.9,63.2z M61.9,70.4c1.1,0,2,0.9,2,2s-0.9,2-2,2s-2-0.9-2-2S60.8,70.4,61.9,70.4z M61.9,77.5c1.1,0,2,0.9,2,2
	s-0.9,2-2,2s-2-0.9-2-2S60.8,77.5,61.9,77.5z M15.3,116.4c-4.1,0-7.4-3.3-7.4-7.4s3.3-7.4,7.4-7.4s7.4,3.3,7.4,7.4
	S19.4,116.4,15.3,116.4z M15.3,87.6c-4.1,0-7.4-3.3-7.4-7.4s3.3-7.4,7.4-7.4s7.4,3.3,7.4,7.4C22.7,84.2,19.4,87.6,15.3,87.6z
	 M15.3,59.1c-4.1,0-7.4-3.3-7.4-7.4s3.3-7.4,7.4-7.4s7.4,3.3,7.4,7.4S19.4,59.1,15.3,59.1z M15.3,31c-4.1,0-7.4-3.3-7.4-7.4
	s3.3-7.4,7.4-7.4s7.4,3.3,7.4,7.4S19.4,31,15.3,31z M40,116.5c-4.1,0-7.4-3.3-7.4-7.4s3.3-7.4,7.4-7.4s7.4,3.3,7.4,7.4
	S44.1,116.5,40,116.5z M40,87.7c-4.1,0-7.4-3.3-7.4-7.4s3.3-7.4,7.4-7.4s7.4,3.3,7.4,7.4S44.1,87.7,40,87.7z M40,59.2
	c-4.1,0-7.4-3.3-7.4-7.4s3.3-7.4,7.4-7.4s7.4,3.3,7.4,7.4S44.1,59.2,40,59.2z M40,31.1c-4.1,0-7.4-3.3-7.4-7.4s3.3-7.4,7.4-7.4
	s7.4,3.3,7.4,7.4S44.1,31.1,40,31.1z M57.3,21.2l-3.9-3.9V5h2.5v11.2l3.2,3.2L57.3,21.2z M61.9,84.7c1.1,0,2,0.9,2,2
	c0,1.2-0.9,2-2,2s-2-0.9-2-2C59.9,85.5,60.8,84.7,61.9,84.7z M62,95.8c-1.2,0-2-0.9-2-2s0.9-2,2-2c1.2,0,2,0.9,2,2
	S63.1,95.8,62,95.8z M73.6,17.3l-3.9,3.9l-1.8-1.8l3.2-3.2V5h2.5C73.6,5,73.6,17.3,73.6,17.3z M85.1,151.9c-2.1,0-3.8-1.7-3.8-3.8
	s1.7-3.8,3.8-3.8s3.8,1.7,3.8,3.8C89,150.2,87.3,151.9,85.1,151.9z M85.1,15.9c-2.1,0-3.8-1.7-3.8-3.8s1.7-3.8,3.8-3.8
	S89,10,89,12.1S87.3,15.9,85.1,15.9z M178.3,88.5c-1.1,0-2-0.9-2-2s0.9-2,2-2s2,0.9,2,2C180.4,87.6,179.4,88.5,178.3,88.5z
	 M185.6,88.5c-1.1,0-2-0.9-2-2s0.9-2,2-2s2,0.9,2,2S186.7,88.5,185.6,88.5z M245.4,133.2c-1.6,0-2.9-1.3-2.9-2.9
	c0-1.6,1.3-2.9,2.9-2.9c1.6,0,2.9,1.3,2.9,2.9C248.3,131.9,247,133.2,245.4,133.2z M245.4,93.2c-1.6,0-2.9-1.3-2.9-2.9
	s1.3-2.9,2.9-2.9c1.6,0,2.9,1.3,2.9,2.9S247,93.2,245.4,93.2z M261.8,151.9c-2.1,0-3.8-1.7-3.8-3.8s1.7-3.8,3.8-3.8
	c2.1,0,3.8,1.7,3.8,3.8C265.7,150.2,263.9,151.9,261.8,151.9z M261.8,15.9c-2.1,0-3.8-1.7-3.8-3.8s1.7-3.8,3.8-3.8
	c2.1,0,3.8,1.7,3.8,3.8S263.9,15.9,261.8,15.9z"/>
<text transform="matrix(1 0 0 1 77.8999 23.366)" class="st1 st2 st3">Temp.</text>
<text transform="matrix(1 0 0 1 94.3002 22.0712)" class="st1 st2 st3">Mag.-Accel.</text>
<g id="Layer_1_1_" class="st4">
</g>
<circle class="st5" cx="15.3" cy="23.6" r="7.4"/>
<circle class="st5" cx="40" cy="23.6" r="7.4"/>
<text transform="matrix(1 0 0 1 9.7128 12.6416)" class="st1 st2 st6">3V3</text>
<text transform="matrix(1 0 0 1 32.9745 12.6416)" class="st1 st2 st6">GND</text>
<circle class="st5" cx="15.3" cy="51.7" r="7.4"/>
<circle class="st5" cx="40" cy="51.7" r="7.4"/>
<text transform="matrix(1 0 0 1 10.1405 40.748)" class="st1 st2 st6">IN1</text>
<text transform="matrix(1 0 0 1 34.7323 40.748)" class="st1 st2 st6">IN2</text>
<circle class="st5" cx="15.3" cy="80.1" r="7.4"/>
<circle class="st5" cx="40" cy="80.1" r="7.4"/>
<text transform="matrix(1 0 0 1 10.1405 69.2051)" class="st1 st2 st6">IN3</text>
<text transform="matrix(1 0 0 1 34.7323 69.2051)" class="st1 st2 st6">IN4</text>
<circle class="st5" cx="15.3" cy="109" r="7.4"/>
<circle class="st5" cx="40" cy="109" r="7.4"/>
<text transform="matrix(1 0 0 1 7.1034 98.0136)" class="st1 st2 st6">OUT1</text>
<text transform="matrix(1 0 0 1 31.6962 98.0136)" class="st1 st2 st6">OUT2</text>
<rect x="77.8" y="23.9" class="st7" width="116.1" height="57.6"/>
<g>
	<circle class="st8" cx="81" cy="27.4" r="2.5"/>
	<circle class="st8" cx="88.3" cy="27.4" r="2.5"/>
	<circle class="st8" cx="95.6" cy="27.4" r="2.5"/>
	<circle class="st8" cx="102.9" cy="27.4" r="2.5"/>
	<circle class="st8" cx="110.2" cy="27.4" r="2.5"/>
	<circle class="st8" cx="117.5" cy="27.4" r="2.5"/>
	<circle class="st8" cx="124.8" cy="27.4" r="2.5"/>
	<circle class="st8" cx="132.1" cy="27.4" r="2.5"/>
	<circle class="st8" cx="139.4" cy="27.4" r="2.5"/>
	<circle class="st8" cx="146.7" cy="27.4" r="2.5"/>
	<circle class="st8" cx="154.1" cy="27.4" r="2.5"/>
	<circle class="st8" cx="161.4" cy="27.4" r="2.5"/>
	<circle class="st8" cx="168.7" cy="27.4" r="2.5"/>
	<circle class="st8" cx="176" cy="27.4" r="2.5"/>
	<circle class="st8" cx="183.3" cy="27.4" r="2.5"/>
	<circle class="st8" cx="190.6" cy="27.4" r="2.5"/>
</g>
<g>
	<circle class="st8" cx="81" cy="34.7" r="2.5"/>
	<circle class="st8" cx="88.3" cy="34.7" r="2.5"/>
	<circle class="st8" cx="95.6" cy="34.7" r="2.5"/>
	<circle class="st8" cx="102.9" cy="34.7" r="2.5"/>
	<circle class="st8" cx="110.2" cy="34.7" r="2.5"/>
	<circle class="st8" cx="117.5" cy="34.7" r="2.5"/>
	<circle class="st8" cx="124.8" cy="34.7" r="2.5"/>
	<circle class="st8" cx="132.1" cy="34.7" r="2.5"/>
	<circle class="st8" cx="139.4" cy="34.7" r="2.5"/>
	<circle class="st8" cx="146.7" cy="34.7" r="2.5"/>
	<circle class="st8" cx="154.1" cy="34.7" r="2.5"/>
	<circle class="st8" cx="161.4" cy="34.7" r="2.5"/>
	<circle class="st8" cx="168.7" cy="34.7" r="2.5"/>
	<circle class="st8" cx="176" cy="34.7" r="2.5"/>
	<circle class="st8" cx="183.3" cy="34.7" r="2.5"/>
	<circle class="st8" cx="190.6" cy="34.7" r="2.5"/>
</g>
<g>
	<circle class="st8" cx="81" cy="41.9" r="2.5"/>
	<circle class="st8" cx="88.3" cy="41.9" r="2.5"/>
	<circle class="st8" cx="95.6" cy="41.9" r="2.5"/>
	<circle class="st8" cx="102.9" cy="41.9" r="2.5"/>
	<circle class="st8" cx="110.2" cy="41.9" r="2.5"/>
	<circle class="st8" cx="117.5" cy="41.9" r="2.5"/>
	<circle class="st8" cx="124.8" cy="41.9" r="2.5"/>
	<circle class="st8" cx="132.1" cy="41.9" r="2.5"/>
	<circle class="st8" cx="139.4" cy="41.9" r="2.5"/>
	<circle class="st8" cx="146.7" cy="41.9" r="2.5"/>
	<circle class="st8" cx="154.1" cy="41.9" r="2.5"/>
	<circle class="st8" cx="161.4" cy="41.9" r="2.5"/>
	<circle class="st8" cx="168.7" cy="41.9" r="2.5"/>
	<circle class="st8" cx="176" cy="41.9" r="2.5"/>
	<circle class="st8" cx="183.3" cy="41.9" r="2.5"/>
	<circle class="st8" cx="190.6" cy="41.9" r="2.5"/>
</g>
<g>
	<circle class="st8" cx="81" cy="49.1" r="2.5"/>
	<circle class="st8" cx="88.3" cy="49.1" r="2.5"/>
	<circle class="st8" cx="95.6" cy="49.1" r="2.5"/>
	<circle class="st8" cx="102.9" cy="49.1" r="2.5"/>
	<circle class="st8" cx="110.2" cy="49.1" r="2.5"/>
	<circle class="st8" cx="117.5" cy="49.1" r="2.5"/>
	<circle class="st8" cx="124.8" cy="49.1" r="2.5"/>
	<circle class="st8" cx="132.1" cy="49.1" r="2.5"/>
	<circle class="st8" cx="139.4" cy="49.1" r="2.5"/>
	<circle class="st8" cx="146.7" cy="49.1" r="2.5"/>
	<circle class="st8" cx="154.1" cy="49.1" r="2.5"/>
	<circle class="st8" cx="161.4" cy="49.1" r="2.5"/>
	<circle class="st8" cx="168.7" cy="49.1" r="2.5"/>
	<circle class="st8" cx="176" cy="49.1" r="2.5"/>
	<circle class="st8" cx="183.3" cy="49.1" r="2.5"/>
	<circle class="st8" cx="190.6" cy="49.1" r="2.5"/>
</g>
<g>
	<circle class="st8" cx="81" cy="56.4" r="2.5"/>
	<circle class="st8" cx="88.3" cy="56.4" r="2.5"/>
	<circle class="st8" cx="95.6" cy="56.4" r="2.5"/>
	<circle class="st8" cx="102.9" cy="56.4" r="2.5"/>
	<circle class="st8" cx="110.2" cy="56.4" r="2.5"/>
	<circle class="st8" cx="117.5" cy="56.4" r="2.5"/>
	<circle class="st8" cx="124.8" cy="56.4" r="2.5"/>
	<circle class="st8" cx="132.1" cy="56.4" r="2.5"/>
	<circle class="st8" cx="139.4" cy="56.4" r="2.5"/>
	<circle class="st8" cx="146.7" cy="56.4" r="2.5"/>
	<circle class="st8" cx="154.1" cy="56.4" r="2.5"/>
	<circle class="st8" cx="161.4" cy="56.4" r="2.5"/>
	<circle class="st8" cx="168.7" cy="56.4" r="2.5"/>
	<circle class="st8" cx="176" cy="56.4" r="2.5"/>
	<circle class="st8" cx="183.3" cy="56.4" r="2.5"/>
	<circle class="st8" cx="190.6" cy="56.4" r="2.5"/>
</g>
<g>
	<circle class="st8" cx="81" cy="63.6" r="2.5"/>
	<circle class="st8" cx="88.3" cy="63.6" r="2.5"/>
	<circle class="st8" cx="95.6" cy="63.6" r="2.5"/>
	<circle class="st8" cx="102.9" cy="63.6" r="2.5"/>
	<circle class="st8" cx="110.2" cy="63.6" r="2.5"/>
	<circle class="st8" cx="117.5" cy="63.6" r="2.5"/>
	<circle class="st8" cx="124.8" cy="63.6" r="2.5"/>
	<circle class="st8" cx="132.1" cy="63.6" r="2.5"/>
	<circle class="st8" cx="139.4" cy="63.6" r="2.5"/>
	<circle class="st8" cx="146.7" cy="63.6" r="2.5"/>
	<circle class="st8" cx="154.1" cy="63.6" r="2.5"/>
	<circle class="st8" cx="161.4" cy="63.6" r="2.5"/>
	<circle class="st8" cx="168.7" cy="63.6" r="2.5"/>
	<circle class="st8" cx="176" cy="63.6" r="2.5"/>
	<circle class="st8" cx="183.3" cy="63.6" r="2.5"/>
	<circle class="st8" cx="190.6" cy="63.6" r="2.5"/>
</g>
<g>
	<circle class="st8" cx="81" cy="70.9" r="2.5"/>
	<circle class="st8" cx="88.3" cy="70.9" r="2.5"/>
	<circle class="st8" cx="95.6" cy="70.9" r="2.5"/>
	<circle class="st8" cx="102.9" cy="70.9" r="2.5"/>
	<circle class="st8" cx="110.2" cy="70.9" r="2.5"/>
	<circle class="st8" cx="117.5" cy="70.9" r="2.5"/>
	<circle class="st8" cx="124.8" cy="70.9" r="2.5"/>
	<circle class="st8" cx="132.1" cy="70.9" r="2.5"/>
	<circle class="st8" cx="139.4" cy="70.9" r="2.5"/>
	<circle class="st8" cx="146.7" cy="70.9" r="2.5"/>
	<circle class="st8" cx="154.1" cy="70.9" r="2.5"/>
	<circle class="st8" cx="161.4" cy="70.9" r="2.5"/>
	<circle class="st8" cx="168.7" cy="70.9" r="2.5"/>
	<circle class="st8" cx="176" cy="70.9" r="2.5"/>
	<circle class="st8" cx="183.3" cy="70.9" r="2.5"/>
	<circle class="st8" cx="190.6" cy="70.9" r="2.5"/>
</g>
<g>
	<circle class="st8" cx="81" cy="78.2" r="2.5"/>
	<circle class="st8" cx="88.3" cy="78.2" r="2.5"/>
	<circle class="st8" cx="95.6" cy="78.2" r="2.5"/>
	<circle class="st8" cx="102.9" cy="78.2" r="2.5"/>
	<circle class="st8" cx="110.2" cy="78.2" r="2.5"/>
	<circle class="st8" cx="117.5" cy="78.2" r="2.5"/>
	<circle class="st8" cx="124.8" cy="78.2" r="2.5"/>
	<circle class="st8" cx="132.1" cy="78.2" r="2.5"/>
	<circle class="st8" cx="139.4" cy="78.2" r="2.5"/>
	<circle class="st8" cx="146.7" cy="78.2" r="2.5"/>
	<circle class="st8" cx="154.1" cy="78.2" r="2.5"/>
	<circle class="st8" cx="161.4" cy="78.2" r="2.5"/>
	<circle class="st8" cx="168.7" cy="78.2" r="2.5"/>
	<circle class="st8" cx="176" cy="78.2" r="2.5"/>
	<circle class="st8" cx="183.3" cy="78.2" r="2.5"/>
	<circle class="st8" cx="190.6" cy="78.2" r="2.5"/>
</g>
<g>
	<g>
		<rect x="84.9" y="96.4" class="st9" width="31.9" height="35.4"/>
		<g>
			<rect x="77.6" y="101.9" class="st10" width="8.3" height="6.8"/>
			<rect x="77.6" y="101.9" class="st11" width="8.3" height="6.8"/>
		</g>
		<g>
			<rect x="115.8" y="101.9" class="st8" width="8.3" height="6.8"/>
			<rect x="115.8" y="101.9" class="st10" width="8.3" height="6.8"/>
		</g>
		<g>
			<rect x="77.6" y="116.9" class="st10" width="8.3" height="6.8"/>
			<rect x="77.6" y="116.9" class="st11" width="8.3" height="6.8"/>
		</g>
		<g>
			<rect x="115.8" y="116.9" class="st8" width="8.3" height="6.8"/>
			<rect x="115.8" y="116.9" class="st10" width="8.3" height="6.8"/>
		</g>
		<g>
			<rect x="78.6" y="102.5" class="st12" width="7.2" height="5.5"/>
		</g>
		<g>
			<rect x="115.8" y="102.5" class="st12" width="7.3" height="5.5"/>
		</g>
		<g>
			<rect x="78.6" y="117.5" class="st12" width="7.2" height="5.5"/>
		</g>
		<g>
			<rect x="115.8" y="117.5" class="st12" width="7.3" height="5.5"/>
		</g>
	</g>
	<g>
		<rect x="85.8" y="98.7" class="st13" width="30" height="30"/>
		<rect x="87.2" y="100" class="st8" width="27.3" height="27.3"/>
		<path class="st8" d="M92.8,105.6h-6.9v-6.4c0-0.3,0.2-0.5,0.5-0.5h6.4V105.6L92.8,105.6z"/>
		<path class="st8" d="M115.8,105.6h-6.9v-6.9h6.4c0.3,0,0.5,0.2,0.5,0.5V105.6L115.8,105.6z"/>
		<path class="st8" d="M92.8,128.6h-6.4c-0.3,0-0.5-0.2-0.5-0.5v-6.4h6.9V128.6L92.8,128.6z"/>
		<path class="st8" d="M115.3,128.6h-6.4v-6.9h6.9v6.4C115.8,128.4,115.6,128.6,115.3,128.6z"/>
		<circle class="st13" cx="89.3" cy="102.1" r="2.4"/>
		<circle class="st13" cx="112.3" cy="102.1" r="2.4"/>
		<circle class="st13" cx="89.3" cy="125.2" r="2.4"/>
		<circle class="st14" cx="100.8" cy="113.6" r="8.6"/>
		<circle class="st13" cx="112.3" cy="125.2" r="2.4"/>
		<circle class="st15" cx="100.8" cy="113.6" r="8.1"/>
		<circle class="st16" cx="100.8" cy="113.6" r="7.6"/>
	</g>
</g>
<g>
	<g>
		<rect x="142.9" y="96.4" class="st9" width="31.9" height="35.4"/>
		<g>
			<rect x="135.7" y="101.9" class="st8" width="8.3" height="6.8"/>
			<rect x="135.7" y="101.9" class="st10" width="8.3" height="6.8"/>
		</g>
		<g>
			<rect x="173.9" y="101.9" class="st10" width="8.3" height="6.8"/>
			<rect x="173.9" y="101.9" class="st11" width="8.3" height="6.8"/>
		</g>
		<g>
			<rect x="135.7" y="116.9" class="st10" width="8.3" height="6.8"/>
			<rect x="135.7" y="116.9" class="st11" width="8.3" height="6.8"/>
		</g>
		<g>
			<rect x="173.9" y="116.9" class="st8" width="8.3" height="6.8"/>
			<rect x="173.9" y="116.9" class="st10" width="8.3" height="6.8"/>
		</g>
	</g>
	<g>
		<rect x="143.9" y="98.7" class="st13" width="30" height="30"/>
		<rect x="145.3" y="100" class="st8" width="27.3" height="27.3"/>
		<path class="st8" d="M150.8,105.6h-6.9v-6.4c0-0.3,0.2-0.5,0.5-0.5h6.4V105.6z"/>
		<path class="st8" d="M173.9,105.6H167v-6.9h6.4c0.3,0,0.5,0.2,0.5,0.5V105.6z"/>
		<path class="st8" d="M150.8,128.6h-6.4c-0.3,0-0.5-0.2-0.5-0.5v-6.4h6.9V128.6z"/>
		<path class="st8" d="M173.4,128.6H167v-6.9h6.9v6.4C173.9,128.4,173.7,128.6,173.4,128.6z"/>
		<circle class="st13" cx="147.4" cy="102.1" r="2.4"/>
		<circle class="st13" cx="170.5" cy="102.1" r="2.4"/>
		<circle class="st13" cx="147.4" cy="125.2" r="2.4"/>
		<circle class="st14" cx="158.9" cy="113.6" r="8.6"/>
		<circle class="st13" cx="170.5" cy="125.2" r="2.4"/>
		<circle class="st15" cx="158.9" cy="113.6" r="8.1"/>
		<circle class="st16" cx="158.9" cy="113.6" r="7.6"/>
	</g>
	<g>
		<rect x="136.7" y="102.5" class="st12" width="7.2" height="5.5"/>
	</g>
	<g>
		<rect x="173.9" y="102.5" class="st12" width="7.3" height="5.5"/>
	</g>
	<g>
		<rect x="136.7" y="117.5" class="st12" width="7.2" height="5.5"/>
	</g>
	<g>
		<rect x="173.9" y="117.5" class="st12" width="7.3" height="5.5"/>
	</g>
</g>
<g>
	<g>
		<g>
			<rect x="188.5" y="103.8" class="st8" width="5.4" height="4.4"/>
			<rect x="188.5" y="103.8" class="st10" width="5.4" height="4.4"/>
		</g>
		<g>
			<rect x="213.5" y="103.8" class="st8" width="5.4" height="4.4"/>
			<rect x="213.5" y="103.8" class="st10" width="5.4" height="4.4"/>
		</g>
		<g>
			<rect x="188.5" y="116.7" class="st8" width="5.4" height="4.4"/>
			<rect x="188.5" y="116.7" class="st10" width="5.4" height="4.4"/>
		</g>
		<g>
			<rect x="213.5" y="116.7" class="st10" width="5.4" height="4.4"/>
			<rect x="213.5" y="116.7" class="st11" width="5.4" height="4.4"/>
		</g>
	</g>
	<g>
		<path class="st13" d="M213.1,122.3h-18.7c-0.3,0-0.5-0.2-0.5-0.5v-18.7c0-0.3,0.2-0.5,0.5-0.5h18.7c0.3,0,0.5,0.2,0.5,0.5v18.7
			C213.5,122.1,213.3,122.3,213.1,122.3z"/>
		<rect x="194.8" y="103.5" class="st8" width="17.9" height="17.9"/>
		<path class="st8" d="M198.5,107.2h-4.6v-4.1c0-0.3,0.2-0.5,0.5-0.5h4.1V107.2z"/>
		<path class="st8" d="M213.5,107.2H209v-4.6h4.1c0.3,0,0.5,0.2,0.5,0.5v4.1H213.5z"/>
		<path class="st8" d="M198.5,122.3h-4.1c-0.3,0-0.5-0.2-0.5-0.5v-4.1h4.6V122.3z"/>
		<path class="st8" d="M213.1,122.3H209v-4.6h4.6v4.1C213.5,122.1,213.3,122.3,213.1,122.3z"/>
		<circle class="st13" cx="196.2" cy="105" r="1.5"/>
		<circle class="st13" cx="211.2" cy="105" r="1.5"/>
		<circle class="st13" cx="196.2" cy="120.1" r="1.5"/>
		<circle class="st14" cx="203.7" cy="112.5" r="5.6"/>
		<circle class="st13" cx="211.2" cy="120.1" r="1.5"/>
		<circle class="st13" cx="203.7" cy="112.5" r="5.3"/>
		<circle class="st17" cx="203.7" cy="112.5" r="5"/>
	</g>
	<rect x="189.2" y="104.5" class="st12" width="4.7" height="3"/>
	<rect x="213.5" y="104.5" class="st12" width="4.8" height="3"/>
	<rect x="189.2" y="117.4" class="st12" width="4.7" height="3"/>
	<rect x="213.5" y="117.4" class="st12" width="4.8" height="3"/>
</g>
<circle class="st18" cx="62" cy="29" r="2"/>
<text transform="matrix(1 0 0 1 64.9169 30.5869)" class="st1 st2 st19">3V3</text>
<circle class="st18" cx="178.3" cy="86.5" r="2"/>
<g>
	<text transform="matrix(1 0 0 1 190.7406 92.0256)" class="st1 st2 st20">IO0</text>
</g>
<circle class="st18" cx="185.6" cy="86.5" r="2"/>
<g>
	<text transform="matrix(1 0 0 1 189.8588 87.9687)" class="st1 st2 st20">GND</text>
</g>
<circle class="st18" cx="62" cy="36.2" r="2"/>
<text transform="matrix(1 0 0 1 64.9169 37.8019)" class="st1 st2 st19">GND</text>
<circle class="st18" cx="62" cy="43.4" r="2"/>
<text transform="matrix(1 0 0 1 64.9169 45.0174)" class="st1 st2 st19">IO23</text>
<circle class="st18" cx="62" cy="50.6" r="2"/>
<text transform="matrix(1 0 0 1 64.9169 52.2324)" class="st1 st2 st19">IO19</text>
<circle class="st18" cx="62" cy="57.8" r="2"/>
<text transform="matrix(1 0 0 1 64.9169 59.4474)" class="st1 st2 st19">IO18</text>
<circle class="st18" cx="62" cy="65" r="2"/>
<text transform="matrix(1 0 0 1 64.9169 66.6629)" class="st1 st2 st19">SDA0</text>
<circle class="st18" cx="62" cy="72.2" r="2"/>
<text transform="matrix(1 0 0 1 64.9169 73.8779)" class="st1 st2 st19">SCL0</text>
<text transform="matrix(1 0 0 1 64.9169 81.0934)" class="st1 st2 st19">3V3</text>
<text transform="matrix(1 0 0 1 64.9169 88.3084)" class="st1 st2 st19">GND</text>
<text transform="matrix(1 0 0 1 64.9169 95.5234)" class="st1 st2 st19">VIN</text>
<text transform="matrix(1 0 0 1 238.6376 137.0693)" class="st1 st2 st19">IN</text>
<text transform="matrix(1 0 0 1 253.9501 134.8369)" class="st1 st2 st19">6VDC.</text>
<text transform="matrix(1 0 0 1 239.3999 84.0999)" class="st1 st2 st21">USB</text>
<text transform="matrix(1 0 0 1 250.2995 82.9005)" class="st1 st2 st21">SWITCH.</text>
<text transform="matrix(1 0 0 1 250.499 87.3089)" class="st1 st2 st21">OUTPUT</text>
<text transform="matrix(1 0 0 1 253.9503 137.9001)" class="st1 st2 st19">max.</text>
<text transform="matrix(1 0 0 1 213.2996 128.493)" class="st1 st2 st21">SERVO</text>
<text transform="matrix(1 0 0 1 207.113 148.374)" class="st1 st2 st19">+V</text>
<text transform="matrix(1 0 0 1 203.7937 155.4549)" class="st1 st2 st19">GND</text>
<text transform="matrix(1 0 0 1 204.45 140.7996)" class="st1 st2 st19">OUT</text>
<text transform="matrix(1 0 0 1 222.7978 133.9092)" class="st1 st2 st19">1</text>
<text transform="matrix(1 0 0 1 234.4667 137.0693)" class="st1 st2 st22">-</text>
<circle class="st18" cx="62" cy="79.4" r="2"/>
<circle class="st18" cx="62" cy="86.6" r="2"/>
<text transform="matrix(1 0 0 1 13.5995 122.8535)" class="st1 st2 st19">I1</text>
<text transform="matrix(1 0 0 1 36.9736 122.8535)" class="st1 st2 st19">I2</text>
<text transform="matrix(1 0 0 1 13.5995 141.6406)" class="st1 st2 st19">I3</text>
<text transform="matrix(1 0 0 1 36.9736 141.6406)" class="st1 st2 st19">I4</text>
<text transform="matrix(1 0 0 1 59.3359 122.8535)" class="st1 st2 st19">O1</text>
<text transform="matrix(1 0 0 1 59.3359 141.6406)" class="st1 st2 st19">O2</text>
<circle class="st18" cx="62" cy="93.8" r="2"/>
<line class="st23" x1="250.3" y1="42.4" x2="245.2" y2="42.4"/>
<line class="st23" x1="250.3" y1="49.4" x2="245.2" y2="49.4"/>
<line class="st23" x1="250.3" y1="56.4" x2="245.2" y2="56.4"/>
<line class="st23" x1="250.3" y1="63.4" x2="245.2" y2="63.4"/>
<line class="st23" x1="250.3" y1="70.5" x2="245.2" y2="70.5"/>
<g>
	<rect x="155.9" y="10.5" class="st24" width="3.9" height="2.6"/>
	<rect x="155.9" y="10.5" class="st25" width="3.9" height="2.6"/>
</g>
<g>
	<rect x="155.9" y="16.3" class="st24" width="3.9" height="2.6"/>
	<rect x="155.9" y="16.3" class="st25" width="3.9" height="2.6"/>
</g>
<g>
	<rect x="156.6" y="13" class="st1" width="2.5" height="3.3"/>
	<rect x="156.6" y="11.9" class="st26" width="2.5" height="1.2"/>
	<rect x="156.6" y="16.3" class="st26" width="2.5" height="1.2"/>
</g>
<g>
	<g>
		<rect x="170.1" y="10.5" class="st24" width="3.9" height="2.6"/>
		<rect x="170.1" y="10.5" class="st25" width="3.9" height="2.6"/>
	</g>
	<g>
		<rect x="170.1" y="16.3" class="st24" width="3.9" height="2.6"/>
		<rect x="170.1" y="16.3" class="st25" width="3.9" height="2.6"/>
	</g>
	<g>
		<rect x="170.7" y="13.1" class="st1" width="2.5" height="3.3"/>
		<rect x="170.7" y="11.9" class="st26" width="2.5" height="1.2"/>
		<rect x="170.7" y="16.3" class="st26" width="2.5" height="1.2"/>
	</g>
</g>
<g>
	<g>
		<rect x="236.2" y="10.5" class="st24" width="3.9" height="2.6"/>
		<rect x="236.2" y="10.5" class="st25" width="3.9" height="2.6"/>
	</g>
	<g>
		<rect x="236.2" y="16.3" class="st24" width="3.9" height="2.6"/>
		<rect x="236.2" y="16.3" class="st25" width="3.9" height="2.6"/>
	</g>
	<g>
		<rect x="236.8" y="13.1" class="st1" width="2.5" height="3.3"/>
		<rect x="236.8" y="11.9" class="st26" width="2.5" height="1.2"/>
		<rect x="236.8" y="16.3" class="st26" width="2.5" height="1.2"/>
	</g>
</g>
<text transform="matrix(1 0 0 1 167.6775 8.1533)" class="st1 st2 st3">WIFI</text>
<text transform="matrix(1 0 0 1 154.7312 8.1531)" class="st1 st2 st3">IOT</text>
<path class="st27" d="M129.2,9.9c0,2-1.6,3.6-3.6,3.6s-3.6-1.6-3.6-3.6H129.2z"/>
<line class="st27" x1="117.5" y1="9.9" x2="120.7" y2="9.9"/>
<line class="st27" x1="125.6" y1="18.2" x2="125.6" y2="15"/>
<line class="st27" x1="130.4" y1="9.9" x2="133.6" y2="9.9"/>
<line class="st27" x1="129.6" y1="13.9" x2="131.9" y2="16.2"/>
<line class="st27" x1="119.7" y1="16.2" x2="122" y2="13.9"/>
<g>
	<rect x="95.9" y="83.9" class="st1" width="10" height="9.3"/>
	<text transform="matrix(1 0 0 1 97.882 90.1836)" class="st28 st2 st29">S1</text>
</g>
<g>
	<rect x="153.9" y="83.9" class="st1" width="10" height="9.3"/>
	<text transform="matrix(1 0 0 1 155.9064 90.1836)" class="st28 st2 st29">S2</text>
</g>
<circle class="st18" cx="243.2" cy="42.3" r="2"/>
<g>
	<text transform="matrix(1 0 0 1 228.2206 44.4873)" class="st1 st2 st30">GND</text>
</g>
<circle class="st18" cx="243.2" cy="49.3" r="2"/>
<g>
	<text transform="matrix(1 0 0 1 226.5595 51.5137)" class="st1 st2 st30">SDA1</text>
</g>
<circle class="st18" cx="243.2" cy="56.3" r="2"/>
<g>
	<text transform="matrix(1 0 0 1 228.0605 58.54)" class="st1 st2 st30">SCL1</text>
</g>
<circle class="st18" cx="243.2" cy="63.3" r="2"/>
<g>
	<text transform="matrix(1 0 0 1 230.29 65.5664)" class="st1 st2 st30">3V3</text>
</g>
<circle class="st18" cx="243.2" cy="70.4" r="2"/>
<g>
	<text transform="matrix(1 0 0 1 233.1191 72.5928)" class="st1 st2 st30">5V</text>
</g>
<g>
	<ellipse class="st8" cx="142.9" cy="13.5" rx="7.4" ry="6.4"/>
	<polyline class="st31" points="139,16.8 147.3,16.8 147.3,14.5 139,14.5 139,12.6 147.3,12.6 147.3,10.2 139,10.2 138.4,9.7 	"/>
</g>
<g>
	<g>
		<g>
			<rect x="61.7" y="5" class="st32" width="3" height="3.2"/>
			<rect x="61.7" y="5" class="st25" width="3" height="3.2"/>
		</g>
		<g>
			<rect x="58.6" y="11.6" class="st32" width="3" height="3.2"/>
			<rect x="58.6" y="11.6" class="st25" width="3" height="3.2"/>
		</g>
		<g>
			<rect x="64.7" y="11.6" class="st32" width="3" height="3.2"/>
			<rect x="64.7" y="11.6" class="st25" width="3" height="3.2"/>
		</g>
		<rect x="62.7" y="6" class="st1" width="0.9" height="1.8"/>
		<g>
			<rect x="61.7" y="11.6" class="st32" width="3" height="3.2"/>
			<rect x="61.7" y="11.6" class="st25" width="3" height="3.2"/>
		</g>
		<rect x="62.7" y="12" class="st1" width="0.9" height="1.8"/>
		<g>
			<rect x="58.6" y="5" class="st32" width="3" height="3.2"/>
			<rect x="58.6" y="5" class="st25" width="3" height="3.2"/>
		</g>
		<rect x="59.7" y="6" class="st1" width="0.9" height="1.8"/>
		<g>
			<rect x="64.7" y="5" class="st32" width="3" height="3.2"/>
			<rect x="64.7" y="5" class="st25" width="3" height="3.2"/>
		</g>
		<rect x="65.7" y="6" class="st1" width="0.9" height="1.8"/>
		<rect x="59.7" y="12" class="st1" width="0.9" height="1.8"/>
		<rect x="65.7" y="12" class="st1" width="0.9" height="1.8"/>
		<rect x="58.1" y="7.8" class="st13" width="10.1" height="4.3"/>
	</g>
</g>
<g>
	<circle class="st27" cx="85.1" cy="12" r="8.2"/>
	<path class="st28" d="M85.1,4.9c-4,0-7.2,3.2-7.2,7.2s3.2,7.2,7.2,7.2s7.2-3.2,7.2-7.2S89.1,4.9,85.1,4.9z M85.1,15.9
		c-2.1,0-3.8-1.7-3.8-3.8s1.7-3.8,3.8-3.8S89,10,89,12.1S87.3,15.9,85.1,15.9z"/>
</g>
<g>
	<circle class="st27" cx="85.1" cy="148" r="8.2"/>
	<path class="st28" d="M85.1,140.8c-4,0-7.2,3.2-7.2,7.2s3.2,7.2,7.2,7.2s7.2-3.2,7.2-7.2S89.1,140.8,85.1,140.8z M85.1,151.9
		c-2.1,0-3.8-1.7-3.8-3.8s1.7-3.8,3.8-3.8s3.8,1.7,3.8,3.8C89,150.2,87.3,151.9,85.1,151.9z"/>
</g>
<g>
	<ellipse transform="matrix(0.4363 -0.8998 0.8998 0.4363 136.7778 242.3378)" class="st33" cx="261.8" cy="12" rx="8.2" ry="8.2"/>
	<path class="st28" d="M261.8,4.9c-4,0-7.2,3.2-7.2,7.2s3.2,7.2,7.2,7.2s7.2-3.2,7.2-7.2S265.8,4.9,261.8,4.9z M261.8,15.9
		c-2.1,0-3.8-1.7-3.8-3.8s1.7-3.8,3.8-3.8c2.1,0,3.8,1.7,3.8,3.8C265.7,14.2,263.9,15.9,261.8,15.9z"/>
</g>
<g>
	<ellipse transform="matrix(0.3162 -0.9487 0.9487 0.3162 38.6085 349.5659)" class="st34" cx="261.8" cy="148" rx="8.2" ry="8.2"/>
	<path class="st28" d="M261.8,140.8c-4,0-7.2,3.2-7.2,7.2s3.2,7.2,7.2,7.2s7.2-3.2,7.2-7.2C269,144.1,265.8,140.8,261.8,140.8z
		 M261.8,151.9c-2.1,0-3.8-1.7-3.8-3.8s1.7-3.8,3.8-3.8c2.1,0,3.8,1.7,3.8,3.8C265.7,150.2,263.9,151.9,261.8,151.9z"/>
</g>
<g>
	<g>
		<rect x="249.3" y="34.8" class="st8" width="2.2" height="43"/>
		<rect x="251.5" y="34.8" class="st1" width="16" height="43"/>
		<rect x="251.5" y="34.8" class="st1" width="19.3" height="6.8"/>
		<rect x="251.5" y="71" class="st1" width="19.3" height="6.8"/>
		<rect x="251.5" y="44" class="st1" width="19.3" height="24.5"/>
		<rect x="236.2" y="34.8" class="st1" width="15.3" height="2.7"/>
		<rect x="236.2" y="75" class="st1" width="15.3" height="2.7"/>
	</g>
	<rect x="262" y="41.6" class="st8" width="8.8" height="2.5"/>
	<rect x="261.8" y="68.5" class="st8" width="9" height="2.5"/>
</g>
<g>
	<rect x="235.7" y="89.6" class="st35" width="36.5" height="41.1"/>
	<g>
		<circle class="st36" cx="245.4" cy="90.4" r="2.9"/>
	</g>
	<g>
		<circle class="st36" cx="245.4" cy="129.4" r="2.9"/>
	</g>
	<path class="st1" d="M276.8,130.2H237c-0.6,0-1-0.5-1-1V91c0-0.6,0.5-1,1-1h39.8V130.2z"/>
	<g>
		<path class="st8" d="M273.3,104.5l-15.2,0.3v-6.7l15.2,0.3c0.4,0,0.7,0.3,0.7,0.7v4.7C273.9,104.3,273.7,104.5,273.3,104.5z"/>
		<path class="st1" d="M269.8,102.7l-11.7,0.3v-3l11.7,0.3c0.5,0,0.9,0.4,0.9,0.9v0.4C270.6,102.3,270.3,102.7,269.8,102.7z"/>
	</g>
	<g>
		<path class="st8" d="M273.3,121.6l-15.2,0.3v-6.7l15.2,0.3c0.4,0,0.7,0.3,0.7,0.7v4.7C273.9,121.3,273.7,121.6,273.3,121.6z"/>
		<path class="st1" d="M269.8,119.8l-11.7,0.3v-3l11.7,0.3c0.5,0,0.9,0.4,0.9,0.9v0.4C270.6,119.3,270.3,119.7,269.8,119.8z"/>
	</g>
	<g>
		<polygon class="st24" points="277.8,132.1 275.9,130.2 275.9,89.9 277.9,87.9 279.2,89.1 277.7,90.7 277.7,129.5 279,130.8 		"/>
	</g>
	<path class="st24" d="M278.8,128.8l-1.2,0.8v-39l1.2,0.8c0.3,0.2,0.4,0.5,0.4,0.8V128C279.2,128.3,279,128.6,278.8,128.8z"/>
	<rect x="236.4" y="97.3" class="st8" width="0.9" height="8.4"/>
	<rect x="236.4" y="114.4" class="st8" width="0.9" height="8.4"/>
</g>
<text transform="matrix(1 0 0 1 206.622 90.8789)" class="st1 st37 st38"></text>
<g>
	<g>
		<g>
			<path class="st1" d="M200.9,6.9c0.4,0,0.8,0.3,0.8,0.8c0,0.4-0.3,0.8-0.8,0.8s-0.8-0.3-0.8-0.8C200.1,7.2,200.5,6.9,200.9,6.9z
				 M200.9,8.1c0.2,0,0.4-0.2,0.4-0.4s-0.2-0.4-0.4-0.4s-0.4,0.2-0.4,0.4C200.5,7.9,200.7,8.1,200.9,8.1z"/>
		</g>
		<g>
			<path class="st1" d="M202.2,11.9c0.3,0,0.6,0.3,0.6,0.6s-0.3,0.6-0.6,0.6s-0.6-0.3-0.6-0.6C201.6,12.2,201.9,11.9,202.2,11.9z
				 M202.2,12.8c0.2,0,0.3-0.1,0.3-0.3s-0.1-0.3-0.3-0.3s-0.3,0.1-0.3,0.3S202.1,12.8,202.2,12.8z"/>
		</g>
		<g>
			<rect x="200.7" y="8.3" class="st1" width="0.3" height="6.1"/>
		</g>
		<g>
			<path class="st1" d="M200.2,14h1.5c0.1,0,0.1,0.1,0.1,0.1c0.1,0.1,0.1,0.1,0,0.2l-0.8,1.3c-0.1,0.1-0.1,0.1-0.1,0.1l-0.1-0.1
				l-0.8-1.3c-0.1-0.1-0.1-0.1,0-0.2C200.1,14.1,200.1,14,200.2,14z M201.4,14.4h-0.9l0.5,0.8L201.4,14.4z"/>
		</g>
		<g>
			<path class="st1" d="M200.9,9.1c0.1,0,0.1,0,0.1,0.1l1.3,1.3c0.1,0.1,0.1,0.1,0.1,0.1v1.5c0,0.1-0.1,0.2-0.2,0.2
				s-0.2-0.1-0.2-0.2v-1.5l-1.3-1.3c-0.1-0.1-0.1-0.2,0-0.2C200.8,9.1,200.8,9.1,200.9,9.1z"/>
		</g>
		<g>
			<path class="st1" d="M200.9,10c0.1,0,0.1,0,0.1,0.1c0.1,0.1,0.1,0.2,0,0.2l-1.3,1.3v1.5c0,0.1-0.1,0.2-0.2,0.2s-0.2-0.1-0.2-0.2
				v-1.5c0-0.1,0-0.1,0.1-0.1l1.4-1.4C200.8,10,200.8,10,200.9,10z"/>
		</g>
		<g>
			<path class="st1" d="M199.2,12.9h0.8c0.1,0,0.2,0.1,0.2,0.2v0.8c0,0.1-0.1,0.2-0.2,0.2h-0.8c-0.1,0-0.2-0.1-0.2-0.2v-0.8
				C199,13,199.1,12.9,199.2,12.9z M199.8,13.2h-0.4v0.4h0.4V13.2z"/>
		</g>
	</g>
	<rect x="198.1" y="6.3" class="st9" width="5.5" height="10.6"/>
	<rect x="199" y="16.9" class="st9" width="3.6" height="2.5"/>
	<rect x="199.7" y="17.8" class="st1" width="0.6" height="0.6"/>
	<rect x="201.3" y="17.8" class="st1" width="0.6" height="0.6"/>
	<path class="st9" d="M200.9,6.3c0,0,0.2-2.1-2.1-2.1"/>
</g>
<g>
	<g>
		<rect x="244.1" y="24" class="st27" width="7.2" height="7.2"/>
		<circle class="st27" cx="247.7" cy="27.6" r="0.9"/>
	</g>
	<g>
		<rect x="256.3" y="24" class="st27" width="7.2" height="7.2"/>
		<circle class="st27" cx="260" cy="27.6" r="0.9"/>
	</g>
	<line class="st27" x1="252.3" y1="27.6" x2="255.5" y2="27.6"/>
	<polyline class="st27" points="249.7,26.4 249.7,25.7 253,25.7 253,26.4 	"/>
	<polyline class="st27" points="254.7,26.4 254.7,25.7 257.9,25.7 257.9,26.4 	"/>
	<polyline class="st27" points="249.7,28.7 249.7,29.4 253,29.4 253,28.7 	"/>
	<polyline class="st27" points="254.7,28.7 254.7,29.4 257.9,29.4 257.9,28.7 	"/>
</g>
<g>
	<text transform="matrix(1 0 0 1 96.4057 147.0501)" class="st1 st2 st39">KidBright 32 </text>
	<text transform="matrix(1 0 0 1 145.9057 147.0501)" class="st1 st2 st40">V1.5i</text>
</g>
<g>
	<text transform="matrix(1 0 0 1 196.9027 100.0827)" class="st1 st2 st41">RESET</text>
</g>
<g>
	<g>
		<g>
			<polygon class="st1" points="4.3,137.2 4.3,124.1 26.3,124.1 26.3,137.2 25.9,137.2 25.9,124.4 4.7,124.4 4.7,137.2 			"/>
		</g>
	</g>
	<g>
		<g>
			<g>
				<g>
					<polygon class="st42" points="5.6,125.3 24.9,125.3 24.9,137.1 18.5,137.1 18.5,134.3 11.9,134.3 11.9,137.1 5.6,137.1 					
						"/>
				</g>
			</g>
			<g>
				<g>
					<path class="st1" d="M24.2,136.5H19v-1.7v-1.1h-1.1h-5.4h-1.1v1.1v1.7h-5V126h17.9L24.2,136.5 M25.5,137.6v-12.8H5.1v12.8h7.5
						v-2.8H18v2.8H25.5L25.5,137.6z"/>
				</g>
			</g>
		</g>
		<g>
			<g>
				<g>
					<circle class="st43" cx="20.8" cy="129.8" r="0.7"/>
				</g>
				<g>
					<path class="st44" d="M19.9,129.8c0-0.4,0.4-0.8,0.8-0.8s0.8,0.4,0.8,0.8s-0.4,0.8-0.8,0.8C20.2,130.6,19.9,130.3,19.9,129.8z
						 M21.3,129.8c0-0.3-0.2-0.4-0.4-0.4c-0.3,0-0.4,0.2-0.4,0.4c0,0.3,0.2,0.4,0.4,0.4C21.1,130.3,21.3,130.1,21.3,129.8z"/>
				</g>
			</g>
			<g>
				<g>
					<circle class="st43" cx="15.3" cy="129.8" r="0.7"/>
				</g>
				<g>
					<path class="st44" d="M14.5,129.8c0-0.4,0.4-0.8,0.8-0.8s0.8,0.4,0.8,0.8s-0.4,0.8-0.8,0.8S14.5,130.3,14.5,129.8z M15.9,129.8
						c0-0.3-0.2-0.4-0.4-0.4s-0.4,0.2-0.4,0.4c0,0.3,0.2,0.4,0.4,0.4S15.9,130.1,15.9,129.8z"/>
				</g>
			</g>
			<g>
				<g>
					<circle class="st43" cx="9.8" cy="129.8" r="0.7"/>
				</g>
				<g>
					<path class="st44" d="M8.8,129.8c0-0.4,0.4-0.8,0.8-0.8c0.4,0,0.8,0.4,0.8,0.8s-0.4,0.8-0.8,0.8C9.3,130.6,8.8,130.3,8.8,129.8
						z M10.2,129.8c0-0.3-0.2-0.4-0.4-0.4s-0.4,0.2-0.4,0.4c0,0.3,0.2,0.4,0.4,0.4C10,130.3,10.2,130.1,10.2,129.8z"/>
				</g>
			</g>
		</g>
	</g>
</g>
<g>
	<g>
		<g>
			<polygon class="st1" points="27.4,137.2 27.4,124.1 49.3,124.1 49.3,137.2 49,137.2 49,124.4 27.8,124.4 27.8,137.2 			"/>
		</g>
	</g>
	<g>
		<g>
			<g>
				<g>
					<polygon class="st42" points="28.7,125.3 47.9,125.3 47.9,137.1 41.5,137.1 41.5,134.3 34.9,134.3 34.9,137.1 28.7,137.1 					
						"/>
				</g>
			</g>
			<g>
				<g>
					<path class="st1" d="M47.3,136.5h-5.2v-1.7v-1.1H41h-5.4h-1.1v1.1v1.7h-5.1V126h17.9V136.5 M48.5,137.6v-12.8H28.1v12.8h7.5
						v-2.8H41v2.8H48.5L48.5,137.6z"/>
				</g>
			</g>
		</g>
		<g>
			<g>
				<g>
					<circle class="st43" cx="43.8" cy="129.8" r="0.7"/>
				</g>
				<g>
					<path class="st44" d="M42.9,129.8c0-0.4,0.4-0.8,0.8-0.8c0.4,0,0.8,0.4,0.8,0.8c0,0.4-0.4,0.8-0.8,0.8
						C43.3,130.6,42.9,130.3,42.9,129.8z M44.3,129.8c0-0.3-0.2-0.4-0.4-0.4s-0.4,0.2-0.4,0.4c0,0.3,0.2,0.4,0.4,0.4
						S44.3,130.1,44.3,129.8z"/>
				</g>
			</g>
			<g>
				<g>
					<circle class="st43" cx="38.3" cy="129.8" r="0.7"/>
				</g>
				<g>
					<path class="st44" d="M37.5,129.8c0-0.4,0.4-0.8,0.8-0.8c0.4,0,0.8,0.4,0.8,0.8c0,0.4-0.4,0.8-0.8,0.8S37.5,130.3,37.5,129.8z
						 M38.9,129.8c0-0.3-0.2-0.4-0.4-0.4s-0.4,0.2-0.4,0.4c0,0.3,0.2,0.4,0.4,0.4C38.7,130.3,38.9,130.1,38.9,129.8z"/>
				</g>
			</g>
			<g>
				<g>
					<circle class="st43" cx="32.8" cy="129.8" r="0.7"/>
				</g>
				<g>
					<path class="st44" d="M31.9,129.8c0-0.4,0.4-0.8,0.8-0.8s0.8,0.4,0.8,0.8c0,0.4-0.4,0.8-0.8,0.8
						C32.3,130.6,31.9,130.3,31.9,129.8z M33.2,129.8c0-0.3-0.2-0.4-0.4-0.4s-0.4,0.2-0.4,0.4c0,0.3,0.2,0.4,0.4,0.4
						C33.1,130.3,33.2,130.1,33.2,129.8z"/>
				</g>
			</g>
		</g>
	</g>
</g>
<g>
	<g>
		<g>
			<polygon class="st1" points="4.3,155.3 4.3,142.2 26.2,142.2 26.2,155.3 25.8,155.3 25.8,142.6 4.6,142.6 4.6,155.3 			"/>
		</g>
	</g>
	<g>
		<g>
			<g>
				<g>
					<polygon class="st42" points="5.5,143.5 24.8,143.5 24.8,155.2 18.4,155.2 18.4,152.4 11.8,152.4 11.8,155.2 5.5,155.2 					
						"/>
				</g>
			</g>
			<g>
				<g>
					<path class="st1" d="M24.1,154.7h-5.2V153v-1.1h-1.1h-5.4h-1.1v1.1v1.7h-5v-10.5h17.9v10.5 M25.3,155.8V143H5v12.8h7.5V153h5.4
						v2.8H25.3L25.3,155.8z"/>
				</g>
			</g>
		</g>
		<g>
			<g>
				<g>
					<circle class="st43" cx="20.7" cy="148" r="0.7"/>
				</g>
				<g>
					<path class="st44" d="M19.8,148c0-0.4,0.4-0.8,0.8-0.8s0.8,0.4,0.8,0.8c0,0.4-0.4,0.8-0.8,0.8C20.1,148.8,19.8,148.5,19.8,148z
						 M21.2,148c0-0.3-0.2-0.4-0.4-0.4c-0.3,0-0.4,0.2-0.4,0.4c0,0.3,0.2,0.4,0.4,0.4S21.2,148.2,21.2,148z"/>
				</g>
			</g>
			<g>
				<g>
					<circle class="st43" cx="15.2" cy="148" r="0.7"/>
				</g>
				<g>
					<path class="st44" d="M14.4,148c0-0.4,0.4-0.8,0.8-0.8s0.8,0.4,0.8,0.8c0,0.4-0.4,0.8-0.8,0.8C14.8,148.8,14.4,148.5,14.4,148z
						 M15.8,148c0-0.3-0.2-0.4-0.4-0.4S15,147.8,15,148c0,0.3,0.2,0.4,0.4,0.4S15.8,148.2,15.8,148z"/>
				</g>
			</g>
			<g>
				<g>
					<circle class="st43" cx="9.7" cy="148" r="0.7"/>
				</g>
				<g>
					<path class="st44" d="M8.7,148c0-0.4,0.4-0.8,0.8-0.8c0.4,0,0.8,0.4,0.8,0.8c0,0.4-0.4,0.8-0.8,0.8
						C9.2,148.8,8.7,148.5,8.7,148z M10.1,148c0-0.3-0.2-0.4-0.4-0.4c-0.3,0-0.4,0.2-0.4,0.4c0,0.3,0.2,0.4,0.4,0.4
						C9.9,148.5,10.1,148.2,10.1,148z"/>
				</g>
			</g>
		</g>
	</g>
</g>
<g>
	<g>
		<g>
			<polygon class="st1" points="50.6,137.2 50.6,124.1 72.5,124.1 72.5,137.2 72.1,137.2 72.1,124.4 50.9,124.4 50.9,137.2 			"/>
		</g>
	</g>
	<g>
		<g>
			<g>
				<g>
					<polygon class="st45" points="51.9,125.3 71.1,125.3 71.1,137.1 64.8,137.1 64.8,134.3 58.2,134.3 58.2,137.1 51.9,137.1 					
						"/>
				</g>
			</g>
			<g>
				<g>
					<g>
						<path class="st46" d="M70.5,136.5h-5.2v-1.7v-1.1h-1.1h-5.4h-1.1v1.1v1.7h-5.1V126h17.9L70.5,136.5 M71.6,137.6v-12.8H51.3
							v12.8h7.5v-2.8h5.4v2.8H71.6L71.6,137.6z"/>
					</g>
				</g>
			</g>
		</g>
		<g>
			<g>
				<g>
					<circle class="st43" cx="67" cy="129.8" r="0.7"/>
				</g>
				<g>
					<path class="st44" d="M66.2,129.8c0-0.4,0.4-0.8,0.8-0.8s0.8,0.4,0.8,0.8s-0.4,0.8-0.8,0.8S66.2,130.3,66.2,129.8z M67.5,129.8
						c0-0.3-0.2-0.4-0.4-0.4s-0.4,0.2-0.4,0.4c0,0.3,0.2,0.4,0.4,0.4S67.5,130.1,67.5,129.8z"/>
				</g>
			</g>
			<g>
				<g>
					<circle class="st43" cx="61.6" cy="129.8" r="0.7"/>
				</g>
				<g>
					<path class="st44" d="M60.7,129.8c0-0.4,0.4-0.8,0.8-0.8c0.4,0,0.8,0.4,0.8,0.8s-0.4,0.8-0.8,0.8
						C61.1,130.6,60.7,130.3,60.7,129.8z M62.1,129.8c0-0.3-0.2-0.4-0.4-0.4c-0.3,0-0.4,0.2-0.4,0.4c0,0.3,0.2,0.4,0.4,0.4
						C61.9,130.3,62.1,130.1,62.1,129.8z"/>
				</g>
			</g>
			<g>
				<g>
					<circle class="st43" cx="56" cy="129.8" r="0.7"/>
				</g>
				<g>
					<path class="st44" d="M55.1,129.8c0-0.4,0.4-0.8,0.8-0.8s0.8,0.4,0.8,0.8s-0.4,0.8-0.8,0.8S55.1,130.3,55.1,129.8z M56.5,129.8
						c0-0.3-0.2-0.4-0.4-0.4c-0.3,0-0.4,0.2-0.4,0.4c0,0.3,0.2,0.4,0.4,0.4C56.3,130.3,56.5,130.1,56.5,129.8z"/>
				</g>
			</g>
		</g>
	</g>
</g>
<g>
	<g>
		<g>
			<polygon class="st1" points="27.4,155.3 27.4,142.2 49.3,142.2 49.3,155.3 49,155.3 49,142.6 27.8,142.6 27.8,155.3 			"/>
		</g>
	</g>
	<g>
		<g>
			<g>
				<g>
					<polygon class="st42" points="28.7,143.5 47.9,143.5 47.9,155.2 41.5,155.2 41.5,152.4 34.9,152.4 34.9,155.2 28.7,155.2 					
						"/>
				</g>
			</g>
			<g>
				<g>
					<path class="st1" d="M47.3,154.7h-5.2V153v-1.1H41h-5.4h-1.1v1.1v1.7h-5.1v-10.5h17.9V154.7 M48.5,155.8V143H28.1v12.8h7.5V153
						H41v2.8H48.5L48.5,155.8z"/>
				</g>
			</g>
		</g>
		<g>
			<g>
				<g>
					<circle class="st43" cx="43.8" cy="148" r="0.7"/>
				</g>
				<g>
					<path class="st44" d="M42.9,148c0-0.4,0.4-0.8,0.8-0.8s0.8,0.4,0.8,0.8c0,0.4-0.4,0.8-0.8,0.8S42.9,148.5,42.9,148z M44.3,148
						c0-0.3-0.2-0.4-0.4-0.4c-0.3,0-0.4,0.2-0.4,0.4c0,0.3,0.2,0.4,0.4,0.4C44.1,148.5,44.3,148.2,44.3,148z"/>
				</g>
			</g>
			<g>
				<g>
					<circle class="st43" cx="38.3" cy="148" r="0.7"/>
				</g>
				<g>
					<path class="st44" d="M37.5,148c0-0.4,0.4-0.8,0.8-0.8s0.8,0.4,0.8,0.8c0,0.4-0.4,0.8-0.8,0.8S37.5,148.5,37.5,148z M38.9,148
						c0-0.3-0.2-0.4-0.4-0.4c-0.3,0-0.4,0.2-0.4,0.4c0,0.3,0.2,0.4,0.4,0.4C38.7,148.5,38.9,148.2,38.9,148z"/>
				</g>
			</g>
			<g>
				<g>
					<circle class="st43" cx="32.8" cy="148" r="0.7"/>
				</g>
				<g>
					<path class="st44" d="M31.9,148c0-0.4,0.4-0.8,0.8-0.8s0.8,0.4,0.8,0.8c0,0.4-0.4,0.8-0.8,0.8C32.3,148.8,31.9,148.5,31.9,148z
						 M33.2,148c0-0.3-0.2-0.4-0.4-0.4c-0.3,0-0.4,0.2-0.4,0.4c0,0.3,0.2,0.4,0.4,0.4C33.1,148.5,33.2,148.2,33.2,148z"/>
				</g>
			</g>
		</g>
	</g>
</g>
<g>
	<g>
		<g>
			<polygon class="st1" points="50.6,155.3 50.6,142.2 72.5,142.2 72.5,155.3 72.1,155.3 72.1,142.6 50.9,142.6 50.9,155.3 			"/>
		</g>
	</g>
	<g>
		<g>
			<g>
				<g>
					<polygon class="st45" points="51.9,143.5 71.1,143.5 71.1,155.2 64.8,155.2 64.8,152.4 58.2,152.4 58.2,155.2 51.9,155.2 					
						"/>
				</g>
			</g>
			<g>
				<g>
					<g>
						<path class="st46" d="M70.5,154.7h-5.2V153v-1.1h-1.1h-5.4h-1.1v1.1v1.7h-5.1v-10.5h17.9L70.5,154.7 M71.6,155.8V143H51.3
							v12.8h7.5V153h5.4v2.8H71.6L71.6,155.8z"/>
					</g>
				</g>
			</g>
		</g>
		<g>
			<g>
				<g>
					<circle class="st43" cx="67" cy="148" r="0.7"/>
				</g>
				<g>
					<path class="st44" d="M66.2,148c0-0.4,0.4-0.8,0.8-0.8s0.8,0.4,0.8,0.8c0,0.4-0.4,0.8-0.8,0.8S66.2,148.5,66.2,148z M67.5,148
						c0-0.3-0.2-0.4-0.4-0.4s-0.4,0.2-0.4,0.4c0,0.3,0.2,0.4,0.4,0.4C67.3,148.5,67.5,148.2,67.5,148z"/>
				</g>
			</g>
			<g>
				<g>
					<circle class="st43" cx="61.6" cy="148" r="0.7"/>
				</g>
				<g>
					<path class="st44" d="M60.7,148c0-0.4,0.4-0.8,0.8-0.8c0.4,0,0.8,0.4,0.8,0.8c0,0.4-0.4,0.8-0.8,0.8
						C61.1,148.8,60.7,148.5,60.7,148z M62.1,148c0-0.3-0.2-0.4-0.4-0.4c-0.3,0-0.4,0.2-0.4,0.4c0,0.3,0.2,0.4,0.4,0.4
						C61.9,148.5,62.1,148.2,62.1,148z"/>
				</g>
			</g>
			<g>
				<g>
					<circle class="st43" cx="56" cy="148" r="0.7"/>
				</g>
				<g>
					<path class="st44" d="M55.1,148c0-0.4,0.4-0.8,0.8-0.8s0.8,0.4,0.8,0.8c0,0.4-0.4,0.8-0.8,0.8S55.1,148.5,55.1,148z M56.5,148
						c0-0.3-0.2-0.4-0.4-0.4c-0.3,0-0.4,0.2-0.4,0.4c0,0.3,0.2,0.4,0.4,0.4C56.3,148.5,56.5,148.2,56.5,148z"/>
				</g>
			</g>
		</g>
	</g>
</g>
<g>
	<rect x="228.8" y="137.9" class="st47" width="23.6" height="19.2"/>
	<rect x="228.8" y="142.4" class="st48" width="23.6" height="10.2"/>
	<g>
		<g>
			<g>
				<g>
					<g>
						<defs>
							<circle id="SVGID_1_" cx="235.7" cy="147" r="3.2"/>
						</defs>
						<clipPath id="SVGID_2_">
							<use xlink:href="#SVGID_1_"  style="overflow:visible;"/>
						</clipPath>
						<g class="st49">
							<circle class="st24" cx="235.7" cy="147" r="3.2"/>
							
								<rect x="234.6" y="143.2" transform="matrix(0.7071 -0.7071 0.7071 0.7071 -34.9376 209.704)" class="st50" width="2.1" height="7.7"/>
						</g>
					</g>
				</g>
			</g>
		</g>
	</g>
	<g>
		<g>
			<g>
				<g>
					<g>
						<defs>
							<circle id="SVGID_3_" cx="245.8" cy="147" r="3.2"/>
						</defs>
						<clipPath id="SVGID_4_">
							<use xlink:href="#SVGID_3_"  style="overflow:visible;"/>
						</clipPath>
						<g class="st51">
							<circle class="st24" cx="245.8" cy="147" r="3.2"/>
							
								<rect x="244.6" y="143.2" transform="matrix(0.7071 -0.7071 0.7071 0.7071 -32.0461 216.7587)" class="st50" width="2.1" height="7.7"/>
						</g>
					</g>
				</g>
			</g>
		</g>
	</g>
</g>
<text transform="matrix(1 0 0 1 244.0712 137.168)" class="st1 st2 st22">+</text>
<text transform="matrix(1 0 0 1 215.8021 133.909)" class="st1 st2 st19">2</text>
<g>
	<path class="st52" d="M225,123.6h-1.5c-1,0-1.7-0.7-1.7-1.7V117c0-1,0.7-1.7,1.7-1.7h1.5c1,0,1.7,0.7,1.7,1.7v4.9
		C226.7,122.7,226,123.6,225,123.6z"/>
	<polyline class="st53" points="223.3,116.9 226.5,114.2 225.3,118.3 	"/>
	<circle class="st54" cx="224.3" cy="117.6" r="1.3"/>
	<circle class="st55" cx="224.3" cy="117.6" r="0.3"/>
</g>
<g id="Layer_3" class="st4">
	<g class="st56">
		<path class="st57" d="M-146.6,347c0,0-20,2.3-26.6,12c-6.7,9.7-12,34-5,46.3s20.7,19,33.3,19s29.3-7.7,35.3-19s2.7-28.3-1.7-41.3
			c-4.4-13-27.3-17-31.3-17l2-4.7L-146.6,347z"/>
		<g>
			<path class="st57" d="M-179,372.4c0,0-2.6-5.6-9.2,0c0,0,2.7,2.3,2,4.3s-5.3,14.7,4.9,17.3"/>
			<path class="st57" d="M-179.7,374.9c0,0-3.4-2.1-4.9,1.4s-3,12.1,3,14.3"/>
		</g>
		<g>
			<path class="st57" d="M-108.9,372.4c0,0,2.6-5.6,9.2,0c0,0-2.7,2.3-2,4.3s5.3,14.7-4.9,17.3"/>
			<path class="st57" d="M-108.3,374.9c0,0,3.4-2.1,4.9,1.4s3,12.1-3,14.3"/>
		</g>
		<path class="st57" d="M-144,373.7c0,0-3.6-11.1-13.9-11.1s-17.8,11.6-19.4,22.2c-1.6,10.6,5.5,35.5,33.3,35.5s34.9-25.8,33.1-36.9
			s-10-20.1-20.1-20.1S-144,373.7-144,373.7z"/>
		<path class="st57" d="M-177.5,375.4c0,0,6.6-1.6,15.1-1.2s14.5,2.4,18.4,2.4s12.2-2.3,19.1-2.5s14.4,1.2,14.4,1.2l1,3.9
			c0,0-2.8,1.4-3.2,5.1s-2.4,13.2-14.8,13.2s-13.4-13.2-13.4-13.2s-0.2-3-2.6-3c-2.4,0-3.1,1.6-3.1,3.5s-4,12.8-13.9,12.8
			s-14.1-9.3-14.6-14.3s-2.9-5.5-2.9-5.5L-177.5,375.4z"/>
		<path class="st57" d="M-173,379.5c0,0-0.4-2,4-2.9s18.1-2.2,20,4.2c1.9,6.4-3.3,15.5-12,15.1C-169.7,395.5-172.8,388.3-173,379.5z
			"/>
		<path class="st57" d="M-114.4,379.5c0,0,0.4-2-4-2.9s-18.1-2.2-20,4.2s3.3,15.5,12,15.1S-114.7,388.3-114.4,379.5z"/>
		<g>
			<circle class="st57" cx="-158.1" cy="385" r="5.8"/>
			<circle class="st57" cx="-156.8" cy="387.2" r="2.9"/>
			<circle class="st57" cx="-160.5" cy="382.4" r="1.3"/>
		</g>
		<g>
			<circle class="st57" cx="-129.1" cy="385" r="5.8"/>
			<circle class="st57" cx="-130.5" cy="387.2" r="2.9"/>
			<circle class="st57" cx="-126.8" cy="382.4" r="1.3"/>
		</g>
		<path class="st58" d="M-146.1,399c0,0-2.2-2.3-0.5-3.7C-144.9,394-146.1,399-146.1,399z"/>
		<path class="st58" d="M-143.4,399c0,0,2.2-2.3,0.5-3.7S-143.4,399-143.4,399z"/>
		<g>
			<path class="st17" d="M-144,408.3c-12.1,0-18.7-3.6-18.9-3.8c-1-0.6-1.4-1.9-0.8-2.9s1.9-1.4,2.9-0.8c0.1,0,6,3.2,16.9,3.2
				s17.1-3.2,17.2-3.2c1-0.6,2.3-0.2,2.9,0.9c0.6,1,0.2,2.3-0.9,2.9C-125.1,404.7-131.9,408.3-144,408.3z"/>
		</g>
	</g>
</g>
<text transform="matrix(1 0 0 1 96.4059 153.5775)" class="st1 st2 st41">https://www.kid-bright.org</text>
<polyline class="st59" points="179.4,89.6 180.8,91.3 189.2,91.3 "/>
<rect x="213.3" y="129.6" class="st60" width="7.1" height="27.8"/>
<rect x="220.4" y="129.6" class="st60" width="7.1" height="27.8"/>
<line class="st60" x1="213.3" y1="135.6" x2="227.5" y2="135.6"/>
<g>
	<g>
		<path class="st61" d="M219.4,150.2h-5c-0.4-0.4-0.7-0.7-1.1-1.1v-5c0.4-0.4,0.7-0.7,1.1-1.1h5c0.4,0.4,0.7,0.7,1.1,1.1v5
			C220.1,149.5,219.9,149.7,219.4,150.2z"/>
		<g>
			<rect x="216" y="145.8" class="st62" width="1.7" height="1.7"/>
			<polygon class="st63" points="216.9,146.6 216,147.5 217.8,147.5 			"/>
			<polygon class="st64" points="216,145.8 216.9,146.6 216,147.5 			"/>
			<polygon class="st63" points="217.8,145.8 216.9,146.6 216,145.8 			"/>
		</g>
	</g>
	<g>
		<path class="st65" d="M219.4,143h-5c-0.4-0.4-0.7-0.7-1.1-1.1v-5c0.4-0.4,0.7-0.7,1.1-1.1h5c0.4,0.4,0.7,0.7,1.1,1.1v5
			C220.1,142.3,219.9,142.5,219.4,143z"/>
		<g>
			<rect x="216" y="138.5" class="st62" width="1.7" height="1.7"/>
			<polygon class="st63" points="216.9,139.4 216,140.3 217.8,140.3 			"/>
			<polygon class="st64" points="216,138.5 216.9,139.4 216,140.3 			"/>
			<polygon class="st63" points="217.8,138.5 216.9,139.4 216,138.5 			"/>
		</g>
	</g>
	<g>
		<path class="st66" d="M219.4,157.4h-5c-0.4-0.4-0.7-0.7-1.1-1.1v-5c0.4-0.4,0.7-0.7,1.1-1.1h5c0.4,0.4,0.7,0.7,1.1,1.1v5
			C220.1,156.8,219.9,156.9,219.4,157.4z"/>
		<g>
			<rect x="216" y="152.9" class="st62" width="1.7" height="1.7"/>
			<polygon class="st63" points="216.9,153.8 216,154.6 217.8,154.6 			"/>
			<polygon class="st64" points="216,152.9 216.9,153.8 216,154.6 			"/>
			<polygon class="st63" points="217.8,152.9 216.9,153.8 216,152.9 			"/>
		</g>
	</g>
	<g>
		<path class="st61" d="M226.5,150.2h-5c-0.4-0.4-0.7-0.7-1.1-1.1v-5c0.4-0.4,0.7-0.7,1.1-1.1h5c0.4,0.4,0.7,0.7,1.1,1.1v5
			C227.2,149.5,226.9,149.7,226.5,150.2z"/>
		<g>
			<rect x="223.1" y="145.8" class="st62" width="1.7" height="1.7"/>
			<polygon class="st63" points="224,146.6 223.1,147.5 224.8,147.5 			"/>
			<polygon class="st64" points="223.1,145.8 224,146.6 223.1,147.5 			"/>
			<polygon class="st63" points="224.8,145.8 224,146.6 223.1,145.8 			"/>
		</g>
	</g>
	<g>
		<path class="st65" d="M226.5,143h-5c-0.4-0.4-0.7-0.7-1.1-1.1v-5c0.4-0.4,0.7-0.7,1.1-1.1h5c0.4,0.4,0.7,0.7,1.1,1.1v5
			C227.2,142.3,226.9,142.5,226.5,143z"/>
		<g>
			<rect x="223.1" y="138.5" class="st62" width="1.7" height="1.7"/>
			<polygon class="st63" points="224,139.4 223.1,140.3 224.8,140.3 			"/>
			<polygon class="st64" points="223.1,138.5 224,139.4 223.1,140.3 			"/>
			<polygon class="st63" points="224.8,138.5 224,139.4 223.1,138.5 			"/>
		</g>
	</g>
	<g>
		<path class="st66" d="M226.5,157.4h-5c-0.4-0.4-0.7-0.7-1.1-1.1v-5c0.4-0.4,0.7-0.7,1.1-1.1h5c0.4,0.4,0.7,0.7,1.1,1.1v5
			C227.2,156.8,226.9,156.9,226.5,157.4z"/>
		<g>
			<rect x="223.1" y="152.9" class="st62" width="1.7" height="1.7"/>
			<polygon class="st63" points="224,153.8 223.1,154.6 224.8,154.6 			"/>
			<polygon class="st64" points="223.1,152.9 224,153.8 223.1,154.6 			"/>
			<polygon class="st63" points="224.8,152.9 224,153.8 223.1,152.9 			"/>
		</g>
	</g>
</g>
<circle class="st67" cx="235.5" cy="135.8" r="1.8"/>
<circle class="st67" cx="245.8" cy="135.8" r="1.8"/>
<polygon class="st7" points="199.3,57.7 199.3,73.7 203.3,77.7 219.3,77.7 223.3,73.7 223.3,57.7 219.3,53.7 203.3,53.7 "/>
<path d="M204.4,225"/>
<path d="M208.4,221"/>
<path d="M208.4,221"/>
<path d="M204.4,225"/>
<path d="M208.4,221"/>
<g>
	<path class="st68" d="M76.5,26.7v-6.6c0-0.7-0.7-1.2-1.4-1.2c-0.8,0-1.4,0.6-1.4,1.2v6.6c-0.4,0.4-0.6,0.9-0.6,1.4
		c0,1.1,0.9,2.1,2.1,2.1c1.1,0,2.1-0.9,2.1-2.1C77.2,27.6,76.9,27.1,76.5,26.7z"/>
	<path class="st1" d="M75.7,27.6v-4.9c0-0.3-0.2-0.6-0.6-0.6c-0.3,0-0.6,0.2-0.6,0.6v4.9c-0.2,0.2-0.4,0.5-0.4,0.8c0,0.6,0.5,1,1,1
		c0.6,0,1-0.5,1-1C76.1,28,76,27.8,75.7,27.6z"/>
	<line class="st59" x1="72" y1="20.4" x2="73.5" y2="20.4"/>
	<line class="st59" x1="72.9" y1="21.9" x2="73.5" y2="21.9"/>
	<line class="st59" x1="72" y1="23.4" x2="73.5" y2="23.4"/>
	<line class="st59" x1="72.9" y1="24.9" x2="73.5" y2="24.9"/>
	<line class="st59" x1="72" y1="26.2" x2="73.5" y2="26.2"/>
</g>
<g>
	<circle class="st68" cx="104.7" cy="13.5" r="2.9"/>
	<line class="st68" x1="102.8" y1="11.4" x2="106.6" y2="15.6"/>
	<line class="st68" x1="102.6" y1="15.5" x2="106.8" y2="11.6"/>
	<line class="st59" x1="104.7" y1="5" x2="104.7" y2="10.6"/>
	<line class="st59" x1="103.4" y1="7.1" x2="104.7" y2="5"/>
	<line class="st59" x1="105.8" y1="7.2" x2="104.7" y2="5"/>
	<line class="st59" x1="107.5" y1="13.5" x2="113.1" y2="13.5"/>
	<line class="st59" x1="111.1" y1="12.3" x2="113.1" y2="13.5"/>
	<line class="st59" x1="111" y1="14.7" x2="113.1" y2="13.5"/>
	<text transform="matrix(1 0 0 1 110.9198 10.6419)" class="st1 st69 st21">X</text>
	<text transform="matrix(1 0 0 1 99.9049 7.8365)" class="st1 st69 st21">Y</text>
	<text transform="matrix(1 0 0 1 97.7039 15.1849)" class="st1 st69 st21">Z</text>
</g>
<g>
	<g>
		<path class="st7" d="M232.5,22.1h-24c-0.6,0-1-0.4-1-1v-3.4c0-0.6,0.4-1,1-1h24c0.6,0,1,0.4,1,1v3.4
			C233.5,21.7,233,22.1,232.5,22.1z"/>
		<path class="st8" d="M231.5,20.4h-3.9c0,0-0.6,0-0.6-0.9V17h-4.3c0,0-0.8,0.1,0,0.9l2.3,1.3v1.2h-3h-3h-3v-1.2l2.3-1.3
			c0.9-0.8,0-0.9,0-0.9H214v2.5c0,0.9-0.6,0.9-0.6,0.9h-1.9h-2c-2,0-2-0.6-2-0.6v-18c0,0,0.5-1.6,3.4-1.7h9l0,0h0.6h0.6l0,0h9
			c2.9,0,3.4,1.7,3.4,1.7v18C233.5,19.8,233.5,20.4,231.5,20.4z"/>
	</g>
	<ellipse class="st1" cx="210.7" cy="10.3" rx="0.1" ry="9.6"/>
	<ellipse class="st1" cx="230.3" cy="10.3" rx="0.1" ry="9.6"/>
</g>
</svg>
