<?xml version="1.0" encoding="utf-8"?>
<!-- Generator: Adobe Illustrator 19.0.0, SVG Export Plug-In . SVG Version: 6.00 Build 0)  -->
<svg version="1.1" id="Layer_1" xmlns="http://www.w3.org/2000/svg" xmlns:xlink="http://www.w3.org/1999/xlink" x="0px" y="0px"
	 viewBox="0 0 113.4 56.7" style="enable-background:new 0 0 113.4 56.7;" xml:space="preserve">
<style type="text/css">
	.st0{fill:none;}
	.st1{fill:#274A88;}
	.st2{opacity:0.5;}
	.st3{fill:#ECECEC;}
	.st4{fill:#FFFFFF;}
	.st5{font-family:'Consolas';}
	.st6{font-size:3.5025px;}
	.st7{font-size:4.0121px;}
	.st8{fill:none;stroke:#FFFFFF;stroke-width:0.15;stroke-miterlimit:10;}
	.st9{fill:#7C6B2B;}
	.st10{fill:#CAB65E;}
</style>
<g id="XMLID_78_">
	<defs>
		<rect id="XMLID_79_" x="0" y="0.3" width="113.4" height="56.3"/>
	</defs>
	<clipPath id="XMLID_80_">
		<use xlink:href="#XMLID_79_"  style="overflow:visible;"/>
	</clipPath>
</g>
<g id="XMLID_70_">
	<circle id="XMLID_77_" class="st0" cx="28.1" cy="56.8" r="3.2"/>
	<circle id="XMLID_76_" class="st0" cx="28.1" cy="0.2" r="3.2"/>
	<path id="XMLID_71_" class="st1" d="M113.4,22.9V3c0-1.6-1.3-2.8-2.8-2.8l-17.9,0c0,0,0,0,0,0c0,4.1-3.3,7.3-7.4,7.3
		c-4.1,0-7.4-3.3-7.4-7.3c0,0,0,0,0,0l-44.6,0c0-2.9-2.4-5.3-5.3-5.3c-2.9,0-5.3,2.4-5.3,5.3l-20,0C1.3,0.2,0,1.4,0,3l0,18.2
		c0,0,0,0,0,0c4.1,0,7.3,3.3,7.3,7.4S4.1,35.9,0,35.9c0,0,0,0,0,0L0,54c0,1.6,1.3,2.8,2.8,2.8l20,0c0,2.9,2.4,5.3,5.3,5.3
		c2.9,0,5.3-2.4,5.3-5.3l44.6,0c0,0,0,0,0-0.1c0-4.1,3.3-7.4,7.4-7.4c4.1,0,7.4,3.3,7.4,7.4c0,0,0,0,0,0.1h18c1.6,0,2.8-1.3,2.8-2.8
		V33.4c2.9,0,5.3-2.4,5.3-5.3C118.7,25.2,116.3,22.9,113.4,22.9z M29.7,59.6c-2.9,1.5-5.9-1.4-4.4-4.4c0.3-0.5,0.7-0.9,1.2-1.2
		c2.9-1.5,5.9,1.4,4.4,4.4C30.6,59,30.2,59.4,29.7,59.6z M29.7,2.9c-2.9,1.5-5.9-1.4-4.4-4.4c0.3-0.5,0.7-0.9,1.2-1.2
		c2.9-1.5,5.9,1.4,4.4,4.4C30.6,2.3,30.2,2.7,29.7,2.9z M113.4,31.3c-1.8,0-3.2-1.4-3.2-3.2s1.4-3.2,3.2-3.2s3.2,1.4,3.2,3.2
		S115.1,31.3,113.4,31.3z"/>
</g>
<g id="XMLID_5_">
	<g id="XMLID_63_">
		<g id="g7810_1_">
			<g id="XMLID_67_" transform="translate(6.515625,969.33598)" class="st2">
				<g id="XMLID_68_">
					<g id="XMLID_69_">
						<path id="path4323-1_1_" class="st3" d="M52.2-955.7c-7.7,0-14,6.3-14,14c0,7.7,6.3,14,14,14c5.1,0,9.6-2.7,12-6.8v-14.3
							C61.7-952.9,57.3-955.7,52.2-955.7z"/>
					</g>
				</g>
			</g>
			<g id="XMLID_64_" transform="matrix(1.8987285,0,0,1.8987285,-35.420753,957.35797)">
				<g id="XMLID_65_">
					<g id="XMLID_66_">
						<path id="path4323_1_" class="st3" d="M55.9-489.6c0,3.5-2.8,6.3-6.3,6.3c-3.5,0-6.3-2.8-6.3-6.3c0-3.5,2.8-6.3,6.3-6.3
							C53.1-496,55.9-493.1,55.9-489.6z"/>
					</g>
				</g>
			</g>
		</g>
	</g>
	<path id="XMLID_62_" class="st4" d="M48.2,14.3L47,14.2c-0.1-0.5-0.3-0.9-0.6-1.3l0.8-1c0.1-0.1,0-0.2,0-0.2L46,10.5
		c-0.1-0.1-0.2-0.1-0.2,0l-1,0.8c-0.4-0.2-0.8-0.4-1.3-0.6l-0.1-1.2c0-0.1-0.1-0.1-0.2-0.1h-1.7c-0.1,0-0.2,0.1-0.2,0.1l-0.1,1.2
		c-0.5,0.1-0.9,0.3-1.3,0.6l-1-0.8c-0.1-0.1-0.2,0-0.2,0l-1.2,1.2c-0.1,0.1-0.1,0.2,0,0.2l0.8,1c-0.2,0.4-0.4,0.8-0.5,1.2
		c0,0,0,0.1,0,0.1l-1.3,0.1c-0.1,0-0.1,0.1-0.1,0.2v1.7c0,0.1,0.1,0.2,0.1,0.2l1.3,0.1c0.1,0.5,0.3,0.9,0.6,1.3l-0.8,1
		c-0.1,0.1,0,0.2,0,0.2l1.2,1.2c0.1,0.1,0.2,0.1,0.2,0l1-0.8c0.1,0,0.1,0.1,0.2,0.1c0.1,0,0.2,0,0.2-0.1l1.1-2.2
		c0-0.1,0-0.2-0.1-0.2c-0.6-0.3-1-1-1-1.7c0-1.1,0.9-2,2-2s2,0.9,2,2c0,0.7-0.4,1.4-1,1.7c-0.1,0-0.1,0.1-0.1,0.2l1.1,2.2
		c0,0.1,0.1,0.1,0.2,0.1c0.1,0,0.1-0.1,0.2-0.1l1,0.8c0.1,0.1,0.2,0,0.2,0l1.2-1.2c0.1-0.1,0.1-0.2,0-0.2l-0.8-1
		c0.2-0.4,0.4-0.8,0.6-1.3l1.2-0.1c0.1,0,0.1-0.1,0.1-0.2v-1.7C48.4,14.4,48.3,14.3,48.2,14.3z"/>
	<path id="XMLID_54_" class="st4" d="M77.2,12.1c-0.4,0-0.8,0.3-1,0.6l-1.2-0.6c0-0.1,0-0.1,0-0.2c0-0.4-0.3-0.8-0.6-1l0.6-2.6
		c0.7,0,1.2-0.6,1.2-1.2c0-0.7-0.6-1.2-1.2-1.2s-1.2,0.6-1.2,1.2c0,0.5,0.3,1,0.8,1.1l-0.6,2.5c-0.1,0-0.1,0-0.1,0
		c-0.3,0-0.5,0.1-0.7,0.2l-0.9-0.9c0.2-0.2,0.3-0.5,0.3-0.8c0-0.7-0.6-1.2-1.2-1.2s-1.2,0.6-1.2,1.2c0,0.7,0.6,1.2,1.2,1.2
		c0.2,0,0.4-0.1,0.6-0.2l0.9,0.9c-0.1,0.2-0.2,0.4-0.2,0.6c0,0.1,0,0.2,0.1,0.3L71,13c-0.2-0.4-0.6-0.6-1.1-0.6
		c-0.7,0-1.2,0.6-1.2,1.2s0.6,1.2,1.2,1.2s1.2-0.6,1.2-1.2c0,0,0-0.1,0-0.1l1.6-0.8c0.1,0.2,0.3,0.4,0.6,0.4v3.5
		c-0.9,0.3-1.5,1.1-1.5,2c0,1.2,1,2.1,2.1,2.1s2.1-1,2.1-2.1c0-1-0.8-1.9-1.8-2.1V13c0.2-0.1,0.3-0.2,0.4-0.4l1.2,0.6
		c0,0.1,0,0.1,0,0.1c0,0.7,0.6,1.2,1.2,1.2s1.2-0.6,1.2-1.2C78.4,12.7,77.8,12.1,77.2,12.1z M74.2,7.1c0-0.4,0.3-0.7,0.7-0.7
		c0.4,0,0.7,0.3,0.7,0.7c0,0.4-0.3,0.7-0.7,0.7C74.5,7.8,74.2,7.5,74.2,7.1z M69.9,14.3c-0.4,0-0.7-0.3-0.7-0.7s0.3-0.7,0.7-0.7
		c0.4,0,0.7,0.3,0.7,0.7S70.3,14.3,69.9,14.3z M70.4,9.3c0-0.4,0.3-0.7,0.7-0.7c0.4,0,0.7,0.3,0.7,0.7c0,0.4-0.3,0.7-0.7,0.7
		C70.7,10.1,70.4,9.8,70.4,9.3z M75.1,18.7c0,0.6-0.5,1.1-1.1,1.1s-1.1-0.5-1.1-1.1s0.5-1.1,1.1-1.1S75.1,18,75.1,18.7z M73.7,12.7
		c-0.4,0-0.7-0.3-0.7-0.7c0-0.4,0.3-0.7,0.7-0.7s0.7,0.3,0.7,0.7C74.4,12.4,74.1,12.7,73.7,12.7z M77.2,14.1c-0.4,0-0.7-0.3-0.7-0.7
		c0-0.4,0.3-0.7,0.7-0.7c0.4,0,0.7,0.3,0.7,0.7C77.9,13.8,77.6,14.1,77.2,14.1z"/>
	<text id="XMLID_53_" transform="matrix(1 0 0 1 34.8594 4.1853)" class="st4 st5 st6">IN</text>
	<text id="XMLID_52_" transform="matrix(0 -1 1 0 74.9285 33.8594)" class="st4 st5 st6">ARGB</text>
	<text id="XMLID_51_" transform="matrix(1 0 0 1 100.0826 11.9648)" class="st4 st5 st6">GND</text>
	<text id="XMLID_50_" transform="matrix(1 0 0 1 7.3594 11.9648)" class="st4 st5 st6">CIN</text>
	<text id="XMLID_49_" transform="matrix(1 0 0 1 69.7528 4.1853)" class="st4 st5 st6">OUT</text>
	<polygon id="XMLID_48_" class="st4" points="68.9,2.9 66.1,1.2 66.1,2.7 39.8,2.7 39.8,3.2 66.1,3.2 66.1,4.6 	"/>
	<text id="XMLID_47_" transform="matrix(1 0 0 1 34.8594 55.3519)" class="st4 st5 st6">IN</text>
	<text id="XMLID_46_" transform="matrix(1 0 0 1 26.8106 46.7248)" class="st4 st5 st7">Grove Chainable RGB LED v2.0</text>
	<text id="XMLID_45_" transform="matrix(1 0 0 1 69.7528 55.3519)" class="st4 st5 st6">OUT</text>
	<polygon id="XMLID_44_" class="st4" points="68.9,54.1 66.1,52.4 66.1,53.8 39.8,53.8 39.8,54.3 66.1,54.3 66.1,55.7 	"/>
	<circle id="XMLID_43_" class="st8" cx="3.8" cy="10.5" r="2.5"/>
	<g id="XMLID_40_">
		<circle id="XMLID_42_" class="st9" cx="3.8" cy="10.5" r="1.6"/>
		<circle id="XMLID_41_" class="st10" cx="3.8" cy="10.5" r="1.3"/>
	</g>
	<circle id="XMLID_39_" class="st8" cx="109.3" cy="10.5" r="2.5"/>
	<g id="XMLID_36_">
		<circle id="XMLID_38_" class="st9" cx="109.3" cy="10.5" r="1.6"/>
		<circle id="XMLID_37_" class="st10" cx="109.3" cy="10.5" r="1.3"/>
	</g>
	<text id="XMLID_35_" transform="matrix(1 0 0 1 100.0826 18.9648)" class="st4 st5 st6">VCC</text>
	<circle id="XMLID_34_" class="st8" cx="109.3" cy="17.5" r="2.5"/>
	<g id="XMLID_31_">
		<circle id="XMLID_33_" class="st9" cx="109.3" cy="17.5" r="1.6"/>
		<circle id="XMLID_32_" class="st10" cx="109.3" cy="17.5" r="1.3"/>
	</g>
	<text id="XMLID_30_" transform="matrix(1 0 0 1 98.1568 40.8815)" class="st4 st5 st6">DOUT</text>
	<circle id="XMLID_29_" class="st8" cx="109.3" cy="39.4" r="2.5"/>
	<g id="XMLID_26_">
		<circle id="XMLID_28_" class="st9" cx="109.3" cy="39.4" r="1.6"/>
		<circle id="XMLID_27_" class="st10" cx="109.3" cy="39.4" r="1.3"/>
	</g>
	<text id="XMLID_25_" transform="matrix(1 0 0 1 98.1568 47.8815)" class="st4 st5 st6">COUT</text>
	<circle id="XMLID_24_" class="st8" cx="109.3" cy="46.4" r="2.5"/>
	<g id="XMLID_21_">
		<circle id="XMLID_23_" class="st9" cx="109.3" cy="46.4" r="1.6"/>
		<circle id="XMLID_22_" class="st10" cx="109.3" cy="46.4" r="1.3"/>
	</g>
	<text id="XMLID_20_" transform="matrix(1 0 0 1 7.3594 19.3398)" class="st4 st5 st6">DIN</text>
	<circle id="XMLID_19_" class="st8" cx="3.8" cy="17.9" r="2.5"/>
	<g id="XMLID_16_">
		<circle id="XMLID_18_" class="st9" cx="3.8" cy="17.9" r="1.6"/>
		<circle id="XMLID_17_" class="st10" cx="3.8" cy="17.9" r="1.3"/>
	</g>
	<text id="XMLID_15_" transform="matrix(1 0 0 1 7.3594 41.0898)" class="st4 st5 st6">VCC</text>
	<circle id="XMLID_14_" class="st8" cx="3.8" cy="39.7" r="2.5"/>
	<g id="XMLID_11_">
		<circle id="XMLID_13_" class="st9" cx="3.8" cy="39.7" r="1.6"/>
		<circle id="XMLID_12_" class="st10" cx="3.8" cy="39.7" r="1.3"/>
	</g>
	<text id="XMLID_10_" transform="matrix(1 0 0 1 7.3594 48.4648)" class="st4 st5 st6">GND</text>
	<circle id="XMLID_9_" class="st8" cx="3.8" cy="47" r="2.5"/>
	<g id="XMLID_6_">
		<circle id="XMLID_8_" class="st9" cx="3.8" cy="47" r="1.6"/>
		<circle id="XMLID_7_" class="st10" cx="3.8" cy="47" r="1.3"/>
	</g>
</g>
<g id="XMLID_2_">
	<path id="XMLID_4_" class="st0" d="M28.1-3c-1.8,0-3.2,1.4-3.2,3.2h6.4C31.2-1.6,29.8-3,28.1-3z"/>
	<circle id="XMLID_3_" class="st0" cx="28.1" cy="0.2" r="3.2"/>
</g>
</svg>
